<svg width="20" height="20" viewBox="0 0 20 20" fill="none" xmlns="http://www.w3.org/2000/svg">
<path d="M18.333 7.50098L16.1497 8.33431" stroke="#656565" stroke-width="0.833333" stroke-linecap="round" stroke-linejoin="round"/>
<path d="M3.85817 8.33431L1.6665 7.50098" stroke="#656565" stroke-width="0.833333" stroke-linecap="round" stroke-linejoin="round"/>
<path d="M15.2081 11.6676H13.1248" stroke="#656565" stroke-width="0.833333" stroke-linecap="round" stroke-linejoin="round"/>
<path d="M6.87484 11.6676H4.7915" stroke="#656565" stroke-width="0.833333" stroke-linecap="round" stroke-linejoin="round"/>
<path d="M16.149 8.33398L15.4499 4.99065C15.2474 4.02565 14.3965 3.33398 13.4099 3.33398H6.67655C5.70905 3.33398 4.86821 4.00065 4.64821 4.94315L3.85571 8.33398" stroke="#656565" stroke-width="0.833333" stroke-linecap="round" stroke-linejoin="round"/>
<path fill-rule="evenodd" clip-rule="evenodd" d="M2.70817 16.6673H4.58317C5.27317 16.6673 5.83317 16.1073 5.83317 15.4173V14.584H14.1665V15.4173C14.1665 16.1073 14.7265 16.6673 15.4165 16.6673H17.2915C17.8665 16.6673 18.3332 16.2007 18.3332 15.6257V10.834C18.3332 9.45315 17.214 8.33398 15.8332 8.33398H4.1665C2.78567 8.33398 1.6665 9.45315 1.6665 10.834V15.6257C1.6665 16.2007 2.13317 16.6673 2.70817 16.6673Z" stroke="#656565" stroke-width="0.833333" stroke-linecap="round" stroke-linejoin="round"/>
</svg>
