<svg width="32" height="32" viewBox="0 0 32 32" fill="none" xmlns="http://www.w3.org/2000/svg">
<path d="M28.6663 26.666C28.6663 27.034 28.3677 27.3327 27.9997 27.3327H5.99967C4.30501 27.3327 3.33301 26.3607 3.33301 24.666V5.33268C3.33301 4.96468 3.63167 4.66602 3.99967 4.66602C4.36767 4.66602 4.66634 4.96468 4.66634 5.33268V24.666C4.66634 25.626 5.03967 25.9993 5.99967 25.9993H27.9997C28.3677 25.9993 28.6663 26.298 28.6663 26.666ZM9.33301 19.3327C9.50367 19.3327 9.67434 19.2674 9.805 19.138L14.1983 14.7446C14.457 14.4873 14.8797 14.486 15.1397 14.7433L17.281 16.8687C18.0637 17.6447 19.3317 17.6407 20.1077 16.8607L25.8063 11.138C26.0663 10.8767 26.065 10.454 25.805 10.194C25.5437 9.93401 25.121 9.93665 24.861 10.1953L19.1637 15.918C18.9037 16.178 18.4823 16.1794 18.221 15.9207L16.081 13.7954C15.301 13.0207 14.0343 13.022 13.257 13.7993L8.86368 18.1927C8.60368 18.4527 8.60368 18.8754 8.86368 19.1354C8.99168 19.2674 9.16234 19.3327 9.33301 19.3327Z" fill="white"/>
</svg>
