<svg width="20" height="20" viewBox="0 0 20 20" fill="none" xmlns="http://www.w3.org/2000/svg">
<path d="M12.082 6.66634C12.082 6.89634 11.8954 7.08301 11.6654 7.08301H8.7487C8.5187 7.08301 8.33203 6.89634 8.33203 6.66634C8.33203 6.43634 8.5187 6.24967 8.7487 6.24967H11.6654C11.8954 6.24967 12.082 6.43634 12.082 6.66634ZM11.6654 9.58301H8.7487C8.5187 9.58301 8.33203 9.76967 8.33203 9.99967C8.33203 10.2297 8.5187 10.4163 8.7487 10.4163H11.6654C11.8954 10.4163 12.082 10.2297 12.082 9.99967C12.082 9.76967 11.8954 9.58301 11.6654 9.58301ZM11.6654 12.9163H8.7487C8.5187 12.9163 8.33203 13.103 8.33203 13.333C8.33203 13.563 8.5187 13.7497 8.7487 13.7497H11.6654C11.8954 13.7497 12.082 13.563 12.082 13.333C12.082 13.103 11.8954 12.9163 11.6654 12.9163ZM5.95369 5.95467L5.41536 6.493L5.2937 6.37134C5.1312 6.20884 4.86701 6.20884 4.70451 6.37134C4.54201 6.53384 4.54201 6.79803 4.70451 6.96053L5.12118 7.3772C5.20284 7.45886 5.30951 7.49886 5.41618 7.49886C5.52285 7.49886 5.62951 7.45803 5.71118 7.3772L6.54451 6.54386C6.70702 6.38136 6.70702 6.11717 6.54451 5.95467C6.38201 5.79217 6.11703 5.79217 5.95369 5.95467ZM5.95369 9.288L5.41536 9.82633L5.2937 9.70467C5.1312 9.54217 4.86701 9.54217 4.70451 9.70467C4.54201 9.86717 4.54201 10.1314 4.70451 10.2939L5.12118 10.7105C5.20284 10.7922 5.30951 10.8322 5.41618 10.8322C5.52285 10.8322 5.62951 10.7914 5.71118 10.7105L6.54451 9.8772C6.70702 9.7147 6.70702 9.4505 6.54451 9.288C6.38201 9.1255 6.11703 9.1255 5.95369 9.288ZM5.95369 12.6213L5.41536 13.1597L5.2937 13.038C5.1312 12.8755 4.86701 12.8755 4.70451 13.038C4.54201 13.2005 4.54201 13.4647 4.70451 13.6272L5.12118 14.0439C5.20284 14.1255 5.30951 14.1655 5.41618 14.1655C5.52285 14.1655 5.62951 14.1247 5.71118 14.0439L6.54451 13.2105C6.70702 13.048 6.70702 12.7838 6.54451 12.6213C6.38201 12.4588 6.11703 12.4588 5.95369 12.6213ZM17.9154 9.58301V15.833C17.9154 16.9813 16.9812 17.9163 15.832 17.9163H4.9987C3.09036 17.9163 2.08203 16.908 2.08203 14.9997V4.99967C2.08203 3.09134 3.09036 2.08301 4.9987 2.08301H11.6654C13.5737 2.08301 14.582 3.09134 14.582 4.99967V7.91634H16.2487C17.1679 7.91634 17.9154 8.66384 17.9154 9.58301ZM14.1662 17.083C13.9045 16.7347 13.7487 16.3013 13.7487 15.833V4.99967C13.7487 3.55884 13.1062 2.91634 11.6654 2.91634H4.9987C3.55786 2.91634 2.91536 3.55884 2.91536 4.99967V14.9997C2.91536 16.4405 3.55786 17.083 4.9987 17.083H14.1662ZM17.082 9.58301C17.082 9.12384 16.7087 8.74967 16.2487 8.74967H14.582V15.833C14.582 16.5222 15.1429 17.083 15.832 17.083C16.5212 17.083 17.082 16.5222 17.082 15.833V9.58301Z" fill="#656565"/>
</svg>
