<svg width="22" height="22" viewBox="0 0 22 22" fill="none" xmlns="http://www.w3.org/2000/svg">
<path d="M11 0.5C5.21 0.5 0.5 5.21 0.5 11C0.5 16.2 4.23 20.57 9.36 21.37C9.5 21.39 9.64999 21.35 9.75999 21.26C9.86999 21.17 9.92999 21.03 9.92999 20.88V14C9.92999 13.72 9.70999 13.5 9.42999 13.5H7.50999V11.5H9.42999C9.70999 11.5 9.92999 11.28 9.92999 11V8.8C9.92999 6.67 11.09 5.5 13.21 5.5C13.86 5.5 14.53 5.57 14.95 5.63V7.07001H14.19C12.88 7.07001 12.06 7.86 12.06 9.13V11.01C12.06 11.29 12.28 11.51 12.56 11.51H14.87L14.57 13.51H12.56C12.28 13.51 12.06 13.73 12.06 14.01V20.89C12.06 21.04 12.12 21.18 12.23 21.27C12.32 21.35 12.44 21.39 12.56 21.39C12.59 21.39 12.61 21.39 12.64 21.39C17.77 20.58 21.5 16.22 21.5 11.02C21.5 5.23 16.79 0.520004 11 0.520004V0.5ZM13.06 20.28V14.5H15C15.25 14.5 15.46 14.32 15.49 14.07L15.94 11.07C15.96 10.93 15.92 10.78 15.82 10.67C15.72 10.56 15.59 10.5 15.44 10.5H13.05V9.12C13.05 8.17 13.69 8.06 14.18 8.06H15.44C15.72 8.06 15.94 7.84 15.94 7.56V5.19C15.94 4.95 15.76 4.74 15.52 4.7C15.47 4.7 14.32 4.5 13.2 4.5C10.52 4.5 8.92 6.11 8.92 8.8V10.5H7C6.72 10.5 6.5 10.72 6.5 11V14C6.5 14.28 6.72 14.5 7 14.5H8.92V20.28C4.58 19.33 1.48 15.52 1.48 11C1.48 5.76 5.74 1.5 10.98 1.5C16.22 1.5 20.48 5.76 20.48 11C20.48 15.51 17.39 19.32 13.04 20.28H13.06Z" fill="white"/>
</svg>
