<svg width="20" height="20" viewBox="0 0 20 20" fill="none" xmlns="http://www.w3.org/2000/svg">
<path d="M9.99967 17.084H4.99967C3.55884 17.084 2.91634 16.4415 2.91634 15.0007V5.00065C2.91634 3.55982 3.55884 2.91732 4.99967 2.91732H9.58301V5.00065C9.58301 6.90898 10.5913 7.91732 12.4997 7.91732H14.583V10.0007C14.583 10.2307 14.7697 10.4173 14.9997 10.4173C15.2297 10.4173 15.4163 10.2307 15.4163 10.0007V7.50065C15.4163 7.38982 15.3722 7.28398 15.2947 7.20565L10.2947 2.20565C10.2163 2.12731 10.1105 2.08398 9.99967 2.08398H4.99967C3.09134 2.08398 2.08301 3.09232 2.08301 5.00065V15.0007C2.08301 16.909 3.09134 17.9173 4.99967 17.9173H9.99967C10.2297 17.9173 10.4163 17.7307 10.4163 17.5007C10.4163 17.2707 10.2297 17.084 9.99967 17.084ZM10.4163 5.00065V3.50648L13.9938 7.08398H12.4997C11.0588 7.08398 10.4163 6.44148 10.4163 5.00065ZM6.45801 10.0007C6.45801 10.3457 6.17801 10.6257 5.83301 10.6257C5.48801 10.6257 5.20801 10.3457 5.20801 10.0007C5.20801 9.65565 5.48801 9.37565 5.83301 9.37565C6.17801 9.37565 6.45801 9.65565 6.45801 10.0007ZM6.45801 13.334C6.45801 13.679 6.17801 13.959 5.83301 13.959C5.48801 13.959 5.20801 13.679 5.20801 13.334C5.20801 12.989 5.48801 12.709 5.83301 12.709C6.17801 12.709 6.45801 12.989 6.45801 13.334ZM12.083 10.0007C12.083 10.2307 11.8963 10.4173 11.6663 10.4173H7.91634C7.68634 10.4173 7.49967 10.2307 7.49967 10.0007C7.49967 9.77065 7.68634 9.58398 7.91634 9.58398H11.6663C11.8963 9.58398 12.083 9.77065 12.083 10.0007ZM7.91634 13.7507C7.68634 13.7507 7.49967 13.564 7.49967 13.334C7.49967 13.104 7.68634 12.9173 7.91634 12.9173H9.16634C9.39634 12.9173 9.58301 13.104 9.58301 13.334C9.58301 13.564 9.39634 13.7507 9.16634 13.7507H7.91634ZM18.628 18.039L17.2087 16.6207C17.5612 16.1465 17.7772 15.5656 17.7772 14.9315C17.7772 13.3615 16.5005 12.084 14.9305 12.084C13.3605 12.084 12.083 13.3615 12.083 14.9315C12.083 16.5015 13.3605 17.779 14.9305 17.779C15.5647 17.779 16.1456 17.5632 16.6198 17.2107L18.038 18.629C18.1197 18.7107 18.2263 18.7507 18.333 18.7507C18.4397 18.7507 18.5463 18.7098 18.628 18.629C18.7905 18.4657 18.7905 18.2023 18.628 18.039ZM12.9163 14.9315C12.9163 13.8206 13.8197 12.9173 14.9305 12.9173C16.0405 12.9173 16.9438 13.8206 16.9438 14.9315C16.9438 16.0423 16.0405 16.9457 14.9305 16.9457C13.8197 16.9448 12.9163 16.0415 12.9163 14.9315Z" fill="white"/>
</svg>
