<svg width="20" height="20" viewBox="0 0 20 20" fill="none" xmlns="http://www.w3.org/2000/svg">
<path d="M16.9617 7.20565L11.9617 2.20565C11.8833 2.12731 11.7775 2.08398 11.6667 2.08398H6.66667C4.75833 2.08398 3.75 3.09232 3.75 5.00065V15.0007C3.75 16.909 4.75833 17.9173 6.66667 17.9173H14.1667C16.075 17.9173 17.0833 16.909 17.0833 15.0007V7.50065C17.0833 7.38982 17.0392 7.28398 16.9617 7.20565ZM12.0833 3.50648L15.6608 7.08398H14.1667C12.7258 7.08398 12.0833 6.44148 12.0833 5.00065V3.50648ZM14.1667 17.084H6.66667C5.22583 17.084 4.58333 16.4415 4.58333 15.0007V5.00065C4.58333 3.55982 5.22583 2.91732 6.66667 2.91732H11.25V5.00065C11.25 6.90898 12.2583 7.91732 14.1667 7.91732H16.25V15.0007C16.25 16.4415 15.6075 17.084 14.1667 17.084ZM11.1283 12.2056C11.2908 12.3681 11.2908 12.6323 11.1283 12.7948L9.46167 14.4615C9.42334 14.4998 9.3766 14.5306 9.32577 14.5515C9.27493 14.5723 9.22083 14.584 9.16667 14.584C9.1125 14.584 9.0584 14.5731 9.00757 14.5515C8.9559 14.5306 8.91 14.4998 8.87166 14.4615L7.205 12.7948C7.0425 12.6323 7.0425 12.3681 7.205 12.2056C7.3675 12.0431 7.63169 12.0431 7.79419 12.2056L8.74919 13.1607V10.0007C8.74919 9.77065 8.93585 9.58398 9.16585 9.58398C9.39585 9.58398 9.58252 9.77065 9.58252 10.0007V13.1615L10.5375 12.2065C10.7017 12.0432 10.965 12.0431 11.1283 12.2056Z" fill="#6B47F5"/>
</svg>
