<svg width="32" height="32" viewBox="0 0 32 32" fill="none" xmlns="http://www.w3.org/2000/svg">
<path d="M27.4253 21.0146C26.6466 20.5746 25.7266 20.5867 24.96 21.0454L21.9546 22.848C21.7266 21.608 20.6374 20.6654 19.332 20.6654H11.9987C11.1 20.6654 10.288 21.0266 9.68799 21.6053C9.33332 21.0426 8.71203 20.6654 7.9987 20.6654H5.33203C4.22936 20.6654 3.33203 21.5627 3.33203 22.6654V27.9987C3.33203 29.1014 4.22936 29.9987 5.33203 29.9987H7.9987C8.7107 29.9987 9.33332 29.6213 9.68799 29.0586C10.288 29.6386 11.1014 29.9987 11.9987 29.9987H19.4613C20.8199 29.9987 22.1506 29.5319 23.2106 28.6839L27.748 25.0534C28.332 24.5867 28.6654 23.8894 28.6654 23.1427C28.6667 22.2507 28.2026 21.4546 27.4253 21.0146ZM8.66667 24V26.6667V28C8.66667 28.368 8.36667 28.6667 8 28.6667H5.33333C4.96667 28.6667 4.66667 28.368 4.66667 28V22.6667C4.66667 22.2987 4.96667 22 5.33333 22H8C8.36667 22 8.66667 22.2987 8.66667 22.6667V24ZM26.916 24.0133L22.3787 27.644C21.5547 28.304 20.5187 28.6667 19.4627 28.6667H12C10.8973 28.6667 10 27.7693 10 26.6667V24C10 22.8973 10.8973 22 12 22H19.3333C20.0693 22 20.6667 22.5987 20.6667 23.3333C20.6667 24.068 20.0693 24.6667 19.3333 24.6667H14.6667C14.2987 24.6667 14 24.9653 14 25.3333C14 25.7013 14.2987 26 14.6667 26H19.3333C20.3627 26 21.2586 25.4133 21.7026 24.556L25.6453 22.1906C25.996 21.9826 26.4147 21.9746 26.7681 22.1759C27.1227 22.3759 27.3333 22.7387 27.3333 23.1453C27.3333 23.484 27.1813 23.8013 26.916 24.0133ZM16.0067 8C17.66 8 19.0067 6.65467 19.0067 5C19.0067 3.34533 17.66 2 16.0067 2C14.3533 2 13.0067 3.34533 13.0067 5C13.0067 6.65467 14.3533 8 16.0067 8ZM16.0067 3.33333C16.9253 3.33333 17.6733 4.08133 17.6733 5C17.6733 5.91867 16.9253 6.66667 16.0067 6.66667C15.088 6.66667 14.34 5.91867 14.34 5C14.34 4.08133 15.0867 3.33333 16.0067 3.33333ZM13.3346 16.6667H18.6654C20.36 16.6667 21.3333 15.6987 21.3333 14.012C21.3333 12.1614 20.2853 10 17.3333 10H14.6667C11.7147 10 10.6667 12.1614 10.6667 14.012C10.6667 15.6987 11.6386 16.6667 13.3346 16.6667ZM14.6667 11.3333H17.3333C19.8067 11.3333 20 13.384 20 14.012C20 14.9627 19.6267 15.3333 18.6654 15.3333H13.3346C12.3733 15.3333 12 14.9627 12 14.012C12 13.2067 12.26 11.3333 14.6667 11.3333Z" fill="white"/>
</svg>
