<svg width="32" height="32" viewBox="0 0 32 32" fill="none" xmlns="http://www.w3.org/2000/svg">
<path d="M16 2C8.28 2 2 8.28 2 16C2 23.72 8.28 30 16 30C23.72 30 30 23.72 30 16C30 8.28 23.72 2 16 2ZM16 28.6667C9.016 28.6667 3.33333 22.984 3.33333 16C3.33333 9.016 9.016 3.33333 16 3.33333C22.984 3.33333 28.6667 9.016 28.6667 16C28.6667 22.984 22.984 28.6667 16 28.6667ZM16.6667 15.9053V22C16.6667 22.368 16.368 22.6667 16 22.6667C15.632 22.6667 15.3333 22.368 15.3333 22V15.9053C15.3333 15.5373 15.632 15.2386 16 15.2386C16.368 15.2386 16.6667 15.5359 16.6667 15.9053ZM17 11.3333C17 11.8867 16.5545 12.3333 16.0052 12.3333C15.4572 12.3333 15 11.8867 15 11.3333C15 10.78 15.436 10.3333 15.9854 10.3333H16.0052C16.5545 10.3333 17 10.78 17 11.3333Z" fill="white"/>
</svg>
