<svg width="20" height="20" viewBox="0 0 20 20" fill="none" xmlns="http://www.w3.org/2000/svg">
<path d="M19.4402 6.25968C19.3802 5.02968 19.1502 3.45969 17.8402 2.15969C16.5402 0.859694 14.9702 0.619687 13.7402 0.559688C12.2402 0.469687 7.76019 0.469687 6.26019 0.559688C5.04019 0.619687 3.47018 0.849694 2.16018 2.15969C0.860182 3.45969 0.620176 5.02968 0.560176 6.25968C0.470176 7.75968 0.470176 12.2397 0.560176 13.7397C0.620176 14.9697 0.850182 16.5397 2.16018 17.8397C3.47018 19.1397 5.04018 19.3797 6.25018 19.4397C7.00018 19.4797 8.50017 19.4997 9.99017 19.4997C11.4802 19.4997 12.9702 19.4797 13.7202 19.4397C14.9402 19.3797 16.5202 19.1497 17.8202 17.8397C19.1202 16.5397 19.3602 14.9697 19.4202 13.7397C19.5102 12.2397 19.5102 7.76968 19.4202 6.25968H19.4402ZM18.4402 13.6797C18.3602 15.2597 17.9702 16.2797 17.1302 17.1197C16.2902 17.9597 15.2602 18.3497 13.6902 18.4297C12.2102 18.5097 7.80019 18.5097 6.32019 18.4297C4.75019 18.3497 3.72018 17.9597 2.88018 17.1197C2.04018 16.2797 1.65019 15.2497 1.57019 13.6697C1.49019 12.1897 1.49019 7.77969 1.57019 6.29969C1.65019 4.71969 2.04018 3.68969 2.88018 2.85969C3.72018 2.01969 4.75016 1.62969 6.33016 1.54969C7.07016 1.50969 8.54019 1.4897 10.0102 1.4897C11.4802 1.4897 12.9602 1.50969 13.7002 1.54969C15.2702 1.62969 16.3002 2.01969 17.1402 2.85969C17.9802 3.69969 18.3702 4.72969 18.4502 6.29969C18.5302 7.77969 18.5302 12.1897 18.4502 13.6697L18.4402 13.6797ZM10.0002 5.49969C7.52018 5.49969 5.50018 7.51969 5.50018 9.99969C5.50018 12.4797 7.52018 14.4997 10.0002 14.4997C12.4802 14.4997 14.5002 12.4797 14.5002 9.99969C14.5002 7.51969 12.4802 5.49969 10.0002 5.49969ZM10.0002 13.4997C8.07018 13.4997 6.50018 11.9297 6.50018 9.99969C6.50018 8.06969 8.07018 6.49969 10.0002 6.49969C11.9302 6.49969 13.5002 8.06969 13.5002 9.99969C13.5002 11.9297 11.9302 13.4997 10.0002 13.4997ZM16.2702 4.49969C16.2702 4.90969 15.9402 5.24969 15.5202 5.24969C15.1002 5.24969 14.7702 4.90969 14.7702 4.49969C14.7702 4.08969 15.1002 3.74969 15.5202 3.74969C15.9402 3.74969 16.2702 4.08969 16.2702 4.49969Z" fill="white"/>
</svg>
