<svg width="20" height="20" viewBox="0 0 20 20" fill="none" xmlns="http://www.w3.org/2000/svg">
<path d="M5.04009 7.13029H1.2501C0.970097 7.13029 0.750097 7.35029 0.750097 7.63029V19.0003C0.750097 19.2803 0.970097 19.5003 1.2501 19.5003H5.04009C5.32009 19.5003 5.54009 19.2803 5.54009 19.0003V7.63029C5.54009 7.35029 5.32009 7.13029 5.04009 7.13029ZM4.54009 18.5003H1.7501V8.13029H4.54009V18.5003ZM3.29009 0.500289C2.54009 0.490289 1.8801 0.740294 1.3501 1.24029C0.820103 1.74029 0.520097 2.41029 0.500097 3.13029C0.480097 3.85029 0.740102 4.5403 1.2401 5.0703C1.7401 5.6003 2.4101 5.90029 3.1301 5.92029C3.1401 5.92029 3.16009 5.92029 3.17009 5.92029C4.66009 5.92029 5.89009 4.7103 5.92009 3.2103C5.92009 1.7303 4.76009 0.540289 3.29009 0.500289ZM3.1601 4.92029C2.7001 4.91029 2.2801 4.72029 1.9701 4.38029C1.6601 4.05029 1.4901 3.61029 1.5001 3.16029C1.5101 2.70029 1.70009 2.2803 2.04009 1.9603C2.37009 1.6503 2.80009 1.48029 3.26009 1.49029C4.19009 1.52029 4.92009 2.27029 4.92009 3.19029C4.90009 4.15029 4.1501 4.93029 3.1601 4.91029V4.92029ZM19.4501 12.1303C19.4501 8.35029 17.0001 7.01028 14.7201 7.01028C13.6601 6.97028 12.6101 7.34029 11.7901 7.99029V7.63029C11.7901 7.35029 11.5701 7.13029 11.2901 7.13029H7.6301C7.3501 7.13029 7.1301 7.35029 7.1301 7.63029V19.0003C7.1301 19.2803 7.3501 19.5003 7.6301 19.5003H11.4201C11.7001 19.5003 11.9201 19.2803 11.9201 19.0003V13.1003C11.9201 13.1003 11.9201 13.0003 11.9201 12.9803C11.9201 12.9503 11.9201 12.9103 11.9201 12.8803C11.8901 12.4303 12.0401 11.9903 12.3401 11.6503C12.6401 11.3103 13.0501 11.1003 13.4701 11.0803C13.7801 11.0803 14.7101 11.0803 14.7101 13.0203V19.0103C14.7101 19.2903 14.9301 19.5103 15.2101 19.5103H19.0001C19.1301 19.5103 19.2601 19.4603 19.3501 19.3603C19.4401 19.2703 19.5001 19.1403 19.5001 19.0003L19.4501 12.1303ZM15.7101 18.5003V13.0103C15.7101 10.3603 14.1501 10.0703 13.4401 10.0703C12.7201 10.1203 12.0601 10.4403 11.5901 10.9903C11.1301 11.5103 10.9001 12.1703 10.9301 12.9003C10.9301 12.9803 10.9301 13.0703 10.9301 13.1003V18.5003H8.1401V8.13029H10.8001V9.27029C10.8001 9.49029 10.9401 9.69029 11.1601 9.75029C11.3701 9.81029 11.6001 9.73029 11.7201 9.55029C12.3701 8.56029 13.5201 7.96028 14.7101 8.01028C15.8401 8.01028 18.4501 8.41029 18.4501 12.1403L18.5001 18.5103H15.7101V18.5003Z" fill="#F9FAFB"/>
</svg>
