<svg width="32" height="32" viewBox="0 0 32 32" fill="none" xmlns="http://www.w3.org/2000/svg">
<path d="M28.5835 3.67932C28.4662 3.46599 28.2422 3.33398 27.9995 3.33398H21.3328C21.1048 3.33398 20.8928 3.44998 20.7702 3.64331L16.7062 10.0367C16.4715 10.0193 16.2382 10.0007 15.9995 10.0007C15.7608 10.0007 15.5275 10.0193 15.2928 10.0367L11.2288 3.64331C11.1062 3.45131 10.8942 3.33398 10.6662 3.33398H3.99951C3.75551 3.33398 3.53153 3.46599 3.41553 3.67932C3.29953 3.89265 3.30748 4.15266 3.43815 4.35799L9.0262 13.154C7.56354 14.802 6.66748 16.9633 6.66748 19.334C6.66748 24.4806 10.8555 28.6673 16.0008 28.6673C21.1461 28.6673 25.3341 24.4806 25.3341 19.334C25.3341 16.9633 24.4383 14.802 22.9756 13.154L28.5635 4.35799C28.6928 4.15266 28.7008 3.89265 28.5835 3.67932ZM10.3008 4.66732L13.8555 10.2593C12.4128 10.6007 11.0969 11.2727 9.99821 12.198L5.21419 4.66732H10.3008ZM15.9995 27.334C11.5875 27.334 7.99951 23.7446 7.99951 19.334C7.99951 14.9233 11.5875 11.334 15.9995 11.334C20.4115 11.334 23.9995 14.9233 23.9995 19.334C23.9995 23.7446 20.4115 27.334 15.9995 27.334ZM22.0021 12.198C20.9034 11.2727 19.5875 10.6007 18.1449 10.2593L21.6995 4.66732H26.7861L22.0021 12.198ZM19.7129 17.4327L17.8354 17.1606L17.0249 15.5247C16.6369 14.7393 15.3636 14.7406 14.9756 15.5233L14.1649 17.1606L12.2874 17.4327C11.8661 17.494 11.5208 17.7833 11.3888 18.19C11.2568 18.5953 11.3649 19.0313 11.6715 19.3287L13.0288 20.6447L12.7209 22.438C12.6449 22.8687 12.8182 23.2966 13.1715 23.5553C13.5262 23.814 13.9888 23.8487 14.3768 23.646L16.0021 22.7953L17.6274 23.646C17.7968 23.734 17.9795 23.778 18.1595 23.778C18.3968 23.778 18.6315 23.7033 18.8328 23.5566C19.1862 23.298 19.3595 22.87 19.2848 22.4406L18.9756 20.6447L20.3328 19.3287C20.6382 19.0313 20.7476 18.5953 20.6156 18.19C20.4796 17.7846 20.1356 17.494 19.7129 17.4327ZM17.9608 19.77C17.6968 20.026 17.5768 20.394 17.6382 20.7566L17.9022 22.2873L16.5155 21.562C16.1928 21.394 15.8075 21.394 15.4849 21.562L14.0981 22.2873L14.3621 20.7553C14.4235 20.394 14.3035 20.026 14.0409 19.77L12.9248 18.6886L14.4674 18.4646C14.8301 18.4126 15.1435 18.1873 15.3075 17.858L16.0008 16.4593L16.6955 17.858C16.8581 18.186 17.1702 18.4113 17.5329 18.4633L19.0768 18.6873L17.9608 19.77Z" fill="white"/>
</svg>
