<svg width="40" height="40" viewBox="0 0 40 40" fill="none" xmlns="http://www.w3.org/2000/svg">
<path d="M32.5003 7.49908H24.167C22.3337 7.49908 20.8337 8.99908 20.8337 10.8324V19.1657C20.8337 20.9991 22.3337 22.4991 24.167 22.4991H26.9837L23.1837 30.0824C22.917 30.5991 22.9503 31.2158 23.2503 31.6991C23.5503 32.1824 24.0837 32.4824 24.667 32.4824H28.9503C29.9003 32.4824 30.767 31.9491 31.1837 31.0991L35.467 22.5491C35.7003 22.0824 35.817 21.5657 35.817 21.0657V10.8158C35.817 8.98242 34.317 7.48242 32.4837 7.48242L32.5003 7.49908ZM34.167 21.0824C34.167 21.3324 34.1003 21.5991 33.9837 21.8324L29.7003 30.3824C29.5503 30.6657 29.267 30.8491 28.9503 30.8491H24.667L29.067 22.0491C29.2003 21.7824 29.1837 21.4824 29.0337 21.2324C28.8837 20.9824 28.617 20.8324 28.317 20.8324H24.1503C23.2337 20.8324 22.4837 20.0824 22.4837 19.1657V10.8324C22.4837 9.91575 23.2337 9.16575 24.1503 9.16575H32.4837C33.4003 9.16575 34.1503 9.91575 34.1503 10.8324V21.0824H34.167ZM15.8337 7.49908H7.50033C5.66699 7.49908 4.16699 8.99908 4.16699 10.8324V19.1657C4.16699 20.9991 5.66699 22.4991 7.50033 22.4991H10.317L6.517 30.0824C6.25033 30.5991 6.28365 31.2158 6.58365 31.6991C6.88365 32.1824 7.417 32.4824 8.00033 32.4824H12.2837C13.2337 32.4824 14.1003 31.9491 14.517 31.0991L18.8003 22.5491C19.0337 22.0824 19.1503 21.5657 19.1503 21.0657V10.8158C19.1503 8.98242 17.6503 7.48242 15.817 7.48242L15.8337 7.49908ZM17.5003 21.0824C17.5003 21.3324 17.4337 21.5991 17.317 21.8324L13.0337 30.3824C12.8837 30.6657 12.6003 30.8491 12.2837 30.8491H8.00033L12.4003 22.0491C12.5337 21.7824 12.517 21.4824 12.367 21.2324C12.217 20.9824 11.9503 20.8324 11.6503 20.8324H7.48367C6.567 20.8324 5.817 20.0824 5.817 19.1657V10.8324C5.817 9.91575 6.567 9.16575 7.48367 9.16575H15.817C16.7337 9.16575 17.4837 9.91575 17.4837 10.8324V21.0824H17.5003Z" fill="url(#paint0_linear_1647_15746)"/>
<defs>
<linearGradient id="paint0_linear_1647_15746" x1="35.817" y1="7.48242" x2="6.61873" y2="35.0767" gradientUnits="userSpaceOnUse">
<stop stop-color="#6B47F5"/>
<stop offset="1" stop-color="#3F3A60"/>
</linearGradient>
</defs>
</svg>
