<svg width="20" height="20" viewBox="0 0 20 20" fill="none" xmlns="http://www.w3.org/2000/svg">
<path d="M17.5795 3.75885C13.4495 2.93302 12.0153 2.21047 10.2003 1.29547C10.0845 1.2363 9.92031 1.24894 9.80115 1.30727C7.96198 2.21977 6.50961 2.93968 2.41711 3.75885C2.22211 3.79802 2.08203 3.96884 2.08203 4.16718V9.0746C2.08203 15.7929 8.56707 18.2956 9.86707 18.7289C9.9104 18.7431 9.9537 18.7505 9.9987 18.7505C10.0437 18.7505 10.087 18.7431 10.1303 18.7289C11.4303 18.2956 17.9154 15.7929 17.9154 9.0746V4.16718C17.9145 3.96884 17.7745 3.79802 17.5795 3.75885ZM17.0812 9.0746C17.0812 15.0221 11.4537 17.3829 9.99788 17.8938C8.54205 17.3829 2.91455 15.0221 2.91455 9.0746V4.50795C6.72955 3.72295 8.22798 3.01641 10.0113 2.13308C11.6863 2.97558 13.2337 3.71462 17.0812 4.50795V9.0746ZM9.17452 11.078L12.2128 8.03965C12.3753 7.87715 12.6395 7.87715 12.802 8.03965C12.9645 8.20215 12.9645 8.46634 12.802 8.62884L9.46871 11.9622C9.38704 12.0438 9.28037 12.0838 9.17371 12.0838C9.06704 12.0838 8.96037 12.043 8.8787 11.9622L7.21204 10.2955C7.04954 10.133 7.04954 9.86882 7.21204 9.70632C7.37454 9.54382 7.63873 9.54382 7.80123 9.70632L9.17452 11.078Z" fill="#656565"/>
</svg>
