<svg width="32" height="32" viewBox="0 0 32 32" fill="none" xmlns="http://www.w3.org/2000/svg">
<path d="M13.3451 14.0007C16.2864 14.0007 18.6784 11.6087 18.6784 8.66732C18.6784 5.72598 16.2864 3.33398 13.3451 3.33398C10.4037 3.33398 8.01172 5.72598 8.01172 8.66732C8.01172 11.6087 10.4037 14.0007 13.3451 14.0007ZM13.3451 4.66732C15.5504 4.66732 17.3451 6.46198 17.3451 8.66732C17.3451 10.8727 15.5504 12.6673 13.3451 12.6673C11.1397 12.6673 9.34505 10.8727 9.34505 8.66732C9.34505 6.46198 11.1384 4.66732 13.3451 4.66732ZM17.9904 17.5327C17.9331 17.8954 17.585 18.1433 17.2277 18.0846C16.873 18.0286 16.4717 18.0007 15.9997 18.0007H10.6663C5.09834 18.0007 4.66634 22.6127 4.66634 24.0273C4.66634 26.314 5.69434 27.334 7.99967 27.334H14.6663C15.0343 27.334 15.333 27.6327 15.333 28.0007C15.333 28.3687 15.0343 28.6673 14.6663 28.6673H7.99967C4.99034 28.6673 3.33301 27.0193 3.33301 24.0273C3.33301 20.6327 5.25301 16.6673 10.6663 16.6673H15.9997C16.5437 16.6673 17.0143 16.7007 17.4383 16.7687C17.8036 16.8274 18.0491 17.1687 17.9904 17.5327ZM29.0996 19.9033C28.4423 19.0993 27.4944 18.6727 26.3584 18.6673C26.3531 18.6673 26.3476 18.6673 26.3423 18.6673C25.2063 18.6673 24.4597 19.2247 23.9984 19.778C23.537 19.2247 22.7903 18.6673 21.653 18.6673C21.6477 18.6673 21.6424 18.6673 21.637 18.6673C20.501 18.6727 19.5543 19.1006 18.897 19.9046C18.0983 20.8793 17.813 22.3033 18.1104 23.8127C18.8624 27.6327 23.5263 29.758 23.7249 29.8473C23.8103 29.886 23.9051 29.9046 23.9971 29.9046C24.0891 29.9046 24.1837 29.8847 24.269 29.8473C24.4664 29.758 29.1303 27.6313 29.8836 23.8127C30.185 22.302 29.8983 20.878 29.0996 19.9033ZM28.5798 23.5553C28.0518 26.2233 24.945 28.0099 23.9997 28.4966C23.0543 28.0099 19.9476 26.2233 19.4196 23.5553C19.2023 22.454 19.393 21.406 19.9303 20.75C20.3343 20.2567 20.9104 20.0046 21.6437 20.002C21.6477 20.002 21.6503 20.002 21.653 20.002C22.8983 20.002 23.3503 21.242 23.3677 21.29C23.4583 21.5594 23.7116 21.7394 23.9956 21.7407C23.9969 21.7407 23.9983 21.7407 24.001 21.7407C24.2823 21.7407 24.5344 21.5606 24.6304 21.2939C24.649 21.2406 25.1024 20.002 26.3451 20.002C26.3477 20.002 26.3503 20.002 26.3543 20.002C27.089 20.0046 27.665 20.2567 28.069 20.75C28.605 21.4033 28.7958 22.4527 28.5798 23.5553Z" fill="#F9FAFB"/>
</svg>
