<svg width="20" height="20" viewBox="0 0 20 20" fill="none" xmlns="http://www.w3.org/2000/svg">
<path d="M18.75 10C18.75 5.175 14.825 1.25 10 1.25C5.175 1.25 1.25 5.175 1.25 10C1.25 12.8317 2.60833 15.3467 4.70083 16.9467C4.71499 16.9617 4.73329 16.9708 4.74996 16.9833C6.21413 18.0875 8.02917 18.75 10 18.75C11.9708 18.75 13.7859 18.0875 15.25 16.9833C15.2667 16.9708 15.285 16.9617 15.2992 16.9467C17.3917 15.3467 18.75 12.8317 18.75 10ZM5.41921 16.445C5.44338 15.5992 5.7767 13.3916 8.57503 13.3916H11.425C14.2233 13.3916 14.5566 15.5983 14.5808 16.445C13.2858 17.3683 11.7075 17.9167 10 17.9167C8.2925 17.9167 6.71338 17.3675 5.41921 16.445ZM15.3575 15.8117C15.1033 14.1783 13.9791 12.5583 11.425 12.5583H8.57503C6.02087 12.5583 4.8967 14.1783 4.64254 15.8117C3.07337 14.3642 2.08333 12.2983 2.08333 10C2.08333 5.635 5.635 2.08333 10 2.08333C14.365 2.08333 17.9167 5.635 17.9167 10C17.9167 12.2983 16.9266 14.3642 15.3575 15.8117ZM10.0067 5.41667C8.39838 5.41667 7.09005 6.725 7.09005 8.33333C7.09005 9.94167 8.39838 11.25 10.0067 11.25C11.615 11.25 12.9234 9.94167 12.9234 8.33333C12.9234 6.725 11.615 5.41667 10.0067 5.41667ZM10.0067 10.4167C8.85755 10.4167 7.92338 9.48167 7.92338 8.33333C7.92338 7.185 8.85755 6.25 10.0067 6.25C11.1559 6.25 12.09 7.185 12.09 8.33333C12.09 9.48167 11.1559 10.4167 10.0067 10.4167Z" fill="#656565"/>
</svg>
