<svg width="22" height="16" viewBox="0 0 22 16" fill="none" xmlns="http://www.w3.org/2000/svg">
<path d="M21.07 3.06C20.79 2.03 19.98 1.21 18.95 0.940002C17.34 0.510002 11.26 0.5 11.01 0.5C10.76 0.5 4.67004 0.500002 3.07004 0.940002C2.04004 1.22 1.22004 2.03 0.950043 3.06C0.520043 4.67 0.52002 7.87999 0.52002 8.00999C0.52002 8.13999 0.520043 11.35 0.950043 12.96C1.23004 13.99 2.02004 14.78 3.07004 15.06C4.68004 15.49 10.76 15.5 11.01 15.5C11.26 15.5 17.35 15.5 18.95 15.06C19.99 14.78 20.8 13.98 21.07 12.96C21.5 11.35 21.5 8.13999 21.5 8.00999C21.5 7.87999 21.5 4.67 21.07 3.06ZM20.1 12.71C19.92 13.39 19.39 13.91 18.68 14.1C17.45 14.43 12.72 14.5 11 14.5C9.28003 14.5 4.54004 14.43 3.32004 14.1C2.62004 13.91 2.09003 13.39 1.91003 12.71C1.51003 11.23 1.51004 8.05 1.51004 8.02C1.51004 7.99 1.51003 4.81 1.91003 3.33C2.09003 2.64 2.64002 2.1 3.33002 1.91C4.56002 1.58 9.29004 1.50999 11.01 1.50999C12.73 1.50999 17.47 1.58 18.69 1.91C19.38 2.09 19.92 2.64 20.1 3.33C20.5 4.81 20.5 7.99 20.5 8.03C20.5 8.07 20.5 11.24 20.1 12.73V12.71ZM9.00003 5L14 8L9.00003 11V5Z" fill="#F9FAFB"/>
</svg>
