<svg width="1440" height="1316" viewBox="0 0 1440 1316" fill="none" xmlns="http://www.w3.org/2000/svg">
<g clip-path="url(#clip0_456_9837)">
<g opacity="0.4">
<path d="M1472.31 554.006L1472.85 553.767L1271.34 101.918L1271.09 102.588C1259.84 132.28 1244.14 160.205 1224.41 185.588C1204.85 210.759 1181.78 232.879 1155.82 251.337C1129.46 270.079 1100.69 284.64 1070.3 294.612C1038.8 304.953 1006.01 310.197 972.864 310.197C932.75 310.197 891.556 302.204 853.735 287.079L853.517 287.628C891.409 302.78 932.679 310.788 972.864 310.788C1006.08 310.788 1038.92 305.535 1070.49 295.173C1100.93 285.18 1129.75 270.596 1156.16 251.819C1182.17 233.328 1205.29 211.166 1224.88 185.951C1244.49 160.713 1260.13 132.962 1271.38 103.465L1472.31 554.006Z" fill="url(#paint0_linear_456_9837)"/>
<path d="M1472.31 597.793L1472.85 597.554L1271.34 145.705L1271.09 146.375C1259.84 176.067 1244.14 203.992 1224.41 229.375C1204.85 254.546 1181.78 276.666 1155.82 295.124C1129.46 313.866 1100.69 328.427 1070.3 338.399C1038.8 348.74 1006.01 353.984 972.864 353.984C932.75 353.984 891.556 345.991 853.735 330.866L853.517 331.415C891.409 346.567 932.679 354.575 972.864 354.575C1006.08 354.575 1038.92 349.322 1070.49 338.96C1100.93 328.967 1129.75 314.38 1156.16 295.606C1182.17 277.115 1205.29 254.953 1224.88 229.738C1244.49 204.5 1260.13 176.749 1271.38 147.252L1472.31 597.793Z" fill="url(#paint1_linear_456_9837)"/>
<path d="M1472.31 641.582L1472.85 641.338L1271.34 187.127L1271.09 187.801C1259.84 217.647 1244.14 245.719 1224.41 271.235C1204.85 296.537 1181.78 318.773 1155.82 337.328C1129.46 356.168 1100.69 370.804 1070.3 380.829C1038.8 391.224 1006.01 396.495 972.864 396.495C932.75 396.495 891.556 388.46 853.735 373.256L853.517 373.808C891.409 389.039 932.679 397.089 972.864 397.089C1006.08 397.089 1038.92 391.808 1070.49 381.393C1100.93 371.348 1129.75 356.684 1156.16 337.811C1182.17 319.224 1205.29 296.946 1224.88 271.6C1244.49 246.229 1260.13 218.333 1271.38 188.682L1472.31 641.579V641.582Z" fill="url(#paint2_linear_456_9837)"/>
<path d="M1472.31 683.006L1472.85 682.764L1271.34 230.918L1271.09 231.588C1259.84 261.279 1244.14 289.205 1224.41 314.588C1204.85 339.758 1181.78 361.878 1155.82 380.336C1129.46 399.078 1100.69 413.639 1070.3 423.611C1038.8 433.952 1006.01 439.196 972.864 439.196C932.75 439.196 891.556 431.203 853.735 416.078L853.517 416.627C891.409 431.778 932.679 439.786 972.864 439.786C1006.08 439.786 1038.92 434.533 1070.49 424.172C1100.93 414.179 1129.75 399.592 1156.16 380.818C1182.17 362.327 1205.29 340.165 1224.88 314.951C1244.49 289.713 1260.13 261.962 1271.38 232.465L1472.31 683.003V683.006Z" fill="url(#paint3_linear_456_9837)"/>
<path d="M1472.31 726.795L1472.85 726.553L1271.34 274.707L1271.09 275.377C1259.84 305.068 1244.14 332.994 1224.41 358.377C1204.85 383.547 1181.78 405.667 1155.82 424.125C1129.46 442.867 1100.69 457.428 1070.3 467.4C1038.8 477.741 1006.01 482.985 972.864 482.985C932.75 482.985 891.556 474.992 853.735 459.867L853.517 460.416C891.409 475.567 932.679 483.576 972.864 483.576C1006.08 483.576 1038.92 478.322 1070.49 467.961C1100.93 457.968 1129.75 443.381 1156.16 424.607C1182.17 406.116 1205.29 383.954 1224.88 358.74C1244.49 333.502 1260.13 305.751 1271.38 276.254L1472.31 726.792V726.795Z" fill="url(#paint4_linear_456_9837)"/>
<path d="M1472.31 770.582L1472.85 770.339L1271.34 317.311L1271.09 317.983C1259.84 347.751 1244.14 375.75 1224.41 401.199C1204.85 426.435 1181.78 448.613 1155.82 467.12C1129.46 485.911 1100.69 500.507 1070.3 510.508C1038.8 520.876 1006.01 526.134 972.864 526.134C932.75 526.134 891.556 518.119 853.735 502.955L853.517 503.506C891.409 518.697 932.679 526.726 972.864 526.726C1006.08 526.726 1038.92 521.459 1070.49 511.07C1100.93 501.052 1129.75 486.426 1156.16 467.603C1182.17 449.063 1205.29 426.844 1224.88 401.563C1244.49 376.259 1260.13 348.435 1271.38 318.862L1472.31 770.579V770.582Z" fill="url(#paint5_linear_456_9837)"/>
<path d="M1472.31 813.185L1472.85 812.943L1271.34 359.914L1271.09 360.586C1259.84 390.355 1244.14 418.353 1224.41 443.803C1204.85 469.039 1181.78 491.217 1155.82 509.724C1129.46 528.515 1100.69 543.11 1070.3 553.111C1038.8 563.479 1006.01 568.737 972.864 568.737C932.75 568.737 891.556 560.723 853.735 545.559L853.517 546.109C891.409 561.3 932.679 569.329 972.864 569.329C1006.08 569.329 1038.92 564.062 1070.49 553.674C1100.93 543.655 1129.75 529.03 1156.16 510.206C1182.17 491.667 1205.29 469.447 1224.88 444.167C1244.49 418.863 1260.13 391.039 1271.38 361.465L1472.31 813.182V813.185Z" fill="url(#paint6_linear_456_9837)"/>
<path d="M1472.31 855.791L1472.85 855.549L1271.34 403.703L1271.09 404.373C1259.84 434.065 1244.14 461.99 1224.41 487.373C1204.85 512.543 1181.78 534.663 1155.82 553.121C1129.46 571.863 1100.69 586.424 1070.3 596.396C1038.8 606.737 1006.01 611.981 972.864 611.981C932.75 611.981 891.556 603.988 853.735 588.863L853.517 589.412C891.409 604.563 932.679 612.572 972.864 612.572C1006.08 612.572 1038.92 607.319 1070.49 596.957C1100.93 586.964 1129.75 572.377 1156.16 553.603C1182.17 535.112 1205.29 512.951 1224.88 487.736C1244.49 462.498 1260.13 434.747 1271.38 405.25L1472.31 855.788V855.791Z" fill="url(#paint7_linear_456_9837)"/>
<path d="M1472.31 899.58L1472.85 899.34L1271.34 446.309L1271.09 446.981C1259.84 476.75 1244.14 504.748 1224.41 530.198C1204.85 555.434 1181.78 577.612 1155.82 596.119C1129.46 614.91 1100.69 629.506 1070.3 639.507C1038.8 649.875 1006.01 655.133 972.864 655.133C932.75 655.133 891.556 647.119 853.735 631.954L853.517 632.505C891.409 647.696 932.679 655.725 972.864 655.725C1006.08 655.725 1038.92 650.458 1070.49 640.069C1100.93 630.051 1129.75 615.425 1156.16 596.602C1182.17 578.062 1205.29 555.843 1224.88 530.562C1244.49 505.258 1260.13 477.434 1271.38 447.86L1472.31 899.58Z" fill="url(#paint8_linear_456_9837)"/>
<path d="M1472.31 943.369L1472.85 943.126L1271.34 490.098L1271.09 490.77C1259.84 520.539 1244.14 548.537 1224.41 573.986C1204.85 599.223 1181.78 621.4 1155.82 639.907C1129.46 658.698 1100.69 673.297 1070.3 683.295C1038.8 693.663 1006.01 698.921 972.864 698.921C932.75 698.921 891.556 690.906 853.735 675.742L853.517 676.293C891.409 691.484 932.679 699.513 972.864 699.513C1006.08 699.513 1038.92 694.246 1070.49 683.857C1100.93 673.839 1129.75 659.213 1156.16 640.39C1182.17 621.85 1205.29 599.631 1224.88 574.351C1244.49 549.046 1260.13 521.222 1271.38 491.649L1472.31 943.366V943.369Z" fill="url(#paint9_linear_456_9837)"/>
<path d="M1472.31 985.975L1472.85 985.732L1271.34 533.887L1271.09 534.557C1259.84 564.248 1244.14 592.173 1224.41 617.556C1204.85 642.727 1181.78 664.847 1155.82 683.305C1129.46 702.047 1100.69 716.608 1070.3 726.579C1038.8 736.92 1006.01 742.165 972.864 742.165C932.75 742.165 891.556 734.171 853.735 719.047L853.517 719.596C891.409 734.747 932.679 742.755 972.864 742.755C1006.08 742.755 1038.92 737.502 1070.49 727.141C1100.93 717.148 1129.75 702.561 1156.16 683.786C1182.17 665.296 1205.29 643.134 1224.88 617.92C1244.49 592.681 1260.13 564.93 1271.38 535.434L1472.31 985.972V985.975Z" fill="url(#paint10_linear_456_9837)"/>
<path d="M1472.31 1029.76L1472.85 1029.52L1271.34 576.492L1271.09 577.164C1259.84 606.933 1244.14 634.931 1224.41 660.381C1204.85 685.617 1181.78 707.795 1155.82 726.302C1129.46 745.093 1100.69 759.688 1070.3 769.689C1038.8 780.057 1006.01 785.315 972.864 785.315C932.75 785.315 891.556 777.301 853.735 762.14L853.517 762.69C891.409 777.881 932.679 785.91 972.864 785.91C1006.08 785.91 1038.92 780.644 1070.49 770.255C1100.93 760.236 1129.75 745.611 1156.16 726.787C1182.17 708.248 1205.29 686.029 1224.88 660.748C1244.49 635.444 1260.13 607.62 1271.38 578.047L1472.31 1029.76Z" fill="url(#paint11_linear_456_9837)"/>
<path d="M1472.31 1072.37L1472.85 1072.13L1271.34 619.098L1271.09 619.77C1259.84 649.539 1244.14 677.537 1224.41 702.986C1204.85 728.223 1181.78 750.4 1155.82 768.907C1129.46 787.698 1100.69 802.297 1070.3 812.295C1038.8 822.663 1006.01 827.921 972.864 827.921C932.75 827.921 891.556 819.907 853.735 804.742L853.517 805.293C891.409 820.484 932.679 828.513 972.864 828.513C1006.08 828.513 1038.92 823.246 1070.49 812.857C1100.93 802.839 1129.75 788.213 1156.16 769.39C1182.17 750.85 1205.29 728.631 1224.88 703.351C1244.49 678.046 1260.13 650.222 1271.38 620.649L1472.31 1072.37V1072.37Z" fill="url(#paint12_linear_456_9837)"/>
<path d="M1472.31 1114.97L1472.85 1114.73L1271.34 662.885L1271.09 663.555C1259.84 693.246 1244.14 721.172 1224.41 746.554C1204.85 771.725 1181.78 793.845 1155.82 812.303C1129.46 831.045 1100.69 845.603 1070.3 855.577C1038.8 865.918 1006.01 871.163 972.864 871.163C932.75 871.163 891.556 863.169 853.735 848.045L853.517 848.594C891.409 863.745 932.679 871.753 972.864 871.753C1006.08 871.753 1038.92 866.5 1070.49 856.139C1100.93 846.146 1129.75 831.559 1156.16 812.784C1182.17 794.294 1205.29 772.132 1224.88 746.918C1244.49 721.679 1260.13 693.928 1271.38 664.432L1472.31 1114.97V1114.97Z" fill="url(#paint13_linear_456_9837)"/>
<path d="M1472.31 1158.76L1472.85 1158.52L1271.34 706.672L1271.09 707.342C1259.84 737.033 1244.14 764.959 1224.41 790.341C1204.85 815.512 1181.78 837.632 1155.82 856.09C1129.46 874.832 1100.69 889.393 1070.3 899.365C1038.8 909.705 1006.01 914.95 972.864 914.95C932.75 914.95 891.556 906.956 853.735 891.832L853.517 892.381C891.409 907.532 932.679 915.54 972.864 915.54C1006.08 915.54 1038.92 910.287 1070.49 899.926C1100.93 889.933 1129.75 875.346 1156.16 856.572C1182.17 838.081 1205.29 815.919 1224.88 790.705C1244.49 765.466 1260.13 737.715 1271.38 708.219L1472.31 1158.76V1158.76Z" fill="url(#paint14_linear_456_9837)"/>
<path d="M1472.31 1202.55L1472.85 1202.31L1271.34 748.094L1271.09 748.768C1259.84 778.614 1244.14 806.686 1224.41 832.202C1204.85 857.504 1181.78 879.739 1155.82 898.294C1129.46 917.134 1100.69 931.768 1070.3 941.795C1038.8 952.19 1006.01 957.462 972.864 957.462C932.75 957.462 891.556 949.427 853.735 934.223L853.517 934.775C891.409 950.006 932.679 958.056 972.864 958.056C1006.08 958.056 1038.92 952.775 1070.49 942.359C1100.93 932.314 1129.75 917.651 1156.16 898.778C1182.17 880.191 1205.29 857.913 1224.88 832.567C1244.49 807.196 1260.13 779.3 1271.38 749.649L1472.31 1202.55V1202.55Z" fill="url(#paint15_linear_456_9837)"/>
<path d="M1472.31 1243.97L1472.85 1243.73L1271.34 791.883L1271.09 792.553C1259.84 822.244 1244.14 850.17 1224.41 875.553C1204.85 900.724 1181.78 922.844 1155.82 941.302C1129.46 960.044 1100.69 974.605 1070.3 984.577C1038.8 994.918 1006.01 1000.16 972.864 1000.16C932.75 1000.16 891.556 992.169 853.735 977.044L853.517 977.593C891.409 992.745 932.679 1000.75 972.864 1000.75C1006.08 1000.75 1038.92 995.499 1070.49 985.138C1100.93 975.145 1129.75 960.558 1156.16 941.783C1182.17 923.292 1205.29 901.131 1224.88 875.916C1244.49 850.678 1260.13 822.927 1271.38 793.43L1472.31 1243.97Z" fill="url(#paint16_linear_456_9837)"/>
<path d="M1472.31 1287.76L1472.85 1287.52L1271.34 835.672L1271.09 836.342C1259.84 866.034 1244.14 893.959 1224.41 919.342C1204.85 944.513 1181.78 966.633 1155.82 985.091C1129.46 1003.83 1100.69 1018.39 1070.3 1028.37C1038.8 1038.71 1006.01 1043.95 972.864 1043.95C932.75 1043.95 891.556 1035.96 853.735 1020.83L853.517 1021.38C891.409 1036.53 932.679 1044.54 972.864 1044.54C1006.08 1044.54 1038.92 1039.29 1070.49 1028.93C1100.93 1018.93 1129.75 1004.35 1156.16 985.573C1182.17 967.082 1205.29 944.92 1224.88 919.705C1244.49 894.467 1260.13 866.716 1271.38 837.219L1472.31 1287.76Z" fill="url(#paint17_linear_456_9837)"/>
<path d="M1472.31 1331.55L1472.85 1331.31L1271.34 878.277L1271.09 878.949C1259.84 908.718 1244.14 936.717 1224.41 962.167C1204.85 987.403 1181.78 1009.58 1155.82 1028.09C1129.46 1046.88 1100.69 1061.48 1070.3 1071.48C1038.8 1081.84 1006.01 1087.1 972.864 1087.1C932.75 1087.1 891.556 1079.09 853.735 1063.92L853.517 1064.47C891.409 1079.66 932.679 1087.69 972.864 1087.69C1006.08 1087.69 1038.92 1082.43 1070.49 1072.04C1100.93 1062.02 1129.75 1047.39 1156.16 1028.57C1182.17 1010.03 1205.29 987.811 1224.88 962.531C1244.49 937.226 1260.13 909.402 1271.38 879.829L1472.31 1331.55Z" fill="url(#paint18_linear_456_9837)"/>
</g>
<g opacity="0.4">
<path d="M-32.3116 554.006L-32.8516 553.767L168.661 101.918L168.915 102.588C180.162 132.28 195.864 160.205 215.588 185.588C235.146 210.759 258.224 232.879 284.182 251.337C310.54 270.079 339.31 284.64 369.696 294.612C401.201 304.953 433.985 310.197 467.136 310.197C507.25 310.197 548.444 302.204 586.265 287.079L586.483 287.628C548.591 302.78 507.321 310.788 467.136 310.788C433.924 310.788 401.077 305.535 369.513 295.173C339.071 285.18 310.245 270.596 283.839 251.819C257.834 233.328 234.715 211.166 215.121 185.951C195.51 160.713 179.867 132.962 168.617 103.465L-32.3116 554.006Z" fill="url(#paint19_linear_456_9837)"/>
<path d="M-32.3116 597.793L-32.8516 597.554L168.661 145.705L168.915 146.375C180.162 176.067 195.864 203.992 215.588 229.375C235.146 254.546 258.224 276.666 284.182 295.124C310.54 313.866 339.31 328.427 369.696 338.399C401.201 348.74 433.985 353.984 467.136 353.984C507.25 353.984 548.444 345.991 586.265 330.866L586.483 331.415C548.591 346.567 507.321 354.575 467.136 354.575C433.924 354.575 401.077 349.322 369.513 338.96C339.071 328.967 310.245 314.38 283.839 295.606C257.834 277.115 234.715 254.953 215.121 229.738C195.51 204.5 179.867 176.749 168.617 147.252L-32.3116 597.793Z" fill="url(#paint20_linear_456_9837)"/>
<path d="M-32.3116 641.582L-32.8516 641.338L168.661 187.127L168.915 187.801C180.162 217.647 195.864 245.719 215.588 271.235C235.146 296.537 258.224 318.773 284.182 337.328C310.54 356.168 339.31 370.804 369.696 380.829C401.201 391.224 433.985 396.495 467.136 396.495C507.25 396.495 548.444 388.46 586.265 373.256L586.483 373.808C548.591 389.039 507.321 397.089 467.136 397.089C433.924 397.089 401.077 391.808 369.513 381.393C339.071 371.348 310.245 356.684 283.839 337.811C257.834 319.224 234.715 296.946 215.121 271.6C195.51 246.229 179.867 218.333 168.617 188.682L-32.3116 641.579V641.582Z" fill="url(#paint21_linear_456_9837)"/>
<path d="M-32.3116 683.006L-32.8516 682.764L168.661 230.918L168.915 231.588C180.162 261.279 195.864 289.205 215.588 314.588C235.146 339.758 258.224 361.878 284.182 380.336C310.54 399.078 339.31 413.639 369.696 423.611C401.201 433.952 433.985 439.196 467.136 439.196C507.25 439.196 548.444 431.203 586.265 416.078L586.483 416.627C548.591 431.778 507.321 439.786 467.136 439.786C433.924 439.786 401.077 434.533 369.513 424.172C339.071 414.179 310.245 399.592 283.839 380.818C257.834 362.327 234.715 340.165 215.121 314.951C195.51 289.713 179.867 261.962 168.617 232.465L-32.3116 683.003V683.006Z" fill="url(#paint22_linear_456_9837)"/>
<path d="M-32.3116 726.795L-32.8516 726.553L168.661 274.707L168.915 275.377C180.162 305.068 195.864 332.994 215.588 358.377C235.146 383.547 258.224 405.667 284.182 424.125C310.54 442.867 339.31 457.428 369.696 467.4C401.201 477.741 433.985 482.985 467.136 482.985C507.25 482.985 548.444 474.992 586.265 459.867L586.483 460.416C548.591 475.567 507.321 483.576 467.136 483.576C433.924 483.576 401.077 478.322 369.513 467.961C339.071 457.968 310.245 443.381 283.839 424.607C257.834 406.116 234.715 383.954 215.121 358.74C195.51 333.502 179.867 305.751 168.617 276.254L-32.3116 726.792V726.795Z" fill="url(#paint23_linear_456_9837)"/>
<path d="M-32.3116 770.582L-32.8516 770.339L168.661 317.311L168.915 317.983C180.162 347.751 195.864 375.75 215.588 401.199C235.146 426.435 258.224 448.613 284.182 467.12C310.54 485.911 339.31 500.507 369.696 510.508C401.201 520.876 433.985 526.134 467.136 526.134C507.25 526.134 548.444 518.119 586.265 502.955L586.483 503.506C548.591 518.697 507.321 526.726 467.136 526.726C433.924 526.726 401.077 521.459 369.513 511.07C339.071 501.052 310.245 486.426 283.839 467.603C257.834 449.063 234.715 426.844 215.121 401.563C195.51 376.259 179.867 348.435 168.617 318.862L-32.3116 770.579V770.582Z" fill="url(#paint24_linear_456_9837)"/>
<path d="M-32.3116 813.185L-32.8516 812.943L168.661 359.914L168.915 360.586C180.162 390.355 195.864 418.353 215.588 443.803C235.146 469.039 258.224 491.217 284.182 509.724C310.54 528.515 339.31 543.11 369.696 553.111C401.201 563.479 433.985 568.737 467.136 568.737C507.25 568.737 548.444 560.723 586.265 545.559L586.483 546.109C548.591 561.3 507.321 569.329 467.136 569.329C433.924 569.329 401.077 564.062 369.513 553.674C339.071 543.655 310.245 529.03 283.839 510.206C257.834 491.667 234.715 469.447 215.121 444.167C195.51 418.863 179.867 391.039 168.617 361.465L-32.3116 813.182V813.185Z" fill="url(#paint25_linear_456_9837)"/>
<path d="M-32.3116 855.791L-32.8516 855.549L168.661 403.703L168.915 404.373C180.162 434.065 195.864 461.99 215.588 487.373C235.146 512.543 258.224 534.663 284.182 553.121C310.54 571.863 339.31 586.424 369.696 596.396C401.201 606.737 433.985 611.981 467.136 611.981C507.25 611.981 548.444 603.988 586.265 588.863L586.483 589.412C548.591 604.563 507.321 612.572 467.136 612.572C433.924 612.572 401.077 607.319 369.513 596.957C339.071 586.964 310.245 572.377 283.839 553.603C257.834 535.112 234.715 512.951 215.121 487.736C195.51 462.498 179.867 434.747 168.617 405.25L-32.3116 855.788V855.791Z" fill="url(#paint26_linear_456_9837)"/>
<path d="M-32.3116 899.58L-32.8516 899.34L168.661 446.309L168.915 446.981C180.162 476.75 195.864 504.748 215.588 530.198C235.146 555.434 258.224 577.612 284.182 596.119C310.54 614.91 339.31 629.506 369.696 639.507C401.201 649.875 433.985 655.133 467.136 655.133C507.25 655.133 548.444 647.119 586.265 631.954L586.483 632.505C548.591 647.696 507.321 655.725 467.136 655.725C433.924 655.725 401.077 650.458 369.513 640.069C339.071 630.051 310.245 615.425 283.839 596.602C257.834 578.062 234.715 555.843 215.121 530.562C195.51 505.258 179.867 477.434 168.617 447.86L-32.3116 899.58Z" fill="url(#paint27_linear_456_9837)"/>
<path d="M-32.3116 943.369L-32.8516 943.126L168.661 490.098L168.915 490.77C180.162 520.539 195.864 548.537 215.588 573.986C235.146 599.223 258.224 621.4 284.182 639.907C310.54 658.698 339.31 673.297 369.696 683.295C401.201 693.663 433.985 698.921 467.136 698.921C507.25 698.921 548.444 690.906 586.265 675.742L586.483 676.293C548.591 691.484 507.321 699.513 467.136 699.513C433.924 699.513 401.077 694.246 369.513 683.857C339.071 673.839 310.245 659.213 283.839 640.39C257.834 621.85 234.715 599.631 215.121 574.351C195.51 549.046 179.867 521.222 168.617 491.649L-32.3116 943.366V943.369Z" fill="url(#paint28_linear_456_9837)"/>
<path d="M-32.3116 985.975L-32.8516 985.732L168.661 533.887L168.915 534.557C180.162 564.248 195.864 592.173 215.588 617.556C235.146 642.727 258.224 664.847 284.182 683.305C310.54 702.047 339.31 716.608 369.696 726.579C401.201 736.92 433.985 742.165 467.136 742.165C507.25 742.165 548.444 734.171 586.265 719.047L586.483 719.596C548.591 734.747 507.321 742.755 467.136 742.755C433.924 742.755 401.077 737.502 369.513 727.141C339.071 717.148 310.245 702.561 283.839 683.786C257.834 665.296 234.715 643.134 215.121 617.92C195.51 592.681 179.867 564.93 168.617 535.434L-32.3116 985.972V985.975Z" fill="url(#paint29_linear_456_9837)"/>
<path d="M-32.3116 1029.76L-32.8516 1029.52L168.661 576.492L168.915 577.164C180.162 606.933 195.864 634.931 215.588 660.381C235.146 685.617 258.224 707.795 284.182 726.302C310.54 745.093 339.31 759.688 369.696 769.689C401.201 780.057 433.985 785.315 467.136 785.315C507.25 785.315 548.444 777.301 586.265 762.14L586.483 762.69C548.591 777.881 507.321 785.91 467.136 785.91C433.924 785.91 401.077 780.644 369.513 770.255C339.071 760.236 310.245 745.611 283.839 726.787C257.834 708.248 234.715 686.029 215.121 660.748C195.51 635.444 179.867 607.62 168.617 578.047L-32.3116 1029.76Z" fill="url(#paint30_linear_456_9837)"/>
<path d="M-32.3116 1072.37L-32.8516 1072.13L168.661 619.098L168.915 619.77C180.162 649.539 195.864 677.537 215.588 702.986C235.146 728.223 258.224 750.4 284.182 768.907C310.54 787.698 339.31 802.297 369.696 812.295C401.201 822.663 433.985 827.921 467.136 827.921C507.25 827.921 548.444 819.907 586.265 804.742L586.483 805.293C548.591 820.484 507.321 828.513 467.136 828.513C433.924 828.513 401.077 823.246 369.513 812.857C339.071 802.839 310.245 788.213 283.839 769.39C257.834 750.85 234.715 728.631 215.121 703.351C195.51 678.046 179.867 650.222 168.617 620.649L-32.3116 1072.37V1072.37Z" fill="url(#paint31_linear_456_9837)"/>
<path d="M-32.3116 1114.97L-32.8516 1114.73L168.661 662.885L168.915 663.555C180.162 693.246 195.864 721.172 215.588 746.554C235.146 771.725 258.224 793.845 284.182 812.303C310.54 831.045 339.31 845.603 369.696 855.577C401.201 865.918 433.985 871.163 467.136 871.163C507.25 871.163 548.444 863.169 586.265 848.045L586.483 848.594C548.591 863.745 507.321 871.753 467.136 871.753C433.924 871.753 401.077 866.5 369.513 856.139C339.071 846.146 310.245 831.559 283.839 812.784C257.834 794.294 234.715 772.132 215.121 746.918C195.51 721.679 179.867 693.928 168.617 664.432L-32.3116 1114.97V1114.97Z" fill="url(#paint32_linear_456_9837)"/>
<path d="M-32.3116 1158.76L-32.8516 1158.52L168.661 706.672L168.915 707.342C180.162 737.033 195.864 764.959 215.588 790.341C235.146 815.512 258.224 837.632 284.182 856.09C310.54 874.832 339.31 889.393 369.696 899.365C401.201 909.705 433.985 914.95 467.136 914.95C507.25 914.95 548.444 906.956 586.265 891.832L586.483 892.381C548.591 907.532 507.321 915.54 467.136 915.54C433.924 915.54 401.077 910.287 369.513 899.926C339.071 889.933 310.245 875.346 283.839 856.572C257.834 838.081 234.715 815.919 215.121 790.705C195.51 765.466 179.867 737.715 168.617 708.219L-32.3116 1158.76V1158.76Z" fill="url(#paint33_linear_456_9837)"/>
<path d="M-32.3116 1202.55L-32.8516 1202.31L168.661 748.094L168.915 748.768C180.162 778.614 195.864 806.686 215.588 832.202C235.146 857.504 258.224 879.739 284.182 898.294C310.54 917.134 339.31 931.768 369.696 941.795C401.201 952.19 433.985 957.462 467.136 957.462C507.25 957.462 548.444 949.427 586.265 934.223L586.483 934.775C548.591 950.006 507.321 958.056 467.136 958.056C433.924 958.056 401.077 952.775 369.513 942.359C339.071 932.314 310.245 917.651 283.839 898.778C257.834 880.191 234.715 857.913 215.121 832.567C195.51 807.196 179.867 779.3 168.617 749.649L-32.3116 1202.55V1202.55Z" fill="url(#paint34_linear_456_9837)"/>
<path d="M-32.3116 1243.97L-32.8516 1243.73L168.661 791.883L168.915 792.553C180.162 822.244 195.864 850.17 215.588 875.553C235.146 900.724 258.224 922.844 284.182 941.302C310.54 960.044 339.31 974.605 369.696 984.577C401.201 994.918 433.985 1000.16 467.136 1000.16C507.25 1000.16 548.444 992.169 586.265 977.044L586.483 977.593C548.591 992.745 507.321 1000.75 467.136 1000.75C433.924 1000.75 401.077 995.499 369.513 985.138C339.071 975.145 310.245 960.558 283.839 941.783C257.834 923.292 234.715 901.131 215.121 875.916C195.51 850.678 179.867 822.927 168.617 793.43L-32.3116 1243.97Z" fill="url(#paint35_linear_456_9837)"/>
<path d="M-32.3116 1287.76L-32.8516 1287.52L168.661 835.672L168.915 836.342C180.162 866.034 195.864 893.959 215.588 919.342C235.146 944.513 258.224 966.633 284.182 985.091C310.54 1003.83 339.31 1018.39 369.696 1028.37C401.201 1038.71 433.985 1043.95 467.136 1043.95C507.25 1043.95 548.444 1035.96 586.265 1020.83L586.483 1021.38C548.591 1036.53 507.321 1044.54 467.136 1044.54C433.924 1044.54 401.077 1039.29 369.513 1028.93C339.071 1018.93 310.245 1004.35 283.839 985.573C257.834 967.082 234.715 944.92 215.121 919.705C195.51 894.467 179.867 866.716 168.617 837.219L-32.3116 1287.76Z" fill="url(#paint36_linear_456_9837)"/>
<path d="M-32.3116 1331.55L-32.8516 1331.31L168.661 878.277L168.915 878.949C180.162 908.718 195.864 936.717 215.588 962.167C235.146 987.403 258.224 1009.58 284.182 1028.09C310.54 1046.88 339.31 1061.48 369.696 1071.48C401.201 1081.84 433.985 1087.1 467.136 1087.1C507.25 1087.1 548.444 1079.09 586.265 1063.92L586.483 1064.47C548.591 1079.66 507.321 1087.69 467.136 1087.69C433.924 1087.69 401.077 1082.43 369.513 1072.04C339.071 1062.02 310.245 1047.39 283.839 1028.57C257.834 1010.03 234.715 987.811 215.121 962.531C195.51 937.226 179.867 909.402 168.617 879.829L-32.3116 1331.55Z" fill="url(#paint37_linear_456_9837)"/>
</g>
</g>
<defs>
<linearGradient id="paint0_linear_456_9837" x1="1472.85" y1="327.962" x2="853.517" y2="327.962" gradientUnits="userSpaceOnUse">
<stop stop-color="#656565"/>
<stop offset="0.865" stop-color="#656565" stop-opacity="0"/>
</linearGradient>
<linearGradient id="paint1_linear_456_9837" x1="1472.85" y1="371.749" x2="853.517" y2="371.749" gradientUnits="userSpaceOnUse">
<stop stop-color="#656565"/>
<stop offset="0.865" stop-color="#656565" stop-opacity="0"/>
</linearGradient>
<linearGradient id="paint2_linear_456_9837" x1="1472.85" y1="414.354" x2="853.517" y2="414.354" gradientUnits="userSpaceOnUse">
<stop stop-color="#656565"/>
<stop offset="0.865" stop-color="#656565" stop-opacity="0"/>
</linearGradient>
<linearGradient id="paint3_linear_456_9837" x1="1472.85" y1="456.962" x2="853.517" y2="456.962" gradientUnits="userSpaceOnUse">
<stop stop-color="#656565"/>
<stop offset="0.865" stop-color="#656565" stop-opacity="0"/>
</linearGradient>
<linearGradient id="paint4_linear_456_9837" x1="1472.85" y1="500.751" x2="853.517" y2="500.751" gradientUnits="userSpaceOnUse">
<stop stop-color="#656565"/>
<stop offset="0.865" stop-color="#656565" stop-opacity="0"/>
</linearGradient>
<linearGradient id="paint5_linear_456_9837" x1="1472.85" y1="543.946" x2="853.517" y2="543.946" gradientUnits="userSpaceOnUse">
<stop stop-color="#656565"/>
<stop offset="0.865" stop-color="#656565" stop-opacity="0"/>
</linearGradient>
<linearGradient id="paint6_linear_456_9837" x1="1472.85" y1="586.55" x2="853.517" y2="586.55" gradientUnits="userSpaceOnUse">
<stop stop-color="#656565"/>
<stop offset="0.865" stop-color="#656565" stop-opacity="0"/>
</linearGradient>
<linearGradient id="paint7_linear_456_9837" x1="1472.85" y1="629.747" x2="853.517" y2="629.747" gradientUnits="userSpaceOnUse">
<stop stop-color="#656565"/>
<stop offset="0.865" stop-color="#656565" stop-opacity="0"/>
</linearGradient>
<linearGradient id="paint8_linear_456_9837" x1="1472.85" y1="672.944" x2="853.517" y2="672.944" gradientUnits="userSpaceOnUse">
<stop stop-color="#656565"/>
<stop offset="0.865" stop-color="#656565" stop-opacity="0"/>
</linearGradient>
<linearGradient id="paint9_linear_456_9837" x1="1472.85" y1="716.733" x2="853.517" y2="716.733" gradientUnits="userSpaceOnUse">
<stop stop-color="#656565"/>
<stop offset="0.865" stop-color="#656565" stop-opacity="0"/>
</linearGradient>
<linearGradient id="paint10_linear_456_9837" x1="1472.85" y1="759.931" x2="853.517" y2="759.931" gradientUnits="userSpaceOnUse">
<stop stop-color="#656565"/>
<stop offset="0.865" stop-color="#656565" stop-opacity="0"/>
</linearGradient>
<linearGradient id="paint11_linear_456_9837" x1="1472.85" y1="803.128" x2="853.517" y2="803.128" gradientUnits="userSpaceOnUse">
<stop stop-color="#656565"/>
<stop offset="0.865" stop-color="#656565" stop-opacity="0"/>
</linearGradient>
<linearGradient id="paint12_linear_456_9837" x1="1472.85" y1="845.733" x2="853.517" y2="845.733" gradientUnits="userSpaceOnUse">
<stop stop-color="#656565"/>
<stop offset="0.865" stop-color="#656565" stop-opacity="0"/>
</linearGradient>
<linearGradient id="paint13_linear_456_9837" x1="1472.85" y1="888.929" x2="853.517" y2="888.929" gradientUnits="userSpaceOnUse">
<stop stop-color="#656565"/>
<stop offset="0.865" stop-color="#656565" stop-opacity="0"/>
</linearGradient>
<linearGradient id="paint14_linear_456_9837" x1="1472.85" y1="932.716" x2="853.517" y2="932.716" gradientUnits="userSpaceOnUse">
<stop stop-color="#656565"/>
<stop offset="0.865" stop-color="#656565" stop-opacity="0"/>
</linearGradient>
<linearGradient id="paint15_linear_456_9837" x1="1472.85" y1="975.321" x2="853.517" y2="975.321" gradientUnits="userSpaceOnUse">
<stop stop-color="#656565"/>
<stop offset="0.865" stop-color="#656565" stop-opacity="0"/>
</linearGradient>
<linearGradient id="paint16_linear_456_9837" x1="1472.85" y1="1017.93" x2="853.517" y2="1017.93" gradientUnits="userSpaceOnUse">
<stop stop-color="#656565"/>
<stop offset="0.865" stop-color="#656565" stop-opacity="0"/>
</linearGradient>
<linearGradient id="paint17_linear_456_9837" x1="1472.85" y1="1061.72" x2="853.517" y2="1061.72" gradientUnits="userSpaceOnUse">
<stop stop-color="#656565"/>
<stop offset="0.865" stop-color="#656565" stop-opacity="0"/>
</linearGradient>
<linearGradient id="paint18_linear_456_9837" x1="1472.85" y1="1104.91" x2="853.517" y2="1104.91" gradientUnits="userSpaceOnUse">
<stop stop-color="#656565"/>
<stop offset="0.865" stop-color="#656565" stop-opacity="0"/>
</linearGradient>
<linearGradient id="paint19_linear_456_9837" x1="-32.8516" y1="327.962" x2="586.483" y2="327.962" gradientUnits="userSpaceOnUse">
<stop stop-color="#656565"/>
<stop offset="0.865" stop-color="#656565" stop-opacity="0"/>
</linearGradient>
<linearGradient id="paint20_linear_456_9837" x1="-32.8516" y1="371.749" x2="586.483" y2="371.749" gradientUnits="userSpaceOnUse">
<stop stop-color="#656565"/>
<stop offset="0.865" stop-color="#656565" stop-opacity="0"/>
</linearGradient>
<linearGradient id="paint21_linear_456_9837" x1="-32.8516" y1="414.354" x2="586.483" y2="414.354" gradientUnits="userSpaceOnUse">
<stop stop-color="#656565"/>
<stop offset="0.865" stop-color="#656565" stop-opacity="0"/>
</linearGradient>
<linearGradient id="paint22_linear_456_9837" x1="-32.8516" y1="456.962" x2="586.483" y2="456.962" gradientUnits="userSpaceOnUse">
<stop stop-color="#656565"/>
<stop offset="0.865" stop-color="#656565" stop-opacity="0"/>
</linearGradient>
<linearGradient id="paint23_linear_456_9837" x1="-32.8516" y1="500.751" x2="586.483" y2="500.751" gradientUnits="userSpaceOnUse">
<stop stop-color="#656565"/>
<stop offset="0.865" stop-color="#656565" stop-opacity="0"/>
</linearGradient>
<linearGradient id="paint24_linear_456_9837" x1="-32.8516" y1="543.946" x2="586.483" y2="543.946" gradientUnits="userSpaceOnUse">
<stop stop-color="#656565"/>
<stop offset="0.865" stop-color="#656565" stop-opacity="0"/>
</linearGradient>
<linearGradient id="paint25_linear_456_9837" x1="-32.8516" y1="586.55" x2="586.483" y2="586.55" gradientUnits="userSpaceOnUse">
<stop stop-color="#656565"/>
<stop offset="0.865" stop-color="#656565" stop-opacity="0"/>
</linearGradient>
<linearGradient id="paint26_linear_456_9837" x1="-32.8516" y1="629.747" x2="586.483" y2="629.747" gradientUnits="userSpaceOnUse">
<stop stop-color="#656565"/>
<stop offset="0.865" stop-color="#656565" stop-opacity="0"/>
</linearGradient>
<linearGradient id="paint27_linear_456_9837" x1="-32.8516" y1="672.944" x2="586.483" y2="672.944" gradientUnits="userSpaceOnUse">
<stop stop-color="#656565"/>
<stop offset="0.865" stop-color="#656565" stop-opacity="0"/>
</linearGradient>
<linearGradient id="paint28_linear_456_9837" x1="-32.8516" y1="716.733" x2="586.483" y2="716.733" gradientUnits="userSpaceOnUse">
<stop stop-color="#656565"/>
<stop offset="0.865" stop-color="#656565" stop-opacity="0"/>
</linearGradient>
<linearGradient id="paint29_linear_456_9837" x1="-32.8516" y1="759.931" x2="586.483" y2="759.931" gradientUnits="userSpaceOnUse">
<stop stop-color="#656565"/>
<stop offset="0.865" stop-color="#656565" stop-opacity="0"/>
</linearGradient>
<linearGradient id="paint30_linear_456_9837" x1="-32.8516" y1="803.128" x2="586.483" y2="803.128" gradientUnits="userSpaceOnUse">
<stop stop-color="#656565"/>
<stop offset="0.865" stop-color="#656565" stop-opacity="0"/>
</linearGradient>
<linearGradient id="paint31_linear_456_9837" x1="-32.8516" y1="845.733" x2="586.483" y2="845.733" gradientUnits="userSpaceOnUse">
<stop stop-color="#656565"/>
<stop offset="0.865" stop-color="#656565" stop-opacity="0"/>
</linearGradient>
<linearGradient id="paint32_linear_456_9837" x1="-32.8516" y1="888.929" x2="586.483" y2="888.929" gradientUnits="userSpaceOnUse">
<stop stop-color="#656565"/>
<stop offset="0.865" stop-color="#656565" stop-opacity="0"/>
</linearGradient>
<linearGradient id="paint33_linear_456_9837" x1="-32.8516" y1="932.716" x2="586.483" y2="932.716" gradientUnits="userSpaceOnUse">
<stop stop-color="#656565"/>
<stop offset="0.865" stop-color="#656565" stop-opacity="0"/>
</linearGradient>
<linearGradient id="paint34_linear_456_9837" x1="-32.8516" y1="975.321" x2="586.483" y2="975.321" gradientUnits="userSpaceOnUse">
<stop stop-color="#656565"/>
<stop offset="0.865" stop-color="#656565" stop-opacity="0"/>
</linearGradient>
<linearGradient id="paint35_linear_456_9837" x1="-32.8516" y1="1017.93" x2="586.483" y2="1017.93" gradientUnits="userSpaceOnUse">
<stop stop-color="#656565"/>
<stop offset="0.865" stop-color="#656565" stop-opacity="0"/>
</linearGradient>
<linearGradient id="paint36_linear_456_9837" x1="-32.8516" y1="1061.72" x2="586.483" y2="1061.72" gradientUnits="userSpaceOnUse">
<stop stop-color="#656565"/>
<stop offset="0.865" stop-color="#656565" stop-opacity="0"/>
</linearGradient>
<linearGradient id="paint37_linear_456_9837" x1="-32.8516" y1="1104.91" x2="586.483" y2="1104.91" gradientUnits="userSpaceOnUse">
<stop stop-color="#656565"/>
<stop offset="0.865" stop-color="#656565" stop-opacity="0"/>
</linearGradient>
<clipPath id="clip0_456_9837">
<rect width="1440" height="1316" fill="white"/>
</clipPath>
</defs>
</svg>
