<svg width="171" height="58" viewBox="0 0 171 58" fill="none" xmlns="http://www.w3.org/2000/svg">
<rect x="1" y="1" width="169.5" height="56" rx="16" fill="#F9FAFB"/>
<rect x="1" y="1" width="169.5" height="56" rx="16" stroke="url(#paint0_radial_1647_13385)"/>
<path d="M55.2611 24.7093C55.1321 24.7845 52.0632 26.3717 52.0632 29.8908C52.2078 33.904 55.9361 35.3115 56 35.3115C55.9361 35.3867 55.4371 37.2287 53.9593 39.1597C52.7864 40.823 51.4846 42.5 49.5078 42.5C47.6275 42.5 46.9525 41.3914 44.7828 41.3914C42.4528 41.3914 41.7935 42.5 40.0096 42.5C38.0328 42.5 36.6346 40.7331 35.3978 39.0854C33.791 36.9289 32.4253 33.5446 32.377 30.2951C32.3445 28.5732 32.6988 26.8806 33.5981 25.4428C34.8674 23.4357 37.1335 22.0732 39.6081 22.0283C41.5042 21.9687 43.1917 23.2414 44.3489 23.2414C45.4578 23.2414 47.531 22.0283 49.8768 22.0283C50.8893 22.0293 53.5893 22.3135 55.2611 24.7093ZM44.1885 21.6845C43.851 20.112 44.7828 18.5395 45.6507 17.5364C46.7596 16.3234 48.511 15.5 50.0214 15.5C50.1178 17.0725 49.5068 18.6147 48.4146 19.7379C47.4346 20.951 45.7471 21.8642 44.1885 21.6845Z" fill="#292929"/>
<path d="M76.0735 15.5C75.9798 15.2131 75.8562 14.956 75.7028 14.7287C75.5522 14.4986 75.3718 14.3026 75.1616 14.1406C74.9542 13.9787 74.7184 13.8551 74.4542 13.7699C74.19 13.6847 73.9002 13.642 73.5849 13.642C73.0678 13.642 72.5977 13.7756 72.1744 14.0426C71.7511 14.3097 71.4144 14.7031 71.1644 15.223C70.9144 15.7429 70.7894 16.3807 70.7894 17.1364C70.7894 17.892 70.9158 18.5298 71.1687 19.0497C71.4215 19.5696 71.7638 19.9631 72.1957 20.2301C72.6275 20.4972 73.1133 20.6307 73.6531 20.6307C74.1531 20.6307 74.5934 20.5241 74.9741 20.3111C75.3576 20.0952 75.6559 19.7912 75.869 19.3991C76.0849 19.0043 76.1928 18.5398 76.1928 18.0057L76.5167 18.0739H73.8917V17.1364H77.2156V18.0739C77.2156 18.7926 77.0621 19.4176 76.7553 19.9489C76.4513 20.4801 76.0309 20.892 75.494 21.1847C74.9599 21.4744 74.3462 21.6193 73.6531 21.6193C72.8803 21.6193 72.2013 21.4375 71.6161 21.0739C71.0337 20.7102 70.5792 20.1932 70.2525 19.5227C69.9286 18.8523 69.7667 18.0568 69.7667 17.1364C69.7667 16.446 69.859 15.8253 70.0437 15.2741C70.2312 14.7202 70.4954 14.2486 70.8363 13.8594C71.1772 13.4702 71.5806 13.1719 72.0465 12.9645C72.5124 12.7571 73.0252 12.6534 73.5849 12.6534C74.0451 12.6534 74.4741 12.723 74.8718 12.8622C75.2724 12.9986 75.6289 13.1932 75.9414 13.446C76.2567 13.696 76.5195 13.9957 76.7298 14.3452C76.94 14.6918 77.0849 15.0767 77.1644 15.5H76.0735ZM81.6335 21.6364C81.0028 21.6364 80.4588 21.4972 80.0014 21.2188C79.5469 20.9375 79.196 20.5455 78.9489 20.0426C78.7045 19.5369 78.5824 18.9489 78.5824 18.2784C78.5824 17.608 78.7045 17.017 78.9489 16.5057C79.196 15.9915 79.5398 15.5909 79.9801 15.304C80.4233 15.0142 80.9403 14.8693 81.5312 14.8693C81.8722 14.8693 82.2088 14.9261 82.5412 15.0398C82.8736 15.1534 83.1761 15.3381 83.4489 15.5938C83.7216 15.8466 83.9389 16.1818 84.1009 16.5994C84.2628 17.017 84.3438 17.5312 84.3438 18.142V18.5682H79.2983V17.6989H83.321C83.321 17.3295 83.2472 17 83.0994 16.7102C82.9545 16.4205 82.7472 16.1918 82.4773 16.0241C82.2102 15.8565 81.8949 15.7727 81.5312 15.7727C81.1307 15.7727 80.7841 15.8722 80.4915 16.071C80.2017 16.267 79.9787 16.5227 79.8224 16.8381C79.6662 17.1534 79.5881 17.4915 79.5881 17.8523V18.4318C79.5881 18.9261 79.6733 19.3452 79.8438 19.6889C80.017 20.0298 80.2571 20.2898 80.5639 20.4688C80.8707 20.6449 81.2273 20.733 81.6335 20.733C81.8977 20.733 82.1364 20.696 82.3494 20.6222C82.5653 20.5455 82.7514 20.4318 82.9077 20.2812C83.0639 20.1278 83.1847 19.9375 83.2699 19.7102L84.2415 19.983C84.1392 20.3125 83.9673 20.6023 83.7259 20.8523C83.4844 21.0994 83.1861 21.2926 82.831 21.4318C82.4759 21.5682 82.0767 21.6364 81.6335 21.6364ZM88.7202 14.9545V15.8068H85.3281V14.9545H88.7202ZM86.3168 13.3864H87.3224V19.625C87.3224 19.9091 87.3636 20.1222 87.446 20.2642C87.5313 20.4034 87.6392 20.4972 87.7699 20.5455C87.9034 20.5909 88.044 20.6136 88.1918 20.6136C88.3026 20.6136 88.3935 20.608 88.4645 20.5966C88.5355 20.5824 88.5923 20.571 88.6349 20.5625L88.8395 21.4659C88.7713 21.4915 88.6761 21.517 88.554 21.5426C88.4318 21.571 88.277 21.5852 88.0895 21.5852C87.8054 21.5852 87.527 21.5241 87.2543 21.402C86.9844 21.2798 86.7599 21.0938 86.581 20.8438C86.4048 20.5938 86.3168 20.2784 86.3168 19.8977V13.3864ZM93.608 21.5V14.9545H94.6136V21.5H93.608ZM94.1193 13.8636C93.9233 13.8636 93.7543 13.7969 93.6122 13.6634C93.473 13.5298 93.4034 13.3693 93.4034 13.1818C93.4034 12.9943 93.473 12.8338 93.6122 12.7003C93.7543 12.5668 93.9233 12.5 94.1193 12.5C94.3153 12.5 94.483 12.5668 94.6222 12.7003C94.7642 12.8338 94.8352 12.9943 94.8352 13.1818C94.8352 13.3693 94.7642 13.5298 94.6222 13.6634C94.483 13.7969 94.3153 13.8636 94.1193 13.8636ZM99.3022 14.9545V15.8068H95.9102V14.9545H99.3022ZM96.8988 13.3864H97.9045V19.625C97.9045 19.9091 97.9457 20.1222 98.0281 20.2642C98.1133 20.4034 98.2212 20.4972 98.3519 20.5455C98.4854 20.5909 98.6261 20.6136 98.7738 20.6136C98.8846 20.6136 98.9755 20.608 99.0465 20.5966C99.1175 20.5824 99.1744 20.571 99.217 20.5625L99.4215 21.4659C99.3533 21.4915 99.2582 21.517 99.136 21.5426C99.0138 21.571 98.859 21.5852 98.6715 21.5852C98.3874 21.5852 98.109 21.5241 97.8363 21.402C97.5664 21.2798 97.342 21.0938 97.163 20.8438C96.9869 20.5938 96.8988 20.2784 96.8988 19.8977V13.3864ZM106.849 21.6364C106.258 21.6364 105.74 21.4957 105.294 21.2145C104.85 20.9332 104.504 20.5398 104.254 20.0341C104.007 19.5284 103.883 18.9375 103.883 18.2614C103.883 17.5795 104.007 16.9844 104.254 16.4759C104.504 15.9673 104.85 15.5724 105.294 15.2912C105.74 15.0099 106.258 14.8693 106.849 14.8693C107.44 14.8693 107.957 15.0099 108.4 15.2912C108.846 15.5724 109.193 15.9673 109.44 16.4759C109.69 16.9844 109.815 17.5795 109.815 18.2614C109.815 18.9375 109.69 19.5284 109.44 20.0341C109.193 20.5398 108.846 20.9332 108.4 21.2145C107.957 21.4957 107.44 21.6364 106.849 21.6364ZM106.849 20.733C107.298 20.733 107.667 20.6179 107.957 20.3878C108.247 20.1577 108.461 19.8551 108.6 19.4801C108.74 19.1051 108.809 18.6989 108.809 18.2614C108.809 17.8239 108.74 17.4162 108.6 17.0384C108.461 16.6605 108.247 16.3551 107.957 16.1222C107.667 15.8892 107.298 15.7727 106.849 15.7727C106.4 15.7727 106.031 15.8892 105.741 16.1222C105.451 16.3551 105.237 16.6605 105.098 17.0384C104.958 17.4162 104.889 17.8239 104.889 18.2614C104.889 18.6989 104.958 19.1051 105.098 19.4801C105.237 19.8551 105.451 20.1577 105.741 20.3878C106.031 20.6179 106.4 20.733 106.849 20.733ZM112.356 17.5625V21.5H111.35V14.9545H112.322V15.9773H112.407C112.56 15.6449 112.793 15.3778 113.106 15.1761C113.418 14.9716 113.822 14.8693 114.316 14.8693C114.759 14.8693 115.147 14.9602 115.479 15.142C115.812 15.321 116.07 15.5938 116.255 15.9602C116.44 16.3239 116.532 16.7841 116.532 17.3409V21.5H115.526V17.4091C115.526 16.8949 115.393 16.4943 115.126 16.2074C114.859 15.9176 114.492 15.7727 114.026 15.7727C113.705 15.7727 113.418 15.8423 113.165 15.9815C112.915 16.1207 112.718 16.3239 112.573 16.5909C112.428 16.858 112.356 17.1818 112.356 17.5625Z" fill="#292929"/>
<path d="M71.8295 42.5H69.5795L73.6761 30.8636H76.2784L80.3807 42.5H78.1307L75.0227 33.25H74.9318L71.8295 42.5ZM71.9034 37.9375H78.0398V39.6307H71.9034V37.9375ZM81.8224 45.7727V33.7727H83.8452V35.2159H83.9645C84.0705 35.0038 84.2202 34.7784 84.4134 34.5398C84.6065 34.2973 84.8679 34.0909 85.1974 33.9205C85.527 33.7462 85.9474 33.6591 86.4588 33.6591C87.133 33.6591 87.741 33.8314 88.2827 34.1761C88.8281 34.517 89.2599 35.0227 89.5781 35.6932C89.9001 36.3598 90.0611 37.178 90.0611 38.1477C90.0611 39.1061 89.9039 39.9205 89.5895 40.5909C89.2751 41.2614 88.8471 41.7727 88.3054 42.125C87.7637 42.4773 87.1501 42.6534 86.4645 42.6534C85.9645 42.6534 85.5497 42.5701 85.2202 42.4034C84.8906 42.2367 84.6255 42.036 84.4247 41.8011C84.2277 41.5625 84.0743 41.3371 83.9645 41.125H83.8793V45.7727H81.8224ZM83.8395 38.1364C83.8395 38.7008 83.919 39.1951 84.0781 39.6193C84.241 40.0436 84.474 40.375 84.777 40.6136C85.0838 40.8485 85.455 40.9659 85.8906 40.9659C86.3452 40.9659 86.7259 40.8447 87.0327 40.6023C87.3395 40.3561 87.5705 40.0208 87.7259 39.5966C87.8849 39.1686 87.9645 38.6818 87.9645 38.1364C87.9645 37.5947 87.8868 37.1136 87.7315 36.6932C87.5762 36.2727 87.3452 35.9432 87.0384 35.7045C86.7315 35.4659 86.349 35.3466 85.8906 35.3466C85.4512 35.3466 85.0781 35.4621 84.7713 35.6932C84.4645 35.9242 84.2315 36.2481 84.0724 36.6648C83.9171 37.0814 83.8395 37.572 83.8395 38.1364ZM91.8224 45.7727V33.7727H93.8452V35.2159H93.9645C94.0705 35.0038 94.2202 34.7784 94.4134 34.5398C94.6065 34.2973 94.8679 34.0909 95.1974 33.9205C95.527 33.7462 95.9474 33.6591 96.4588 33.6591C97.133 33.6591 97.741 33.8314 98.2827 34.1761C98.8281 34.517 99.2599 35.0227 99.5781 35.6932C99.9001 36.3598 100.061 37.178 100.061 38.1477C100.061 39.1061 99.9039 39.9205 99.5895 40.5909C99.2751 41.2614 98.8471 41.7727 98.3054 42.125C97.7637 42.4773 97.1501 42.6534 96.4645 42.6534C95.9645 42.6534 95.5497 42.5701 95.2202 42.4034C94.8906 42.2367 94.6255 42.036 94.4247 41.8011C94.2277 41.5625 94.0743 41.3371 93.9645 41.125H93.8793V45.7727H91.8224ZM93.8395 38.1364C93.8395 38.7008 93.919 39.1951 94.0781 39.6193C94.241 40.0436 94.474 40.375 94.777 40.6136C95.0838 40.8485 95.455 40.9659 95.8906 40.9659C96.3452 40.9659 96.7259 40.8447 97.0327 40.6023C97.3395 40.3561 97.5705 40.0208 97.7259 39.5966C97.8849 39.1686 97.9645 38.6818 97.9645 38.1364C97.9645 37.5947 97.8868 37.1136 97.7315 36.6932C97.5762 36.2727 97.3452 35.9432 97.0384 35.7045C96.7315 35.4659 96.349 35.3466 95.8906 35.3466C95.4512 35.3466 95.0781 35.4621 94.7713 35.6932C94.4645 35.9242 94.2315 36.2481 94.0724 36.6648C93.9171 37.0814 93.8395 37.572 93.8395 38.1364ZM112.206 34.0625C112.153 33.5663 111.929 33.1799 111.536 32.9034C111.145 32.6269 110.638 32.4886 110.013 32.4886C109.573 32.4886 109.196 32.5549 108.882 32.6875C108.568 32.8201 108.327 33 108.161 33.2273C107.994 33.4545 107.909 33.714 107.905 34.0057C107.905 34.2481 107.96 34.4583 108.07 34.6364C108.183 34.8144 108.337 34.9659 108.53 35.0909C108.723 35.2121 108.937 35.3144 109.172 35.3977C109.407 35.4811 109.643 35.5511 109.882 35.608L110.973 35.8807C111.412 35.983 111.835 36.1212 112.24 36.2955C112.649 36.4697 113.015 36.6894 113.337 36.9545C113.662 37.2197 113.92 37.5398 114.109 37.9148C114.299 38.2898 114.393 38.7292 114.393 39.233C114.393 39.9148 114.219 40.5152 113.871 41.0341C113.522 41.5492 113.018 41.9527 112.359 42.2443C111.704 42.5322 110.911 42.6761 109.979 42.6761C109.073 42.6761 108.287 42.536 107.621 42.2557C106.958 41.9754 106.439 41.5663 106.064 41.0284C105.693 40.4905 105.492 39.8352 105.462 39.0625H107.536C107.566 39.4678 107.691 39.8049 107.911 40.0739C108.13 40.3428 108.416 40.5436 108.768 40.6761C109.125 40.8087 109.522 40.875 109.962 40.875C110.42 40.875 110.821 40.8068 111.166 40.6705C111.515 40.5303 111.787 40.3371 111.984 40.0909C112.181 39.8409 112.282 39.5492 112.286 39.2159C112.282 38.9129 112.193 38.6629 112.018 38.4659C111.844 38.2652 111.6 38.0985 111.286 37.9659C110.975 37.8295 110.611 37.7083 110.195 37.6023L108.871 37.2614C107.912 37.0152 107.155 36.642 106.598 36.142C106.045 35.6383 105.768 34.9697 105.768 34.1364C105.768 33.4508 105.954 32.8504 106.325 32.3352C106.7 31.8201 107.21 31.4205 107.854 31.1364C108.498 30.8485 109.227 30.7045 110.041 30.7045C110.867 30.7045 111.59 30.8485 112.212 31.1364C112.837 31.4205 113.327 31.8163 113.683 32.3239C114.039 32.8277 114.223 33.4072 114.234 34.0625H112.206ZM120.54 33.7727V35.3636H115.523V33.7727H120.54ZM116.761 31.6818H118.818V39.875C118.818 40.1515 118.86 40.3636 118.943 40.5114C119.03 40.6553 119.144 40.7538 119.284 40.8068C119.424 40.8598 119.58 40.8864 119.75 40.8864C119.879 40.8864 119.996 40.8769 120.102 40.858C120.212 40.839 120.295 40.822 120.352 40.8068L120.699 42.4148C120.589 42.4527 120.432 42.4943 120.227 42.5398C120.027 42.5852 119.78 42.6117 119.489 42.6193C118.973 42.6345 118.509 42.5568 118.097 42.3864C117.684 42.2121 117.356 41.9432 117.114 41.5795C116.875 41.2159 116.758 40.7614 116.761 40.2159V31.6818ZM125.973 42.6705C125.121 42.6705 124.382 42.483 123.757 42.108C123.132 41.733 122.647 41.2083 122.303 40.5341C121.962 39.8598 121.791 39.072 121.791 38.1705C121.791 37.2689 121.962 36.4792 122.303 35.8011C122.647 35.1231 123.132 34.5966 123.757 34.2216C124.382 33.8466 125.121 33.6591 125.973 33.6591C126.825 33.6591 127.564 33.8466 128.189 34.2216C128.814 34.5966 129.297 35.1231 129.638 35.8011C129.982 36.4792 130.155 37.2689 130.155 38.1705C130.155 39.072 129.982 39.8598 129.638 40.5341C129.297 41.2083 128.814 41.733 128.189 42.108C127.564 42.483 126.825 42.6705 125.973 42.6705ZM125.984 41.0227C126.446 41.0227 126.833 40.8958 127.143 40.642C127.454 40.3845 127.685 40.0398 127.837 39.608C127.992 39.1761 128.07 38.6951 128.07 38.1648C128.07 37.6307 127.992 37.1477 127.837 36.7159C127.685 36.2803 127.454 35.9337 127.143 35.6761C126.833 35.4186 126.446 35.2898 125.984 35.2898C125.511 35.2898 125.117 35.4186 124.803 35.6761C124.492 35.9337 124.259 36.2803 124.104 36.7159C123.952 37.1477 123.876 37.6307 123.876 38.1648C123.876 38.6951 123.952 39.1761 124.104 39.608C124.259 40.0398 124.492 40.3845 124.803 40.642C125.117 40.8958 125.511 41.0227 125.984 41.0227ZM131.901 42.5V33.7727H133.895V35.2273H133.986C134.145 34.7235 134.418 34.3352 134.804 34.0625C135.194 33.786 135.639 33.6477 136.139 33.6477C136.253 33.6477 136.38 33.6534 136.52 33.6648C136.664 33.6723 136.783 33.6856 136.878 33.7045V35.5966C136.791 35.5663 136.652 35.5398 136.463 35.517C136.277 35.4905 136.098 35.4773 135.923 35.4773C135.548 35.4773 135.211 35.5587 134.912 35.7216C134.616 35.8807 134.384 36.1023 134.213 36.3864C134.043 36.6705 133.957 36.9981 133.957 37.3693V42.5H131.901ZM141.749 42.6705C140.874 42.6705 140.118 42.4886 139.482 42.125C138.849 41.7576 138.362 41.2386 138.021 40.5682C137.68 39.8939 137.51 39.1004 137.51 38.1875C137.51 37.2898 137.68 36.5019 138.021 35.8239C138.366 35.142 138.847 34.6117 139.464 34.233C140.082 33.8504 140.807 33.6591 141.641 33.6591C142.179 33.6591 142.686 33.7462 143.163 33.9205C143.644 34.0909 144.069 34.3561 144.436 34.7159C144.807 35.0758 145.099 35.5341 145.311 36.0909C145.523 36.6439 145.629 37.303 145.629 38.0682V38.6989H138.476V37.3125H143.658C143.654 36.9186 143.569 36.5682 143.402 36.2614C143.235 35.9508 143.002 35.7064 142.703 35.5284C142.408 35.3504 142.063 35.2614 141.669 35.2614C141.249 35.2614 140.879 35.3636 140.561 35.5682C140.243 35.7689 139.995 36.0341 139.817 36.3636C139.643 36.6894 139.554 37.0473 139.55 37.4375V38.6477C139.55 39.1553 139.643 39.5909 139.828 39.9545C140.014 40.3144 140.273 40.5909 140.607 40.7841C140.94 40.9735 141.33 41.0682 141.777 41.0682C142.076 41.0682 142.347 41.0265 142.589 40.9432C142.832 40.8561 143.042 40.7292 143.22 40.5625C143.398 40.3958 143.533 40.1894 143.624 39.9432L145.544 40.1591C145.423 40.6667 145.192 41.1098 144.851 41.4886C144.514 41.8636 144.082 42.1553 143.555 42.3636C143.029 42.5682 142.427 42.6705 141.749 42.6705Z" fill="#292929"/>
<defs>
<radialGradient id="paint0_radial_1647_13385" cx="0" cy="0" r="1" gradientUnits="userSpaceOnUse" gradientTransform="translate(60.3003 58.3057) rotate(-50.4641) scale(79.5718 165.299)">
<stop stop-color="white" stop-opacity="0"/>
<stop offset="1" stop-color="white"/>
</radialGradient>
</defs>
</svg>
