<svg width="590" height="241" viewBox="0 0 590 241" fill="none" xmlns="http://www.w3.org/2000/svg">
<g clip-path="url(#clip0_466_3343)">
<g filter="url(#filter0_d_466_3343)">
<mask id="mask0_466_3343" style="mask-type:luminance" maskUnits="userSpaceOnUse" x="-1" y="-1" width="592" height="243">
<path d="M591 -1H-1V242H591V-1Z" fill="white"/>
</mask>
<g mask="url(#mask0_466_3343)">
<path d="M591 -1H-1V242H591V-1Z" fill="url(#paint0_linear_466_3343)" fill-opacity="0.5"/>
<mask id="mask1_466_3343" style="mask-type:luminance" maskUnits="userSpaceOnUse" x="-474" y="-224" width="1204" height="1423">
<path d="M155.845 -223.996L-474 866.928L99.5158 1198.05L729.361 107.124L155.845 -223.996Z" fill="white"/>
</mask>
<g mask="url(#mask1_466_3343)">
<g opacity="0.1">
<path d="M39.6414 1112.2L313.216 634.721C336.034 595.332 350.806 561.409 355.374 518.098C370.184 377.675 269.782 251.862 131.249 237.139C26.9969 226.059 -69.2956 281.017 -116.852 368.702C-116.94 368.806 -117.012 368.931 -117.053 369.04C-117.073 369.096 -117.083 369.145 -117.097 369.187L-398.287 857.718L-396.993 858.481L-115.649 369.686L-115.642 369.617L-115.593 369.524C-68.3338 282.304 27.4142 227.628 131.085 238.646C199.941 245.964 259.315 280.885 299.64 331.433C339.965 381.98 361.233 448.137 353.871 517.933C349.331 560.977 334.69 594.628 311.913 633.953L38.3426 1111.44L39.6414 1112.2Z" fill="url(#paint1_linear_466_3343)"/>
<path d="M52.1954 1106.54L332.83 616.732C356.235 576.328 371.391 541.535 376.072 497.104C391.263 353.067 288.279 224.018 146.177 208.916C39.2406 197.551 -59.5273 253.923 -108.307 343.864C-108.401 343.972 -108.473 344.097 -108.509 344.206C-108.529 344.263 -108.544 344.316 -108.554 344.359L-397.004 845.504L-395.71 846.266L-107.106 344.857L-107.098 344.784L-107.044 344.687C-58.5608 255.211 39.6676 199.121 146.018 210.424C216.656 217.931 277.571 253.759 318.938 305.612C360.31 357.466 382.13 425.34 374.578 496.945C369.921 541.103 354.896 575.629 331.536 615.97L50.9015 1105.77L52.2003 1106.54H52.1954Z" fill="url(#paint2_linear_466_3343)"/>
<path d="M64.7498 1100.88L352.443 598.75C376.442 557.331 391.971 521.663 396.77 476.118C412.343 328.466 306.776 196.182 161.111 180.696C51.4949 169.046 -49.7539 226.837 -99.7626 319.033C-99.8566 319.141 -99.928 319.266 -99.9691 319.38C-99.9897 319.437 -100.005 319.494 -100.015 319.538L-395.725 833.292L-394.431 834.054L-98.5663 320.031L-98.5586 319.958L-98.5035 319.851C-48.8007 228.114 51.9078 170.61 160.947 182.199C233.372 189.896 295.818 226.629 338.233 279.789C380.647 332.954 403.015 402.539 395.272 475.949C390.498 521.221 375.094 556.617 351.141 597.972L63.4559 1100.12L64.7547 1100.88H64.7498Z" fill="url(#paint3_linear_466_3343)"/>
<path d="M77.3125 1095.21L372.071 580.756C396.657 538.323 412.565 501.78 417.481 455.121C433.435 303.855 325.282 168.329 176.053 152.469C63.752 140.534 -39.9771 199.739 -91.2052 294.196C-91.2992 294.304 -91.3759 294.434 -91.4122 294.548C-91.4333 294.61 -91.4486 294.662 -91.4585 294.71L-394.428 821.078L-393.134 821.841L-90.0104 295.209L-90.0027 295.136L-89.9429 295.029C-39.0163 201.036 64.173 142.114 175.893 153.987C250.099 161.874 314.082 199.508 357.543 253.98C400.999 308.451 423.92 379.748 415.987 454.968C411.095 501.354 395.313 537.624 370.772 579.993L76.0132 1094.45L77.312 1095.22L77.3125 1095.21Z" fill="url(#paint4_linear_466_3343)"/>
<path d="M89.8743 1089.54L391.692 562.762C416.867 519.309 433.153 481.897 438.191 434.129C454.526 279.248 343.791 140.486 190.998 124.248C76.0079 112.027 -30.1957 172.636 -82.6486 269.359C-82.7426 269.467 -82.8193 269.597 -82.861 269.715C-82.8821 269.777 -82.8978 269.834 -82.9078 269.883L-393.137 808.86L-391.843 809.622L-81.4591 270.376L-81.4509 270.298L-81.3901 270.181C-29.2392 173.928 76.4256 113.591 190.835 125.75C266.823 133.826 332.342 172.367 376.846 228.145C421.349 283.927 444.818 356.935 436.694 433.96C431.684 481.46 415.523 518.605 390.395 561.99L88.5753 1088.78L89.8743 1089.54Z" fill="url(#paint5_linear_466_3343)"/>
<path d="M102.427 1083.89L411.31 544.782C437.072 500.313 453.742 462.027 458.893 413.145C475.609 254.649 362.286 112.651 205.93 96.0343C88.2554 83.5279 -20.4292 145.555 -74.1011 244.535C-74.1956 244.648 -74.2723 244.777 -74.314 244.896C-74.335 244.958 -74.3508 245.015 -74.3608 245.063L-391.85 796.654L-390.557 797.416L-72.9121 245.557L-72.9039 245.479L-72.8378 245.358C-19.4631 146.849 88.6824 85.0982 205.771 97.5423C283.541 105.807 350.602 145.25 396.147 202.338C441.692 259.427 465.714 334.152 457.399 412.981C452.272 461.595 435.728 499.61 410.016 544.015L101.128 1083.12L102.427 1083.89Z" fill="url(#paint6_linear_466_3343)"/>
<path d="M114.987 1078.22L430.93 526.789C457.28 481.307 474.328 442.15 479.602 392.15C496.699 230.044 380.794 84.8054 220.87 67.8089C100.515 55.0178 -10.6493 118.46 -65.5455 219.7C-65.6448 219.812 -65.7222 219.947 -65.7639 220.065C-65.7854 220.132 -65.8013 220.189 -65.8112 220.237L-390.561 784.442L-389.267 785.204L-64.3625 220.731L-64.3543 220.653L-64.287 220.522C-9.68811 119.752 100.932 56.5872 220.706 69.3165C300.257 77.7711 368.855 118.119 415.447 176.515C462.034 234.915 486.608 311.351 478.104 391.985C472.859 441.714 455.936 480.603 429.632 526.022L113.688 1077.46L114.987 1078.22Z" fill="url(#paint7_linear_466_3343)"/>
<path d="M127.547 1072.55L450.549 508.798C477.487 462.3 494.915 422.269 500.306 371.154C517.784 205.434 399.298 56.9548 235.81 39.5796C112.77 26.5031 -0.871185 91.3642 -56.9955 194.855C-57.0948 194.967 -57.1722 195.102 -57.2144 195.225C-57.2359 195.292 -57.2522 195.354 -57.2627 195.407L-389.271 772.221L-387.977 772.983L-55.814 195.9L-55.8053 195.817L-55.7332 195.687C0.0896149 92.6622 113.191 28.0779 235.65 41.0926C316.983 49.7365 387.116 90.991 434.75 150.693C482.385 210.399 507.508 288.547 498.817 370.996C493.455 421.838 476.153 461.597 449.26 508.031L126.247 1071.8L127.542 1072.56L127.547 1072.55Z" fill="url(#paint8_linear_466_3343)"/>
<path d="M140.105 1066.89L470.171 490.81C497.697 443.298 515.506 402.397 521.01 350.163C538.87 180.829 417.797 29.1122 250.746 11.3583C125.021 -2.00352 8.89995 64.2715 -48.4438 170.024C-48.5431 170.136 -48.6253 170.27 -48.6675 170.393C-48.6944 170.464 -48.7057 170.527 -48.7162 170.58L-387.98 760.008L-386.686 760.771L-47.2677 171.074L-47.2585 170.986L-47.2537 170.987L-47.1811 170.852C9.86604 65.5646 125.443 -0.43374 250.586 12.8712C333.701 21.7045 405.376 63.8607 454.053 124.874C502.729 185.891 528.404 265.751 519.518 350.004C514.038 401.961 496.358 442.594 468.878 490.043L138.81 1066.13L140.109 1066.89H140.105Z" fill="url(#paint9_linear_466_3343)"/>
<path d="M152.668 1061.21L489.794 472.809C517.908 424.276 536.097 382.506 541.718 329.163C559.959 156.214 436.302 1.26212 265.682 -16.871C137.277 -30.5176 18.6767 37.1711 -39.8909 145.178C-39.9955 145.295 -40.0728 145.43 -40.1154 145.558C-40.1423 145.629 -40.1539 145.692 -40.1648 145.75L-386.689 747.792L-385.395 748.554L-38.7163 146.243L-38.7065 146.15L-38.7017 146.151L-38.6291 146.016C19.637 38.4736 137.699 -28.938 265.523 -15.3532C350.419 -6.33046 423.631 36.7317 473.354 99.0514C523.073 161.375 549.3 242.95 540.224 329.009C534.626 382.079 516.564 423.582 488.495 472.051L151.373 1060.45L152.672 1061.22L152.668 1061.21Z" fill="url(#paint10_linear_466_3343)"/>
<path d="M165.22 1055.56L509.406 454.834C538.108 405.286 556.675 362.641 562.419 308.184C581.041 131.621 454.802 -26.5664 280.614 -45.0788C149.525 -59.0107 28.4479 10.0973 -31.3483 120.36C-31.4529 120.477 -31.5307 120.616 -31.5777 120.739C-31.6046 120.81 -31.6214 120.877 -31.6318 120.93L-385.416 735.581L-384.122 736.344L-30.1826 121.418L-30.1724 121.321L-30.1617 121.312L-30.0898 121.182C29.4006 11.3791 149.938 -57.4468 280.451 -43.5762C367.134 -34.3636 441.877 9.59938 492.648 73.2304C543.414 136.861 570.188 220.152 560.921 308.015C555.207 362.2 536.765 404.578 508.108 454.061L163.921 1054.8L165.22 1055.56Z" fill="url(#paint11_linear_466_3343)"/>
<path d="M177.781 1049.89L529.031 436.843C558.321 386.281 577.272 342.761 583.128 287.19C602.131 107.012 473.306 -54.4126 295.559 -73.3081C161.785 -87.5254 38.2274 -16.9985 -22.7878 95.5206C-22.8924 95.6376 -22.9749 95.7766 -23.0176 95.9046C-23.0451 95.9806 -23.0619 96.0476 -23.0724 96.1006L-384.117 723.366L-382.823 724.128L-21.6231 96.5886L-21.6124 96.4866L-21.5969 96.4786L-21.525 96.3486C39.1892 -15.7108 162.207 -85.9555 295.4 -71.8C383.865 -62.3981 460.149 -17.5286 511.958 47.4081C563.765 112.35 591.093 197.348 581.635 287.022C575.803 342.325 556.983 385.573 527.738 436.071L176.482 1049.13L177.781 1049.89Z" fill="url(#paint12_linear_466_3343)"/>
<path d="M310.49 -101.525C354.809 -96.8147 396.884 -83.4439 435.54 -61.7834C472.88 -40.8629 505.476 -13.1315 532.417 20.6449C559.364 54.417 579.296 92.53 591.667 133.918C604.475 176.774 608.566 221.281 603.828 266.203C597.687 324.435 577.327 369.344 548.647 418.859L190.338 1044.23L189.039 1043.47L547.349 418.091C575.933 368.743 596.222 323.999 602.335 266.039C607.051 221.322 602.978 177.013 590.232 134.356C577.919 93.156 558.075 55.2196 531.253 21.5936C504.432 -12.0274 471.983 -39.63 434.813 -60.4587C396.33 -82.0171 354.448 -95.328 310.326 -100.017C244.582 -107.004 179.094 -94.041 120.946 -62.5338C64.1784 -31.7751 17.8632 14.5819 -12.9828 71.5164L-13.1602 71.9107L-381.542 711.92L-382.836 711.157L-14.5311 71.278C-14.4993 71.1141 -14.4275 70.8954 -14.2455 70.6885C16.7447 13.5381 63.2479 -32.9906 120.238 -63.8732C178.653 -95.5242 244.439 -108.545 310.485 -101.525" fill="url(#paint13_linear_466_3343)"/>
</g>
</g>
<path d="M381.632 43.584H266.368C264.508 43.584 263 45.0918 263 46.9518V210.246C263 212.106 264.508 213.613 266.368 213.613H381.632C383.492 213.613 385 212.106 385 210.246V46.9518C385 45.0918 383.492 43.584 381.632 43.584Z" fill="url(#paint14_linear_466_3343)"/>
<path opacity="0.3" d="M380.564 60.5391H267.426V207.252H380.564V60.5391Z" fill="black"/>
<path d="M380.775 49.8242H267.637V202.77H380.775V49.8242Z" fill="white"/>
<path d="M367.553 80.8652H280.441V85.5703H367.553V80.8652Z" fill="#E0E0E0"/>
<path d="M367.553 189.004H280.441V193.709H367.553V189.004Z" fill="#E0E0E0"/>
<path d="M367.553 91.9258H280.441V92.3788H367.553V91.9258Z" fill="#263238"/>
<path d="M367.553 99.2031H280.441V99.6561H367.553V99.2031Z" fill="#263238"/>
<path d="M367.553 106.49H280.441V106.944H367.553V106.49Z" fill="#263238"/>
<path d="M367.553 112.877H280.441V113.33H367.553V112.877Z" fill="#263238"/>
<path d="M343.619 128.672H280.441V129.125H343.619V128.672Z" fill="#263238"/>
<path d="M343.619 135.309H280.441V135.762H343.619V135.309Z" fill="#263238"/>
<path d="M363.666 138.362H351.695V126.414H363.666V138.362ZM352.171 137.909H363.213V126.867H352.149L352.171 137.909Z" fill="#263238"/>
<path d="M359.147 136.953L352.855 132.267L354.487 130.073L358.707 133.214L364.505 126.297L366.603 128.056L359.147 136.953Z" fill="#3F3A60"/>
<path d="M343.619 149.311H280.441V149.764H343.619V149.311Z" fill="#263238"/>
<path d="M343.619 155.951H280.441V156.404H343.619V155.951Z" fill="#263238"/>
<path d="M363.666 159.001H351.695V147.053H363.666V159.001ZM352.171 158.548H363.213V147.506H352.149L352.171 158.548Z" fill="#263238"/>
<path d="M359.147 157.59L352.855 152.908L354.487 150.709L358.707 153.851L364.505 146.934L366.603 148.692L359.147 157.59Z" fill="#3F3A60"/>
<path d="M343.619 169.953H280.441V170.406H343.619V169.953Z" fill="#263238"/>
<path d="M343.619 176.588H280.441V177.041H343.619V176.588Z" fill="#263238"/>
<path d="M363.666 179.644H351.695V167.695H363.666V179.644ZM352.171 179.19H363.213V168.149H352.149L352.171 179.19Z" fill="#263238"/>
<path d="M359.147 178.235L352.855 173.548L354.487 171.354L358.707 174.495L364.505 167.578L366.603 169.337L359.147 178.235Z" fill="#3F3A60"/>
<path d="M299.131 64.4102V69.9809H297.676V64.4102H299.131Z" fill="#263238"/>
<path d="M304.604 67.2595V69.9791H303.199V67.6765C303.21 67.5752 303.2 67.4728 303.168 67.376C303.136 67.2793 303.083 67.1905 303.014 67.1158C302.945 67.041 302.861 66.9819 302.767 66.9426C302.673 66.9033 302.571 66.8846 302.47 66.8878C302.25 66.8877 302.039 66.9734 301.881 67.1267C301.724 67.2799 301.632 67.4886 301.626 67.7082V69.9746H300.203V65.6775H301.617V66.3756C301.765 66.1336 301.975 65.9359 302.225 65.8035C302.476 65.671 302.758 65.6087 303.041 65.6231C303.255 65.6132 303.469 65.6492 303.668 65.729C303.867 65.8087 304.047 65.9302 304.195 66.0853C304.343 66.2403 304.457 66.4254 304.527 66.628C304.598 66.8305 304.624 67.0459 304.604 67.2595Z" fill="#263238"/>
<path d="M307.074 66.5924C306.834 66.5924 306.666 66.6785 306.666 66.8644C306.666 67.4264 308.933 67.159 308.933 68.6503C308.933 69.5568 308.158 70.0328 307.12 70.0328C306.423 70.0472 305.742 69.8322 305.18 69.4208L305.633 68.5143C306.079 68.8367 306.61 69.021 307.161 69.0446C307.423 69.0446 307.614 68.9585 307.614 68.7817C307.614 68.197 305.397 68.4871 305.397 67.0049C305.397 66.0983 306.15 65.6133 307.161 65.6133C307.799 65.611 308.426 65.7834 308.974 66.1119L308.493 67.0185C308.06 66.7679 307.574 66.622 307.074 66.5924Z" fill="#263238"/>
<path d="M313.875 65.6725V69.9696H312.443V69.2715C312.306 69.5095 312.108 69.706 311.868 69.8401C311.629 69.9741 311.357 70.0408 311.083 70.033C310.87 70.04 310.658 70.0013 310.462 69.9195C310.265 69.8377 310.088 69.7147 309.943 69.5588C309.798 69.4029 309.688 69.2177 309.62 69.0157C309.552 68.8137 309.529 68.5995 309.551 68.3876V65.668H310.965V67.9797C310.952 68.0775 310.96 68.1769 310.989 68.2713C311.018 68.3656 311.067 68.4527 311.132 68.5266C311.197 68.6005 311.278 68.6596 311.368 68.6997C311.458 68.7399 311.556 68.7602 311.654 68.7593C312.157 68.7593 312.461 68.3514 312.461 67.7893V65.668L313.875 65.6725Z" fill="#263238"/>
<path d="M317.751 65.6174V66.9092C316.966 66.8321 316.441 67.1812 316.391 67.775V69.9688H314.977V65.6716H316.391V66.3879C316.529 66.1502 316.727 65.9535 316.966 65.8181C317.205 65.6827 317.476 65.6134 317.751 65.6174Z" fill="#263238"/>
<path d="M322.075 67.1726V69.9693H320.683V69.4843C320.526 69.6714 320.328 69.8187 320.103 69.9141C319.879 70.0095 319.634 70.0501 319.391 70.0327C318.485 70.0327 317.918 69.4797 317.918 68.6729C317.918 67.8661 318.498 67.3856 319.563 67.3675H320.683V67.3221C320.683 66.9187 320.406 66.6785 319.867 66.6785C319.419 66.6984 318.98 66.8143 318.58 67.0184L318.19 66.0666C318.816 65.77 319.5 65.6153 320.193 65.6133C321.376 65.6178 322.065 66.1889 322.075 67.1726ZM320.683 68.5324V68.1607H319.84C319.446 68.1607 319.246 68.3058 319.246 68.614C319.246 68.9222 319.459 69.099 319.826 69.099C320.014 69.1109 320.2 69.0599 320.355 68.954C320.51 68.848 320.626 68.6933 320.683 68.5143V68.5324Z" fill="#263238"/>
<path d="M327.424 67.2595V69.9791H326.042V67.6765C326.053 67.5752 326.042 67.4728 326.01 67.376C325.978 67.2793 325.926 67.1905 325.857 67.1158C325.788 67.041 325.703 66.9819 325.609 66.9426C325.515 66.9033 325.414 66.8846 325.312 66.8878C325.092 66.8877 324.881 66.9734 324.724 67.1267C324.566 67.2799 324.475 67.4886 324.469 67.7082V69.9746H323.055V65.6775H324.469V66.3756C324.616 66.1336 324.826 65.9359 325.077 65.8035C325.328 65.671 325.609 65.6087 325.892 65.6231C326.104 65.6178 326.314 65.6573 326.51 65.7391C326.705 65.8208 326.881 65.943 327.025 66.0976C327.17 66.2521 327.28 66.4356 327.349 66.6358C327.418 66.8361 327.444 67.0486 327.424 67.2595Z" fill="#263238"/>
<path d="M330.315 66.79C329.807 66.79 329.458 67.2116 329.458 67.8326C329.458 68.4536 329.807 68.8706 330.315 68.8706C330.488 68.8822 330.66 68.8424 330.81 68.756C330.96 68.6697 331.081 68.5408 331.158 68.3856L332.201 68.9839C331.939 69.3876 331.555 69.6974 331.105 69.8683C330.655 70.0393 330.162 70.0626 329.698 69.9349C329.234 69.8071 328.823 69.5349 328.524 69.1578C328.225 68.7806 328.054 68.318 328.035 67.8371C328.049 67.3571 328.215 66.8939 328.509 66.5144C328.804 66.1349 329.211 65.8587 329.672 65.7255C330.134 65.5924 330.625 65.6093 331.077 65.7737C331.528 65.9382 331.915 66.2417 332.183 66.6404L331.158 67.2342C331.067 67.0951 330.941 66.9814 330.794 66.9038C330.646 66.8261 330.482 66.787 330.315 66.79Z" fill="#263238"/>
<path d="M336.795 68.1963H333.808C333.857 68.4172 333.981 68.614 334.16 68.7523C334.339 68.8907 334.561 68.9618 334.787 68.9533C334.977 68.9493 335.163 68.9071 335.336 68.8292C335.509 68.7513 335.665 68.6394 335.793 68.5L336.532 69.2434C336.294 69.498 336.003 69.6979 335.68 69.8293C335.356 69.9608 335.009 70.0207 334.66 70.0049C333.25 70.0049 332.394 69.1391 332.394 67.8246C332.378 67.527 332.425 67.2294 332.532 66.9514C332.64 66.6733 332.805 66.4213 333.017 66.2118C333.229 66.0023 333.483 65.8402 333.762 65.7361C334.042 65.6321 334.34 65.5884 334.637 65.6081C336.129 65.6217 336.89 66.6325 336.795 68.1963ZM335.435 67.4439C335.444 67.3359 335.429 67.2274 335.393 67.1254C335.356 67.0234 335.299 66.9303 335.224 66.852C335.149 66.7737 335.058 66.7121 334.958 66.6712C334.858 66.6302 334.75 66.6109 334.642 66.6144C334.422 66.6246 334.214 66.7144 334.055 66.867C333.897 67.0196 333.799 67.2247 333.781 67.4439H335.435Z" fill="#263238"/>
<path d="M344.601 66.3567C344.601 67.6667 343.785 68.4282 342.362 68.4282H341.369V69.9693H339.914V64.4121H342.362C343.785 64.4121 344.601 65.1147 344.601 66.3567ZM343.218 66.402C343.218 65.8535 342.879 65.5589 342.289 65.5589H341.383V67.2678H342.289C342.41 67.2859 342.533 67.2765 342.65 67.2404C342.766 67.2042 342.873 67.1422 342.963 67.059C343.052 66.9758 343.121 66.8735 343.166 66.7597C343.21 66.646 343.228 66.5237 343.218 66.402Z" fill="#263238"/>
<path d="M349.661 67.815C349.661 69.1431 348.723 70.0179 347.308 70.0179C345.894 70.0179 344.965 69.1431 344.965 67.815C344.965 66.4869 345.894 65.6211 347.308 65.6211C348.723 65.6211 349.661 66.4959 349.661 67.815ZM346.388 67.815C346.413 67.993 346.49 68.1599 346.608 68.2957C346.726 68.4314 346.88 68.5302 347.053 68.5803C347.226 68.6303 347.409 68.6293 347.581 68.5776C347.754 68.5258 347.907 68.4255 348.024 68.2885C348.14 68.1516 348.215 67.9839 348.238 67.8056C348.262 67.6274 348.233 67.4461 348.156 67.2836C348.079 67.1211 347.957 66.9843 347.804 66.8896C347.651 66.7949 347.474 66.7463 347.295 66.7498C347.161 66.7541 347.031 66.7865 346.911 66.8449C346.791 66.9033 346.685 66.9864 346.599 67.0886C346.514 67.1909 346.45 67.3101 346.414 67.4383C346.378 67.5666 346.369 67.7012 346.388 67.8331V67.815Z" fill="#263238"/>
<path d="M351.841 64.0703V69.9629H350.422V64.0703H351.841Z" fill="#263238"/>
<path d="M354.366 65.6714V69.9685H352.961V65.6714H354.366ZM354.312 64.4611C354.311 64.5882 354.272 64.7122 354.201 64.8175C354.13 64.9227 354.029 65.0045 353.911 65.0525C353.794 65.1006 353.664 65.1127 353.54 65.0873C353.415 65.062 353.301 65.0003 353.211 64.9101C353.122 64.8199 353.061 64.7052 353.036 64.5805C353.012 64.4558 353.025 64.3266 353.074 64.2092C353.123 64.0919 353.205 63.9916 353.311 63.9211C353.417 63.8506 353.541 63.8129 353.668 63.8129C353.754 63.8097 353.839 63.8243 353.919 63.8558C353.999 63.8873 354.071 63.935 354.132 63.9959C354.192 64.0568 354.24 64.1296 354.271 64.2097C354.302 64.2898 354.316 64.3754 354.312 64.4611Z" fill="#263238"/>
<path d="M357.382 66.7907C356.87 66.7907 356.521 67.2123 356.521 67.8332C356.521 68.4542 356.87 68.8713 357.382 68.8713C357.554 68.882 357.725 68.8417 357.874 68.7554C358.024 68.6691 358.144 68.5407 358.22 68.3862L359.263 68.9846C359.001 69.3883 358.617 69.6981 358.167 69.869C357.717 70.04 357.224 70.0633 356.76 69.9356C356.296 69.8078 355.885 69.5356 355.586 69.1585C355.287 68.7813 355.116 68.3187 355.097 67.8378C355.08 67.5414 355.126 67.2448 355.232 66.9674C355.338 66.6901 355.501 66.4383 355.711 66.2289C355.922 66.0194 356.174 65.8569 356.452 65.7521C356.73 65.6474 357.027 65.6028 357.323 65.6212C357.706 65.602 358.087 65.6866 358.426 65.8662C358.765 66.0457 359.05 66.3134 359.249 66.6411L358.225 67.2349C358.134 67.0955 358.008 66.9816 357.861 66.9039C357.713 66.8262 357.548 66.7872 357.382 66.7907Z" fill="#263238"/>
<path d="M360.55 71.5729C360.087 71.5771 359.637 71.4164 359.281 71.1196L359.866 70.145C360.022 70.2926 360.227 70.3766 360.442 70.3807C360.551 70.3844 360.658 70.3552 360.75 70.297C360.842 70.2388 360.915 70.1543 360.958 70.0544L361.058 69.8595L359.281 65.6621H360.736L361.761 68.4906L362.667 65.6938H364.077L362.232 70.4125C362.117 70.7633 361.891 71.0668 361.587 71.2764C361.283 71.486 360.919 71.5901 360.55 71.5729Z" fill="#263238"/>
<path d="M290.699 61.9492H282.454C281.342 61.9492 280.441 62.8503 280.441 63.9618V72.2069C280.441 73.3184 281.342 74.2195 282.454 74.2195H290.699C291.811 74.2195 292.712 73.3184 292.712 72.2069V63.9618C292.712 62.8503 291.811 61.9492 290.699 61.9492Z" fill="#3F3A60"/>
<path d="M286.577 67.8659C287.574 67.8659 288.382 67.0582 288.382 66.0619C288.382 65.0655 287.574 64.2578 286.577 64.2578C285.581 64.2578 284.773 65.0655 284.773 66.0619C284.773 67.0582 285.581 67.8659 286.577 67.8659Z" fill="white"/>
<path d="M286.58 68.25C285.609 68.2512 284.677 68.6381 283.99 69.3256C283.304 70.0132 282.918 70.9453 282.918 71.917H290.234C290.234 70.9468 289.849 70.0162 289.165 69.3288C288.48 68.6415 287.551 68.2536 286.58 68.25Z" fill="white"/>
<path d="M343.349 40.6406H304.648V55.2362H343.349V40.6406Z" fill="#263238"/>
<path d="M336.25 42.1144H313.622L311.098 31H339.351L336.25 42.1144Z" fill="#263238"/>
<path opacity="0.3" d="M337.036 31C337.014 31.068 334.022 40.5189 334.099 40.5189H336.665L339.384 31H337.036Z" fill="black"/>
<path opacity="0.3" d="M340.852 40.6406C340.852 40.6406 340.666 55.2362 340.852 55.2362H343.35V40.6406H340.852Z" fill="black"/>
<path d="M333.565 207.938H232.129V176.32H321.541L329.885 183.102C331.039 184.038 331.968 185.221 332.605 186.563C333.241 187.905 333.57 189.372 333.565 190.858V207.938Z" fill="url(#paint15_linear_466_3343)"/>
<path opacity="0.5" d="M333.565 207.938H232.129V176.32H321.541L329.885 183.102C331.039 184.038 331.968 185.221 332.605 186.563C333.241 187.905 333.57 189.372 333.565 190.858V207.938Z" fill="black"/>
<path d="M231.546 205.085C231.546 193.545 236.794 184.191 243.209 184.191H230.835C224.379 184.191 219.172 193.521 219.172 205.085C219.172 216.649 224.42 225.984 230.835 225.984H243.232C236.765 225.984 231.546 216.625 231.546 205.085Z" fill="#263238"/>
<path d="M243.233 225.979C249.687 225.979 254.919 216.624 254.919 205.085C254.919 193.546 249.687 184.191 243.233 184.191C236.779 184.191 231.547 193.546 231.547 205.085C231.547 216.624 236.779 225.979 243.233 225.979Z" fill="#263238"/>
<path d="M244.169 221.378C248.746 221.378 252.455 214.084 252.455 205.086C252.455 196.087 248.746 188.793 244.169 188.793C239.593 188.793 235.883 196.087 235.883 205.086C235.883 214.084 239.593 221.378 244.169 221.378Z" fill="white"/>
<path d="M164.188 205.085C164.188 193.545 169.436 184.191 175.85 184.191H163.476C157.021 184.191 151.812 193.521 151.812 205.085C151.812 216.649 157.062 225.984 163.476 225.984H175.874C169.418 225.984 164.188 216.625 164.188 205.085Z" fill="#263238"/>
<path d="M175.872 225.979C182.326 225.979 187.559 216.624 187.559 205.085C187.559 193.546 182.326 184.191 175.872 184.191C169.418 184.191 164.188 193.546 164.188 205.085C164.188 216.624 169.418 225.979 175.872 225.979Z" fill="#263238"/>
<path d="M311.628 205.085C311.628 193.545 316.876 184.191 323.291 184.191H310.917C304.467 184.191 299.254 193.521 299.254 205.085C299.254 216.649 304.502 225.984 310.917 225.984H323.314C316.865 225.984 311.628 216.625 311.628 205.085Z" fill="#263238"/>
<path d="M323.315 225.979C329.769 225.979 335.001 216.624 335.001 205.085C335.001 193.546 329.769 184.191 323.315 184.191C316.861 184.191 311.629 193.546 311.629 205.085C311.629 216.624 316.861 225.979 323.315 225.979Z" fill="#263238"/>
<path d="M324.259 221.378C328.835 221.378 332.545 214.084 332.545 205.086C332.545 196.087 328.835 188.793 324.259 188.793C319.683 188.793 315.973 196.087 315.973 205.086C315.973 214.084 319.683 221.378 324.259 221.378Z" fill="white"/>
<path d="M217.737 210.917H202.745L201.905 210.1C201.042 209.236 199.872 208.75 198.651 208.748H161.179C159.958 208.75 158.787 209.236 157.925 210.1L157.412 210.608H156.047C154.987 210.608 153.937 210.399 152.958 209.992C151.979 209.585 151.09 208.988 150.343 208.236C149.595 207.485 149.003 206.594 148.601 205.613C148.199 204.632 147.995 203.58 148 202.52V190.188H233.033L226.268 204.893C225.644 206.657 224.489 208.183 222.961 209.262C221.433 210.341 219.608 210.919 217.737 210.917Z" fill="url(#paint16_linear_466_3343)"/>
<path opacity="0.2" d="M217.737 210.917H202.745L201.905 210.1C201.042 209.236 199.872 208.75 198.651 208.748H161.179C159.958 208.75 158.787 209.236 157.925 210.1L157.412 210.608H156.047C154.987 210.608 153.937 210.399 152.958 209.992C151.979 209.585 151.09 208.988 150.343 208.236C149.595 207.485 149.003 206.594 148.601 205.613C148.199 204.632 147.995 203.58 148 202.52V190.188H233.033L226.268 204.893C225.644 206.657 224.489 208.183 222.961 209.262C221.433 210.341 219.608 210.919 217.737 210.917Z" fill="black"/>
<path d="M306.249 137.606C306.197 137.607 306.146 137.593 306.103 137.566C306.07 137.547 306.04 137.522 306.017 137.491C305.993 137.461 305.976 137.427 305.967 137.39C305.957 137.353 305.954 137.314 305.96 137.276C305.965 137.238 305.978 137.202 305.998 137.169L310.08 130.171C310.097 130.134 310.121 130.101 310.152 130.074C310.182 130.047 310.218 130.026 310.257 130.014C310.296 130.001 310.337 129.997 310.377 130.002C310.418 130.006 310.457 130.019 310.492 130.04C310.527 130.06 310.558 130.088 310.582 130.121C310.606 130.154 310.622 130.192 310.631 130.231C310.639 130.271 310.639 130.313 310.631 130.353C310.622 130.392 310.605 130.43 310.581 130.463L306.499 137.461C306.474 137.505 306.437 137.541 306.394 137.567C306.35 137.593 306.3 137.606 306.249 137.606Z" fill="#263238"/>
<path d="M327.782 172.42V164.466C327.782 160.285 321.706 140.558 313.35 136.861C304.993 133.164 284.776 131.519 272.041 132.196C259.305 132.872 242.301 159.51 242.301 159.51L244.149 182.415C246.738 182.415 254.984 181.634 256.191 204.294C256.272 205.892 256.964 207.397 258.125 208.498C259.285 209.599 260.825 210.211 262.425 210.207H307.011C308.509 210.206 309.956 209.664 311.085 208.68C312.215 207.696 312.951 206.337 313.157 204.854C314.324 196.778 317.367 182.398 324.709 182.398C329.858 182.398 333.549 186.806 333.549 191.862C333.551 186.307 332.202 180.836 329.619 175.919L327.782 172.42Z" fill="url(#paint17_linear_466_3343)"/>
<path d="M225.385 132.195C202.194 132.195 175.918 159.509 175.918 159.509H242.319C242.319 159.509 259.306 132.878 272.059 132.195H225.385Z" fill="url(#paint18_linear_466_3343)"/>
<path opacity="0.4" d="M226.811 132.195C207.276 132.195 186.785 151.579 180.808 157.684C180.659 157.835 180.559 158.027 180.519 158.235C180.479 158.443 180.502 158.658 180.584 158.853C180.667 159.048 180.805 159.215 180.982 159.332C181.158 159.448 181.366 159.51 181.578 159.509H235.144C237.3 159.515 239.427 159.013 241.352 158.042C243.278 157.071 244.947 155.66 246.224 153.923C251.985 146.074 263.082 132.679 272.062 132.195H226.811Z" fill="white"/>
<path d="M242.322 159.508L217.795 178.862L151.79 178.652C151.79 178.652 148 184.163 148 190.186H233.032C234.426 186.495 239.313 182.413 244.17 182.413C244.17 175.544 242.322 159.508 242.322 159.508Z" fill="url(#paint19_linear_466_3343)"/>
<path opacity="0.2" d="M226.269 173.159C226.199 173.159 226.132 173.133 226.079 173.087C226.027 173.041 225.993 172.978 225.983 172.909C225.973 172.833 225.993 172.757 226.039 172.695C226.085 172.634 226.152 172.594 226.228 172.582C232.115 171.628 237.625 169.065 242.147 165.176C243.042 164.424 243.624 163.366 243.78 162.208C243.936 161.05 243.656 159.876 242.993 158.914C242.969 158.882 242.951 158.846 242.941 158.808C242.931 158.77 242.929 158.73 242.935 158.691C242.941 158.652 242.955 158.614 242.976 158.581C242.997 158.547 243.025 158.518 243.057 158.496C243.089 158.473 243.126 158.457 243.165 158.449C243.204 158.441 243.244 158.441 243.282 158.449C243.321 158.457 243.358 158.473 243.39 158.496C243.423 158.519 243.45 158.548 243.471 158.581C244.214 159.663 244.529 160.983 244.353 162.284C244.177 163.584 243.524 164.774 242.521 165.62C237.919 169.58 232.31 172.188 226.315 173.154L226.269 173.159Z" fill="black"/>
<path d="M151.789 178.652C151.789 178.652 163.382 165.141 175.919 159.508H242.32L217.794 178.862L151.789 178.652Z" fill="url(#paint20_linear_466_3343)"/>
<path d="M203.136 178.652H159.594V179.918H203.136V178.652Z" fill="#263238"/>
<path d="M202.231 176.122L204.563 173.79C205.088 173.266 205.752 172.904 206.476 172.746L224.092 168.909C224.712 168.774 225.355 168.794 225.964 168.967L226.909 169.23C227.538 169.407 228.112 169.74 228.577 170.199C229.042 170.658 229.384 171.227 229.57 171.853C229.757 172.479 229.781 173.142 229.642 173.781C229.503 174.419 229.205 175.012 228.775 175.504L224.985 179.837C224.331 180.582 223.417 181.05 222.43 181.143L205.327 182.694C204.762 182.748 204.192 182.677 203.658 182.485C203.124 182.294 202.639 181.987 202.237 181.586C201.513 180.861 201.107 179.88 201.105 178.856C201.104 177.831 201.509 176.849 202.231 176.122Z" fill="white"/>
<path d="M160.825 177.358L158.895 173.749C158.623 173.243 158.22 172.82 157.728 172.524C157.261 172.244 156.73 172.089 156.186 172.074C155.641 172.058 155.102 172.183 154.62 172.437L153.157 173.206C152.438 173.587 151.891 174.227 151.629 174.997L150.737 177.638C150.588 178.073 150.536 178.535 150.583 178.992C150.631 179.449 150.777 179.891 151.011 180.286C151.246 180.681 151.563 181.021 151.942 181.281C152.32 181.542 152.75 181.718 153.203 181.796L157.233 182.49C157.89 182.604 158.566 182.508 159.166 182.216C159.766 181.924 160.258 181.45 160.574 180.863L160.842 180.367C161.089 179.904 161.217 179.386 161.214 178.861C161.211 178.335 161.077 177.819 160.825 177.358Z" fill="white"/>
<path opacity="0.4" d="M255.886 160.284H317.278C317.798 160.284 318.312 160.163 318.777 159.929C319.242 159.696 319.646 159.357 319.956 158.939C320.267 158.521 320.476 158.037 320.565 157.524C320.655 157.011 320.624 156.485 320.474 155.986C319.074 151.321 316.392 144.026 312.362 140.306C311.914 139.896 311.364 139.614 310.77 139.49C303.534 137.956 291.9 136.935 283.27 136.341C279.358 136.073 275.434 136.656 271.769 138.049C268.104 139.442 264.784 141.613 262.038 144.411C258.754 147.728 255.788 151.346 253.18 155.217C252.853 155.707 252.665 156.277 252.637 156.866C252.608 157.454 252.739 158.04 253.017 158.56C253.295 159.08 253.708 159.515 254.213 159.818C254.718 160.122 255.296 160.283 255.886 160.284Z" fill="white"/>
<path d="M216.192 197.022C216.192 198.935 214.233 200.492 211.819 200.492C209.405 200.492 207.445 198.935 207.445 197.022C207.445 195.11 209.399 193.559 211.819 193.559C214.239 193.559 216.192 195.11 216.192 197.022Z" fill="#263238"/>
<path d="M180.954 176.006C182.389 176.006 183.088 177.475 182.517 179.283C181.945 181.091 180.324 182.566 178.884 182.566C177.444 182.566 176.75 181.097 177.321 179.283C177.893 177.47 179.519 176.006 180.954 176.006Z" fill="#263238"/>
<path d="M151.53 197.022C151.53 198.935 150.946 200.492 150.299 200.492C149.651 200.492 149.062 198.935 149.062 197.022C149.062 195.11 149.646 193.559 150.299 193.559C150.952 193.559 151.53 195.11 151.53 197.022Z" fill="#263238"/>
<path d="M253.996 159.731V157.765C253.995 157.202 254.121 156.645 254.363 156.135C254.604 155.626 254.957 155.177 255.394 154.821C255.832 154.465 256.343 154.211 256.891 154.078C257.439 153.945 258.01 153.936 258.562 154.051L266.038 155.608C266.891 155.786 267.657 156.252 268.208 156.929C268.758 157.605 269.058 158.451 269.058 159.322V159.731C269.058 160.736 268.659 161.701 267.949 162.413C267.238 163.125 266.274 163.525 265.268 163.527H257.792C256.785 163.527 255.82 163.127 255.108 162.415C254.396 161.703 253.996 160.737 253.996 159.731Z" fill="#263238"/>
<path d="M293.329 137.157C293.329 137.157 292.331 137.058 290.594 136.906C298.279 152.651 296.32 160.284 296.32 160.284H302.186C302.245 150.697 293.329 137.157 293.329 137.157Z" fill="#263238"/>
<path opacity="0.2" d="M228.51 153.234C228.391 154.472 227.816 155.621 226.896 156.457C225.977 157.294 224.779 157.758 223.536 157.76H193.312C191.108 157.76 190.309 155.299 191.906 153.468C194.79 150.185 197.92 147.128 201.272 144.324C206.963 139.531 214.031 137.041 220.637 137.502L223.133 137.682C224.21 137.766 225.232 138.196 226.045 138.907C226.858 139.619 227.42 140.574 227.647 141.63C228.529 145.431 228.82 149.345 228.51 153.234Z" fill="url(#paint21_linear_466_3343)"/>
<path opacity="0.2" d="M297.022 206.061C296.945 206.061 296.871 206.031 296.816 205.976C296.761 205.921 296.73 205.847 296.73 205.77C296.73 199.869 299.739 175.534 300.527 171.89C301.291 168.35 301.291 164.397 300.527 161.825C300.505 161.751 300.514 161.671 300.551 161.603C300.588 161.535 300.651 161.485 300.725 161.463C300.799 161.443 300.878 161.453 300.946 161.49C301.013 161.527 301.064 161.588 301.086 161.662C301.874 164.321 301.874 168.385 301.086 172.012C300.299 175.639 297.302 199.892 297.302 205.77C297.302 205.845 297.273 205.918 297.221 205.972C297.169 206.026 297.097 206.058 297.022 206.061Z" fill="black"/>
<path opacity="0.2" d="M296.244 172.199H289.136C289.001 172.203 288.867 172.177 288.744 172.121C288.621 172.065 288.512 171.982 288.427 171.878C288.341 171.774 288.281 171.651 288.25 171.52C288.219 171.388 288.219 171.252 288.249 171.12L288.395 170.298C288.454 170.002 288.611 169.735 288.84 169.539C289.07 169.343 289.359 169.23 289.66 169.219H296.769C296.904 169.215 297.038 169.242 297.161 169.297C297.284 169.353 297.392 169.436 297.478 169.54C297.563 169.645 297.624 169.767 297.655 169.898C297.685 170.03 297.686 170.167 297.655 170.298L297.509 171.12C297.451 171.416 297.294 171.684 297.064 171.879C296.834 172.075 296.546 172.188 296.244 172.199Z" fill="black"/>
</g>
<path d="M590 0H0V241H590V0Z" stroke="url(#paint22_radial_466_3343)" stroke-width="2"/>
</g>
</g>
<defs>
<filter id="filter0_d_466_3343" x="-13" y="-9" width="616" height="267" filterUnits="userSpaceOnUse" color-interpolation-filters="sRGB">
<feFlood flood-opacity="0" result="BackgroundImageFix"/>
<feColorMatrix in="SourceAlpha" type="matrix" values="0 0 0 0 0 0 0 0 0 0 0 0 0 0 0 0 0 0 127 0" result="hardAlpha"/>
<feOffset dy="4"/>
<feGaussianBlur stdDeviation="6"/>
<feComposite in2="hardAlpha" operator="out"/>
<feColorMatrix type="matrix" values="0 0 0 0 0 0 0 0 0 0 0 0 0 0 0 0 0 0 0.03 0"/>
<feBlend mode="normal" in2="BackgroundImageFix" result="effect1_dropShadow_466_3343"/>
<feBlend mode="normal" in="SourceGraphic" in2="effect1_dropShadow_466_3343" result="shape"/>
</filter>
<linearGradient id="paint0_linear_466_3343" x1="12.9421" y1="17.4003" x2="330.152" y2="400.369" gradientUnits="userSpaceOnUse">
<stop stop-color="white" stop-opacity="0.7"/>
<stop offset="1" stop-color="white"/>
</linearGradient>
<linearGradient id="paint1_linear_466_3343" x1="-409.881" y1="-103.377" x2="895.987" y2="678.302" gradientUnits="userSpaceOnUse">
<stop stop-color="#BDACFF"/>
<stop offset="1" stop-color="#6B47F5"/>
</linearGradient>
<linearGradient id="paint2_linear_466_3343" x1="-409.881" y1="-103.377" x2="895.987" y2="678.302" gradientUnits="userSpaceOnUse">
<stop stop-color="#BDACFF"/>
<stop offset="1" stop-color="#6B47F5"/>
</linearGradient>
<linearGradient id="paint3_linear_466_3343" x1="-409.881" y1="-103.378" x2="895.987" y2="678.301" gradientUnits="userSpaceOnUse">
<stop stop-color="#BDACFF"/>
<stop offset="1" stop-color="#6B47F5"/>
</linearGradient>
<linearGradient id="paint4_linear_466_3343" x1="-409.881" y1="-103.376" x2="895.987" y2="678.303" gradientUnits="userSpaceOnUse">
<stop stop-color="#BDACFF"/>
<stop offset="1" stop-color="#6B47F5"/>
</linearGradient>
<linearGradient id="paint5_linear_466_3343" x1="-409.882" y1="-103.376" x2="895.986" y2="678.303" gradientUnits="userSpaceOnUse">
<stop stop-color="#BDACFF"/>
<stop offset="1" stop-color="#6B47F5"/>
</linearGradient>
<linearGradient id="paint6_linear_466_3343" x1="-409.881" y1="-103.377" x2="895.987" y2="678.302" gradientUnits="userSpaceOnUse">
<stop stop-color="#BDACFF"/>
<stop offset="1" stop-color="#6B47F5"/>
</linearGradient>
<linearGradient id="paint7_linear_466_3343" x1="-409.881" y1="-103.377" x2="895.987" y2="678.302" gradientUnits="userSpaceOnUse">
<stop stop-color="#BDACFF"/>
<stop offset="1" stop-color="#6B47F5"/>
</linearGradient>
<linearGradient id="paint8_linear_466_3343" x1="-409.88" y1="-103.377" x2="895.988" y2="678.302" gradientUnits="userSpaceOnUse">
<stop stop-color="#BDACFF"/>
<stop offset="1" stop-color="#6B47F5"/>
</linearGradient>
<linearGradient id="paint9_linear_466_3343" x1="-409.88" y1="-103.376" x2="895.988" y2="678.303" gradientUnits="userSpaceOnUse">
<stop stop-color="#BDACFF"/>
<stop offset="1" stop-color="#6B47F5"/>
</linearGradient>
<linearGradient id="paint10_linear_466_3343" x1="-409.881" y1="-103.377" x2="895.986" y2="678.302" gradientUnits="userSpaceOnUse">
<stop stop-color="#BDACFF"/>
<stop offset="1" stop-color="#6B47F5"/>
</linearGradient>
<linearGradient id="paint11_linear_466_3343" x1="-409.881" y1="-103.377" x2="895.987" y2="678.302" gradientUnits="userSpaceOnUse">
<stop stop-color="#BDACFF"/>
<stop offset="1" stop-color="#6B47F5"/>
</linearGradient>
<linearGradient id="paint12_linear_466_3343" x1="-409.88" y1="-103.376" x2="895.988" y2="678.303" gradientUnits="userSpaceOnUse">
<stop stop-color="#BDACFF"/>
<stop offset="1" stop-color="#6B47F5"/>
</linearGradient>
<linearGradient id="paint13_linear_466_3343" x1="-409.881" y1="-103.377" x2="895.987" y2="678.302" gradientUnits="userSpaceOnUse">
<stop stop-color="#BDACFF"/>
<stop offset="1" stop-color="#6B47F5"/>
</linearGradient>
<linearGradient id="paint14_linear_466_3343" x1="385" y1="43.584" x2="219.429" y2="132.268" gradientUnits="userSpaceOnUse">
<stop stop-color="#BDACFF"/>
<stop offset="1" stop-color="#6B47F5"/>
</linearGradient>
<linearGradient id="paint15_linear_466_3343" x1="333.565" y1="176.32" x2="307.264" y2="239.31" gradientUnits="userSpaceOnUse">
<stop stop-color="#6B47F5"/>
<stop offset="1" stop-color="#3F3A60"/>
</linearGradient>
<linearGradient id="paint16_linear_466_3343" x1="233.033" y1="190.186" x2="218.72" y2="234.013" gradientUnits="userSpaceOnUse">
<stop stop-color="#6B47F5"/>
<stop offset="1" stop-color="#3F3A60"/>
</linearGradient>
<linearGradient id="paint17_linear_466_3343" x1="333.549" y1="132.047" x2="242.976" y2="210.982" gradientUnits="userSpaceOnUse">
<stop stop-color="#6B47F5"/>
<stop offset="1" stop-color="#3F3A60"/>
</linearGradient>
<linearGradient id="paint18_linear_466_3343" x1="272.059" y1="132.195" x2="250.816" y2="188.014" gradientUnits="userSpaceOnUse">
<stop stop-color="#6B47F5"/>
<stop offset="1" stop-color="#3F3A60"/>
</linearGradient>
<linearGradient id="paint19_linear_466_3343" x1="244.17" y1="159.508" x2="218.234" y2="220.2" gradientUnits="userSpaceOnUse">
<stop stop-color="#6B47F5"/>
<stop offset="1" stop-color="#3F3A60"/>
</linearGradient>
<linearGradient id="paint20_linear_466_3343" x1="242.32" y1="159.508" x2="230.336" y2="201.356" gradientUnits="userSpaceOnUse">
<stop stop-color="#6B47F5"/>
<stop offset="1" stop-color="#3F3A60"/>
</linearGradient>
<linearGradient id="paint21_linear_466_3343" x1="228.63" y1="137.447" x2="206.052" y2="168.615" gradientUnits="userSpaceOnUse">
<stop stop-color="#6B47F5"/>
<stop offset="1" stop-color="#3F3A60"/>
</linearGradient>
<radialGradient id="paint22_radial_466_3343" cx="0" cy="0" r="1" gradientUnits="userSpaceOnUse" gradientTransform="translate(206.114 247.666) rotate(-56.4022) scale(319.701 623.529)">
<stop stop-color="white" stop-opacity="0"/>
<stop offset="1" stop-color="white"/>
</radialGradient>
<clipPath id="clip0_466_3343">
<rect width="590" height="241" fill="white"/>
</clipPath>
</defs>
</svg>
