<svg width="280" height="195" viewBox="0 0 280 195" fill="none" xmlns="http://www.w3.org/2000/svg">
<path d="M276.034 12.584H160.77C158.91 12.584 157.402 14.0918 157.402 15.9518V179.246C157.402 181.106 158.91 182.613 160.77 182.613H276.034C277.895 182.613 279.402 181.106 279.402 179.246V15.9518C279.402 14.0918 277.895 12.584 276.034 12.584Z" fill="url(#paint0_linear_493_6970)"/>
<path opacity="0.3" d="M274.967 29.5391H161.828V176.252H274.967V29.5391Z" fill="black"/>
<path d="M275.177 18.8242H162.039V171.77H275.177V18.8242Z" fill="white"/>
<path d="M261.955 49.8652H174.844V54.5703H261.955V49.8652Z" fill="#E0E0E0"/>
<path d="M261.955 158.004H174.844V162.709H261.955V158.004Z" fill="#E0E0E0"/>
<path d="M261.955 60.9258H174.844V61.3791H261.955V60.9258Z" fill="#263238"/>
<path d="M261.955 68.2031H174.844V68.6564H261.955V68.2031Z" fill="#263238"/>
<path d="M261.955 75.4902H174.844V75.9435H261.955V75.4902Z" fill="#263238"/>
<path d="M261.955 81.877H174.844V82.3302H261.955V81.877Z" fill="#263238"/>
<path d="M238.022 97.6719H174.844V98.1252H238.022V97.6719Z" fill="#263238"/>
<path d="M238.022 104.309H174.844V104.762H238.022V104.309Z" fill="#263238"/>
<path d="M258.069 107.362H246.098V95.4141H258.069V107.362ZM246.574 106.909H257.615V95.8673H246.551L246.574 106.909Z" fill="#263238"/>
<path d="M253.549 105.953L247.258 101.267L248.89 99.0727L253.11 102.214L258.907 95.2969L261.006 97.0556L253.549 105.953Z" fill="#3F3A60"/>
<path d="M238.022 118.311H174.844V118.764H238.022V118.311Z" fill="#263238"/>
<path d="M238.022 124.951H174.844V125.404H238.022V124.951Z" fill="#263238"/>
<path d="M258.069 128.001H246.098V116.053H258.069V128.001ZM246.574 127.548H257.615V116.506H246.551L246.574 127.548Z" fill="#263238"/>
<path d="M253.549 126.59L247.258 121.908L248.89 119.709L253.11 122.851L258.907 115.934L261.006 117.692L253.549 126.59Z" fill="#3F3A60"/>
<path d="M238.022 138.953H174.844V139.406H238.022V138.953Z" fill="#263238"/>
<path d="M238.022 145.588H174.844V146.041H238.022V145.588Z" fill="#263238"/>
<path d="M258.069 148.644H246.098V136.695H258.069V148.644ZM246.574 148.19H257.615V137.149H246.551L246.574 148.19Z" fill="#263238"/>
<path d="M253.549 147.235L247.258 142.548L248.89 140.354L253.11 143.495L258.907 136.578L261.006 138.337L253.549 147.235Z" fill="#3F3A60"/>
<path d="M193.533 33.4102V38.9809H192.078V33.4102H193.533Z" fill="#263238"/>
<path d="M199.007 36.2595V38.9791H197.602V36.6765C197.613 36.5752 197.602 36.4728 197.57 36.376C197.538 36.2793 197.486 36.1905 197.417 36.1158C197.347 36.041 197.263 35.9819 197.169 35.9426C197.075 35.9033 196.974 35.8846 196.872 35.8878C196.652 35.8877 196.441 35.9734 196.284 36.1267C196.126 36.2799 196.035 36.4886 196.029 36.7082V38.9746H194.605V34.6775H196.02V35.3756C196.167 35.1336 196.377 34.9359 196.628 34.8035C196.878 34.671 197.16 34.6087 197.443 34.6231C197.657 34.6132 197.871 34.6492 198.07 34.729C198.27 34.8087 198.449 34.9302 198.597 35.0853C198.746 35.2403 198.859 35.4254 198.93 35.628C199 35.8305 199.026 36.0459 199.007 36.2595Z" fill="#263238"/>
<path d="M201.477 35.5924C201.236 35.5924 201.069 35.6785 201.069 35.8644C201.069 36.4264 203.335 36.159 203.335 37.6503C203.335 38.5568 202.56 39.0328 201.522 39.0328C200.826 39.0472 200.144 38.8322 199.582 38.4208L200.035 37.5143C200.482 37.8367 201.013 38.021 201.563 38.0446C201.826 38.0446 202.016 37.9585 202.016 37.7817C202.016 37.197 199.8 37.4871 199.8 36.0049C199.8 35.0983 200.552 34.6133 201.563 34.6133C202.201 34.611 202.828 34.7834 203.376 35.1119L202.895 36.0185C202.462 35.7679 201.976 35.622 201.477 35.5924Z" fill="#263238"/>
<path d="M208.278 34.6725V38.9696H206.845V38.2715C206.709 38.5095 206.51 38.706 206.271 38.8401C206.031 38.9741 205.76 39.0408 205.485 39.033C205.273 39.04 205.061 39.0013 204.864 38.9195C204.667 38.8377 204.49 38.7147 204.345 38.5588C204.2 38.4029 204.09 38.2177 204.022 38.0157C203.955 37.8137 203.931 37.5995 203.953 37.3876V34.668H205.368V36.9797C205.355 37.0775 205.363 37.1769 205.392 37.2713C205.42 37.3656 205.469 37.4527 205.534 37.5266C205.6 37.6005 205.68 37.6596 205.77 37.6997C205.86 37.7399 205.958 37.7602 206.057 37.7593C206.56 37.7593 206.863 37.3514 206.863 36.7893V34.668L208.278 34.6725Z" fill="#263238"/>
<path d="M212.153 34.6174V35.9092C211.369 35.8321 210.843 36.1812 210.793 36.775V38.9688H209.379V34.6717H210.793V35.3879C210.931 35.1502 211.129 34.9535 211.368 34.8181C211.607 34.6827 211.878 34.6134 212.153 34.6174Z" fill="#263238"/>
<path d="M216.477 36.1726V38.9693H215.085V38.4843C214.929 38.6714 214.73 38.8187 214.505 38.9141C214.281 39.0095 214.037 39.0501 213.793 39.0327C212.887 39.0327 212.32 38.4797 212.32 37.6729C212.32 36.8661 212.901 36.3856 213.966 36.3675H215.085V36.3221C215.085 35.9187 214.809 35.6785 214.269 35.6785C213.821 35.6984 213.382 35.8143 212.982 36.0184L212.592 35.0666C213.219 34.77 213.903 34.6153 214.596 34.6133C215.779 34.6178 216.468 35.1889 216.477 36.1726ZM215.085 37.5324V37.1607H214.242C213.848 37.1607 213.648 37.3058 213.648 37.614C213.648 37.9222 213.861 38.099 214.229 38.099C214.416 38.1109 214.602 38.0599 214.758 37.954C214.913 37.848 215.028 37.6933 215.085 37.5143V37.5324Z" fill="#263238"/>
<path d="M221.827 36.2595V38.9791H220.444V36.6765C220.455 36.5752 220.444 36.4728 220.413 36.376C220.381 36.2793 220.328 36.1905 220.259 36.1158C220.19 36.041 220.105 35.9819 220.011 35.9426C219.917 35.9033 219.816 35.8846 219.714 35.8878C219.495 35.8877 219.284 35.9734 219.126 36.1267C218.969 36.2799 218.877 36.4886 218.871 36.7082V38.9746H217.457V34.6775H218.871V35.3756C219.019 35.1336 219.229 34.9359 219.479 34.8035C219.73 34.671 220.012 34.6087 220.295 34.6231C220.506 34.6178 220.717 34.6573 220.912 34.7391C221.107 34.8208 221.283 34.943 221.428 35.0976C221.572 35.2521 221.683 35.4356 221.752 35.6358C221.82 35.8361 221.846 36.0486 221.827 36.2595Z" fill="#263238"/>
<path d="M224.717 35.79C224.21 35.79 223.861 36.2116 223.861 36.8326C223.861 37.4536 224.21 37.8706 224.717 37.8706C224.89 37.8822 225.063 37.8424 225.213 37.756C225.363 37.6697 225.484 37.5408 225.561 37.3856L226.603 37.9839C226.341 38.3876 225.957 38.6974 225.507 38.8683C225.057 39.0393 224.565 39.0626 224.101 38.9349C223.637 38.8071 223.225 38.5349 222.926 38.1578C222.627 37.7806 222.456 37.318 222.438 36.8371C222.451 36.3571 222.618 35.8939 222.912 35.5144C223.206 35.1349 223.613 34.8587 224.075 34.7255C224.536 34.5924 225.028 34.6093 225.479 34.7737C225.93 34.9382 226.317 35.2417 226.585 35.6404L225.561 36.2342C225.469 36.0951 225.344 35.9814 225.196 35.9038C225.049 35.8261 224.884 35.787 224.717 35.79Z" fill="#263238"/>
<path d="M231.197 37.1963H228.21C228.259 37.4172 228.384 37.614 228.563 37.7523C228.741 37.8907 228.963 37.9618 229.189 37.9533C229.379 37.9493 229.566 37.9071 229.739 37.8292C229.912 37.7513 230.067 37.6394 230.196 37.5L230.934 38.2434C230.696 38.498 230.405 38.6979 230.082 38.8293C229.759 38.9608 229.411 39.0207 229.062 39.0049C227.653 39.0049 226.796 38.1391 226.796 36.8246C226.78 36.527 226.827 36.2294 226.935 35.9514C227.042 35.6733 227.207 35.4213 227.419 35.2118C227.631 35.0023 227.886 34.8402 228.165 34.7361C228.444 34.6321 228.742 34.5884 229.04 34.6081C230.531 34.6217 231.293 35.6325 231.197 37.1963ZM229.838 36.4439C229.846 36.3359 229.831 36.2274 229.795 36.1254C229.759 36.0234 229.701 35.9303 229.626 35.852C229.551 35.7737 229.461 35.7121 229.361 35.6712C229.26 35.6302 229.153 35.6109 229.044 35.6144C228.825 35.6246 228.616 35.7144 228.458 35.867C228.299 36.0196 228.202 36.2247 228.183 36.4439H229.838Z" fill="#263238"/>
<path d="M239.003 35.3567C239.003 36.6667 238.187 37.4282 236.764 37.4282H235.771V38.9693H234.316V33.4121H236.764C238.187 33.4121 239.003 34.1147 239.003 35.3567ZM237.621 35.402C237.621 34.8535 237.281 34.5589 236.692 34.5589H235.785V36.2678H236.692C236.812 36.2859 236.936 36.2765 237.052 36.2404C237.169 36.2042 237.276 36.1422 237.365 36.059C237.454 35.9758 237.524 35.8735 237.568 35.7597C237.612 35.646 237.63 35.5237 237.621 35.402Z" fill="#263238"/>
<path d="M244.063 36.815C244.063 38.1431 243.125 39.0179 241.711 39.0179C240.296 39.0179 239.367 38.1431 239.367 36.815C239.367 35.4869 240.296 34.6211 241.711 34.6211C243.125 34.6211 244.063 35.4959 244.063 36.815ZM240.79 36.815C240.816 36.993 240.892 37.1599 241.01 37.2957C241.128 37.4314 241.282 37.5302 241.455 37.5803C241.628 37.6303 241.811 37.6293 241.984 37.5776C242.156 37.5258 242.309 37.4255 242.426 37.2885C242.543 37.1516 242.617 36.9839 242.641 36.8056C242.664 36.6274 242.636 36.4461 242.559 36.2836C242.482 36.1211 242.36 35.9843 242.207 35.8896C242.054 35.7949 241.877 35.7463 241.697 35.7498C241.564 35.7541 241.433 35.7865 241.313 35.8449C241.193 35.9033 241.087 35.9864 241.001 36.0886C240.916 36.1909 240.853 36.3101 240.816 36.4383C240.78 36.5666 240.771 36.7012 240.79 36.8331V36.815Z" fill="#263238"/>
<path d="M246.243 33.0703V38.9629H244.824V33.0703H246.243Z" fill="#263238"/>
<path d="M248.768 34.6714V38.9685H247.363V34.6714H248.768ZM248.714 33.4611C248.713 33.5882 248.675 33.7122 248.603 33.8175C248.532 33.9227 248.431 34.0045 248.314 34.0525C248.196 34.1006 248.067 34.1127 247.942 34.0873C247.818 34.062 247.703 34.0003 247.614 33.9101C247.524 33.8199 247.463 33.7052 247.439 33.5805C247.414 33.4558 247.427 33.3266 247.476 33.2092C247.525 33.0919 247.608 32.9916 247.713 32.9211C247.819 32.8506 247.943 32.8129 248.07 32.8129C248.156 32.8097 248.242 32.8243 248.322 32.8558C248.401 32.8873 248.474 32.935 248.534 32.9959C248.595 33.0568 248.642 33.1296 248.673 33.2097C248.704 33.2898 248.718 33.3754 248.714 33.4611Z" fill="#263238"/>
<path d="M251.784 35.7907C251.272 35.7907 250.923 36.2123 250.923 36.8332C250.923 37.4542 251.272 37.8713 251.784 37.8713C251.956 37.882 252.128 37.8417 252.277 37.7554C252.426 37.6691 252.546 37.5407 252.623 37.3862L253.665 37.9846C253.403 38.3883 253.019 38.6981 252.569 38.869C252.12 39.04 251.627 39.0633 251.163 38.9356C250.699 38.8078 250.287 38.5356 249.988 38.1585C249.689 37.7813 249.518 37.3187 249.5 36.8378C249.482 36.5414 249.528 36.2448 249.634 35.9674C249.74 35.6901 249.903 35.4383 250.114 35.2289C250.324 35.0194 250.577 34.8569 250.854 34.7521C251.132 34.6474 251.429 34.6028 251.725 34.6212C252.108 34.602 252.49 34.6866 252.829 34.8662C253.168 35.0457 253.452 35.3134 253.652 35.6411L252.627 36.2349C252.536 36.0955 252.411 35.9816 252.263 35.9039C252.116 35.8262 251.951 35.7872 251.784 35.7907Z" fill="#263238"/>
<path d="M254.953 40.5729C254.489 40.5771 254.039 40.4164 253.684 40.1196L254.268 39.145C254.424 39.2926 254.629 39.3766 254.844 39.3807C254.953 39.3844 255.06 39.3552 255.153 39.297C255.245 39.2388 255.317 39.1543 255.361 39.0544L255.46 38.8595L253.684 34.6621H255.139L256.163 37.4906L257.07 34.6938H258.479L256.634 39.4125C256.52 39.7633 256.293 40.0668 255.989 40.2764C255.686 40.486 255.321 40.5901 254.953 40.5729Z" fill="#263238"/>
<path d="M185.101 30.9492H176.856C175.745 30.9492 174.844 31.8503 174.844 32.9618V41.2069C174.844 42.3184 175.745 43.2195 176.856 43.2195H185.101C186.213 43.2195 187.114 42.3184 187.114 41.2069V32.9618C187.114 31.8503 186.213 30.9492 185.101 30.9492Z" fill="#3F3A60"/>
<path d="M180.98 36.8659C181.976 36.8659 182.784 36.0582 182.784 35.0619C182.784 34.0655 181.976 33.2578 180.98 33.2578C179.983 33.2578 179.176 34.0655 179.176 35.0619C179.176 36.0582 179.983 36.8659 180.98 36.8659Z" fill="white"/>
<path d="M180.983 37.25C180.011 37.2512 179.079 37.6381 178.393 38.3256C177.706 39.0132 177.32 39.9453 177.32 40.917H184.636C184.636 39.9468 184.252 39.0162 183.567 38.3288C182.882 37.6415 181.953 37.2536 180.983 37.25Z" fill="white"/>
<path d="M237.752 9.64062H199.051V24.2362H237.752V9.64062Z" fill="#263238"/>
<path d="M230.652 11.1144H208.025L205.5 0H233.753L230.652 11.1144Z" fill="#263238"/>
<path opacity="0.3" d="M231.439 0C231.416 0.0679918 228.424 9.51885 228.501 9.51885H231.067L233.787 0H231.439Z" fill="black"/>
<path opacity="0.3" d="M235.254 9.64062C235.254 9.64062 235.069 24.2362 235.254 24.2362H237.752V9.64062H235.254Z" fill="black"/>
<path d="M227.967 176.938H126.531V145.32H215.943L224.288 152.102C225.441 153.038 226.37 154.221 227.007 155.563C227.644 156.905 227.972 158.372 227.967 159.858V176.938Z" fill="url(#paint1_linear_493_6970)"/>
<path opacity="0.5" d="M227.967 176.938H126.531V145.32H215.943L224.288 152.102C225.441 153.038 226.37 154.221 227.007 155.563C227.644 156.905 227.972 158.372 227.967 159.858V176.938Z" fill="black"/>
<path d="M125.948 174.087C125.948 162.547 131.196 153.193 137.611 153.193H125.237C118.782 153.193 113.574 162.523 113.574 174.087C113.574 185.651 118.822 194.986 125.237 194.986H137.634C131.167 194.986 125.948 185.627 125.948 174.087Z" fill="#263238"/>
<path d="M137.635 194.981C144.089 194.981 149.321 185.626 149.321 174.087C149.321 162.548 144.089 153.193 137.635 153.193C131.181 153.193 125.949 162.548 125.949 174.087C125.949 185.626 131.181 194.981 137.635 194.981Z" fill="#263238"/>
<path d="M138.571 190.378C143.148 190.378 146.858 183.084 146.858 174.086C146.858 165.087 143.148 157.793 138.571 157.793C133.995 157.793 130.285 165.087 130.285 174.086C130.285 183.084 133.995 190.378 138.571 190.378Z" fill="white"/>
<path d="M58.5889 174.087C58.5889 162.547 63.8371 153.193 70.2516 153.193H57.8775C51.4222 153.193 46.2148 162.523 46.2148 174.087C46.2148 185.651 51.463 194.986 57.8775 194.986H70.2749C63.8196 194.986 58.5889 185.627 58.5889 174.087Z" fill="#263238"/>
<path d="M70.2758 194.981C76.7298 194.981 81.9618 185.626 81.9618 174.087C81.9618 162.548 76.7298 153.193 70.2758 153.193C63.8218 153.193 58.5898 162.548 58.5898 174.087C58.5898 185.626 63.8218 194.981 70.2758 194.981Z" fill="#263238"/>
<path d="M206.03 174.087C206.03 162.547 211.279 153.193 217.693 153.193H205.319C198.869 153.193 193.656 162.523 193.656 174.087C193.656 185.651 198.904 194.986 205.319 194.986H217.716C211.267 194.986 206.03 185.627 206.03 174.087Z" fill="#263238"/>
<path d="M217.717 194.981C224.171 194.981 229.403 185.626 229.403 174.087C229.403 162.548 224.171 153.193 217.717 153.193C211.263 153.193 206.031 162.548 206.031 174.087C206.031 185.626 211.263 194.981 217.717 194.981Z" fill="#263238"/>
<path d="M218.661 190.378C223.238 190.378 226.948 183.084 226.948 174.086C226.948 165.087 223.238 157.793 218.661 157.793C214.085 157.793 210.375 165.087 210.375 174.086C210.375 183.084 214.085 190.378 218.661 190.378Z" fill="white"/>
<path d="M112.139 179.918H97.147L96.3073 179.101C95.4448 178.237 94.2744 177.751 93.0534 177.749H55.5813C54.3602 177.751 53.1898 178.237 52.3274 179.101L51.8142 179.609H50.4497C49.3895 179.609 48.3397 179.399 47.3607 178.992C46.3817 178.585 45.4927 177.989 44.7449 177.237C43.9972 176.486 43.4053 175.594 43.0033 174.613C42.6012 173.632 42.3971 172.581 42.4024 171.521V159.188H127.435L120.671 173.894C120.047 175.658 118.891 177.184 117.363 178.263C115.835 179.342 114.01 179.92 112.139 179.918Z" fill="url(#paint2_linear_493_6970)"/>
<path opacity="0.2" d="M112.139 179.918H97.147L96.3073 179.101C95.4448 178.237 94.2744 177.751 93.0534 177.749H55.5813C54.3602 177.751 53.1898 178.237 52.3274 179.101L51.8142 179.609H50.4497C49.3895 179.609 48.3397 179.399 47.3607 178.992C46.3817 178.585 45.4927 177.989 44.7449 177.237C43.9972 176.486 43.4053 175.594 43.0033 174.613C42.6012 173.632 42.3971 172.581 42.4024 171.521V159.188H127.435L120.671 173.894C120.047 175.658 118.891 177.184 117.363 178.263C115.835 179.342 114.01 179.92 112.139 179.918Z" fill="black"/>
<path d="M200.651 106.606C200.6 106.607 200.549 106.593 200.505 106.566C200.472 106.547 200.443 106.522 200.419 106.491C200.396 106.461 200.379 106.427 200.369 106.39C200.359 106.353 200.357 106.314 200.362 106.276C200.368 106.238 200.381 106.202 200.4 106.169L204.482 99.1715C204.499 99.1343 204.523 99.1011 204.554 99.0739C204.584 99.0468 204.62 99.0263 204.659 99.0139C204.698 99.0014 204.739 98.9973 204.779 99.0017C204.82 99.0061 204.859 99.019 204.894 99.0395C204.93 99.06 204.96 99.0877 204.984 99.1207C205.008 99.1538 205.025 99.1915 205.033 99.2314C205.042 99.2714 205.042 99.3126 205.033 99.3525C205.025 99.3924 205.008 99.4301 204.984 99.463L200.902 106.461C200.876 106.505 200.84 106.541 200.796 106.567C200.752 106.593 200.702 106.606 200.651 106.606Z" fill="#263238"/>
<path d="M222.185 141.42V133.466C222.185 129.285 216.108 109.558 207.752 105.861C199.396 102.164 179.179 100.519 166.443 101.196C153.707 101.872 136.703 128.51 136.703 128.51L138.552 151.415C141.141 151.415 149.386 150.634 150.593 173.294C150.674 174.892 151.367 176.397 152.527 177.498C153.688 178.599 155.227 179.211 156.827 179.207H201.413C202.911 179.206 204.358 178.664 205.488 177.68C206.617 176.696 207.353 175.337 207.56 173.854C208.726 165.778 211.77 151.398 219.111 151.398C224.261 151.398 227.952 155.806 227.952 160.862C227.953 155.307 226.604 149.836 224.021 144.919L222.185 141.42Z" fill="url(#paint3_linear_493_6970)"/>
<path d="M119.787 101.195C96.5963 101.195 70.3203 128.509 70.3203 128.509H136.722C136.722 128.509 153.708 101.878 166.461 101.195H119.787Z" fill="url(#paint4_linear_493_6970)"/>
<path opacity="0.4" d="M121.214 101.195C101.679 101.195 81.1873 120.579 75.2102 126.684C75.0617 126.835 74.9612 127.027 74.9214 127.235C74.8817 127.443 74.9044 127.658 74.9867 127.853C75.069 128.048 75.2072 128.215 75.384 128.332C75.5608 128.448 75.7681 128.51 75.9799 128.509H129.547C131.703 128.515 133.83 128.013 135.755 127.042C137.68 126.071 139.349 124.66 140.626 122.923C146.387 115.074 157.484 101.679 166.465 101.195H121.214Z" fill="white"/>
<path d="M136.724 128.508L112.198 147.862L46.1927 147.652C46.1927 147.652 42.4023 153.163 42.4023 159.186H127.435C128.828 155.495 133.715 151.413 138.573 151.413C138.573 144.544 136.724 128.508 136.724 128.508Z" fill="url(#paint5_linear_493_6970)"/>
<path opacity="0.2" d="M120.671 142.159C120.601 142.159 120.534 142.133 120.482 142.087C120.429 142.041 120.395 141.978 120.385 141.909C120.375 141.833 120.395 141.757 120.441 141.695C120.487 141.634 120.555 141.594 120.63 141.582C126.518 140.628 132.027 138.065 136.55 134.176C137.444 133.424 138.026 132.366 138.182 131.208C138.339 130.05 138.058 128.876 137.395 127.914C137.371 127.882 137.353 127.846 137.344 127.808C137.334 127.77 137.332 127.73 137.338 127.691C137.344 127.652 137.357 127.614 137.378 127.581C137.399 127.547 137.427 127.518 137.459 127.496C137.492 127.473 137.529 127.457 137.567 127.449C137.606 127.441 137.646 127.441 137.685 127.449C137.724 127.457 137.76 127.473 137.793 127.496C137.825 127.519 137.853 127.548 137.874 127.581C138.617 128.663 138.931 129.983 138.755 131.284C138.58 132.584 137.927 133.774 136.923 134.62C132.321 138.58 126.712 141.188 120.718 142.154L120.671 142.159Z" fill="black"/>
<path d="M46.1914 147.652C46.1914 147.652 57.7841 134.141 70.3215 128.508H136.723L112.196 147.862L46.1914 147.652Z" fill="url(#paint6_linear_493_6970)"/>
<path d="M97.5386 147.652H53.9961V148.918H97.5386V147.652Z" fill="#263238"/>
<path d="M96.6331 145.122L98.9656 142.79C99.4901 142.266 100.154 141.904 100.878 141.746L118.495 137.909C119.114 137.774 119.757 137.794 120.367 137.967L121.311 138.23C121.94 138.407 122.514 138.74 122.979 139.199C123.445 139.658 123.786 140.227 123.973 140.853C124.159 141.479 124.184 142.142 124.045 142.781C123.906 143.419 123.607 144.012 123.177 144.504L119.387 148.837C118.733 149.582 117.82 150.05 116.833 150.143L99.7295 151.694C99.1646 151.748 98.5947 151.677 98.0605 151.485C97.5263 151.294 97.0409 150.987 96.6389 150.586C95.9156 149.861 95.5089 148.88 95.5078 147.856C95.5067 146.831 95.9113 145.849 96.6331 145.122Z" fill="white"/>
<path d="M55.2272 146.358L53.297 142.749C53.0252 142.243 52.6224 141.82 52.1307 141.524C51.6637 141.244 51.1325 141.089 50.5881 141.074C50.0438 141.058 49.5046 141.183 49.0226 141.437L47.559 142.206C46.8401 142.587 46.2936 143.227 46.0311 143.997L45.139 146.638C44.9906 147.073 44.9383 147.535 44.9857 147.992C45.0331 148.449 45.1791 148.891 45.4136 149.286C45.648 149.681 45.9654 150.021 46.3439 150.281C46.7223 150.542 47.1528 150.718 47.6056 150.796L51.6351 151.49C52.2923 151.604 52.9686 151.508 53.5683 151.216C54.168 150.924 54.6606 150.45 54.9764 149.863L55.2446 149.367C55.4915 148.904 55.6192 148.386 55.6162 147.861C55.6131 147.335 55.4794 146.819 55.2272 146.358Z" fill="white"/>
<path opacity="0.4" d="M150.288 129.284H211.68C212.201 129.284 212.714 129.163 213.179 128.929C213.644 128.696 214.048 128.357 214.359 127.939C214.669 127.521 214.878 127.037 214.968 126.524C215.057 126.011 215.026 125.485 214.876 124.986C213.476 120.321 210.794 113.026 206.765 109.306C206.317 108.896 205.767 108.614 205.173 108.49C197.936 106.956 186.302 105.935 177.672 105.341C173.76 105.073 169.837 105.656 166.172 107.049C162.506 108.442 159.186 110.613 156.44 113.411C153.156 116.728 150.191 120.346 147.582 124.217C147.255 124.707 147.068 125.277 147.039 125.866C147.01 126.454 147.142 127.04 147.419 127.56C147.697 128.08 148.11 128.515 148.616 128.818C149.121 129.122 149.699 129.283 150.288 129.284Z" fill="white"/>
<path d="M110.595 166.022C110.595 167.935 108.635 169.492 106.221 169.492C103.807 169.492 101.848 167.935 101.848 166.022C101.848 164.11 103.801 162.559 106.221 162.559C108.641 162.559 110.595 164.11 110.595 166.022Z" fill="#263238"/>
<path d="M75.3563 145.006C76.7909 145.006 77.4906 146.475 76.9191 148.283C76.3477 150.091 74.7266 151.566 73.2862 151.566C71.8459 151.566 71.152 150.097 71.7234 148.283C72.2949 146.47 73.9218 145.006 75.3563 145.006Z" fill="#263238"/>
<path d="M45.9315 166.022C45.9315 167.935 45.3484 169.492 44.7011 169.492C44.0538 169.492 43.4648 167.935 43.4648 166.022C43.4648 164.11 44.048 162.559 44.7011 162.559C45.3542 162.559 45.9315 164.11 45.9315 166.022Z" fill="#263238"/>
<path d="M148.398 128.731V126.765C148.398 126.202 148.523 125.645 148.765 125.135C149.007 124.626 149.359 124.177 149.797 123.821C150.234 123.465 150.746 123.211 151.294 123.078C151.842 122.945 152.412 122.936 152.964 123.051L160.44 124.608C161.294 124.786 162.06 125.252 162.61 125.929C163.16 126.605 163.46 127.451 163.461 128.322V128.731C163.461 129.736 163.062 130.701 162.351 131.413C161.64 132.125 160.676 132.525 159.67 132.527H152.195C151.188 132.527 150.222 132.127 149.51 131.415C148.798 130.703 148.398 129.737 148.398 128.731Z" fill="#263238"/>
<path d="M187.731 106.157C187.731 106.157 186.734 106.058 184.996 105.906C192.682 121.651 190.722 129.284 190.722 129.284H196.589C196.647 119.697 187.731 106.157 187.731 106.157Z" fill="#263238"/>
<path opacity="0.2" d="M122.912 122.234C122.793 123.472 122.218 124.621 121.299 125.457C120.379 126.294 119.181 126.758 117.938 126.76H87.7141C85.5099 126.76 84.711 124.299 86.3088 122.468C89.1919 119.185 92.3228 116.128 95.6739 113.324C101.365 108.531 108.433 106.041 115.04 106.502L117.536 106.682C118.613 106.766 119.634 107.196 120.447 107.907C121.261 108.619 121.822 109.574 122.049 110.63C122.931 114.431 123.222 118.345 122.912 122.234Z" fill="url(#paint7_linear_493_6970)"/>
<path opacity="0.2" d="M191.424 175.061C191.347 175.061 191.273 175.031 191.218 174.976C191.164 174.921 191.133 174.847 191.133 174.77C191.133 168.869 194.142 144.534 194.929 140.89C195.693 137.35 195.693 133.397 194.929 130.825C194.907 130.751 194.916 130.671 194.953 130.603C194.99 130.535 195.053 130.485 195.127 130.463C195.201 130.443 195.281 130.453 195.348 130.49C195.415 130.527 195.466 130.588 195.489 130.662C196.276 133.321 196.276 137.385 195.489 141.012C194.702 144.639 191.704 168.892 191.704 174.77C191.704 174.845 191.675 174.918 191.623 174.972C191.571 175.026 191.5 175.058 191.424 175.061Z" fill="black"/>
<path opacity="0.2" d="M190.646 141.199H183.538C183.403 141.203 183.269 141.177 183.146 141.121C183.023 141.065 182.915 140.982 182.829 140.878C182.743 140.774 182.683 140.651 182.652 140.52C182.621 140.388 182.621 140.252 182.652 140.12L182.797 139.298C182.856 139.002 183.013 138.735 183.243 138.539C183.472 138.343 183.761 138.23 184.063 138.219H191.171C191.306 138.215 191.44 138.242 191.563 138.297C191.686 138.353 191.794 138.436 191.88 138.54C191.966 138.645 192.026 138.767 192.057 138.898C192.088 139.03 192.088 139.167 192.058 139.298L191.912 140.12C191.853 140.416 191.696 140.684 191.466 140.879C191.237 141.075 190.948 141.188 190.646 141.199Z" fill="black"/>
<g filter="url(#filter0_d_493_6970)">
<rect x="89.6484" y="23" width="48" height="48" rx="8" transform="rotate(8.68421 89.6484 23)" fill="url(#paint8_linear_493_6970)" shape-rendering="crispEdges"/>
<path d="M110.354 46.3926L109.347 52.9828" stroke="#F9FAFB" stroke-linecap="round" stroke-linejoin="round"/>
<path d="M107.856 62.751L99.8689 61.531C95.2953 60.8324 93.8834 57.2717 96.7077 53.6163L101.951 46.837L106.889 40.4695C109.882 36.597 113.73 37.1848 115.43 41.7741L118.24 49.3384L121.221 57.374C122.826 61.7059 120.402 64.6807 115.842 63.9841L107.854 62.7641L107.856 62.751Z" stroke="#F9FAFB" stroke-linecap="round" stroke-linejoin="round"/>
<path d="M108.736 56.9375L108.748 56.9393" stroke="#F9FAFB" stroke-linecap="round" stroke-linejoin="round"/>
</g>
<g filter="url(#filter1_d_493_6970)">
<rect x="12" y="84.1484" width="32" height="32" rx="6.30538" transform="rotate(-14.8917 12 84.1484)" fill="url(#paint9_linear_493_6970)" shape-rendering="crispEdges"/>
<path d="M25.5297 94.9334L24.9896 92.9022C24.0956 89.5406 24.3847 86.5385 29.4627 85.1882C34.5407 83.8378 36.2828 86.2997 37.1768 89.6613L37.7169 91.6925" stroke="#F9FAFB" stroke-width="0.788172" stroke-linecap="round" stroke-linejoin="round"/>
<path d="M33.9206 101.944C35.3229 101.571 36.1573 100.132 35.7844 98.7297C35.4115 97.3274 33.9725 96.4929 32.5703 96.8658C31.168 97.2387 30.3335 98.6778 30.7064 100.08C31.0793 101.482 32.5184 102.317 33.9206 101.944Z" stroke="#F9FAFB" stroke-width="0.788172" stroke-linecap="round" stroke-linejoin="round"/>
<path d="M39.9436 104.15L29.7876 106.851C25.7252 107.931 24.4396 107.185 23.3593 103.123L22.8191 101.092C21.7388 97.0293 22.4844 95.7436 26.5468 94.6633L36.7028 91.9626C40.7652 90.8823 42.0508 91.6278 43.1311 95.6902L43.6713 97.7214C44.7516 101.784 44.006 103.069 39.9436 104.15Z" stroke="#F9FAFB" stroke-width="0.788172" stroke-linecap="round" stroke-linejoin="round"/>
</g>
<defs>
<filter id="filter0_d_493_6970" x="66.4004" y="12" width="86.6973" height="86.6973" filterUnits="userSpaceOnUse" color-interpolation-filters="sRGB">
<feFlood flood-opacity="0" result="BackgroundImageFix"/>
<feColorMatrix in="SourceAlpha" type="matrix" values="0 0 0 0 0 0 0 0 0 0 0 0 0 0 0 0 0 0 127 0" result="hardAlpha"/>
<feOffset dy="5"/>
<feGaussianBlur stdDeviation="8"/>
<feComposite in2="hardAlpha" operator="out"/>
<feColorMatrix type="matrix" values="0 0 0 0 0 0 0 0 0 0 0 0 0 0 0 0 0 0 0.3 0"/>
<feBlend mode="normal" in2="BackgroundImageFix" result="effect1_dropShadow_493_6970"/>
<feBlend mode="normal" in="SourceGraphic" in2="effect1_dropShadow_493_6970" result="shape"/>
</filter>
<filter id="filter1_d_493_6970" x="-0.61076" y="67.2539" width="64.37" height="64.3719" filterUnits="userSpaceOnUse" color-interpolation-filters="sRGB">
<feFlood flood-opacity="0" result="BackgroundImageFix"/>
<feColorMatrix in="SourceAlpha" type="matrix" values="0 0 0 0 0 0 0 0 0 0 0 0 0 0 0 0 0 0 127 0" result="hardAlpha"/>
<feOffset dy="3.94086"/>
<feGaussianBlur stdDeviation="6.30538"/>
<feComposite in2="hardAlpha" operator="out"/>
<feColorMatrix type="matrix" values="0 0 0 0 0 0 0 0 0 0 0 0 0 0 0 0 0 0 0.3 0"/>
<feBlend mode="normal" in2="BackgroundImageFix" result="effect1_dropShadow_493_6970"/>
<feBlend mode="normal" in="SourceGraphic" in2="effect1_dropShadow_493_6970" result="shape"/>
</filter>
<linearGradient id="paint0_linear_493_6970" x1="279.402" y1="12.584" x2="113.832" y2="101.268" gradientUnits="userSpaceOnUse">
<stop stop-color="#BDACFF"/>
<stop offset="1" stop-color="#6B47F5"/>
</linearGradient>
<linearGradient id="paint1_linear_493_6970" x1="227.967" y1="145.32" x2="201.666" y2="208.31" gradientUnits="userSpaceOnUse">
<stop stop-color="#6B47F5"/>
<stop offset="1" stop-color="#3F3A60"/>
</linearGradient>
<linearGradient id="paint2_linear_493_6970" x1="127.435" y1="159.187" x2="113.122" y2="203.014" gradientUnits="userSpaceOnUse">
<stop stop-color="#6B47F5"/>
<stop offset="1" stop-color="#3F3A60"/>
</linearGradient>
<linearGradient id="paint3_linear_493_6970" x1="227.952" y1="101.047" x2="137.378" y2="179.982" gradientUnits="userSpaceOnUse">
<stop stop-color="#6B47F5"/>
<stop offset="1" stop-color="#3F3A60"/>
</linearGradient>
<linearGradient id="paint4_linear_493_6970" x1="166.461" y1="101.195" x2="145.218" y2="157.014" gradientUnits="userSpaceOnUse">
<stop stop-color="#6B47F5"/>
<stop offset="1" stop-color="#3F3A60"/>
</linearGradient>
<linearGradient id="paint5_linear_493_6970" x1="138.573" y1="128.508" x2="112.637" y2="189.2" gradientUnits="userSpaceOnUse">
<stop stop-color="#6B47F5"/>
<stop offset="1" stop-color="#3F3A60"/>
</linearGradient>
<linearGradient id="paint6_linear_493_6970" x1="136.723" y1="128.508" x2="124.738" y2="170.356" gradientUnits="userSpaceOnUse">
<stop stop-color="#6B47F5"/>
<stop offset="1" stop-color="#3F3A60"/>
</linearGradient>
<linearGradient id="paint7_linear_493_6970" x1="123.032" y1="106.447" x2="100.455" y2="137.615" gradientUnits="userSpaceOnUse">
<stop stop-color="#6B47F5"/>
<stop offset="1" stop-color="#3F3A60"/>
</linearGradient>
<linearGradient id="paint8_linear_493_6970" x1="137.648" y1="23" x2="83.8154" y2="63.1861" gradientUnits="userSpaceOnUse">
<stop stop-color="#6B47F5"/>
<stop offset="1" stop-color="#3F3A60"/>
</linearGradient>
<linearGradient id="paint9_linear_493_6970" x1="44" y1="84.1484" x2="8.11132" y2="110.939" gradientUnits="userSpaceOnUse">
<stop stop-color="#6B47F5"/>
<stop offset="1" stop-color="#3F3A60"/>
</linearGradient>
</defs>
</svg>
