<svg width="324" height="324" viewBox="0 0 324 324" fill="none" xmlns="http://www.w3.org/2000/svg">
<path opacity="0.4" d="M28.0392 248.158C26.6757 244.864 26.6757 241.136 28.0392 237.842C28.7277 236.181 29.7138 234.697 30.9693 233.442L71.4561 192.955C76.7346 187.677 85.2674 187.677 90.5459 192.955C95.8244 198.234 95.8244 206.766 90.5459 212.045L73.0909 229.5H243.001C257.892 229.5 270.001 217.391 270.001 202.5V162C270.001 154.548 276.036 148.5 283.501 148.5C290.967 148.5 297.001 154.548 297.001 162V202.5C297.001 232.281 272.782 256.5 243.001 256.5H73.0909L90.5459 273.955C95.8244 279.234 95.8244 287.766 90.5459 293.045C87.9134 295.677 84.457 297 81.001 297C77.545 297 74.0886 295.677 71.4561 293.045L30.9693 252.558C29.7138 251.303 28.7277 249.819 28.0392 248.158Z" fill="url(#paint0_linear_542_4915)"/>
<path d="M81 67.4999H250.91L233.455 50.0448C228.177 44.7663 228.177 36.2335 233.455 30.955C238.734 25.6765 247.266 25.6765 252.545 30.955L293.032 71.4418C294.287 72.6973 295.273 74.1813 295.962 75.8418C297.325 79.1358 297.325 82.864 295.962 86.158C295.273 87.8185 294.287 89.3025 293.032 90.558L252.545 131.045C249.912 133.677 246.456 135 243 135C239.544 135 236.088 133.677 233.455 131.045C228.177 125.766 228.177 117.233 233.455 111.955L250.91 94.4999H81C66.1095 94.4999 54 106.609 54 121.5V162C54 169.452 47.9655 175.5 40.5 175.5C33.0345 175.5 27 169.452 27 162V121.5C27 91.7189 51.219 67.4999 81 67.4999Z" fill="url(#paint1_linear_542_4915)"/>
<path d="M291.973 218.031H148.77V173.395H274.997L286.778 182.969C288.406 184.29 289.718 185.96 290.617 187.854C291.516 189.749 291.979 191.821 291.973 193.918V218.031Z" fill="url(#paint2_linear_542_4915)"/>
<path opacity="0.5" d="M291.973 218.031H148.77V173.395H274.997L286.778 182.969C288.406 184.29 289.718 185.96 290.617 187.854C291.516 189.749 291.979 191.821 291.973 193.918V218.031Z" fill="black"/>
<path d="M147.946 214.005C147.946 197.713 155.355 184.508 164.411 184.508H146.941C137.828 184.508 130.477 197.68 130.477 214.005C130.477 230.329 137.886 243.51 146.941 243.51H164.444C155.314 243.51 147.946 230.297 147.946 214.005Z" fill="#263238"/>
<path d="M164.447 243.501C173.558 243.501 180.945 230.295 180.945 214.005C180.945 197.714 173.558 184.508 164.447 184.508C155.336 184.508 147.949 197.714 147.949 214.005C147.949 230.295 155.336 243.501 164.447 243.501Z" fill="#263238"/>
<path d="M165.769 237.007C172.229 237.007 177.467 226.709 177.467 214.005C177.467 201.302 172.229 191.004 165.769 191.004C159.308 191.004 154.07 201.302 154.07 214.005C154.07 226.709 159.308 237.007 165.769 237.007Z" fill="white"/>
<path d="M52.852 214.005C52.852 197.713 60.2612 184.508 69.3169 184.508H51.8477C42.7344 184.508 35.3828 197.68 35.3828 214.005C35.3828 230.329 42.792 243.51 51.8477 243.51H69.3498C60.2365 243.51 52.852 230.297 52.852 214.005Z" fill="#263238"/>
<path d="M69.3493 243.501C78.4608 243.501 85.8471 230.295 85.8471 214.005C85.8471 197.714 78.4608 184.508 69.3493 184.508C60.2379 184.508 52.8516 197.714 52.8516 214.005C52.8516 230.295 60.2379 243.501 69.3493 243.501Z" fill="#263238"/>
<path d="M261.004 214.005C261.004 197.713 268.414 184.508 277.469 184.508H260C250.895 184.508 243.535 197.68 243.535 214.005C243.535 230.329 250.944 243.51 260 243.51H277.502C268.397 243.51 261.004 230.297 261.004 214.005Z" fill="#263238"/>
<path d="M277.502 243.501C286.613 243.501 293.999 230.295 293.999 214.005C293.999 197.714 286.613 184.508 277.502 184.508C268.39 184.508 261.004 197.714 261.004 214.005C261.004 230.295 268.39 243.501 277.502 243.501Z" fill="#263238"/>
<path d="M278.835 237.005C285.296 237.005 290.533 226.707 290.533 214.003C290.533 201.3 285.296 191.002 278.835 191.002C272.374 191.002 267.137 201.3 267.137 214.003C267.137 226.707 272.374 237.005 278.835 237.005Z" fill="white"/>
<path d="M128.452 222.235H107.286L106.101 221.082C104.883 219.862 103.231 219.175 101.507 219.173H48.6054C46.8816 219.175 45.2293 219.862 44.0117 221.082L43.2873 221.799H41.3609C39.8641 221.799 38.3821 221.503 37 220.928C35.6179 220.354 34.3629 219.512 33.3072 218.451C32.2515 217.39 31.4159 216.131 30.8483 214.746C30.2808 213.361 29.9926 211.877 30.0001 210.38V192.969H150.045L140.496 213.731C139.615 216.22 137.984 218.375 135.826 219.898C133.669 221.422 131.092 222.238 128.452 222.235Z" fill="url(#paint3_linear_542_4915)"/>
<path opacity="0.2" d="M128.452 222.235H107.286L106.101 221.082C104.883 219.862 103.231 219.175 101.507 219.173H48.6054C46.8816 219.175 45.2293 219.862 44.0117 221.082L43.2873 221.799H41.3609C39.8641 221.799 38.3821 221.503 37 220.928C35.6179 220.354 34.3629 219.512 33.3072 218.451C32.2515 217.39 31.4159 216.131 30.8483 214.746C30.2808 213.361 29.9926 211.877 30.0001 210.38V192.969H150.045L140.496 213.731C139.615 216.22 137.984 218.375 135.826 219.898C133.669 221.422 131.092 222.238 128.452 222.235Z" fill="black"/>
<path d="M253.408 118.738C253.335 118.74 253.264 118.72 253.202 118.681C253.155 118.654 253.114 118.619 253.081 118.576C253.048 118.533 253.023 118.484 253.01 118.432C252.996 118.38 252.993 118.326 253 118.272C253.008 118.219 253.026 118.167 253.054 118.121L258.817 108.242C258.84 108.19 258.875 108.143 258.918 108.104C258.961 108.066 259.011 108.037 259.066 108.02C259.121 108.002 259.179 107.996 259.236 108.002C259.293 108.009 259.349 108.027 259.399 108.056C259.448 108.085 259.492 108.124 259.525 108.17C259.559 108.217 259.583 108.27 259.594 108.327C259.606 108.383 259.606 108.441 259.594 108.498C259.582 108.554 259.558 108.607 259.525 108.654L253.762 118.533C253.726 118.595 253.674 118.647 253.612 118.683C253.55 118.719 253.48 118.738 253.408 118.738Z" fill="#263238"/>
<path d="M283.808 167.886V156.657C283.808 150.754 275.23 122.904 263.433 117.685C251.636 112.465 223.094 110.144 205.114 111.099C187.135 112.054 163.129 149.659 163.129 149.659L165.739 181.996C169.394 181.996 181.034 180.893 182.739 212.884C182.853 215.14 183.83 217.265 185.469 218.819C187.107 220.373 189.281 221.237 191.539 221.232H254.484C256.599 221.23 258.641 220.465 260.236 219.076C261.83 217.687 262.869 215.769 263.161 213.675C264.808 202.273 269.105 181.972 279.47 181.972C286.739 181.972 291.95 188.195 291.95 195.333C291.952 187.492 290.048 179.767 286.401 172.825L283.808 167.886Z" fill="url(#paint4_linear_542_4915)"/>
<path d="M139.25 111.098C106.509 111.098 69.4141 149.658 69.4141 149.658H163.157C163.157 149.658 187.138 112.061 205.142 111.098H139.25Z" fill="url(#paint5_linear_542_4915)"/>
<path opacity="0.4" d="M141.263 111.098C113.684 111.098 84.7557 138.462 76.3174 147.082C76.1078 147.295 75.9659 147.565 75.9098 147.859C75.8536 148.153 75.8856 148.457 76.0019 148.732C76.1181 149.008 76.3132 149.243 76.5628 149.408C76.8123 149.572 77.1051 149.66 77.4041 149.658H153.027C156.071 149.667 159.074 148.957 161.792 147.587C164.51 146.216 166.866 144.224 168.669 141.772C176.802 130.691 192.469 111.781 205.147 111.098H141.263Z" fill="white"/>
<path d="M163.16 149.66L128.534 176.984L35.3511 176.687C35.3511 176.687 30 184.467 30 192.971H150.045C152.013 187.76 158.912 181.997 165.769 181.997C165.769 172.299 163.16 149.66 163.16 149.66Z" fill="url(#paint6_linear_542_4915)"/>
<path opacity="0.2" d="M140.497 168.932C140.398 168.931 140.304 168.895 140.229 168.83C140.155 168.765 140.107 168.675 140.093 168.578C140.079 168.471 140.108 168.363 140.172 168.277C140.237 168.191 140.333 168.133 140.439 168.117C148.751 166.769 156.529 163.151 162.914 157.662C164.176 156.6 164.998 155.106 165.218 153.471C165.439 151.837 165.043 150.179 164.107 148.82C164.073 148.776 164.048 148.725 164.034 148.671C164.02 148.617 164.017 148.561 164.026 148.506C164.034 148.45 164.054 148.397 164.083 148.35C164.113 148.303 164.152 148.262 164.198 148.23C164.244 148.198 164.296 148.176 164.35 148.165C164.405 148.153 164.461 148.153 164.516 148.165C164.571 148.176 164.623 148.198 164.668 148.23C164.714 148.262 164.753 148.303 164.782 148.351C165.832 149.878 166.275 151.741 166.027 153.578C165.779 155.414 164.857 157.093 163.441 158.287C156.944 163.879 149.025 167.56 140.563 168.924L140.497 168.932Z" fill="black"/>
<path d="M35.3477 176.687C35.3477 176.687 51.7137 157.613 69.4134 149.66H163.156L128.531 176.984L35.3477 176.687Z" fill="url(#paint7_linear_542_4915)"/>
<path d="M107.839 176.688H46.3672V178.474H107.839V176.688Z" fill="#263238"/>
<path d="M106.561 173.113L109.854 169.82C110.595 169.081 111.532 168.569 112.554 168.347L137.425 162.93C138.299 162.739 139.207 162.767 140.067 163.012L141.401 163.383C142.289 163.633 143.099 164.103 143.756 164.751C144.413 165.399 144.895 166.202 145.158 167.086C145.421 167.97 145.456 168.906 145.26 169.808C145.063 170.709 144.642 171.546 144.035 172.241L138.684 178.357C137.762 179.41 136.472 180.07 135.078 180.201L110.933 182.391C110.135 182.467 109.331 182.367 108.576 182.096C107.822 181.826 107.137 181.393 106.569 180.827C105.548 179.804 104.974 178.418 104.973 176.972C104.971 175.526 105.542 174.139 106.561 173.113Z" fill="white"/>
<path d="M48.1074 174.857L45.3824 169.761C44.9988 169.048 44.4301 168.45 43.736 168.033C43.0767 167.637 42.3267 167.418 41.5582 167.396C40.7897 167.375 40.0286 167.551 39.3481 167.909L37.2817 168.996C36.2669 169.532 35.4954 170.436 35.1248 171.523L33.8653 175.252C33.6558 175.866 33.582 176.518 33.6489 177.164C33.7159 177.809 33.9219 178.432 34.253 178.99C34.584 179.548 35.0321 180.028 35.5663 180.396C36.1006 180.764 36.7083 181.012 37.3476 181.122L43.0362 182.102C43.9641 182.262 44.9189 182.127 45.7655 181.715C46.6121 181.302 47.3076 180.634 47.7534 179.805L48.1321 179.105C48.4806 178.451 48.6609 177.72 48.6566 176.978C48.6523 176.236 48.4635 175.508 48.1074 174.857Z" fill="white"/>
<path opacity="0.4" d="M182.307 150.755H268.978C269.713 150.755 270.438 150.584 271.094 150.254C271.751 149.924 272.321 149.445 272.76 148.856C273.198 148.266 273.492 147.582 273.619 146.858C273.746 146.135 273.701 145.391 273.49 144.688C271.514 138.102 267.727 127.803 262.038 122.551C261.406 121.972 260.63 121.574 259.791 121.398C249.574 119.233 233.151 117.792 220.967 116.953C215.444 116.575 209.905 117.398 204.731 119.364C199.556 121.331 194.87 124.395 190.992 128.346C186.357 133.029 182.17 138.137 178.487 143.601C178.026 144.293 177.761 145.098 177.72 145.929C177.68 146.76 177.865 147.587 178.257 148.321C178.649 149.055 179.233 149.669 179.946 150.097C180.659 150.526 181.475 150.753 182.307 150.755Z" fill="white"/>
<path d="M126.271 202.617C126.271 205.317 123.504 207.515 120.096 207.515C116.688 207.515 113.922 205.317 113.922 202.617C113.922 199.916 116.68 197.727 120.096 197.727C123.513 197.727 126.271 199.916 126.271 202.617Z" fill="#263238"/>
<path d="M76.5244 172.949C78.5496 172.949 79.5375 175.024 78.7307 177.576C77.9239 180.128 75.6353 182.211 73.6019 182.211C71.5685 182.211 70.5888 180.136 71.3956 177.576C72.2024 175.016 74.4992 172.949 76.5244 172.949Z" fill="#263238"/>
<path d="M34.9823 202.617C34.9823 205.317 34.1591 207.515 33.2453 207.515C32.3315 207.515 31.5 205.317 31.5 202.617C31.5 199.916 32.3232 197.727 33.2453 197.727C34.1673 197.727 34.9823 199.916 34.9823 202.617Z" fill="#263238"/>
<path d="M179.641 149.973V147.199C179.64 146.403 179.816 145.617 180.158 144.897C180.499 144.178 180.997 143.544 181.615 143.042C182.232 142.54 182.954 142.181 183.728 141.993C184.501 141.805 185.307 141.792 186.087 141.955L196.641 144.153C197.846 144.405 198.927 145.063 199.704 146.018C200.48 146.973 200.904 148.166 200.905 149.397V149.973C200.905 151.393 200.341 152.755 199.338 153.76C198.335 154.765 196.974 155.331 195.554 155.333H185C183.579 155.333 182.215 154.768 181.21 153.763C180.205 152.758 179.641 151.395 179.641 149.973Z" fill="#263238"/>
<path d="M235.17 118.104C235.17 118.104 233.762 117.964 231.309 117.75C242.159 139.978 239.393 150.754 239.393 150.754H247.675C247.757 137.22 235.17 118.104 235.17 118.104Z" fill="#263238"/>
<path opacity="0.2" d="M143.662 140.801C143.494 142.548 142.682 144.17 141.384 145.351C140.086 146.532 138.394 147.188 136.639 147.19H93.9707C90.8589 147.19 89.731 143.716 91.9867 141.131C96.0569 136.496 100.477 132.18 105.208 128.222C113.243 121.455 123.221 117.94 132.548 118.59L136.071 118.845C137.592 118.964 139.034 119.571 140.182 120.575C141.33 121.579 142.123 122.927 142.443 124.419C143.688 129.785 144.099 135.31 143.662 140.801Z" fill="url(#paint8_linear_542_4915)"/>
<path opacity="0.2" d="M240.384 215.379C240.275 215.379 240.17 215.335 240.093 215.258C240.016 215.181 239.973 215.076 239.973 214.967C239.973 206.636 244.221 172.282 245.332 167.137C246.41 162.139 246.41 156.558 245.332 152.927C245.301 152.823 245.314 152.71 245.366 152.614C245.419 152.518 245.507 152.447 245.612 152.417C245.717 152.389 245.828 152.402 245.923 152.454C246.019 152.506 246.09 152.593 246.122 152.697C247.234 156.451 247.234 162.189 246.122 167.309C245.011 172.43 240.779 206.669 240.779 214.967C240.78 215.073 240.738 215.176 240.665 215.252C240.591 215.329 240.491 215.374 240.384 215.379Z" fill="black"/>
<path opacity="0.2" d="M239.284 167.575H229.248C229.058 167.581 228.869 167.543 228.695 167.465C228.522 167.386 228.368 167.268 228.247 167.121C228.127 166.974 228.041 166.801 227.998 166.616C227.954 166.43 227.954 166.237 227.997 166.052L228.203 164.891C228.286 164.473 228.507 164.095 228.831 163.819C229.156 163.543 229.563 163.384 229.989 163.368H240.024C240.215 163.362 240.404 163.399 240.578 163.478C240.751 163.557 240.904 163.674 241.025 163.821C241.146 163.968 241.232 164.141 241.275 164.327C241.319 164.512 241.319 164.705 241.276 164.891L241.07 166.052C240.987 166.469 240.765 166.847 240.441 167.123C240.117 167.4 239.709 167.559 239.284 167.575Z" fill="black"/>
<defs>
<linearGradient id="paint0_linear_542_4915" x1="297.001" y1="148.5" x2="131.085" y2="373.679" gradientUnits="userSpaceOnUse">
<stop stop-color="#BDACFF"/>
<stop offset="1" stop-color="#6B47F5"/>
</linearGradient>
<linearGradient id="paint1_linear_542_4915" x1="296.984" y1="26.9961" x2="131.063" y2="252.177" gradientUnits="userSpaceOnUse">
<stop stop-color="#6B47F5"/>
<stop offset="1" stop-color="#3F3A60"/>
</linearGradient>
<linearGradient id="paint2_linear_542_4915" x1="291.973" y1="173.395" x2="254.842" y2="262.321" gradientUnits="userSpaceOnUse">
<stop stop-color="#6B47F5"/>
<stop offset="1" stop-color="#3F3A60"/>
</linearGradient>
<linearGradient id="paint3_linear_542_4915" x1="150.045" y1="192.969" x2="129.839" y2="254.841" gradientUnits="userSpaceOnUse">
<stop stop-color="#6B47F5"/>
<stop offset="1" stop-color="#3F3A60"/>
</linearGradient>
<linearGradient id="paint4_linear_542_4915" x1="291.95" y1="110.889" x2="164.082" y2="222.326" gradientUnits="userSpaceOnUse">
<stop stop-color="#6B47F5"/>
<stop offset="1" stop-color="#3F3A60"/>
</linearGradient>
<linearGradient id="paint5_linear_542_4915" x1="205.142" y1="111.098" x2="175.151" y2="189.9" gradientUnits="userSpaceOnUse">
<stop stop-color="#6B47F5"/>
<stop offset="1" stop-color="#3F3A60"/>
</linearGradient>
<linearGradient id="paint6_linear_542_4915" x1="165.769" y1="149.66" x2="129.154" y2="235.343" gradientUnits="userSpaceOnUse">
<stop stop-color="#6B47F5"/>
<stop offset="1" stop-color="#3F3A60"/>
</linearGradient>
<linearGradient id="paint7_linear_542_4915" x1="163.156" y1="149.66" x2="146.237" y2="208.74" gradientUnits="userSpaceOnUse">
<stop stop-color="#6B47F5"/>
<stop offset="1" stop-color="#3F3A60"/>
</linearGradient>
<linearGradient id="paint8_linear_542_4915" x1="143.831" y1="118.514" x2="111.957" y2="162.515" gradientUnits="userSpaceOnUse">
<stop stop-color="#6B47F5"/>
<stop offset="1" stop-color="#3F3A60"/>
</linearGradient>
</defs>
</svg>
