<svg width="592" height="374" viewBox="0 0 592 374" fill="none" xmlns="http://www.w3.org/2000/svg">
<g clip-path="url(#clip0_493_6984)">
<g filter="url(#filter0_d_493_6984)">
<mask id="mask0_493_6984" style="mask-type:luminance" maskUnits="userSpaceOnUse" x="0" y="0" width="592" height="375">
<path d="M592 0H0V375H592V0Z" fill="white"/>
</mask>
<g mask="url(#mask0_493_6984)">
<path d="M592 0H0V375H592V0Z" fill="url(#paint0_linear_493_6984)" fill-opacity="0.5"/>
<mask id="mask1_493_6984" style="mask-type:luminance" maskUnits="userSpaceOnUse" x="-473" y="-223" width="1204" height="1423">
<path d="M156.845 -222.996L-473 867.928L100.516 1199.05L730.361 108.124L156.845 -222.996Z" fill="white"/>
</mask>
<g mask="url(#mask1_493_6984)">
<g opacity="0.1">
<path d="M-22.149 1141.52L216.118 725.66C235.996 691.349 248.866 661.789 252.846 624.048C265.751 501.693 178.269 392.071 57.5581 379.242C-33.275 369.588 -117.17 417.471 -158.616 493.866C-158.699 493.965 -158.765 494.081 -158.8 494.181C-158.815 494.229 -158.828 494.266 -158.837 494.305L-403.732 919.775L-402.438 920.538L-157.394 494.808L-157.388 494.749L-157.352 494.684C-116.213 418.753 -32.8577 371.157 57.3943 380.749C117.337 387.12 169.028 417.525 204.133 461.526C239.238 505.531 257.757 563.122 251.348 623.889C247.396 661.358 234.652 690.651 214.819 724.897L-23.4429 1140.76L-22.1442 1141.52H-22.149Z" fill="url(#paint1_linear_493_6984)"/>
<path d="M-9.59555 1135.86L235.731 707.678C256.197 672.353 269.45 641.918 273.543 603.063C286.829 477.093 196.765 364.235 72.4907 351.027C-21.0222 341.089 -107.403 390.384 -150.068 469.036C-150.151 469.136 -150.221 469.251 -150.257 469.36C-150.272 469.408 -150.286 469.451 -150.295 469.489L-402.449 907.569L-401.155 908.331L-148.852 469.987L-148.845 469.924L-148.809 469.854C-106.445 391.667 -20.6092 342.653 72.3226 352.529C134.052 359.09 187.275 390.396 223.426 435.708C259.578 481.02 278.645 540.327 272.046 602.898C267.976 641.481 254.853 671.649 234.428 706.91L-10.8943 1135.1L-9.59555 1135.86Z" fill="url(#paint2_linear_493_6984)"/>
<path d="M2.96262 1130.2L255.354 689.69C276.408 653.35 290.039 622.041 294.25 582.071C307.917 452.487 215.266 336.392 87.4281 322.806C-8.77438 312.581 -97.6305 363.292 -141.52 444.209C-141.604 444.313 -141.674 444.429 -141.71 444.533C-141.73 444.585 -141.739 444.628 -141.749 444.672L-401.162 895.36L-399.868 896.123L-140.305 445.165L-140.298 445.101L-140.256 445.027C-96.6688 364.579 -8.35718 314.151 87.2642 324.313C150.77 331.062 205.534 363.275 242.728 409.893C279.922 456.512 299.541 517.536 292.752 581.912C288.564 621.613 275.058 652.651 254.05 688.926L1.66339 1129.44L2.96262 1130.2Z" fill="url(#paint3_linear_493_6984)"/>
<path d="M15.5198 1124.54L274.971 671.701C296.612 634.347 310.627 602.168 314.956 561.079C329.004 427.881 233.771 308.545 102.37 294.58C3.4826 284.071 -87.8489 336.195 -132.962 419.368C-133.051 419.472 -133.117 419.593 -133.158 419.702C-133.178 419.754 -133.187 419.797 -133.197 419.84L-399.871 883.148L-398.577 883.91L-131.754 420.343L-131.747 420.275L-131.704 420.191C-86.8926 337.487 3.89929 285.645 102.201 296.092C167.493 303.031 223.789 336.145 262.03 384.074C300.266 432.004 320.438 494.739 313.458 560.92C309.153 601.731 295.268 633.643 273.672 670.934L14.2205 1123.78L15.5198 1124.54Z" fill="url(#paint4_linear_493_6984)"/>
<path d="M28.0836 1118.87L294.594 653.711C316.824 615.336 331.217 582.289 335.663 540.086C350.092 403.278 252.272 280.701 117.308 266.357C15.7404 255.563 -78.0767 309.106 -124.409 394.535C-124.498 394.639 -124.569 394.758 -124.605 394.868C-124.625 394.921 -124.635 394.969 -124.649 395.012L-398.578 870.929L-397.284 871.69L-123.201 395.51L-123.193 395.441L-123.145 395.353C-77.1096 310.389 16.1577 257.132 117.148 267.865C184.223 274.994 242.06 309.014 281.343 358.25C320.621 407.485 341.341 471.931 334.17 539.922C329.748 581.852 315.485 614.634 293.296 652.939L26.7848 1118.1L28.0836 1118.87Z" fill="url(#paint5_linear_493_6984)"/>
<path d="M40.6414 1113.2L314.216 635.721C337.034 596.332 351.806 562.409 356.374 519.098C371.184 378.675 270.782 252.862 132.249 238.139C27.9969 227.059 -68.2956 282.017 -115.852 369.702C-115.94 369.806 -116.012 369.931 -116.053 370.04C-116.073 370.096 -116.083 370.145 -116.097 370.187L-397.287 858.718L-395.993 859.481L-114.649 370.686L-114.642 370.617L-114.593 370.524C-67.3338 283.304 28.4142 228.628 132.085 239.646C200.941 246.964 260.315 281.885 300.64 332.433C340.965 382.98 362.233 449.137 354.871 518.933C350.331 561.977 335.69 595.628 312.913 634.953L39.3426 1112.44L40.6414 1113.2Z" fill="url(#paint6_linear_493_6984)"/>
<path d="M53.1954 1107.54L333.83 617.732C357.235 577.328 372.391 542.535 377.072 498.104C392.263 354.067 289.279 225.018 147.177 209.916C40.2406 198.551 -58.5273 254.923 -107.307 344.864C-107.401 344.972 -107.473 345.097 -107.509 345.206C-107.529 345.263 -107.544 345.316 -107.554 345.359L-396.004 846.504L-394.71 847.266L-106.106 345.857L-106.098 345.784L-106.044 345.687C-57.5608 256.211 40.6676 200.121 147.018 211.424C217.656 218.931 278.571 254.759 319.938 306.612C361.31 358.466 383.13 426.34 375.578 497.945C370.921 542.103 355.896 576.629 332.536 616.97L51.9015 1106.77L53.2003 1107.54H53.1954Z" fill="url(#paint7_linear_493_6984)"/>
<path d="M65.7498 1101.88L353.443 599.75C377.442 558.331 392.971 522.663 397.77 477.118C413.343 329.466 307.776 197.182 162.111 181.696C52.4949 170.046 -48.7539 227.837 -98.7626 320.033C-98.8566 320.141 -98.928 320.266 -98.9691 320.38C-98.9897 320.437 -99.0055 320.494 -99.0149 320.538L-394.725 834.292L-393.431 835.054L-97.5663 321.031L-97.5586 320.958L-97.5035 320.851C-47.8007 229.114 52.9078 171.61 161.947 183.199C234.372 190.896 296.818 227.629 339.233 280.789C381.647 333.954 404.015 403.539 396.272 476.949C391.498 522.221 376.094 557.617 352.141 598.972L64.4559 1101.12L65.7547 1101.88H65.7498Z" fill="url(#paint8_linear_493_6984)"/>
<path d="M78.3125 1096.21L373.071 581.756C397.657 539.323 413.565 502.78 418.481 456.121C434.435 304.855 326.282 169.329 177.053 153.469C64.752 141.534 -38.9771 200.739 -90.2052 295.196C-90.2992 295.304 -90.3759 295.434 -90.4122 295.548C-90.4333 295.61 -90.4486 295.662 -90.4585 295.71L-393.428 822.078L-392.134 822.841L-89.0104 296.209L-89.0027 296.136L-88.9429 296.029C-38.0163 202.036 65.1729 143.114 176.893 154.987C251.099 162.874 315.082 200.508 358.543 254.98C401.999 309.451 424.92 380.748 416.987 455.968C412.095 502.354 396.313 538.624 371.772 580.993L77.0132 1095.45L78.312 1096.22L78.3125 1096.21Z" fill="url(#paint9_linear_493_6984)"/>
<path d="M90.8743 1090.54L392.692 563.762C417.867 520.309 434.153 482.897 439.191 435.129C455.526 280.248 344.791 141.486 191.998 125.248C77.0079 113.027 -29.1957 173.636 -81.6486 270.359C-81.7426 270.467 -81.8193 270.597 -81.861 270.715C-81.8821 270.777 -81.8978 270.834 -81.9078 270.883L-392.137 809.86L-390.843 810.622L-80.4591 271.376L-80.4509 271.298L-80.3901 271.181C-28.2392 174.928 77.4256 114.591 191.835 126.75C267.823 134.826 333.342 173.367 377.846 229.145C422.349 284.927 445.818 357.935 437.694 434.96C432.684 482.46 416.523 519.605 391.395 562.99L89.5753 1089.78L90.8743 1090.54Z" fill="url(#paint10_linear_493_6984)"/>
<path d="M103.427 1084.89L412.31 545.782C438.072 501.313 454.742 463.027 459.893 414.145C476.609 255.649 363.286 113.651 206.93 97.0343C89.2554 84.5279 -19.4292 146.555 -73.1011 245.535C-73.1956 245.648 -73.2723 245.777 -73.314 245.896C-73.335 245.958 -73.3508 246.015 -73.3608 246.063L-390.85 797.654L-389.557 798.416L-71.9121 246.557L-71.9039 246.479L-71.8378 246.358C-18.4631 147.849 89.6824 86.0982 206.771 98.5423C284.541 106.807 351.602 146.25 397.147 203.338C442.692 260.427 466.714 335.152 458.399 413.981C453.272 462.595 436.728 500.61 411.016 545.015L102.128 1084.12L103.427 1084.89Z" fill="url(#paint11_linear_493_6984)"/>
<path d="M115.987 1079.22L431.93 527.789C458.28 482.307 475.328 443.15 480.602 393.15C497.699 231.044 381.794 85.8054 221.87 68.8089C101.515 56.0178 -9.64932 119.46 -64.5455 220.7C-64.6448 220.812 -64.7223 220.947 -64.7639 221.065C-64.7855 221.132 -64.8013 221.189 -64.8112 221.237L-389.561 785.442L-388.267 786.204L-63.3625 221.731L-63.3543 221.653L-63.287 221.522C-8.68811 120.752 101.932 57.5872 221.706 70.3165C301.257 78.7711 369.855 119.119 416.447 177.515C463.034 235.915 487.609 312.351 479.104 392.985C473.859 442.714 456.936 481.603 430.632 527.022L114.688 1078.46L115.987 1079.22Z" fill="url(#paint12_linear_493_6984)"/>
<path d="M128.547 1073.55L451.549 509.798C478.487 463.3 495.915 423.269 501.306 372.154C518.784 206.434 400.297 57.9548 236.81 40.5796C113.77 27.5031 0.128815 92.3642 -55.9955 195.855C-56.0948 195.967 -56.1722 196.102 -56.2144 196.225C-56.2359 196.292 -56.2522 196.354 -56.2627 196.407L-388.271 773.221L-386.977 773.983L-54.814 196.9L-54.8053 196.817L-54.7332 196.687C1.0896 93.6622 114.191 29.0779 236.65 42.0926C317.983 50.7365 388.117 91.991 435.75 151.693C483.385 211.399 508.508 289.547 499.817 371.996C494.455 422.838 477.154 462.597 450.26 509.031L127.247 1072.8L128.542 1073.56L128.547 1073.55Z" fill="url(#paint13_linear_493_6984)"/>
<path d="M141.105 1067.89L471.171 491.81C498.697 444.298 516.506 403.397 522.01 351.163C539.87 181.829 418.797 30.1122 251.746 12.3583C126.021 -1.00352 9.89996 65.2715 -47.4438 171.024C-47.5432 171.136 -47.6253 171.27 -47.6675 171.393C-47.6944 171.464 -47.7057 171.527 -47.7162 171.58L-386.98 761.008L-385.686 761.771L-46.2677 172.074L-46.2585 171.986L-46.2537 171.987L-46.1811 171.852C10.866 66.5646 126.443 0.56626 251.586 13.8712C334.701 22.7045 406.376 64.8607 455.053 125.874C503.729 186.891 529.404 266.751 520.518 351.004C515.038 402.961 497.358 443.594 469.878 491.043L139.81 1067.13L141.109 1067.89H141.105Z" fill="url(#paint14_linear_493_6984)"/>
<path d="M153.668 1062.21L490.794 473.809C518.908 425.276 537.097 383.506 542.718 330.163C560.959 157.214 437.302 2.26212 266.682 -15.871C138.277 -29.5176 19.6767 38.1711 -38.8909 146.178C-38.9955 146.295 -39.0728 146.43 -39.1154 146.558C-39.1422 146.629 -39.1539 146.692 -39.1648 146.75L-385.689 748.792L-384.395 749.554L-37.7163 147.243L-37.7065 147.15L-37.7017 147.151L-37.6291 147.016C20.6371 39.4736 138.699 -27.938 266.523 -14.3532C351.419 -5.33046 424.63 37.7317 474.354 100.051C524.073 162.375 550.299 243.95 541.224 330.009C535.625 383.079 517.563 424.582 489.495 473.051L152.373 1061.45L153.672 1062.22L153.668 1062.21Z" fill="url(#paint15_linear_493_6984)"/>
<path d="M166.22 1056.56L510.406 455.834C539.108 406.286 557.675 363.641 563.419 309.184C582.041 132.621 455.802 -25.5664 281.614 -44.0788C150.525 -58.0107 29.4479 11.0973 -30.3483 121.36C-30.4529 121.477 -30.5307 121.616 -30.5777 121.739C-30.6046 121.81 -30.6214 121.877 -30.6318 121.93L-384.416 736.581L-383.122 737.344L-29.1826 122.418L-29.1724 122.321L-29.1617 122.312L-29.0898 122.182C30.4006 12.3791 150.938 -56.4468 281.451 -42.5762C368.134 -33.3636 442.877 10.5994 493.648 74.2304C544.414 137.861 571.188 221.152 561.921 309.015C556.207 363.2 537.765 405.578 509.108 455.061L164.921 1055.8L166.22 1056.56Z" fill="url(#paint16_linear_493_6984)"/>
<path d="M178.781 1050.89L530.031 437.843C559.321 387.281 578.272 343.761 584.128 288.19C603.131 108.012 474.306 -53.4126 296.559 -72.3081C162.785 -86.5254 39.2274 -15.9985 -21.7878 96.5206C-21.8924 96.6376 -21.9749 96.7766 -22.0176 96.9046C-22.0451 96.9806 -22.0619 97.0476 -22.0724 97.1006L-383.117 724.366L-381.823 725.128L-20.6231 97.5886L-20.6124 97.4866L-20.5969 97.4786L-20.525 97.3486C40.1892 -14.7108 163.207 -84.9555 296.4 -70.8C384.865 -61.3981 461.149 -16.5286 512.958 48.4081C564.765 113.35 592.093 198.348 582.635 288.022C576.803 343.325 557.983 386.573 528.738 437.071L177.482 1050.13L178.781 1050.89Z" fill="url(#paint17_linear_493_6984)"/>
<path d="M311.49 -100.525C355.809 -95.8147 397.884 -82.4439 436.54 -60.7834C473.88 -39.8629 506.476 -12.1315 533.417 21.6449C560.364 55.417 580.296 93.53 592.667 134.918C605.475 177.774 609.566 222.281 604.828 267.203C598.687 325.435 578.327 370.344 549.647 419.859L191.338 1045.23L190.039 1044.47L548.349 419.091C576.933 369.743 597.222 324.999 603.335 267.039C608.051 222.322 603.978 178.013 591.232 135.356C578.919 94.156 559.075 56.2196 532.253 22.5936C505.432 -11.0275 472.983 -38.63 435.813 -59.4587C397.33 -81.0171 355.448 -94.328 311.326 -99.0172C245.582 -106.004 180.094 -93.041 121.946 -61.5338C65.1784 -30.7751 18.8632 15.5819 -11.9828 72.5164L-12.1602 72.9107L-380.542 712.92L-381.836 712.157L-13.5311 72.278C-13.4993 72.1141 -13.4276 71.8954 -13.2455 71.6885C17.7447 14.5381 64.2479 -31.9906 121.238 -62.8732C179.653 -94.5242 245.439 -107.545 311.485 -100.525" fill="url(#paint18_linear_493_6984)"/>
</g>
</g>
</g>
<path d="M591 1H1V374H591V1Z" stroke="url(#paint19_radial_493_6984)" stroke-width="2"/>
</g>
</g>
<defs>
<filter id="filter0_d_493_6984" x="-12" y="-8" width="616" height="399" filterUnits="userSpaceOnUse" color-interpolation-filters="sRGB">
<feFlood flood-opacity="0" result="BackgroundImageFix"/>
<feColorMatrix in="SourceAlpha" type="matrix" values="0 0 0 0 0 0 0 0 0 0 0 0 0 0 0 0 0 0 127 0" result="hardAlpha"/>
<feOffset dy="4"/>
<feGaussianBlur stdDeviation="6"/>
<feComposite in2="hardAlpha" operator="out"/>
<feColorMatrix type="matrix" values="0 0 0 0 0 0 0 0 0 0 0 0 0 0 0 0 0 0 0.03 0"/>
<feBlend mode="normal" in2="BackgroundImageFix" result="effect1_dropShadow_493_6984"/>
<feBlend mode="normal" in="SourceGraphic" in2="effect1_dropShadow_493_6984" result="shape"/>
</filter>
<linearGradient id="paint0_linear_493_6984" x1="13.9421" y1="28.3956" x2="497.533" y2="406.725" gradientUnits="userSpaceOnUse">
<stop stop-color="white" stop-opacity="0.7"/>
<stop offset="1" stop-color="white"/>
</linearGradient>
<linearGradient id="paint1_linear_493_6984" x1="-408.88" y1="-102.377" x2="896.988" y2="679.302" gradientUnits="userSpaceOnUse">
<stop stop-color="#BDACFF"/>
<stop offset="1" stop-color="#6B47F5"/>
</linearGradient>
<linearGradient id="paint2_linear_493_6984" x1="-408.88" y1="-102.377" x2="896.988" y2="679.302" gradientUnits="userSpaceOnUse">
<stop stop-color="#BDACFF"/>
<stop offset="1" stop-color="#6B47F5"/>
</linearGradient>
<linearGradient id="paint3_linear_493_6984" x1="-408.881" y1="-102.376" x2="896.987" y2="679.303" gradientUnits="userSpaceOnUse">
<stop stop-color="#BDACFF"/>
<stop offset="1" stop-color="#6B47F5"/>
</linearGradient>
<linearGradient id="paint4_linear_493_6984" x1="-408.88" y1="-102.378" x2="896.988" y2="679.301" gradientUnits="userSpaceOnUse">
<stop stop-color="#BDACFF"/>
<stop offset="1" stop-color="#6B47F5"/>
</linearGradient>
<linearGradient id="paint5_linear_493_6984" x1="-408.88" y1="-102.377" x2="896.988" y2="679.302" gradientUnits="userSpaceOnUse">
<stop stop-color="#BDACFF"/>
<stop offset="1" stop-color="#6B47F5"/>
</linearGradient>
<linearGradient id="paint6_linear_493_6984" x1="-408.881" y1="-102.377" x2="896.987" y2="679.302" gradientUnits="userSpaceOnUse">
<stop stop-color="#BDACFF"/>
<stop offset="1" stop-color="#6B47F5"/>
</linearGradient>
<linearGradient id="paint7_linear_493_6984" x1="-408.881" y1="-102.377" x2="896.987" y2="679.302" gradientUnits="userSpaceOnUse">
<stop stop-color="#BDACFF"/>
<stop offset="1" stop-color="#6B47F5"/>
</linearGradient>
<linearGradient id="paint8_linear_493_6984" x1="-408.881" y1="-102.378" x2="896.987" y2="679.301" gradientUnits="userSpaceOnUse">
<stop stop-color="#BDACFF"/>
<stop offset="1" stop-color="#6B47F5"/>
</linearGradient>
<linearGradient id="paint9_linear_493_6984" x1="-408.881" y1="-102.376" x2="896.987" y2="679.303" gradientUnits="userSpaceOnUse">
<stop stop-color="#BDACFF"/>
<stop offset="1" stop-color="#6B47F5"/>
</linearGradient>
<linearGradient id="paint10_linear_493_6984" x1="-408.882" y1="-102.376" x2="896.986" y2="679.303" gradientUnits="userSpaceOnUse">
<stop stop-color="#BDACFF"/>
<stop offset="1" stop-color="#6B47F5"/>
</linearGradient>
<linearGradient id="paint11_linear_493_6984" x1="-408.881" y1="-102.377" x2="896.987" y2="679.302" gradientUnits="userSpaceOnUse">
<stop stop-color="#BDACFF"/>
<stop offset="1" stop-color="#6B47F5"/>
</linearGradient>
<linearGradient id="paint12_linear_493_6984" x1="-408.881" y1="-102.377" x2="896.987" y2="679.302" gradientUnits="userSpaceOnUse">
<stop stop-color="#BDACFF"/>
<stop offset="1" stop-color="#6B47F5"/>
</linearGradient>
<linearGradient id="paint13_linear_493_6984" x1="-408.88" y1="-102.377" x2="896.988" y2="679.302" gradientUnits="userSpaceOnUse">
<stop stop-color="#BDACFF"/>
<stop offset="1" stop-color="#6B47F5"/>
</linearGradient>
<linearGradient id="paint14_linear_493_6984" x1="-408.88" y1="-102.376" x2="896.988" y2="679.303" gradientUnits="userSpaceOnUse">
<stop stop-color="#BDACFF"/>
<stop offset="1" stop-color="#6B47F5"/>
</linearGradient>
<linearGradient id="paint15_linear_493_6984" x1="-408.881" y1="-102.377" x2="896.986" y2="679.302" gradientUnits="userSpaceOnUse">
<stop stop-color="#BDACFF"/>
<stop offset="1" stop-color="#6B47F5"/>
</linearGradient>
<linearGradient id="paint16_linear_493_6984" x1="-408.881" y1="-102.377" x2="896.987" y2="679.302" gradientUnits="userSpaceOnUse">
<stop stop-color="#BDACFF"/>
<stop offset="1" stop-color="#6B47F5"/>
</linearGradient>
<linearGradient id="paint17_linear_493_6984" x1="-408.88" y1="-102.376" x2="896.988" y2="679.303" gradientUnits="userSpaceOnUse">
<stop stop-color="#BDACFF"/>
<stop offset="1" stop-color="#6B47F5"/>
</linearGradient>
<linearGradient id="paint18_linear_493_6984" x1="-408.881" y1="-102.377" x2="896.987" y2="679.302" gradientUnits="userSpaceOnUse">
<stop stop-color="#BDACFF"/>
<stop offset="1" stop-color="#6B47F5"/>
</linearGradient>
<radialGradient id="paint19_radial_493_6984" cx="0" cy="0" r="1" gradientUnits="userSpaceOnUse" gradientTransform="translate(207.114 383.744) rotate(-66.7084) scale(447.407 687.579)">
<stop stop-color="white" stop-opacity="0"/>
<stop offset="1" stop-color="white"/>
</radialGradient>
<clipPath id="clip0_493_6984">
<rect width="592" height="374" fill="white"/>
</clipPath>
</defs>
</svg>
