<svg width="375" height="286" viewBox="0 0 375 286" fill="none" xmlns="http://www.w3.org/2000/svg">
<g clip-path="url(#clip0_468_3826)">
<g filter="url(#filter0_d_468_3826)">
<mask id="mask0_468_3826" style="mask-type:luminance" maskUnits="userSpaceOnUse" x="-8" y="-9" width="384" height="301">
<path d="M376 -9H-8V292H376V-9Z" fill="white"/>
</mask>
<g mask="url(#mask0_468_3826)">
<path d="M376 -9H-8V292H376V-9Z" fill="url(#paint0_linear_468_3826)" fill-opacity="0.5"/>
<g filter="url(#filter1_d_468_3826)">
<path d="M246 78H122C108.745 78 98 88.7452 98 102V126C98 139.255 108.745 150 122 150H246C259.255 150 270 139.255 270 126V102C270 88.7452 259.255 78 246 78Z" fill="white"/>
<path d="M246 78.5H122C109.021 78.5 98.5 89.0213 98.5 102V126C98.5 138.979 109.021 149.5 122 149.5H246C258.979 149.5 269.5 138.979 269.5 126V102C269.5 89.0213 258.979 78.5 246 78.5Z" stroke="url(#paint1_radial_468_3826)"/>
<path d="M106 102C106 93.163 113.163 86 122 86H246C254.837 86 262 93.163 262 102V126C262 134.837 254.837 142 246 142H122C113.163 142 106 134.837 106 126V102Z" fill="url(#paint2_linear_468_3826)"/>
<path d="M122 86.5H246C254.56 86.5 261.5 93.44 261.5 102V126C261.5 134.56 254.56 141.5 246 141.5H122C113.44 141.5 106.5 134.56 106.5 126V102C106.5 93.44 113.44 86.5 122 86.5Z" stroke="url(#paint3_linear_468_3826)"/>
<path d="M127.473 120.127C126.633 120.127 125.877 119.983 125.205 119.695C124.533 119.395 124.005 118.975 123.621 118.435C123.237 117.895 123.045 117.265 123.045 116.545H125.241C125.289 117.085 125.499 117.529 125.871 117.877C126.255 118.225 126.789 118.399 127.473 118.399C128.181 118.399 128.733 118.231 129.129 117.895C129.525 117.547 129.723 117.103 129.723 116.563C129.723 116.143 129.597 115.801 129.345 115.537C129.105 115.273 128.799 115.069 128.427 114.925C128.067 114.781 127.563 114.625 126.915 114.457C126.099 114.241 125.433 114.025 124.917 113.809C124.413 113.581 123.981 113.233 123.621 112.765C123.261 112.297 123.081 111.673 123.081 110.893C123.081 110.173 123.261 109.543 123.621 109.003C123.981 108.463 124.485 108.049 125.133 107.761C125.781 107.473 126.531 107.329 127.383 107.329C128.595 107.329 129.585 107.635 130.353 108.247C131.133 108.847 131.565 109.675 131.649 110.731H129.381C129.345 110.275 129.129 109.885 128.733 109.561C128.337 109.237 127.815 109.075 127.167 109.075C126.579 109.075 126.099 109.225 125.727 109.525C125.355 109.825 125.169 110.257 125.169 110.821C125.169 111.205 125.283 111.523 125.511 111.775C125.751 112.015 126.051 112.207 126.411 112.351C126.771 112.495 127.263 112.651 127.887 112.819C128.715 113.047 129.387 113.275 129.903 113.503C130.431 113.731 130.875 114.085 131.235 114.565C131.607 115.033 131.793 115.663 131.793 116.455C131.793 117.091 131.619 117.691 131.271 118.255C130.935 118.819 130.437 119.275 129.777 119.623C129.129 119.959 128.361 120.127 127.473 120.127ZM143.196 110.083V120.001H141.144V118.831C140.82 119.239 140.394 119.563 139.866 119.803C139.35 120.031 138.798 120.145 138.21 120.145C137.43 120.145 136.728 119.983 136.104 119.659C135.492 119.335 135.006 118.855 134.646 118.219C134.298 117.583 134.124 116.815 134.124 115.915V110.083H136.158V115.609C136.158 116.497 136.38 117.181 136.824 117.661C137.268 118.129 137.874 118.363 138.642 118.363C139.41 118.363 140.016 118.129 140.46 117.661C140.916 117.181 141.144 116.497 141.144 115.609V110.083H143.196ZM157.91 109.921C158.69 109.921 159.386 110.083 159.998 110.407C160.622 110.731 161.108 111.211 161.456 111.847C161.816 112.483 161.996 113.251 161.996 114.151V120.001H159.962V114.457C159.962 113.569 159.74 112.891 159.296 112.423C158.852 111.943 158.246 111.703 157.478 111.703C156.71 111.703 156.098 111.943 155.642 112.423C155.198 112.891 154.976 113.569 154.976 114.457V120.001H152.942V114.457C152.942 113.569 152.72 112.891 152.276 112.423C151.832 111.943 151.226 111.703 150.458 111.703C149.69 111.703 149.078 111.943 148.622 112.423C148.178 112.891 147.956 113.569 147.956 114.457V120.001H145.904V110.083H147.956V111.217C148.292 110.809 148.718 110.491 149.234 110.263C149.75 110.035 150.302 109.921 150.89 109.921C151.682 109.921 152.39 110.089 153.014 110.425C153.638 110.761 154.118 111.247 154.454 111.883C154.754 111.283 155.222 110.809 155.858 110.461C156.494 110.101 157.178 109.921 157.91 109.921ZM166.659 111.559C167.007 111.079 167.481 110.689 168.081 110.389C168.693 110.077 169.371 109.921 170.115 109.921C170.991 109.921 171.783 110.131 172.491 110.551C173.199 110.971 173.757 111.571 174.165 112.351C174.573 113.119 174.777 114.001 174.777 114.997C174.777 115.993 174.573 116.887 174.165 117.679C173.757 118.459 173.193 119.071 172.473 119.515C171.765 119.947 170.979 120.163 170.115 120.163C169.347 120.163 168.663 120.013 168.063 119.713C167.475 119.413 167.007 119.029 166.659 118.561V120.001H164.607V106.681H166.659V111.559ZM172.689 114.997C172.689 114.313 172.545 113.725 172.257 113.233C171.981 112.729 171.609 112.351 171.141 112.099C170.685 111.835 170.193 111.703 169.665 111.703C169.149 111.703 168.657 111.835 168.189 112.099C167.733 112.363 167.361 112.747 167.073 113.251C166.797 113.755 166.659 114.349 166.659 115.033C166.659 115.717 166.797 116.317 167.073 116.833C167.361 117.337 167.733 117.721 168.189 117.985C168.657 118.249 169.149 118.381 169.665 118.381C170.193 118.381 170.685 118.249 171.141 117.985C171.609 117.709 171.981 117.313 172.257 116.797C172.545 116.281 172.689 115.681 172.689 114.997ZM177.85 108.769C177.478 108.769 177.166 108.643 176.914 108.391C176.662 108.139 176.536 107.827 176.536 107.455C176.536 107.083 176.662 106.771 176.914 106.519C177.166 106.267 177.478 106.141 177.85 106.141C178.21 106.141 178.516 106.267 178.768 106.519C179.02 106.771 179.146 107.083 179.146 107.455C179.146 107.827 179.02 108.139 178.768 108.391C178.516 108.643 178.21 108.769 177.85 108.769ZM178.858 110.083V120.001H176.806V110.083H178.858ZM183.946 111.757V117.247C183.946 117.619 184.03 117.889 184.198 118.057C184.378 118.213 184.678 118.291 185.098 118.291H186.358V120.001H184.738C183.814 120.001 183.106 119.785 182.614 119.353C182.122 118.921 181.876 118.219 181.876 117.247V111.757H180.706V110.083H181.876V107.617H183.946V110.083H186.358V111.757H183.946ZM192.241 113.719C192.241 112.495 192.523 111.397 193.087 110.425C193.663 109.453 194.437 108.697 195.409 108.157C196.393 107.605 197.467 107.329 198.631 107.329C199.963 107.329 201.145 107.659 202.177 108.319C203.221 108.967 203.977 109.891 204.445 111.091H201.979C201.655 110.431 201.205 109.939 200.629 109.615C200.053 109.291 199.387 109.129 198.631 109.129C197.803 109.129 197.065 109.315 196.417 109.687C195.769 110.059 195.259 110.593 194.887 111.289C194.527 111.985 194.347 112.795 194.347 113.719C194.347 114.643 194.527 115.453 194.887 116.149C195.259 116.845 195.769 117.385 196.417 117.769C197.065 118.141 197.803 118.327 198.631 118.327C199.387 118.327 200.053 118.165 200.629 117.841C201.205 117.517 201.655 117.025 201.979 116.365H204.445C203.977 117.565 203.221 118.489 202.177 119.137C201.145 119.785 199.963 120.109 198.631 120.109C197.455 120.109 196.381 119.839 195.409 119.299C194.437 118.747 193.663 117.985 193.087 117.013C192.523 116.041 192.241 114.943 192.241 113.719ZM208.899 106.681V120.001H206.847V106.681H208.899ZM210.909 114.997C210.909 114.001 211.113 113.119 211.521 112.351C211.941 111.583 212.505 110.989 213.213 110.569C213.933 110.137 214.725 109.921 215.589 109.921C216.369 109.921 217.047 110.077 217.623 110.389C218.211 110.689 218.679 111.067 219.027 111.523V110.083H221.097V120.001H219.027V118.525C218.679 118.993 218.205 119.383 217.605 119.695C217.005 120.007 216.321 120.163 215.553 120.163C214.701 120.163 213.921 119.947 213.213 119.515C212.505 119.071 211.941 118.459 211.521 117.679C211.113 116.887 210.909 115.993 210.909 114.997ZM219.027 115.033C219.027 114.349 218.883 113.755 218.595 113.251C218.319 112.747 217.953 112.363 217.497 112.099C217.041 111.835 216.549 111.703 216.021 111.703C215.493 111.703 215.001 111.835 214.545 112.099C214.089 112.351 213.717 112.729 213.429 113.233C213.153 113.725 213.015 114.313 213.015 114.997C213.015 115.681 213.153 116.281 213.429 116.797C213.717 117.313 214.089 117.709 214.545 117.985C215.013 118.249 215.505 118.381 216.021 118.381C216.549 118.381 217.041 118.249 217.497 117.985C217.953 117.721 218.319 117.337 218.595 116.833C218.883 116.317 219.027 115.717 219.027 115.033ZM224.836 108.769C224.464 108.769 224.152 108.643 223.9 108.391C223.648 108.139 223.522 107.827 223.522 107.455C223.522 107.083 223.648 106.771 223.9 106.519C224.152 106.267 224.464 106.141 224.836 106.141C225.196 106.141 225.502 106.267 225.754 106.519C226.006 106.771 226.132 107.083 226.132 107.455C226.132 107.827 226.006 108.139 225.754 108.391C225.502 108.643 225.196 108.769 224.836 108.769ZM225.844 110.083V120.001H223.792V110.083H225.844ZM240.545 109.921C241.325 109.921 242.021 110.083 242.633 110.407C243.257 110.731 243.743 111.211 244.091 111.847C244.451 112.483 244.631 113.251 244.631 114.151V120.001H242.597V114.457C242.597 113.569 242.375 112.891 241.931 112.423C241.487 111.943 240.881 111.703 240.113 111.703C239.345 111.703 238.733 111.943 238.277 112.423C237.833 112.891 237.611 113.569 237.611 114.457V120.001H235.577V114.457C235.577 113.569 235.355 112.891 234.911 112.423C234.467 111.943 233.861 111.703 233.093 111.703C232.325 111.703 231.713 111.943 231.257 112.423C230.813 112.891 230.591 113.569 230.591 114.457V120.001H228.539V110.083H230.591V111.217C230.927 110.809 231.353 110.491 231.869 110.263C232.385 110.035 232.937 109.921 233.525 109.921C234.317 109.921 235.025 110.089 235.649 110.425C236.273 110.761 236.753 111.247 237.089 111.883C237.389 111.283 237.857 110.809 238.493 110.461C239.129 110.101 239.813 109.921 240.545 109.921Z" fill="#F9FAFB"/>
</g>
<g opacity="0.25">
<path fill-rule="evenodd" clip-rule="evenodd" d="M248.087 80.1679H118.913C99.6005 80.1679 83.9445 95.7622 83.9445 114.999C83.9445 134.236 99.6005 149.83 118.913 149.83H248.087C267.4 149.83 283.056 134.236 283.056 114.999C283.056 95.7622 267.4 80.1679 248.087 80.1679ZM118.913 79.457C99.2065 79.457 83.2305 95.3702 83.2305 114.999C83.2305 134.628 99.2065 150.541 118.913 150.541H248.087C267.794 150.541 283.77 134.628 283.77 114.999C283.77 95.3702 267.794 79.457 248.087 79.457H118.913Z" fill="url(#paint4_radial_468_3826)"/>
<path fill-rule="evenodd" clip-rule="evenodd" d="M252.369 77.326H114.631C93.7414 77.326 76.8074 94.1937 76.8074 115.001C76.8074 135.808 93.7414 152.676 114.631 152.676H252.369C273.259 152.676 290.193 135.808 290.193 115.001C290.193 94.1937 273.259 77.326 252.369 77.326ZM114.631 76.6152C93.3474 76.6152 76.0938 93.8007 76.0938 115.001C76.0938 136.201 93.3474 153.387 114.631 153.387H252.369C273.653 153.387 290.907 136.201 290.907 115.001C290.907 93.8007 273.653 76.6152 252.369 76.6152H114.631Z" fill="url(#paint5_radial_468_3826)"/>
<path fill-rule="evenodd" clip-rule="evenodd" d="M256.651 75.1933H110.349C88.2766 75.1933 70.3835 93.0155 70.3835 115.001C70.3835 136.986 88.2766 154.808 110.349 154.808H256.651C278.723 154.808 296.616 136.986 296.616 115.001C296.616 93.0155 278.723 75.1933 256.651 75.1933ZM110.349 74.4824C87.8826 74.4824 69.6699 92.6225 69.6699 115.001C69.6699 137.379 87.8826 155.519 110.349 155.519H256.651C279.117 155.519 297.33 137.379 297.33 115.001C297.33 92.6225 279.117 74.4824 256.651 74.4824H110.349Z" fill="url(#paint6_radial_468_3826)"/>
<path fill-rule="evenodd" clip-rule="evenodd" d="M260.934 73.0604H106.068C82.8137 73.0604 63.9617 91.8372 63.9617 115C63.9617 138.163 82.8137 156.94 106.068 156.94H260.934C284.188 156.94 303.04 138.163 303.04 115C303.04 91.8372 284.188 73.0604 260.934 73.0604ZM106.068 72.3496C82.4187 72.3496 63.248 91.4452 63.248 115C63.248 138.555 82.4187 157.651 106.068 157.651H260.934C284.583 157.651 303.754 138.555 303.754 115C303.754 91.4452 284.583 72.3496 260.934 72.3496H106.068Z" fill="url(#paint7_radial_468_3826)"/>
<path fill-rule="evenodd" clip-rule="evenodd" d="M264.5 70.9276H102.498C78.0609 70.9276 58.2507 90.6599 58.2507 115C58.2507 139.34 78.0609 159.072 102.498 159.072H264.5C288.937 159.072 308.747 139.34 308.747 115C308.747 90.6599 288.937 70.9276 264.5 70.9276ZM102.498 70.2168C77.6668 70.2168 57.5371 90.2669 57.5371 115C57.5371 139.733 77.6668 159.783 102.498 159.783H264.5C289.331 159.783 309.461 139.733 309.461 115C309.461 90.2669 289.331 70.2168 264.5 70.2168H102.498Z" fill="url(#paint8_radial_468_3826)"/>
<path fill-rule="evenodd" clip-rule="evenodd" d="M268.782 68.0838H98.2161C72.2023 68.0838 51.1141 89.0886 51.1141 115C51.1141 140.911 72.2023 161.916 98.2161 161.916H268.782C294.796 161.916 315.884 140.911 315.884 115C315.884 89.0886 294.796 68.0838 268.782 68.0838ZM98.2161 67.373C71.8082 67.373 50.4004 88.6966 50.4004 115C50.4004 141.303 71.8082 162.627 98.2161 162.627H268.782C295.19 162.627 316.598 141.303 316.598 115C316.598 88.6966 295.19 67.373 268.782 67.373H98.2161Z" fill="url(#paint9_radial_468_3826)"/>
<path fill-rule="evenodd" clip-rule="evenodd" d="M273.065 65.951H93.9352C66.739 65.951 44.6922 87.9102 44.6922 114.999C44.6922 142.088 66.739 164.047 93.9352 164.047H273.065C300.261 164.047 322.308 142.088 322.308 114.999C322.308 87.9102 300.261 65.951 273.065 65.951ZM93.9352 65.2402C66.3449 65.2402 43.9785 87.5182 43.9785 114.999C43.9785 142.48 66.3449 164.758 93.9352 164.758H273.065C300.655 164.758 323.022 142.48 323.022 114.999C323.022 87.5182 300.655 65.2402 273.065 65.2402H93.9352Z" fill="url(#paint10_radial_468_3826)"/>
<path fill-rule="evenodd" clip-rule="evenodd" d="M277.347 63.1092H89.6532C60.8804 63.1092 37.5555 86.3418 37.5555 115.001C37.5555 143.66 60.8804 166.893 89.6532 166.893H277.347C306.12 166.893 329.445 143.66 329.445 115.001C329.445 86.3418 306.12 63.1092 277.347 63.1092ZM89.6532 62.3984C60.4863 62.3984 36.8418 85.9488 36.8418 115.001C36.8418 144.053 60.4863 167.603 89.6532 167.603H277.347C306.514 167.603 330.158 144.053 330.158 115.001C330.158 85.9488 306.514 62.3984 277.347 62.3984H89.6532Z" fill="url(#paint11_radial_468_3826)"/>
<path fill-rule="evenodd" clip-rule="evenodd" d="M280.916 60.9764H86.0855C56.1299 60.9764 31.8465 85.1635 31.8465 115.001C31.8465 144.838 56.1299 169.025 86.0855 169.025H280.916C310.872 169.025 335.155 144.838 335.155 115.001C335.155 85.1635 310.872 60.9764 280.916 60.9764ZM86.0855 60.2656C55.7358 60.2656 31.1328 84.7715 31.1328 115.001C31.1328 145.23 55.7358 169.736 86.0855 169.736H280.916C311.266 169.736 335.869 145.23 335.869 115.001C335.869 84.7715 311.266 60.2656 280.916 60.2656H86.0855Z" fill="url(#paint12_radial_468_3826)"/>
<path fill-rule="evenodd" clip-rule="evenodd" d="M285.197 58.8437H81.8027C50.6647 58.8437 25.4227 83.9863 25.4227 115C25.4227 146.014 50.6647 171.157 81.8027 171.157H285.197C316.335 171.157 341.577 146.014 341.577 115C341.577 83.9863 316.335 58.8437 285.197 58.8437ZM81.8027 58.1328C50.2706 58.1328 24.709 83.5933 24.709 115C24.709 146.407 50.2706 171.867 81.8027 171.867H285.197C316.729 171.867 342.291 146.407 342.291 115C342.291 83.5933 316.729 58.1328 285.197 58.1328H81.8027Z" fill="url(#paint13_radial_468_3826)"/>
<path fill-rule="evenodd" clip-rule="evenodd" d="M288.766 56.7108H78.2343C45.9142 56.7108 19.7137 82.8078 19.7137 115C19.7137 147.192 45.9142 173.289 78.2343 173.289H288.766C321.086 173.289 347.286 147.192 347.286 115C347.286 82.8078 321.086 56.7108 288.766 56.7108ZM78.2343 56C45.5201 56 19 82.4152 19 115C19 147.585 45.5201 174 78.2343 174H288.766C321.48 174 348 147.585 348 115C348 82.4152 321.48 56 288.766 56H78.2343Z" fill="url(#paint14_radial_468_3826)"/>
<path fill-rule="evenodd" clip-rule="evenodd" d="M294.025 55.3731H72.9771C39.9274 55.3731 13.1354 82.0688 13.1354 115C13.1354 147.931 39.9274 174.627 72.9771 174.627H294.025C327.074 174.627 353.867 147.931 353.867 115C353.867 82.0688 327.074 55.3731 294.025 55.3731ZM72.9771 54.1562C39.253 54.1562 11.9141 81.3967 11.9141 115C11.9141 148.603 39.253 175.843 72.9771 175.843H294.025C327.749 175.843 355.088 148.603 355.088 115C355.088 81.3967 327.749 54.1562 294.025 54.1562H72.9771Z" fill="url(#paint15_radial_468_3826)"/>
<path fill-rule="evenodd" clip-rule="evenodd" d="M301.351 50.5059H65.6491C29.9015 50.5059 0.922371 79.3809 0.922371 115C0.922371 150.619 29.9015 179.494 65.6491 179.494H301.351C337.099 179.494 366.078 150.619 366.078 115C366.078 79.3809 337.099 50.5059 301.351 50.5059ZM65.6491 49.2891C29.227 49.2891 -0.298828 78.7088 -0.298828 115C-0.298828 151.291 29.227 180.711 65.6491 180.711H301.351C337.773 180.711 367.299 151.291 367.299 115C367.299 78.7088 337.773 49.2891 301.351 49.2891H65.6491Z" fill="url(#paint16_radial_468_3826)"/>
<path fill-rule="evenodd" clip-rule="evenodd" d="M308.679 46.8556H58.3207C20.5497 46.8556 -10.0697 77.365 -10.0697 115C-10.0697 152.635 20.5497 183.145 58.3207 183.145H308.679C346.45 183.145 377.069 152.635 377.069 115C377.069 77.365 346.45 46.8556 308.679 46.8556ZM58.3207 45.6387C19.8753 45.6387 -11.291 76.6929 -11.291 115C-11.291 153.307 19.8753 184.361 58.3207 184.361H308.679C347.124 184.361 378.291 153.307 378.291 115C378.291 76.6929 347.124 45.6387 308.679 45.6387H58.3207Z" fill="url(#paint17_radial_468_3826)"/>
<path fill-rule="evenodd" clip-rule="evenodd" d="M316.008 43.2051H50.9942C11.1998 43.2051 -21.06 75.3489 -21.06 115C-21.06 154.651 11.1997 186.795 50.9942 186.795H316.008C355.802 186.795 388.062 154.651 388.062 115C388.062 75.3489 355.802 43.2051 316.008 43.2051ZM50.9942 41.9883C10.5253 41.9883 -22.2812 74.6769 -22.2812 115C-22.2812 155.323 10.5253 188.012 50.9942 188.012H316.008C356.476 188.012 389.283 155.323 389.283 115C389.283 74.6769 356.476 41.9883 316.008 41.9883H50.9942Z" fill="url(#paint18_radial_468_3826)"/>
<path fill-rule="evenodd" clip-rule="evenodd" d="M322.112 39.5548H44.8866C3.06866 39.5548 -30.8314 73.333 -30.8314 115.001C-30.8314 156.669 3.06866 190.447 44.8866 190.447H322.112C363.93 190.447 397.83 156.669 397.83 115.001C397.83 73.333 363.93 39.5548 322.112 39.5548ZM44.8866 38.3379C2.39417 38.3379 -32.0527 72.661 -32.0527 115.001C-32.0527 157.341 2.39417 191.664 44.8866 191.664H322.112C364.604 191.664 399.051 157.341 399.051 115.001C399.051 72.661 364.604 38.3379 322.112 38.3379H44.8866Z" fill="url(#paint19_radial_468_3826)"/>
<path fill-rule="evenodd" clip-rule="evenodd" d="M329.441 34.6875H37.5606C-6.95527 34.6875 -43.0425 70.645 -43.0425 115.001C-43.0425 159.357 -6.95527 195.314 37.5606 195.314H329.441C373.957 195.314 410.044 159.357 410.044 115.001C410.044 70.645 373.957 34.6875 329.441 34.6875ZM37.5606 33.4707C-7.62967 33.4707 -44.2637 69.973 -44.2637 115.001C-44.2637 160.029 -7.62977 196.531 37.5606 196.531H329.441C374.632 196.531 411.266 160.029 411.266 115.001C411.266 69.973 374.632 33.4707 329.441 33.4707H37.5606Z" fill="url(#paint20_radial_468_3826)"/>
<path fill-rule="evenodd" clip-rule="evenodd" d="M336.768 31.0352H30.2322C-16.307 31.0352 -54.0346 68.6271 -54.0346 114.999C-54.0346 161.371 -16.307 198.963 30.2322 198.963H336.768C383.307 198.963 421.035 161.371 421.035 114.999C421.035 68.6271 383.307 31.0352 336.768 31.0352ZM30.2322 29.8184C-16.9815 29.8184 -55.2559 67.9551 -55.2559 114.999C-55.2559 162.043 -16.9815 200.18 30.2322 200.18H336.768C383.982 200.18 422.256 162.043 422.256 114.999C422.256 67.9551 383.982 29.8184 336.768 29.8184H30.2322Z" fill="url(#paint21_radial_468_3826)"/>
<path fill-rule="evenodd" clip-rule="evenodd" d="M344.095 26.1681H22.9044C-26.3328 26.1681 -66.2474 65.9392 -66.2474 114.999C-66.2474 164.059 -26.3328 203.83 22.9044 203.83H344.095C393.333 203.83 433.247 164.059 433.247 114.999C433.247 65.9392 393.333 26.1681 344.095 26.1681ZM22.9044 24.9512C-27.0073 24.9512 -67.4688 65.2672 -67.4688 114.999C-67.4688 164.731 -27.0073 205.047 22.9044 205.047H344.095C394.007 205.047 434.469 164.731 434.469 114.999C434.469 65.2672 394.007 24.9512 344.095 24.9512H22.9044Z" fill="url(#paint22_radial_468_3826)"/>
<path fill-rule="evenodd" clip-rule="evenodd" d="M350.202 22.5177H16.7986C-34.4621 22.5177 -76.017 63.9232 -76.017 115C-76.017 166.076 -34.4621 207.482 16.7986 207.482H350.202C401.462 207.482 443.017 166.076 443.017 115C443.017 63.9232 401.462 22.5177 350.202 22.5177ZM16.7986 21.3008C-35.1366 21.3008 -77.2383 63.2512 -77.2383 115C-77.2383 166.748 -35.1366 208.699 16.7986 208.699H350.202C402.137 208.699 444.239 166.748 444.239 115C444.239 63.2512 402.137 21.3008 350.202 21.3008H16.7986Z" fill="url(#paint23_radial_468_3826)"/>
<path fill-rule="evenodd" clip-rule="evenodd" d="M357.528 18.8673H9.47012C-43.814 18.8673 -87.0093 61.9073 -87.0093 115C-87.0093 168.093 -43.814 211.133 9.47012 211.133H357.528C410.812 211.133 454.008 168.093 454.008 115C454.008 61.9073 410.812 18.8673 357.528 18.8673ZM9.47012 17.6504C-44.4884 17.6504 -88.2305 61.2352 -88.2305 115C-88.2305 168.765 -44.4884 212.349 9.47012 212.349H357.528C411.487 212.349 455.229 168.765 455.229 115C455.229 61.2352 411.487 17.6504 357.528 17.6504H9.47012Z" fill="url(#paint24_radial_468_3826)"/>
<path fill-rule="evenodd" clip-rule="evenodd" d="M363.636 15.2169H3.3644C-51.9431 15.2169 -96.7787 59.8913 -96.7787 115C-96.7787 170.109 -51.9431 214.783 3.3644 214.783H363.636C418.943 214.783 463.779 170.109 463.779 115C463.779 59.8913 418.943 15.2169 363.636 15.2169ZM3.3644 14C-52.6176 14 -98 59.2192 -98 115C-98 170.781 -52.6176 216 3.3644 216H363.636C419.618 216 465 170.781 465 115C465 59.2192 419.618 14 363.636 14H3.3644Z" fill="url(#paint25_radial_468_3826)"/>
<path fill-rule="evenodd" clip-rule="evenodd" d="M376.868 10.5055H-9.86807C-67.6903 10.5055 -114.564 57.2891 -114.564 115C-114.564 172.71 -67.6903 219.494 -9.86807 219.494H376.868C434.69 219.494 481.564 172.71 481.564 115C481.564 57.2891 434.69 10.5055 376.868 10.5055ZM-9.86807 8.37305C-68.8704 8.37305 -116.701 56.1113 -116.701 115C-116.701 173.888 -68.8704 221.626 -9.86807 221.626H376.868C435.87 221.626 483.701 173.888 483.701 115C483.701 56.1113 435.87 8.37305 376.868 8.37305H-9.86807Z" fill="url(#paint26_radial_468_3826)"/>
<path fill-rule="evenodd" clip-rule="evenodd" d="M389.689 1.97625H-22.687C-85.2294 1.97625 -135.93 52.5788 -135.93 115C-135.93 177.421 -85.2294 228.024 -22.687 228.024H389.689C452.231 228.024 502.932 177.421 502.932 115C502.932 52.5788 452.231 1.97625 389.689 1.97625ZM-22.687 -0.15625C-86.4094 -0.15625 -138.066 51.4011 -138.066 115C-138.066 178.599 -86.4094 230.157 -22.687 230.157H389.689C453.411 230.157 505.068 178.599 505.068 115C505.068 51.4011 453.411 -0.15625 389.689 -0.15625H-22.687Z" fill="url(#paint27_radial_468_3826)"/>
<path fill-rule="evenodd" clip-rule="evenodd" d="M402.508 -4.42219H-35.5075C-101.59 -4.42219 -155.161 49.0447 -155.161 115C-155.161 180.955 -101.59 234.422 -35.5075 234.422H402.508C468.59 234.422 522.161 180.955 522.161 115C522.161 49.0447 468.59 -4.42219 402.508 -4.42219ZM-35.5075 -6.55469C-102.77 -6.55469 -157.297 47.867 -157.297 115C-157.297 182.133 -102.77 236.554 -35.5075 236.554H402.508C469.77 236.554 524.297 182.133 524.297 115C524.297 47.867 469.77 -6.55469 402.508 -6.55469H-35.5075Z" fill="url(#paint28_radial_468_3826)"/>
<path fill-rule="evenodd" clip-rule="evenodd" d="M415.328 -10.8186H-48.3279C-117.951 -10.8186 -174.39 45.5125 -174.39 115.001C-174.39 184.489 -117.951 240.82 -48.3279 240.82H415.328C484.95 240.82 541.391 184.489 541.391 115.001C541.391 45.5125 484.95 -10.8186 415.328 -10.8186ZM-48.3279 -12.9512C-119.131 -12.9512 -176.527 44.3348 -176.527 115.001C-176.527 185.667 -119.131 242.953 -48.3279 242.953H415.328C486.13 242.953 543.527 185.667 543.527 115.001C543.527 44.3348 486.13 -12.9512 415.328 -12.9512H-48.3279Z" fill="url(#paint29_radial_468_3826)"/>
<path fill-rule="evenodd" clip-rule="evenodd" d="M426.012 -17.2171H-59.0099C-132.173 -17.2171 -191.483 41.9784 -191.483 115C-191.483 188.021 -132.173 247.217 -59.0099 247.217H426.012C499.175 247.217 558.485 188.021 558.485 115C558.485 41.9784 499.175 -17.2171 426.012 -17.2171ZM-59.0099 -19.3496C-133.353 -19.3496 -193.619 40.8007 -193.619 115C-193.619 189.199 -133.353 249.349 -59.0099 249.349H426.012C500.355 249.349 560.621 189.199 560.621 115C560.621 40.8007 500.355 -19.3496 426.012 -19.3496H-59.0099Z" fill="url(#paint30_radial_468_3826)"/>
<path fill-rule="evenodd" clip-rule="evenodd" d="M438.832 -25.7464H-71.8301C-149.713 -25.7464 -212.849 37.2682 -212.849 115.001C-212.849 192.733 -149.713 255.748 -71.8301 255.748H438.832C516.715 255.748 579.851 192.733 579.851 115.001C579.851 37.2682 516.715 -25.7464 438.832 -25.7464ZM-71.8301 -27.8789C-150.893 -27.8789 -214.986 36.0904 -214.986 115.001C-214.986 193.911 -150.893 257.881 -71.8301 257.881H438.832C517.895 257.881 581.988 193.911 581.988 115.001C581.988 36.0904 517.895 -27.8789 438.832 -27.8789H-71.8301Z" fill="url(#paint31_radial_468_3826)"/>
<path fill-rule="evenodd" clip-rule="evenodd" d="M451.651 -32.1448H-84.6505C-166.074 -32.1448 -232.08 33.7341 -232.08 115C-232.08 196.266 -166.074 262.145 -84.6505 262.145H451.651C533.074 262.145 599.08 196.266 599.08 115C599.08 33.7341 533.074 -32.1448 451.651 -32.1448ZM-84.6505 -34.2773C-167.254 -34.2773 -234.217 32.5563 -234.217 115C-234.217 197.443 -167.254 264.277 -84.6505 264.277H451.651C534.254 264.277 601.217 197.443 601.217 115C601.217 32.5563 534.254 -34.2773 451.651 -34.2773H-84.6505Z" fill="url(#paint32_radial_468_3826)"/>
<path fill-rule="evenodd" clip-rule="evenodd" d="M464.471 -40.6741H-97.4707C-183.614 -40.6741 -253.447 29.0238 -253.447 115.001C-253.447 200.978 -183.614 270.676 -97.4707 270.676H464.471C550.614 270.676 620.447 200.978 620.447 115.001C620.447 29.0238 550.614 -40.6741 464.471 -40.6741ZM-97.4707 -42.8066C-184.794 -42.8066 -255.584 27.8461 -255.584 115.001C-255.584 202.156 -184.794 272.808 -97.4707 272.808H464.471C551.794 272.808 622.584 202.156 622.584 115.001C622.584 27.8461 551.794 -42.8066 464.471 -42.8066H-97.4707Z" fill="url(#paint33_radial_468_3826)"/>
<path fill-rule="evenodd" clip-rule="evenodd" d="M475.153 -47.0726H-108.155C-197.838 -47.0726 -270.541 25.4896 -270.541 115C-270.541 204.51 -197.838 277.072 -108.155 277.072H475.153C564.836 277.072 637.539 204.51 637.539 115C637.539 25.4896 564.836 -47.0726 475.153 -47.0726ZM-108.155 -49.2051C-199.018 -49.2051 -272.678 24.3119 -272.678 115C-272.678 205.688 -199.018 279.205 -108.155 279.205H475.153C566.017 279.205 639.676 205.688 639.676 115C639.676 24.3119 566.016 -49.2051 475.153 -49.2051H-108.155Z" fill="url(#paint34_radial_468_3826)"/>
<path fill-rule="evenodd" clip-rule="evenodd" d="M487.975 -53.4691H-120.973C-214.196 -53.4691 -289.769 21.9575 -289.769 115.001C-289.769 208.044 -214.196 283.471 -120.973 283.471H487.975C581.199 283.471 656.771 208.044 656.771 115.001C656.771 21.9575 581.199 -53.4691 487.975 -53.4691ZM-120.973 -55.6016C-215.377 -55.6016 -291.906 20.7797 -291.906 115.001C-291.906 209.222 -215.377 285.603 -120.973 285.603H487.975C582.379 285.603 658.908 209.222 658.908 115.001C658.908 20.7797 582.379 -55.6016 487.975 -55.6016H-120.973Z" fill="url(#paint35_radial_468_3826)"/>
<path fill-rule="evenodd" clip-rule="evenodd" d="M498.657 -59.8675H-131.657C-228.421 -59.8675 -306.863 18.4234 -306.863 115C-306.863 211.577 -228.421 289.867 -131.657 289.867H498.657C595.421 289.867 673.863 211.577 673.863 115C673.863 18.4234 595.421 -59.8675 498.657 -59.8675ZM-131.657 -62C-229.601 -62 -309 17.2456 -309 115C-309 212.754 -229.601 292 -131.657 292H498.657C596.601 292 676 212.754 676 115C676 17.2456 596.601 -62 498.657 -62H-131.657Z" fill="url(#paint36_radial_468_3826)"/>
</g>
</g>
<path d="M375 -8H-7V291H375V-8Z" stroke="url(#paint37_radial_468_3826)" stroke-width="2"/>
</g>
</g>
<defs>
<filter id="filter0_d_468_3826" x="-20" y="-17" width="408" height="325" filterUnits="userSpaceOnUse" color-interpolation-filters="sRGB">
<feFlood flood-opacity="0" result="BackgroundImageFix"/>
<feColorMatrix in="SourceAlpha" type="matrix" values="0 0 0 0 0 0 0 0 0 0 0 0 0 0 0 0 0 0 127 0" result="hardAlpha"/>
<feOffset dy="4"/>
<feGaussianBlur stdDeviation="6"/>
<feComposite in2="hardAlpha" operator="out"/>
<feColorMatrix type="matrix" values="0 0 0 0 0 0 0 0 0 0 0 0 0 0 0 0 0 0 0.03 0"/>
<feBlend mode="normal" in2="BackgroundImageFix" result="effect1_dropShadow_468_3826"/>
<feBlend mode="normal" in="SourceGraphic" in2="effect1_dropShadow_468_3826" result="shape"/>
</filter>
<filter id="filter1_d_468_3826" x="82" y="67" width="204" height="104" filterUnits="userSpaceOnUse" color-interpolation-filters="sRGB">
<feFlood flood-opacity="0" result="BackgroundImageFix"/>
<feColorMatrix in="SourceAlpha" type="matrix" values="0 0 0 0 0 0 0 0 0 0 0 0 0 0 0 0 0 0 127 0" result="hardAlpha"/>
<feOffset dy="5"/>
<feGaussianBlur stdDeviation="8"/>
<feComposite in2="hardAlpha" operator="out"/>
<feColorMatrix type="matrix" values="0 0 0 0 0 0 0 0 0 0 0 0 0 0 0 0 0 0 0.1 0"/>
<feBlend mode="normal" in2="BackgroundImageFix" result="effect1_dropShadow_468_3826"/>
<feBlend mode="normal" in="SourceGraphic" in2="effect1_dropShadow_468_3826" result="shape"/>
</filter>
<linearGradient id="paint0_linear_468_3826" x1="1.0435" y1="13.7922" x2="362.312" y2="242.192" gradientUnits="userSpaceOnUse">
<stop stop-color="white" stop-opacity="0.7"/>
<stop offset="1" stop-color="white"/>
</linearGradient>
<radialGradient id="paint1_radial_468_3826" cx="0" cy="0" r="1" gradientUnits="userSpaceOnUse" gradientTransform="translate(158.175 151.679) rotate(-56.9183) scale(94.1666 182.237)">
<stop stop-color="white" stop-opacity="0"/>
<stop offset="1" stop-color="white"/>
</radialGradient>
<linearGradient id="paint2_linear_468_3826" x1="262" y1="86" x2="210.83" y2="192.41" gradientUnits="userSpaceOnUse">
<stop stop-color="#6B47F5"/>
<stop offset="1" stop-color="#3F3A60"/>
</linearGradient>
<linearGradient id="paint3_linear_468_3826" x1="110.268" y1="89.299" x2="189.722" y2="192.481" gradientUnits="userSpaceOnUse">
<stop stop-color="white" stop-opacity="0.9"/>
<stop offset="1" stop-color="white" stop-opacity="0.4"/>
</linearGradient>
<radialGradient id="paint4_radial_468_3826" cx="0" cy="0" r="1" gradientUnits="userSpaceOnUse" gradientTransform="translate(183.5 114.999) rotate(-89.8695) scale(219.501 692.295)">
<stop stop-color="#BDACFF" stop-opacity="0"/>
<stop offset="1" stop-color="#6B47F5"/>
</radialGradient>
<radialGradient id="paint5_radial_468_3826" cx="0" cy="0" r="1" gradientUnits="userSpaceOnUse" gradientTransform="translate(183.5 115.001) rotate(-89.8695) scale(219.501 692.295)">
<stop stop-color="#BDACFF" stop-opacity="0"/>
<stop offset="1" stop-color="#6B47F5"/>
</radialGradient>
<radialGradient id="paint6_radial_468_3826" cx="0" cy="0" r="1" gradientUnits="userSpaceOnUse" gradientTransform="translate(183.5 115.001) rotate(-89.8695) scale(219.501 692.295)">
<stop stop-color="#BDACFF" stop-opacity="0"/>
<stop offset="1" stop-color="#6B47F5"/>
</radialGradient>
<radialGradient id="paint7_radial_468_3826" cx="0" cy="0" r="1" gradientUnits="userSpaceOnUse" gradientTransform="translate(183.501 115) rotate(-89.8695) scale(219.501 692.295)">
<stop stop-color="#BDACFF" stop-opacity="0"/>
<stop offset="1" stop-color="#6B47F5"/>
</radialGradient>
<radialGradient id="paint8_radial_468_3826" cx="0" cy="0" r="1" gradientUnits="userSpaceOnUse" gradientTransform="translate(183.499 115) rotate(-89.8695) scale(219.501 692.295)">
<stop stop-color="#BDACFF" stop-opacity="0"/>
<stop offset="1" stop-color="#6B47F5"/>
</radialGradient>
<radialGradient id="paint9_radial_468_3826" cx="0" cy="0" r="1" gradientUnits="userSpaceOnUse" gradientTransform="translate(183.499 115) rotate(-89.8695) scale(219.501 692.295)">
<stop stop-color="#BDACFF" stop-opacity="0"/>
<stop offset="1" stop-color="#6B47F5"/>
</radialGradient>
<radialGradient id="paint10_radial_468_3826" cx="0" cy="0" r="1" gradientUnits="userSpaceOnUse" gradientTransform="translate(183.5 114.999) rotate(-89.8695) scale(219.501 692.295)">
<stop stop-color="#BDACFF" stop-opacity="0"/>
<stop offset="1" stop-color="#6B47F5"/>
</radialGradient>
<radialGradient id="paint11_radial_468_3826" cx="0" cy="0" r="1" gradientUnits="userSpaceOnUse" gradientTransform="translate(183.5 115.001) rotate(-89.8695) scale(219.501 692.295)">
<stop stop-color="#BDACFF" stop-opacity="0"/>
<stop offset="1" stop-color="#6B47F5"/>
</radialGradient>
<radialGradient id="paint12_radial_468_3826" cx="0" cy="0" r="1" gradientUnits="userSpaceOnUse" gradientTransform="translate(183.501 115.001) rotate(-89.8695) scale(219.501 692.295)">
<stop stop-color="#BDACFF" stop-opacity="0"/>
<stop offset="1" stop-color="#6B47F5"/>
</radialGradient>
<radialGradient id="paint13_radial_468_3826" cx="0" cy="0" r="1" gradientUnits="userSpaceOnUse" gradientTransform="translate(183.5 115) rotate(-89.8695) scale(219.501 692.295)">
<stop stop-color="#BDACFF" stop-opacity="0"/>
<stop offset="1" stop-color="#6B47F5"/>
</radialGradient>
<radialGradient id="paint14_radial_468_3826" cx="0" cy="0" r="1" gradientUnits="userSpaceOnUse" gradientTransform="translate(183.5 115) rotate(-89.8695) scale(219.501 692.295)">
<stop stop-color="#BDACFF" stop-opacity="0"/>
<stop offset="1" stop-color="#6B47F5"/>
</radialGradient>
<radialGradient id="paint15_radial_468_3826" cx="0" cy="0" r="1" gradientUnits="userSpaceOnUse" gradientTransform="translate(183.501 115) rotate(-89.8695) scale(219.501 692.295)">
<stop stop-color="#BDACFF" stop-opacity="0"/>
<stop offset="1" stop-color="#6B47F5"/>
</radialGradient>
<radialGradient id="paint16_radial_468_3826" cx="0" cy="0" r="1" gradientUnits="userSpaceOnUse" gradientTransform="translate(183.5 115) rotate(-89.8695) scale(219.501 692.295)">
<stop stop-color="#BDACFF" stop-opacity="0"/>
<stop offset="1" stop-color="#6B47F5"/>
</radialGradient>
<radialGradient id="paint17_radial_468_3826" cx="0" cy="0" r="1" gradientUnits="userSpaceOnUse" gradientTransform="translate(183.5 115) rotate(-89.8695) scale(219.501 692.295)">
<stop stop-color="#BDACFF" stop-opacity="0"/>
<stop offset="1" stop-color="#6B47F5"/>
</radialGradient>
<radialGradient id="paint18_radial_468_3826" cx="0" cy="0" r="1" gradientUnits="userSpaceOnUse" gradientTransform="translate(183.501 115) rotate(-89.8695) scale(219.501 692.295)">
<stop stop-color="#BDACFF" stop-opacity="0"/>
<stop offset="1" stop-color="#6B47F5"/>
</radialGradient>
<radialGradient id="paint19_radial_468_3826" cx="0" cy="0" r="1" gradientUnits="userSpaceOnUse" gradientTransform="translate(183.499 115.001) rotate(-89.8695) scale(219.501 692.295)">
<stop stop-color="#BDACFF" stop-opacity="0"/>
<stop offset="1" stop-color="#6B47F5"/>
</radialGradient>
<radialGradient id="paint20_radial_468_3826" cx="0" cy="0" r="1" gradientUnits="userSpaceOnUse" gradientTransform="translate(183.501 115.001) rotate(-89.8695) scale(219.501 692.295)">
<stop stop-color="#BDACFF" stop-opacity="0"/>
<stop offset="1" stop-color="#6B47F5"/>
</radialGradient>
<radialGradient id="paint21_radial_468_3826" cx="0" cy="0" r="1" gradientUnits="userSpaceOnUse" gradientTransform="translate(183.5 114.999) rotate(-89.8695) scale(219.501 692.295)">
<stop stop-color="#BDACFF" stop-opacity="0"/>
<stop offset="1" stop-color="#6B47F5"/>
</radialGradient>
<radialGradient id="paint22_radial_468_3826" cx="0" cy="0" r="1" gradientUnits="userSpaceOnUse" gradientTransform="translate(183.5 114.999) rotate(-89.8695) scale(219.501 692.295)">
<stop stop-color="#BDACFF" stop-opacity="0"/>
<stop offset="1" stop-color="#6B47F5"/>
</radialGradient>
<radialGradient id="paint23_radial_468_3826" cx="0" cy="0" r="1" gradientUnits="userSpaceOnUse" gradientTransform="translate(183.5 115) rotate(-89.8695) scale(219.501 692.295)">
<stop stop-color="#BDACFF" stop-opacity="0"/>
<stop offset="1" stop-color="#6B47F5"/>
</radialGradient>
<radialGradient id="paint24_radial_468_3826" cx="0" cy="0" r="1" gradientUnits="userSpaceOnUse" gradientTransform="translate(183.499 115) rotate(-89.8695) scale(219.501 692.295)">
<stop stop-color="#BDACFF" stop-opacity="0"/>
<stop offset="1" stop-color="#6B47F5"/>
</radialGradient>
<radialGradient id="paint25_radial_468_3826" cx="0" cy="0" r="1" gradientUnits="userSpaceOnUse" gradientTransform="translate(183.5 115) rotate(-89.8695) scale(219.501 692.295)">
<stop stop-color="#BDACFF" stop-opacity="0"/>
<stop offset="1" stop-color="#6B47F5"/>
</radialGradient>
<radialGradient id="paint26_radial_468_3826" cx="0" cy="0" r="1" gradientUnits="userSpaceOnUse" gradientTransform="translate(183.5 115) rotate(-89.8695) scale(219.501 692.295)">
<stop stop-color="#BDACFF" stop-opacity="0"/>
<stop offset="1" stop-color="#6B47F5"/>
</radialGradient>
<radialGradient id="paint27_radial_468_3826" cx="0" cy="0" r="1" gradientUnits="userSpaceOnUse" gradientTransform="translate(183.501 115) rotate(-89.8695) scale(219.501 692.295)">
<stop stop-color="#BDACFF" stop-opacity="0"/>
<stop offset="1" stop-color="#6B47F5"/>
</radialGradient>
<radialGradient id="paint28_radial_468_3826" cx="0" cy="0" r="1" gradientUnits="userSpaceOnUse" gradientTransform="translate(183.5 115) rotate(-89.8695) scale(219.501 692.295)">
<stop stop-color="#BDACFF" stop-opacity="0"/>
<stop offset="1" stop-color="#6B47F5"/>
</radialGradient>
<radialGradient id="paint29_radial_468_3826" cx="0" cy="0" r="1" gradientUnits="userSpaceOnUse" gradientTransform="translate(183.5 115.001) rotate(-89.8695) scale(219.501 692.295)">
<stop stop-color="#BDACFF" stop-opacity="0"/>
<stop offset="1" stop-color="#6B47F5"/>
</radialGradient>
<radialGradient id="paint30_radial_468_3826" cx="0" cy="0" r="1" gradientUnits="userSpaceOnUse" gradientTransform="translate(183.501 115) rotate(-89.8695) scale(219.501 692.295)">
<stop stop-color="#BDACFF" stop-opacity="0"/>
<stop offset="1" stop-color="#6B47F5"/>
</radialGradient>
<radialGradient id="paint31_radial_468_3826" cx="0" cy="0" r="1" gradientUnits="userSpaceOnUse" gradientTransform="translate(183.501 115.001) rotate(-89.8695) scale(219.501 692.295)">
<stop stop-color="#BDACFF" stop-opacity="0"/>
<stop offset="1" stop-color="#6B47F5"/>
</radialGradient>
<radialGradient id="paint32_radial_468_3826" cx="0" cy="0" r="1" gradientUnits="userSpaceOnUse" gradientTransform="translate(183.5 115) rotate(-89.8695) scale(219.501 692.295)">
<stop stop-color="#BDACFF" stop-opacity="0"/>
<stop offset="1" stop-color="#6B47F5"/>
</radialGradient>
<radialGradient id="paint33_radial_468_3826" cx="0" cy="0" r="1" gradientUnits="userSpaceOnUse" gradientTransform="translate(183.5 115.001) rotate(-89.8695) scale(219.501 692.295)">
<stop stop-color="#BDACFF" stop-opacity="0"/>
<stop offset="1" stop-color="#6B47F5"/>
</radialGradient>
<radialGradient id="paint34_radial_468_3826" cx="0" cy="0" r="1" gradientUnits="userSpaceOnUse" gradientTransform="translate(183.499 115) rotate(-89.8695) scale(219.501 692.295)">
<stop stop-color="#BDACFF" stop-opacity="0"/>
<stop offset="1" stop-color="#6B47F5"/>
</radialGradient>
<radialGradient id="paint35_radial_468_3826" cx="0" cy="0" r="1" gradientUnits="userSpaceOnUse" gradientTransform="translate(183.501 115.001) rotate(-89.8695) scale(219.501 692.295)">
<stop stop-color="#BDACFF" stop-opacity="0"/>
<stop offset="1" stop-color="#6B47F5"/>
</radialGradient>
<radialGradient id="paint36_radial_468_3826" cx="0" cy="0" r="1" gradientUnits="userSpaceOnUse" gradientTransform="translate(183.5 115) rotate(-89.8695) scale(219.501 692.295)">
<stop stop-color="#BDACFF" stop-opacity="0"/>
<stop offset="1" stop-color="#6B47F5"/>
</radialGradient>
<radialGradient id="paint37_radial_468_3826" cx="0" cy="0" r="1" gradientUnits="userSpaceOnUse" gradientTransform="translate(126.344 299.018) rotate(-70.8177) scale(349.243 458.609)">
<stop stop-color="white" stop-opacity="0"/>
<stop offset="1" stop-color="white"/>
</radialGradient>
<clipPath id="clip0_468_3826">
<rect width="375" height="286" fill="white"/>
</clipPath>
</defs>
</svg>
