<svg width="274" height="404" viewBox="0 0 274 404" fill="none" xmlns="http://www.w3.org/2000/svg">
<g filter="url(#filter0_b_456_9946)">
<rect width="274" height="404" rx="32" fill="url(#paint0_linear_456_9946)" fill-opacity="0.5"/>
<rect x="0.5" y="0.5" width="273" height="403" rx="31.5" stroke="url(#paint1_linear_456_9946)"/>
<g clip-path="url(#clip0_456_9946)">
<path d="M25.9996 16C31.5225 16 35.9996 20.4772 35.9996 26C35.9996 31.5228 31.5225 36 25.9996 36C25.9996 35.5652 24.6953 26 24.6953 26L25.9996 16Z" fill="#F0F0F0"/>
<path d="M26 36C20.4772 36 16 31.5228 16 26C16 20.4772 20.4772 16 26 16" fill="#496E2D"/>
<path d="M28.1493 24.082L27.3288 25.2127L26 24.7818L26.8218 25.9114L26.0014 27.0421L27.3297 26.6096L28.1515 27.7393L28.1506 26.3424L29.4789 25.9099L28.1502 25.479L28.1493 24.082Z" fill="#D80027"/>
<path d="M26.8289 28.8259C25.2681 28.8259 24.0028 27.5605 24.0028 25.9998C24.0028 24.439 25.2681 23.1737 26.8289 23.1737C27.3155 23.1737 27.7734 23.2967 28.1732 23.5134C27.546 22.9 26.6884 22.5215 25.7419 22.5215C23.8209 22.5215 22.2637 24.0788 22.2637 25.9997C22.2637 27.9207 23.8209 29.478 25.7419 29.478C26.6884 29.478 27.5461 29.0994 28.1732 28.4861C27.7734 28.7028 27.3155 28.8259 26.8289 28.8259Z" fill="#D80027"/>
</g>
<path d="M54.846 28.83H50.59L49.806 31H48.462L51.99 21.298H53.46L56.974 31H55.63L54.846 28.83ZM54.482 27.794L52.718 22.866L50.954 27.794H54.482ZM59.7856 20.64V31H58.5116V20.64H59.7856ZM65.1209 23.202C65.7836 23.202 66.3622 23.3467 66.8569 23.636C67.3609 23.9253 67.7342 24.2893 67.9769 24.728V23.328H69.2649V31.168C69.2649 31.868 69.1156 32.4887 68.8169 33.03C68.5182 33.5807 68.0889 34.01 67.5289 34.318C66.9782 34.626 66.3342 34.78 65.5969 34.78C64.5889 34.78 63.7489 34.542 63.0769 34.066C62.4049 33.59 62.0082 32.9413 61.8869 32.12H63.1469C63.2869 32.5867 63.5762 32.96 64.0149 33.24C64.4536 33.5293 64.9809 33.674 65.5969 33.674C66.2969 33.674 66.8662 33.4547 67.3049 33.016C67.7529 32.5773 67.9769 31.9613 67.9769 31.168V29.558C67.7249 30.006 67.3516 30.3793 66.8569 30.678C66.3622 30.9767 65.7836 31.126 65.1209 31.126C64.4396 31.126 63.8189 30.958 63.2589 30.622C62.7082 30.286 62.2742 29.8147 61.9569 29.208C61.6396 28.6013 61.4809 27.9107 61.4809 27.136C61.4809 26.352 61.6396 25.666 61.9569 25.078C62.2742 24.4807 62.7082 24.0187 63.2589 23.692C63.8189 23.3653 64.4396 23.202 65.1209 23.202ZM67.9769 27.15C67.9769 26.5713 67.8602 26.0673 67.6269 25.638C67.3936 25.2087 67.0762 24.882 66.6749 24.658C66.2829 24.4247 65.8489 24.308 65.3729 24.308C64.8969 24.308 64.4629 24.42 64.0709 24.644C63.6789 24.868 63.3662 25.1947 63.1329 25.624C62.8996 26.0533 62.7829 26.5573 62.7829 27.136C62.7829 27.724 62.8996 28.2373 63.1329 28.676C63.3662 29.1053 63.6789 29.4367 64.0709 29.67C64.4629 29.894 64.8969 30.006 65.3729 30.006C65.8489 30.006 66.2829 29.894 66.6749 29.67C67.0762 29.4367 67.3936 29.1053 67.6269 28.676C67.8602 28.2373 67.9769 27.7287 67.9769 27.15ZM78.4178 26.87C78.4178 27.1127 78.4038 27.3693 78.3758 27.64H72.2438C72.2905 28.396 72.5472 28.9887 73.0138 29.418C73.4898 29.838 74.0638 30.048 74.7358 30.048C75.2865 30.048 75.7438 29.922 76.1078 29.67C76.4812 29.4087 76.7425 29.0633 76.8918 28.634H78.2638C78.0585 29.3713 77.6478 29.9733 77.0318 30.44C76.4158 30.8973 75.6505 31.126 74.7358 31.126C74.0078 31.126 73.3545 30.9627 72.7758 30.636C72.2065 30.3093 71.7585 29.8473 71.4318 29.25C71.1052 28.6433 70.9418 27.9433 70.9418 27.15C70.9418 26.3567 71.1005 25.6613 71.4178 25.064C71.7352 24.4667 72.1785 24.0093 72.7478 23.692C73.3265 23.3653 73.9892 23.202 74.7358 23.202C75.4638 23.202 76.1078 23.3607 76.6678 23.678C77.2278 23.9953 77.6572 24.434 77.9558 24.994C78.2638 25.5447 78.4178 26.17 78.4178 26.87ZM77.1018 26.604C77.1018 26.1187 76.9945 25.7033 76.7798 25.358C76.5652 25.0033 76.2712 24.7373 75.8978 24.56C75.5338 24.3733 75.1278 24.28 74.6798 24.28C74.0358 24.28 73.4852 24.4853 73.0278 24.896C72.5798 25.3067 72.3232 25.876 72.2578 26.604H77.1018ZM81.3735 24.574C81.5975 24.1353 81.9148 23.7947 82.3255 23.552C82.7455 23.3093 83.2542 23.188 83.8515 23.188V24.504H83.5155C82.0875 24.504 81.3735 25.2787 81.3735 26.828V31H80.0995V23.328H81.3735V24.574ZM85.9801 22.082C85.7375 22.082 85.5321 21.998 85.3641 21.83C85.1961 21.662 85.1121 21.4567 85.1121 21.214C85.1121 20.9713 85.1961 20.766 85.3641 20.598C85.5321 20.43 85.7375 20.346 85.9801 20.346C86.2135 20.346 86.4095 20.43 86.5681 20.598C86.7361 20.766 86.8201 20.9713 86.8201 21.214C86.8201 21.4567 86.7361 21.662 86.5681 21.83C86.4095 21.998 86.2135 22.082 85.9801 22.082ZM86.5961 23.328V31H85.3221V23.328H86.5961ZM88.2915 27.136C88.2915 26.352 88.4501 25.666 88.7675 25.078C89.0848 24.4807 89.5188 24.0187 90.0695 23.692C90.6295 23.3653 91.2501 23.202 91.9315 23.202C92.6035 23.202 93.1868 23.3467 93.6815 23.636C94.1761 23.9253 94.5448 24.2893 94.7875 24.728V23.328H96.0755V31H94.7875V29.572C94.5355 30.02 94.1575 30.3933 93.6535 30.692C93.1588 30.9813 92.5801 31.126 91.9175 31.126C91.2361 31.126 90.6201 30.958 90.0695 30.622C89.5188 30.286 89.0848 29.8147 88.7675 29.208C88.4501 28.6013 88.2915 27.9107 88.2915 27.136ZM94.7875 27.15C94.7875 26.5713 94.6708 26.0673 94.4375 25.638C94.2041 25.2087 93.8868 24.882 93.4855 24.658C93.0935 24.4247 92.6595 24.308 92.1835 24.308C91.7075 24.308 91.2735 24.42 90.8815 24.644C90.4895 24.868 90.1768 25.1947 89.9435 25.624C89.7101 26.0533 89.5935 26.5573 89.5935 27.136C89.5935 27.724 89.7101 28.2373 89.9435 28.676C90.1768 29.1053 90.4895 29.4367 90.8815 29.67C91.2735 29.894 91.7075 30.006 92.1835 30.006C92.6595 30.006 93.0935 29.894 93.4855 29.67C93.8868 29.4367 94.2041 29.1053 94.4375 28.676C94.6708 28.2373 94.7875 27.7287 94.7875 27.15Z" fill="#181818"/>
<g clip-path="url(#clip1_456_9946)">
<path d="M132 36C137.523 36 142 31.5228 142 26C142 20.4772 137.523 16 132 16C126.477 16 122 20.4772 122 26C122 31.5228 126.477 36 132 36Z" fill="#F0F0F0"/>
<path d="M131.999 16C129.992 16 128.124 16.5916 126.558 17.6093L129.129 19.3331L125.912 20.9997L129.129 22.6664L125.912 24.333L129.129 25.9995L125.912 27.6661L129.129 29.3327L125.912 30.9995L129.129 32.6661L126.557 34.3904C128.124 35.4083 129.992 36 131.999 36C137.522 36 141.999 31.5228 141.999 26C141.999 20.4772 137.522 16 131.999 16Z" fill="#D80027"/>
</g>
<path d="M159.964 25.974C160.319 26.03 160.641 26.1747 160.93 26.408C161.229 26.6413 161.462 26.9307 161.63 27.276C161.807 27.6213 161.896 27.99 161.896 28.382C161.896 28.8767 161.77 29.3247 161.518 29.726C161.266 30.118 160.897 30.4307 160.412 30.664C159.936 30.888 159.371 31 158.718 31H155.078V21.242H158.578C159.241 21.242 159.805 21.354 160.272 21.578C160.739 21.7927 161.089 22.0867 161.322 22.46C161.555 22.8333 161.672 23.2533 161.672 23.72C161.672 24.2987 161.513 24.7793 161.196 25.162C160.888 25.5353 160.477 25.806 159.964 25.974ZM156.352 25.456H158.494C159.091 25.456 159.553 25.316 159.88 25.036C160.207 24.756 160.37 24.3687 160.37 23.874C160.37 23.3793 160.207 22.992 159.88 22.712C159.553 22.432 159.082 22.292 158.466 22.292H156.352V25.456ZM158.606 29.95C159.241 29.95 159.735 29.8007 160.09 29.502C160.445 29.2033 160.622 28.788 160.622 28.256C160.622 27.7147 160.435 27.29 160.062 26.982C159.689 26.6647 159.189 26.506 158.564 26.506H156.352V29.95H158.606ZM163.188 27.136C163.188 26.352 163.347 25.666 163.664 25.078C163.981 24.4807 164.415 24.0187 164.966 23.692C165.526 23.3653 166.147 23.202 166.828 23.202C167.5 23.202 168.083 23.3467 168.578 23.636C169.073 23.9253 169.441 24.2893 169.684 24.728V23.328H170.972V31H169.684V29.572C169.432 30.02 169.054 30.3933 168.55 30.692C168.055 30.9813 167.477 31.126 166.814 31.126C166.133 31.126 165.517 30.958 164.966 30.622C164.415 30.286 163.981 29.8147 163.664 29.208C163.347 28.6013 163.188 27.9107 163.188 27.136ZM169.684 27.15C169.684 26.5713 169.567 26.0673 169.334 25.638C169.101 25.2087 168.783 24.882 168.382 24.658C167.99 24.4247 167.556 24.308 167.08 24.308C166.604 24.308 166.17 24.42 165.778 24.644C165.386 24.868 165.073 25.1947 164.84 25.624C164.607 26.0533 164.49 26.5573 164.49 27.136C164.49 27.724 164.607 28.2373 164.84 28.676C165.073 29.1053 165.386 29.4367 165.778 29.67C166.17 29.894 166.604 30.006 167.08 30.006C167.556 30.006 167.99 29.894 168.382 29.67C168.783 29.4367 169.101 29.1053 169.334 28.676C169.567 28.2373 169.684 27.7287 169.684 27.15ZM176.933 23.188C177.512 23.188 178.034 23.314 178.501 23.566C178.968 23.8087 179.332 24.1773 179.593 24.672C179.864 25.1667 179.999 25.7687 179.999 26.478V31H178.739V26.66C178.739 25.8947 178.548 25.3113 178.165 24.91C177.782 24.4993 177.26 24.294 176.597 24.294C175.925 24.294 175.388 24.504 174.987 24.924C174.595 25.344 174.399 25.9553 174.399 26.758V31H173.125V20.64H174.399V24.42C174.651 24.028 174.996 23.7247 175.435 23.51C175.883 23.2953 176.382 23.188 176.933 23.188ZM183.354 24.574C183.578 24.1353 183.895 23.7947 184.306 23.552C184.726 23.3093 185.235 23.188 185.832 23.188V24.504H185.496C184.068 24.504 183.354 25.2787 183.354 26.828V31H182.08V23.328H183.354V24.574ZM186.827 27.136C186.827 26.352 186.985 25.666 187.303 25.078C187.62 24.4807 188.054 24.0187 188.605 23.692C189.165 23.3653 189.785 23.202 190.467 23.202C191.139 23.202 191.722 23.3467 192.217 23.636C192.711 23.9253 193.08 24.2893 193.323 24.728V23.328H194.611V31H193.323V29.572C193.071 30.02 192.693 30.3933 192.189 30.692C191.694 30.9813 191.115 31.126 190.453 31.126C189.771 31.126 189.155 30.958 188.605 30.622C188.054 30.286 187.62 29.8147 187.303 29.208C186.985 28.6013 186.827 27.9107 186.827 27.136ZM193.323 27.15C193.323 26.5713 193.206 26.0673 192.973 25.638C192.739 25.2087 192.422 24.882 192.021 24.658C191.629 24.4247 191.195 24.308 190.719 24.308C190.243 24.308 189.809 24.42 189.417 24.644C189.025 24.868 188.712 25.1947 188.479 25.624C188.245 26.0533 188.129 26.5573 188.129 27.136C188.129 27.724 188.245 28.2373 188.479 28.676C188.712 29.1053 189.025 29.4367 189.417 29.67C189.809 29.894 190.243 30.006 190.719 30.006C191.195 30.006 191.629 29.894 192.021 29.67C192.422 29.4367 192.739 29.1053 192.973 28.676C193.206 28.2373 193.323 27.7287 193.323 27.15ZM197.422 22.082C197.179 22.082 196.974 21.998 196.806 21.83C196.638 21.662 196.554 21.4567 196.554 21.214C196.554 20.9713 196.638 20.766 196.806 20.598C196.974 20.43 197.179 20.346 197.422 20.346C197.655 20.346 197.851 20.43 198.01 20.598C198.178 20.766 198.262 20.9713 198.262 21.214C198.262 21.4567 198.178 21.662 198.01 21.83C197.851 21.998 197.655 22.082 197.422 22.082ZM198.038 23.328V31H196.764V23.328H198.038ZM203.947 23.188C204.88 23.188 205.636 23.4727 206.215 24.042C206.794 24.602 207.083 25.414 207.083 26.478V31H205.823V26.66C205.823 25.8947 205.632 25.3113 205.249 24.91C204.866 24.4993 204.344 24.294 203.681 24.294C203.009 24.294 202.472 24.504 202.071 24.924C201.679 25.344 201.483 25.9553 201.483 26.758V31H200.209V23.328H201.483V24.42C201.735 24.028 202.076 23.7247 202.505 23.51C202.944 23.2953 203.424 23.188 203.947 23.188Z" fill="#181818"/>
<g clip-path="url(#clip2_456_9946)">
<path d="M26 80C31.5228 80 36 75.5228 36 70C36 64.4772 31.5228 60 26 60C20.4772 60 16 64.4772 16 70C16 75.5228 20.4772 80 26 80Z" fill="#F0F0F0"/>
<path d="M25.9991 60C21.6995 60 18.034 62.7138 16.6211 66.5218H35.3771C33.9642 62.7138 30.2987 60 25.9991 60Z" fill="#D80027"/>
<path d="M25.9991 80.0003C30.2987 80.0003 33.9642 77.2865 35.3771 73.4785H16.6211C18.034 77.2865 21.6995 80.0003 25.9991 80.0003Z" fill="black"/>
<path d="M29.478 68.9125H26.8693C26.8693 68.4323 26.48 68.043 25.9998 68.043C25.5195 68.043 25.1302 68.4323 25.1302 68.9125H22.5215C22.5215 69.3928 22.9398 69.7821 23.42 69.7821H23.3911C23.3911 70.2624 23.7804 70.6517 24.2606 70.6517C24.2606 71.132 24.6499 71.5213 25.1302 71.5213H26.8693C27.3496 71.5213 27.7389 71.132 27.7389 70.6517C28.2192 70.6517 28.6085 70.2624 28.6085 69.7821H28.5795C29.0598 69.7821 29.478 69.3928 29.478 68.9125Z" fill="#FF9811"/>
</g>
<path d="M50.352 66.278V69.54H53.908V70.59H50.352V73.95H54.328V75H49.078V65.228H54.328V66.278H50.352ZM59.4197 67.202C60.0824 67.202 60.6611 67.3467 61.1557 67.636C61.6597 67.9253 62.0331 68.2893 62.2757 68.728V67.328H63.5637V75.168C63.5637 75.868 63.4144 76.4887 63.1157 77.03C62.8171 77.5807 62.3877 78.01 61.8277 78.318C61.2771 78.626 60.6331 78.78 59.8957 78.78C58.8877 78.78 58.0477 78.542 57.3757 78.066C56.7037 77.59 56.3071 76.9413 56.1857 76.12H57.4457C57.5857 76.5867 57.8751 76.96 58.3137 77.24C58.7524 77.5293 59.2797 77.674 59.8957 77.674C60.5957 77.674 61.1651 77.4547 61.6037 77.016C62.0517 76.5773 62.2757 75.9613 62.2757 75.168V73.558C62.0237 74.006 61.6504 74.3793 61.1557 74.678C60.6611 74.9767 60.0824 75.126 59.4197 75.126C58.7384 75.126 58.1177 74.958 57.5577 74.622C57.0071 74.286 56.5731 73.8147 56.2557 73.208C55.9384 72.6013 55.7797 71.9107 55.7797 71.136C55.7797 70.352 55.9384 69.666 56.2557 69.078C56.5731 68.4807 57.0071 68.0187 57.5577 67.692C58.1177 67.3653 58.7384 67.202 59.4197 67.202ZM62.2757 71.15C62.2757 70.5713 62.1591 70.0673 61.9257 69.638C61.6924 69.2087 61.3751 68.882 60.9737 68.658C60.5817 68.4247 60.1477 68.308 59.6717 68.308C59.1957 68.308 58.7617 68.42 58.3697 68.644C57.9777 68.868 57.6651 69.1947 57.4317 69.624C57.1984 70.0533 57.0817 70.5573 57.0817 71.136C57.0817 71.724 57.1984 72.2373 57.4317 72.676C57.6651 73.1053 57.9777 73.4367 58.3697 73.67C58.7617 73.894 59.1957 74.006 59.6717 74.006C60.1477 74.006 60.5817 73.894 60.9737 73.67C61.3751 73.4367 61.6924 73.1053 61.9257 72.676C62.1591 72.2373 62.2757 71.7287 62.2757 71.15ZM72.3247 67.328L67.7047 78.612H66.3887L67.9007 74.916L64.8067 67.328H66.2207L68.6287 73.544L71.0087 67.328H72.3247ZM74.8793 68.742C75.1313 68.3033 75.5047 67.9393 75.9993 67.65C76.5033 67.3513 77.0867 67.202 77.7493 67.202C78.4307 67.202 79.0467 67.3653 79.5973 67.692C80.1573 68.0187 80.596 68.4807 80.9133 69.078C81.2307 69.666 81.3893 70.352 81.3893 71.136C81.3893 71.9107 81.2307 72.6013 80.9133 73.208C80.596 73.8147 80.1573 74.286 79.5973 74.622C79.0467 74.958 78.4307 75.126 77.7493 75.126C77.096 75.126 76.5173 74.9813 76.0133 74.692C75.5187 74.3933 75.1407 74.0247 74.8793 73.586V78.64H73.6053V67.328H74.8793V68.742ZM80.0873 71.136C80.0873 70.5573 79.9707 70.0533 79.7373 69.624C79.504 69.1947 79.1867 68.868 78.7853 68.644C78.3933 68.42 77.9593 68.308 77.4833 68.308C77.0167 68.308 76.5827 68.4247 76.1813 68.658C75.7893 68.882 75.472 69.2133 75.2293 69.652C74.996 70.0813 74.8793 70.5807 74.8793 71.15C74.8793 71.7287 74.996 72.2373 75.2293 72.676C75.472 73.1053 75.7893 73.4367 76.1813 73.67C76.5827 73.894 77.0167 74.006 77.4833 74.006C77.9593 74.006 78.3933 73.894 78.7853 73.67C79.1867 73.4367 79.504 73.1053 79.7373 72.676C79.9707 72.2373 80.0873 71.724 80.0873 71.136ZM84.6203 68.378V72.9C84.6203 73.2733 84.6996 73.5393 84.8583 73.698C85.0169 73.8473 85.2923 73.922 85.6843 73.922H86.6223V75H85.4743C84.7649 75 84.2329 74.8367 83.8783 74.51C83.5236 74.1833 83.3463 73.6467 83.3463 72.9V68.378H82.3523V67.328H83.3463V65.396H84.6203V67.328H86.6223V68.378H84.6203Z" fill="#181818"/>
<g clip-path="url(#clip3_456_9946)">
<path d="M122 80C127.523 80 132 75.5228 132 70C132 64.4772 127.523 60 122 60C116.477 60 112 64.4772 112 70C112 75.5228 116.477 80 122 80Z" fill="#F0F0F0"/>
<path d="M121.999 60C117.699 60 114.034 62.7138 112.621 66.5218H131.377C129.964 62.7138 126.299 60 121.999 60Z" fill="#A2001D"/>
<path d="M121.999 80.0003C126.299 80.0003 129.964 77.2865 131.377 73.4785H112.621C114.034 77.2865 117.699 80.0003 121.999 80.0003Z" fill="black"/>
<path d="M119.609 69.3471C119.604 69.3471 119.598 69.3475 119.593 69.3476V69.3471H117.681C117.778 68.9727 118.118 68.695 118.522 68.695V67.3906C117.323 67.3906 116.348 68.3659 116.348 69.5645V70.6298V70.6515H119.593H119.609C119.729 70.6515 119.826 70.7491 119.826 70.8689V71.3037H115.479V72.608H121.131V70.8689C121.131 70.0298 120.448 69.3471 119.609 69.3471Z" fill="#496E2D"/>
<path d="M122.871 71.3037V67.3906H121.566V72.608H123.74V71.3037H122.871Z" fill="#496E2D"/>
<path d="M127.217 71.3037V67.3906H125.913V71.3037H125.478V69.9994H124.174V72.6081H128.087V71.3037H127.217Z" fill="#496E2D"/>
</g>
<path d="M146.352 65.242V75H145.078V65.242H146.352ZM149.797 68.574C150.021 68.1353 150.339 67.7947 150.749 67.552C151.169 67.3093 151.678 67.188 152.275 67.188V68.504H151.939C150.511 68.504 149.797 69.2787 149.797 70.828V75H148.523V67.328H149.797V68.574ZM153.27 71.136C153.27 70.352 153.429 69.666 153.746 69.078C154.063 68.4807 154.497 68.0187 155.048 67.692C155.608 67.3653 156.229 67.202 156.91 67.202C157.582 67.202 158.165 67.3467 158.66 67.636C159.155 67.9253 159.523 68.2893 159.766 68.728V67.328H161.054V75H159.766V73.572C159.514 74.02 159.136 74.3933 158.632 74.692C158.137 74.9813 157.559 75.126 156.896 75.126C156.215 75.126 155.599 74.958 155.048 74.622C154.497 74.286 154.063 73.8147 153.746 73.208C153.429 72.6013 153.27 71.9107 153.27 71.136ZM159.766 71.15C159.766 70.5713 159.649 70.0673 159.416 69.638C159.183 69.2087 158.865 68.882 158.464 68.658C158.072 68.4247 157.638 68.308 157.162 68.308C156.686 68.308 156.252 68.42 155.86 68.644C155.468 68.868 155.155 69.1947 154.922 69.624C154.689 70.0533 154.572 70.5573 154.572 71.136C154.572 71.724 154.689 72.2373 154.922 72.676C155.155 73.1053 155.468 73.4367 155.86 73.67C156.252 73.894 156.686 74.006 157.162 74.006C157.638 74.006 158.072 73.894 158.464 73.67C158.865 73.4367 159.183 73.1053 159.416 72.676C159.649 72.2373 159.766 71.7287 159.766 71.15ZM162.731 71.136C162.731 70.352 162.89 69.666 163.207 69.078C163.524 68.4807 163.958 68.0187 164.509 67.692C165.069 67.3653 165.694 67.202 166.385 67.202C167.048 67.202 167.626 67.3513 168.121 67.65C168.625 67.9393 168.994 68.2987 169.227 68.728V67.328H170.515V78.64H169.227V73.586C168.984 74.0153 168.611 74.3793 168.107 74.678C167.603 74.9767 167.015 75.126 166.343 75.126C165.671 75.126 165.06 74.958 164.509 74.622C163.958 74.286 163.524 73.8147 163.207 73.208C162.89 72.6013 162.731 71.9107 162.731 71.136ZM169.227 71.15C169.227 70.5713 169.11 70.0673 168.877 69.638C168.644 69.2087 168.326 68.882 167.925 68.658C167.533 68.4247 167.099 68.308 166.623 68.308C166.147 68.308 165.713 68.42 165.321 68.644C164.929 68.868 164.616 69.1947 164.383 69.624C164.15 70.0533 164.033 70.5573 164.033 71.136C164.033 71.724 164.15 72.2373 164.383 72.676C164.616 73.1053 164.929 73.4367 165.321 73.67C165.713 73.894 166.147 74.006 166.623 74.006C167.099 74.006 167.533 73.894 167.925 73.67C168.326 73.4367 168.644 73.1053 168.877 72.676C169.11 72.2373 169.227 71.7287 169.227 71.15Z" fill="#181818"/>
<g clip-path="url(#clip4_456_9946)">
<path d="M26 124C31.5228 124 36 119.523 36 114C36 108.477 31.5228 104 26 104C20.4772 104 16 108.477 16 114C16 119.523 20.4772 124 26 124Z" fill="#F0F0F0"/>
<path d="M22.0874 110.522H35.3784C33.9655 106.714 30.3 104 26.0004 104C23.2389 104 20.7392 105.119 18.9297 106.929L22.0874 110.522Z" fill="black"/>
<path d="M22.0874 117.479H35.3784C33.9655 121.287 30.3 124 26.0004 124C23.2389 124 20.7392 122.881 18.9297 121.071L22.0874 117.479Z" fill="#6DA544"/>
<path d="M18.9289 106.93C15.0237 110.835 15.0237 117.167 18.9289 121.072C20.5427 119.458 22.0948 117.906 26 114.001L18.9289 106.93Z" fill="#D80027"/>
<path d="M19.97 111.826L20.5188 112.974L21.7582 112.687L21.2032 113.832L22.1998 114.622L20.9589 114.902L20.9624 116.174L19.97 115.378L18.9777 116.174L18.9811 114.902L17.7402 114.622L18.7369 113.832L18.1819 112.687L19.4212 112.974L19.97 111.826Z" fill="#F0F0F0"/>
</g>
<path d="M53.992 109.242V116.452C53.992 117.255 53.7447 117.899 53.25 118.384C52.7553 118.86 52.102 119.098 51.29 119.098C50.4687 119.098 49.8107 118.855 49.316 118.37C48.8213 117.875 48.574 117.203 48.574 116.354H49.848C49.8573 116.83 49.9787 117.217 50.212 117.516C50.4547 117.815 50.814 117.964 51.29 117.964C51.766 117.964 52.1207 117.824 52.354 117.544C52.5873 117.255 52.704 116.891 52.704 116.452V109.242H53.992ZM59.8478 119.126C59.1292 119.126 58.4758 118.963 57.8878 118.636C57.3092 118.309 56.8518 117.847 56.5158 117.25C56.1892 116.643 56.0258 115.943 56.0258 115.15C56.0258 114.366 56.1938 113.675 56.5298 113.078C56.8752 112.471 57.3418 112.009 57.9298 111.692C58.5178 111.365 59.1758 111.202 59.9038 111.202C60.6318 111.202 61.2898 111.365 61.8778 111.692C62.4658 112.009 62.9278 112.467 63.2638 113.064C63.6092 113.661 63.7818 114.357 63.7818 115.15C63.7818 115.943 63.6045 116.643 63.2498 117.25C62.9045 117.847 62.4332 118.309 61.8358 118.636C61.2385 118.963 60.5758 119.126 59.8478 119.126ZM59.8478 118.006C60.3052 118.006 60.7345 117.899 61.1358 117.684C61.5372 117.469 61.8592 117.147 62.1018 116.718C62.3538 116.289 62.4798 115.766 62.4798 115.15C62.4798 114.534 62.3585 114.011 62.1158 113.582C61.8732 113.153 61.5558 112.835 61.1638 112.63C60.7718 112.415 60.3472 112.308 59.8898 112.308C59.4232 112.308 58.9938 112.415 58.6018 112.63C58.2192 112.835 57.9112 113.153 57.6778 113.582C57.4445 114.011 57.3278 114.534 57.3278 115.15C57.3278 115.775 57.4398 116.303 57.6638 116.732C57.8972 117.161 58.2052 117.483 58.5878 117.698C58.9705 117.903 59.3905 118.006 59.8478 118.006ZM66.7309 112.574C66.9549 112.135 67.2722 111.795 67.6829 111.552C68.1029 111.309 68.6116 111.188 69.2089 111.188V112.504H68.8729C67.4449 112.504 66.7309 113.279 66.7309 114.828V119H65.4569V111.328H66.7309V112.574ZM70.2036 115.136C70.2036 114.352 70.3622 113.666 70.6796 113.078C70.9969 112.481 71.4309 112.019 71.9816 111.692C72.5416 111.365 73.1669 111.202 73.8576 111.202C74.4549 111.202 75.0102 111.342 75.5236 111.622C76.0369 111.893 76.4289 112.252 76.6996 112.7V108.64H77.9876V119H76.6996V117.558C76.4476 118.015 76.0742 118.393 75.5796 118.692C75.0849 118.981 74.5062 119.126 73.8436 119.126C73.1622 119.126 72.5416 118.958 71.9816 118.622C71.4309 118.286 70.9969 117.815 70.6796 117.208C70.3622 116.601 70.2036 115.911 70.2036 115.136ZM76.6996 115.15C76.6996 114.571 76.5829 114.067 76.3496 113.638C76.1162 113.209 75.7989 112.882 75.3976 112.658C75.0056 112.425 74.5716 112.308 74.0956 112.308C73.6196 112.308 73.1856 112.42 72.7936 112.644C72.4016 112.868 72.0889 113.195 71.8556 113.624C71.6222 114.053 71.5056 114.557 71.5056 115.136C71.5056 115.724 71.6222 116.237 71.8556 116.676C72.0889 117.105 72.4016 117.437 72.7936 117.67C73.1856 117.894 73.6196 118.006 74.0956 118.006C74.5716 118.006 75.0056 117.894 75.3976 117.67C75.7989 117.437 76.1162 117.105 76.3496 116.676C76.5829 116.237 76.6996 115.729 76.6996 115.15ZM79.6645 115.136C79.6645 114.352 79.8232 113.666 80.1405 113.078C80.4578 112.481 80.8918 112.019 81.4425 111.692C82.0025 111.365 82.6232 111.202 83.3045 111.202C83.9765 111.202 84.5598 111.347 85.0545 111.636C85.5492 111.925 85.9178 112.289 86.1605 112.728V111.328H87.4485V119H86.1605V117.572C85.9085 118.02 85.5305 118.393 85.0265 118.692C84.5318 118.981 83.9532 119.126 83.2905 119.126C82.6092 119.126 81.9932 118.958 81.4425 118.622C80.8918 118.286 80.4578 117.815 80.1405 117.208C79.8232 116.601 79.6645 115.911 79.6645 115.136ZM86.1605 115.15C86.1605 114.571 86.0438 114.067 85.8105 113.638C85.5772 113.209 85.2598 112.882 84.8585 112.658C84.4665 112.425 84.0325 112.308 83.5565 112.308C83.0805 112.308 82.6465 112.42 82.2545 112.644C81.8625 112.868 81.5498 113.195 81.3165 113.624C81.0832 114.053 80.9665 114.557 80.9665 115.136C80.9665 115.724 81.0832 116.237 81.3165 116.676C81.5498 117.105 81.8625 117.437 82.2545 117.67C82.6465 117.894 83.0805 118.006 83.5565 118.006C84.0325 118.006 84.4665 117.894 84.8585 117.67C85.2598 117.437 85.5772 117.105 85.8105 116.676C86.0438 116.237 86.1605 115.729 86.1605 115.15ZM93.3394 111.188C94.2728 111.188 95.0288 111.473 95.6074 112.042C96.1861 112.602 96.4754 113.414 96.4754 114.478V119H95.2154V114.66C95.2154 113.895 95.0241 113.311 94.6414 112.91C94.2588 112.499 93.7361 112.294 93.0734 112.294C92.4014 112.294 91.8648 112.504 91.4634 112.924C91.0714 113.344 90.8754 113.955 90.8754 114.758V119H89.6014V111.328H90.8754V112.42C91.1274 112.028 91.4681 111.725 91.8974 111.51C92.3361 111.295 92.8168 111.188 93.3394 111.188Z" fill="#181818"/>
<g clip-path="url(#clip5_456_9946)">
<path d="M141.378 117.478C141.78 116.395 142 115.223 142 114C142 112.777 141.78 111.605 141.378 110.522L132 109.652L122.622 110.522C122.22 111.605 122 112.777 122 114C122 115.223 122.22 116.395 122.622 117.478L132 118.348L141.378 117.478Z" fill="#F0F0F0"/>
<path d="M131.999 124C136.299 124 139.964 121.287 141.377 117.479H122.621C124.034 121.287 127.699 124 131.999 124Z" fill="#D80027"/>
<path d="M131.999 104C127.699 104 124.034 106.714 122.621 110.522H141.377C139.964 106.714 136.299 104 131.999 104Z" fill="#6DA544"/>
<path d="M124.929 106.93C121.024 110.835 121.024 117.167 124.929 121.072C125.948 120.053 126.943 119.058 128.522 117.479V110.523L124.929 106.93Z" fill="black"/>
</g>
<path d="M160.37 119L156.352 114.548V119H155.078V109.242H156.352V113.764L160.384 109.242H161.994L157.57 114.128L162.036 119H160.37ZM170.263 111.328V119H168.989V117.866C168.746 118.258 168.406 118.566 167.967 118.79C167.538 119.005 167.062 119.112 166.539 119.112C165.942 119.112 165.405 118.991 164.929 118.748C164.453 118.496 164.075 118.123 163.795 117.628C163.524 117.133 163.389 116.531 163.389 115.822V111.328H164.649V115.654C164.649 116.41 164.84 116.993 165.223 117.404C165.606 117.805 166.128 118.006 166.791 118.006C167.472 118.006 168.009 117.796 168.401 117.376C168.793 116.956 168.989 116.345 168.989 115.542V111.328H170.263ZM182.634 111.328L180.24 119H178.924L177.076 112.91L175.228 119H173.912L171.504 111.328H172.806L174.57 117.768L176.474 111.328H177.776L179.638 117.782L181.374 111.328H182.634ZM183.422 115.136C183.422 114.352 183.581 113.666 183.898 113.078C184.216 112.481 184.65 112.019 185.2 111.692C185.76 111.365 186.381 111.202 187.062 111.202C187.734 111.202 188.318 111.347 188.812 111.636C189.307 111.925 189.676 112.289 189.918 112.728V111.328H191.206V119H189.918V117.572C189.666 118.02 189.288 118.393 188.784 118.692C188.29 118.981 187.711 119.126 187.048 119.126C186.367 119.126 185.751 118.958 185.2 118.622C184.65 118.286 184.216 117.815 183.898 117.208C183.581 116.601 183.422 115.911 183.422 115.136ZM189.918 115.15C189.918 114.571 189.802 114.067 189.568 113.638C189.335 113.209 189.018 112.882 188.616 112.658C188.224 112.425 187.79 112.308 187.314 112.308C186.838 112.308 186.404 112.42 186.012 112.644C185.62 112.868 185.308 113.195 185.074 113.624C184.841 114.053 184.724 114.557 184.724 115.136C184.724 115.724 184.841 116.237 185.074 116.676C185.308 117.105 185.62 117.437 186.012 117.67C186.404 117.894 186.838 118.006 187.314 118.006C187.79 118.006 188.224 117.894 188.616 117.67C189.018 117.437 189.335 117.105 189.568 116.676C189.802 116.237 189.918 115.729 189.918 115.15ZM194.017 110.082C193.775 110.082 193.569 109.998 193.401 109.83C193.233 109.662 193.149 109.457 193.149 109.214C193.149 108.971 193.233 108.766 193.401 108.598C193.569 108.43 193.775 108.346 194.017 108.346C194.251 108.346 194.447 108.43 194.605 108.598C194.773 108.766 194.857 108.971 194.857 109.214C194.857 109.457 194.773 109.662 194.605 109.83C194.447 109.998 194.251 110.082 194.017 110.082ZM194.633 111.328V119H193.359V111.328H194.633ZM198.359 112.378V116.9C198.359 117.273 198.438 117.539 198.597 117.698C198.755 117.847 199.031 117.922 199.423 117.922H200.361V119H199.213C198.503 119 197.971 118.837 197.617 118.51C197.262 118.183 197.085 117.647 197.085 116.9V112.378H196.091V111.328H197.085V109.396H198.359V111.328H200.361V112.378H198.359Z" fill="#181818"/>
<g clip-path="url(#clip6_456_9946)">
<path d="M26 168C31.5228 168 36 163.523 36 158C36 152.477 31.5228 148 26 148C20.4772 148 16 152.477 16 158C16 163.523 20.4772 168 26 168Z" fill="#F0F0F0"/>
<path d="M26.0019 148C22.0373 148 18.6116 150.307 16.9941 153.652H35.0096C33.3921 150.307 29.9664 148 26.0019 148Z" fill="#D80027"/>
<path d="M26.0019 168C29.9664 168 33.3921 165.693 35.0096 162.348H16.9941C18.6116 165.693 22.0373 168 26.0019 168Z" fill="#D80027"/>
<path d="M28.608 159.74L25.9993 154.957L23.3906 159.74H25.3471V161.044H26.6515V159.74H28.608Z" fill="#6DA544"/>
</g>
<path d="M50.352 161.964H53.768V163H49.078V153.242H50.352V161.964ZM62.121 158.87C62.121 159.113 62.107 159.369 62.079 159.64H55.947C55.9936 160.396 56.2503 160.989 56.717 161.418C57.193 161.838 57.767 162.048 58.439 162.048C58.9896 162.048 59.447 161.922 59.811 161.67C60.1843 161.409 60.4456 161.063 60.595 160.634H61.967C61.7616 161.371 61.351 161.973 60.735 162.44C60.119 162.897 59.3536 163.126 58.439 163.126C57.711 163.126 57.0576 162.963 56.479 162.636C55.9096 162.309 55.4616 161.847 55.135 161.25C54.8083 160.643 54.645 159.943 54.645 159.15C54.645 158.357 54.8036 157.661 55.121 157.064C55.4383 156.467 55.8816 156.009 56.451 155.692C57.0296 155.365 57.6923 155.202 58.439 155.202C59.167 155.202 59.811 155.361 60.371 155.678C60.931 155.995 61.3603 156.434 61.659 156.994C61.967 157.545 62.121 158.17 62.121 158.87ZM60.805 158.604C60.805 158.119 60.6976 157.703 60.483 157.358C60.2683 157.003 59.9743 156.737 59.601 156.56C59.237 156.373 58.831 156.28 58.383 156.28C57.739 156.28 57.1883 156.485 56.731 156.896C56.283 157.307 56.0263 157.876 55.961 158.604H60.805ZM65.0766 156.756C65.3379 156.299 65.7206 155.925 66.2246 155.636C66.7286 155.347 67.3026 155.202 67.9466 155.202C68.6373 155.202 69.2579 155.365 69.8086 155.692C70.3593 156.019 70.7933 156.481 71.1106 157.078C71.4279 157.666 71.5866 158.352 71.5866 159.136C71.5866 159.911 71.4279 160.601 71.1106 161.208C70.7933 161.815 70.3546 162.286 69.7946 162.622C69.2439 162.958 68.6279 163.126 67.9466 163.126C67.2839 163.126 66.7006 162.981 66.1966 162.692C65.7019 162.403 65.3286 162.034 65.0766 161.586V163H63.8026V152.64H65.0766V156.756ZM70.2846 159.136C70.2846 158.557 70.1679 158.053 69.9346 157.624C69.7013 157.195 69.3839 156.868 68.9826 156.644C68.5906 156.42 68.1566 156.308 67.6806 156.308C67.2139 156.308 66.7799 156.425 66.3786 156.658C65.9866 156.882 65.6693 157.213 65.4266 157.652C65.1933 158.081 65.0766 158.581 65.0766 159.15C65.0766 159.729 65.1933 160.237 65.4266 160.676C65.6693 161.105 65.9866 161.437 66.3786 161.67C66.7799 161.894 67.2139 162.006 67.6806 162.006C68.1566 162.006 68.5906 161.894 68.9826 161.67C69.3839 161.437 69.7013 161.105 69.9346 160.676C70.1679 160.237 70.2846 159.724 70.2846 159.136ZM72.7875 159.136C72.7875 158.352 72.9462 157.666 73.2635 157.078C73.5809 156.481 74.0149 156.019 74.5655 155.692C75.1255 155.365 75.7462 155.202 76.4275 155.202C77.0995 155.202 77.6829 155.347 78.1775 155.636C78.6722 155.925 79.0409 156.289 79.2835 156.728V155.328H80.5715V163H79.2835V161.572C79.0315 162.02 78.6535 162.393 78.1495 162.692C77.6549 162.981 77.0762 163.126 76.4135 163.126C75.7322 163.126 75.1162 162.958 74.5655 162.622C74.0149 162.286 73.5809 161.815 73.2635 161.208C72.9462 160.601 72.7875 159.911 72.7875 159.136ZM79.2835 159.15C79.2835 158.571 79.1669 158.067 78.9335 157.638C78.7002 157.209 78.3829 156.882 77.9815 156.658C77.5895 156.425 77.1555 156.308 76.6795 156.308C76.2035 156.308 75.7695 156.42 75.3775 156.644C74.9855 156.868 74.6729 157.195 74.4395 157.624C74.2062 158.053 74.0895 158.557 74.0895 159.136C74.0895 159.724 74.2062 160.237 74.4395 160.676C74.6729 161.105 74.9855 161.437 75.3775 161.67C75.7695 161.894 76.2035 162.006 76.6795 162.006C77.1555 162.006 77.5895 161.894 77.9815 161.67C78.3829 161.437 78.7002 161.105 78.9335 160.676C79.1669 160.237 79.2835 159.729 79.2835 159.15ZM86.4625 155.188C87.3958 155.188 88.1518 155.473 88.7305 156.042C89.3092 156.602 89.5985 157.414 89.5985 158.478V163H88.3385V158.66C88.3385 157.895 88.1472 157.311 87.7645 156.91C87.3818 156.499 86.8592 156.294 86.1965 156.294C85.5245 156.294 84.9878 156.504 84.5865 156.924C84.1945 157.344 83.9985 157.955 83.9985 158.758V163H82.7245V155.328H83.9985V156.42C84.2505 156.028 84.5912 155.725 85.0205 155.51C85.4592 155.295 85.9398 155.188 86.4625 155.188ZM95.0256 163.126C94.3069 163.126 93.6536 162.963 93.0656 162.636C92.4869 162.309 92.0296 161.847 91.6936 161.25C91.3669 160.643 91.2036 159.943 91.2036 159.15C91.2036 158.366 91.3716 157.675 91.7076 157.078C92.0529 156.471 92.5196 156.009 93.1076 155.692C93.6956 155.365 94.3536 155.202 95.0816 155.202C95.8096 155.202 96.4676 155.365 97.0556 155.692C97.6436 156.009 98.1056 156.467 98.4416 157.064C98.7869 157.661 98.9596 158.357 98.9596 159.15C98.9596 159.943 98.7822 160.643 98.4276 161.25C98.0822 161.847 97.6109 162.309 97.0136 162.636C96.4162 162.963 95.7536 163.126 95.0256 163.126ZM95.0256 162.006C95.4829 162.006 95.9122 161.899 96.3136 161.684C96.7149 161.469 97.0369 161.147 97.2796 160.718C97.5316 160.289 97.6576 159.766 97.6576 159.15C97.6576 158.534 97.5362 158.011 97.2936 157.582C97.0509 157.153 96.7336 156.835 96.3416 156.63C95.9496 156.415 95.5249 156.308 95.0676 156.308C94.6009 156.308 94.1716 156.415 93.7796 156.63C93.3969 156.835 93.0889 157.153 92.8556 157.582C92.6222 158.011 92.5056 158.534 92.5056 159.15C92.5056 159.775 92.6176 160.303 92.8416 160.732C93.0749 161.161 93.3829 161.483 93.7656 161.698C94.1482 161.903 94.5682 162.006 95.0256 162.006ZM104.373 155.188C105.306 155.188 106.062 155.473 106.641 156.042C107.219 156.602 107.509 157.414 107.509 158.478V163H106.249V158.66C106.249 157.895 106.057 157.311 105.675 156.91C105.292 156.499 104.769 156.294 104.107 156.294C103.435 156.294 102.898 156.504 102.497 156.924C102.105 157.344 101.909 157.955 101.909 158.758V163H100.635V155.328H101.909V156.42C102.161 156.028 102.501 155.725 102.931 155.51C103.369 155.295 103.85 155.188 104.373 155.188Z" fill="#181818"/>
<g clip-path="url(#clip7_456_9946)">
<path d="M133.992 153.651C133.357 154.966 133 156.44 133 157.999C133 159.557 133.357 161.032 133.992 162.346L143 163.216L152.008 162.346C152.643 161.032 153 159.557 153 157.999C153 156.44 152.643 154.966 152.008 153.651L143 152.781L133.992 153.651Z" fill="black"/>
<path d="M133.992 162.348C135.61 165.693 139.035 168 143 168C146.964 168 150.39 165.693 152.007 162.348H133.992Z" fill="#496E2D"/>
<path d="M133.992 153.652H152.007C150.39 150.307 146.964 148 143 148C139.035 148 135.61 150.307 133.992 153.652Z" fill="#D80027"/>
<path d="M145.326 156.172L146.146 157.303L147.475 156.872L146.653 158.001L147.474 159.132L146.145 158.699L145.324 159.829L145.324 158.432L143.996 158L145.325 157.569L145.326 156.172Z" fill="#F0F0F0"/>
<path d="M143.087 160.826C141.526 160.826 140.261 159.561 140.261 158C140.261 156.439 141.526 155.174 143.087 155.174C143.573 155.174 144.031 155.297 144.431 155.513C143.804 154.9 142.946 154.521 142 154.521C140.079 154.521 138.521 156.079 138.521 158C138.521 159.921 140.079 161.478 142 161.478C142.946 161.478 143.804 161.099 144.431 160.486C144.031 160.703 143.573 160.826 143.087 160.826Z" fill="#F0F0F0"/>
</g>
<path d="M167.352 161.964H170.768V163H166.078V153.242H167.352V161.964ZM172.779 154.082C172.536 154.082 172.331 153.998 172.163 153.83C171.995 153.662 171.911 153.457 171.911 153.214C171.911 152.971 171.995 152.766 172.163 152.598C172.331 152.43 172.536 152.346 172.779 152.346C173.012 152.346 173.208 152.43 173.367 152.598C173.535 152.766 173.619 152.971 173.619 153.214C173.619 153.457 173.535 153.662 173.367 153.83C173.208 153.998 173.012 154.082 172.779 154.082ZM173.395 155.328V163H172.121V155.328H173.395ZM176.84 156.756C177.102 156.299 177.484 155.925 177.988 155.636C178.492 155.347 179.066 155.202 179.71 155.202C180.401 155.202 181.022 155.365 181.572 155.692C182.123 156.019 182.557 156.481 182.874 157.078C183.192 157.666 183.35 158.352 183.35 159.136C183.35 159.911 183.192 160.601 182.874 161.208C182.557 161.815 182.118 162.286 181.558 162.622C181.008 162.958 180.392 163.126 179.71 163.126C179.048 163.126 178.464 162.981 177.96 162.692C177.466 162.403 177.092 162.034 176.84 161.586V163H175.566V152.64H176.84V156.756ZM182.048 159.136C182.048 158.557 181.932 158.053 181.698 157.624C181.465 157.195 181.148 156.868 180.746 156.644C180.354 156.42 179.92 156.308 179.444 156.308C178.978 156.308 178.544 156.425 178.142 156.658C177.75 156.882 177.433 157.213 177.19 157.652C176.957 158.081 176.84 158.581 176.84 159.15C176.84 159.729 176.957 160.237 177.19 160.676C177.433 161.105 177.75 161.437 178.142 161.67C178.544 161.894 178.978 162.006 179.444 162.006C179.92 162.006 180.354 161.894 180.746 161.67C181.148 161.437 181.465 161.105 181.698 160.676C181.932 160.237 182.048 159.724 182.048 159.136ZM191.635 155.328L187.015 166.612H185.699L187.211 162.916L184.117 155.328H185.531L187.939 161.544L190.319 155.328H191.635ZM192.44 159.136C192.44 158.352 192.599 157.666 192.916 157.078C193.233 156.481 193.667 156.019 194.218 155.692C194.778 155.365 195.399 155.202 196.08 155.202C196.752 155.202 197.335 155.347 197.83 155.636C198.325 155.925 198.693 156.289 198.936 156.728V155.328H200.224V163H198.936V161.572C198.684 162.02 198.306 162.393 197.802 162.692C197.307 162.981 196.729 163.126 196.066 163.126C195.385 163.126 194.769 162.958 194.218 162.622C193.667 162.286 193.233 161.815 192.916 161.208C192.599 160.601 192.44 159.911 192.44 159.136ZM198.936 159.15C198.936 158.571 198.819 158.067 198.586 157.638C198.353 157.209 198.035 156.882 197.634 156.658C197.242 156.425 196.808 156.308 196.332 156.308C195.856 156.308 195.422 156.42 195.03 156.644C194.638 156.868 194.325 157.195 194.092 157.624C193.859 158.053 193.742 158.557 193.742 159.136C193.742 159.724 193.859 160.237 194.092 160.676C194.325 161.105 194.638 161.437 195.03 161.67C195.422 161.894 195.856 162.006 196.332 162.006C196.808 162.006 197.242 161.894 197.634 161.67C198.035 161.437 198.353 161.105 198.586 160.676C198.819 160.237 198.936 159.729 198.936 159.15Z" fill="#181818"/>
<g clip-path="url(#clip8_456_9946)">
<path d="M26 212C31.5228 212 36 207.523 36 202C36 196.477 31.5228 192 26 192C20.4772 192 16 196.477 16 202C16 207.523 20.4772 212 26 212Z" fill="#D80027"/>
<path d="M31.9102 200.207H27.3945L26 195.914L24.6055 200.207H20.0898L23.7422 202.859L22.3477 207.152L26 204.5L29.6523 207.152L28.2578 202.859L31.9102 200.207ZM24.7656 202.527L25.2383 201.074H26.7656L27.2383 202.527L26.0039 203.426L24.7656 202.527ZM26.4805 200.207H25.5195L26 198.727L26.4805 200.207ZM27.9766 201.992L27.6797 201.078H29.2344L27.9766 201.992ZM24.3242 201.078L24.0273 201.992L22.7695 201.078H24.3242ZM24 204.879L24.4805 203.398L25.2578 203.965L24 204.879ZM26.7383 203.965L27.5156 203.398L27.9961 204.879L26.7383 203.965Z" fill="#6DA544"/>
</g>
<path d="M58.976 197.312V207H57.702V199.776L54.482 207H53.586L50.352 199.762V207H49.078V197.312H50.45L54.034 205.32L57.618 197.312H58.976ZM64.4826 207.126C63.7639 207.126 63.1106 206.963 62.5226 206.636C61.9439 206.309 61.4866 205.847 61.1506 205.25C60.8239 204.643 60.6606 203.943 60.6606 203.15C60.6606 202.366 60.8286 201.675 61.1646 201.078C61.5099 200.471 61.9766 200.009 62.5646 199.692C63.1526 199.365 63.8106 199.202 64.5386 199.202C65.2666 199.202 65.9246 199.365 66.5126 199.692C67.1006 200.009 67.5626 200.467 67.8986 201.064C68.2439 201.661 68.4166 202.357 68.4166 203.15C68.4166 203.943 68.2393 204.643 67.8846 205.25C67.5393 205.847 67.0679 206.309 66.4706 206.636C65.8733 206.963 65.2106 207.126 64.4826 207.126ZM64.4826 206.006C64.9399 206.006 65.3693 205.899 65.7706 205.684C66.1719 205.469 66.4939 205.147 66.7366 204.718C66.9886 204.289 67.1146 203.766 67.1146 203.15C67.1146 202.534 66.9933 202.011 66.7506 201.582C66.5079 201.153 66.1906 200.835 65.7986 200.63C65.4066 200.415 64.9819 200.308 64.5246 200.308C64.0579 200.308 63.6286 200.415 63.2366 200.63C62.8539 200.835 62.5459 201.153 62.3126 201.582C62.0793 202.011 61.9626 202.534 61.9626 203.15C61.9626 203.775 62.0746 204.303 62.2986 204.732C62.5319 205.161 62.8399 205.483 63.2226 205.698C63.6053 205.903 64.0253 206.006 64.4826 206.006ZM71.3657 200.574C71.5897 200.135 71.907 199.795 72.3177 199.552C72.7377 199.309 73.2463 199.188 73.8437 199.188V200.504H73.5077C72.0797 200.504 71.3657 201.279 71.3657 202.828V207H70.0917V199.328H71.3657V200.574ZM78.6603 207.126C77.9417 207.126 77.2883 206.963 76.7003 206.636C76.1217 206.309 75.6643 205.847 75.3283 205.25C75.0017 204.643 74.8383 203.943 74.8383 203.15C74.8383 202.366 75.0063 201.675 75.3423 201.078C75.6877 200.471 76.1543 200.009 76.7423 199.692C77.3303 199.365 77.9883 199.202 78.7163 199.202C79.4443 199.202 80.1023 199.365 80.6903 199.692C81.2783 200.009 81.7403 200.467 82.0763 201.064C82.4217 201.661 82.5943 202.357 82.5943 203.15C82.5943 203.943 82.417 204.643 82.0623 205.25C81.717 205.847 81.2457 206.309 80.6483 206.636C80.051 206.963 79.3883 207.126 78.6603 207.126ZM78.6603 206.006C79.1177 206.006 79.547 205.899 79.9483 205.684C80.3497 205.469 80.6717 205.147 80.9143 204.718C81.1663 204.289 81.2923 203.766 81.2923 203.15C81.2923 202.534 81.171 202.011 80.9283 201.582C80.6857 201.153 80.3683 200.835 79.9763 200.63C79.5843 200.415 79.1597 200.308 78.7023 200.308C78.2357 200.308 77.8063 200.415 77.4143 200.63C77.0317 200.835 76.7237 201.153 76.4903 201.582C76.257 202.011 76.1403 202.534 76.1403 203.15C76.1403 203.775 76.2523 204.303 76.4763 204.732C76.7097 205.161 77.0177 205.483 77.4003 205.698C77.783 205.903 78.203 206.006 78.6603 206.006ZM83.7934 203.15C83.7934 202.357 83.9521 201.666 84.2694 201.078C84.5867 200.481 85.0254 200.019 85.5854 199.692C86.1547 199.365 86.8034 199.202 87.5314 199.202C88.4741 199.202 89.2487 199.431 89.8554 199.888C90.4714 200.345 90.8774 200.98 91.0734 201.792H89.7014C89.5707 201.325 89.3141 200.957 88.9314 200.686C88.5581 200.415 88.0914 200.28 87.5314 200.28C86.8034 200.28 86.2154 200.532 85.7674 201.036C85.3194 201.531 85.0954 202.235 85.0954 203.15C85.0954 204.074 85.3194 204.788 85.7674 205.292C86.2154 205.796 86.8034 206.048 87.5314 206.048C88.0914 206.048 88.5581 205.917 88.9314 205.656C89.3047 205.395 89.5614 205.021 89.7014 204.536H91.0734C90.8681 205.32 90.4574 205.95 89.8414 206.426C89.2254 206.893 88.4554 207.126 87.5314 207.126C86.8034 207.126 86.1547 206.963 85.5854 206.636C85.0254 206.309 84.5867 205.847 84.2694 205.25C83.9521 204.653 83.7934 203.953 83.7934 203.15ZM92.2973 203.15C92.2973 202.357 92.456 201.666 92.7733 201.078C93.0906 200.481 93.5293 200.019 94.0893 199.692C94.6586 199.365 95.3073 199.202 96.0353 199.202C96.978 199.202 97.7526 199.431 98.3593 199.888C98.9753 200.345 99.3813 200.98 99.5773 201.792H98.2053C98.0746 201.325 97.818 200.957 97.4353 200.686C97.062 200.415 96.5953 200.28 96.0353 200.28C95.3073 200.28 94.7193 200.532 94.2713 201.036C93.8233 201.531 93.5993 202.235 93.5993 203.15C93.5993 204.074 93.8233 204.788 94.2713 205.292C94.7193 205.796 95.3073 206.048 96.0353 206.048C96.5953 206.048 97.062 205.917 97.4353 205.656C97.8086 205.395 98.0653 205.021 98.2053 204.536H99.5773C99.372 205.32 98.9613 205.95 98.3453 206.426C97.7293 206.893 96.9593 207.126 96.0353 207.126C95.3073 207.126 94.6586 206.963 94.0893 206.636C93.5293 206.309 93.0906 205.847 92.7733 205.25C92.456 204.653 92.2973 203.953 92.2973 203.15ZM104.623 207.126C103.905 207.126 103.251 206.963 102.663 206.636C102.085 206.309 101.627 205.847 101.291 205.25C100.965 204.643 100.801 203.943 100.801 203.15C100.801 202.366 100.969 201.675 101.305 201.078C101.651 200.471 102.117 200.009 102.705 199.692C103.293 199.365 103.951 199.202 104.679 199.202C105.407 199.202 106.065 199.365 106.653 199.692C107.241 200.009 107.703 200.467 108.039 201.064C108.385 201.661 108.557 202.357 108.557 203.15C108.557 203.943 108.38 204.643 108.025 205.25C107.68 205.847 107.209 206.309 106.611 206.636C106.014 206.963 105.351 207.126 104.623 207.126ZM104.623 206.006C105.081 206.006 105.51 205.899 105.911 205.684C106.313 205.469 106.635 205.147 106.877 204.718C107.129 204.289 107.255 203.766 107.255 203.15C107.255 202.534 107.134 202.011 106.891 201.582C106.649 201.153 106.331 200.835 105.939 200.63C105.547 200.415 105.123 200.308 104.665 200.308C104.199 200.308 103.769 200.415 103.377 200.63C102.995 200.835 102.687 201.153 102.453 201.582C102.22 202.011 102.103 202.534 102.103 203.15C102.103 203.775 102.215 204.303 102.439 204.732C102.673 205.161 102.981 205.483 103.363 205.698C103.746 205.903 104.166 206.006 104.623 206.006Z" fill="#181818"/>
<g clip-path="url(#clip9_456_9946)">
<path d="M144 212C149.523 212 154 207.523 154 202C154 196.477 149.523 192 144 192C138.477 192 134 196.477 134 202C134 207.523 138.477 212 144 212Z" fill="#F0F0F0"/>
<path d="M134 202.001C134 205.791 136.109 209.089 139.217 210.785V193.217C136.109 194.913 134 198.21 134 202.001Z" fill="#D80027"/>
<path d="M153.378 205.48C153.78 204.397 154 203.225 154 202.002C154 200.778 153.78 199.607 153.378 198.523H134.622C134.22 199.607 134 200.778 134 202.002C134 203.225 134.22 204.397 134.622 205.48L144 206.349L153.378 205.48Z" fill="#D80027"/>
<path d="M143.999 212C148.299 212 151.964 209.287 153.377 205.479H134.621C136.034 209.287 139.699 212 143.999 212Z" fill="#6DA544"/>
<path d="M134 202.001C134 206.621 137.134 210.509 141.391 211.657V192.346C137.134 193.493 134 197.381 134 202.001Z" fill="#D80027"/>
<path d="M140.117 196.401L139.195 195.479L138.58 196.093L137.965 195.479L137.043 196.401L137.658 197.016L137.043 197.631L137.965 198.553L138.58 197.938L139.195 198.553L140.117 197.631L139.502 197.016L140.117 196.401Z" fill="#F0F0F0"/>
</g>
<path d="M171.502 207.098C170.597 207.098 169.771 206.888 169.024 206.468C168.277 206.039 167.685 205.446 167.246 204.69C166.817 203.925 166.602 203.066 166.602 202.114C166.602 201.162 166.817 200.308 167.246 199.552C167.685 198.787 168.277 198.194 169.024 197.774C169.771 197.345 170.597 197.13 171.502 197.13C172.417 197.13 173.247 197.345 173.994 197.774C174.741 198.194 175.329 198.782 175.758 199.538C176.187 200.294 176.402 201.153 176.402 202.114C176.402 203.075 176.187 203.934 175.758 204.69C175.329 205.446 174.741 206.039 173.994 206.468C173.247 206.888 172.417 207.098 171.502 207.098ZM171.502 205.992C172.183 205.992 172.795 205.833 173.336 205.516C173.887 205.199 174.316 204.746 174.624 204.158C174.941 203.57 175.1 202.889 175.1 202.114C175.1 201.33 174.941 200.649 174.624 200.07C174.316 199.482 173.891 199.029 173.35 198.712C172.809 198.395 172.193 198.236 171.502 198.236C170.811 198.236 170.195 198.395 169.654 198.712C169.113 199.029 168.683 199.482 168.366 200.07C168.058 200.649 167.904 201.33 167.904 202.114C167.904 202.889 168.058 203.57 168.366 204.158C168.683 204.746 169.113 205.199 169.654 205.516C170.205 205.833 170.821 205.992 171.502 205.992ZM187.31 199.188C187.907 199.188 188.439 199.314 188.906 199.566C189.373 199.809 189.741 200.177 190.012 200.672C190.283 201.167 190.418 201.769 190.418 202.478V207H189.158V202.66C189.158 201.895 188.967 201.311 188.584 200.91C188.211 200.499 187.702 200.294 187.058 200.294C186.395 200.294 185.868 200.509 185.476 200.938C185.084 201.358 184.888 201.969 184.888 202.772V207H183.628V202.66C183.628 201.895 183.437 201.311 183.054 200.91C182.681 200.499 182.172 200.294 181.528 200.294C180.865 200.294 180.338 200.509 179.946 200.938C179.554 201.358 179.358 201.969 179.358 202.772V207H178.084V199.328H179.358V200.434C179.61 200.033 179.946 199.725 180.366 199.51C180.795 199.295 181.267 199.188 181.78 199.188C182.424 199.188 182.993 199.333 183.488 199.622C183.983 199.911 184.351 200.336 184.594 200.896C184.809 200.355 185.163 199.935 185.658 199.636C186.153 199.337 186.703 199.188 187.31 199.188ZM192.032 203.136C192.032 202.352 192.19 201.666 192.508 201.078C192.825 200.481 193.259 200.019 193.81 199.692C194.37 199.365 194.99 199.202 195.672 199.202C196.344 199.202 196.927 199.347 197.422 199.636C197.916 199.925 198.285 200.289 198.528 200.728V199.328H199.816V207H198.528V205.572C198.276 206.02 197.898 206.393 197.394 206.692C196.899 206.981 196.32 207.126 195.658 207.126C194.976 207.126 194.36 206.958 193.81 206.622C193.259 206.286 192.825 205.815 192.508 205.208C192.19 204.601 192.032 203.911 192.032 203.136ZM198.528 203.15C198.528 202.571 198.411 202.067 198.178 201.638C197.944 201.209 197.627 200.882 197.226 200.658C196.834 200.425 196.4 200.308 195.924 200.308C195.448 200.308 195.014 200.42 194.622 200.644C194.23 200.868 193.917 201.195 193.684 201.624C193.45 202.053 193.334 202.557 193.334 203.136C193.334 203.724 193.45 204.237 193.684 204.676C193.917 205.105 194.23 205.437 194.622 205.67C195.014 205.894 195.448 206.006 195.924 206.006C196.4 206.006 196.834 205.894 197.226 205.67C197.627 205.437 197.944 205.105 198.178 204.676C198.411 204.237 198.528 203.729 198.528 203.15ZM205.707 199.188C206.64 199.188 207.396 199.473 207.975 200.042C208.553 200.602 208.843 201.414 208.843 202.478V207H207.583V202.66C207.583 201.895 207.391 201.311 207.009 200.91C206.626 200.499 206.103 200.294 205.441 200.294C204.769 200.294 204.232 200.504 203.831 200.924C203.439 201.344 203.243 201.955 203.243 202.758V207H201.969V199.328H203.243V200.42C203.495 200.028 203.835 199.725 204.265 199.51C204.703 199.295 205.184 199.188 205.707 199.188Z" fill="#181818"/>
<g clip-path="url(#clip10_456_9946)">
<path d="M26 256C31.5228 256 36 251.523 36 246C36 240.477 31.5228 236 26 236C20.4772 236 16 240.477 16 246C16 251.523 20.4772 256 26 256Z" fill="#F0F0F0"/>
<path d="M22.0874 242.522H35.3784C33.9655 238.714 30.3 236 26.0004 236C23.2389 236 20.7392 237.119 18.9297 238.929L22.0874 242.522Z" fill="black"/>
<path d="M22.0874 249.479H35.3784C33.9655 253.287 30.3 256 26.0004 256C23.2389 256 20.7392 254.881 18.9297 253.071L22.0874 249.479Z" fill="#6DA544"/>
<path d="M18.9289 238.93C15.0237 242.835 15.0237 249.167 18.9289 253.072C20.5427 251.458 22.0948 249.906 26 246.001L18.9289 238.93Z" fill="#D80027"/>
</g>
<path d="M55.602 244.098C55.602 244.91 55.322 245.587 54.762 246.128C54.2113 246.66 53.3667 246.926 52.228 246.926H50.352V251H49.078V241.242H52.228C53.3293 241.242 54.1647 241.508 54.734 242.04C55.3127 242.572 55.602 243.258 55.602 244.098ZM52.228 245.876C52.9373 245.876 53.46 245.722 53.796 245.414C54.132 245.106 54.3 244.667 54.3 244.098C54.3 242.894 53.6093 242.292 52.228 242.292H50.352V245.876H52.228ZM56.7094 247.136C56.7094 246.352 56.8681 245.666 57.1854 245.078C57.5028 244.481 57.9368 244.019 58.4874 243.692C59.0474 243.365 59.6681 243.202 60.3494 243.202C61.0214 243.202 61.6048 243.347 62.0994 243.636C62.5941 243.925 62.9628 244.289 63.2054 244.728V243.328H64.4934V251H63.2054V249.572C62.9534 250.02 62.5754 250.393 62.0714 250.692C61.5768 250.981 60.9981 251.126 60.3354 251.126C59.6541 251.126 59.0381 250.958 58.4874 250.622C57.9368 250.286 57.5028 249.815 57.1854 249.208C56.8681 248.601 56.7094 247.911 56.7094 247.136ZM63.2054 247.15C63.2054 246.571 63.0888 246.067 62.8554 245.638C62.6221 245.209 62.3048 244.882 61.9034 244.658C61.5114 244.425 61.0774 244.308 60.6014 244.308C60.1254 244.308 59.6914 244.42 59.2994 244.644C58.9074 244.868 58.5948 245.195 58.3614 245.624C58.1281 246.053 58.0114 246.557 58.0114 247.136C58.0114 247.724 58.1281 248.237 58.3614 248.676C58.5948 249.105 58.9074 249.437 59.2994 249.67C59.6914 249.894 60.1254 250.006 60.6014 250.006C61.0774 250.006 61.5114 249.894 61.9034 249.67C62.3048 249.437 62.6221 249.105 62.8554 248.676C63.0888 248.237 63.2054 247.729 63.2054 247.15ZM67.9204 240.64V251H66.6464V240.64H67.9204ZM77.0917 246.87C77.0917 247.113 77.0777 247.369 77.0497 247.64H70.9177C70.9643 248.396 71.221 248.989 71.6877 249.418C72.1637 249.838 72.7377 250.048 73.4097 250.048C73.9603 250.048 74.4177 249.922 74.7817 249.67C75.155 249.409 75.4163 249.063 75.5657 248.634H76.9377C76.7323 249.371 76.3217 249.973 75.7057 250.44C75.0897 250.897 74.3243 251.126 73.4097 251.126C72.6817 251.126 72.0283 250.963 71.4497 250.636C70.8803 250.309 70.4323 249.847 70.1057 249.25C69.779 248.643 69.6157 247.943 69.6157 247.15C69.6157 246.357 69.7743 245.661 70.0917 245.064C70.409 244.467 70.8523 244.009 71.4217 243.692C72.0003 243.365 72.663 243.202 73.4097 243.202C74.1377 243.202 74.7817 243.361 75.3417 243.678C75.9017 243.995 76.331 244.434 76.6297 244.994C76.9377 245.545 77.0917 246.17 77.0917 246.87ZM75.7757 246.604C75.7757 246.119 75.6683 245.703 75.4537 245.358C75.239 245.003 74.945 244.737 74.5717 244.56C74.2077 244.373 73.8017 244.28 73.3537 244.28C72.7097 244.28 72.159 244.485 71.7017 244.896C71.2537 245.307 70.997 245.876 70.9317 246.604H75.7757ZM81.4893 251.126C80.9013 251.126 80.374 251.028 79.9073 250.832C79.4406 250.627 79.072 250.347 78.8013 249.992C78.5306 249.628 78.3813 249.213 78.3533 248.746H79.6693C79.7066 249.129 79.884 249.441 80.2013 249.684C80.528 249.927 80.9526 250.048 81.4753 250.048C81.9606 250.048 82.3433 249.941 82.6233 249.726C82.9033 249.511 83.0433 249.241 83.0433 248.914C83.0433 248.578 82.894 248.331 82.5953 248.172C82.2966 248.004 81.8346 247.841 81.2093 247.682C80.64 247.533 80.1733 247.383 79.8093 247.234C79.4546 247.075 79.1466 246.847 78.8853 246.548C78.6333 246.24 78.5073 245.839 78.5073 245.344C78.5073 244.952 78.624 244.593 78.8573 244.266C79.0906 243.939 79.422 243.683 79.8513 243.496C80.2806 243.3 80.7706 243.202 81.3213 243.202C82.1706 243.202 82.8566 243.417 83.3793 243.846C83.902 244.275 84.182 244.863 84.2193 245.61H82.9453C82.9173 245.209 82.754 244.887 82.4553 244.644C82.166 244.401 81.774 244.28 81.2793 244.28C80.822 244.28 80.458 244.378 80.1873 244.574C79.9166 244.77 79.7813 245.027 79.7813 245.344C79.7813 245.596 79.8606 245.806 80.0193 245.974C80.1873 246.133 80.3926 246.263 80.6353 246.366C80.8873 246.459 81.2326 246.567 81.6713 246.688C82.222 246.837 82.67 246.987 83.0153 247.136C83.3606 247.276 83.6546 247.491 83.8973 247.78C84.1493 248.069 84.28 248.447 84.2893 248.914C84.2893 249.334 84.1726 249.712 83.9393 250.048C83.706 250.384 83.3746 250.65 82.9453 250.846C82.5253 251.033 82.04 251.126 81.4893 251.126ZM87.6418 244.378V248.9C87.6418 249.273 87.7211 249.539 87.8798 249.698C88.0384 249.847 88.3138 249.922 88.7058 249.922H89.6438V251H88.4958C87.7864 251 87.2544 250.837 86.8998 250.51C86.5451 250.183 86.3678 249.647 86.3678 248.9V244.378H85.3738V243.328H86.3678V241.396H87.6418V243.328H89.6438V244.378H87.6418ZM91.8454 242.082C91.6027 242.082 91.3974 241.998 91.2294 241.83C91.0614 241.662 90.9774 241.457 90.9774 241.214C90.9774 240.971 91.0614 240.766 91.2294 240.598C91.3974 240.43 91.6027 240.346 91.8454 240.346C92.0787 240.346 92.2747 240.43 92.4334 240.598C92.6014 240.766 92.6854 240.971 92.6854 241.214C92.6854 241.457 92.6014 241.662 92.4334 241.83C92.2747 241.998 92.0787 242.082 91.8454 242.082ZM92.4614 243.328V251H91.1874V243.328H92.4614ZM98.3707 243.188C99.304 243.188 100.06 243.473 100.639 244.042C101.217 244.602 101.507 245.414 101.507 246.478V251H100.247V246.66C100.247 245.895 100.055 245.311 99.6727 244.91C99.29 244.499 98.7674 244.294 98.1047 244.294C97.4327 244.294 96.896 244.504 96.4947 244.924C96.1027 245.344 95.9067 245.955 95.9067 246.758V251H94.6327V243.328H95.9067V244.42C96.1587 244.028 96.4994 243.725 96.9287 243.51C97.3674 243.295 97.848 243.188 98.3707 243.188ZM110.588 246.87C110.588 247.113 110.574 247.369 110.546 247.64H104.414C104.46 248.396 104.717 248.989 105.184 249.418C105.66 249.838 106.234 250.048 106.906 250.048C107.456 250.048 107.914 249.922 108.278 249.67C108.651 249.409 108.912 249.063 109.062 248.634H110.434C110.228 249.371 109.818 249.973 109.202 250.44C108.586 250.897 107.82 251.126 106.906 251.126C106.178 251.126 105.524 250.963 104.946 250.636C104.376 250.309 103.928 249.847 103.602 249.25C103.275 248.643 103.112 247.943 103.112 247.15C103.112 246.357 103.27 245.661 103.588 245.064C103.905 244.467 104.348 244.009 104.918 243.692C105.496 243.365 106.159 243.202 106.906 243.202C107.634 243.202 108.278 243.361 108.838 243.678C109.398 243.995 109.827 244.434 110.126 244.994C110.434 245.545 110.588 246.17 110.588 246.87ZM109.272 246.604C109.272 246.119 109.164 245.703 108.95 245.358C108.735 245.003 108.441 244.737 108.068 244.56C107.704 244.373 107.298 244.28 106.85 244.28C106.206 244.28 105.655 244.485 105.198 244.896C104.75 245.307 104.493 245.876 104.428 246.604H109.272Z" fill="#181818"/>
<g clip-path="url(#clip11_456_9946)">
<path d="M146 256C151.523 256 156 251.523 156 246C156 240.477 151.523 236 146 236C140.477 236 136 240.477 136 246C136 251.523 140.477 256 146 256Z" fill="#6DA544"/>
<path d="M141.652 247.957C141.652 248.677 142.236 249.261 142.957 249.261H146.87C146.87 249.862 147.356 250.348 147.957 250.348H149.261C149.861 250.348 150.348 249.862 150.348 249.261V247.957H141.652Z" fill="#F0F0F0"/>
<path d="M150.457 241.652V244.696C150.457 245.175 150.067 245.565 149.588 245.565V246.87C150.787 246.87 151.762 245.894 151.762 244.696V241.652H150.457Z" fill="#F0F0F0"/>
<path d="M141.11 244.696C141.11 245.175 140.72 245.565 140.24 245.565V246.87C141.439 246.87 142.414 245.894 142.414 244.696V241.652H141.11V244.696Z" fill="#F0F0F0"/>
<path d="M148.5 241.652H149.804V244.696H148.5V241.652Z" fill="#F0F0F0"/>
<path d="M146.545 243.391C146.545 243.511 146.447 243.609 146.327 243.609C146.207 243.609 146.11 243.511 146.11 243.391V241.652H144.806V243.391C144.806 243.511 144.708 243.609 144.588 243.609C144.468 243.609 144.371 243.511 144.371 243.391V241.652H143.066V243.391C143.066 244.231 143.749 244.913 144.588 244.913C144.911 244.913 145.211 244.812 145.458 244.639C145.704 244.812 146.004 244.913 146.327 244.913C146.392 244.913 146.456 244.909 146.519 244.901C146.427 245.281 146.084 245.565 145.675 245.565V246.87C146.874 246.87 147.849 245.894 147.849 244.696V243.391V241.652H146.545V243.391H146.545Z" fill="#F0F0F0"/>
<path d="M143.066 245.564H145.023V246.869H143.066V245.564Z" fill="#F0F0F0"/>
</g>
<path d="M172.172 251.098C171.528 251.098 170.949 250.986 170.436 250.762C169.932 250.529 169.535 250.211 169.246 249.81C168.957 249.399 168.807 248.928 168.798 248.396H170.156C170.203 248.853 170.389 249.241 170.716 249.558C171.052 249.866 171.537 250.02 172.172 250.02C172.779 250.02 173.255 249.871 173.6 249.572C173.955 249.264 174.132 248.872 174.132 248.396C174.132 248.023 174.029 247.719 173.824 247.486C173.619 247.253 173.362 247.075 173.054 246.954C172.746 246.833 172.331 246.702 171.808 246.562C171.164 246.394 170.646 246.226 170.254 246.058C169.871 245.89 169.54 245.629 169.26 245.274C168.989 244.91 168.854 244.425 168.854 243.818C168.854 243.286 168.989 242.815 169.26 242.404C169.531 241.993 169.909 241.676 170.394 241.452C170.889 241.228 171.453 241.116 172.088 241.116C173.003 241.116 173.749 241.345 174.328 241.802C174.916 242.259 175.247 242.866 175.322 243.622H173.922C173.875 243.249 173.679 242.922 173.334 242.642C172.989 242.353 172.531 242.208 171.962 242.208C171.43 242.208 170.996 242.348 170.66 242.628C170.324 242.899 170.156 243.281 170.156 243.776C170.156 244.131 170.254 244.42 170.45 244.644C170.655 244.868 170.903 245.041 171.192 245.162C171.491 245.274 171.906 245.405 172.438 245.554C173.082 245.731 173.6 245.909 173.992 246.086C174.384 246.254 174.72 246.52 175 246.884C175.28 247.239 175.42 247.724 175.42 248.34C175.42 248.816 175.294 249.264 175.042 249.684C174.79 250.104 174.417 250.445 173.922 250.706C173.427 250.967 172.844 251.098 172.172 251.098ZM176.819 247.136C176.819 246.352 176.977 245.666 177.295 245.078C177.612 244.481 178.046 244.019 178.597 243.692C179.157 243.365 179.777 243.202 180.459 243.202C181.131 243.202 181.714 243.347 182.209 243.636C182.703 243.925 183.072 244.289 183.315 244.728V243.328H184.603V251H183.315V249.572C183.063 250.02 182.685 250.393 182.181 250.692C181.686 250.981 181.107 251.126 180.445 251.126C179.763 251.126 179.147 250.958 178.597 250.622C178.046 250.286 177.612 249.815 177.295 249.208C176.977 248.601 176.819 247.911 176.819 247.136ZM183.315 247.15C183.315 246.571 183.198 246.067 182.965 245.638C182.731 245.209 182.414 244.882 182.013 244.658C181.621 244.425 181.187 244.308 180.711 244.308C180.235 244.308 179.801 244.42 179.409 244.644C179.017 244.868 178.704 245.195 178.471 245.624C178.237 246.053 178.121 246.557 178.121 247.136C178.121 247.724 178.237 248.237 178.471 248.676C178.704 249.105 179.017 249.437 179.409 249.67C179.801 249.894 180.235 250.006 180.711 250.006C181.187 250.006 181.621 249.894 182.013 249.67C182.414 249.437 182.731 249.105 182.965 248.676C183.198 248.237 183.315 247.729 183.315 247.15ZM193.56 243.328V251H192.286V249.866C192.043 250.258 191.702 250.566 191.264 250.79C190.834 251.005 190.358 251.112 189.836 251.112C189.238 251.112 188.702 250.991 188.226 250.748C187.75 250.496 187.372 250.123 187.092 249.628C186.821 249.133 186.686 248.531 186.686 247.822V243.328H187.946V247.654C187.946 248.41 188.137 248.993 188.52 249.404C188.902 249.805 189.425 250.006 190.088 250.006C190.769 250.006 191.306 249.796 191.698 249.376C192.09 248.956 192.286 248.345 192.286 247.542V243.328H193.56ZM195.235 247.136C195.235 246.352 195.393 245.666 195.711 245.078C196.028 244.481 196.462 244.019 197.013 243.692C197.573 243.365 198.198 243.202 198.889 243.202C199.486 243.202 200.041 243.342 200.555 243.622C201.068 243.893 201.46 244.252 201.731 244.7V240.64H203.019V251H201.731V249.558C201.479 250.015 201.105 250.393 200.611 250.692C200.116 250.981 199.537 251.126 198.875 251.126C198.193 251.126 197.573 250.958 197.013 250.622C196.462 250.286 196.028 249.815 195.711 249.208C195.393 248.601 195.235 247.911 195.235 247.136ZM201.731 247.15C201.731 246.571 201.614 246.067 201.381 245.638C201.147 245.209 200.83 244.882 200.429 244.658C200.037 244.425 199.603 244.308 199.127 244.308C198.651 244.308 198.217 244.42 197.825 244.644C197.433 244.868 197.12 245.195 196.887 245.624C196.653 246.053 196.537 246.557 196.537 247.136C196.537 247.724 196.653 248.237 196.887 248.676C197.12 249.105 197.433 249.437 197.825 249.67C198.217 249.894 198.651 250.006 199.127 250.006C199.603 250.006 200.037 249.894 200.429 249.67C200.83 249.437 201.147 249.105 201.381 248.676C201.614 248.237 201.731 247.729 201.731 247.15ZM205.83 242.082C205.587 242.082 205.382 241.998 205.214 241.83C205.046 241.662 204.962 241.457 204.962 241.214C204.962 240.971 205.046 240.766 205.214 240.598C205.382 240.43 205.587 240.346 205.83 240.346C206.063 240.346 206.259 240.43 206.418 240.598C206.586 240.766 206.67 240.971 206.67 241.214C206.67 241.457 206.586 241.662 206.418 241.83C206.259 241.998 206.063 242.082 205.83 242.082ZM206.446 243.328V251H205.172V243.328H206.446ZM218.117 248.83H213.861L213.077 251H211.733L215.261 241.298H216.731L220.245 251H218.901L218.117 248.83ZM217.753 247.794L215.989 242.866L214.225 247.794H217.753ZM223.057 244.574C223.281 244.135 223.598 243.795 224.009 243.552C224.429 243.309 224.938 243.188 225.535 243.188V244.504H225.199C223.771 244.504 223.057 245.279 223.057 246.828V251H221.783V243.328H223.057V244.574ZM226.53 247.136C226.53 246.352 226.688 245.666 227.006 245.078C227.323 244.481 227.757 244.019 228.308 243.692C228.868 243.365 229.488 243.202 230.17 243.202C230.842 243.202 231.425 243.347 231.92 243.636C232.414 243.925 232.783 244.289 233.026 244.728V243.328H234.314V251H233.026V249.572C232.774 250.02 232.396 250.393 231.892 250.692C231.397 250.981 230.818 251.126 230.156 251.126C229.474 251.126 228.858 250.958 228.308 250.622C227.757 250.286 227.323 249.815 227.006 249.208C226.688 248.601 226.53 247.911 226.53 247.136ZM233.026 247.15C233.026 246.571 232.909 246.067 232.676 245.638C232.442 245.209 232.125 244.882 231.724 244.658C231.332 244.425 230.898 244.308 230.422 244.308C229.946 244.308 229.512 244.42 229.12 244.644C228.728 244.868 228.415 245.195 228.182 245.624C227.948 246.053 227.832 246.557 227.832 247.136C227.832 247.724 227.948 248.237 228.182 248.676C228.415 249.105 228.728 249.437 229.12 249.67C229.512 249.894 229.946 250.006 230.422 250.006C230.898 250.006 231.332 249.894 231.724 249.67C232.125 249.437 232.442 249.105 232.676 248.676C232.909 248.237 233.026 247.729 233.026 247.15ZM237.741 244.756C238.002 244.299 238.385 243.925 238.889 243.636C239.393 243.347 239.967 243.202 240.611 243.202C241.301 243.202 241.922 243.365 242.473 243.692C243.023 244.019 243.457 244.481 243.775 245.078C244.092 245.666 244.251 246.352 244.251 247.136C244.251 247.911 244.092 248.601 243.775 249.208C243.457 249.815 243.019 250.286 242.459 250.622C241.908 250.958 241.292 251.126 240.611 251.126C239.948 251.126 239.365 250.981 238.861 250.692C238.366 250.403 237.993 250.034 237.741 249.586V251H236.467V240.64H237.741V244.756ZM242.949 247.136C242.949 246.557 242.832 246.053 242.599 245.624C242.365 245.195 242.048 244.868 241.647 244.644C241.255 244.42 240.821 244.308 240.345 244.308C239.878 244.308 239.444 244.425 239.043 244.658C238.651 244.882 238.333 245.213 238.091 245.652C237.857 246.081 237.741 246.581 237.741 247.15C237.741 247.729 237.857 248.237 238.091 248.676C238.333 249.105 238.651 249.437 239.043 249.67C239.444 249.894 239.878 250.006 240.345 250.006C240.821 250.006 241.255 249.894 241.647 249.67C242.048 249.437 242.365 249.105 242.599 248.676C242.832 248.237 242.949 247.724 242.949 247.136ZM246.586 242.082C246.343 242.082 246.138 241.998 245.97 241.83C245.802 241.662 245.718 241.457 245.718 241.214C245.718 240.971 245.802 240.766 245.97 240.598C246.138 240.43 246.343 240.346 246.586 240.346C246.819 240.346 247.015 240.43 247.174 240.598C247.342 240.766 247.426 240.971 247.426 241.214C247.426 241.457 247.342 241.662 247.174 241.83C247.015 241.998 246.819 242.082 246.586 242.082ZM247.202 243.328V251H245.928V243.328H247.202ZM248.897 247.136C248.897 246.352 249.056 245.666 249.373 245.078C249.69 244.481 250.124 244.019 250.675 243.692C251.235 243.365 251.856 243.202 252.537 243.202C253.209 243.202 253.792 243.347 254.287 243.636C254.782 243.925 255.15 244.289 255.393 244.728V243.328H256.681V251H255.393V249.572C255.141 250.02 254.763 250.393 254.259 250.692C253.764 250.981 253.186 251.126 252.523 251.126C251.842 251.126 251.226 250.958 250.675 250.622C250.124 250.286 249.69 249.815 249.373 249.208C249.056 248.601 248.897 247.911 248.897 247.136ZM255.393 247.15C255.393 246.571 255.276 246.067 255.043 245.638C254.81 245.209 254.492 244.882 254.091 244.658C253.699 244.425 253.265 244.308 252.789 244.308C252.313 244.308 251.879 244.42 251.487 244.644C251.095 244.868 250.782 245.195 250.549 245.624C250.316 246.053 250.199 246.557 250.199 247.136C250.199 247.724 250.316 248.237 250.549 248.676C250.782 249.105 251.095 249.437 251.487 249.67C251.879 249.894 252.313 250.006 252.789 250.006C253.265 250.006 253.699 249.894 254.091 249.67C254.492 249.437 254.81 249.105 255.043 248.676C255.276 248.237 255.393 247.729 255.393 247.15Z" fill="#181818"/>
<g clip-path="url(#clip12_456_9946)">
<path d="M16.9923 285.651C16.3566 286.966 16 288.44 16 289.999C16 291.557 16.3566 293.032 16.9923 294.346L26 295.216L35.0077 294.346C35.6434 293.032 36 291.557 36 289.999C36 288.44 35.6434 286.966 35.0077 285.651L26 284.781L16.9923 285.651Z" fill="#F0F0F0"/>
<path d="M16.9922 294.348C18.6096 297.693 22.035 300 25.9996 300C29.9642 300 33.3895 297.693 35.007 294.348H16.9922Z" fill="black"/>
<path d="M16.9922 285.652H35.007C33.3895 282.307 29.9642 280 25.9996 280C22.035 280 18.6096 282.307 16.9922 285.652Z" fill="#D80027"/>
<path d="M18.9289 282.93C15.0237 286.835 15.0237 293.167 18.9289 297.072C20.5427 295.458 22.0948 293.906 26 290.001L18.9289 282.93Z" fill="#496E2D"/>
</g>
<path d="M52.172 295.098C51.528 295.098 50.9493 294.986 50.436 294.762C49.932 294.529 49.5353 294.211 49.246 293.81C48.9567 293.399 48.8073 292.928 48.798 292.396H50.156C50.2027 292.853 50.3893 293.241 50.716 293.558C51.052 293.866 51.5373 294.02 52.172 294.02C52.7787 294.02 53.2547 293.871 53.6 293.572C53.9547 293.264 54.132 292.872 54.132 292.396C54.132 292.023 54.0293 291.719 53.824 291.486C53.6187 291.253 53.362 291.075 53.054 290.954C52.746 290.833 52.3307 290.702 51.808 290.562C51.164 290.394 50.646 290.226 50.254 290.058C49.8713 289.89 49.54 289.629 49.26 289.274C48.9893 288.91 48.854 288.425 48.854 287.818C48.854 287.286 48.9893 286.815 49.26 286.404C49.5307 285.993 49.9087 285.676 50.394 285.452C50.8887 285.228 51.4533 285.116 52.088 285.116C53.0027 285.116 53.7493 285.345 54.328 285.802C54.916 286.259 55.2473 286.866 55.322 287.622H53.922C53.8753 287.249 53.6793 286.922 53.334 286.642C52.9887 286.353 52.5313 286.208 51.962 286.208C51.43 286.208 50.996 286.348 50.66 286.628C50.324 286.899 50.156 287.281 50.156 287.776C50.156 288.131 50.254 288.42 50.45 288.644C50.6553 288.868 50.9027 289.041 51.192 289.162C51.4907 289.274 51.906 289.405 52.438 289.554C53.082 289.731 53.6 289.909 53.992 290.086C54.384 290.254 54.72 290.52 55 290.884C55.28 291.239 55.42 291.724 55.42 292.34C55.42 292.816 55.294 293.264 55.042 293.684C54.79 294.104 54.4167 294.445 53.922 294.706C53.4273 294.967 52.844 295.098 52.172 295.098ZM64.0988 287.328V295H62.8248V293.866C62.5821 294.258 62.2415 294.566 61.8028 294.79C61.3735 295.005 60.8975 295.112 60.3748 295.112C59.7775 295.112 59.2408 294.991 58.7648 294.748C58.2888 294.496 57.9108 294.123 57.6308 293.628C57.3601 293.133 57.2248 292.531 57.2248 291.822V287.328H58.4848V291.654C58.4848 292.41 58.6761 292.993 59.0588 293.404C59.4415 293.805 59.9641 294.006 60.6268 294.006C61.3081 294.006 61.8448 293.796 62.2368 293.376C62.6288 292.956 62.8248 292.345 62.8248 291.542V287.328H64.0988ZM65.7739 291.136C65.7739 290.352 65.9325 289.666 66.2499 289.078C66.5672 288.481 67.0012 288.019 67.5519 287.692C68.1119 287.365 68.7372 287.202 69.4279 287.202C70.0252 287.202 70.5805 287.342 71.0939 287.622C71.6072 287.893 71.9992 288.252 72.2699 288.7V284.64H73.5579V295H72.2699V293.558C72.0179 294.015 71.6445 294.393 71.1499 294.692C70.6552 294.981 70.0765 295.126 69.4139 295.126C68.7325 295.126 68.1119 294.958 67.5519 294.622C67.0012 294.286 66.5672 293.815 66.2499 293.208C65.9325 292.601 65.7739 291.911 65.7739 291.136ZM72.2699 291.15C72.2699 290.571 72.1532 290.067 71.9199 289.638C71.6865 289.209 71.3692 288.882 70.9679 288.658C70.5759 288.425 70.1419 288.308 69.6659 288.308C69.1899 288.308 68.7559 288.42 68.3639 288.644C67.9719 288.868 67.6592 289.195 67.4259 289.624C67.1925 290.053 67.0759 290.557 67.0759 291.136C67.0759 291.724 67.1925 292.237 67.4259 292.676C67.6592 293.105 67.9719 293.437 68.3639 293.67C68.7559 293.894 69.1899 294.006 69.6659 294.006C70.1419 294.006 70.5759 293.894 70.9679 293.67C71.3692 293.437 71.6865 293.105 71.9199 292.676C72.1532 292.237 72.2699 291.729 72.2699 291.15ZM75.2348 291.136C75.2348 290.352 75.3935 289.666 75.7108 289.078C76.0281 288.481 76.4621 288.019 77.0128 287.692C77.5728 287.365 78.1935 287.202 78.8748 287.202C79.5468 287.202 80.1301 287.347 80.6248 287.636C81.1195 287.925 81.4881 288.289 81.7308 288.728V287.328H83.0188V295H81.7308V293.572C81.4788 294.02 81.1008 294.393 80.5968 294.692C80.1021 294.981 79.5235 295.126 78.8608 295.126C78.1795 295.126 77.5635 294.958 77.0128 294.622C76.4621 294.286 76.0281 293.815 75.7108 293.208C75.3935 292.601 75.2348 291.911 75.2348 291.136ZM81.7308 291.15C81.7308 290.571 81.6141 290.067 81.3808 289.638C81.1475 289.209 80.8301 288.882 80.4288 288.658C80.0368 288.425 79.6028 288.308 79.1268 288.308C78.6508 288.308 78.2168 288.42 77.8248 288.644C77.4328 288.868 77.1201 289.195 76.8868 289.624C76.6535 290.053 76.5368 290.557 76.5368 291.136C76.5368 291.724 76.6535 292.237 76.8868 292.676C77.1201 293.105 77.4328 293.437 77.8248 293.67C78.2168 293.894 78.6508 294.006 79.1268 294.006C79.6028 294.006 80.0368 293.894 80.4288 293.67C80.8301 293.437 81.1475 293.105 81.3808 292.676C81.6141 292.237 81.7308 291.729 81.7308 291.15ZM88.9098 287.188C89.8431 287.188 90.5991 287.473 91.1778 288.042C91.7564 288.602 92.0458 289.414 92.0458 290.478V295H90.7858V290.66C90.7858 289.895 90.5944 289.311 90.2118 288.91C89.8291 288.499 89.3064 288.294 88.6438 288.294C87.9718 288.294 87.4351 288.504 87.0338 288.924C86.6418 289.344 86.4458 289.955 86.4458 290.758V295H85.1718V287.328H86.4458V288.42C86.6978 288.028 87.0384 287.725 87.4678 287.51C87.9064 287.295 88.3871 287.188 88.9098 287.188Z" fill="#181818"/>
<g clip-path="url(#clip13_456_9946)">
<path d="M128 300C133.523 300 138 295.523 138 290C138 284.477 133.523 280 128 280C122.477 280 118 284.477 118 290C118 295.523 122.477 300 128 300Z" fill="#F0F0F0"/>
<path d="M127.999 280C123.699 280 120.034 282.714 118.621 286.522H137.377C135.964 282.714 132.299 280 127.999 280Z" fill="#D80027"/>
<path d="M127.999 300C132.299 300 135.964 297.287 137.377 293.479H118.621C120.034 297.287 123.699 300 127.999 300Z" fill="black"/>
<path d="M123.975 287.609L124.515 289.27H126.261L124.848 290.296L125.388 291.957L123.975 290.931L122.563 291.957L123.102 290.296L121.689 289.27H123.436L123.975 287.609Z" fill="#6DA544"/>
<path d="M132.026 287.609L132.566 289.27H134.312L132.899 290.296L133.439 291.957L132.026 290.931L130.613 291.957L131.153 290.296L129.74 289.27H131.486L132.026 287.609Z" fill="#6DA544"/>
</g>
<path d="M154.172 295.098C153.528 295.098 152.949 294.986 152.436 294.762C151.932 294.529 151.535 294.211 151.246 293.81C150.957 293.399 150.807 292.928 150.798 292.396H152.156C152.203 292.853 152.389 293.241 152.716 293.558C153.052 293.866 153.537 294.02 154.172 294.02C154.779 294.02 155.255 293.871 155.6 293.572C155.955 293.264 156.132 292.872 156.132 292.396C156.132 292.023 156.029 291.719 155.824 291.486C155.619 291.253 155.362 291.075 155.054 290.954C154.746 290.833 154.331 290.702 153.808 290.562C153.164 290.394 152.646 290.226 152.254 290.058C151.871 289.89 151.54 289.629 151.26 289.274C150.989 288.91 150.854 288.425 150.854 287.818C150.854 287.286 150.989 286.815 151.26 286.404C151.531 285.993 151.909 285.676 152.394 285.452C152.889 285.228 153.453 285.116 154.088 285.116C155.003 285.116 155.749 285.345 156.328 285.802C156.916 286.259 157.247 286.866 157.322 287.622H155.922C155.875 287.249 155.679 286.922 155.334 286.642C154.989 286.353 154.531 286.208 153.962 286.208C153.43 286.208 152.996 286.348 152.66 286.628C152.324 286.899 152.156 287.281 152.156 287.776C152.156 288.131 152.254 288.42 152.45 288.644C152.655 288.868 152.903 289.041 153.192 289.162C153.491 289.274 153.906 289.405 154.438 289.554C155.082 289.731 155.6 289.909 155.992 290.086C156.384 290.254 156.72 290.52 157 290.884C157.28 291.239 157.42 291.724 157.42 292.34C157.42 292.816 157.294 293.264 157.042 293.684C156.79 294.104 156.417 294.445 155.922 294.706C155.427 294.967 154.844 295.098 154.172 295.098ZM165.903 287.328L161.283 298.612H159.967L161.479 294.916L158.385 287.328H159.799L162.207 293.544L164.587 287.328H165.903ZM168.457 288.574C168.681 288.135 168.999 287.795 169.409 287.552C169.829 287.309 170.338 287.188 170.935 287.188V288.504H170.599C169.171 288.504 168.457 289.279 168.457 290.828V295H167.183V287.328H168.457V288.574ZM173.064 286.082C172.821 286.082 172.616 285.998 172.448 285.83C172.28 285.662 172.196 285.457 172.196 285.214C172.196 284.971 172.28 284.766 172.448 284.598C172.616 284.43 172.821 284.346 173.064 284.346C173.297 284.346 173.493 284.43 173.652 284.598C173.82 284.766 173.904 284.971 173.904 285.214C173.904 285.457 173.82 285.662 173.652 285.83C173.493 285.998 173.297 286.082 173.064 286.082ZM173.68 287.328V295H172.406V287.328H173.68ZM175.375 291.136C175.375 290.352 175.534 289.666 175.851 289.078C176.169 288.481 176.603 288.019 177.153 287.692C177.713 287.365 178.334 287.202 179.015 287.202C179.687 287.202 180.271 287.347 180.765 287.636C181.26 287.925 181.629 288.289 181.871 288.728V287.328H183.159V295H181.871V293.572C181.619 294.02 181.241 294.393 180.737 294.692C180.243 294.981 179.664 295.126 179.001 295.126C178.32 295.126 177.704 294.958 177.153 294.622C176.603 294.286 176.169 293.815 175.851 293.208C175.534 292.601 175.375 291.911 175.375 291.136ZM181.871 291.15C181.871 290.571 181.755 290.067 181.521 289.638C181.288 289.209 180.971 288.882 180.569 288.658C180.177 288.425 179.743 288.308 179.267 288.308C178.791 288.308 178.357 288.42 177.965 288.644C177.573 288.868 177.261 289.195 177.027 289.624C176.794 290.053 176.677 290.557 176.677 291.136C176.677 291.724 176.794 292.237 177.027 292.676C177.261 293.105 177.573 293.437 177.965 293.67C178.357 293.894 178.791 294.006 179.267 294.006C179.743 294.006 180.177 293.894 180.569 293.67C180.971 293.437 181.288 293.105 181.521 292.676C181.755 292.237 181.871 291.729 181.871 291.15Z" fill="#181818"/>
<g clip-path="url(#clip14_456_9946)">
<path d="M26 344C31.5228 344 36 339.523 36 334C36 328.477 31.5228 324 26 324C20.4772 324 16 328.477 16 334C16 339.523 20.4772 344 26 344Z" fill="#D80027"/>
<path d="M26.0014 338.784C28.6427 338.784 30.784 336.643 30.784 334.001C30.784 331.36 28.6427 329.219 26.0014 329.219C23.36 329.219 21.2188 331.36 21.2188 334.001C21.2188 336.643 23.36 338.784 26.0014 338.784Z" fill="#F0F0F0"/>
<path d="M26.5895 332.172L27.4099 333.303L28.7387 332.872L27.917 334.001L28.7373 335.132L27.409 334.699L26.5872 335.829L26.5881 334.432L25.2598 334L26.5886 333.569L26.5895 332.172Z" fill="#D80027"/>
<path d="M27.0867 336.826C25.5259 336.826 24.2606 335.561 24.2606 334C24.2606 332.439 25.5259 331.174 27.0867 331.174C27.5733 331.174 28.0312 331.297 28.431 331.513C27.8039 330.9 26.9463 330.521 25.9997 330.521C24.0788 330.521 22.5215 332.079 22.5215 334C22.5215 335.921 24.0788 337.478 25.9997 337.478C26.9463 337.478 27.8039 337.099 28.431 336.486C28.0312 336.703 27.5733 336.826 27.0867 336.826Z" fill="#D80027"/>
</g>
<path d="M55.084 329.242V330.278H52.424V339H51.15V330.278H48.476V329.242H55.084ZM63.4562 331.328V339H62.1822V337.866C61.9396 338.258 61.5989 338.566 61.1602 338.79C60.7309 339.005 60.2549 339.112 59.7322 339.112C59.1349 339.112 58.5982 338.991 58.1222 338.748C57.6462 338.496 57.2682 338.123 56.9882 337.628C56.7176 337.133 56.5822 336.531 56.5822 335.822V331.328H57.8422V335.654C57.8422 336.41 58.0336 336.993 58.4162 337.404C58.7989 337.805 59.3216 338.006 59.9842 338.006C60.6656 338.006 61.2022 337.796 61.5942 337.376C61.9862 336.956 62.1822 336.345 62.1822 335.542V331.328H63.4562ZM69.3453 331.188C70.2786 331.188 71.0346 331.473 71.6133 332.042C72.192 332.602 72.4813 333.414 72.4813 334.478V339H71.2213V334.66C71.2213 333.895 71.03 333.311 70.6473 332.91C70.2646 332.499 69.742 332.294 69.0793 332.294C68.4073 332.294 67.8706 332.504 67.4693 332.924C67.0773 333.344 66.8813 333.955 66.8813 334.758V339H65.6073V331.328H66.8813V332.42C67.1333 332.028 67.474 331.725 67.9033 331.51C68.342 331.295 68.8226 331.188 69.3453 331.188ZM75.2204 330.082C74.9777 330.082 74.7724 329.998 74.6044 329.83C74.4364 329.662 74.3524 329.457 74.3524 329.214C74.3524 328.971 74.4364 328.766 74.6044 328.598C74.7724 328.43 74.9777 328.346 75.2204 328.346C75.4537 328.346 75.6497 328.43 75.8084 328.598C75.9764 328.766 76.0604 328.971 76.0604 329.214C76.0604 329.457 75.9764 329.662 75.8084 329.83C75.6497 329.998 75.4537 330.082 75.2204 330.082ZM75.8364 331.328V339H74.5624V331.328H75.8364ZM80.7237 339.126C80.1357 339.126 79.6084 339.028 79.1417 338.832C78.675 338.627 78.3064 338.347 78.0357 337.992C77.765 337.628 77.6157 337.213 77.5877 336.746H78.9037C78.941 337.129 79.1184 337.441 79.4357 337.684C79.7624 337.927 80.187 338.048 80.7097 338.048C81.195 338.048 81.5777 337.941 81.8577 337.726C82.1377 337.511 82.2777 337.241 82.2777 336.914C82.2777 336.578 82.1284 336.331 81.8297 336.172C81.531 336.004 81.069 335.841 80.4437 335.682C79.8744 335.533 79.4077 335.383 79.0437 335.234C78.689 335.075 78.381 334.847 78.1197 334.548C77.8677 334.24 77.7417 333.839 77.7417 333.344C77.7417 332.952 77.8584 332.593 78.0917 332.266C78.325 331.939 78.6564 331.683 79.0857 331.496C79.515 331.3 80.005 331.202 80.5557 331.202C81.405 331.202 82.091 331.417 82.6137 331.846C83.1364 332.275 83.4164 332.863 83.4537 333.61H82.1797C82.1517 333.209 81.9884 332.887 81.6897 332.644C81.4004 332.401 81.0084 332.28 80.5137 332.28C80.0564 332.28 79.6924 332.378 79.4217 332.574C79.151 332.77 79.0157 333.027 79.0157 333.344C79.0157 333.596 79.095 333.806 79.2537 333.974C79.4217 334.133 79.627 334.263 79.8697 334.366C80.1217 334.459 80.467 334.567 80.9057 334.688C81.4564 334.837 81.9044 334.987 82.2497 335.136C82.595 335.276 82.889 335.491 83.1317 335.78C83.3837 336.069 83.5144 336.447 83.5237 336.914C83.5237 337.334 83.407 337.712 83.1737 338.048C82.9404 338.384 82.609 338.65 82.1797 338.846C81.7597 339.033 81.2744 339.126 80.7237 339.126ZM85.9801 330.082C85.7375 330.082 85.5321 329.998 85.3641 329.83C85.1961 329.662 85.1121 329.457 85.1121 329.214C85.1121 328.971 85.1961 328.766 85.3641 328.598C85.5321 328.43 85.7375 328.346 85.9801 328.346C86.2135 328.346 86.4095 328.43 86.5681 328.598C86.7361 328.766 86.8201 328.971 86.8201 329.214C86.8201 329.457 86.7361 329.662 86.5681 329.83C86.4095 329.998 86.2135 330.082 85.9801 330.082ZM86.5961 331.328V339H85.3221V331.328H86.5961ZM88.2915 335.136C88.2915 334.352 88.4501 333.666 88.7675 333.078C89.0848 332.481 89.5188 332.019 90.0695 331.692C90.6295 331.365 91.2501 331.202 91.9315 331.202C92.6035 331.202 93.1868 331.347 93.6815 331.636C94.1761 331.925 94.5448 332.289 94.7875 332.728V331.328H96.0755V339H94.7875V337.572C94.5355 338.02 94.1575 338.393 93.6535 338.692C93.1588 338.981 92.5801 339.126 91.9175 339.126C91.2361 339.126 90.6201 338.958 90.0695 338.622C89.5188 338.286 89.0848 337.815 88.7675 337.208C88.4501 336.601 88.2915 335.911 88.2915 335.136ZM94.7875 335.15C94.7875 334.571 94.6708 334.067 94.4375 333.638C94.2041 333.209 93.8868 332.882 93.4855 332.658C93.0935 332.425 92.6595 332.308 92.1835 332.308C91.7075 332.308 91.2735 332.42 90.8815 332.644C90.4895 332.868 90.1768 333.195 89.9435 333.624C89.7101 334.053 89.5935 334.557 89.5935 335.136C89.5935 335.724 89.7101 336.237 89.9435 336.676C90.1768 337.105 90.4895 337.437 90.8815 337.67C91.2735 337.894 91.7075 338.006 92.1835 338.006C92.6595 338.006 93.0935 337.894 93.4855 337.67C93.8868 337.437 94.2041 337.105 94.4375 336.676C94.6708 336.237 94.7875 335.729 94.7875 335.15Z" fill="#181818"/>
<g clip-path="url(#clip15_456_9946)">
<path d="M132 344C137.523 344 142 339.523 142 334C142 328.477 137.523 324 132 324C126.477 324 122 328.477 122 334C122 339.523 126.477 344 132 344Z" fill="#F0F0F0"/>
<path d="M127.65 337.479L128.52 343.378C129.603 343.78 130.775 344 131.998 344C136.298 344 139.963 341.287 141.376 337.479H127.65Z" fill="black"/>
<path d="M127.65 330.522L128.52 324.622C129.603 324.22 130.775 324 131.998 324C136.298 324 139.963 326.714 141.376 330.522H127.65Z" fill="#6DA544"/>
<path d="M122 333.999C122 338.299 124.714 341.964 128.522 343.377V324.621C124.714 326.034 122 329.699 122 333.999Z" fill="#A2001D"/>
</g>
<path d="M156.324 329.242V335.416C156.324 336.284 156.534 336.928 156.954 337.348C157.383 337.768 157.976 337.978 158.732 337.978C159.479 337.978 160.062 337.768 160.482 337.348C160.911 336.928 161.126 336.284 161.126 335.416V329.242H162.4V335.402C162.4 336.214 162.237 336.9 161.91 337.46C161.583 338.011 161.14 338.421 160.58 338.692C160.029 338.963 159.409 339.098 158.718 339.098C158.027 339.098 157.402 338.963 156.842 338.692C156.291 338.421 155.853 338.011 155.526 337.46C155.209 336.9 155.05 336.214 155.05 335.402V329.242H156.324ZM170.293 336.83H166.037L165.253 339H163.909L167.437 329.298H168.907L172.421 339H171.077L170.293 336.83ZM169.929 335.794L168.165 330.866L166.401 335.794H169.929ZM175.233 330.278V333.54H178.789V334.59H175.233V337.95H179.209V339H173.959V329.228H179.209V330.278H175.233Z" fill="#181818"/>
<g clip-path="url(#clip16_456_9946)">
<path d="M26 388C31.5228 388 36 383.523 36 378C36 372.477 31.5228 368 26 368C20.4772 368 16 372.477 16 378C16 383.523 20.4772 388 26 388Z" fill="#F0F0F0"/>
<path d="M35.9991 378C35.9991 372.477 31.5219 368 25.9991 368C24.0428 368 22.218 368.562 20.6767 369.533L22.8686 370.465L19.9121 371.721L22.8686 372.977L19.9121 374.233L22.8686 375.489L19.9121 376.745L22.8686 378.001L19.9121 379.257L22.8686 380.513L19.9121 381.769L22.8686 383.025L19.9121 384.281L22.8686 385.537L20.6777 386.468C22.2188 387.438 24.0432 388 25.9991 388C31.5219 388 35.9991 383.523 35.9991 378Z" fill="#751A46"/>
</g>
<path d="M56.904 384.848L54.958 382.902C54.482 383.033 53.9967 383.098 53.502 383.098C52.5967 383.098 51.7707 382.888 51.024 382.468C50.2773 382.039 49.6847 381.446 49.246 380.69C48.8167 379.925 48.602 379.066 48.602 378.114C48.602 377.162 48.8167 376.308 49.246 375.552C49.6847 374.787 50.2773 374.194 51.024 373.774C51.7707 373.345 52.5967 373.13 53.502 373.13C54.4167 373.13 55.2473 373.345 55.994 373.774C56.7407 374.194 57.3287 374.782 57.758 375.538C58.1873 376.294 58.402 377.153 58.402 378.114C58.402 379.047 58.1967 379.887 57.786 380.634C57.3753 381.381 56.8107 381.969 56.092 382.398L58.556 384.848H56.904ZM49.904 378.114C49.904 378.889 50.058 379.57 50.366 380.158C50.6833 380.746 51.1127 381.199 51.654 381.516C52.2047 381.833 52.8207 381.992 53.502 381.992C54.1833 381.992 54.7947 381.833 55.336 381.516C55.8867 381.199 56.316 380.746 56.624 380.158C56.9413 379.57 57.1 378.889 57.1 378.114C57.1 377.33 56.9413 376.649 56.624 376.07C56.316 375.482 55.8913 375.029 55.35 374.712C54.8087 374.395 54.1927 374.236 53.502 374.236C52.8113 374.236 52.1953 374.395 51.654 374.712C51.1127 375.029 50.6833 375.482 50.366 376.07C50.058 376.649 49.904 377.33 49.904 378.114ZM59.6352 379.136C59.6352 378.352 59.7939 377.666 60.1112 377.078C60.4285 376.481 60.8625 376.019 61.4132 375.692C61.9732 375.365 62.5939 375.202 63.2752 375.202C63.9472 375.202 64.5305 375.347 65.0252 375.636C65.5199 375.925 65.8885 376.289 66.1312 376.728V375.328H67.4192V383H66.1312V381.572C65.8792 382.02 65.5012 382.393 64.9972 382.692C64.5025 382.981 63.9239 383.126 63.2612 383.126C62.5799 383.126 61.9639 382.958 61.4132 382.622C60.8625 382.286 60.4285 381.815 60.1112 381.208C59.7939 380.601 59.6352 379.911 59.6352 379.136ZM66.1312 379.15C66.1312 378.571 66.0145 378.067 65.7812 377.638C65.5479 377.209 65.2305 376.882 64.8292 376.658C64.4372 376.425 64.0032 376.308 63.5272 376.308C63.0512 376.308 62.6172 376.42 62.2252 376.644C61.8332 376.868 61.5205 377.195 61.2872 377.624C61.0539 378.053 60.9372 378.557 60.9372 379.136C60.9372 379.724 61.0539 380.237 61.2872 380.676C61.5205 381.105 61.8332 381.437 62.2252 381.67C62.6172 381.894 63.0512 382.006 63.5272 382.006C64.0032 382.006 64.4372 381.894 64.8292 381.67C65.2305 381.437 65.5479 381.105 65.7812 380.676C66.0145 380.237 66.1312 379.729 66.1312 379.15ZM71.1261 376.378V380.9C71.1261 381.273 71.2055 381.539 71.3641 381.698C71.5228 381.847 71.7981 381.922 72.1901 381.922H73.1281V383H71.9801C71.2708 383 70.7388 382.837 70.3841 382.51C70.0295 382.183 69.8521 381.647 69.8521 380.9V376.378H68.8581V375.328H69.8521V373.396H71.1261V375.328H73.1281V376.378H71.1261ZM74.1958 379.136C74.1958 378.352 74.3544 377.666 74.6718 377.078C74.9891 376.481 75.4231 376.019 75.9738 375.692C76.5338 375.365 77.1544 375.202 77.8358 375.202C78.5078 375.202 79.0911 375.347 79.5858 375.636C80.0804 375.925 80.4491 376.289 80.6918 376.728V375.328H81.9798V383H80.6918V381.572C80.4398 382.02 80.0618 382.393 79.5578 382.692C79.0631 382.981 78.4844 383.126 77.8218 383.126C77.1404 383.126 76.5244 382.958 75.9738 382.622C75.4231 382.286 74.9891 381.815 74.6718 381.208C74.3544 380.601 74.1958 379.911 74.1958 379.136ZM80.6918 379.15C80.6918 378.571 80.5751 378.067 80.3418 377.638C80.1084 377.209 79.7911 376.882 79.3898 376.658C78.9978 376.425 78.5638 376.308 78.0878 376.308C77.6118 376.308 77.1778 376.42 76.7858 376.644C76.3938 376.868 76.0811 377.195 75.8478 377.624C75.6144 378.053 75.4978 378.557 75.4978 379.136C75.4978 379.724 75.6144 380.237 75.8478 380.676C76.0811 381.105 76.3938 381.437 76.7858 381.67C77.1778 381.894 77.6118 382.006 78.0878 382.006C78.5638 382.006 78.9978 381.894 79.3898 381.67C79.7911 381.437 80.1084 381.105 80.3418 380.676C80.5751 380.237 80.6918 379.729 80.6918 379.15ZM85.4067 376.574C85.6307 376.135 85.948 375.795 86.3587 375.552C86.7787 375.309 87.2874 375.188 87.8847 375.188V376.504H87.5487C86.1207 376.504 85.4067 377.279 85.4067 378.828V383H84.1327V375.328H85.4067V376.574Z" fill="#181818"/>
<g clip-path="url(#clip17_456_9946)">
<path d="M123 388C128.523 388 133 383.523 133 378C133 372.477 128.523 368 123 368C117.477 368 113 372.477 113 378C113 383.523 117.477 388 123 388Z" fill="#F0F0F0"/>
<path d="M122.999 388C127.299 388 130.964 385.287 132.377 381.479H113.621C115.034 385.287 118.699 388 122.999 388Z" fill="black"/>
<path d="M122.999 368C118.699 368 115.034 370.714 113.621 374.522H132.377C130.964 370.714 127.299 368 122.999 368Z" fill="#D80027"/>
</g>
<path d="M152.91 373.242L149.732 379.318V383H148.458V379.318L145.266 373.242H146.68L149.088 378.184L151.496 373.242H152.91ZM161.254 378.87C161.254 379.113 161.24 379.369 161.212 379.64H155.08C155.126 380.396 155.383 380.989 155.85 381.418C156.326 381.838 156.9 382.048 157.572 382.048C158.122 382.048 158.58 381.922 158.944 381.67C159.317 381.409 159.578 381.063 159.728 380.634H161.1C160.894 381.371 160.484 381.973 159.868 382.44C159.252 382.897 158.486 383.126 157.572 383.126C156.844 383.126 156.19 382.963 155.612 382.636C155.042 382.309 154.594 381.847 154.268 381.25C153.941 380.643 153.778 379.943 153.778 379.15C153.778 378.357 153.936 377.661 154.254 377.064C154.571 376.467 155.014 376.009 155.584 375.692C156.162 375.365 156.825 375.202 157.572 375.202C158.3 375.202 158.944 375.361 159.504 375.678C160.064 375.995 160.493 376.434 160.792 376.994C161.1 377.545 161.254 378.17 161.254 378.87ZM159.938 378.604C159.938 378.119 159.83 377.703 159.616 377.358C159.401 377.003 159.107 376.737 158.734 376.56C158.37 376.373 157.964 376.28 157.516 376.28C156.872 376.28 156.321 376.485 155.864 376.896C155.416 377.307 155.159 377.876 155.094 378.604H159.938ZM172.161 375.188C172.759 375.188 173.291 375.314 173.757 375.566C174.224 375.809 174.593 376.177 174.863 376.672C175.134 377.167 175.269 377.769 175.269 378.478V383H174.009V378.66C174.009 377.895 173.818 377.311 173.435 376.91C173.062 376.499 172.553 376.294 171.909 376.294C171.247 376.294 170.719 376.509 170.327 376.938C169.935 377.358 169.739 377.969 169.739 378.772V383H168.479V378.66C168.479 377.895 168.288 377.311 167.905 376.91C167.532 376.499 167.023 376.294 166.379 376.294C165.717 376.294 165.189 376.509 164.797 376.938C164.405 377.358 164.209 377.969 164.209 378.772V383H162.935V375.328H164.209V376.434C164.461 376.033 164.797 375.725 165.217 375.51C165.647 375.295 166.118 375.188 166.631 375.188C167.275 375.188 167.845 375.333 168.339 375.622C168.834 375.911 169.203 376.336 169.445 376.896C169.66 376.355 170.015 375.935 170.509 375.636C171.004 375.337 171.555 375.188 172.161 375.188ZM184.359 378.87C184.359 379.113 184.345 379.369 184.317 379.64H178.185C178.232 380.396 178.489 380.989 178.955 381.418C179.431 381.838 180.005 382.048 180.677 382.048C181.228 382.048 181.685 381.922 182.049 381.67C182.423 381.409 182.684 381.063 182.833 380.634H184.205C184 381.371 183.589 381.973 182.973 382.44C182.357 382.897 181.592 383.126 180.677 383.126C179.949 383.126 179.296 382.963 178.717 382.636C178.148 382.309 177.7 381.847 177.373 381.25C177.047 380.643 176.883 379.943 176.883 379.15C176.883 378.357 177.042 377.661 177.359 377.064C177.677 376.467 178.12 376.009 178.689 375.692C179.268 375.365 179.931 375.202 180.677 375.202C181.405 375.202 182.049 375.361 182.609 375.678C183.169 375.995 183.599 376.434 183.897 376.994C184.205 377.545 184.359 378.17 184.359 378.87ZM183.043 378.604C183.043 378.119 182.936 377.703 182.721 377.358C182.507 377.003 182.213 376.737 181.839 376.56C181.475 376.373 181.069 376.28 180.621 376.28C179.977 376.28 179.427 376.485 178.969 376.896C178.521 377.307 178.265 377.876 178.199 378.604H183.043ZM189.779 375.188C190.712 375.188 191.468 375.473 192.047 376.042C192.626 376.602 192.915 377.414 192.915 378.478V383H191.655V378.66C191.655 377.895 191.464 377.311 191.081 376.91C190.698 376.499 190.176 376.294 189.513 376.294C188.841 376.294 188.304 376.504 187.903 376.924C187.511 377.344 187.315 377.955 187.315 378.758V383H186.041V375.328H187.315V376.42C187.567 376.028 187.908 375.725 188.337 375.51C188.776 375.295 189.256 375.188 189.779 375.188Z" fill="#181818"/>
</g>
<defs>
<filter id="filter0_b_456_9946" x="-8" y="-8" width="290" height="420" filterUnits="userSpaceOnUse" color-interpolation-filters="sRGB">
<feFlood flood-opacity="0" result="BackgroundImageFix"/>
<feGaussianBlur in="BackgroundImageFix" stdDeviation="4"/>
<feComposite in2="SourceAlpha" operator="in" result="effect1_backgroundBlur_456_9946"/>
<feBlend mode="normal" in="SourceGraphic" in2="effect1_backgroundBlur_456_9946" result="shape"/>
</filter>
<linearGradient id="paint0_linear_456_9946" x1="6.45294" y1="30.5915" x2="330.645" y2="139.553" gradientUnits="userSpaceOnUse">
<stop stop-color="white" stop-opacity="0.7"/>
<stop offset="1" stop-color="white"/>
</linearGradient>
<linearGradient id="paint1_linear_456_9946" x1="137" y1="0" x2="137" y2="404" gradientUnits="userSpaceOnUse">
<stop stop-color="#6B47F5" stop-opacity="0.5"/>
<stop offset="1" stop-color="white" stop-opacity="0.8"/>
</linearGradient>
<clipPath id="clip0_456_9946">
<rect width="20" height="20" fill="white" transform="translate(16 16)"/>
</clipPath>
<clipPath id="clip1_456_9946">
<rect width="20" height="20" fill="white" transform="translate(122 16)"/>
</clipPath>
<clipPath id="clip2_456_9946">
<rect width="20" height="20" fill="white" transform="translate(16 60)"/>
</clipPath>
<clipPath id="clip3_456_9946">
<rect width="20" height="20" fill="white" transform="translate(112 60)"/>
</clipPath>
<clipPath id="clip4_456_9946">
<rect width="20" height="20" fill="white" transform="translate(16 104)"/>
</clipPath>
<clipPath id="clip5_456_9946">
<rect width="20" height="20" fill="white" transform="translate(122 104)"/>
</clipPath>
<clipPath id="clip6_456_9946">
<rect width="20" height="20" fill="white" transform="translate(16 148)"/>
</clipPath>
<clipPath id="clip7_456_9946">
<rect width="20" height="20" fill="white" transform="translate(133 148)"/>
</clipPath>
<clipPath id="clip8_456_9946">
<rect width="20" height="20" fill="white" transform="translate(16 192)"/>
</clipPath>
<clipPath id="clip9_456_9946">
<rect width="20" height="20" fill="white" transform="translate(134 192)"/>
</clipPath>
<clipPath id="clip10_456_9946">
<rect width="20" height="20" fill="white" transform="translate(16 236)"/>
</clipPath>
<clipPath id="clip11_456_9946">
<rect width="20" height="20" fill="white" transform="translate(136 236)"/>
</clipPath>
<clipPath id="clip12_456_9946">
<rect width="20" height="20" fill="white" transform="translate(16 280)"/>
</clipPath>
<clipPath id="clip13_456_9946">
<rect width="20" height="20" fill="white" transform="translate(118 280)"/>
</clipPath>
<clipPath id="clip14_456_9946">
<rect width="20" height="20" fill="white" transform="translate(16 324)"/>
</clipPath>
<clipPath id="clip15_456_9946">
<rect width="20" height="20" fill="white" transform="translate(122 324)"/>
</clipPath>
<clipPath id="clip16_456_9946">
<rect width="20" height="20" fill="white" transform="translate(16 368)"/>
</clipPath>
<clipPath id="clip17_456_9946">
<rect width="20" height="20" fill="white" transform="translate(113 368)"/>
</clipPath>
</defs>
</svg>
