<svg width="1440" height="810" viewBox="0 0 1440 810" fill="none" xmlns="http://www.w3.org/2000/svg">
<g clip-path="url(#clip0_519_6494)">
<rect width="1440" height="810" fill="#3F3A60"/>
<g opacity="0.05" clip-path="url(#clip1_519_6494)">
<path d="M2102.39 508.774L1648.97 507.279C1611.46 507.334 1581.13 503.902 1548.31 489.319C1441.91 442.043 1393.46 318.592 1440.07 213.693C1475.14 134.754 1554.08 88.6996 1636.31 90.881C1636.44 90.8595 1636.57 90.8612 1636.69 90.8823C1636.73 90.8899 1636.77 90.9022 1636.8 90.9124L2101.21 91.5284L2101.23 93.1385L1636.5 92.5214L1636.44 92.4958L1636.39 92.4955C1554.76 90.2902 1476.37 135.997 1441.55 214.354C1418.43 266.401 1418.89 323.039 1438.32 372.541C1457.76 422.044 1496.17 464.39 1548.96 487.847C1581.52 502.311 1611.52 505.721 1648.96 505.669L2102.38 507.161L2102.39 508.774Z" fill="white"/>
<path d="M2090.38 517.399L1621.72 515.852C1582.95 515.909 1551.6 512.359 1517.68 497.288C1407.72 448.429 1357.64 320.843 1405.81 212.433C1442.06 130.853 1523.64 83.2512 1608.63 85.5077C1608.76 85.4862 1608.9 85.4853 1609.01 85.5064C1609.06 85.5161 1609.1 85.5237 1609.13 85.5339L2089.16 86.1687L2089.17 87.7788L1608.83 87.1429L1608.77 87.1195L1608.72 87.1171C1524.33 84.8367 1443.3 132.084 1407.3 213.091C1383.4 266.894 1383.87 325.448 1403.97 376.619C1424.06 427.789 1463.77 471.569 1518.34 495.816C1551.99 510.768 1583.01 514.295 1621.71 514.242L2090.38 515.787L2090.39 517.402L2090.38 517.399Z" fill="#F9F9F9"/>
<path d="M2078.37 526.019L1594.47 524.42C1554.43 524.478 1522.07 520.816 1487.06 505.252C1373.53 454.811 1321.83 323.091 1371.56 211.164C1408.98 126.939 1493.22 77.7962 1580.96 80.1236C1581.09 80.1021 1581.22 80.1011 1581.34 80.1222C1581.38 80.1319 1581.43 80.1416 1581.47 80.1518L2077.11 80.8075L2077.13 82.4176L1581.16 81.7609L1581.1 81.7353L1581.04 81.7355C1493.9 79.3774 1410.21 128.172 1373.05 211.82C1348.36 267.379 1348.85 327.843 1369.6 380.689C1390.35 433.529 1431.35 478.74 1487.7 503.778C1522.46 519.218 1554.49 522.856 1594.45 522.801L2078.36 524.411L2078.38 526.026L2078.37 526.019Z" fill="#F5F5F5"/>
<path d="M2066.36 534.644L1567.21 532.997C1525.91 533.055 1492.54 529.278 1456.43 513.228C1339.34 461.203 1286.02 325.346 1337.31 209.908C1375.9 123.041 1462.79 72.3538 1553.28 74.7541C1553.42 74.73 1553.55 74.7291 1553.67 74.7523C1553.72 74.7642 1553.76 74.7717 1553.8 74.7841L2065.07 75.4585L2065.08 77.0686L1553.49 76.391L1553.44 76.3654L1553.37 76.3635C1463.46 73.935 1377.14 124.27 1338.8 210.566C1313.34 267.88 1313.84 330.257 1335.25 384.77C1356.65 439.284 1398.95 485.922 1457.09 511.751C1492.93 527.679 1525.99 531.434 1567.2 531.377L2066.35 533.034L2066.36 534.648L2066.36 534.644Z" fill="#EFEFEF"/>
<path d="M2054.36 543.27L1539.96 541.571C1497.4 541.636 1463.02 537.739 1425.8 521.203C1305.15 467.595 1250.2 327.606 1303.06 208.651C1342.83 119.139 1432.36 66.9111 1525.61 69.3818C1525.74 69.3577 1525.89 69.3589 1526 69.38C1526.05 69.3918 1526.09 69.3995 1526.13 69.4118L2053.02 70.1092L2053.03 71.7193L1525.83 71.0208L1525.77 70.9952L1525.69 70.9938C1433.03 68.4875 1344.06 120.368 1304.55 209.307C1278.3 268.377 1278.82 332.671 1300.88 388.852C1322.94 445.036 1366.54 493.103 1426.46 519.726C1463.4 536.143 1497.47 540.013 1539.95 539.957L2054.34 541.66L2054.35 543.275L2054.36 543.27Z" fill="#E8E8E8"/>
<path d="M2042.36 551.894L1512.72 550.143C1468.9 550.209 1433.5 546.199 1395.19 529.171C1270.97 473.979 1214.4 329.857 1268.82 207.391C1309.76 115.238 1401.94 61.4603 1497.94 64.0088C1498.08 63.9847 1498.22 63.9812 1498.34 64.0066C1498.39 64.0185 1498.44 64.0281 1498.48 64.0405L2040.99 64.7566L2041 66.3667L1498.17 65.6473L1498.11 65.6196L1498.02 65.616C1402.62 63.0368 1311 116.46 1270.3 208.04C1243.28 268.871 1243.81 335.069 1266.53 392.926C1289.25 450.782 1334.14 500.277 1395.84 527.692C1433.89 544.596 1468.97 548.584 1512.7 548.521L2042.35 550.279L2042.36 551.894Z" fill="#E3E3E3"/>
<path d="M2030.36 560.518L1485.47 558.719C1440.39 558.787 1403.97 554.661 1364.56 537.144C1236.78 480.369 1178.59 332.11 1234.57 206.132C1276.69 111.328 1371.51 56.0107 1470.27 58.6364C1470.42 58.6144 1470.56 58.611 1470.68 58.6342C1470.74 58.6435 1470.78 58.6579 1470.83 58.6724L2028.95 59.4073L2028.96 61.0174L1470.51 60.2772L1470.45 60.2495L1470.36 60.2484C1372.19 57.594 1277.93 112.557 1236.06 206.788C1208.25 269.37 1208.8 337.485 1232.18 397.009C1255.55 456.534 1301.74 507.462 1365.22 535.667C1404.37 553.062 1440.47 557.16 1485.46 557.1L2030.35 558.905L2030.36 560.52L2030.36 560.518Z" fill="#DEDEDE"/>
<path d="M2018.36 569.141L1458.22 567.29C1411.89 567.36 1374.46 563.123 1333.94 545.116C1202.6 486.757 1142.78 334.363 1200.32 204.873C1243.62 107.425 1341.08 50.5667 1442.6 53.2654C1442.74 53.2387 1442.89 53.242 1443.01 53.2626C1443.07 53.2719 1443.11 53.2863 1443.16 53.3008L2016.9 54.0586L2016.92 55.6687L1442.85 54.9098L1442.79 54.88L1442.68 54.8747C1341.77 52.1473 1244.86 108.655 1201.81 205.527C1173.23 269.87 1173.79 339.89 1197.82 401.089C1221.85 462.284 1269.34 514.643 1334.6 543.639C1374.84 561.52 1411.96 565.735 1458.21 565.673L2018.35 567.528L2018.36 569.143L2018.36 569.141Z" fill="#D9D9D9"/>
<path d="M2006.34 577.766L1430.97 575.865C1383.37 575.935 1344.93 571.583 1303.32 553.088C1168.41 493.147 1106.97 336.615 1166.07 203.613C1210.54 103.523 1310.65 45.1177 1414.92 47.8941C1415.07 47.8674 1415.22 47.866 1415.34 47.8914C1415.4 47.9006 1415.45 47.9171 1415.49 47.9269L2004.85 48.7082L2004.87 50.3184L1415.18 49.5386L1415.11 49.5087L1415 49.5061C1311.33 46.7036 1211.77 104.752 1167.56 204.274C1138.19 270.372 1138.77 342.31 1163.45 405.177C1188.14 468.039 1236.92 521.825 1303.97 551.614C1345.31 569.985 1383.44 574.314 1430.95 574.246L2006.33 576.152L2006.34 577.766Z" fill="#D4D4D4"/>
<path d="M1994.34 586.388L1403.72 584.44C1354.86 584.511 1315.4 580.041 1272.69 561.065C1134.23 499.541 1071.16 338.876 1131.82 202.358C1177.47 99.6226 1280.22 39.6771 1387.25 42.5264C1387.39 42.4997 1387.55 42.5004 1387.67 42.5211C1387.73 42.5325 1387.78 42.549 1387.83 42.5587L1992.81 43.361L1992.82 44.9712L1387.52 44.1704L1387.45 44.1406L1387.34 44.1358C1280.91 41.2604 1178.7 100.851 1133.31 203.014C1103.16 270.868 1103.76 344.716 1129.1 409.253C1154.44 473.791 1204.52 529.002 1273.35 559.582C1315.79 578.441 1354.93 582.886 1403.7 582.818L1994.33 584.773L1994.34 586.388Z" fill="#CECECE"/>
<path d="M1982.34 595.012L1376.47 593.011C1326.36 593.084 1285.88 588.504 1242.07 569.033C1100.04 505.925 1035.36 341.128 1097.58 201.093C1144.4 95.7122 1249.8 34.2264 1359.58 37.1488C1359.73 37.1194 1359.88 37.1202 1360 37.1455C1360.07 37.1569 1360.12 37.171 1360.17 37.1854L1980.77 38.0084L1980.78 39.6186L1359.85 38.797L1359.78 38.765L1359.66 38.7629C1250.48 35.8144 1145.63 96.9503 1099.06 201.754C1068.14 271.364 1068.75 347.129 1094.75 413.334C1120.74 479.544 1172.12 536.188 1242.73 567.561C1286.27 586.908 1326.43 591.466 1376.46 591.401L1982.32 593.402L1982.33 595.016L1982.34 595.012Z" fill="#C7C7C7"/>
<path d="M1970.34 603.635L1349.23 601.582C1297.86 601.661 1256.37 596.96 1211.46 577.001C1065.86 512.309 999.559 343.38 1063.33 199.831C1111.33 91.8092 1219.38 28.7806 1331.91 31.7712C1332.06 31.7419 1332.22 31.7427 1332.34 31.7655C1332.41 31.7768 1332.47 31.7929 1332.52 31.8074L1968.73 32.6491L1968.75 34.2592L1332.2 33.4168L1332.13 33.3848L1332 33.3785C1220.06 30.3502 1112.56 93.031 1064.82 200.485C1033.11 271.856 1033.74 349.528 1060.39 417.406C1087.04 485.286 1139.72 543.356 1212.11 575.52C1256.75 595.355 1297.92 600.027 1349.21 599.956L1970.33 602.025L1970.34 603.64L1970.34 603.635Z" fill="#C2C2C2"/>
<path d="M1958.33 612.26L1321.97 610.159C1269.34 610.24 1226.84 605.421 1180.83 584.974C1031.67 518.699 963.737 345.63 1029.08 198.572C1078.25 87.9045 1188.94 23.3309 1304.23 26.4013C1304.38 26.372 1304.54 26.3703 1304.67 26.3978C1304.74 26.4113 1304.8 26.4252 1304.85 26.4418L1956.68 27.3045L1956.7 28.9146L1304.53 28.0535L1304.46 28.0215L1304.33 28.0198C1189.63 24.9185 1079.49 89.1421 1030.57 199.237C998.083 272.364 998.728 351.946 1026.04 421.498C1053.35 491.047 1107.31 550.548 1181.49 583.504C1227.23 603.828 1269.41 608.617 1321.96 608.544L1958.32 610.647L1958.34 612.262L1958.33 612.26Z" fill="#BDBDBD"/>
<path d="M1946.32 620.884L1294.72 618.731C1240.82 618.812 1197.31 613.878 1150.2 592.95C997.477 525.091 927.925 347.89 994.826 197.32C1045.17 84.0022 1158.5 17.8842 1276.55 21.0319C1276.7 21.0026 1276.87 21.0008 1277 21.0257C1277.07 21.0392 1277.13 21.0553 1277.18 21.0719L1944.63 21.9533L1944.65 23.5634L1276.86 22.6814L1276.78 22.6473L1276.64 22.6413C1159.19 19.4648 1046.4 85.2287 996.31 197.974C963.038 272.857 963.701 354.35 991.663 425.571C1019.63 496.795 1074.9 557.722 1150.85 591.469C1197.69 612.28 1240.89 617.187 1294.7 617.112L1946.31 619.269L1946.32 620.884Z" fill="#B8B8B8"/>
<path d="M1934.33 629.507L1267.48 627.307C1212.32 627.389 1167.79 622.343 1119.59 600.921C963.3 531.479 892.128 350.141 960.59 196.059C1012.11 80.0957 1128.09 12.4348 1248.89 15.6603C1249.05 15.6331 1249.21 15.6313 1249.34 15.6562C1249.41 15.6697 1249.48 15.6858 1249.53 15.7024L1932.6 16.6047L1932.61 18.2148L1249.21 17.3119L1249.13 17.2778L1248.98 17.2744C1128.78 14.025 1013.34 81.3338 962.077 196.72C928.025 273.359 928.698 356.767 957.32 429.658C985.942 502.549 1042.51 564.91 1120.24 599.447C1168.18 620.747 1212.39 625.764 1267.46 625.695L1934.32 627.892L1934.33 629.507Z" fill="#B3B3B3"/>
<path d="M1922.32 638.133L1240.23 635.881C1183.81 635.965 1138.27 630.804 1088.96 608.897C929.112 537.873 856.314 352.401 926.338 194.802C979.036 76.1978 1097.66 6.99208 1221.22 10.2926C1221.38 10.2607 1221.54 10.261 1221.68 10.2859C1221.75 10.3015 1221.81 10.3176 1221.86 10.3342L1920.55 11.2573L1920.57 12.8675L1221.54 11.9437L1221.47 11.9096L1221.31 11.902C1098.34 8.57753 980.271 77.4265 927.827 195.458C892.995 273.853 893.686 359.173 922.961 433.737C952.242 508.298 1010.1 572.089 1089.61 607.418C1138.65 629.206 1183.88 634.34 1240.21 634.264L1922.31 636.519L1922.32 638.133Z" fill="#ACACAC"/>
<path d="M1910.31 646.755L1212.98 644.45C1155.3 644.536 1108.74 639.258 1058.34 616.862C894.923 544.255 820.498 354.648 892.082 193.538C945.956 72.288 1067.23 1.54425 1193.54 4.91092C1193.7 4.87902 1193.86 4.87923 1194 4.90625C1194.07 4.92189 1194.14 4.94011 1194.19 4.95882L1908.5 5.90082L1908.52 7.51095L1193.88 6.56839L1193.79 6.53214L1193.63 6.52931C1067.92 3.1318 947.193 73.5235 893.574 194.201C857.962 274.351 858.671 361.584 888.6 437.816C918.534 514.05 977.689 579.267 1058.99 615.395C1109.12 637.671 1155.36 642.921 1212.95 642.843L1910.31 645.142L1910.32 646.752L1910.31 646.755Z" fill="#A7A7A7"/>
<path d="M1898.31 655.374L1185.73 653.023C1126.79 653.111 1079.22 647.722 1027.71 624.832C860.736 550.641 784.691 356.897 857.835 192.276C912.884 68.3797 1036.8 -3.90903 1165.87 -0.462506C1166.03 -0.494411 1166.19 -0.498908 1166.33 -0.471888C1166.41 -0.458848 1166.48 -0.435781 1166.53 -0.417068L1896.46 0.550435L1896.47 2.16054L1166.21 1.19236L1166.13 1.15401L1166.12 1.15874L1165.96 1.15377C1037.48 -2.31885 914.117 69.6131 859.327 192.938C822.935 274.845 823.655 363.992 854.243 441.894C884.837 519.798 945.286 586.446 1028.37 623.36C1079.6 646.124 1126.86 651.491 1185.71 651.411L1898.3 653.766L1898.31 655.38L1898.31 655.374Z" fill="#A2A2A2"/>
<path d="M1886.29 663.997L1158.46 661.595C1098.27 661.682 1049.68 656.178 997.083 632.802C826.54 557.027 748.874 359.151 823.58 191.013C879.803 64.4761 1006.36 -9.35769 1138.19 -5.83819C1138.35 -5.87269 1138.52 -5.87234 1138.66 -5.84319C1138.74 -5.83015 1138.8 -5.80717 1138.86 -5.78632L1884.41 -4.79797L1884.42 -3.18785L1138.54 -4.1769L1138.45 -4.21738L1138.45 -4.21264L1138.29 -4.21761C1007.06 -7.76794 881.045 65.7138 825.077 191.678C787.905 275.34 788.642 366.399 819.884 445.974C851.132 525.546 912.88 593.627 997.741 631.332C1050.07 654.584 1098.34 660.061 1158.46 659.982L1886.28 662.389L1886.29 664.004L1886.29 663.997Z" fill="#9C9C9C"/>
<path d="M1874.3 672.626L1131.23 670.171C1069.78 670.26 1020.17 664.639 966.475 640.78C792.368 563.421 713.08 361.413 789.349 189.758C846.747 60.5756 975.956 -14.7962 1110.53 -11.2084C1110.7 -11.2429 1110.87 -11.2405 1111.01 -11.2182C1111.09 -11.2052 1111.16 -11.1848 1111.21 -11.1661L1872.38 -10.159L1872.39 -8.54885L1110.89 -9.55869L1110.8 -9.60131L1110.78 -9.5961L1110.62 -9.59905C976.637 -13.2245 847.979 61.7974 790.833 190.412C752.879 275.835 753.632 368.799 785.53 450.049C817.431 531.294 880.481 600.803 967.121 639.299C1020.55 663.039 1069.84 668.633 1131.21 668.552L1874.29 671.011L1874.3 672.626Z" fill="#979797"/>
<path d="M1862.29 681.248L1103.98 678.746C1041.26 678.837 990.642 673.103 935.847 648.751C758.176 569.809 677.268 363.664 755.09 188.5C813.664 56.6718 945.523 -20.2429 1082.85 -16.5774C1083.02 -16.6119 1083.19 -16.6142 1083.33 -16.585C1083.42 -16.5698 1083.49 -16.5495 1083.54 -16.5308L1860.33 -15.5028L1860.34 -13.8927L1083.22 -14.9234L1083.12 -14.9682L1083.1 -14.9582L1082.94 -14.9612C946.204 -18.6596 814.896 57.9052 756.577 189.161C717.843 276.339 718.611 371.22 751.167 454.133C783.727 537.048 848.066 607.986 936.491 647.275C991.025 671.505 1041.32 677.215 1103.95 677.132L1862.28 679.633L1862.29 681.248Z" fill="#909090"/>
<path d="M720.851 187.237C701.446 230.912 691.294 277.145 690.683 324.648C690.091 370.532 698.374 415.662 715.311 458.783C732.241 501.907 756.97 540.845 788.801 574.517C821.762 609.382 860.935 637.039 905.232 656.721C962.653 682.234 1015.32 687.405 1076.74 687.32L1850.29 689.872L1850.28 688.257L1076.72 685.703C1015.51 685.789 963.034 680.641 905.881 655.247C861.786 635.655 822.787 608.121 789.978 573.419C758.291 539.901 733.679 501.14 716.818 458.211C699.961 415.285 691.718 370.36 692.305 324.683C692.918 277.396 703.021 231.374 722.34 187.893C751.126 123.106 798.319 69.2504 858.809 32.1506C917.862 -4.06885 985.805 -22.2218 1055.28 -20.3413L1055.74 -20.2947L1848.31 -19.2477L1848.29 -20.8578L1055.89 -21.9068C1055.72 -21.965 1055.48 -22.0157 1055.19 -21.9575C985.435 -23.8198 917.232 -5.58441 857.944 30.7746C797.177 68.046 749.772 122.147 720.853 187.232" fill="#8C8C8C"/>
</g>
</g>
<defs>
<clipPath id="clip0_519_6494">
<rect width="1440" height="810" fill="white"/>
</clipPath>
<clipPath id="clip1_519_6494">
<rect width="1352" height="710" fill="white" transform="matrix(-1 0 0 1 2042 -22)"/>
</clipPath>
</defs>
</svg>
