<svg width="1440" height="104" viewBox="0 0 1440 104" fill="none" xmlns="http://www.w3.org/2000/svg">
<g clip-path="url(#clip0_486_5297)">
<mask id="mask0_486_5297" style="mask-type:luminance" maskUnits="userSpaceOnUse" x="0" y="-412" width="1440" height="516">
<path d="M0 -380C0 -397.673 14.3269 -412 32 -412H1408C1425.67 -412 1440 -397.673 1440 -380V104H0V-380Z" fill="white"/>
</mask>
<g mask="url(#mask0_486_5297)">
<path d="M1440 0H0V104H1440V0Z" fill="#26233A"/>
<mask id="mask1_486_5297" style="mask-type:alpha" maskUnits="userSpaceOnUse" x="0" y="-600" width="1367" height="1017">
<mask id="mask2_486_5297" style="mask-type:luminance" maskUnits="userSpaceOnUse" x="0" y="-619" width="1552" height="1036">
<path d="M-4.5285e-05 417L0 -619L1552 -619L1552 417L-4.5285e-05 417Z" fill="white"/>
</mask>
<g mask="url(#mask2_486_5297)">
<g opacity="0.05">
<path d="M-1191.67 503.599L-339.017 122.885C-268.62 91.0522 -208.833 71.9392 -135.075 71.9492C104.07 71.9492 297.989 265.932 297.989 504.991C297.989 684.88 188.204 839.31 32.0367 904.69C31.8212 904.84 31.586 904.94 31.3704 904.99C31.2724 905.01 31.194 905.03 31.1157 905.04L-841.46 1296.74L-842.704 1293.97L30.4299 902.02H30.5474L30.665 901.97C185.853 837.09 294.952 683.7 294.942 505C294.942 386.309 246.805 278.821 168.981 200.99C91.1569 123.16 -16.3449 75.0072 -135.075 75.0072C-208.295 75.0072 -267.522 93.9142 -337.773 125.679L-1190.43 506.372L-1191.67 503.589V503.599Z" fill="#EFEFEF"/>
<path d="M-1177.73 479.455L-299.026 87.1181C-226.483 54.3041 -164.884 34.623 -88.873 34.623C157.553 34.623 357.37 234.506 357.37 480.847C357.37 666.21 244.243 825.34 83.314 892.72C83.0985 892.86 82.8536 892.97 82.6479 893.02C82.5499 893.04 82.4715 893.06 82.3931 893.07L-816.853 1296.74L-818.096 1293.96L81.6974 890.05H81.8149L81.9521 889.99C241.892 823.13 354.332 665.04 354.332 480.857C354.332 358.529 304.715 247.738 224.51 167.526C144.296 87.3141 33.5118 37.6811 -88.873 37.6811C-164.336 37.6811 -225.376 57.1661 -297.782 89.9011L-1176.48 482.229L-1177.73 479.445V479.455Z" fill="#E8E8E8"/>
<path d="M-1163.79 455.318L-259.047 51.3575C-184.358 17.5725 -120.937 -2.69554 -42.6815 -2.68554C211.024 -2.68554 416.739 203.097 416.739 456.71C416.739 647.549 300.272 811.379 134.591 880.749C134.375 880.889 134.13 881.01 133.905 881.06C133.807 881.08 133.719 881.099 133.64 881.109L-792.255 1296.74L-793.5 1293.97L132.954 878.089H133.082L133.229 878.029C297.921 809.179 413.711 646.379 413.711 456.73C413.711 330.756 362.626 216.681 280.03 134.078C197.434 51.4744 83.348 0.371464 -42.6718 0.371464C-120.378 0.371464 -183.241 20.4345 -257.793 54.1505L-1162.54 458.102L-1163.79 455.318Z" fill="#E3E3E3"/>
<path d="M-1149.85 431.179L-219.062 15.5842C-142.227 -19.1708 -76.9839 -40.0178 3.51514 -40.0078C264.501 -40.0078 476.114 171.686 476.114 432.571C476.114 628.9 356.306 797.43 185.853 868.78C185.628 868.93 185.383 869.04 185.167 869.09C185.06 869.12 184.971 869.13 184.883 869.14L-767.662 1296.74L-768.907 1293.97L184.207 866.12H184.335L184.491 866.05C353.945 795.21 473.077 627.72 473.077 432.581C473.077 302.981 420.511 185.603 335.535 100.618C250.558 15.6332 133.17 -36.9498 3.51514 -36.9498C-76.445 -36.9498 -141.12 -16.2988 -217.818 18.3772L-1148.61 433.963L-1149.86 431.179H-1149.85Z" fill="#DEDEDE"/>
<path d="M-1135.92 407.043L-179.089 -20.1762C-100.108 -55.9012 -33.0516 -77.3362 49.7009 -77.3262C317.965 -77.3262 535.487 140.268 535.487 408.425C535.487 610.23 412.338 783.45 237.133 856.8C236.908 856.95 236.653 857.06 236.428 857.12C236.32 857.15 236.232 857.16 236.144 857.17L-743.072 1296.74L-744.316 1293.96L235.448 854.15H235.585L235.761 854.08C409.967 781.25 532.44 609.05 532.44 408.445C532.44 275.199 478.405 154.538 391.038 67.1608C303.67 -20.2052 182.99 -74.2682 49.7009 -74.2682C-32.4931 -74.2682 -98.9911 -53.0392 -177.835 -17.3932L-1134.68 409.827L-1135.93 407.043H-1135.92Z" fill="#D9D9D9"/>
<path d="M-1121.97 382.9L-139.113 -55.9436C-57.9766 -92.6386 10.8926 -114.652 95.8888 -114.643C371.423 -114.643 594.853 108.861 594.853 384.292C594.853 591.56 468.353 769.5 288.396 844.82C288.171 844.98 287.916 845.1 287.691 845.15C287.583 845.18 287.485 845.19 287.397 845.21L-718.468 1296.73L-719.713 1293.96L286.711 842.18H286.848L287.034 842.1C466.002 767.28 591.816 590.39 591.816 384.292C591.816 247.41 536.301 123.445 446.553 33.6874C356.805 -56.0606 232.833 -111.594 95.8986 -111.594C11.451 -111.594 -56.8596 -89.7866 -137.849 -53.1596L-1120.73 385.683L-1121.97 382.9Z" fill="#D4D4D4"/>
<path d="M-1108.03 358.758L-99.1266 -91.7186C-15.845 -129.385 54.8463 -151.977 142.077 -151.977C424.891 -151.976 654.219 77.4284 654.219 360.14C654.219 572.892 524.378 755.53 339.67 832.84C339.444 832.99 339.18 833.11 338.954 833.17C338.837 833.2 338.739 833.21 338.651 833.23L-693.875 1296.72L-695.119 1293.95L337.965 830.2H338.102L338.298 830.12C522.017 753.31 651.182 571.716 651.182 360.15C651.182 219.632 594.198 92.3744 502.059 0.234436C409.92 -91.9056 282.656 -148.909 142.086 -148.909C55.3949 -148.909 -14.7281 -126.523 -97.8726 -88.9256L-1106.78 361.541L-1108.03 358.758Z" fill="#CECECE"/>
<path d="M-1094.09 334.626L-59.1425 -127.476C26.2848 -166.111 98.7888 -189.291 188.272 -189.281C478.367 -189.281 713.593 46.0228 713.593 336.018C713.593 554.249 580.411 741.58 390.95 820.88C390.715 821.04 390.451 821.16 390.225 821.21C390.108 821.24 390 821.26 389.912 821.27L-669.273 1296.73L-670.518 1293.96L389.226 818.24H389.373L389.579 818.15C578.05 739.35 710.556 553.053 710.556 336.018C710.556 191.864 652.092 61.3028 557.572 -33.2182C463.053 -127.75 332.487 -186.233 188.272 -186.233C99.3375 -186.233 27.392 -163.259 -57.8982 -124.702L-1092.84 337.4L-1094.09 334.616V334.626Z" fill="#C7C7C7"/>
<path d="M-1080.15 310.49L-19.1628 -163.236C68.4102 -202.852 142.737 -226.6 234.464 -226.59C531.838 -226.59 772.963 14.6152 772.973 311.882C772.973 535.582 636.44 727.61 442.227 808.91C441.992 809.08 441.728 809.2 441.492 809.26C441.375 809.29 441.257 809.31 441.169 809.32L-644.666 1296.74L-645.91 1293.97L440.493 806.29H440.64L440.865 806.2C634.098 725.42 769.945 534.415 769.945 311.892C769.945 164.091 710.002 30.2481 613.101 -66.6649C516.191 -163.579 382.333 -223.532 234.484 -223.532C143.305 -223.532 69.5466 -199.98 -17.8893 -160.442L-1078.91 313.264L-1080.15 310.48V310.49Z" fill="#C2C2C2"/>
<path d="M-1066.21 286.35L20.8199 -199.009C110.538 -239.596 186.687 -263.922 280.658 -263.912C585.312 -263.912 832.345 -16.7971 832.345 287.742C832.345 516.921 692.471 713.66 493.497 796.94C493.262 797.1 492.987 797.23 492.752 797.28C492.625 797.31 492.517 797.33 492.419 797.34L-620.076 1296.73L-621.321 1293.96L491.733 794.31H491.88L492.105 794.21C690.09 711.44 829.288 515.735 829.288 287.742C829.288 136.305 767.875 -0.831093 668.584 -100.136C569.293 -199.431 432.143 -260.864 280.649 -260.864C187.226 -260.864 111.646 -236.734 22.0642 -196.226L-1064.98 289.134L-1066.22 286.35H-1066.21Z" fill="#BDBDBD"/>
<path d="M-1052.27 262.206L60.8024 -234.777C152.676 -276.334 230.639 -301.238 326.844 -301.238C638.777 -301.238 891.708 -48.2233 891.708 263.589C891.708 498.256 748.512 699.69 544.766 784.96C544.531 785.12 544.257 785.25 544.012 785.31C543.884 785.34 543.767 785.36 543.669 785.37L-595.477 1296.73L-596.721 1293.96L542.993 782.34H543.149L543.395 782.24C746.142 697.48 888.68 497.08 888.68 263.598C888.68 108.526 825.788 -31.9043 724.115 -133.591C622.433 -235.277 481.992 -298.18 326.863 -298.18C231.197 -298.18 153.794 -273.472 62.0664 -231.994L-1051.03 264.99L-1052.27 262.206Z" fill="#B8B8B8"/>
<path d="M-1038.34 238.072L100.778 -270.545C194.798 -313.072 274.582 -338.564 373.03 -338.555C692.244 -338.555 951.073 -79.63 951.073 239.455C951.073 479.601 804.527 685.74 596.029 772.99C595.784 773.15 595.51 773.28 595.265 773.34C595.138 773.37 595.02 773.39 594.922 773.4L-570.883 1296.73L-572.128 1293.95L594.246 770.37H594.403L594.657 770.26C802.156 683.51 948.036 478.405 948.036 239.455C948.036 80.746 883.674 -62.9871 779.611 -167.055C675.548 -271.123 531.804 -335.507 373.04 -335.507C275.131 -335.507 195.915 -310.21 102.032 -267.771L-1037.09 240.856L-1038.34 238.072Z" fill="#B3B3B3"/>
<path d="M-1024.39 213.929L140.768 -306.313C236.934 -349.81 318.53 -375.881 419.232 -375.881C745.716 -375.881 1010.45 -111.055 1010.45 215.311C1010.45 460.926 860.566 671.77 647.306 761.01C647.061 761.18 646.777 761.31 646.532 761.37C646.395 761.4 646.277 761.42 646.179 761.43L-546.286 1296.72L-547.53 1293.95L645.503 758.4H645.66L645.935 758.29C858.195 669.55 1007.42 459.75 1007.42 215.321C1007.42 52.9749 941.575 -94.0511 835.131 -200.51C728.677 -306.96 581.641 -372.823 419.242 -372.823C319.089 -372.823 238.051 -346.948 142.022 -303.529L-1023.15 216.712L-1024.39 213.929Z" fill="#ACACAC"/>
<path d="M-1010.45 189.787L180.756 -342.079C279.067 -386.546 362.486 -413.195 465.432 -413.195C799.195 -413.195 1069.84 -142.47 1069.84 191.169C1069.84 442.263 916.602 657.8 698.601 749.04C698.356 749.21 698.072 749.34 697.817 749.4C697.68 749.43 697.552 749.45 697.445 749.46L-521.671 1296.72L-522.915 1293.95L696.768 746.43H696.935L697.209 746.31C914.222 655.58 1066.79 441.077 1066.79 191.169C1066.79 25.1879 999.473 -125.132 890.648 -233.973C781.814 -342.814 631.486 -410.147 465.432 -410.157C363.035 -410.157 280.184 -383.704 182.01 -339.315L-1009.21 192.57L-1010.46 189.797L-1010.45 189.787Z" fill="#A7A7A7"/>
<path d="M-996.492 165.653L220.742 -377.847C321.199 -423.284 406.43 -450.522 511.63 -450.512C852.673 -450.512 1129.22 -173.876 1129.22 167.035C1129.22 423.608 972.638 643.85 749.874 737.07C749.629 737.24 749.345 737.38 749.09 737.44C748.943 737.48 748.816 737.49 748.708 737.5L-497.067 1296.72L-498.311 1293.94L748.032 734.47H748.208V734.46L748.492 734.34C970.266 641.62 1126.18 422.422 1126.17 167.035C1126.17 -2.58302 1057.38 -156.205 946.164 -267.427C834.939 -378.65 681.319 -447.464 511.63 -447.464C406.989 -447.464 322.316 -420.432 221.996 -375.073L-995.258 168.427L-996.502 165.643L-996.492 165.653Z" fill="#A2A2A2"/>
<path d="M-982.556 141.515L260.721 -413.608C363.334 -460.017 450.378 -487.832 557.811 -487.822C906.134 -487.822 1188.58 -205.286 1188.58 142.907C1188.58 404.949 1028.65 629.89 801.14 725.1C800.886 725.29 800.601 725.41 800.337 725.47C800.19 725.51 800.062 725.52 799.945 725.53L-472.49 1296.72L-473.735 1293.95L799.269 722.5H799.455V722.49L799.739 722.38C1026.26 627.68 1185.52 403.763 1185.52 142.907C1185.52 -30.3471 1115.25 -187.262 1001.65 -300.876C888.047 -414.481 731.125 -484.774 557.801 -484.774C450.917 -484.774 364.431 -457.155 261.956 -410.825L-981.321 144.289L-982.565 141.505L-982.556 141.515Z" fill="#9C9C9C"/>
<path d="M-968.631 117.379L300.689 -449.368C405.447 -496.746 494.314 -525.141 603.991 -525.141C959.593 -525.141 1247.93 -236.704 1247.93 118.771C1247.93 386.292 1084.66 615.93 852.395 713.14C852.14 713.32 851.846 713.45 851.592 713.52C851.445 713.56 851.307 713.58 851.2 713.59L-447.886 1296.74L-449.13 1293.97L850.533 710.56H850.729L850.749 710.54L851.023 710.42C1082.31 613.74 1244.91 385.125 1244.91 118.781C1244.91 -58.1186 1173.17 -218.318 1057.18 -334.323C941.193 -450.319 780.969 -522.083 604.01 -522.083C494.882 -522.083 406.574 -493.885 301.953 -446.585L-967.387 120.163L-968.631 117.379Z" fill="#979797"/>
<path d="M-954.684 93.2372L340.678 -485.144C447.583 -533.493 538.271 -562.475 650.192 -562.465C1013.07 -562.465 1307.31 -268.119 1307.32 94.6202C1307.32 367.619 1140.7 601.96 903.681 701.15C903.427 701.34 903.133 701.47 902.868 701.53C902.711 701.57 902.574 701.59 902.467 701.6L-423.279 1296.72L-424.523 1293.95L901.8 698.57H902.006L902.026 698.54L902.3 698.43C1138.34 599.75 1304.29 366.433 1304.29 94.6202C1304.29 -85.9158 1231.07 -249.418 1112.7 -367.796C994.321 -486.173 830.815 -559.417 650.212 -559.417C538.83 -559.417 448.709 -530.641 341.942 -482.37L-953.439 96.0212L-954.684 93.2372Z" fill="#909090"/>
<path d="M1366.68 70.4886C1366.68 -19.9554 1348.96 -107.714 1314 -190.337C1280.24 -270.147 1231.9 -341.833 1170.33 -403.393C1108.77 -464.964 1037.08 -513.302 957.269 -547.077C874.624 -582.047 786.845 -599.777 696.372 -599.777C579.092 -599.777 485.337 -568.247 380.647 -520.908L-940.748 69.0977L-939.504 71.8807L381.901 -518.124C486.238 -565.307 579.651 -596.729 696.382 -596.729C786.444 -596.729 873.831 -579.077 956.093 -544.274C1035.54 -510.656 1106.9 -462.533 1168.2 -401.247C1229.48 -339.961 1277.59 -268.599 1311.21 -189.151C1346 -106.9 1363.64 -19.5433 1363.64 70.4987C1363.64 204.666 1323.96 334.07 1248.9 444.714C1175.62 552.732 1073.49 636.34 953.565 686.47L952.743 686.74L-399.937 1293.96L-398.693 1296.73L953.713 689.64C954.046 689.61 954.496 689.52 954.947 689.19C1075.33 638.81 1177.85 554.869 1251.42 446.43C1326.82 335.275 1366.68 205.284 1366.68 70.4987" fill="#8C8C8C"/>
</g>
</g>
</mask>
<g mask="url(#mask1_486_5297)">
<path d="M3313 0.65625H-1871V103.999H3313V0.65625Z" fill="#D9D9D9"/>
</g>
</g>
</g>
<defs>
<clipPath id="clip0_486_5297">
<rect width="1440" height="104" fill="white"/>
</clipPath>
</defs>
</svg>
