<svg width="539" height="329" viewBox="0 0 539 329" fill="none" xmlns="http://www.w3.org/2000/svg">
<g filter="url(#filter0_d_542_4974)">
<rect x="22" y="158.275" width="72.3349" height="72.3349" rx="12.0558" transform="rotate(-13.1325 22 158.275)" fill="url(#paint0_linear_542_4974)" shape-rendering="crispEdges"/>
<path d="M74.1462 173.963L48.7084 179.898C46.2214 180.478 45.1277 182.237 45.708 184.724L48.4471 196.465C49.0273 198.952 50.7866 200.045 53.2736 199.465L78.7114 193.53C81.1985 192.95 82.2921 191.191 81.7119 188.704L78.9728 176.963C78.3925 174.476 76.6333 173.383 74.1462 173.963ZM79.7551 189.16C80.0838 190.569 79.6638 191.245 78.2549 191.574L52.8171 197.508C51.4083 197.837 50.7325 197.417 50.4038 196.008L47.6647 184.268C47.336 182.859 47.7561 182.183 49.1649 181.854L74.6027 175.919C76.0116 175.591 76.6873 176.011 77.016 177.42L79.7551 189.16ZM83.5711 178.985L84.9406 184.856C85.0666 185.396 84.7306 185.936 84.1905 186.062C83.6504 186.188 83.1099 185.852 82.9839 185.312L81.6143 179.442C81.4883 178.902 81.8244 178.361 82.3644 178.235C82.9045 178.109 83.4451 178.445 83.5711 178.985Z" fill="#F9FAFB"/>
</g>
<g filter="url(#filter1_d_542_4974)">
<rect x="444.324" y="174.996" width="72.3349" height="72.3349" rx="12.0558" transform="rotate(8.68421 444.324 174.996)" fill="url(#paint1_linear_542_4974)" shape-rendering="crispEdges"/>
<path d="M475.526 210.25L474.009 220.181" stroke="#F9FAFB" stroke-width="1.50698" stroke-linecap="round" stroke-linejoin="round"/>
<path d="M471.761 234.902L459.724 233.064C452.832 232.011 450.704 226.645 454.96 221.137L462.863 210.92L470.304 201.325C474.813 195.489 480.613 196.375 483.175 203.291L487.41 214.69L491.902 226.799C494.32 233.327 490.667 237.81 483.795 236.761L471.758 234.922L471.761 234.902Z" stroke="#F9FAFB" stroke-width="1.50698" stroke-linecap="round" stroke-linejoin="round"/>
<path d="M473.088 226.141L473.106 226.143" stroke="#F9FAFB" stroke-width="1.50698" stroke-linecap="round" stroke-linejoin="round"/>
</g>
<g filter="url(#filter2_d_542_4974)">
<rect x="252.758" y="16" width="72.1135" height="72.1135" rx="12.0558" transform="rotate(3.78218 252.758 16)" fill="url(#paint2_linear_542_4974)" shape-rendering="crispEdges"/>
<path d="M267.078 73.1259L291.026 74.7081M270.788 47.3143L290.745 48.6328M289.03 74.5762L291.404 38.6546C291.474 37.596 291.12 36.553 290.421 35.755C289.722 34.9571 288.735 34.4695 287.676 34.3996L275.702 33.6084C274.644 33.5385 273.601 33.8919 272.803 34.591C272.005 35.2901 271.517 36.2775 271.447 37.336L269.074 73.2577M290.217 56.6154L294.208 56.8791C295.267 56.949 296.254 57.4366 296.953 58.2346C297.653 59.0326 298.006 60.0755 297.936 61.1341L297.672 65.1254C297.602 66.184 297.956 67.2269 298.655 68.0249C299.354 68.8229 300.341 69.3105 301.4 69.3804C302.458 69.4503 303.501 69.0969 304.299 68.3978C305.097 67.6988 305.585 66.7114 305.655 65.6528L306.6 51.344C306.635 50.8173 306.566 50.2889 306.396 49.7892C306.226 49.2895 305.959 48.8284 305.61 48.4324L299.255 41.1776" stroke="white" stroke-width="2" stroke-linecap="round" stroke-linejoin="round"/>
</g>
<g filter="url(#filter3_d_542_4974)">
<rect x="242.91" y="240" width="59.291" height="59.291" rx="9.88183" transform="rotate(3.78218 242.91 240)" fill="url(#paint3_linear_542_4974)" shape-rendering="crispEdges"/>
<path d="M271.746 265.705C271.716 266.158 271.324 266.502 270.87 266.472C268.453 266.312 266.369 267.995 266.023 270.383C265.962 270.812 265.58 271.115 265.156 271.087C265.133 271.086 265.113 271.085 265.091 271.081C264.641 271.017 264.33 270.599 264.395 270.149C264.864 266.899 267.695 264.611 270.979 264.829C271.432 264.859 271.776 265.251 271.746 265.705ZM283.689 284.782L283.526 287.249C283.496 287.703 283.104 288.047 282.65 288.017L256.356 286.278C255.903 286.248 255.559 285.856 255.589 285.402L255.752 282.937C255.843 281.553 256.782 280.43 258.027 280.026L258.564 271.901C259.097 263.84 264.236 258.74 271.35 259.21C278.464 259.68 282.887 265.411 282.354 273.473L281.817 281.599C282.998 282.162 283.781 283.4 283.689 284.782ZM259.686 279.896L280.191 281.252L280.712 273.365C281.18 266.287 277.375 261.259 271.243 260.853C265.112 260.448 260.677 264.931 260.209 272.01L259.688 279.896L259.686 279.896ZM282.046 284.674C282.106 283.768 281.418 282.983 280.513 282.924L259.147 281.511C258.24 281.451 257.455 282.14 257.395 283.046L257.286 284.689L281.937 286.319L282.046 284.674ZM271.513 256.745C271.967 256.775 272.359 256.431 272.389 255.977L272.552 253.512C272.582 253.059 272.238 252.666 271.785 252.636C271.331 252.606 270.939 252.95 270.909 253.404L270.746 255.869C270.716 256.322 271.06 256.715 271.513 256.745ZM281.978 260.738C282.188 260.752 282.404 260.685 282.575 260.536L285.203 258.234C285.545 257.935 285.58 257.414 285.28 257.072C284.981 256.731 284.46 256.696 284.118 256.995L281.49 259.298C281.149 259.597 281.114 260.118 281.414 260.459C281.562 260.629 281.767 260.724 281.978 260.738ZM260.048 259.047C260.198 259.219 260.403 259.311 260.614 259.325C260.824 259.339 261.04 259.273 261.211 259.124C261.553 258.825 261.588 258.304 261.288 257.962L258.986 255.334C258.687 254.992 258.166 254.958 257.824 255.257C257.483 255.556 257.448 256.077 257.747 256.419L260.048 259.047Z" fill="#F9FAFB"/>
</g>
<defs>
<filter id="filter0_d_542_4974" x="-2.11163" y="125.263" width="135.101" height="135.102" filterUnits="userSpaceOnUse" color-interpolation-filters="sRGB">
<feFlood flood-opacity="0" result="BackgroundImageFix"/>
<feColorMatrix in="SourceAlpha" type="matrix" values="0 0 0 0 0 0 0 0 0 0 0 0 0 0 0 0 0 0 127 0" result="hardAlpha"/>
<feOffset dy="7.53488"/>
<feGaussianBlur stdDeviation="12.0558"/>
<feComposite in2="hardAlpha" operator="out"/>
<feColorMatrix type="matrix" values="0 0 0 0 0 0 0 0 0 0 0 0 0 0 0 0 0 0 0.3 0"/>
<feBlend mode="normal" in2="BackgroundImageFix" result="effect1_dropShadow_542_4974"/>
<feBlend mode="normal" in="SourceGraphic" in2="effect1_dropShadow_542_4974" result="shape"/>
</filter>
<filter id="filter1_d_542_4974" x="409.291" y="158.419" width="130.651" height="130.651" filterUnits="userSpaceOnUse" color-interpolation-filters="sRGB">
<feFlood flood-opacity="0" result="BackgroundImageFix"/>
<feColorMatrix in="SourceAlpha" type="matrix" values="0 0 0 0 0 0 0 0 0 0 0 0 0 0 0 0 0 0 127 0" result="hardAlpha"/>
<feOffset dy="7.53488"/>
<feGaussianBlur stdDeviation="12.0558"/>
<feComposite in2="hardAlpha" operator="out"/>
<feColorMatrix type="matrix" values="0 0 0 0 0 0 0 0 0 0 0 0 0 0 0 0 0 0 0.3 0"/>
<feBlend mode="normal" in2="BackgroundImageFix" result="effect1_dropShadow_542_4974"/>
<feBlend mode="normal" in="SourceGraphic" in2="effect1_dropShadow_542_4974" result="shape"/>
</filter>
<filter id="filter2_d_542_4974" x="223.889" y="-0.576746" width="124.937" height="124.936" filterUnits="userSpaceOnUse" color-interpolation-filters="sRGB">
<feFlood flood-opacity="0" result="BackgroundImageFix"/>
<feColorMatrix in="SourceAlpha" type="matrix" values="0 0 0 0 0 0 0 0 0 0 0 0 0 0 0 0 0 0 127 0" result="hardAlpha"/>
<feOffset dy="7.53488"/>
<feGaussianBlur stdDeviation="12.0558"/>
<feComposite in2="hardAlpha" operator="out"/>
<feColorMatrix type="matrix" values="0 0 0 0 0 0 0 0 0 0 0 0 0 0 0 0 0 0 0.3 0"/>
<feBlend mode="normal" in2="BackgroundImageFix" result="effect1_dropShadow_542_4974"/>
<feBlend mode="normal" in="SourceGraphic" in2="effect1_dropShadow_542_4974" result="shape"/>
</filter>
<filter id="filter3_d_542_4974" x="219.235" y="226.412" width="102.6" height="102.6" filterUnits="userSpaceOnUse" color-interpolation-filters="sRGB">
<feFlood flood-opacity="0" result="BackgroundImageFix"/>
<feColorMatrix in="SourceAlpha" type="matrix" values="0 0 0 0 0 0 0 0 0 0 0 0 0 0 0 0 0 0 127 0" result="hardAlpha"/>
<feOffset dy="6.17615"/>
<feGaussianBlur stdDeviation="9.88183"/>
<feComposite in2="hardAlpha" operator="out"/>
<feColorMatrix type="matrix" values="0 0 0 0 0 0 0 0 0 0 0 0 0 0 0 0 0 0 0.3 0"/>
<feBlend mode="normal" in2="BackgroundImageFix" result="effect1_dropShadow_542_4974"/>
<feBlend mode="normal" in="SourceGraphic" in2="effect1_dropShadow_542_4974" result="shape"/>
</filter>
<linearGradient id="paint0_linear_542_4974" x1="94.3349" y1="158.275" x2="13.2098" y2="218.835" gradientUnits="userSpaceOnUse">
<stop stop-color="#6B47F5"/>
<stop offset="1" stop-color="#3F3A60"/>
</linearGradient>
<linearGradient id="paint1_linear_542_4974" x1="516.659" y1="174.996" x2="435.534" y2="235.556" gradientUnits="userSpaceOnUse">
<stop stop-color="#6B47F5"/>
<stop offset="1" stop-color="#3F3A60"/>
</linearGradient>
<linearGradient id="paint2_linear_542_4974" x1="324.871" y1="16" x2="243.994" y2="76.3742" gradientUnits="userSpaceOnUse">
<stop stop-color="#6B47F5"/>
<stop offset="1" stop-color="#3F3A60"/>
</linearGradient>
<linearGradient id="paint3_linear_542_4974" x1="302.201" y1="240" x2="235.705" y2="289.639" gradientUnits="userSpaceOnUse">
<stop stop-color="#6B47F5"/>
<stop offset="1" stop-color="#3F3A60"/>
</linearGradient>
</defs>
</svg>
