<svg width="596" height="516" viewBox="0 0 596 516" fill="none" xmlns="http://www.w3.org/2000/svg">
<mask id="mask0_542_4916" style="mask-type:luminance" maskUnits="userSpaceOnUse" x="0" y="0" width="592" height="516">
<path d="M592 0H0V516H592V0Z" fill="white"/>
</mask>
<g mask="url(#mask0_542_4916)">
<g filter="url(#filter0_d_542_4916)">
<mask id="mask1_542_4916" style="mask-type:luminance" maskUnits="userSpaceOnUse" x="-63" y="29" width="750" height="1427">
<path d="M687 29L687 1456L-63 1456L-63.0001 29L687 29Z" fill="white"/>
</mask>
<g mask="url(#mask1_542_4916)">
<g opacity="0.1">
<path d="M62.5565 1431.04L64.5116 839.837C64.4381 790.932 68.9137 751.426 87.9351 708.664C149.581 570.033 310.56 506.9 447.346 567.626C550.285 613.326 610.346 716.194 607.495 823.343C607.523 823.495 607.52 823.651 607.498 823.781C607.488 823.843 607.473 823.891 607.458 823.939L606.657 1429.51L604.956 1429.53L605.758 823.615L605.789 823.544L605.795 823.437C608.676 716.92 548.984 614.634 446.655 569.205C378.688 539.031 304.722 539.63 240.075 564.991C175.433 590.355 120.124 640.476 89.4953 709.356C70.6069 751.832 66.1546 791.003 66.2197 839.82L64.26 1431.04L62.5542 1431.05L62.5565 1431.04Z" fill="url(#paint0_linear_542_4916)"/>
<path d="M53.4448 1418.36L55.4528 811.074C55.3797 760.836 59.9769 720.261 79.5138 676.34C142.831 533.952 308.182 469.104 448.677 531.477C554.406 578.416 616.101 684.083 613.169 794.136C613.197 794.288 613.198 794.446 613.172 794.574C613.162 794.636 613.144 794.689 613.134 794.739L612.309 1416.79L610.608 1416.81L611.432 794.408L611.463 794.337L611.466 794.223C614.426 684.794 553.108 579.719 447.979 533.047C378.157 502.049 302.166 502.665 235.757 528.717C169.353 554.772 112.538 606.261 81.0708 677.025C61.665 720.665 57.0912 760.904 57.1631 811.051L55.1505 1418.35L53.4448 1418.36Z" fill="url(#paint1_linear_542_4916)"/>
<path d="M44.335 1405.69L46.3933 782.309C46.3183 730.742 51.0392 689.095 71.0845 644.017C136.075 497.867 305.791 431.307 450.001 495.329C558.524 543.509 621.847 651.965 618.837 764.925C618.865 765.077 618.864 765.24 618.843 765.37C618.831 765.437 618.813 765.49 618.803 765.54L617.955 1404.08L616.255 1404.09L617.1 765.209L617.132 765.138L617.137 765.019C620.174 652.684 557.226 544.812 449.308 496.901C377.63 465.08 299.623 465.709 231.449 492.458C163.276 519.207 104.954 572.064 72.6516 644.706C52.7302 689.506 48.0347 730.813 48.1063 782.293L46.0408 1405.68L44.335 1405.69Z" fill="url(#paint2_linear_542_4916)"/>
<path d="M35.2301 1393.03L37.3435 753.553C37.2667 700.657 42.1041 657.94 62.6723 611.7C129.335 461.788 303.417 393.516 451.341 459.188C562.659 508.608 627.609 619.854 624.522 735.72C624.553 735.879 624.552 736.042 624.525 736.17C624.513 736.237 624.498 736.297 624.483 736.345L623.614 1391.37L621.913 1391.38L622.78 736.014L622.814 735.938L622.817 735.812C625.931 620.57 561.351 509.907 450.643 460.757C377.111 428.113 297.078 428.758 227.143 456.198C157.203 483.636 97.3672 537.865 64.2271 612.39C43.7901 658.349 38.9759 700.731 39.0443 753.538L36.9309 1393.01L35.2251 1393.02L35.2301 1393.03Z" fill="url(#paint3_linear_542_4916)"/>
<path d="M26.1198 1380.37L28.2883 724.801C28.2045 670.575 33.1709 626.787 54.2546 579.387C122.59 425.713 301.037 355.73 452.673 423.043C566.781 473.702 633.36 587.745 630.201 706.519C630.232 706.678 630.231 706.842 630.207 706.977C630.195 707.044 630.178 707.109 630.163 707.157L629.274 1378.67L627.573 1378.68L628.463 706.821L628.497 706.745L628.503 706.608C631.702 588.458 565.49 475.002 451.982 424.61C376.59 391.139 294.543 391.806 222.841 419.935C151.136 448.069 89.7941 503.666 55.8189 580.07C34.8663 627.188 29.9305 670.638 30.0058 724.775L27.8205 1380.35L26.1147 1380.36L26.1198 1380.37Z" fill="url(#paint4_linear_542_4916)"/>
<path d="M17.009 1367.69L19.2278 696.031C19.1422 640.476 24.2324 595.615 45.8317 547.056C115.841 389.62 298.66 317.922 454.003 386.887C570.905 438.787 639.117 555.622 635.873 677.305C635.904 677.464 635.906 677.635 635.877 677.767C635.863 677.84 635.848 677.9 635.831 677.953L634.919 1365.95L633.219 1365.96L634.128 677.622L634.162 677.546L634.164 677.407C637.44 556.35 569.598 440.098 453.301 388.467C376.054 354.173 291.989 354.854 218.517 383.676C145.051 412.501 82.1973 469.464 47.3843 547.752C25.916 596.029 20.8565 640.552 20.9336 696.018L18.7126 1367.68L17.0068 1367.69H17.009Z" fill="url(#paint5_linear_542_4916)"/>
<path d="M7.89746 1355.01L10.1715 667.262C10.0863 610.374 15.298 564.446 37.4057 514.73C109.087 353.532 296.272 280.122 455.324 350.734C575.027 403.876 644.87 523.491 641.545 648.091C641.576 648.25 641.577 648.42 641.551 648.56C641.537 648.633 641.52 648.698 641.502 648.751L640.571 1353.23L638.87 1353.24L639.802 648.414L639.838 648.333L639.844 648.185C643.2 524.217 573.731 405.174 454.634 352.301C375.532 317.183 289.447 317.883 214.214 347.396C138.978 376.915 74.6183 435.246 38.97 515.412C16.9862 564.85 11.8028 610.444 11.8818 667.239L9.60326 1355L7.89746 1355.01Z" fill="url(#paint6_linear_542_4916)"/>
<path d="M-1.21094 1342.35L1.11316 638.514C1.02616 580.296 6.35656 533.294 28.9849 482.42C102.34 317.461 293.894 242.341 456.656 314.6C579.153 368.983 650.626 491.393 647.219 618.897C647.247 619.061 647.249 619.233 647.223 619.373C647.209 619.445 647.192 619.511 647.174 619.564L646.221 1340.53L644.52 1340.54L645.474 619.227L645.51 619.146L645.514 618.99C648.946 492.116 577.845 370.281 455.958 316.169C375.002 280.229 286.895 280.94 209.897 311.149C132.899 341.359 67.0256 401.061 30.542 483.106C8.04256 533.702 2.74256 580.367 2.81616 638.493L0.494863 1342.34L-1.21094 1342.35Z" fill="url(#paint7_linear_542_4916)"/>
<path d="M-10.3213 1329.68L-7.94189 609.748C-8.03082 550.203 -2.57879 502.132 20.5623 450.092C95.587 281.375 291.509 204.539 457.986 278.447C583.273 334.068 656.377 459.272 652.891 589.687C652.924 589.853 652.924 590.029 652.898 590.169C652.881 590.246 652.864 590.312 652.847 590.365L651.872 1327.82L650.171 1327.83L651.147 590.028L651.183 589.947L651.191 589.781C654.702 459.995 581.975 335.371 457.293 280.019C374.482 243.254 284.355 243.984 205.59 274.882C126.828 305.788 59.4434 366.857 22.1245 450.78C-0.8906 502.536 -6.31431 550.273 -6.23385 609.731L-8.61548 1329.67L-10.3213 1329.68Z" fill="url(#paint8_linear_542_4916)"/>
<path d="M-19.4302 1317.01L-16.9956 580.986C-17.0864 520.112 -11.5106 470.969 12.1462 417.77C88.8443 245.291 289.133 166.737 459.32 242.292C587.401 299.154 662.13 427.153 658.574 560.471C658.607 560.637 658.607 560.813 658.579 560.958C658.562 561.036 658.543 561.106 658.523 561.164L657.528 1315.1L655.827 1315.11L656.823 560.827L656.861 560.741L656.864 560.573C660.453 427.881 586.096 300.46 458.619 243.867C373.953 206.279 281.806 207.027 201.28 238.617C120.751 270.211 51.8598 332.648 13.696 418.458C-9.83465 471.373 -15.3799 520.178 -15.2976 580.964L-17.7266 1317L-19.4274 1317.01H-19.4302Z" fill="url(#paint9_linear_542_4916)"/>
<path d="M-28.5366 1304.33L-26.0542 552.225C-26.1469 490.022 -20.4545 439.809 3.72515 385.447C82.096 209.207 286.755 128.943 460.651 206.145C591.527 264.248 667.888 395.038 664.248 531.266C664.281 531.432 664.286 531.61 664.258 531.755C664.244 531.84 664.219 531.908 664.2 531.966L663.178 1302.38L661.477 1302.4L662.5 531.63L662.54 531.538L662.535 531.536L662.54 531.363C666.209 395.76 590.224 265.549 459.951 207.72C373.43 169.309 279.261 170.069 196.97 202.354C114.677 234.645 44.2741 298.448 5.27995 386.138C-18.7663 440.213 -24.4353 490.091 -24.3511 552.205L-26.838 1304.32L-28.5439 1304.34L-28.5366 1304.33Z" fill="url(#paint10_linear_542_4916)"/>
<path d="M-37.6456 1291.65L-35.108 523.45C-35.2002 459.914 -29.3862 408.633 -4.69335 353.117C75.3505 173.114 284.374 91.1386 461.985 169.99C595.651 229.331 673.644 362.914 669.926 502.047C669.963 502.221 669.962 502.397 669.932 502.547C669.918 502.632 669.894 502.7 669.872 502.763L668.828 1289.67L667.127 1289.68L668.172 502.426L668.214 502.33L668.209 502.328L668.214 502.154C671.965 363.648 594.343 230.643 461.283 171.57C372.907 132.335 276.718 133.114 192.66 166.088C108.605 199.07 36.6887 264.244 -3.14075 353.812C-27.7025 409.047 -33.4883 459.995 -33.4044 523.443L-35.947 1291.64L-37.6528 1291.65H-37.6456Z" fill="url(#paint11_linear_542_4916)"/>
<path d="M-46.7578 1279L-44.165 494.708C-44.2591 429.843 -38.3213 377.489 -13.1178 320.812C68.5989 137.047 281.988 53.3593 463.313 133.86C599.774 194.442 679.392 330.818 675.602 472.861C675.639 473.035 675.636 473.215 675.612 473.363C675.599 473.447 675.577 473.523 675.557 473.581L674.493 1276.97L672.793 1276.98L673.859 473.239L673.904 473.138L673.899 473.123L673.902 472.955C677.732 331.537 598.483 195.742 462.623 135.426C372.388 95.3657 274.186 96.1605 188.359 129.829C102.536 163.5 29.1113 230.047 -11.5534 321.494C-36.6308 377.888 -42.5404 429.909 -42.4547 494.685L-45.052 1278.98L-46.7578 1279Z" fill="url(#paint12_linear_542_4916)"/>
<path d="M-55.8672 1266.32L-53.2242 465.942C-53.3202 399.748 -47.2636 346.32 -21.5394 288.485C61.8501 100.958 279.609 15.561 464.642 97.7006C603.897 159.523 685.144 298.698 681.273 443.644C681.309 443.818 681.311 444 681.281 444.151C681.265 444.24 681.243 444.316 681.223 444.374L680.137 1264.25L678.437 1264.26L679.525 444.032L679.573 443.926L679.562 443.909L679.565 443.741C683.472 299.416 602.594 160.825 463.944 99.2704C371.854 58.3867 271.627 59.1978 184.043 93.5592C96.456 127.926 21.5222 195.834 -19.9801 289.165C-45.5754 346.723 -51.6065 399.812 -51.5189 465.917L-54.1613 1266.31L-55.8672 1266.32Z" fill="url(#paint13_linear_542_4916)"/>
<path d="M465.974 61.5619C419.839 41.0801 371.001 30.3659 320.822 29.7208C272.353 29.0951 224.68 37.8384 179.13 55.7149C133.577 73.5841 92.4451 99.6849 56.8764 133.282C20.0467 168.071 -9.16875 209.417 -29.9592 256.171C-56.9099 316.778 -62.3715 372.368 -62.2816 437.189L-64.9775 1253.66L-63.2716 1253.64L-60.5735 437.171C-60.6645 372.568 -55.2268 317.179 -28.4022 256.856C-7.70622 210.315 21.3792 169.153 58.036 134.524C93.4421 101.079 134.387 75.1015 179.734 57.3047C225.079 39.5129 272.535 30.8129 320.785 31.4325C370.736 32.0792 419.351 42.743 465.281 63.1338C533.719 93.5169 590.608 143.327 629.798 207.173C668.058 269.502 687.234 341.214 685.247 414.541L685.198 415.028L684.092 1251.56L685.793 1251.54L686.901 415.184C686.963 415.005 687.016 414.75 686.955 414.444C688.922 340.824 669.659 268.837 631.252 206.26C591.881 142.122 534.732 92.0871 465.979 61.5642" fill="url(#paint14_linear_542_4916)"/>
</g>
</g>
</g>
</g>
<defs>
<filter id="filter0_d_542_4916" x="-75" y="21.6895" width="774" height="1450.31" filterUnits="userSpaceOnUse" color-interpolation-filters="sRGB">
<feFlood flood-opacity="0" result="BackgroundImageFix"/>
<feColorMatrix in="SourceAlpha" type="matrix" values="0 0 0 0 0 0 0 0 0 0 0 0 0 0 0 0 0 0 127 0" result="hardAlpha"/>
<feOffset dy="4"/>
<feGaussianBlur stdDeviation="6"/>
<feComposite in2="hardAlpha" operator="out"/>
<feColorMatrix type="matrix" values="0 0 0 0 0 0 0 0 0 0 0 0 0 0 0 0 0 0 0.03 0"/>
<feBlend mode="normal" in2="BackgroundImageFix" result="effect1_dropShadow_542_4916"/>
<feBlend mode="normal" in="SourceGraphic" in2="effect1_dropShadow_542_4916" result="shape"/>
</filter>
<linearGradient id="paint0_linear_542_4916" x1="1173.56" y1="467.767" x2="-549.862" y2="494.963" gradientUnits="userSpaceOnUse">
<stop stop-color="#BDACFF"/>
<stop offset="1" stop-color="#6B47F5"/>
</linearGradient>
<linearGradient id="paint1_linear_542_4916" x1="1173.56" y1="467.768" x2="-549.862" y2="494.964" gradientUnits="userSpaceOnUse">
<stop stop-color="#BDACFF"/>
<stop offset="1" stop-color="#6B47F5"/>
</linearGradient>
<linearGradient id="paint2_linear_542_4916" x1="1173.56" y1="467.767" x2="-549.862" y2="494.963" gradientUnits="userSpaceOnUse">
<stop stop-color="#BDACFF"/>
<stop offset="1" stop-color="#6B47F5"/>
</linearGradient>
<linearGradient id="paint3_linear_542_4916" x1="1173.56" y1="467.769" x2="-549.862" y2="494.965" gradientUnits="userSpaceOnUse">
<stop stop-color="#BDACFF"/>
<stop offset="1" stop-color="#6B47F5"/>
</linearGradient>
<linearGradient id="paint4_linear_542_4916" x1="1173.56" y1="467.767" x2="-549.862" y2="494.963" gradientUnits="userSpaceOnUse">
<stop stop-color="#BDACFF"/>
<stop offset="1" stop-color="#6B47F5"/>
</linearGradient>
<linearGradient id="paint5_linear_542_4916" x1="1173.56" y1="467.768" x2="-549.862" y2="494.964" gradientUnits="userSpaceOnUse">
<stop stop-color="#BDACFF"/>
<stop offset="1" stop-color="#6B47F5"/>
</linearGradient>
<linearGradient id="paint6_linear_542_4916" x1="1173.56" y1="467.767" x2="-549.862" y2="494.963" gradientUnits="userSpaceOnUse">
<stop stop-color="#BDACFF"/>
<stop offset="1" stop-color="#6B47F5"/>
</linearGradient>
<linearGradient id="paint7_linear_542_4916" x1="1173.56" y1="467.768" x2="-549.862" y2="494.964" gradientUnits="userSpaceOnUse">
<stop stop-color="#BDACFF"/>
<stop offset="1" stop-color="#6B47F5"/>
</linearGradient>
<linearGradient id="paint8_linear_542_4916" x1="1173.56" y1="467.767" x2="-549.862" y2="494.963" gradientUnits="userSpaceOnUse">
<stop stop-color="#BDACFF"/>
<stop offset="1" stop-color="#6B47F5"/>
</linearGradient>
<linearGradient id="paint9_linear_542_4916" x1="1173.56" y1="467.768" x2="-549.862" y2="494.964" gradientUnits="userSpaceOnUse">
<stop stop-color="#BDACFF"/>
<stop offset="1" stop-color="#6B47F5"/>
</linearGradient>
<linearGradient id="paint10_linear_542_4916" x1="1173.56" y1="467.768" x2="-549.862" y2="494.964" gradientUnits="userSpaceOnUse">
<stop stop-color="#BDACFF"/>
<stop offset="1" stop-color="#6B47F5"/>
</linearGradient>
<linearGradient id="paint11_linear_542_4916" x1="1173.56" y1="467.768" x2="-549.862" y2="494.964" gradientUnits="userSpaceOnUse">
<stop stop-color="#BDACFF"/>
<stop offset="1" stop-color="#6B47F5"/>
</linearGradient>
<linearGradient id="paint12_linear_542_4916" x1="1173.56" y1="467.768" x2="-549.862" y2="494.964" gradientUnits="userSpaceOnUse">
<stop stop-color="#BDACFF"/>
<stop offset="1" stop-color="#6B47F5"/>
</linearGradient>
<linearGradient id="paint13_linear_542_4916" x1="1173.56" y1="467.768" x2="-549.862" y2="494.964" gradientUnits="userSpaceOnUse">
<stop stop-color="#BDACFF"/>
<stop offset="1" stop-color="#6B47F5"/>
</linearGradient>
<linearGradient id="paint14_linear_542_4916" x1="1173.56" y1="467.768" x2="-549.862" y2="494.964" gradientUnits="userSpaceOnUse">
<stop stop-color="#BDACFF"/>
<stop offset="1" stop-color="#6B47F5"/>
</linearGradient>
</defs>
</svg>
