<svg width="1216" height="408" viewBox="0 0 1216 408" fill="none" xmlns="http://www.w3.org/2000/svg">
<g clip-path="url(#clip0_456_9840)">
<rect width="1216" height="408" fill="url(#paint0_linear_456_9840)"/>
<g opacity="0.15" clip-path="url(#clip1_456_9840)">
<path d="M1859.39 548.776L1405.97 547.281C1368.46 547.336 1338.13 543.904 1305.31 529.321C1198.91 482.045 1150.46 358.594 1197.07 253.695C1232.14 174.756 1311.08 128.702 1393.31 130.883C1393.44 130.861 1393.57 130.863 1393.69 130.884C1393.73 130.892 1393.77 130.904 1393.8 130.914L1858.21 131.53L1858.23 133.14L1393.5 132.523L1393.44 132.498L1393.39 132.497C1311.76 130.292 1233.37 175.999 1198.55 254.356C1175.43 306.403 1175.89 363.041 1195.32 412.543C1214.76 462.046 1253.17 504.392 1305.96 527.849C1338.52 542.313 1368.52 545.723 1405.96 545.671L1859.38 547.163L1859.39 548.776Z" fill="white"/>
<path d="M1847.38 557.399L1378.72 555.852C1339.95 555.909 1308.6 552.359 1274.68 537.288C1164.72 488.429 1114.64 360.843 1162.81 252.433C1199.06 170.853 1280.64 123.251 1365.63 125.508C1365.76 125.486 1365.9 125.485 1366.01 125.506C1366.06 125.516 1366.1 125.524 1366.13 125.534L1846.16 126.169L1846.17 127.779L1365.83 127.143L1365.77 127.12L1365.72 127.117C1281.33 124.837 1200.3 172.084 1164.3 253.091C1140.4 306.894 1140.87 365.448 1160.97 416.619C1181.06 467.789 1220.77 511.569 1275.34 535.816C1308.99 550.768 1340.01 554.295 1378.71 554.242L1847.38 555.787L1847.39 557.402L1847.38 557.399Z" fill="#F9F9F9"/>
<path d="M1835.37 566.019L1351.47 564.42C1311.43 564.478 1279.07 560.816 1244.06 545.252C1130.53 494.811 1078.83 363.091 1128.56 251.164C1165.98 166.939 1250.22 117.796 1337.96 120.124C1338.09 120.102 1338.22 120.101 1338.34 120.122C1338.38 120.132 1338.43 120.142 1338.47 120.152L1834.11 120.808L1834.13 122.418L1338.16 121.761L1338.1 121.735L1338.04 121.736C1250.9 119.377 1167.21 168.172 1130.05 251.82C1105.36 307.379 1105.85 367.843 1126.6 420.689C1147.35 473.529 1188.35 518.74 1244.7 543.778C1279.45 559.218 1311.49 562.856 1351.45 562.801L1835.36 564.411L1835.38 566.026L1835.37 566.019Z" fill="#F5F5F5"/>
<path d="M1823.36 574.644L1324.21 572.997C1282.91 573.055 1249.54 569.278 1213.43 553.228C1096.34 501.203 1043.02 365.346 1094.31 249.908C1132.9 163.041 1219.79 112.354 1310.28 114.754C1310.42 114.73 1310.55 114.729 1310.67 114.752C1310.72 114.764 1310.76 114.772 1310.8 114.784L1822.07 115.459L1822.08 117.069L1310.49 116.391L1310.44 116.365L1310.37 116.364C1220.46 113.935 1134.14 164.27 1095.8 250.566C1070.34 307.88 1070.84 370.257 1092.25 424.77C1113.65 479.284 1155.95 525.922 1214.09 551.751C1249.93 567.679 1282.99 571.434 1324.2 571.377L1823.35 573.034L1823.36 574.648L1823.36 574.644Z" fill="#EFEFEF"/>
<path d="M1811.36 583.27L1296.96 581.571C1254.4 581.636 1220.02 577.739 1182.8 561.203C1062.15 507.595 1007.2 367.606 1060.06 248.651C1099.83 159.139 1189.36 106.911 1282.61 109.382C1282.74 109.358 1282.89 109.359 1283 109.38C1283.05 109.392 1283.09 109.4 1283.13 109.412L1810.02 110.109L1810.03 111.719L1282.83 111.021L1282.77 110.995L1282.69 110.994C1190.03 108.488 1101.06 160.368 1061.55 249.307C1035.3 308.377 1035.82 372.671 1057.88 428.852C1079.94 485.036 1123.54 533.103 1183.46 559.726C1220.4 576.143 1254.47 580.013 1296.95 579.957L1811.34 581.66L1811.35 583.275L1811.36 583.27Z" fill="#E8E8E8"/>
<path d="M1799.36 591.894L1269.72 590.143C1225.9 590.209 1190.5 586.199 1152.19 569.171C1027.97 513.979 971.404 369.857 1025.82 247.391C1066.76 155.238 1158.94 101.46 1254.94 104.009C1255.08 103.985 1255.22 103.981 1255.34 104.007C1255.39 104.018 1255.44 104.028 1255.48 104.04L1797.99 104.757L1798 106.367L1255.17 105.647L1255.11 105.62L1255.02 105.616C1159.62 103.037 1068 156.46 1027.3 248.04C1000.28 308.871 1000.81 375.069 1023.53 432.926C1046.25 490.782 1091.14 540.277 1152.84 567.692C1190.89 584.596 1225.97 588.584 1269.7 588.521L1799.35 590.279L1799.36 591.894Z" fill="#E3E3E3"/>
<path d="M1787.36 600.518L1242.47 598.719C1197.39 598.787 1160.97 594.661 1121.56 577.144C993.783 520.369 935.595 372.11 991.569 246.132C1033.69 151.328 1128.51 96.0107 1227.27 98.6364C1227.42 98.6144 1227.56 98.611 1227.68 98.6342C1227.74 98.6435 1227.78 98.6579 1227.83 98.6724L1785.95 99.4072L1785.96 101.017L1227.51 100.277L1227.45 100.249L1227.36 100.248C1129.19 97.594 1034.93 152.557 993.058 246.788C965.252 309.37 965.805 377.485 989.176 437.009C1012.55 496.534 1058.74 547.462 1122.22 575.667C1161.37 593.062 1197.47 597.16 1242.46 597.1L1787.35 598.905L1787.36 600.52L1787.36 600.518Z" fill="#DEDEDE"/>
<path d="M1775.36 609.141L1215.22 607.29C1168.89 607.36 1131.46 603.123 1090.94 585.116C959.599 526.757 899.784 374.363 957.318 244.873C1000.62 147.425 1098.08 90.5667 1199.6 93.2654C1199.74 93.2387 1199.89 93.242 1200.01 93.2626C1200.07 93.2719 1200.11 93.2863 1200.16 93.3008L1773.9 94.0586L1773.92 95.6687L1199.85 94.9098L1199.79 94.88L1199.68 94.8747C1098.77 92.1473 1001.86 148.655 958.815 245.527C930.226 309.87 930.794 379.89 954.822 441.089C978.853 502.284 1026.34 554.643 1091.6 583.639C1131.84 601.52 1168.96 605.735 1215.21 605.673L1775.35 607.528L1775.36 609.143L1775.36 609.141Z" fill="#D9D9D9"/>
<path d="M1763.34 617.766L1187.97 615.865C1140.37 615.935 1101.93 611.583 1060.32 593.088C925.413 533.147 863.973 376.615 923.068 243.613C967.54 143.523 1067.65 85.1177 1171.92 87.8941C1172.07 87.8674 1172.22 87.866 1172.34 87.8914C1172.4 87.9006 1172.45 87.9172 1172.49 87.9269L1761.85 88.7082L1761.87 90.3183L1172.18 89.5386L1172.11 89.5087L1172 89.5061C1068.33 86.7036 968.775 144.752 924.556 244.274C895.187 310.372 895.77 382.31 920.454 445.177C945.139 508.039 993.922 561.825 1060.97 591.614C1102.31 609.985 1140.44 614.314 1187.95 614.246L1763.33 616.152L1763.34 617.766Z" fill="#D4D4D4"/>
<path d="M1751.34 626.39L1160.72 624.442C1111.86 624.513 1072.4 620.043 1029.69 601.067C891.225 539.543 828.164 378.878 888.821 242.36C934.468 139.625 1037.22 79.679 1144.25 82.5284C1144.39 82.5017 1144.55 82.5024 1144.67 82.523C1144.73 82.5344 1144.78 82.551 1144.83 82.5607L1749.81 83.363L1749.82 84.9731L1144.52 84.1724L1144.45 84.1426L1144.34 84.1378C1037.91 81.2623 935.703 140.853 890.31 243.016C860.162 310.87 860.758 384.718 886.101 449.255C911.444 513.793 961.523 569.004 1030.35 599.584C1072.79 618.443 1111.93 622.888 1160.7 622.82L1751.33 624.775L1751.34 626.39Z" fill="#CECECE"/>
<path d="M1739.34 635.01L1133.47 633.009C1083.36 633.082 1042.88 628.502 999.074 609.031C857.041 545.923 792.358 381.126 854.577 241.091C901.4 135.71 1006.8 74.2244 1116.58 77.1468C1116.73 77.1175 1116.88 77.1182 1117 77.1435C1117.07 77.155 1117.12 77.169 1117.17 77.1834L1737.77 78.0065L1737.78 79.6166L1116.85 78.795L1116.78 78.7631L1116.66 78.7609C1007.48 75.8124 902.631 136.948 856.065 241.752C825.135 311.362 825.747 387.127 851.745 453.332C877.741 519.542 929.119 576.186 999.728 607.559C1043.27 626.906 1083.43 631.464 1133.46 631.399L1739.32 633.4L1739.33 635.014L1739.34 635.01Z" fill="#C7C7C7"/>
<path d="M1727.34 643.635L1106.23 641.582C1054.86 641.661 1013.37 636.96 968.462 617.001C822.864 552.309 756.559 383.38 820.335 239.831C868.331 131.809 976.38 68.7806 1088.91 71.7712C1089.06 71.7419 1089.22 71.7427 1089.34 71.7655C1089.41 71.7768 1089.47 71.7929 1089.52 71.8074L1725.73 72.6492L1725.75 74.2593L1089.2 73.4168L1089.13 73.3848L1089 73.3785C977.055 70.3502 869.563 133.031 821.819 240.485C790.108 311.856 790.74 389.528 817.39 457.406C844.045 525.286 896.72 583.356 969.108 615.52C1013.75 635.355 1054.92 640.027 1106.21 639.956L1727.33 642.025L1727.34 643.64L1727.34 643.635Z" fill="#C2C2C2"/>
<path d="M1715.33 652.26L1078.97 650.159C1026.34 650.24 983.836 645.421 937.829 624.974C788.667 558.699 720.737 385.63 786.078 238.572C835.249 127.904 945.944 63.3309 1061.23 66.4014C1061.38 66.372 1061.54 66.3703 1061.67 66.3978C1061.74 66.4113 1061.8 66.4252 1061.85 66.4418L1713.68 67.3045L1713.7 68.9146L1061.53 68.0535L1061.46 68.0215L1061.33 68.0198C946.634 64.9185 836.492 129.142 787.575 239.237C755.083 312.364 755.728 391.946 783.036 461.498C810.345 531.047 864.314 590.548 938.487 623.504C984.228 643.828 1026.41 648.617 1078.96 648.544L1715.32 650.647L1715.34 652.262L1715.33 652.26Z" fill="#BDBDBD"/>
<path d="M1703.32 660.884L1051.72 658.732C997.819 658.812 954.305 653.878 907.202 632.95C754.477 565.091 684.925 387.89 751.826 237.32C802.175 124.002 915.503 57.8841 1033.55 61.0319C1033.7 61.0026 1033.87 61.0008 1034 61.0257C1034.07 61.0392 1034.13 61.0553 1034.18 61.0718L1701.63 61.9533L1701.65 63.5634L1033.86 62.6814L1033.78 62.6473L1033.64 62.6412C916.191 59.4648 803.405 125.229 753.31 237.974C720.038 312.857 720.701 394.35 748.663 465.571C776.631 536.795 831.896 597.722 907.849 631.469C954.688 652.28 997.886 657.187 1051.7 657.112L1703.31 659.269L1703.32 660.884Z" fill="#B8B8B8"/>
<path d="M1691.33 669.507L1024.48 667.307C969.322 667.389 924.789 662.343 876.59 640.921C720.3 571.479 649.128 390.141 717.59 236.059C769.114 120.096 885.092 52.4349 1005.89 55.6602C1006.05 55.6331 1006.21 55.6313 1006.34 55.6562C1006.41 55.6697 1006.48 55.6858 1006.53 55.7024L1689.6 56.6047L1689.61 58.2148L1006.21 57.3119L1006.13 57.2778L1005.98 57.2744C885.776 54.025 770.345 121.334 719.077 236.72C685.025 313.359 685.698 396.767 714.32 469.658C742.942 542.549 799.507 604.91 877.239 639.447C925.177 660.747 969.389 665.764 1024.46 665.694L1691.32 667.892L1691.33 669.507Z" fill="#B3B3B3"/>
<path d="M1679.32 678.131L997.227 675.879C940.811 675.963 895.267 670.802 845.962 648.895C686.112 577.871 613.314 392.399 683.338 234.8C736.036 116.196 854.659 46.9901 978.22 50.2907C978.378 50.2588 978.544 50.259 978.677 50.2839C978.75 50.2996 978.812 50.3156 978.862 50.3322L1677.55 51.2554L1677.57 52.8655L978.543 51.9418L978.466 51.9077L978.309 51.9001C855.345 48.5756 737.271 117.425 684.827 235.456C649.995 313.851 650.686 399.171 679.961 473.735C709.242 548.296 767.101 612.088 846.613 647.416C895.649 669.204 940.878 674.338 997.21 674.262L1679.31 676.517L1679.32 678.131Z" fill="#ACACAC"/>
<path d="M1667.31 686.755L969.975 684.45C912.301 684.536 865.74 679.258 815.337 656.862C651.923 584.255 577.498 394.648 649.082 233.538C702.956 112.288 824.227 41.5442 950.538 44.9109C950.696 44.879 950.862 44.8792 951 44.9062C951.073 44.9219 951.14 44.9401 951.195 44.9588L1665.5 45.9008L1665.52 47.511L950.876 46.5684L950.794 46.5321L950.635 46.5293C824.917 43.1318 704.193 113.524 650.574 234.201C614.962 314.351 615.671 401.584 645.6 477.816C675.534 554.05 734.689 619.267 815.989 655.395C866.123 677.671 912.364 682.921 969.955 682.843L1667.31 685.142L1667.32 686.752L1667.31 686.755Z" fill="#A7A7A7"/>
<path d="M1655.31 695.375L942.726 693.025C883.792 693.113 836.218 687.724 784.714 664.834C617.736 590.643 541.691 396.899 614.835 232.277C669.884 108.382 793.8 36.0929 922.868 39.5395C923.026 39.5075 923.194 39.503 923.332 39.53C923.412 39.5431 923.477 39.5662 923.532 39.5849L1653.46 40.5524L1653.47 42.1625L923.213 41.1943L923.126 41.156L923.124 41.1607L922.96 41.1557C794.484 37.6831 671.117 109.615 616.327 232.94C579.935 314.847 580.655 403.994 611.243 481.896C641.837 559.8 702.287 626.448 785.368 663.362C836.601 686.126 883.857 691.493 942.707 691.413L1655.3 693.768L1655.31 695.382L1655.31 695.375Z" fill="#A2A2A2"/>
<path d="M1643.29 703.999L915.464 701.597C855.266 701.684 806.681 696.18 754.083 672.804C583.54 597.029 505.874 399.153 580.58 231.015C636.803 104.478 763.364 30.6443 895.185 34.1638C895.35 34.1292 895.516 34.1296 895.659 34.1588C895.739 34.1718 895.803 34.1948 895.863 34.2156L1641.41 35.204L1641.42 36.8141L895.544 35.8251L895.453 35.7846L895.451 35.7893L895.287 35.7844C764.06 32.234 638.045 105.716 582.077 231.68C544.905 315.342 545.642 406.401 576.883 485.976C608.132 565.548 669.88 633.629 754.741 671.334C807.073 694.586 855.343 700.063 915.456 699.984L1643.28 702.391L1643.29 704.006L1643.29 703.999Z" fill="#9C9C9C"/>
<path d="M1631.3 712.626L888.232 710.171C826.776 710.26 777.174 704.639 723.475 680.78C549.368 603.421 470.08 401.413 546.349 229.758C603.747 100.576 732.956 25.2038 867.533 28.7916C867.698 28.7571 867.869 28.7595 868.008 28.7818C868.089 28.7948 868.16 28.8152 868.215 28.8339L1629.38 29.841L1629.39 31.4512L867.891 30.4413L867.795 30.3987L867.782 30.4039L867.622 30.4009C733.637 26.7755 604.979 101.797 547.833 230.412C509.878 315.835 510.632 408.799 542.53 490.049C574.431 571.294 637.481 640.803 724.121 679.299C777.552 703.039 826.838 708.633 888.21 708.552L1631.29 711.011L1631.3 712.626Z" fill="#979797"/>
<path d="M1619.29 721.248L860.977 718.746C798.263 718.837 747.642 713.103 692.847 688.751C515.176 609.809 434.268 403.664 512.09 228.5C570.664 96.6718 702.523 19.7571 839.851 23.4226C840.016 23.3881 840.189 23.3858 840.331 23.415C840.417 23.4302 840.488 23.4505 840.543 23.4692L1617.33 24.4972L1617.34 26.1073L840.219 25.0766L840.119 25.0318L840.103 25.0418L839.943 25.0388C703.204 21.3404 571.897 97.9052 513.578 229.161C474.843 316.339 475.611 411.22 508.167 494.133C540.727 577.048 605.066 647.986 693.491 687.275C748.025 711.505 798.323 717.215 860.954 717.132L1619.28 719.633L1619.29 721.248Z" fill="#909090"/>
<path d="M477.851 227.237C458.446 270.912 448.294 317.145 447.683 364.648C447.091 410.532 455.374 455.662 472.311 498.783C489.241 541.907 513.97 580.845 545.801 614.517C578.762 649.382 617.935 677.039 662.232 696.721C719.653 722.234 772.322 727.405 833.736 727.32L1607.29 729.872L1607.28 728.257L833.719 725.703C772.511 725.789 720.034 720.641 662.881 695.247C618.786 675.655 579.787 648.121 546.978 613.419C515.291 579.902 490.679 541.14 473.818 498.211C456.961 455.285 448.718 410.36 449.305 364.683C449.918 317.396 460.021 271.374 479.34 227.893C508.126 163.106 555.319 109.25 615.809 72.1506C674.862 35.9312 742.805 17.7783 812.278 19.6587L812.74 19.7053L1605.31 20.7523L1605.29 19.1422L812.887 18.0932C812.718 18.035 812.476 17.9843 812.186 18.0425C742.435 16.1802 674.232 34.4156 614.944 70.7746C554.177 108.046 506.772 162.147 477.853 227.232" fill="#8C8C8C"/>
</g>
</g>
<defs>
<linearGradient id="paint0_linear_456_9840" x1="1216" y1="-8.03013e-06" x2="859.067" y2="794.123" gradientUnits="userSpaceOnUse">
<stop stop-color="#6B47F5"/>
<stop offset="1" stop-color="#3F3A60"/>
</linearGradient>
<clipPath id="clip0_456_9840">
<rect width="1216" height="408" fill="white"/>
</clipPath>
<clipPath id="clip1_456_9840">
<rect width="1352" height="710" fill="white" transform="matrix(-1 0 0 1 1799 18)"/>
</clipPath>
</defs>
</svg>
