<svg width="171" height="58" viewBox="0 0 171 58" fill="none" xmlns="http://www.w3.org/2000/svg">
<rect x="0.5" y="1" width="169.5" height="56" rx="16" fill="#F9FAFB"/>
<rect x="0.5" y="1" width="169.5" height="56" rx="16" stroke="url(#paint0_radial_1647_13392)"/>
<mask id="mask0_1647_13392" style="mask-type:alpha" maskUnits="userSpaceOnUse" x="27" y="14" width="28" height="30">
<path d="M53.0544 27.2005C54.4819 27.986 54.4819 30.0141 53.0544 30.7995L30.2258 43.3616C28.8356 44.1266 27.125 43.1339 27.125 41.562L27.125 16.438C27.125 14.8661 28.8356 13.8734 30.2258 14.6384L53.0544 27.2005Z" fill="#C4C4C4"/>
</mask>
<g mask="url(#mask0_1647_13392)">
<path d="M27.8391 43.1147L42.0788 28.7949L28.0736 14.7109C27.5149 15.0691 27.125 15.6875 27.125 16.4379V41.562C27.125 42.2022 27.4088 42.7463 27.8391 43.1147Z" fill="url(#paint1_linear_1647_13392)"/>
<path d="M53.0546 27.2003C54.4821 27.9858 54.4821 30.0139 53.0546 30.7994L47.2954 33.9685L42.0791 28.7947L47.0294 23.8848L53.0546 27.2003Z" fill="url(#paint2_linear_1647_13392)"/>
<path d="M47.2951 33.9687L42.0787 28.7949L27.8389 43.1148C28.4651 43.651 29.4016 43.8151 30.2257 43.3616L47.2951 33.9687Z" fill="url(#paint3_linear_1647_13392)"/>
<path d="M28.0737 14.711L42.079 28.7949L47.0293 23.8849L30.2259 14.6384C29.4994 14.2386 28.6854 14.3189 28.0737 14.711Z" fill="url(#paint4_linear_1647_13392)"/>
</g>
<path d="M68.5735 15.5C68.4798 15.2131 68.3562 14.956 68.2028 14.7287C68.0522 14.4986 67.8718 14.3026 67.6616 14.1406C67.4542 13.9787 67.2184 13.8551 66.9542 13.7699C66.69 13.6847 66.4002 13.642 66.0849 13.642C65.5678 13.642 65.0977 13.7756 64.6744 14.0426C64.2511 14.3097 63.9144 14.7031 63.6644 15.223C63.4144 15.7429 63.2894 16.3807 63.2894 17.1364C63.2894 17.892 63.4158 18.5298 63.6687 19.0497C63.9215 19.5696 64.2638 19.9631 64.6957 20.2301C65.1275 20.4972 65.6133 20.6307 66.1531 20.6307C66.6531 20.6307 67.0934 20.5241 67.4741 20.3111C67.8576 20.0952 68.1559 19.7912 68.369 19.3991C68.5849 19.0043 68.6928 18.5398 68.6928 18.0057L69.0167 18.0739H66.3917V17.1364H69.7156V18.0739C69.7156 18.7926 69.5621 19.4176 69.2553 19.9489C68.9513 20.4801 68.5309 20.892 67.994 21.1847C67.4599 21.4744 66.8462 21.6193 66.1531 21.6193C65.3803 21.6193 64.7013 21.4375 64.1161 21.0739C63.5337 20.7102 63.0792 20.1932 62.7525 19.5227C62.4286 18.8523 62.2667 18.0568 62.2667 17.1364C62.2667 16.446 62.359 15.8253 62.5437 15.2741C62.7312 14.7202 62.9954 14.2486 63.3363 13.8594C63.6772 13.4702 64.0806 13.1719 64.5465 12.9645C65.0124 12.7571 65.5252 12.6534 66.0849 12.6534C66.5451 12.6534 66.9741 12.723 67.3718 12.8622C67.7724 12.9986 68.1289 13.1932 68.4414 13.446C68.7567 13.696 69.0195 13.9957 69.2298 14.3452C69.44 14.6918 69.5849 15.0767 69.6644 15.5H68.5735ZM74.1335 21.6364C73.5028 21.6364 72.9588 21.4972 72.5014 21.2188C72.0469 20.9375 71.696 20.5455 71.4489 20.0426C71.2045 19.5369 71.0824 18.9489 71.0824 18.2784C71.0824 17.608 71.2045 17.017 71.4489 16.5057C71.696 15.9915 72.0398 15.5909 72.4801 15.304C72.9233 15.0142 73.4403 14.8693 74.0312 14.8693C74.3722 14.8693 74.7088 14.9261 75.0412 15.0398C75.3736 15.1534 75.6761 15.3381 75.9489 15.5938C76.2216 15.8466 76.4389 16.1818 76.6009 16.5994C76.7628 17.017 76.8438 17.5312 76.8438 18.142V18.5682H71.7983V17.6989H75.821C75.821 17.3295 75.7472 17 75.5994 16.7102C75.4545 16.4205 75.2472 16.1918 74.9773 16.0241C74.7102 15.8565 74.3949 15.7727 74.0312 15.7727C73.6307 15.7727 73.2841 15.8722 72.9915 16.071C72.7017 16.267 72.4787 16.5227 72.3224 16.8381C72.1662 17.1534 72.0881 17.4915 72.0881 17.8523V18.4318C72.0881 18.9261 72.1733 19.3452 72.3438 19.6889C72.517 20.0298 72.7571 20.2898 73.0639 20.4688C73.3707 20.6449 73.7273 20.733 74.1335 20.733C74.3977 20.733 74.6364 20.696 74.8494 20.6222C75.0653 20.5455 75.2514 20.4318 75.4077 20.2812C75.5639 20.1278 75.6847 19.9375 75.7699 19.7102L76.7415 19.983C76.6392 20.3125 76.4673 20.6023 76.2259 20.8523C75.9844 21.0994 75.6861 21.2926 75.331 21.4318C74.9759 21.5682 74.5767 21.6364 74.1335 21.6364ZM81.2202 14.9545V15.8068H77.8281V14.9545H81.2202ZM78.8168 13.3864H79.8224V19.625C79.8224 19.9091 79.8636 20.1222 79.946 20.2642C80.0313 20.4034 80.1392 20.4972 80.2699 20.5455C80.4034 20.5909 80.544 20.6136 80.6918 20.6136C80.8026 20.6136 80.8935 20.608 80.9645 20.5966C81.0355 20.5824 81.0923 20.571 81.1349 20.5625L81.3395 21.4659C81.2713 21.4915 81.1761 21.517 81.054 21.5426C80.9318 21.571 80.777 21.5852 80.5895 21.5852C80.3054 21.5852 80.027 21.5241 79.7543 21.402C79.4844 21.2798 79.2599 21.0938 79.081 20.8438C78.9048 20.5938 78.8168 20.2784 78.8168 19.8977V13.3864ZM86.108 21.5V14.9545H87.1136V21.5H86.108ZM86.6193 13.8636C86.4233 13.8636 86.2543 13.7969 86.1122 13.6634C85.973 13.5298 85.9034 13.3693 85.9034 13.1818C85.9034 12.9943 85.973 12.8338 86.1122 12.7003C86.2543 12.5668 86.4233 12.5 86.6193 12.5C86.8153 12.5 86.983 12.5668 87.1222 12.7003C87.2642 12.8338 87.3352 12.9943 87.3352 13.1818C87.3352 13.3693 87.2642 13.5298 87.1222 13.6634C86.983 13.7969 86.8153 13.8636 86.6193 13.8636ZM91.8022 14.9545V15.8068H88.4102V14.9545H91.8022ZM89.3988 13.3864H90.4045V19.625C90.4045 19.9091 90.4457 20.1222 90.5281 20.2642C90.6133 20.4034 90.7212 20.4972 90.8519 20.5455C90.9854 20.5909 91.1261 20.6136 91.2738 20.6136C91.3846 20.6136 91.4755 20.608 91.5465 20.5966C91.6175 20.5824 91.6744 20.571 91.717 20.5625L91.9215 21.4659C91.8533 21.4915 91.7582 21.517 91.636 21.5426C91.5138 21.571 91.359 21.5852 91.1715 21.5852C90.8874 21.5852 90.609 21.5241 90.3363 21.402C90.0664 21.2798 89.842 21.0938 89.663 20.8438C89.4869 20.5938 89.3988 20.2784 89.3988 19.8977V13.3864ZM99.3491 21.6364C98.7582 21.6364 98.2397 21.4957 97.7937 21.2145C97.3505 20.9332 97.0039 20.5398 96.7539 20.0341C96.5067 19.5284 96.3832 18.9375 96.3832 18.2614C96.3832 17.5795 96.5067 16.9844 96.7539 16.4759C97.0039 15.9673 97.3505 15.5724 97.7937 15.2912C98.2397 15.0099 98.7582 14.8693 99.3491 14.8693C99.94 14.8693 100.457 15.0099 100.9 15.2912C101.346 15.5724 101.693 15.9673 101.94 16.4759C102.19 16.9844 102.315 17.5795 102.315 18.2614C102.315 18.9375 102.19 19.5284 101.94 20.0341C101.693 20.5398 101.346 20.9332 100.9 21.2145C100.457 21.4957 99.94 21.6364 99.3491 21.6364ZM99.3491 20.733C99.7979 20.733 100.167 20.6179 100.457 20.3878C100.747 20.1577 100.961 19.8551 101.1 19.4801C101.24 19.1051 101.309 18.6989 101.309 18.2614C101.309 17.8239 101.24 17.4162 101.1 17.0384C100.961 16.6605 100.747 16.3551 100.457 16.1222C100.167 15.8892 99.7979 15.7727 99.3491 15.7727C98.9002 15.7727 98.5309 15.8892 98.2411 16.1222C97.9513 16.3551 97.7369 16.6605 97.5977 17.0384C97.4585 17.4162 97.3888 17.8239 97.3888 18.2614C97.3888 18.6989 97.4585 19.1051 97.5977 19.4801C97.7369 19.8551 97.9513 20.1577 98.2411 20.3878C98.5309 20.6179 98.9002 20.733 99.3491 20.733ZM104.856 17.5625V21.5H103.85V14.9545H104.822V15.9773H104.907C105.06 15.6449 105.293 15.3778 105.606 15.1761C105.918 14.9716 106.322 14.8693 106.816 14.8693C107.259 14.8693 107.647 14.9602 107.979 15.142C108.312 15.321 108.57 15.5938 108.755 15.9602C108.94 16.3239 109.032 16.7841 109.032 17.3409V21.5H108.026V17.4091C108.026 16.8949 107.893 16.4943 107.626 16.2074C107.359 15.9176 106.992 15.7727 106.526 15.7727C106.205 15.7727 105.918 15.8423 105.665 15.9815C105.415 16.1207 105.218 16.3239 105.073 16.5909C104.928 16.858 104.856 17.1818 104.856 17.5625Z" fill="#292929"/>
<path d="M70.326 34.5795C70.2313 34.2727 70.1006 33.9981 69.9339 33.7557C69.7711 33.5095 69.5741 33.2992 69.343 33.125C69.1158 32.9508 68.8544 32.8201 68.5589 32.733C68.2635 32.642 67.9415 32.5966 67.593 32.5966C66.968 32.5966 66.4112 32.7538 65.9226 33.0682C65.4339 33.3826 65.0495 33.8447 64.7692 34.4545C64.4927 35.0606 64.3544 35.7992 64.3544 36.6705C64.3544 37.5492 64.4927 38.2936 64.7692 38.9034C65.0457 39.5133 65.4302 39.9773 65.9226 40.2955C66.415 40.6098 66.987 40.767 67.6385 40.767C68.2294 40.767 68.7408 40.6534 69.1726 40.4261C69.6082 40.1989 69.9434 39.8769 70.1783 39.4602C70.4131 39.0398 70.5305 38.5473 70.5305 37.983L71.0078 38.0568H67.8487V36.4091H72.5703V37.8068C72.5703 38.803 72.3582 39.6648 71.9339 40.392C71.5097 41.1193 70.9264 41.6799 70.1839 42.0739C69.4415 42.464 68.5893 42.6591 67.6271 42.6591C66.5552 42.6591 65.6139 42.4186 64.8033 41.9375C63.9964 41.4527 63.3658 40.7652 62.9112 39.875C62.4605 38.9811 62.2351 37.9205 62.2351 36.6932C62.2351 35.7538 62.3677 34.9148 62.6328 34.1761C62.9018 33.4375 63.2768 32.8106 63.7578 32.2955C64.2389 31.7765 64.8033 31.3826 65.451 31.1136C66.0987 30.8409 66.8033 30.7045 67.5646 30.7045C68.2086 30.7045 68.8089 30.7992 69.3658 30.9886C69.9226 31.1742 70.4169 31.4394 70.8487 31.7841C71.2843 32.1288 71.6423 32.5379 71.9226 33.0114C72.2029 33.4848 72.3866 34.0076 72.4737 34.5795H70.326ZM78.3246 42.6705C77.4723 42.6705 76.7337 42.483 76.1087 42.108C75.4837 41.733 74.9988 41.2083 74.6541 40.5341C74.3132 39.8598 74.1428 39.072 74.1428 38.1705C74.1428 37.2689 74.3132 36.4792 74.6541 35.8011C74.9988 35.1231 75.4837 34.5966 76.1087 34.2216C76.7337 33.8466 77.4723 33.6591 78.3246 33.6591C79.1768 33.6591 79.9155 33.8466 80.5405 34.2216C81.1655 34.5966 81.6484 35.1231 81.9893 35.8011C82.334 36.4792 82.5064 37.2689 82.5064 38.1705C82.5064 39.072 82.334 39.8598 81.9893 40.5341C81.6484 41.2083 81.1655 41.733 80.5405 42.108C79.9155 42.483 79.1768 42.6705 78.3246 42.6705ZM78.3359 41.0227C78.7981 41.0227 79.1844 40.8958 79.495 40.642C79.8056 40.3845 80.0367 40.0398 80.1882 39.608C80.3435 39.1761 80.4212 38.6951 80.4212 38.1648C80.4212 37.6307 80.3435 37.1477 80.1882 36.7159C80.0367 36.2803 79.8056 35.9337 79.495 35.6761C79.1844 35.4186 78.7981 35.2898 78.3359 35.2898C77.8625 35.2898 77.4685 35.4186 77.1541 35.6761C76.8435 35.9337 76.6106 36.2803 76.4553 36.7159C76.3037 37.1477 76.228 37.6307 76.228 38.1648C76.228 38.6951 76.3037 39.1761 76.4553 39.608C76.6106 40.0398 76.8435 40.3845 77.1541 40.642C77.4685 40.8958 77.8625 41.0227 78.3359 41.0227ZM88.0589 42.6705C87.2067 42.6705 86.468 42.483 85.843 42.108C85.218 41.733 84.7332 41.2083 84.3885 40.5341C84.0476 39.8598 83.8771 39.072 83.8771 38.1705C83.8771 37.2689 84.0476 36.4792 84.3885 35.8011C84.7332 35.1231 85.218 34.5966 85.843 34.2216C86.468 33.8466 87.2067 33.6591 88.0589 33.6591C88.9112 33.6591 89.6499 33.8466 90.2749 34.2216C90.8999 34.5966 91.3828 35.1231 91.7237 35.8011C92.0684 36.4792 92.2408 37.2689 92.2408 38.1705C92.2408 39.072 92.0684 39.8598 91.7237 40.5341C91.3828 41.2083 90.8999 41.733 90.2749 42.108C89.6499 42.483 88.9112 42.6705 88.0589 42.6705ZM88.0703 41.0227C88.5324 41.0227 88.9188 40.8958 89.2294 40.642C89.54 40.3845 89.7711 40.0398 89.9226 39.608C90.0779 39.1761 90.1555 38.6951 90.1555 38.1648C90.1555 37.6307 90.0779 37.1477 89.9226 36.7159C89.7711 36.2803 89.54 35.9337 89.2294 35.6761C88.9188 35.4186 88.5324 35.2898 88.0703 35.2898C87.5968 35.2898 87.2029 35.4186 86.8885 35.6761C86.5779 35.9337 86.3449 36.2803 86.1896 36.7159C86.0381 37.1477 85.9624 37.6307 85.9624 38.1648C85.9624 38.6951 86.0381 39.1761 86.1896 39.608C86.3449 40.0398 86.5779 40.3845 86.8885 40.642C87.2029 40.8958 87.5968 41.0227 88.0703 41.0227ZM97.782 45.9545C97.0433 45.9545 96.4089 45.8542 95.8786 45.6534C95.3482 45.4564 94.9221 45.1913 94.6001 44.858C94.2782 44.5246 94.0547 44.1553 93.9297 43.75L95.782 43.3011C95.8653 43.4716 95.9865 43.6402 96.1456 43.8068C96.3047 43.9773 96.5187 44.1174 96.7876 44.2273C97.0604 44.3409 97.4032 44.3977 97.8161 44.3977C98.3994 44.3977 98.8823 44.2557 99.2649 43.9716C99.6475 43.6913 99.8388 43.2292 99.8388 42.5852V40.9318H99.7365C99.6304 41.1439 99.4751 41.3617 99.2706 41.5852C99.0698 41.8087 98.8028 41.9962 98.4695 42.1477C98.1399 42.2992 97.7251 42.375 97.2251 42.375C96.5547 42.375 95.9467 42.2178 95.4013 41.9034C94.8596 41.5852 94.4278 41.1117 94.1058 40.483C93.7876 39.8504 93.6286 39.0587 93.6286 38.108C93.6286 37.1496 93.7876 36.3409 94.1058 35.6818C94.4278 35.0189 94.8615 34.517 95.407 34.1761C95.9524 33.8314 96.5604 33.6591 97.2308 33.6591C97.7422 33.6591 98.1626 33.7462 98.4922 33.9205C98.8255 34.0909 99.0907 34.2973 99.2876 34.5398C99.4846 34.7784 99.6342 35.0038 99.7365 35.2159H99.8501V33.7727H101.879V42.642C101.879 43.3883 101.701 44.0057 101.344 44.4943C100.988 44.983 100.502 45.3485 99.8842 45.5909C99.2668 45.8333 98.5661 45.9545 97.782 45.9545ZM97.799 40.7614C98.2346 40.7614 98.6058 40.6553 98.9126 40.4432C99.2195 40.2311 99.4524 39.9261 99.6115 39.5284C99.7706 39.1307 99.8501 38.6534 99.8501 38.0966C99.8501 37.5473 99.7706 37.0663 99.6115 36.6534C99.4562 36.2405 99.2251 35.9205 98.9183 35.6932C98.6153 35.4621 98.2422 35.3466 97.799 35.3466C97.3407 35.3466 96.9581 35.4659 96.6513 35.7045C96.3445 35.9432 96.1134 36.2708 95.9581 36.6875C95.8028 37.1004 95.7251 37.5701 95.7251 38.0966C95.7251 38.6307 95.8028 39.0985 95.9581 39.5C96.1172 39.8977 96.3501 40.2083 96.657 40.4318C96.9676 40.6515 97.3482 40.7614 97.799 40.7614ZM106.043 30.8636V42.5H103.987V30.8636H106.043ZM112.022 42.6705C111.147 42.6705 110.391 42.4886 109.755 42.125C109.122 41.7576 108.636 41.2386 108.295 40.5682C107.954 39.8939 107.783 39.1004 107.783 38.1875C107.783 37.2898 107.954 36.5019 108.295 35.8239C108.639 35.142 109.121 34.6117 109.738 34.233C110.355 33.8504 111.081 33.6591 111.914 33.6591C112.452 33.6591 112.96 33.7462 113.437 33.9205C113.918 34.0909 114.342 34.3561 114.71 34.7159C115.081 35.0758 115.372 35.5341 115.585 36.0909C115.797 36.6439 115.903 37.303 115.903 38.0682V38.6989H108.749V37.3125H113.931C113.927 36.9186 113.842 36.5682 113.675 36.2614C113.509 35.9508 113.276 35.7064 112.977 35.5284C112.681 35.3504 112.336 35.2614 111.942 35.2614C111.522 35.2614 111.153 35.3636 110.835 35.5682C110.516 35.7689 110.268 36.0341 110.09 36.3636C109.916 36.6894 109.827 37.0473 109.823 37.4375V38.6477C109.823 39.1553 109.916 39.5909 110.102 39.9545C110.287 40.3144 110.547 40.5909 110.88 40.7841C111.213 40.9735 111.603 41.0682 112.05 41.0682C112.35 41.0682 112.621 41.0265 112.863 40.9432C113.105 40.8561 113.316 40.7292 113.494 40.5625C113.672 40.3958 113.806 40.1894 113.897 39.9432L115.817 40.1591C115.696 40.6667 115.465 41.1098 115.124 41.4886C114.787 41.8636 114.355 42.1553 113.829 42.3636C113.302 42.5682 112.7 42.6705 112.022 42.6705ZM121.702 42.5V30.8636H126.066C126.96 30.8636 127.71 31.0303 128.316 31.3636C128.926 31.697 129.386 32.1553 129.697 32.7386C130.011 33.3182 130.168 33.9773 130.168 34.7159C130.168 35.4621 130.011 36.125 129.697 36.7045C129.382 37.2841 128.918 37.7405 128.305 38.0739C127.691 38.4034 126.935 38.5682 126.038 38.5682H123.146V36.8352H125.754C126.276 36.8352 126.704 36.7443 127.038 36.5625C127.371 36.3807 127.617 36.1307 127.776 35.8125C127.939 35.4943 128.021 35.1288 128.021 34.7159C128.021 34.303 127.939 33.9394 127.776 33.625C127.617 33.3106 127.369 33.0663 127.032 32.892C126.699 32.714 126.269 32.625 125.742 32.625H123.81V42.5H121.702ZM133.965 30.8636V42.5H131.908V30.8636H133.965ZM138.592 42.6761C138.039 42.6761 137.54 42.5777 137.097 42.3807C136.658 42.1799 136.309 41.8845 136.052 41.4943C135.798 41.1042 135.671 40.6231 135.671 40.0511C135.671 39.5587 135.762 39.1515 135.944 38.8295C136.126 38.5076 136.374 38.25 136.688 38.0568C137.003 37.8636 137.357 37.7178 137.751 37.6193C138.148 37.517 138.559 37.4432 138.984 37.3977C139.495 37.3447 139.91 37.2973 140.228 37.2557C140.546 37.2102 140.777 37.142 140.921 37.0511C141.069 36.9564 141.143 36.8106 141.143 36.6136V36.5795C141.143 36.1515 141.016 35.8201 140.762 35.5852C140.508 35.3504 140.143 35.233 139.665 35.233C139.162 35.233 138.762 35.3428 138.467 35.5625C138.175 35.7822 137.978 36.0417 137.876 36.3409L135.955 36.0682C136.107 35.5379 136.357 35.0947 136.705 34.7386C137.054 34.3788 137.48 34.1098 137.984 33.9318C138.487 33.75 139.044 33.6591 139.654 33.6591C140.075 33.6591 140.493 33.7083 140.91 33.8068C141.326 33.9053 141.707 34.0682 142.052 34.2955C142.397 34.5189 142.673 34.8239 142.881 35.2102C143.094 35.5966 143.2 36.0795 143.2 36.6591V42.5H141.222V41.3011H141.154C141.029 41.5436 140.853 41.7708 140.626 41.983C140.402 42.1913 140.12 42.3598 139.779 42.4886C139.442 42.6136 139.046 42.6761 138.592 42.6761ZM139.126 41.1648C139.539 41.1648 139.897 41.0833 140.2 40.9205C140.503 40.7538 140.736 40.5341 140.898 40.2614C141.065 39.9886 141.148 39.6913 141.148 39.3693V38.3409C141.084 38.3939 140.974 38.4432 140.819 38.4886C140.667 38.5341 140.497 38.5739 140.308 38.608C140.118 38.642 139.931 38.6723 139.745 38.6989C139.559 38.7254 139.398 38.7481 139.262 38.767C138.955 38.8087 138.681 38.8769 138.438 38.9716C138.196 39.0663 138.004 39.1989 137.864 39.3693C137.724 39.536 137.654 39.7519 137.654 40.017C137.654 40.3958 137.792 40.6818 138.069 40.875C138.345 41.0682 138.698 41.1648 139.126 41.1648ZM146.234 45.7727C145.953 45.7727 145.694 45.75 145.455 45.7045C145.22 45.6629 145.033 45.6136 144.893 45.5568L145.37 43.9545C145.669 44.0417 145.936 44.0833 146.171 44.0795C146.406 44.0758 146.612 44.0019 146.79 43.858C146.972 43.7178 147.126 43.483 147.251 43.1534L147.427 42.6818L144.262 33.7727H146.444L148.455 40.3636H148.546L150.563 33.7727H152.751L149.256 43.5568C149.094 44.0189 148.878 44.4148 148.609 44.7443C148.34 45.0777 148.01 45.3314 147.62 45.5057C147.234 45.6837 146.772 45.7727 146.234 45.7727Z" fill="#292929"/>
<defs>
<radialGradient id="paint0_radial_1647_13392" cx="0" cy="0" r="1" gradientUnits="userSpaceOnUse" gradientTransform="translate(59.8003 58.3057) rotate(-50.4641) scale(79.5718 165.299)">
<stop stop-color="white" stop-opacity="0"/>
<stop offset="1" stop-color="white"/>
</radialGradient>
<linearGradient id="paint1_linear_1647_13392" x1="36.8865" y1="23.233" x2="27.2049" y2="32.9942" gradientUnits="userSpaceOnUse">
<stop stop-color="#00C3FF"/>
<stop offset="1" stop-color="#1BE2FA"/>
</linearGradient>
<linearGradient id="paint2_linear_1647_13392" x1="42.0791" y1="28.7947" x2="54.956" y2="28.7947" gradientUnits="userSpaceOnUse">
<stop stop-color="#FFCE00"/>
<stop offset="1" stop-color="#FFEA00"/>
</linearGradient>
<linearGradient id="paint3_linear_1647_13392" x1="27.5402" y1="44.8628" x2="44.6691" y2="31.1302" gradientUnits="userSpaceOnUse">
<stop stop-color="#DE2453"/>
<stop offset="1" stop-color="#FE3944"/>
</linearGradient>
<linearGradient id="paint4_linear_1647_13392" x1="28.3713" y1="13.139" x2="44.6723" y2="26.4535" gradientUnits="userSpaceOnUse">
<stop stop-color="#11D574"/>
<stop offset="1" stop-color="#01F176"/>
</linearGradient>
</defs>
</svg>
