<svg width="397" height="290" viewBox="0 0 397 290" fill="none" xmlns="http://www.w3.org/2000/svg">
<g clip-path="url(#clip0_1876_39853)">
<g filter="url(#filter0_d_1876_39853)">
<rect x="115.281" y="46.0234" width="71.2634" height="71.2634" rx="11.8772" transform="rotate(8.68421 115.281 46.0234)" fill="url(#paint0_linear_1876_39853)" shape-rendering="crispEdges"/>
<path d="M146.02 80.7559L144.525 90.5401" stroke="#F9FAFB" stroke-width="1.48465" stroke-linecap="round" stroke-linejoin="round"/>
<path d="M142.31 105.039L130.452 103.228C123.662 102.191 121.565 96.9044 125.758 91.4773L133.544 81.4124L140.875 71.959C145.317 66.2095 151.031 67.0823 153.555 73.8957L157.727 85.1262L162.153 97.0562C164.535 103.488 160.936 107.904 154.166 106.87L142.307 105.059L142.31 105.039Z" stroke="#F9FAFB" stroke-width="1.48465" stroke-linecap="round" stroke-linejoin="round"/>
<path d="M143.621 96.4082L143.639 96.4109" stroke="#F9FAFB" stroke-width="1.48465" stroke-linecap="round" stroke-linejoin="round"/>
</g>
<g filter="url(#filter1_d_1876_39853)">
<rect y="136.809" width="47.5089" height="47.5089" rx="9.36131" transform="rotate(-14.8917 0 136.809)" fill="url(#paint1_linear_1876_39853)" shape-rendering="crispEdges"/>
<path d="M20.0905 152.818L19.2886 149.803C17.9614 144.812 18.3906 140.355 25.9297 138.35C33.4688 136.345 36.0552 140 37.3824 144.991L38.1843 148.007" stroke="#F9FAFB" stroke-width="1.17016" stroke-linecap="round" stroke-linejoin="round"/>
<path d="M32.5439 163.229C34.6258 162.675 35.8646 160.539 35.311 158.457C34.7574 156.375 32.6209 155.136 30.5391 155.69C28.4572 156.244 27.2183 158.38 27.7719 160.462C28.3256 162.544 30.462 163.783 32.5439 163.229Z" stroke="#F9FAFB" stroke-width="1.17016" stroke-linecap="round" stroke-linejoin="round"/>
<path d="M41.4874 166.501L26.4092 170.511C20.378 172.115 18.4692 171.008 16.8653 164.977L16.0634 161.961C14.4596 155.93 15.5664 154.021 21.5977 152.417L36.6758 148.407C42.7071 146.804 44.6159 147.91 46.2197 153.942L47.0217 156.957C48.6255 162.989 47.5187 164.897 41.4874 166.501Z" stroke="#F9FAFB" stroke-width="1.17016" stroke-linecap="round" stroke-linejoin="round"/>
</g>
<path d="M392.003 18.6826H220.875C218.114 18.6826 215.875 20.9212 215.875 23.6827V266.117C215.875 268.879 218.114 271.117 220.875 271.117H392.003C394.764 271.117 397.003 268.879 397.003 266.117V23.6827C397.003 20.9212 394.764 18.6826 392.003 18.6826Z" fill="url(#paint2_linear_1876_39853)"/>
<path opacity="0.3" d="M390.417 43.8564H222.445V261.674H390.417V43.8564Z" fill="black"/>
<path d="M390.729 27.9473H222.758V255.018H390.729V27.9473Z" fill="white"/>
<path d="M371.099 74.0332H241.77V81.0185H371.099V74.0332Z" fill="#E0E0E0"/>
<path d="M371.099 234.581H241.77V241.566H371.099V234.581Z" fill="#E0E0E0"/>
<path d="M371.099 90.4541H241.77V91.1271H371.099V90.4541Z" fill="#263238"/>
<path d="M371.099 101.259H241.77V101.932H371.099V101.259Z" fill="#263238"/>
<path d="M371.099 112.077H241.77V112.75H371.099V112.077Z" fill="#263238"/>
<path d="M371.099 121.559H241.77V122.232H371.099V121.559Z" fill="#263238"/>
<path d="M335.567 145.008H241.77V145.681H335.567V145.008Z" fill="#263238"/>
<path d="M335.567 154.861H241.77V155.534H335.567V154.861Z" fill="#263238"/>
<path d="M365.332 159.396H347.559V141.656H365.332V159.396ZM348.265 158.723H364.659V142.329H348.232L348.265 158.723Z" fill="#263238"/>
<path d="M358.618 157.305L349.277 150.346L351.7 147.089L357.965 151.753L366.572 141.483L369.688 144.094L358.618 157.305Z" fill="#3F3A60"/>
<path d="M335.567 175.65H241.77V176.323H335.567V175.65Z" fill="#263238"/>
<path d="M335.567 185.51H241.77V186.183H335.567V185.51Z" fill="#263238"/>
<path d="M365.332 190.037H347.559V172.298H365.332V190.037ZM348.265 189.364H364.659V172.971H348.232L348.265 189.364Z" fill="#263238"/>
<path d="M358.618 187.942L349.277 180.991L351.7 177.727L357.965 182.391L366.572 172.121L369.688 174.732L358.618 187.942Z" fill="#3F3A60"/>
<path d="M335.567 206.297H241.77V206.97H335.567V206.297Z" fill="#263238"/>
<path d="M335.567 216.147H241.77V216.82H335.567V216.147Z" fill="#263238"/>
<path d="M365.332 220.684H347.559V202.944H365.332V220.684ZM348.265 220.011H364.659V203.617H348.232L348.265 220.011Z" fill="#263238"/>
<path d="M358.618 218.593L349.277 211.634L351.7 208.377L357.965 213.041L366.572 202.771L369.688 205.383L358.618 218.593Z" fill="#3F3A60"/>
<path d="M269.516 49.6025V57.8732H267.355V49.6025H269.516Z" fill="#263238"/>
<path d="M277.644 53.8328V57.8706H275.558V54.4519C275.574 54.3016 275.558 54.1495 275.511 54.0059C275.463 53.8622 275.386 53.7305 275.283 53.6195C275.18 53.5084 275.055 53.4208 274.915 53.3624C274.776 53.304 274.625 53.2762 274.474 53.281C274.148 53.2809 273.835 53.4081 273.601 53.6356C273.367 53.8631 273.231 54.1729 273.222 54.499V57.8639H271.109V51.4842H273.209V52.5205C273.428 52.1612 273.74 51.8678 274.112 51.6711C274.484 51.4745 274.902 51.382 275.322 51.4034C275.64 51.3886 275.958 51.4422 276.254 51.5605C276.549 51.6789 276.816 51.8593 277.036 52.0895C277.256 52.3198 277.424 52.5945 277.529 52.8952C277.634 53.196 277.673 53.5157 277.644 53.8328Z" fill="#263238"/>
<path d="M281.313 52.8413C280.956 52.8413 280.707 52.9692 280.707 53.2451C280.707 54.0796 284.072 53.6825 284.072 55.8966C284.072 57.2425 282.921 57.9491 281.38 57.9491C280.346 57.9706 279.334 57.6513 278.5 57.0406L279.173 55.6947C279.836 56.1733 280.624 56.4471 281.441 56.4821C281.831 56.4821 282.114 56.3542 282.114 56.0917C282.114 55.2236 278.823 55.6543 278.823 53.4537C278.823 52.1078 279.94 51.3877 281.441 51.3877C282.389 51.3843 283.32 51.6403 284.133 52.128L283.419 53.4739C282.776 53.1019 282.055 52.8853 281.313 52.8413Z" fill="#263238"/>
<path d="M291.409 51.4755V57.8552H289.282V56.8188C289.079 57.1721 288.784 57.4638 288.429 57.6629C288.073 57.8619 287.67 57.9609 287.263 57.9494C286.947 57.9597 286.632 57.9023 286.34 57.7808C286.048 57.6594 285.786 57.4768 285.57 57.2453C285.355 57.0138 285.191 56.7389 285.091 56.439C284.991 56.139 284.956 55.8211 284.989 55.5065V51.4688H287.088V54.9009C287.069 55.046 287.081 55.1937 287.124 55.3337C287.166 55.4738 287.239 55.6031 287.336 55.7129C287.433 55.8226 287.552 55.9102 287.686 55.9698C287.82 56.0294 287.965 56.0596 288.111 56.0584C288.858 56.0584 289.309 55.4527 289.309 54.6182V51.4688L291.409 51.4755Z" fill="#263238"/>
<path d="M297.161 51.3948V53.3127C295.997 53.1983 295.217 53.7165 295.143 54.5981V57.8552H293.043V51.4755H295.143V52.5388C295.347 52.1859 295.642 51.8939 295.997 51.6928C296.352 51.4917 296.754 51.3888 297.161 51.3948Z" fill="#263238"/>
<path d="M303.577 53.7027V57.8549H301.511V57.1348C301.279 57.4127 300.984 57.6314 300.65 57.7729C300.317 57.9145 299.955 57.9749 299.593 57.9491C298.247 57.9491 297.406 57.1281 297.406 55.9302C297.406 54.7323 298.268 54.019 299.849 53.9921H301.511V53.9248C301.511 53.3258 301.101 52.9692 300.3 52.9692C299.634 52.9987 298.982 53.1708 298.389 53.4739L297.81 52.0607C298.74 51.6204 299.756 51.3906 300.785 51.3877C302.541 51.3944 303.564 52.2424 303.577 53.7027ZM301.511 55.7216V55.1697H300.26C299.674 55.1697 299.378 55.3851 299.378 55.8427C299.378 56.3003 299.694 56.5628 300.239 56.5628C300.518 56.5805 300.794 56.5047 301.025 56.3474C301.255 56.1902 301.426 55.9604 301.511 55.6947V55.7216Z" fill="#263238"/>
<path d="M311.523 53.8328V57.8706H309.47V54.4519C309.486 54.3016 309.47 54.1495 309.423 54.0059C309.376 53.8622 309.298 53.7305 309.195 53.6195C309.092 53.5084 308.967 53.4208 308.828 53.3624C308.688 53.304 308.538 53.2762 308.387 53.281C308.06 53.2809 307.747 53.4081 307.513 53.6356C307.279 53.8631 307.144 54.1729 307.135 54.499V57.8639H305.035V51.4842H307.135V52.5205C307.354 52.1612 307.666 51.8678 308.038 51.6711C308.41 51.4745 308.828 51.382 309.248 51.4034C309.562 51.3955 309.875 51.4541 310.164 51.5755C310.454 51.6969 310.715 51.8783 310.93 52.1078C311.145 52.3372 311.309 52.6096 311.411 52.9069C311.513 53.2042 311.551 53.5198 311.523 53.8328Z" fill="#263238"/>
<path d="M315.815 53.1361C315.061 53.1361 314.543 53.7619 314.543 54.6839C314.543 55.6058 315.061 56.225 315.815 56.225C316.071 56.2423 316.327 56.1831 316.55 56.0549C316.773 55.9267 316.952 55.7353 317.066 55.5049L318.614 56.3932C318.225 56.9926 317.655 57.4525 316.987 57.7063C316.319 57.9602 315.588 57.9948 314.899 57.8051C314.21 57.6154 313.599 57.2113 313.155 56.6514C312.711 56.0914 312.457 55.4047 312.43 54.6906C312.45 53.978 312.697 53.2903 313.134 52.7269C313.571 52.1635 314.175 51.7533 314.86 51.5557C315.545 51.3581 316.275 51.3831 316.945 51.6272C317.615 51.8714 318.19 52.3219 318.587 52.914L317.066 53.7956C316.93 53.589 316.744 53.4203 316.525 53.305C316.306 53.1897 316.062 53.1316 315.815 53.1361Z" fill="#263238"/>
<path d="M325.434 55.2244H320.999C321.071 55.5524 321.256 55.8445 321.522 56.0499C321.787 56.2553 322.117 56.3609 322.452 56.3483C322.734 56.3424 323.011 56.2797 323.268 56.1641C323.525 56.0484 323.755 55.8822 323.946 55.6753L325.043 56.779C324.689 57.1569 324.257 57.4537 323.777 57.6488C323.298 57.844 322.781 57.9329 322.264 57.9095C320.171 57.9095 318.899 56.6242 318.899 54.6726C318.875 54.2307 318.945 53.7888 319.105 53.3761C319.265 52.9633 319.51 52.5891 319.825 52.2781C320.139 51.9671 320.517 51.7264 320.931 51.5719C321.346 51.4174 321.789 51.3526 322.23 51.3818C324.444 51.402 325.575 52.9027 325.434 55.2244ZM323.415 54.1073C323.427 53.947 323.405 53.7859 323.351 53.6345C323.297 53.4831 323.212 53.3448 323.101 53.2285C322.99 53.1123 322.855 53.0209 322.706 52.9601C322.558 52.8993 322.398 52.8706 322.237 52.8758C321.911 52.891 321.601 53.0243 321.366 53.2509C321.131 53.4774 320.986 53.7818 320.958 54.1073H323.415Z" fill="#263238"/>
<path d="M337.025 52.4935C337.025 54.4383 335.813 55.5689 333.7 55.5689H332.227V57.857H330.066V49.6064H333.7C335.813 49.6064 337.025 50.6495 337.025 52.4935ZM334.972 52.5607C334.972 51.7465 334.468 51.309 333.593 51.309H332.247V53.8461H333.593C333.772 53.873 333.955 53.8591 334.128 53.8054C334.301 53.7517 334.46 53.6597 334.593 53.5362C334.725 53.4126 334.828 53.2608 334.894 53.0919C334.96 52.923 334.986 52.7414 334.972 52.5607Z" fill="#263238"/>
<path d="M344.534 54.6575C344.534 56.6293 343.141 57.9281 341.042 57.9281C338.942 57.9281 337.562 56.6293 337.562 54.6575C337.562 52.6858 338.942 51.4004 341.042 51.4004C343.141 51.4004 344.534 52.6992 344.534 54.6575ZM339.676 54.6575C339.713 54.9218 339.826 55.1696 340.001 55.3712C340.177 55.5728 340.406 55.7195 340.663 55.7937C340.919 55.868 341.191 55.8666 341.447 55.7898C341.703 55.7129 341.931 55.5639 342.104 55.3606C342.277 55.1573 342.387 54.9084 342.422 54.6437C342.457 54.379 342.415 54.1099 342.301 53.8686C342.187 53.6273 342.005 53.4242 341.778 53.2836C341.551 53.143 341.288 53.071 341.022 53.0761C340.824 53.0825 340.629 53.1307 340.451 53.2174C340.273 53.3041 340.116 53.4274 339.989 53.5792C339.862 53.731 339.768 53.9079 339.714 54.0984C339.66 54.2888 339.647 54.4886 339.676 54.6844V54.6575Z" fill="#263238"/>
<path d="M347.774 49.0986V57.8471H345.668V49.0986H347.774Z" fill="#263238"/>
<path d="M351.524 51.4746V57.8543H349.438V51.4746H351.524ZM351.443 49.6778C351.442 49.8665 351.384 50.0506 351.279 50.2069C351.173 50.3631 351.023 50.4846 350.848 50.5559C350.674 50.6272 350.482 50.6451 350.297 50.6075C350.112 50.5699 349.942 50.4783 349.809 50.3444C349.676 50.2105 349.586 50.0402 349.55 49.8551C349.513 49.6699 349.533 49.4781 349.605 49.3039C349.678 49.1296 349.8 48.9808 349.957 48.8761C350.114 48.7714 350.299 48.7155 350.487 48.7155C350.615 48.7107 350.742 48.7324 350.86 48.7792C350.979 48.8259 351.086 48.8967 351.176 48.9872C351.266 49.0776 351.336 49.1857 351.382 49.3045C351.428 49.4234 351.449 49.5505 351.443 49.6778Z" fill="#263238"/>
<path d="M355.999 53.1368C355.238 53.1368 354.72 53.7627 354.72 54.6846C354.72 55.6066 355.238 56.2257 355.999 56.2257C356.254 56.2416 356.508 56.1818 356.73 56.0537C356.951 55.9256 357.13 55.7349 357.244 55.5056L358.791 56.3939C358.402 56.9933 357.832 57.4532 357.164 57.7071C356.496 57.9609 355.765 57.9955 355.076 57.8058C354.387 57.6162 353.776 57.2121 353.332 56.6521C352.889 56.0922 352.634 55.4054 352.607 54.6913C352.581 54.2513 352.649 53.8109 352.806 53.3992C352.964 52.9874 353.206 52.6137 353.519 52.3026C353.831 51.9916 354.206 51.7504 354.618 51.5949C355.03 51.4394 355.471 51.3732 355.911 51.4006C356.48 51.372 357.046 51.4976 357.549 51.7642C358.053 52.0307 358.475 52.4282 358.771 52.9147L357.25 53.7963C357.115 53.5893 356.929 53.4202 356.71 53.3048C356.491 53.1895 356.246 53.1317 355.999 53.1368Z" fill="#263238"/>
<path d="M360.705 60.2364C360.017 60.2426 359.349 60.0041 358.82 59.5634L359.688 58.1165C359.92 58.3356 360.225 58.4604 360.543 58.4665C360.705 58.4719 360.864 58.4285 361.001 58.3421C361.138 58.2557 361.246 58.1303 361.31 57.9819L361.458 57.6926L358.82 51.4609H360.981L362.501 55.6602L363.847 51.508H365.94L363.201 58.5136C363.031 59.0344 362.695 59.485 362.244 59.7962C361.793 60.1074 361.252 60.262 360.705 60.2364Z" fill="#263238"/>
<path d="M256.999 45.9492H244.757C243.107 45.9492 241.77 47.287 241.77 48.9372V61.1784C241.77 62.8286 243.107 64.1663 244.757 64.1663H256.999C258.649 64.1663 259.987 62.8286 259.987 61.1784V48.9372C259.987 47.287 258.649 45.9492 256.999 45.9492Z" fill="#3F3A60"/>
<path d="M250.878 54.7328C252.357 54.7328 253.556 53.5336 253.556 52.0544C253.556 50.5751 252.357 49.376 250.878 49.376C249.398 49.376 248.199 50.5751 248.199 52.0544C248.199 53.5336 249.398 54.7328 250.878 54.7328Z" fill="white"/>
<path d="M250.887 55.3037C249.444 55.3055 248.061 55.8799 247.041 56.9007C246.022 57.9215 245.449 59.3052 245.449 60.748H256.311C256.311 59.3076 255.74 57.9258 254.723 56.9054C253.707 55.885 252.327 55.3091 250.887 55.3037Z" fill="white"/>
<path d="M335.168 14.3125H277.711V35.9819H335.168V14.3125Z" fill="#263238"/>
<path d="M324.624 16.501H291.03L287.281 0H329.227L324.624 16.501Z" fill="#263238"/>
<path opacity="0.3" d="M325.793 0C325.759 0.100944 321.317 14.1322 321.432 14.1322H325.241L329.279 0H325.793Z" fill="black"/>
<path opacity="0.3" d="M331.462 14.3125C331.462 14.3125 331.187 35.9819 331.462 35.9819H335.17V14.3125H331.462Z" fill="black"/>
<path d="M320.636 262.692H170.039V215.751H302.785L315.174 225.82C316.886 227.209 318.266 228.965 319.211 230.957C320.156 232.95 320.643 235.129 320.636 237.334V262.692Z" fill="url(#paint3_linear_1876_39853)"/>
<path opacity="0.5" d="M320.636 262.692H170.039V215.751H302.785L315.174 225.82C316.886 227.209 318.266 228.965 319.211 230.957C320.156 232.95 320.643 235.129 320.636 237.334V262.692Z" fill="black"/>
<path d="M169.172 258.458C169.172 241.325 176.964 227.438 186.487 227.438H168.116C158.532 227.438 150.801 241.29 150.801 258.458C150.801 275.626 158.593 289.487 168.116 289.487H186.522C176.92 289.487 169.172 275.592 169.172 258.458Z" fill="#263238"/>
<path d="M186.522 289.478C196.103 289.478 203.871 275.59 203.871 258.458C203.871 241.327 196.103 227.438 186.522 227.438C176.94 227.438 169.172 241.327 169.172 258.458C169.172 275.59 176.94 289.478 186.522 289.478Z" fill="#263238"/>
<path d="M187.916 282.647C194.71 282.647 200.218 271.817 200.218 258.458C200.218 245.098 194.71 234.269 187.916 234.269C181.121 234.269 175.613 245.098 175.613 258.458C175.613 271.817 181.121 282.647 187.916 282.647Z" fill="white"/>
<path d="M69.1681 258.458C69.1681 241.325 76.9599 227.438 86.4831 227.438H68.1119C58.528 227.438 50.7969 241.29 50.7969 258.458C50.7969 275.626 58.5886 289.487 68.1119 289.487H86.5178C76.9339 289.487 69.1681 275.592 69.1681 258.458Z" fill="#263238"/>
<path d="M86.5215 289.478C96.1035 289.478 103.871 275.59 103.871 258.458C103.871 241.327 96.1035 227.438 86.5215 227.438C76.9396 227.438 69.1719 241.327 69.1719 258.458C69.1719 275.59 76.9396 289.478 86.5215 289.478Z" fill="#263238"/>
<path d="M288.067 258.458C288.067 241.325 295.858 227.438 305.382 227.438H287.01C277.435 227.438 269.695 241.29 269.695 258.458C269.695 275.626 277.487 289.487 287.01 289.487H305.416C295.841 289.487 288.067 275.592 288.067 258.458Z" fill="#263238"/>
<path d="M305.42 289.478C315.002 289.478 322.77 275.59 322.77 258.458C322.77 241.327 315.002 227.438 305.42 227.438C295.838 227.438 288.07 241.327 288.07 258.458C288.07 275.59 295.838 289.478 305.42 289.478Z" fill="#263238"/>
<path d="M306.822 282.647C313.616 282.647 319.124 271.817 319.124 258.458C319.124 245.098 313.616 234.269 306.822 234.269C300.027 234.269 294.52 245.098 294.52 258.458C294.52 271.817 300.027 282.647 306.822 282.647Z" fill="white"/>
<path d="M148.672 267.116H126.414L125.167 265.904C123.886 264.621 122.149 263.899 120.336 263.896H64.7028C62.89 263.899 61.1524 264.621 59.872 265.904L59.1101 266.657H57.0842C55.5102 266.657 53.9516 266.346 52.4981 265.742C51.0447 265.138 49.7249 264.253 48.6147 263.137C47.5045 262.021 46.6257 260.697 46.0289 259.24C45.432 257.784 45.1289 256.224 45.1369 254.649V236.339H171.381L161.338 258.173C160.412 260.791 158.696 263.057 156.427 264.659C154.159 266.261 151.449 267.119 148.672 267.116Z" fill="url(#paint4_linear_1876_39853)"/>
<path opacity="0.2" d="M148.672 267.116H126.414L125.167 265.904C123.886 264.621 122.149 263.899 120.336 263.896H64.7028C62.89 263.899 61.1524 264.621 59.872 265.904L59.1101 266.657H57.0842C55.5102 266.657 53.9516 266.346 52.4981 265.742C51.0447 265.138 49.7249 264.253 48.6147 263.137C47.5045 262.021 46.6257 260.697 46.0289 259.24C45.432 257.784 45.1289 256.224 45.1369 254.649V236.339H171.381L161.338 258.173C160.412 260.791 158.696 263.057 156.427 264.659C154.159 266.261 151.449 267.119 148.672 267.116Z" fill="black"/>
<path d="M280.081 158.274C280.005 158.276 279.93 158.255 279.865 158.214C279.816 158.186 279.772 158.149 279.737 158.104C279.703 158.059 279.677 158.007 279.663 157.952C279.648 157.897 279.645 157.84 279.653 157.784C279.661 157.728 279.68 157.674 279.709 157.625L285.769 147.236C285.794 147.181 285.831 147.132 285.876 147.091C285.921 147.051 285.974 147.021 286.032 147.002C286.09 146.984 286.151 146.977 286.211 146.984C286.271 146.991 286.329 147.01 286.382 147.04C286.434 147.071 286.479 147.112 286.515 147.161C286.55 147.21 286.575 147.266 286.588 147.325C286.6 147.384 286.6 147.446 286.587 147.505C286.575 147.564 286.55 147.62 286.514 147.669L280.454 158.058C280.416 158.123 280.362 158.178 280.296 158.216C280.231 158.254 280.157 158.274 280.081 158.274Z" fill="#263238"/>
<path d="M312.051 209.96V198.151C312.051 191.944 303.03 162.655 290.624 157.166C278.217 151.677 248.202 149.236 229.294 150.24C210.386 151.245 185.141 190.792 185.141 190.792L187.885 224.799C191.729 224.799 203.971 223.639 205.763 257.282C205.883 259.654 206.911 261.888 208.634 263.523C210.357 265.157 212.643 266.066 215.018 266.06H281.213C283.437 266.059 285.585 265.254 287.262 263.793C288.939 262.333 290.031 260.315 290.338 258.113C292.07 246.122 296.589 224.773 307.489 224.773C315.133 224.773 320.613 231.318 320.613 238.824C320.615 230.578 318.613 222.455 314.778 215.154L312.051 209.96Z" fill="url(#paint5_linear_1876_39853)"/>
<path d="M160.028 150.242C125.597 150.242 86.5859 190.794 86.5859 190.794H185.169C185.169 190.794 210.388 151.255 229.322 150.242H160.028Z" fill="url(#paint6_linear_1876_39853)"/>
<path opacity="0.4" d="M162.143 150.242C133.14 150.242 102.718 179.02 93.8438 188.084C93.6233 188.308 93.4741 188.593 93.4151 188.902C93.356 189.211 93.3897 189.53 93.5119 189.82C93.6341 190.11 93.8394 190.357 94.1018 190.53C94.3642 190.704 94.6721 190.795 94.9866 190.794H174.514C177.715 190.803 180.873 190.057 183.732 188.615C186.59 187.174 189.068 185.079 190.964 182.5C199.517 170.847 215.993 150.961 229.325 150.242H162.143Z" fill="white"/>
<path d="M185.172 190.79L148.758 219.524L50.7641 219.213C50.7641 219.213 45.1367 227.394 45.1367 236.337H171.381C173.45 230.857 180.705 224.797 187.916 224.797C187.916 214.598 185.172 190.79 185.172 190.79Z" fill="url(#paint7_linear_1876_39853)"/>
<path opacity="0.2" d="M161.338 211.057C161.235 211.056 161.135 211.018 161.057 210.95C160.979 210.882 160.928 210.788 160.914 210.685C160.899 210.573 160.929 210.459 160.997 210.368C161.065 210.278 161.166 210.217 161.278 210.2C170.019 208.783 178.198 204.978 184.913 199.205C186.24 198.089 187.104 196.518 187.336 194.799C187.568 193.08 187.152 191.336 186.168 189.907C186.132 189.861 186.106 189.807 186.091 189.751C186.076 189.694 186.073 189.634 186.082 189.576C186.091 189.518 186.112 189.463 186.143 189.413C186.174 189.363 186.215 189.32 186.263 189.286C186.311 189.253 186.366 189.23 186.423 189.218C186.481 189.206 186.54 189.206 186.598 189.218C186.655 189.23 186.71 189.253 186.758 189.287C186.806 189.321 186.847 189.364 186.878 189.414C187.981 191.02 188.448 192.979 188.187 194.91C187.926 196.842 186.957 198.607 185.467 199.863C178.634 205.743 170.307 209.615 161.407 211.049L161.338 211.057Z" fill="black"/>
<path d="M50.7617 219.213C50.7617 219.213 67.9729 199.153 86.5865 190.79H185.17L148.756 219.524L50.7617 219.213Z" fill="url(#paint8_linear_1876_39853)"/>
<path d="M126.997 219.214H62.3516V221.093H126.997V219.214Z" fill="#263238"/>
<path d="M125.651 215.458L129.114 211.995C129.893 211.217 130.878 210.68 131.954 210.445L158.108 204.749C159.027 204.548 159.982 204.577 160.887 204.835L162.29 205.225C163.223 205.488 164.075 205.983 164.766 206.664C165.457 207.345 165.965 208.19 166.241 209.12C166.518 210.049 166.554 211.034 166.348 211.982C166.141 212.93 165.698 213.81 165.06 214.54L159.433 220.973C158.462 222.08 157.106 222.773 155.641 222.912L130.248 225.215C129.409 225.295 128.563 225.189 127.77 224.905C126.977 224.621 126.257 224.165 125.66 223.57C124.586 222.494 123.982 221.036 123.98 219.516C123.979 217.996 124.58 216.537 125.651 215.458Z" fill="white"/>
<path d="M64.1794 217.291L61.3138 211.932C60.9103 211.182 60.3122 210.554 59.5823 210.114C58.8889 209.698 58.1002 209.468 57.292 209.445C56.4839 209.422 55.6834 209.608 54.9678 209.984L52.7948 211.127C51.7275 211.692 50.9162 212.642 50.5265 213.785L49.2019 217.707C48.9816 218.353 48.904 219.038 48.9744 219.717C49.0448 220.396 49.2615 221.051 49.6096 221.638C49.9577 222.225 50.4289 222.729 50.9908 223.116C51.5526 223.503 52.1917 223.764 52.864 223.88L58.8464 224.91C59.8221 225.079 60.8263 224.936 61.7166 224.503C62.6069 224.069 63.3383 223.367 63.8071 222.494L64.2054 221.759C64.5719 221.07 64.7615 220.302 64.7569 219.522C64.7524 218.742 64.5539 217.975 64.1794 217.291Z" fill="white"/>
<path opacity="0.4" d="M205.306 191.944H296.452C297.225 191.944 297.987 191.764 298.678 191.417C299.368 191.07 299.968 190.566 300.429 189.946C300.89 189.326 301.2 188.607 301.333 187.846C301.466 187.085 301.419 186.303 301.197 185.563C299.119 178.637 295.136 167.806 289.154 162.283C288.489 161.674 287.673 161.256 286.79 161.071C276.047 158.794 258.775 157.279 245.962 156.396C240.154 155.998 234.329 156.864 228.887 158.932C223.446 161 218.517 164.223 214.44 168.378C209.564 173.303 205.162 178.674 201.289 184.42C200.804 185.148 200.525 185.994 200.482 186.868C200.44 187.742 200.635 188.612 201.047 189.383C201.459 190.155 202.073 190.801 202.823 191.252C203.573 191.703 204.431 191.942 205.306 191.944Z" fill="white"/>
<path d="M146.377 246.486C146.377 249.326 143.468 251.638 139.884 251.638C136.3 251.638 133.391 249.326 133.391 246.486C133.391 243.647 136.291 241.344 139.884 241.344C143.477 241.344 146.377 243.647 146.377 246.486Z" fill="#263238"/>
<path d="M94.0616 215.283C96.1914 215.283 97.2303 217.465 96.3819 220.149C95.5334 222.833 93.1266 225.023 90.9882 225.023C88.8498 225.023 87.8196 222.841 88.668 220.149C89.5165 217.456 91.9319 215.283 94.0616 215.283Z" fill="#263238"/>
<path d="M50.377 246.486C50.377 249.326 49.5112 251.638 48.5502 251.638C47.5893 251.638 46.7148 249.326 46.7148 246.486C46.7148 243.647 47.5806 241.344 48.5502 241.344C49.5199 241.344 50.377 243.647 50.377 246.486Z" fill="#263238"/>
<path d="M202.504 191.121V188.203C202.503 187.366 202.689 186.539 203.048 185.783C203.407 185.026 203.931 184.36 204.58 183.831C205.229 183.303 205.989 182.926 206.802 182.729C207.616 182.531 208.463 182.517 209.283 182.688L220.382 185C221.649 185.264 222.786 185.957 223.603 186.961C224.42 187.966 224.866 189.22 224.866 190.515V191.121C224.866 192.614 224.274 194.046 223.219 195.103C222.163 196.16 220.732 196.755 219.239 196.757H208.14C206.645 196.757 205.212 196.163 204.155 195.106C203.098 194.049 202.504 192.616 202.504 191.121Z" fill="#263238"/>
<path d="M260.9 157.606C260.9 157.606 259.42 157.458 256.84 157.233C268.25 180.609 265.342 191.941 265.342 191.941H274.051C274.138 177.708 260.9 157.606 260.9 157.606Z" fill="#263238"/>
<path opacity="0.2" d="M164.665 181.477C164.488 183.314 163.634 185.019 162.269 186.261C160.904 187.503 159.125 188.193 157.28 188.195H112.408C109.135 188.195 107.949 184.541 110.321 181.823C114.602 176.949 119.25 172.41 124.225 168.248C132.675 161.131 143.168 157.435 152.977 158.119L156.682 158.387C158.282 158.512 159.798 159.15 161.005 160.206C162.213 161.262 163.047 162.68 163.383 164.248C164.693 169.891 165.125 175.702 164.665 181.477Z" fill="url(#paint9_linear_1876_39853)"/>
<path opacity="0.2" d="M266.382 259.906C266.267 259.906 266.157 259.86 266.076 259.779C265.995 259.698 265.949 259.588 265.949 259.473C265.949 250.711 270.417 214.584 271.585 209.173C272.719 203.918 272.719 198.048 271.585 194.23C271.553 194.12 271.566 194.001 271.621 193.901C271.676 193.8 271.769 193.725 271.88 193.693C271.99 193.663 272.107 193.677 272.207 193.732C272.307 193.787 272.382 193.879 272.416 193.987C273.585 197.935 273.585 203.97 272.416 209.355C271.248 214.739 266.798 250.746 266.798 259.473C266.798 259.585 266.755 259.692 266.677 259.773C266.6 259.854 266.494 259.901 266.382 259.906Z" fill="black"/>
<path opacity="0.2" d="M265.227 209.633H254.674C254.474 209.639 254.275 209.6 254.092 209.517C253.91 209.434 253.749 209.311 253.621 209.156C253.494 209.001 253.404 208.819 253.359 208.624C253.313 208.429 253.313 208.226 253.358 208.031L253.574 206.81C253.662 206.371 253.895 205.974 254.236 205.683C254.576 205.393 255.005 205.225 255.453 205.209H266.007C266.207 205.202 266.406 205.242 266.588 205.324C266.771 205.407 266.932 205.531 267.059 205.685C267.186 205.84 267.276 206.022 267.322 206.217C267.367 206.412 267.368 206.615 267.323 206.81L267.106 208.031C267.019 208.47 266.786 208.867 266.445 209.158C266.104 209.449 265.675 209.616 265.227 209.633Z" fill="black"/>
</g>
<defs>
<filter id="filter0_d_1876_39853" x="80.7651" y="29.6922" width="128.716" height="128.715" filterUnits="userSpaceOnUse" color-interpolation-filters="sRGB">
<feFlood flood-opacity="0" result="BackgroundImageFix"/>
<feColorMatrix in="SourceAlpha" type="matrix" values="0 0 0 0 0 0 0 0 0 0 0 0 0 0 0 0 0 0 127 0" result="hardAlpha"/>
<feOffset dy="7.42327"/>
<feGaussianBlur stdDeviation="11.8772"/>
<feComposite in2="hardAlpha" operator="out"/>
<feColorMatrix type="matrix" values="0 0 0 0 0 0 0 0 0 0 0 0 0 0 0 0 0 0 0.3 0"/>
<feBlend mode="normal" in2="BackgroundImageFix" result="effect1_dropShadow_1876_39853"/>
<feBlend mode="normal" in="SourceGraphic" in2="effect1_dropShadow_1876_39853" result="shape"/>
</filter>
<filter id="filter1_d_1876_39853" x="-18.7226" y="111.728" width="95.5663" height="95.5673" filterUnits="userSpaceOnUse" color-interpolation-filters="sRGB">
<feFlood flood-opacity="0" result="BackgroundImageFix"/>
<feColorMatrix in="SourceAlpha" type="matrix" values="0 0 0 0 0 0 0 0 0 0 0 0 0 0 0 0 0 0 127 0" result="hardAlpha"/>
<feOffset dy="5.85082"/>
<feGaussianBlur stdDeviation="9.36131"/>
<feComposite in2="hardAlpha" operator="out"/>
<feColorMatrix type="matrix" values="0 0 0 0 0 0 0 0 0 0 0 0 0 0 0 0 0 0 0.3 0"/>
<feBlend mode="normal" in2="BackgroundImageFix" result="effect1_dropShadow_1876_39853"/>
<feBlend mode="normal" in="SourceGraphic" in2="effect1_dropShadow_1876_39853" result="shape"/>
</filter>
<linearGradient id="paint0_linear_1876_39853" x1="186.545" y1="46.0234" x2="106.621" y2="105.686" gradientUnits="userSpaceOnUse">
<stop stop-color="#BDACFF"/>
<stop offset="1" stop-color="#6B47F5"/>
</linearGradient>
<linearGradient id="paint1_linear_1876_39853" x1="47.5089" y1="136.809" x2="-5.77334" y2="176.584" gradientUnits="userSpaceOnUse">
<stop stop-color="#BDACFF"/>
<stop offset="1" stop-color="#6B47F5"/>
</linearGradient>
<linearGradient id="paint2_linear_1876_39853" x1="397.003" y1="18.6826" x2="151.188" y2="150.348" gradientUnits="userSpaceOnUse">
<stop stop-color="#BDACFF"/>
<stop offset="1" stop-color="#6B47F5"/>
</linearGradient>
<linearGradient id="paint3_linear_1876_39853" x1="320.637" y1="215.751" x2="281.588" y2="309.269" gradientUnits="userSpaceOnUse">
<stop stop-color="#6B47F5"/>
<stop offset="1" stop-color="#3F3A60"/>
</linearGradient>
<linearGradient id="paint4_linear_1876_39853" x1="171.381" y1="236.339" x2="150.131" y2="301.406" gradientUnits="userSpaceOnUse">
<stop stop-color="#6B47F5"/>
<stop offset="1" stop-color="#3F3A60"/>
</linearGradient>
<linearGradient id="paint5_linear_1876_39853" x1="320.613" y1="150.02" x2="186.143" y2="267.211" gradientUnits="userSpaceOnUse">
<stop stop-color="#6B47F5"/>
<stop offset="1" stop-color="#3F3A60"/>
</linearGradient>
<linearGradient id="paint6_linear_1876_39853" x1="229.322" y1="150.242" x2="197.783" y2="233.114" gradientUnits="userSpaceOnUse">
<stop stop-color="#6B47F5"/>
<stop offset="1" stop-color="#3F3A60"/>
</linearGradient>
<linearGradient id="paint7_linear_1876_39853" x1="187.916" y1="190.79" x2="149.411" y2="280.897" gradientUnits="userSpaceOnUse">
<stop stop-color="#6B47F5"/>
<stop offset="1" stop-color="#3F3A60"/>
</linearGradient>
<linearGradient id="paint8_linear_1876_39853" x1="185.17" y1="190.79" x2="167.376" y2="252.921" gradientUnits="userSpaceOnUse">
<stop stop-color="#6B47F5"/>
<stop offset="1" stop-color="#3F3A60"/>
</linearGradient>
<linearGradient id="paint9_linear_1876_39853" x1="164.843" y1="158.038" x2="131.323" y2="204.312" gradientUnits="userSpaceOnUse">
<stop stop-color="#6B47F5"/>
<stop offset="1" stop-color="#3F3A60"/>
</linearGradient>
<clipPath id="clip0_1876_39853">
<rect width="397" height="289.488" fill="white"/>
</clipPath>
</defs>
</svg>
