<svg width="34" height="43" viewBox="0 0 34 43" fill="none" xmlns="http://www.w3.org/2000/svg">
<path d="M11.8681 18.3107C11.5967 18.2161 11.4419 18.0412 11.3897 17.7681C11.3305 17.4629 11.5219 17.1023 11.7985 16.997C11.8855 16.9631 11.9307 16.9578 12.0612 16.9631C12.2003 16.9685 12.2316 16.9756 12.3499 17.0345C12.4317 17.0773 12.5082 17.1327 12.5552 17.1844L12.6283 17.2665L12.7361 17.2273C13.0197 17.122 13.3415 16.8935 13.4685 16.7025C13.5294 16.6115 13.5381 16.5883 13.5363 16.5044C13.5329 16.3848 13.472 16.2634 13.4024 16.2385C13.3659 16.2242 13.3346 16.2277 13.2719 16.2527C12.971 16.3723 12.9501 16.3777 12.7814 16.3777C12.6335 16.3795 12.6074 16.3741 12.5378 16.3313C12.4404 16.2742 12.3099 16.1332 12.2612 16.0332C12.1586 15.8262 12.1499 15.612 12.2386 15.4174C12.3604 15.1497 12.637 14.9891 12.9257 15.0212C13.1084 15.0408 13.4476 15.2318 13.599 15.3996C13.686 15.496 13.7625 15.6602 13.8512 15.9422C13.9173 16.1546 13.9678 16.2706 13.9991 16.2902C14.0095 16.2974 14.0669 16.2563 14.1261 16.1992C14.1852 16.1421 14.2931 16.0386 14.3644 15.9689C14.4357 15.9011 14.8028 15.5513 15.1785 15.1961C15.5525 14.8391 15.8604 14.5411 15.8604 14.5339C15.8604 14.5268 15.7682 14.4357 15.6569 14.3322C14.5958 13.3541 13.3415 12.6259 11.8246 12.1047C10.539 11.6621 9.13865 11.4033 7.56606 11.3176C7.19552 11.2962 7.1816 11.2944 7.26337 11.273C7.41645 11.2319 7.93137 11.1605 8.26015 11.1337C9.5057 11.0302 10.6904 11.1266 11.9724 11.4372C13.2145 11.7388 14.2183 12.1868 15.4308 12.9829C15.6969 13.1578 16.0988 13.4416 16.3388 13.6218C16.4258 13.6879 16.5163 13.7539 16.5406 13.77L16.5859 13.8003L16.7755 13.6379C18.4803 12.1797 20.6426 11.3069 23.0102 11.1195C23.3772 11.0909 24.294 11.0909 24.6541 11.1195C25.0716 11.1534 25.8631 11.2605 25.8892 11.2872C25.8944 11.2926 25.7239 11.3051 25.51 11.3176C22.5214 11.4818 20.0059 12.3082 18.1306 13.7379C17.7984 13.9913 17.2173 14.4964 17.2173 14.5321C17.2173 14.5393 17.4696 14.7856 17.7775 15.0783C18.0871 15.3728 18.4977 15.7655 18.6925 15.9511C18.8873 16.1385 19.0561 16.2902 19.0665 16.2902C19.0996 16.2902 19.1587 16.1617 19.2353 15.9243C19.3362 15.6084 19.397 15.487 19.5206 15.355C19.7937 15.064 20.2268 14.948 20.5104 15.0926C20.6426 15.1586 20.7818 15.2996 20.8461 15.4335C20.8914 15.5299 20.8966 15.5584 20.8966 15.7191C20.8966 15.8797 20.8914 15.9083 20.8461 16.0046C20.733 16.2402 20.54 16.3688 20.279 16.3848C20.0981 16.3955 19.9868 16.3723 19.8128 16.2866C19.7432 16.2527 19.6719 16.2277 19.6562 16.2313C19.6093 16.2402 19.5414 16.3991 19.5397 16.5062C19.5397 16.5883 19.5484 16.6133 19.611 16.7043C19.7432 16.8971 20.0581 17.122 20.3416 17.2273L20.4495 17.2665L20.5226 17.1844C20.6687 17.022 20.9227 16.9381 21.1436 16.9774C21.3819 17.0184 21.5524 17.147 21.6533 17.3594C21.7525 17.5628 21.7385 17.7824 21.6168 17.9805C21.5228 18.1304 21.3889 18.2089 21.1245 18.2643C20.9314 18.3053 20.7713 18.3071 20.5695 18.2714C20.1329 18.1929 19.7467 17.9965 19.1779 17.561C19.0195 17.4415 18.9865 17.4218 18.9674 17.4432C18.9552 17.4575 18.9013 17.5271 18.8456 17.5985C18.6855 17.802 18.4385 18.0019 18.1776 18.1376C17.8366 18.3125 17.4835 18.3285 17.1965 18.1804C17.066 18.1126 16.9129 17.9537 16.8485 17.8216C16.7998 17.7199 16.7929 17.686 16.7929 17.5593C16.7911 17.4236 16.7963 17.4022 16.859 17.2719C16.939 17.1059 17.0555 16.9827 17.1982 16.9096C17.2852 16.8667 17.3147 16.8614 17.4696 16.8614C17.8488 16.8614 18.0854 17.0363 18.0871 17.3183C18.0871 17.3843 18.0958 17.4272 18.1115 17.4397C18.1724 17.4914 18.3863 17.3861 18.4646 17.2648L18.5029 17.2059L18.4664 17.1309C18.4037 17.0024 18.2333 16.7596 18.0923 16.5972C17.9045 16.383 17.6992 16.1956 17.1999 15.7851C16.9651 15.5941 16.7215 15.3889 16.6572 15.33L16.5389 15.2229L16.4136 15.3389C16.3441 15.4031 16.1492 15.5691 15.9822 15.7101C15.2603 16.317 14.9732 16.5972 14.7141 16.9506C14.5453 17.1809 14.5384 17.2201 14.6392 17.3201C14.7419 17.4218 14.8567 17.47 14.9298 17.4415C14.9715 17.4254 14.9993 17.3611 15.0498 17.1719C15.0846 17.0434 15.1472 16.9756 15.2742 16.9274C15.4951 16.8417 15.7265 16.8382 15.89 16.9185C15.9961 16.9685 16.144 17.1327 16.2101 17.2719C16.264 17.3879 16.2692 17.4093 16.2692 17.5664C16.2692 17.7163 16.264 17.7485 16.2205 17.8395C16.0901 18.1108 15.7804 18.2803 15.4168 18.2803C14.9767 18.2803 14.4166 17.9269 14.1191 17.4593L14.0913 17.4147L13.9625 17.5146C13.3902 17.9555 13.0475 18.1465 12.6074 18.2661C12.3691 18.3303 11.9916 18.3535 11.8681 18.3107Z" fill="#181818"/>
<path d="M15.6239 12.6312C15.6291 12.6169 15.6917 12.5063 15.7613 12.3867C15.9996 11.9833 16.0518 11.8495 16.0518 11.6424C16.0518 11.5782 16.0396 11.4764 16.024 11.4139C15.9892 11.2729 15.9979 11.1819 16.0623 11.0338C16.1179 10.9017 16.1249 10.766 16.0971 10.3377C16.0814 10.0985 16.0831 10.0967 16.1301 9.9807C16.1771 9.87004 16.1806 9.8397 16.2032 9.40062C16.2362 8.72951 16.2519 6.83577 16.2275 6.20572C16.1892 5.18477 16.1858 5.14194 16.1666 5.14908C16.1562 5.15265 16.1458 5.19013 16.1423 5.23475C16.1388 5.27759 16.1284 5.32221 16.1179 5.3347C16.0918 5.36862 16.0101 5.36326 15.9631 5.32399C15.9266 5.29365 15.9248 5.28651 15.9457 5.24546C15.9631 5.21155 15.9631 5.1937 15.9474 5.16336C15.9196 5.10981 15.8953 5.1223 15.8344 5.22226C15.7944 5.29008 15.7822 5.33649 15.7735 5.44536C15.763 5.58101 15.7457 5.57387 15.7352 5.4293C15.7317 5.38646 15.7213 5.36505 15.7004 5.36148C15.65 5.35077 15.6291 5.42752 15.6448 5.55603C15.6587 5.65598 15.6656 5.67026 15.7004 5.67561C15.7526 5.68275 15.7509 5.74344 15.6935 6.07185C15.6691 6.21464 15.6465 6.3967 15.6448 6.47702C15.6448 6.55912 15.6378 6.62516 15.6326 6.62516C15.6152 6.62516 15.5995 6.57518 15.5995 6.51807C15.5995 6.44489 15.5821 6.41097 15.5473 6.41097C15.523 6.41097 15.516 6.38599 15.5073 6.23784C15.4917 5.98975 15.4482 5.84696 15.4082 5.91121C15.3995 5.92549 15.3908 6.01831 15.3908 6.11647C15.389 6.32173 15.3786 6.31281 15.3212 6.06828C15.2847 5.91121 15.2829 5.88444 15.3038 5.78806C15.3281 5.6649 15.3177 5.58637 15.276 5.60243C15.2551 5.61136 15.2499 5.59708 15.2533 5.52747C15.2568 5.46143 15.2516 5.43644 15.2255 5.41859C15.2064 5.40431 15.182 5.39717 15.1698 5.40074C15.1333 5.41502 15.1403 5.16693 15.1803 5.03842C15.1994 4.97773 15.2464 4.88313 15.2864 4.82959C15.3664 4.72071 15.3664 4.67966 15.2899 4.67966C15.2325 4.67966 15.189 4.72071 15.1455 4.81888L15.1159 4.88492L15.1142 4.80995C15.1107 4.68501 15.1716 4.55472 15.3055 4.39587L15.4273 4.25129L15.3838 4.23166C15.3108 4.19775 15.2377 4.23344 15.1507 4.34767L15.1124 4.39943V4.35124C15.1124 4.2263 15.2151 4.09958 15.3943 4.00141C15.4917 3.94786 15.4986 3.94073 15.4691 3.91931C15.429 3.88896 15.3838 3.88718 15.3351 3.91395C15.316 3.92466 15.2968 3.92823 15.2916 3.92466C15.276 3.90681 15.3803 3.75688 15.4917 3.64087L15.6047 3.52307L15.5456 3.48559C15.5125 3.46417 15.476 3.4481 15.4638 3.4481C15.4482 3.4481 15.4464 3.43918 15.4604 3.41419C15.4691 3.39456 15.4778 3.36064 15.4778 3.33744C15.4778 3.31424 15.4865 3.28568 15.4969 3.27497C15.5073 3.26426 15.5108 3.24641 15.5056 3.2357C15.483 3.19822 15.4151 3.21607 15.3612 3.27497C15.3073 3.3303 15.2186 3.50343 15.2151 3.55519C15.2151 3.57126 15.2081 3.56769 15.1959 3.5427C15.1438 3.43204 15.0707 3.55698 15.0724 3.74796C15.0742 3.8372 15.0672 3.87647 15.0533 3.87112C15.0429 3.86755 15.0324 3.8372 15.0289 3.80329C15.0202 3.71583 14.9959 3.69798 14.9541 3.74974C14.928 3.78366 14.9211 3.82114 14.9193 3.94608C14.9176 4.0621 14.9141 4.0853 14.9037 4.04068C14.8846 3.95857 14.8602 3.93537 14.8358 3.97821C14.8115 4.02818 14.7819 4.22273 14.7819 4.35124C14.7819 4.41014 14.7767 4.46547 14.7697 4.47083C14.7645 4.47797 14.7454 4.45834 14.728 4.42978C14.7089 4.39943 14.688 4.37623 14.6793 4.37623C14.6584 4.37623 14.5906 4.54401 14.5906 4.59755C14.5906 4.62254 14.6184 4.69751 14.6514 4.76355C14.6845 4.82959 14.7193 4.92418 14.728 4.97416C14.7454 5.06519 14.728 5.22583 14.6967 5.28116C14.6828 5.30793 14.6793 5.30079 14.6775 5.24724C14.6775 5.1705 14.6341 5.11338 14.5993 5.14372C14.5801 5.15979 14.5697 5.15265 14.5471 5.10981C14.5332 5.07947 14.5123 5.05448 14.5036 5.05448C14.4671 5.05448 14.4236 5.30258 14.4079 5.59351C14.4009 5.71131 14.3888 5.79877 14.3801 5.79341C14.3714 5.78806 14.3644 5.75236 14.3644 5.71488C14.3644 5.63634 14.3453 5.61493 14.2966 5.64348C14.2461 5.67026 14.2339 5.76664 14.2653 5.87909C14.307 6.02366 14.2566 5.94156 14.1887 5.75236C14.093 5.47928 14.0617 5.29544 14.0617 4.96524C14.0617 4.28342 14.2183 3.93894 14.8237 3.29104C15.1281 2.96441 15.1594 2.8948 15.0011 2.8948C14.9106 2.8948 14.848 2.93942 14.7993 3.03937C14.761 3.11612 14.7454 3.12326 14.7123 3.08221C14.7002 3.06793 14.6845 3.05543 14.6775 3.05543C14.6706 3.05543 14.6306 3.13218 14.5888 3.225C14.5471 3.31781 14.5071 3.39456 14.5001 3.39456C14.4931 3.39456 14.4862 3.36778 14.4827 3.33744C14.4792 3.29282 14.4688 3.27854 14.4444 3.27854C14.394 3.27854 14.3453 3.36064 14.3122 3.50522C14.2861 3.61766 14.2792 3.62837 14.2687 3.58732C14.2618 3.55876 14.2461 3.53735 14.2322 3.53735C14.1957 3.53735 14.1261 3.65872 14.1035 3.76045C14.0722 3.90146 14.0722 3.90146 14.0426 3.87647C13.9765 3.81935 13.9121 3.91038 13.9121 4.06388C13.9121 4.14777 13.9086 4.15848 13.8808 4.14955C13.8304 4.13706 13.7869 4.25129 13.773 4.42978C13.7625 4.569 13.7608 4.57792 13.7416 4.53151C13.7295 4.50296 13.7208 4.46547 13.7208 4.44584C13.7208 4.38516 13.6738 4.41014 13.6355 4.49046C13.6164 4.5333 13.5955 4.62433 13.5886 4.69215C13.5712 4.87242 13.5485 4.90812 13.5468 4.75998C13.5451 4.53151 13.4981 4.55472 13.4268 4.82245C13.4076 4.89384 13.3868 4.95631 13.3815 4.96167C13.3763 4.96702 13.3728 4.90277 13.3728 4.81709C13.3728 4.67609 13.3554 4.61897 13.3241 4.65289C13.3172 4.66002 13.3085 4.75462 13.3033 4.8635C13.2946 5.07768 13.2806 5.07411 13.2528 4.85279C13.2006 4.46012 13.2493 4.08887 13.3885 3.79615C13.639 3.27497 13.9643 2.95191 14.5523 2.64491C14.8358 2.49677 14.9907 2.38432 14.9646 2.34149C14.9541 2.32542 14.9211 2.32185 14.8445 2.32899C14.7854 2.33435 14.7228 2.33078 14.7036 2.32364C14.6793 2.31472 14.6584 2.32007 14.6306 2.34506C14.594 2.38076 14.594 2.38076 14.5749 2.34327C14.5488 2.29687 14.4984 2.29508 14.4236 2.34149L14.3679 2.37897L14.3557 2.34149C14.3383 2.28437 14.2705 2.29687 14.2026 2.36826C14.1435 2.43073 14.1435 2.43073 14.1174 2.39325L14.093 2.35398L14.02 2.39325C13.9782 2.41467 13.9365 2.45215 13.926 2.47714L13.9069 2.51997L13.8669 2.48249C13.8338 2.45036 13.8217 2.44679 13.8008 2.46464C13.7851 2.47714 13.7695 2.50391 13.7643 2.52176C13.7556 2.54496 13.7434 2.55389 13.7225 2.54675C13.6877 2.53604 13.6442 2.57709 13.6181 2.64848C13.606 2.68061 13.5903 2.69489 13.5746 2.68775C13.5572 2.68061 13.5381 2.70917 13.5103 2.78592C13.4842 2.85553 13.4633 2.88766 13.4529 2.87695C13.4424 2.86624 13.4303 2.8591 13.425 2.8591C13.4042 2.8591 13.3746 2.94477 13.3624 3.03758C13.3433 3.18573 13.3207 3.13932 13.3207 2.9537C13.3207 2.57887 13.4546 2.27902 13.6964 2.10767C13.7973 2.03628 14.0739 1.93097 14.3557 1.85779C14.5679 1.80067 14.5993 1.79711 14.8689 1.79711C15.149 1.79711 15.1594 1.79889 15.3212 1.85779C15.5247 1.93097 15.5299 1.93097 15.5491 1.88278C15.57 1.82745 15.4725 1.63468 15.4012 1.59006C15.349 1.55615 15.3281 1.55615 15.236 1.58471C15.1994 1.59542 15.1959 1.59185 15.2046 1.56686C15.2412 1.47226 15.2394 1.45084 15.1925 1.43835C15.1664 1.43121 15.1194 1.43835 15.0776 1.4562C14.982 1.49546 14.9559 1.49368 14.9611 1.44549C14.9663 1.39194 14.9089 1.38302 14.815 1.4205C14.7263 1.4562 14.7262 1.45798 14.7402 1.40444C14.761 1.32055 14.6845 1.3259 14.5523 1.41871C14.5053 1.45084 14.5036 1.45084 14.5036 1.41693C14.5036 1.3973 14.4914 1.37231 14.4775 1.35981C14.4375 1.3259 14.3731 1.37945 14.2809 1.52224C14.2409 1.58471 14.1992 1.63825 14.1905 1.64182C14.18 1.64539 14.1731 1.60077 14.1731 1.53473C14.1731 1.33661 14.2531 1.24558 14.5645 1.0903C14.7767 0.984993 14.8933 0.960004 15.1559 0.961789C15.6117 0.963574 15.8292 1.07602 16.0466 1.42228C16.0918 1.49546 16.1353 1.55615 16.1405 1.55615C16.1579 1.55615 16.2327 1.33483 16.2693 1.18668C16.2849 1.11529 16.3041 1.05639 16.3075 1.05639C16.3128 1.05639 16.3284 1.07067 16.3406 1.08851C16.3615 1.11707 16.3632 1.11529 16.3789 1.07245C16.3893 1.04746 16.405 0.963574 16.4154 0.88504C16.4728 0.478092 16.5093 0.451319 16.5546 0.781518C16.5928 1.05103 16.6189 1.12957 16.652 1.07424C16.6711 1.04211 16.6955 1.0546 16.6955 1.09744C16.6955 1.15634 16.8225 1.52581 16.8451 1.53295C16.8573 1.53651 16.8886 1.49725 16.9181 1.44549C17.0156 1.27057 17.2191 1.10458 17.4418 1.0189C17.6575 0.936801 18.075 0.940371 18.3237 1.02783C18.6334 1.13492 18.8143 1.34375 18.7969 1.57578L18.7917 1.65253L18.7134 1.52938C18.6177 1.38123 18.5534 1.3259 18.5133 1.35981C18.4994 1.37231 18.4873 1.3973 18.4873 1.41514C18.4873 1.4437 18.4733 1.44013 18.3811 1.3848C18.2837 1.3259 18.2733 1.32233 18.2472 1.3491C18.2228 1.37409 18.2211 1.3848 18.2402 1.41514C18.2733 1.46869 18.2576 1.47404 18.1776 1.43121C18.0802 1.37945 18.0419 1.38837 18.0489 1.46512C18.0524 1.51688 18.0489 1.52224 18.0228 1.51153C17.9219 1.46691 17.8001 1.43121 17.7792 1.44013C17.7531 1.44906 17.7531 1.47226 17.7845 1.57221C17.7966 1.61326 17.7966 1.61326 17.7514 1.58471C17.6696 1.52938 17.6053 1.56507 17.4922 1.7275C17.3896 1.87028 17.3635 1.94703 17.4226 1.92026C17.5514 1.86314 17.7827 1.82031 18.0176 1.81138C18.3255 1.80067 18.6003 1.84173 18.9308 1.9506C19.1796 2.03271 19.2962 2.1041 19.4632 2.28259C19.5693 2.39503 19.5797 2.41467 19.618 2.55567C19.6632 2.7288 19.6858 3.06614 19.6563 3.11969C19.6389 3.15182 19.6371 3.15003 19.6197 3.10362C19.6093 3.07507 19.6006 3.01974 19.6006 2.97868C19.6006 2.88587 19.5762 2.84125 19.5467 2.87159C19.5293 2.88944 19.5188 2.87873 19.4945 2.82162C19.4771 2.78235 19.4249 2.70203 19.3814 2.64313C19.3188 2.56281 19.2909 2.53961 19.2666 2.54853C19.2492 2.55389 19.2353 2.5521 19.2353 2.54318C19.2353 2.53604 19.2196 2.50927 19.2005 2.48428L19.1674 2.43966L19.0805 2.52533L19.0631 2.47892C19.0526 2.45215 19.0144 2.41645 18.9709 2.39325L18.8978 2.35577L18.87 2.39146C18.8404 2.42716 18.8404 2.42716 18.7778 2.36291C18.7151 2.29865 18.7151 2.29865 18.6421 2.32364C18.5777 2.34506 18.5638 2.34506 18.5186 2.31828C18.449 2.27723 18.4368 2.27902 18.4159 2.33435L18.3985 2.38254L18.3603 2.34684C18.3324 2.32007 18.3116 2.31472 18.2872 2.32364C18.2681 2.33256 18.2124 2.33435 18.1619 2.32899C18.0471 2.3165 18.0036 2.33078 18.0367 2.37005C18.0715 2.41467 18.3307 2.5878 18.5655 2.72523C19.1257 3.05186 19.3275 3.25712 19.5484 3.72476C19.7572 4.16562 19.8215 4.64575 19.7189 4.99201C19.698 5.05983 19.6963 5.05448 19.6876 4.8635C19.6824 4.75462 19.6737 4.66002 19.6667 4.65289C19.6354 4.61897 19.618 4.67609 19.618 4.81531C19.618 4.8992 19.611 4.96345 19.6023 4.9581C19.5954 4.95274 19.578 4.89741 19.5658 4.83673C19.5554 4.77604 19.5293 4.69394 19.5101 4.65467C19.4771 4.58685 19.4736 4.58506 19.451 4.61719C19.4371 4.63504 19.4266 4.67609 19.4249 4.70465C19.4232 4.75641 19.4214 4.75462 19.4075 4.68858C19.3692 4.52616 19.3518 4.47261 19.3257 4.44406C19.2875 4.39765 19.2701 4.40479 19.2701 4.46191C19.2701 4.49046 19.2579 4.52794 19.244 4.54758C19.2144 4.58863 19.2161 4.59577 19.2109 4.42085C19.2057 4.25308 19.164 4.13528 19.11 4.14955C19.0822 4.15848 19.0787 4.14777 19.0787 4.05496C19.0787 3.97821 19.07 3.94073 19.0422 3.90503C19.0004 3.85148 18.9796 3.84791 18.9361 3.88896C18.9065 3.91574 18.9048 3.91574 18.9048 3.88361C18.9048 3.81578 18.8508 3.63908 18.816 3.58911C18.7743 3.52664 18.7395 3.52307 18.7221 3.5784C18.7099 3.61588 18.7099 3.61588 18.6943 3.56412C18.6856 3.53556 18.6717 3.47666 18.6612 3.43561C18.6247 3.2839 18.5046 3.21072 18.5046 3.34101C18.5046 3.36957 18.4977 3.39456 18.489 3.39456C18.4803 3.39456 18.4403 3.31781 18.3985 3.225C18.3568 3.13218 18.3168 3.05543 18.3116 3.05543C18.3046 3.05543 18.2907 3.06793 18.2785 3.08221C18.2455 3.12326 18.2333 3.11612 18.1846 3.02866C18.1393 2.95191 18.0193 2.8591 17.9619 2.8591C17.9375 2.8591 17.9132 2.90729 17.9132 2.96084C17.9132 2.99296 18.0663 3.1768 18.3116 3.43918C18.6786 3.83185 18.7725 3.96928 18.8613 4.24058C19.0074 4.68858 18.9796 5.25795 18.7847 5.78627C18.7447 5.89337 18.7047 5.96476 18.7204 5.90229C18.7465 5.78627 18.7499 5.74344 18.7308 5.69525C18.7186 5.66669 18.703 5.6417 18.6943 5.6417C18.6421 5.63099 18.6351 5.63991 18.6264 5.71488C18.609 5.8773 18.5829 5.79341 18.5708 5.53639C18.5655 5.3936 18.5464 5.23118 18.5325 5.17407C18.5168 5.11695 18.5046 5.06697 18.5046 5.0634C18.5046 5.03842 18.4681 5.06162 18.4403 5.10446C18.4211 5.1348 18.3933 5.15265 18.3655 5.15265C18.3272 5.15265 18.3203 5.16157 18.3133 5.23297L18.3029 5.31328L18.2889 5.23654C18.2698 5.13123 18.2889 4.98844 18.3498 4.79389C18.4072 4.60648 18.409 4.57435 18.3672 4.46547C18.3272 4.36731 18.3046 4.35838 18.2663 4.42799C18.2489 4.45834 18.2298 4.48332 18.2228 4.48332C18.2141 4.48332 18.2089 4.43692 18.2089 4.38159C18.2072 4.24951 18.1828 4.06031 18.1585 3.99427C18.1428 3.95322 18.1341 3.94786 18.1132 3.96571C18.1011 3.97642 18.0854 4.01212 18.0819 4.04246C18.0784 4.07459 18.0732 4.02997 18.0732 3.94608C18.0698 3.82292 18.0628 3.78187 18.0367 3.74974C18.0106 3.71583 18.0019 3.71226 17.9949 3.73368C17.9636 3.84077 17.9549 3.86576 17.9375 3.87112C17.9236 3.87647 17.9167 3.83899 17.9184 3.74796C17.9201 3.64801 17.9132 3.60339 17.8871 3.56055C17.8506 3.49629 17.8192 3.48558 17.7949 3.52842C17.7845 3.54984 17.7723 3.53199 17.7514 3.4606C17.7201 3.35886 17.654 3.26962 17.6105 3.26962C17.5914 3.26962 17.5827 3.29282 17.5792 3.35529C17.574 3.43204 17.5705 3.43918 17.527 3.44453C17.4887 3.44989 17.4765 3.44096 17.4679 3.40527C17.4592 3.36957 17.447 3.35886 17.4087 3.35886C17.3009 3.35886 17.3304 3.43561 17.4748 3.53378C17.5531 3.58732 17.5792 3.61588 17.6018 3.68192C17.6192 3.72654 17.6557 3.80329 17.6853 3.8497C17.7531 3.96036 17.7531 3.97464 17.6836 3.93002C17.6157 3.88896 17.567 3.88539 17.5218 3.91931C17.4905 3.94251 17.4957 3.94608 17.5809 3.9907C17.7549 4.08173 17.8784 4.22987 17.8784 4.34946C17.8784 4.39051 17.8732 4.38873 17.7949 4.30484C17.7097 4.21381 17.6644 4.19775 17.5983 4.23523C17.5653 4.25308 17.5687 4.25843 17.6453 4.34589C17.8036 4.52616 17.8801 4.67252 17.8784 4.79389L17.8767 4.84922L17.8419 4.7814C17.8001 4.70108 17.7427 4.66716 17.6905 4.69572C17.6557 4.71357 17.6575 4.71893 17.7323 4.89384C17.8158 5.08661 17.861 5.2526 17.861 5.36505C17.861 5.42216 17.8575 5.43109 17.8366 5.41324C17.8175 5.39717 17.8019 5.39717 17.7775 5.40967C17.7323 5.43465 17.7236 5.465 17.734 5.55246C17.7427 5.61493 17.7392 5.62385 17.7149 5.61493C17.6714 5.59708 17.6627 5.65241 17.687 5.7827C17.7062 5.89336 17.7044 5.91657 17.6644 6.08791C17.6401 6.18787 17.6157 6.27711 17.6105 6.28246C17.6053 6.28782 17.6001 6.21642 17.6001 6.12361C17.6001 5.85945 17.5705 5.80234 17.5218 5.97011C17.5061 6.02009 17.4887 6.14146 17.4835 6.23606C17.4748 6.39491 17.4696 6.40919 17.4365 6.41455C17.407 6.41811 17.3983 6.43775 17.3878 6.50736C17.367 6.66264 17.3391 6.64836 17.3391 6.48237C17.3391 6.39848 17.32 6.21464 17.2956 6.07185C17.2382 5.73094 17.2382 5.68632 17.2956 5.67204C17.3391 5.66133 17.3409 5.65776 17.3356 5.51319C17.3304 5.37754 17.3269 5.36683 17.2922 5.36148C17.2556 5.35612 17.2521 5.36326 17.2521 5.43465C17.2521 5.5239 17.24 5.57209 17.2156 5.57209C17.2069 5.57209 17.2 5.5239 17.2 5.465C17.2 5.34898 17.1652 5.24189 17.1165 5.20441C17.0643 5.16336 17.0434 5.17585 17.0434 5.24903C17.0434 5.32042 17.026 5.3472 16.9634 5.36148C16.9042 5.37575 16.8746 5.3472 16.852 5.25081C16.8294 5.15443 16.7998 5.13123 16.7998 5.21155C16.7998 5.23832 16.7877 5.44001 16.7738 5.66133C16.7094 6.65193 16.7094 7.65859 16.7738 9.04722C16.8068 9.78972 16.812 9.84862 16.8625 10.0664C16.9129 10.2931 16.9147 10.3716 16.8677 10.4983C16.8381 10.5786 16.8329 10.6179 16.8433 10.7178C16.8573 10.866 16.8955 11.0016 16.9495 11.098C17.0034 11.1926 17.0016 11.2355 16.939 11.4389C16.9112 11.53 16.8868 11.6228 16.8868 11.6424C16.8868 11.7424 17.1634 12.326 17.3461 12.6098L17.3774 12.658H16.4954C15.7213 12.658 15.6152 12.6544 15.6239 12.6312Z" fill="#181818"/>
<path d="M4.8634 27.3765C4.5434 27.3765 4.25896 27.332 4.01007 27.2431C3.76711 27.1483 3.57155 26.9913 3.4234 26.772C3.28118 26.5468 3.20118 26.2357 3.1834 25.8387L3.04118 22.7454H3.76118L3.9034 25.6787C3.92118 25.9572 3.97155 26.1676 4.05451 26.3098C4.13748 26.4461 4.25303 26.538 4.40118 26.5854C4.55526 26.6268 4.73896 26.6476 4.95229 26.6476C5.07674 26.6476 5.16563 26.6831 5.21896 26.7543C5.27822 26.8194 5.30785 26.8994 5.30785 26.9943C5.30785 27.0891 5.26637 27.178 5.1834 27.2609C5.10044 27.338 4.99377 27.3765 4.8634 27.3765ZM3.52118 26.3987C3.1834 26.5054 2.85451 26.5587 2.53451 26.5587C2.21451 26.5587 1.92414 26.5113 1.6634 26.4165C1.40266 26.3217 1.19526 26.1854 1.04118 26.0076C0.887107 25.8239 0.81007 25.6046 0.81007 25.3498C0.81007 25.1009 0.872293 24.8668 0.996737 24.6476C1.12711 24.4283 1.30192 24.2328 1.52118 24.0609C1.74637 23.8891 2.00414 23.7468 2.29451 23.6343C2.59081 23.5157 2.90489 23.4357 3.23674 23.3943L3.36118 24.1409C3.06489 24.1528 2.80118 24.1943 2.57007 24.2654C2.34489 24.3305 2.15229 24.4165 1.99229 24.5231C1.83822 24.6298 1.7197 24.7454 1.63674 24.8698C1.55377 24.9943 1.51229 25.1157 1.51229 25.2343C1.51229 25.3646 1.5597 25.4713 1.65451 25.5543C1.74933 25.6372 1.87081 25.7024 2.01896 25.7498C2.16711 25.7913 2.33007 25.818 2.50785 25.8298C2.68563 25.8357 2.85748 25.8298 3.0234 25.812C3.18933 25.7883 3.33155 25.7557 3.45007 25.7143L3.52118 26.3987ZM3.33451 21.7231C3.21007 21.7231 3.1034 21.6817 3.01451 21.5987C2.93155 21.5098 2.89007 21.4061 2.89007 21.2876C2.89007 21.1691 2.93155 21.0654 3.01451 20.9765C3.1034 20.8876 3.21007 20.8431 3.33451 20.8431C3.45303 20.8431 3.55377 20.8876 3.63674 20.9765C3.72563 21.0654 3.77007 21.1691 3.77007 21.2876C3.77007 21.4061 3.72563 21.5098 3.63674 21.5987C3.55377 21.6817 3.45303 21.7231 3.33451 21.7231ZM2.11674 21.7231C1.99229 21.7231 1.88563 21.6817 1.79674 21.5987C1.71377 21.5098 1.67229 21.4061 1.67229 21.2876C1.67229 21.1691 1.71377 21.0654 1.79674 20.9765C1.88563 20.8876 1.99229 20.8431 2.11674 20.8431C2.23526 20.8431 2.336 20.8876 2.41896 20.9765C2.50785 21.0654 2.55229 21.1691 2.55229 21.2876C2.55229 21.4061 2.50785 21.5098 2.41896 21.5987C2.336 21.6817 2.23526 21.7231 2.11674 21.7231ZM4.86632 27.3765L4.95521 26.6476C5.30484 26.6476 5.57743 26.6357 5.77299 26.612C5.96854 26.5824 6.1078 26.5143 6.19076 26.4076C6.27373 26.295 6.31521 26.1202 6.31521 25.8831C6.31521 25.735 6.29151 25.5602 6.2441 25.3587C6.19669 25.1513 6.13447 24.932 6.05743 24.7009C5.98039 24.4698 5.89743 24.2417 5.80854 24.0165L6.52854 23.7498C6.60558 23.9394 6.67669 24.1557 6.74188 24.3987C6.81299 24.6417 6.87225 24.8817 6.91965 25.1187C6.96706 25.3557 6.99076 25.5631 6.99076 25.7409C6.99076 26.0372 6.94928 26.2891 6.86632 26.4965C6.78928 26.7039 6.66484 26.8728 6.49299 27.0031C6.32113 27.1335 6.09891 27.2283 5.82632 27.2876C5.55965 27.3468 5.23965 27.3765 4.86632 27.3765ZM6.51076 29.0565C6.38632 29.0565 6.27965 29.012 6.19076 28.9231C6.1078 28.8402 6.06632 28.7394 6.06632 28.6209C6.06632 28.5024 6.1078 28.3987 6.19076 28.3098C6.27965 28.2209 6.38632 28.1765 6.51076 28.1765C6.62928 28.1765 6.73002 28.2209 6.81299 28.3098C6.90188 28.3987 6.94632 28.5024 6.94632 28.6209C6.94632 28.7394 6.90188 28.8402 6.81299 28.9231C6.73002 29.012 6.62928 29.0565 6.51076 29.0565ZM5.29299 29.0565C5.16854 29.0565 5.06188 29.012 4.97299 28.9231C4.89002 28.8402 4.84854 28.7394 4.84854 28.6209C4.84854 28.5024 4.89002 28.3987 4.97299 28.3098C5.06188 28.2209 5.16854 28.1765 5.29299 28.1765C5.41151 28.1765 5.51225 28.2209 5.59521 28.3098C5.6841 28.3987 5.72854 28.5024 5.72854 28.6209C5.72854 28.7394 5.6841 28.8402 5.59521 28.9231C5.51225 29.012 5.41151 29.0565 5.29299 29.0565ZM7.83368 26.932L8.18924 26.3187C8.30775 26.3957 8.47368 26.4698 8.68701 26.5409C8.90035 26.612 9.14924 26.6476 9.43368 26.6476C9.72998 26.6476 9.96405 26.618 10.1359 26.5587C10.3137 26.4994 10.4411 26.4135 10.5181 26.3009C10.6011 26.1824 10.6426 26.0461 10.6426 25.892C10.6426 25.7735 10.6159 25.6283 10.5626 25.4565C10.5152 25.2787 10.4085 25.0417 10.2426 24.7454C10.0766 24.4431 9.82183 24.0491 9.47813 23.5631L10.0915 23.1631C10.4055 23.5957 10.6544 23.9868 10.8381 24.3365C11.0278 24.6861 11.1611 24.9943 11.2381 25.2609C11.3211 25.5217 11.3626 25.7468 11.3626 25.9365C11.3626 26.1735 11.3033 26.4046 11.1848 26.6298C11.0663 26.8491 10.8678 27.0298 10.5892 27.172C10.3107 27.3143 9.92553 27.3854 9.43368 27.3854C9.22035 27.3854 9.01294 27.3676 8.81146 27.332C8.6159 27.2965 8.43516 27.2461 8.26924 27.1809C8.10331 27.1098 7.95813 27.0268 7.83368 26.932ZM12.2742 29.3765L12.1142 28.6476C12.4698 28.6002 12.7957 28.532 13.092 28.4431C13.3942 28.3602 13.652 28.2387 13.8653 28.0787C14.0846 27.9187 14.2535 27.7083 14.372 27.4476C14.4905 27.1868 14.5498 26.8609 14.5498 26.4698C14.5498 26.0668 14.4757 25.732 14.3276 25.4654C14.1794 25.1987 13.9868 25.0654 13.7498 25.0654C13.6253 25.0654 13.5098 25.1128 13.4031 25.2076C13.2965 25.3024 13.2076 25.4298 13.1365 25.5898C13.0713 25.7498 13.0387 25.9246 13.0387 26.1143C13.0387 26.2209 13.0624 26.3098 13.1098 26.3809C13.1572 26.4461 13.2253 26.4994 13.3142 26.5409C13.4091 26.5765 13.5276 26.6031 13.6698 26.6209C13.812 26.6387 13.9779 26.6476 14.1676 26.6476H16.0431C16.1676 26.6476 16.2565 26.6831 16.3098 26.7543C16.3691 26.8194 16.3987 26.8994 16.3987 26.9943C16.3987 27.0891 16.3572 27.178 16.2742 27.2609C16.1913 27.338 16.0846 27.3765 15.9542 27.3765H13.8298C13.5631 27.3765 13.3142 27.338 13.0831 27.2609C12.8579 27.1839 12.6742 27.0654 12.532 26.9054C12.3957 26.7394 12.3276 26.5231 12.3276 26.2565C12.3276 26.0076 12.3661 25.7705 12.4431 25.5454C12.5202 25.3143 12.6239 25.1098 12.7542 24.932C12.8905 24.7483 13.0476 24.6031 13.2253 24.4965C13.4091 24.3898 13.6076 24.3365 13.8209 24.3365C14.0935 24.3365 14.3365 24.4165 14.5498 24.5765C14.7631 24.7365 14.932 24.9794 15.0565 25.3054C15.1809 25.6254 15.2431 26.0313 15.2431 26.5231C15.2431 27.0743 15.1305 27.5483 14.9053 27.9454C14.6861 28.3483 14.3542 28.6683 13.9098 28.9054C13.4713 29.1424 12.9261 29.2994 12.2742 29.3765ZM15.9514 27.3765L16.0403 26.6476C16.3958 26.6476 16.7306 26.615 17.0447 26.5498C17.3588 26.4787 17.6462 26.3868 17.9069 26.2743C18.1736 26.1557 18.4018 26.0224 18.5914 25.8743C18.781 25.7202 18.9262 25.5631 19.0269 25.4031C19.1336 25.2372 19.1869 25.0743 19.1869 24.9143C19.1869 24.8372 19.1603 24.7602 19.1069 24.6831C19.0536 24.6002 18.9618 24.532 18.8314 24.4787C18.7069 24.4254 18.5381 24.3987 18.3247 24.3987C18.1944 24.3987 18.0492 24.4165 17.8892 24.452C17.7292 24.4876 17.5751 24.538 17.4269 24.6031C17.2847 24.6624 17.1662 24.7305 17.0714 24.8076C17.2314 24.938 17.3795 25.0654 17.5158 25.1898C17.6581 25.3143 17.8032 25.4505 17.9514 25.5987C18.0995 25.7409 18.2595 25.9039 18.4314 26.0876C18.5677 26.1883 18.7188 26.2743 18.8847 26.3454C19.0566 26.4165 19.2403 26.4757 19.4358 26.5231C19.6373 26.5646 19.8418 26.5972 20.0492 26.6209C20.2566 26.6387 20.464 26.6476 20.6714 26.6476C20.7958 26.6476 20.8847 26.6831 20.9381 26.7543C20.9973 26.8194 21.0269 26.8994 21.0269 26.9943C21.0269 27.0891 20.9855 27.178 20.9025 27.2609C20.8195 27.338 20.7129 27.3765 20.5825 27.3765C20.2566 27.3765 19.9218 27.3468 19.5781 27.2876C19.2403 27.2224 18.9232 27.1276 18.6269 27.0031C18.3306 26.8728 18.0788 26.7098 17.8714 26.5143C17.7706 26.3839 17.6581 26.2535 17.5336 26.1231C17.4092 25.9928 17.2729 25.8624 17.1247 25.732C16.9825 25.5957 16.8284 25.4683 16.6625 25.3498C16.6269 25.3202 16.5914 25.2668 16.5558 25.1898C16.5203 25.1128 16.4906 25.0328 16.4669 24.9498C16.4432 24.8668 16.4314 24.8046 16.4314 24.7631C16.4314 24.6743 16.4877 24.5676 16.6003 24.4431C16.7129 24.3187 16.864 24.2002 17.0536 24.0876C17.2432 23.9691 17.4595 23.8713 17.7025 23.7943C17.9455 23.7172 18.1973 23.6787 18.4581 23.6787C18.7958 23.6787 19.0684 23.7291 19.2758 23.8298C19.4892 23.9305 19.6432 24.0609 19.7381 24.2209C19.8388 24.375 19.8892 24.5409 19.8892 24.7187C19.8892 24.9794 19.824 25.2402 19.6936 25.5009C19.5632 25.7557 19.3766 25.9957 19.1336 26.2209C18.8906 26.4461 18.6062 26.6476 18.2803 26.8254C17.9544 26.9972 17.5929 27.1335 17.1958 27.2343C16.8047 27.3291 16.3899 27.3765 15.9514 27.3765ZM20.5868 27.3765L20.6757 26.6476C20.8653 26.6476 21.0194 26.6357 21.1379 26.612C21.2564 26.5824 21.3542 26.5143 21.4312 26.4076C21.5142 26.295 21.5912 26.1202 21.6624 25.8831C21.7335 25.6461 21.8164 25.3143 21.9112 24.8876L22.5779 25.0743C22.5424 25.2224 22.5009 25.4002 22.4535 25.6076C22.4061 25.815 22.3824 26.0046 22.3824 26.1765C22.3824 26.2713 22.4061 26.3543 22.4535 26.4254C22.5009 26.4965 22.5809 26.5528 22.6935 26.5943C22.812 26.6298 22.969 26.6476 23.1646 26.6476C23.3424 26.6476 23.4875 26.6328 23.6001 26.6031C23.7127 26.5735 23.8046 26.5024 23.8757 26.3898C23.9527 26.2772 24.0209 26.0965 24.0801 25.8476C24.1394 25.5987 24.2016 25.258 24.2668 24.8254L24.9424 24.9498C24.9246 25.0565 24.9038 25.1868 24.8801 25.3409C24.8564 25.495 24.8327 25.6491 24.809 25.8031C24.7912 25.9513 24.7824 26.0757 24.7824 26.1765C24.7824 26.2594 24.8001 26.3394 24.8357 26.4165C24.8772 26.4876 24.9542 26.5439 25.0668 26.5854C25.1853 26.6268 25.3601 26.6476 25.5912 26.6476C25.8875 26.6476 26.1009 26.5854 26.2312 26.4609C26.3675 26.3365 26.4357 26.1468 26.4357 25.892C26.4357 25.7557 26.4327 25.6135 26.4268 25.4654C26.4209 25.3113 26.409 25.1424 26.3912 24.9587C26.3794 24.7691 26.3587 24.5528 26.329 24.3098L26.9779 24.2654C27.0135 24.7454 27.052 25.1394 27.0935 25.4476C27.1409 25.7557 27.2061 25.9987 27.289 26.1765C27.3779 26.3483 27.4964 26.4698 27.6446 26.5409C27.7927 26.612 27.9883 26.6476 28.2312 26.6476C28.3557 26.6476 28.4446 26.6831 28.4979 26.7543C28.5572 26.8194 28.5868 26.8994 28.5868 26.9943C28.5868 27.0891 28.5453 27.178 28.4624 27.2609C28.3794 27.338 28.2727 27.3765 28.1424 27.3765C27.9409 27.3765 27.7601 27.3498 27.6001 27.2965C27.4461 27.2372 27.3098 27.1602 27.1912 27.0654C27.0787 26.9646 26.9838 26.852 26.9068 26.7276C26.8357 26.5972 26.7853 26.4609 26.7557 26.3187L26.9157 26.372C26.8505 26.6387 26.7468 26.8461 26.6046 26.9943C26.4683 27.1365 26.3053 27.2372 26.1157 27.2965C25.9261 27.3498 25.7246 27.3765 25.5112 27.3765C25.2505 27.3765 25.0372 27.3439 24.8712 27.2787C24.7053 27.2135 24.575 27.1157 24.4801 26.9854C24.3912 26.8491 24.332 26.6772 24.3024 26.4698H24.6046C24.492 26.7246 24.3735 26.9172 24.249 27.0476C24.1246 27.178 23.9705 27.2668 23.7868 27.3143C23.6031 27.3557 23.3601 27.3765 23.0579 27.3765C22.9098 27.3765 22.7498 27.3528 22.5779 27.3054C22.412 27.258 22.2668 27.1661 22.1424 27.0298C22.0179 26.8876 21.9438 26.6772 21.9201 26.3987L22.1868 26.3454C22.0861 26.6476 21.9616 26.8728 21.8135 27.0209C21.6712 27.1631 21.4994 27.258 21.2979 27.3054C21.0964 27.3528 20.8594 27.3765 20.5868 27.3765ZM28.1389 27.3765L28.2189 26.6476C28.5567 26.6476 28.7937 26.615 28.93 26.5498C29.0663 26.4846 29.1433 26.3691 29.1611 26.2031C29.1848 26.0372 29.1907 25.8061 29.1789 25.5098L29.01 20.9854H29.73L29.9078 25.4298C29.9196 25.7439 29.9078 26.0224 29.8722 26.2654C29.8426 26.5083 29.7656 26.7128 29.6411 26.8787C29.5226 27.0446 29.3419 27.1691 29.0989 27.252C28.8619 27.335 28.5419 27.3765 28.1389 27.3765ZM31.2657 27.332L31.0879 20.9854H31.8079L31.9857 27.332H31.2657Z" fill="#181818"/>
<path d="M11.1275 39.332L8.25819 36.0147V39.332H7.04219V31.9187H8.25819V35.3L11.1382 31.9187H12.6635L9.44219 35.6307L12.7169 39.332H11.1275ZM16.2349 39.4067C15.7371 39.4067 15.2891 39.3214 14.8909 39.1507C14.4926 38.9729 14.1797 38.724 13.9522 38.404C13.7246 38.084 13.6109 37.7107 13.6109 37.284H14.9122C14.9406 37.604 15.0651 37.8671 15.2855 38.0734C15.5131 38.2796 15.8295 38.3827 16.2349 38.3827C16.6544 38.3827 16.9815 38.2831 17.2162 38.084C17.4509 37.8778 17.5682 37.6147 17.5682 37.2947C17.5682 37.0458 17.4935 36.8431 17.3442 36.6867C17.202 36.5303 17.0206 36.4094 16.8002 36.324C16.5869 36.2387 16.2882 36.1463 15.9042 36.0467C15.4206 35.9187 15.026 35.7907 14.7202 35.6627C14.4215 35.5276 14.1655 35.3214 13.9522 35.044C13.7389 34.7667 13.6322 34.3969 13.6322 33.9347C13.6322 33.508 13.7389 33.1347 13.9522 32.8147C14.1655 32.4947 14.4642 32.2494 14.8482 32.0787C15.2322 31.908 15.6766 31.8227 16.1815 31.8227C16.8997 31.8227 17.4864 32.004 17.9415 32.3667C18.4037 32.7223 18.6597 33.2129 18.7095 33.8387H17.3655C17.3442 33.5685 17.2162 33.3374 16.9815 33.1454C16.7469 32.9534 16.4375 32.8574 16.0535 32.8574C15.7051 32.8574 15.4206 32.9463 15.2002 33.124C14.9797 33.3018 14.8695 33.5578 14.8695 33.892C14.8695 34.1196 14.9371 34.308 15.0722 34.4574C15.2144 34.5996 15.3922 34.7134 15.6055 34.7987C15.8189 34.884 16.1104 34.9765 16.4802 35.076C16.9709 35.2111 17.3691 35.3463 17.6749 35.4814C17.9877 35.6165 18.2509 35.8263 18.4642 36.1107C18.6846 36.388 18.7949 36.7614 18.7949 37.2307C18.7949 37.6076 18.6917 37.9631 18.4855 38.2974C18.2864 38.6316 17.9913 38.9018 17.6002 39.108C17.2162 39.3071 16.7611 39.4067 16.2349 39.4067ZM24.699 37.8174H21.595L21.0617 39.332H19.7924L22.4484 31.908H23.8564L26.5124 39.332H25.2324L24.699 37.8174ZM24.3577 36.8254L23.1524 33.38L21.9364 36.8254H24.3577Z" fill="black"/>
</svg>
