<svg width="554" height="258" viewBox="0 0 554 258" fill="none" xmlns="http://www.w3.org/2000/svg">
<path d="M102.098 57.3532L153.959 57.3532C162.72 57.3532 169.822 64.4555 169.822 73.2166V73.2166C169.822 81.9778 176.925 89.0801 185.686 89.0801L216.803 89.0801" stroke="#B2B4DF" stroke-width="1.22026"/>
<g clip-path="url(#clip0_546_5112)">
<path d="M269.622 63.9517L221.892 88.5178C220.146 89.2796 218.656 90.5514 217.608 92.175C216.561 93.7986 216.002 95.7024 216 97.6494V120.561C215.944 141.412 221.864 161.82 233.024 179.247C241.627 192.651 253.022 209.834 272.002 219.647H280.559C301.678 213.039 317.443 195.421 327.088 180.362C338.248 162.935 344.168 142.527 344.111 121.676V97.6494C344.114 95.7076 343.561 93.8077 342.522 92.1846C341.483 90.5616 340.003 89.2868 338.265 88.5178L283.854 64.7147C281.429 63.6935 272.047 62.8954 269.622 63.9517Z" fill="#6B47F5"/>
<path opacity="0.1" d="M269.622 63.9517L221.892 88.5178C220.146 89.2796 218.656 90.5514 217.608 92.175C216.561 93.7986 216.002 95.7024 216 97.6494V120.561C215.944 141.412 221.864 161.82 233.024 179.247C241.627 192.651 253.022 209.834 272.002 219.647H280.559C301.678 213.039 317.443 195.421 327.088 180.362C338.248 162.935 344.168 142.527 344.111 121.676V97.6494C344.114 95.7076 343.561 93.8077 342.522 92.1846C341.483 90.5616 340.003 89.2868 338.265 88.5178L283.854 64.7147C281.429 63.6935 272.047 62.8954 269.622 63.9517Z" fill="#3F3A60"/>
<path d="M267.702 64.7147L213.326 88.5179C211.58 89.2802 210.092 90.5525 209.047 92.1762C208.001 93.7999 207.444 95.7034 207.445 97.6495V120.561C207.448 141.775 213.583 162.513 225.075 180.15C236.566 197.788 252.898 211.533 272.004 219.647C293.123 213.039 308.888 195.421 318.521 180.362C329.686 162.938 335.606 142.528 335.545 121.676V97.6495C335.546 95.7034 334.989 93.7999 333.943 92.1762C332.898 90.5525 331.41 89.2802 329.664 88.5179L275.345 64.7147C274.137 64.1839 272.837 63.9102 271.524 63.9102C270.21 63.9102 268.91 64.1839 267.702 64.7147Z" fill="url(#paint0_linear_546_5112)"/>
<path fill-rule="evenodd" clip-rule="evenodd" d="M254.491 124.318V113.907C254.614 108.747 256.698 103.84 260.299 100.235C263.9 96.6294 268.732 94.6113 273.763 94.6113C278.794 94.6113 283.626 96.6294 287.227 100.235C290.828 103.84 292.912 108.747 293.034 113.907V124.318H293.09C296.761 124.318 299.737 127.371 299.737 131.137V159.26C299.737 163.026 296.761 166.079 293.09 166.079H254.444C250.773 166.079 247.797 163.026 247.797 159.26V131.137C247.797 127.371 250.773 124.318 254.444 124.318H254.491ZM287.234 124.318V113.907C287.132 110.311 285.668 106.898 283.153 104.391C280.637 101.885 277.269 100.483 273.763 100.483C270.257 100.483 266.888 101.885 264.373 104.391C261.858 106.898 260.394 110.311 260.292 113.907V124.318H287.234Z" fill="white"/>
<path d="M277.75 146.277C278.274 145.742 278.689 145.105 278.971 144.404C279.254 143.703 279.399 142.951 279.397 142.193C279.404 141.099 279.113 140.026 278.557 139.093C278 138.16 277.201 137.405 276.249 136.914C275.297 136.422 274.23 136.213 273.168 136.31C272.107 136.408 271.093 136.807 270.241 137.464C269.388 138.121 268.732 139.01 268.346 140.029C267.96 141.048 267.859 142.157 268.054 143.232C268.25 144.307 268.734 145.305 269.453 146.112C270.171 146.92 271.096 147.506 272.121 147.803L270.897 153.367H276.331L275.187 147.803C276.137 147.525 277 146.999 277.693 146.277" fill="#3F3A60"/>
<g filter="url(#filter0_d_546_5112)">
<rect y="28.0664" width="58.5727" height="58.5727" rx="9.76211" fill="#F9FAFB" shape-rendering="crispEdges"/>
<rect x="0.610132" y="28.6765" width="57.3524" height="57.3524" rx="9.15198" stroke="url(#paint1_radial_546_5112)" stroke-width="1.22026" shape-rendering="crispEdges"/>
<path d="M38.0009 51.8996C37.7683 51.6636 37.4152 51.5921 37.1126 51.7173C36.8067 51.8426 36.6066 52.1404 36.6066 52.4707C36.6066 53.7105 36.3446 54.8429 35.8305 55.8386C35.0284 57.3924 33.7219 58.393 32.6301 59.0032C37.2834 48.3169 28.2079 42.0968 28.1103 42.0317C27.8597 41.8641 27.5376 41.8495 27.2756 41.9911C27.0104 42.1326 26.8461 42.4092 26.8461 42.7086C26.8461 46.2831 24.4658 48.3934 22.1619 50.4353C21.599 50.9332 21.0572 51.4147 20.5756 51.8963C18.1285 54.3433 17.084 56.9482 17.084 60.6074C17.084 67.3351 22.5573 72.81 29.2866 72.81C36.016 72.81 41.4893 67.3351 41.4893 60.6074C41.4893 57.3257 40.2185 54.1514 38.0009 51.8996ZM29.2866 71.1814C23.4554 71.1814 18.711 66.437 18.711 60.6058C18.711 57.3778 19.5847 55.1878 21.7275 53.0466C22.1863 52.5878 22.7053 52.129 23.2423 51.6523C25.2712 49.8544 27.7312 47.6743 28.3348 44.2998C30.5834 46.3678 34.9763 51.8606 30.2075 60.2023C30.0448 60.4854 30.0692 60.8368 30.2661 61.0971C30.4629 61.3574 30.7949 61.4729 31.1122 61.3948C31.2846 61.3509 35.3603 60.295 37.2785 56.5854C37.6169 55.9313 37.8675 55.2317 38.027 54.493C39.2082 56.2535 39.8639 58.3996 39.8639 60.6042C39.8623 66.437 35.1179 71.1814 29.2866 71.1814Z" fill="url(#paint2_linear_546_5112)"/>
</g>
<g filter="url(#filter1_d_546_5112)">
<rect x="19.5234" y="179.379" width="58.5727" height="58.5727" rx="9.76211" fill="#F9FAFB" shape-rendering="crispEdges"/>
<rect x="20.1336" y="179.989" width="57.3524" height="57.3524" rx="9.15198" stroke="url(#paint3_radial_546_5112)" stroke-width="1.22026" shape-rendering="crispEdges"/>
<path d="M43.9434 206.225C47.5326 206.225 50.4515 203.306 50.4515 199.717C50.4515 196.128 47.5326 193.209 43.9434 193.209C40.3542 193.209 37.4353 196.128 37.4353 199.717C37.4353 203.306 40.3542 206.225 43.9434 206.225ZM43.9434 194.836C46.6345 194.836 48.8245 197.026 48.8245 199.717C48.8245 202.408 46.6345 204.598 43.9434 204.598C41.2523 204.598 39.0624 202.408 39.0624 199.717C39.0624 197.026 41.2507 194.836 43.9434 194.836ZM47.1828 209.479H40.6747C34.069 209.479 31.7261 214.316 31.7261 218.459C31.7261 222.163 33.6965 224.122 37.4256 224.122H50.4318C54.161 224.122 56.1314 222.163 56.1314 218.459C56.1314 214.316 53.7885 209.479 47.1828 209.479ZM50.4318 222.495H37.4256C34.6092 222.495 33.3531 221.251 33.3531 218.459C33.3531 216.734 33.8802 211.106 40.6747 211.106H47.1828C54.1513 211.106 54.5043 217.23 54.5043 218.459C54.5043 221.251 53.2498 222.495 50.4318 222.495ZM52.6007 205.473C52.2801 205.159 52.2737 204.644 52.5877 204.323C52.9001 204.003 53.4192 203.996 53.7381 204.31C54.3987 204.958 55.2836 205.314 56.2273 205.314C58.2204 205.314 59.841 203.693 59.841 201.702C59.841 199.711 58.2204 198.09 56.2273 198.09C55.6611 198.09 55.1471 198.207 54.6964 198.44C54.2994 198.645 53.8063 198.489 53.6013 198.088C53.3946 197.688 53.5526 197.199 53.9528 196.994C54.6361 196.642 55.4024 196.465 56.2273 196.465C59.1169 196.465 61.468 198.816 61.468 201.704C61.468 204.592 59.1185 206.943 56.2273 206.943C54.8557 206.941 53.5671 206.42 52.6007 205.473ZM65.8935 216.28C65.8935 219.238 64.2519 220.868 61.2728 220.868H60.1663C59.7173 220.868 59.3528 220.504 59.3528 220.055C59.3528 219.606 59.7173 219.241 60.1663 219.241H61.2728C63.3424 219.241 64.2665 218.329 64.2665 216.28C64.2665 214.982 63.8694 210.748 58.7508 210.748H56.2924C55.8434 210.748 55.4789 210.384 55.4789 209.935C55.4789 209.486 55.8434 209.121 56.2924 209.121H58.7508C64.024 209.121 65.8935 212.977 65.8935 216.28Z" fill="url(#paint4_linear_546_5112)"/>
</g>
<g filter="url(#filter2_d_546_5112)">
<rect x="441.734" y="198.904" width="58.5727" height="58.5727" rx="9.76211" fill="#F9FAFB" shape-rendering="crispEdges"/>
<rect x="442.345" y="199.514" width="57.3524" height="57.3524" rx="9.15198" stroke="url(#paint5_radial_546_5112)" stroke-width="1.22026" shape-rendering="crispEdges"/>
<path d="M479.735 222.737C479.503 222.502 479.15 222.43 478.847 222.555C478.541 222.681 478.341 222.978 478.341 223.309C478.341 224.548 478.079 225.681 477.565 226.677C476.763 228.23 475.456 229.231 474.365 229.841C479.018 219.155 469.942 212.935 469.845 212.87C469.594 212.702 469.272 212.687 469.01 212.829C468.745 212.971 468.58 213.247 468.58 213.546C468.58 217.121 466.2 219.231 463.896 221.273C463.333 221.771 462.792 222.253 462.31 222.734C459.863 225.181 458.818 227.786 458.818 231.445C458.818 238.173 464.292 243.648 471.021 243.648C477.75 243.648 483.224 238.173 483.224 231.445C483.224 228.164 481.953 224.989 479.735 222.737ZM471.021 242.019C465.19 242.019 460.445 237.275 460.445 231.444C460.445 228.216 461.319 226.026 463.462 223.885C463.921 223.426 464.44 222.967 464.977 222.49C467.006 220.692 469.466 218.512 470.069 215.138C472.318 217.206 476.711 222.698 471.942 231.04C471.779 231.323 471.804 231.675 472 231.935C472.197 232.195 472.529 232.311 472.847 232.233C473.019 232.189 477.095 231.133 479.013 227.423C479.351 226.769 479.602 226.07 479.761 225.331C480.943 227.091 481.598 229.237 481.598 231.442C481.597 237.275 476.852 242.019 471.021 242.019Z" fill="url(#paint6_linear_546_5112)"/>
</g>
<g filter="url(#filter3_d_546_5112)">
<rect x="495.426" y="107.383" width="58.5727" height="58.5727" rx="9.76211" fill="#F9FAFB" shape-rendering="crispEdges"/>
<rect x="496.036" y="107.993" width="57.3524" height="57.3524" rx="9.15198" stroke="url(#paint7_radial_546_5112)" stroke-width="1.22026" shape-rendering="crispEdges"/>
<path d="M519.151 143.787C519.151 144.124 519.424 144.397 519.761 144.397C520.098 144.397 520.371 144.124 520.371 143.787H519.151ZM516.136 152.491L516.257 153.089L516.257 153.089L516.136 152.491ZM516.366 153.067C516.696 153 516.909 152.678 516.842 152.348C516.775 152.017 516.453 151.804 516.123 151.871L516.366 153.067ZM518.167 150.659L517.732 151.087L517.732 151.087L518.167 150.659ZM518.167 147.77L517.732 147.342L518.167 147.77ZM521.72 151.381L522.155 151.809L521.72 151.381ZM518.878 151.381L519.313 150.953L519.313 150.953L518.878 151.381ZM530.247 139.825L529.812 140.253L529.812 140.253L530.247 139.825ZM530.247 142.714L529.812 142.286L530.247 142.714ZM529.536 139.103L529.971 138.675L529.971 138.675L529.536 139.103ZM526.694 139.103L527.129 139.531L526.694 139.103ZM539.357 133.062V133.672H539.968V133.062H539.357ZM534.835 133.062V132.452H534.225V133.062H534.835ZM534.835 135.615L535.245 136.068L535.446 135.887V135.615H534.835ZM520.766 120.195H516.747V121.415H520.766V120.195ZM516.747 120.195H516.244V121.415H516.747V120.195ZM516.136 120.805V124.89H517.357V120.805H516.136ZM516.136 124.89V134.083H517.357V124.89H516.136ZM520.766 124.28H516.747V125.501H520.766V124.28ZM515.742 135.204H517.751V133.984H515.742V135.204ZM514.342 150.488V136.637H513.122V150.488H514.342ZM519.151 136.637V143.787H520.371V136.637H519.151ZM516.257 153.089L516.366 153.067L516.123 151.871L516.014 151.893L516.257 153.089ZM513.122 150.488C513.122 152.151 514.624 153.421 516.257 153.089L516.014 151.893C515.161 152.067 514.342 151.404 514.342 150.488H513.122ZM517.751 135.204C518.515 135.204 519.151 135.836 519.151 136.637H520.371C520.371 135.181 519.208 133.984 517.751 133.984V135.204ZM515.742 133.984C514.285 133.984 513.122 135.181 513.122 136.637H514.342C514.342 135.836 514.978 135.204 515.742 135.204V133.984ZM529.101 139.531L529.812 140.253L530.682 139.397L529.971 138.675L529.101 139.531ZM529.812 142.286L521.285 150.953L522.155 151.809L530.682 143.142L529.812 142.286ZM519.313 150.953L518.602 150.231L517.732 151.087L518.443 151.809L519.313 150.953ZM518.602 148.198L527.129 139.531L526.259 138.675L517.732 147.342L518.602 148.198ZM518.602 150.231C518.051 149.671 518.051 148.758 518.602 148.198L517.732 147.342C516.714 148.377 516.714 150.052 517.732 151.087L518.602 150.231ZM521.285 150.953C520.739 151.508 519.859 151.508 519.313 150.953L518.443 151.809C519.467 152.85 521.131 152.85 522.155 151.809L521.285 150.953ZM529.812 140.253C530.363 140.813 530.363 141.726 529.812 142.286L530.682 143.142C531.7 142.107 531.7 140.432 530.682 139.397L529.812 140.253ZM529.971 138.675C528.947 137.634 527.283 137.634 526.259 138.675L527.129 139.531C527.675 138.976 528.556 138.976 529.101 139.531L529.971 138.675ZM538.747 127.955V133.062H539.968V127.955H538.747ZM539.357 132.452H534.835V133.672H539.357V132.452ZM534.225 133.062V135.615H535.446V133.062H534.225ZM534.426 135.163L529.904 139.249L530.723 140.154L535.245 136.068L534.426 135.163Z" fill="url(#paint8_linear_546_5112)"/>
</g>
<g filter="url(#filter4_d_546_5112)">
<rect x="458.82" width="58.5727" height="58.5727" rx="9.76211" fill="#F9FAFB" shape-rendering="crispEdges"/>
<rect x="459.43" y="0.610132" width="57.3524" height="57.3524" rx="9.15198" stroke="url(#paint9_radial_546_5112)" stroke-width="1.22026" shape-rendering="crispEdges"/>
<path d="M475.293 29.897L469.802 21.9652H477.734L476.514 14.6437L483.835 18.3044L488.106 12.2031L491.767 18.3044L500.309 14.6437L497.868 21.9652H505.19L500.919 29.2868M474.071 44.5401H471.194C470.456 44.5401 469.887 43.8901 469.985 43.1586L470.88 36.4471C470.96 35.8409 471.478 35.3881 472.089 35.3881H474.207C476.002 35.3881 477.653 34.4022 478.504 32.8212L481.393 27.4564L485.054 28.0666L482.613 33.5578L486.274 39.0489L484.526 43.1289C484.472 43.2549 484.444 43.3906 484.444 43.5277C484.444 44.0868 483.99 44.5401 483.431 44.5401H479.563M494.208 44.5401H489.937L491.767 39.0489L488.716 33.5578L491.418 28.6942C491.634 28.3068 492.042 28.0666 492.485 28.0666H495.314C495.76 28.0666 496.171 28.3105 496.385 28.7025L499.699 34.778H501.529C504.225 34.778 506.41 36.9633 506.41 39.6591V43.3199C506.41 43.9938 505.864 44.5401 505.19 44.5401H499.089M479.563 45.1503C479.563 46.4981 478.47 47.5908 477.122 47.5908C475.774 47.5908 474.682 46.4981 474.682 45.1503C474.682 43.8024 475.774 42.7097 477.122 42.7097C478.47 42.7097 479.563 43.8024 479.563 45.1503ZM499.089 45.1503C499.089 46.4981 497.996 47.5908 496.648 47.5908C495.3 47.5908 494.208 46.4981 494.208 45.1503C494.208 43.8024 495.3 42.7097 496.648 42.7097C497.996 42.7097 499.089 43.8024 499.089 45.1503Z" stroke="url(#paint10_linear_546_5112)" stroke-width="1.22026" stroke-linecap="round" stroke-linejoin="round"/>
</g>
<path d="M92.7383 214.766L144.6 214.766C153.361 214.766 160.463 207.664 160.463 198.902V198.902C160.463 190.141 167.565 183.039 176.326 183.039L207.443 183.039" stroke="#B2B4DF" stroke-width="1.22026"/>
<path d="M352.656 120.806L416.045 120.806C424.806 120.806 431.909 127.909 431.909 136.67V136.67C431.909 145.431 439.011 152.533 447.772 152.533L486.885 152.533" stroke="#B2B4DF" stroke-width="1.22026"/>
<path d="M317.27 206.224L370.572 206.224C379.333 206.224 386.435 213.327 386.435 222.088V222.088C386.435 230.849 393.537 237.951 402.299 237.951L434.415 237.951" stroke="#B2B4DF" stroke-width="1.22026"/>
<path d="M352.656 90.3006L382.838 90.3006C398.002 90.3006 410.294 78.0081 410.294 62.8446V62.8446C410.294 47.6811 422.587 35.3887 437.75 35.3887L450.277 35.3887" stroke="#B2B4DF" stroke-width="1.22026"/>
</g>
<defs>
<filter id="filter0_d_546_5112" x="-19.5242" y="14.6435" width="97.6212" height="97.6207" filterUnits="userSpaceOnUse" color-interpolation-filters="sRGB">
<feFlood flood-opacity="0" result="BackgroundImageFix"/>
<feColorMatrix in="SourceAlpha" type="matrix" values="0 0 0 0 0 0 0 0 0 0 0 0 0 0 0 0 0 0 127 0" result="hardAlpha"/>
<feOffset dy="6.10132"/>
<feGaussianBlur stdDeviation="9.76211"/>
<feComposite in2="hardAlpha" operator="out"/>
<feColorMatrix type="matrix" values="0 0 0 0 0 0 0 0 0 0 0 0 0 0 0 0 0 0 0.15 0"/>
<feBlend mode="normal" in2="BackgroundImageFix" result="effect1_dropShadow_546_5112"/>
<feBlend mode="normal" in="SourceGraphic" in2="effect1_dropShadow_546_5112" result="shape"/>
</filter>
<filter id="filter1_d_546_5112" x="-0.00079155" y="165.956" width="97.6212" height="97.6207" filterUnits="userSpaceOnUse" color-interpolation-filters="sRGB">
<feFlood flood-opacity="0" result="BackgroundImageFix"/>
<feColorMatrix in="SourceAlpha" type="matrix" values="0 0 0 0 0 0 0 0 0 0 0 0 0 0 0 0 0 0 127 0" result="hardAlpha"/>
<feOffset dy="6.10132"/>
<feGaussianBlur stdDeviation="9.76211"/>
<feComposite in2="hardAlpha" operator="out"/>
<feColorMatrix type="matrix" values="0 0 0 0 0 0 0 0 0 0 0 0 0 0 0 0 0 0 0.15 0"/>
<feBlend mode="normal" in2="BackgroundImageFix" result="effect1_dropShadow_546_5112"/>
<feBlend mode="normal" in="SourceGraphic" in2="effect1_dropShadow_546_5112" result="shape"/>
</filter>
<filter id="filter2_d_546_5112" x="422.21" y="185.481" width="97.6212" height="97.6207" filterUnits="userSpaceOnUse" color-interpolation-filters="sRGB">
<feFlood flood-opacity="0" result="BackgroundImageFix"/>
<feColorMatrix in="SourceAlpha" type="matrix" values="0 0 0 0 0 0 0 0 0 0 0 0 0 0 0 0 0 0 127 0" result="hardAlpha"/>
<feOffset dy="6.10132"/>
<feGaussianBlur stdDeviation="9.76211"/>
<feComposite in2="hardAlpha" operator="out"/>
<feColorMatrix type="matrix" values="0 0 0 0 0 0 0 0 0 0 0 0 0 0 0 0 0 0 0.15 0"/>
<feBlend mode="normal" in2="BackgroundImageFix" result="effect1_dropShadow_546_5112"/>
<feBlend mode="normal" in="SourceGraphic" in2="effect1_dropShadow_546_5112" result="shape"/>
</filter>
<filter id="filter3_d_546_5112" x="475.902" y="93.9599" width="97.6212" height="97.6207" filterUnits="userSpaceOnUse" color-interpolation-filters="sRGB">
<feFlood flood-opacity="0" result="BackgroundImageFix"/>
<feColorMatrix in="SourceAlpha" type="matrix" values="0 0 0 0 0 0 0 0 0 0 0 0 0 0 0 0 0 0 127 0" result="hardAlpha"/>
<feOffset dy="6.10132"/>
<feGaussianBlur stdDeviation="9.76211"/>
<feComposite in2="hardAlpha" operator="out"/>
<feColorMatrix type="matrix" values="0 0 0 0 0 0 0 0 0 0 0 0 0 0 0 0 0 0 0.15 0"/>
<feBlend mode="normal" in2="BackgroundImageFix" result="effect1_dropShadow_546_5112"/>
<feBlend mode="normal" in="SourceGraphic" in2="effect1_dropShadow_546_5112" result="shape"/>
</filter>
<filter id="filter4_d_546_5112" x="439.296" y="-13.4229" width="97.6212" height="97.6207" filterUnits="userSpaceOnUse" color-interpolation-filters="sRGB">
<feFlood flood-opacity="0" result="BackgroundImageFix"/>
<feColorMatrix in="SourceAlpha" type="matrix" values="0 0 0 0 0 0 0 0 0 0 0 0 0 0 0 0 0 0 127 0" result="hardAlpha"/>
<feOffset dy="6.10132"/>
<feGaussianBlur stdDeviation="9.76211"/>
<feComposite in2="hardAlpha" operator="out"/>
<feColorMatrix type="matrix" values="0 0 0 0 0 0 0 0 0 0 0 0 0 0 0 0 0 0 0.15 0"/>
<feBlend mode="normal" in2="BackgroundImageFix" result="effect1_dropShadow_546_5112"/>
<feBlend mode="normal" in="SourceGraphic" in2="effect1_dropShadow_546_5112" result="shape"/>
</filter>
<linearGradient id="paint0_linear_546_5112" x1="335.545" y1="63.9102" x2="173.075" y2="163.671" gradientUnits="userSpaceOnUse">
<stop stop-color="#BDACFF"/>
<stop offset="1" stop-color="#6B47F5"/>
</linearGradient>
<radialGradient id="paint1_radial_546_5112" cx="0" cy="0" r="1" gradientUnits="userSpaceOnUse" gradientTransform="translate(20.4919 88.0048) rotate(-74.7466) scale(66.5309 71.4561)">
<stop stop-color="white" stop-opacity="0"/>
<stop offset="1" stop-color="white"/>
</radialGradient>
<linearGradient id="paint2_linear_546_5112" x1="41.4893" y1="41.8945" x2="9.85223" y2="60.5382" gradientUnits="userSpaceOnUse">
<stop stop-color="#BDACFF"/>
<stop offset="1" stop-color="#6B47F5"/>
</linearGradient>
<radialGradient id="paint3_radial_546_5112" cx="0" cy="0" r="1" gradientUnits="userSpaceOnUse" gradientTransform="translate(40.0153 239.317) rotate(-74.7466) scale(66.5309 71.4561)">
<stop stop-color="white" stop-opacity="0"/>
<stop offset="1" stop-color="white"/>
</radialGradient>
<linearGradient id="paint4_linear_546_5112" x1="65.8935" y1="193.209" x2="30.3895" y2="222.502" gradientUnits="userSpaceOnUse">
<stop stop-color="#BDACFF"/>
<stop offset="1" stop-color="#6B47F5"/>
</linearGradient>
<radialGradient id="paint5_radial_546_5112" cx="0" cy="0" r="1" gradientUnits="userSpaceOnUse" gradientTransform="translate(462.226 258.843) rotate(-74.7466) scale(66.5309 71.4561)">
<stop stop-color="white" stop-opacity="0"/>
<stop offset="1" stop-color="white"/>
</radialGradient>
<linearGradient id="paint6_linear_546_5112" x1="483.224" y1="212.732" x2="451.587" y2="231.376" gradientUnits="userSpaceOnUse">
<stop stop-color="#BDACFF"/>
<stop offset="1" stop-color="#6B47F5"/>
</linearGradient>
<radialGradient id="paint7_radial_546_5112" cx="0" cy="0" r="1" gradientUnits="userSpaceOnUse" gradientTransform="translate(515.918 167.321) rotate(-74.7466) scale(66.5309 71.4561)">
<stop stop-color="white" stop-opacity="0"/>
<stop offset="1" stop-color="white"/>
</radialGradient>
<linearGradient id="paint8_linear_546_5112" x1="539.357" y1="120.805" x2="506.535" y2="140.595" gradientUnits="userSpaceOnUse">
<stop stop-color="#BDACFF"/>
<stop offset="1" stop-color="#6B47F5"/>
</linearGradient>
<radialGradient id="paint9_radial_546_5112" cx="0" cy="0" r="1" gradientUnits="userSpaceOnUse" gradientTransform="translate(479.312 59.9384) rotate(-74.7466) scale(66.5309 71.4561)">
<stop stop-color="white" stop-opacity="0"/>
<stop offset="1" stop-color="white"/>
</radialGradient>
<linearGradient id="paint10_linear_546_5112" x1="506.41" y1="12.2031" x2="466.359" y2="43.1321" gradientUnits="userSpaceOnUse">
<stop stop-color="#BDACFF"/>
<stop offset="1" stop-color="#6B47F5"/>
</linearGradient>
<clipPath id="clip0_546_5112">
<rect width="553.998" height="257.477" fill="white"/>
</clipPath>
</defs>
</svg>
