<svg width="220" height="96" viewBox="0 0 220 96" fill="none" xmlns="http://www.w3.org/2000/svg">
<path d="M58.9134 76.3159H37.8048C34.1638 76.3159 30.5691 75.2791 27.5984 73.185C16.8553 65.6048 23.7084 52.2314 23.7084 52.2314L37.8433 20.3594H61.0368L45.5668 54.9987C45.4178 55.3008 45.2792 55.6131 45.1508 55.928C44.4473 57.6509 44.0596 59.5299 44.0596 61.5037C44.0596 69.6855 50.7098 76.3184 58.9134 76.3184V76.3159Z" fill="#6B47F5"/>
<path d="M72.8768 40.9704C78.7718 40.9704 83.5505 36.2058 83.5505 30.3284C83.5505 24.4511 78.7718 19.6865 72.8768 19.6865C66.9819 19.6865 62.2031 24.4511 62.2031 30.3284C62.2031 36.2058 66.9819 40.9704 72.8768 40.9704Z" fill="#B2B4DF"/>
<path d="M78.4556 44.0618L68.7653 65.5914C68.7653 65.5914 68.7653 65.5991 68.7602 65.6042C67.1502 69.4468 63.3424 72.1476 58.9081 72.1476C53.0153 72.1476 48.2344 67.3808 48.2344 61.5031C48.2344 59.6906 48.7043 58.2212 49.49 56.488L58.9055 35.4551C61.0315 41.0461 66.5186 45.1421 72.8735 45.1421C74.8121 45.1421 76.7558 44.7402 78.453 44.0644L78.4556 44.0618Z" fill="#6B47F5"/>
<path d="M107.096 44.8061C105.73 44.8061 104.472 44.4707 103.319 43.8C102.164 43.1293 101.252 42.2205 100.579 41.0685C99.9067 39.919 99.5703 38.6621 99.5703 37.3027C99.5703 35.9433 99.9067 34.6864 100.579 33.5369C101.252 32.3875 102.164 31.4761 103.319 30.8054C104.472 30.1347 105.733 29.7993 107.096 29.7993H114.622V37.3027C114.622 38.6646 114.285 39.919 113.613 41.0685C112.94 42.2205 112.029 43.1293 110.873 43.8C109.718 44.4707 108.46 44.8061 107.096 44.8061ZM105.109 28.5091C104.485 28.5091 103.946 28.2838 103.483 27.8333C103.021 27.3827 102.79 26.8374 102.79 26.1974C102.79 25.5574 103.021 24.9865 103.483 24.5462C103.946 24.1059 104.487 23.8857 105.109 23.8857C105.73 23.8857 106.303 24.111 106.765 24.5616C107.227 25.0121 107.458 25.5574 107.458 26.1974C107.458 26.8374 107.227 27.3827 106.765 27.8333C106.303 28.2838 105.751 28.5091 105.109 28.5091ZM107.096 40.4848C107.676 40.4848 108.213 40.3414 108.706 40.0496C109.196 39.7603 109.579 39.3737 109.849 38.895C110.118 38.4163 110.254 37.8838 110.254 37.3053V34.1232H107.094C106.531 34.1232 106.005 34.2691 105.512 34.5584C105.019 34.8477 104.634 35.2342 104.354 35.7129C104.071 36.1942 103.933 36.7241 103.933 37.3027C103.933 37.8813 104.074 38.4137 104.354 38.8925C104.634 39.3737 105.021 39.7577 105.512 40.047C106.002 40.3363 106.531 40.4822 107.094 40.4822L107.096 40.4848ZM110.978 28.5091C110.336 28.5091 109.79 28.2838 109.338 27.8333C108.886 27.3827 108.66 26.8374 108.66 26.1974C108.66 25.5574 108.886 24.9865 109.338 24.5462C109.79 24.1059 110.336 23.8857 110.978 23.8857C111.62 23.8857 112.172 24.111 112.635 24.5616C113.097 25.0121 113.328 25.5574 113.328 26.1974C113.328 26.8374 113.097 27.3827 112.635 27.8333C112.172 28.2838 111.62 28.5091 110.978 28.5091Z" fill="#3F3A60"/>
<path d="M116.82 44.8059V40.4846H125.581V37.6046C125.581 36.9237 125.445 36.3195 125.175 35.7896C124.903 35.2597 124.528 34.8501 124.046 34.5582C123.563 34.269 123.021 34.123 122.42 34.123C121.979 34.123 121.578 34.1819 121.216 34.3022C120.854 34.4226 120.484 34.5838 120.102 34.7835C120.081 34.7835 120.071 34.7886 120.071 34.7989C120.071 34.8091 120.061 34.8142 120.04 34.8142L118.325 31.0024C119.568 30.2037 120.934 29.8018 122.418 29.8018C123.802 29.8018 125.073 30.1422 126.226 30.8232C127.378 31.5042 128.287 32.4386 128.95 33.629C129.612 34.8194 129.944 36.1454 129.944 37.6046V40.4846H132.141V44.8059H116.82Z" fill="#3F3A60"/>
<path d="M131.542 44.8059V40.4846H145.689V39.2533C145.689 38.173 145.463 37.2539 145.012 36.4936C144.56 35.7333 143.928 35.147 143.114 34.7374C142.3 34.3278 141.342 34.123 140.238 34.123H133.737V29.8018H140.48C142.246 29.8018 143.851 30.1909 145.297 30.9717C146.742 31.7525 147.89 32.8482 148.742 34.2587C149.595 35.6693 150.021 37.2642 150.021 39.0459V40.4872H152.188L152.219 44.8085H131.539L131.542 44.8059Z" fill="#3F3A60"/>
<path d="M151.617 44.8061V40.4848H154.056C154.639 40.4848 155.081 40.2953 155.381 39.9139C155.682 39.535 155.833 39.0128 155.833 38.3523V29.7993H160.167V38.3523C160.167 39.0128 160.322 39.5325 160.635 39.9139C160.945 40.2953 161.382 40.4848 161.944 40.4848H164.412V44.8061H161.944C160.278 44.8061 158.963 44.2147 158 43.0345C157.055 44.2147 155.743 44.8061 154.056 44.8061H151.617ZM155.199 28.5091C154.557 28.5091 154.01 28.2838 153.558 27.8333C153.106 27.3827 152.88 26.8374 152.88 26.1974C152.88 25.5574 153.106 24.9865 153.558 24.5462C154.01 24.1059 154.557 23.8857 155.199 23.8857C155.841 23.8857 156.393 24.111 156.855 24.5616C157.317 25.0121 157.548 25.5574 157.548 26.1974C157.548 26.8374 157.317 27.3827 156.855 27.8333C156.393 28.2838 155.841 28.5091 155.199 28.5091ZM160.858 28.5091C160.216 28.5091 159.664 28.2838 159.202 27.8333C158.74 27.3827 158.509 26.8374 158.509 26.1974C158.509 25.5574 158.74 24.9865 159.202 24.5462C159.664 24.1059 160.216 23.8857 160.858 23.8857C161.5 23.8857 162.047 24.1059 162.499 24.5462C162.951 24.9865 163.177 25.5369 163.177 26.1974C163.177 26.8579 162.951 27.3827 162.499 27.8333C162.047 28.2838 161.5 28.5091 160.858 28.5091Z" fill="#3F3A60"/>
<path d="M163.805 44.8055V40.4843H166.996C166.575 40.1054 166.239 39.6395 165.987 39.0891C165.736 38.5387 165.61 37.955 165.61 37.3329C165.61 35.9735 165.946 34.7166 166.619 33.5671C167.292 32.4177 168.203 31.5012 169.359 30.8203C170.511 30.1393 171.772 29.7988 173.136 29.7988C174.499 29.7988 175.76 30.1393 176.913 30.8203C178.065 31.5012 178.979 32.4151 179.652 33.5671C180.325 34.7191 180.661 35.9735 180.661 37.3329V38.8638C180.661 39.3451 180.803 39.7342 181.082 40.0337C181.362 40.3332 181.724 40.4843 182.166 40.4843H183.008V44.8055H182.166C181.244 44.8055 180.461 44.611 179.819 44.2193C179.177 43.8302 178.684 43.2747 178.343 42.5527C177.68 43.2542 176.902 43.802 176.011 44.2039C175.118 44.6033 174.16 44.8055 173.136 44.8055H163.805ZM173.136 40.4843C173.718 40.4843 174.25 40.3409 174.73 40.0491C175.213 39.7598 175.593 39.3732 175.875 38.8945C176.155 38.4132 176.296 37.8833 176.296 37.3047C176.296 36.7262 176.155 36.1937 175.875 35.715C175.593 35.2337 175.213 34.8497 174.73 34.5604C174.247 34.2711 173.716 34.1252 173.136 34.1252C172.555 34.1252 172.047 34.2711 171.554 34.5604C171.061 34.8497 170.676 35.2363 170.396 35.715C170.113 36.1963 169.975 36.7262 169.975 37.3047C169.975 37.8833 170.116 38.4158 170.396 38.8945C170.676 39.3758 171.063 39.7598 171.554 40.0491C172.047 40.3383 172.573 40.4843 173.136 40.4843Z" fill="#3F3A60"/>
<path d="M182.406 44.8057V40.4845H183.279C183.842 40.4845 184.268 40.295 184.558 39.9136C184.848 39.5347 184.994 39.0125 184.994 38.352V21.3945H189.359V38.352C189.359 39.5936 189.103 40.7046 188.592 41.6825C188.081 42.663 187.362 43.4285 186.44 43.9789C185.516 44.5293 184.463 44.8032 183.279 44.8032H182.406V44.8057Z" fill="#3F3A60"/>
<path d="M194.125 44.8051V21.3965H198.459V44.8051H194.125Z" fill="#3F3A60"/>
<path d="M100.508 53.3066H105.653V65.9044C105.653 68.3953 106.886 69.834 109.323 69.834C111.759 69.834 113.053 68.3953 113.053 65.9044V53.3066H118.199V65.8762C118.199 71.6951 114.106 74.5751 109.233 74.5751C104.359 74.5751 100.508 71.6951 100.508 65.8762V53.3066Z" fill="#3F3A60"/>
<path d="M133.39 65.2738C133.39 62.9954 132.127 61.7333 130.17 61.7333C128.214 61.7333 126.95 62.9928 126.95 65.2738V74.3618H121.805V57.6245H126.95V59.844C127.972 58.4335 129.777 57.4453 132.034 57.4453C135.916 57.4453 138.502 60.0847 138.502 64.5852V74.3644H133.387V65.2764L133.39 65.2738Z" fill="#3F3A60"/>
<path d="M141.609 57.7914C141.609 56.2323 142.842 55.001 144.678 55.001C146.514 55.001 147.715 56.2298 147.715 57.7914C147.715 59.353 146.483 60.5511 144.678 60.5511C142.873 60.5511 141.609 59.3223 141.609 57.7914ZM142.092 61.8567H147.238V74.3648H142.092V61.8567Z" fill="#3F3A60"/>
<path d="M151.773 61.8864H149.727V57.6265H151.773V53.5459H156.919V57.6265H160.287V61.8864H156.919V68.6064C156.919 69.5971 157.34 70.0169 158.482 70.0169H160.318V74.3664H157.702C154.212 74.3664 151.776 72.8969 151.776 68.5475V61.8889L151.773 61.8864Z" fill="#3F3A60"/>
<path d="M170.624 74.6033C165.689 74.6033 162.141 71.3035 162.141 65.994C162.141 60.6846 165.63 57.3848 170.624 57.3848C175.618 57.3848 178.987 60.6257 178.987 65.7227C178.987 66.2014 178.956 66.7134 178.897 67.2228H167.253C167.433 69.4116 168.788 70.4331 170.442 70.4331C171.885 70.4331 172.699 69.7137 173.12 68.8126H178.594C177.783 72.0817 174.804 74.6008 170.622 74.6008L170.624 74.6033ZM167.284 64.3736H173.721C173.721 62.5432 172.278 61.4936 170.563 61.4936C168.847 61.4936 167.584 62.5124 167.284 64.3736Z" fill="#3F3A60"/>
<path d="M188.08 57.3849C190.306 57.3849 192.232 58.4038 193.253 59.9346V52.165H198.399V74.3628H193.253V71.9641C192.321 73.495 190.545 74.6034 188.08 74.6034C183.959 74.6034 180.68 71.2447 180.68 65.9634C180.68 60.6822 183.959 57.3849 188.08 57.3849ZM189.584 61.8546C187.659 61.8546 185.913 63.2934 185.913 65.9634C185.913 68.6335 187.659 70.1337 189.584 70.1337C191.51 70.1337 193.256 68.6642 193.256 65.9942C193.256 63.3241 191.541 61.8546 189.584 61.8546Z" fill="#3F3A60"/>
</svg>
