<svg width="1440" height="1418" viewBox="0 0 1440 1418" fill="none" xmlns="http://www.w3.org/2000/svg">
<g opacity="0.4">
<path d="M1501.31 640.006L1501.85 639.767L1300.34 187.918L1300.09 188.588C1288.84 218.28 1273.14 246.205 1253.41 271.588C1233.85 296.759 1210.78 318.879 1184.82 337.337C1158.46 356.079 1129.69 370.64 1099.3 380.612C1067.8 390.953 1035.01 396.197 1001.86 396.197C961.75 396.197 920.556 388.204 882.735 373.079L882.517 373.628C920.409 388.78 961.679 396.788 1001.86 396.788C1035.08 396.788 1067.92 391.535 1099.49 381.173C1129.93 371.18 1158.75 356.596 1185.16 337.819C1211.17 319.328 1234.28 297.166 1253.88 271.951C1273.49 246.713 1289.13 218.962 1300.38 189.465L1501.31 640.006Z" fill="url(#paint0_linear_456_9636)"/>
<path d="M1501.31 683.793L1501.85 683.554L1300.34 231.705L1300.09 232.375C1288.84 262.067 1273.14 289.992 1253.41 315.375C1233.85 340.546 1210.78 362.666 1184.82 381.124C1158.46 399.866 1129.69 414.427 1099.3 424.399C1067.8 434.74 1035.01 439.984 1001.86 439.984C961.75 439.984 920.556 431.991 882.735 416.866L882.517 417.415C920.409 432.567 961.679 440.575 1001.86 440.575C1035.08 440.575 1067.92 435.322 1099.49 424.96C1129.93 414.967 1158.75 400.38 1185.16 381.606C1211.17 363.115 1234.28 340.953 1253.88 315.738C1273.49 290.5 1289.13 262.749 1300.38 233.252L1501.31 683.793Z" fill="url(#paint1_linear_456_9636)"/>
<path d="M1501.31 727.582L1501.85 727.338L1300.34 273.127L1300.09 273.801C1288.84 303.647 1273.14 331.719 1253.41 357.235C1233.85 382.537 1210.78 404.773 1184.82 423.328C1158.46 442.168 1129.69 456.804 1099.3 466.829C1067.8 477.224 1035.01 482.495 1001.86 482.495C961.75 482.495 920.556 474.46 882.735 459.256L882.517 459.808C920.409 475.039 961.679 483.089 1001.86 483.089C1035.08 483.089 1067.92 477.808 1099.49 467.393C1129.93 457.348 1158.75 442.684 1185.16 423.811C1211.17 405.224 1234.28 382.946 1253.88 357.6C1273.49 332.229 1289.13 304.333 1300.38 274.682L1501.31 727.579V727.582Z" fill="url(#paint2_linear_456_9636)"/>
<path d="M1501.31 769.006L1501.85 768.764L1300.34 316.918L1300.09 317.588C1288.84 347.279 1273.14 375.205 1253.41 400.588C1233.85 425.758 1210.78 447.878 1184.82 466.336C1158.46 485.078 1129.69 499.639 1099.3 509.611C1067.8 519.952 1035.01 525.196 1001.86 525.196C961.75 525.196 920.556 517.203 882.735 502.078L882.517 502.627C920.409 517.778 961.679 525.786 1001.86 525.786C1035.08 525.786 1067.92 520.533 1099.49 510.172C1129.93 500.179 1158.75 485.592 1185.16 466.818C1211.17 448.327 1234.28 426.165 1253.88 400.951C1273.49 375.713 1289.13 347.962 1300.38 318.465L1501.31 769.003V769.006Z" fill="url(#paint3_linear_456_9636)"/>
<path d="M1501.31 812.795L1501.85 812.553L1300.34 360.707L1300.09 361.377C1288.84 391.068 1273.14 418.994 1253.41 444.377C1233.85 469.547 1210.78 491.667 1184.82 510.125C1158.46 528.867 1129.69 543.428 1099.3 553.4C1067.8 563.741 1035.01 568.985 1001.86 568.985C961.75 568.985 920.556 560.992 882.735 545.867L882.517 546.416C920.409 561.567 961.679 569.576 1001.86 569.576C1035.08 569.576 1067.92 564.322 1099.49 553.961C1129.93 543.968 1158.75 529.381 1185.16 510.607C1211.17 492.116 1234.28 469.954 1253.88 444.74C1273.49 419.502 1289.13 391.751 1300.38 362.254L1501.31 812.792V812.795Z" fill="url(#paint4_linear_456_9636)"/>
<path d="M1501.31 856.582L1501.85 856.339L1300.34 403.311L1300.09 403.983C1288.84 433.751 1273.14 461.75 1253.41 487.199C1233.85 512.435 1210.78 534.613 1184.82 553.12C1158.46 571.911 1129.69 586.507 1099.3 596.508C1067.8 606.876 1035.01 612.134 1001.86 612.134C961.75 612.134 920.556 604.119 882.735 588.955L882.517 589.506C920.409 604.697 961.679 612.726 1001.86 612.726C1035.08 612.726 1067.92 607.459 1099.49 597.07C1129.93 587.052 1158.75 572.426 1185.16 553.603C1211.17 535.063 1234.28 512.844 1253.88 487.563C1273.49 462.259 1289.13 434.435 1300.38 404.862L1501.31 856.579V856.582Z" fill="url(#paint5_linear_456_9636)"/>
<path d="M1501.31 899.185L1501.85 898.943L1300.34 445.914L1300.09 446.586C1288.84 476.355 1273.14 504.353 1253.41 529.803C1233.85 555.039 1210.78 577.217 1184.82 595.724C1158.46 614.515 1129.69 629.11 1099.3 639.111C1067.8 649.479 1035.01 654.737 1001.86 654.737C961.75 654.737 920.556 646.723 882.735 631.559L882.517 632.109C920.409 647.3 961.679 655.329 1001.86 655.329C1035.08 655.329 1067.92 650.063 1099.49 639.674C1129.93 629.655 1158.75 615.03 1185.16 596.206C1211.17 577.667 1234.28 555.447 1253.88 530.167C1273.49 504.863 1289.13 477.039 1300.38 447.465L1501.31 899.182V899.185Z" fill="url(#paint6_linear_456_9636)"/>
<path d="M1501.31 941.791L1501.85 941.549L1300.34 489.703L1300.09 490.373C1288.84 520.065 1273.14 547.99 1253.41 573.373C1233.85 598.543 1210.78 620.663 1184.82 639.121C1158.46 657.863 1129.69 672.424 1099.3 682.396C1067.8 692.737 1035.01 697.981 1001.86 697.981C961.75 697.981 920.556 689.988 882.735 674.863L882.517 675.412C920.409 690.563 961.679 698.572 1001.86 698.572C1035.08 698.572 1067.92 693.319 1099.49 682.957C1129.93 672.964 1158.75 658.377 1185.16 639.603C1211.17 621.112 1234.28 598.951 1253.88 573.736C1273.49 548.498 1289.13 520.747 1300.38 491.25L1501.31 941.788V941.791Z" fill="url(#paint7_linear_456_9636)"/>
<path d="M1501.31 985.58L1501.85 985.34L1300.34 532.309L1300.09 532.981C1288.84 562.75 1273.14 590.748 1253.41 616.198C1233.85 641.434 1210.78 663.612 1184.82 682.119C1158.46 700.91 1129.69 715.506 1099.3 725.507C1067.8 735.875 1035.01 741.133 1001.86 741.133C961.75 741.133 920.556 733.119 882.735 717.954L882.517 718.505C920.409 733.696 961.679 741.725 1001.86 741.725C1035.08 741.725 1067.92 736.458 1099.49 726.069C1129.93 716.051 1158.75 701.425 1185.16 682.602C1211.17 664.062 1234.28 641.843 1253.88 616.562C1273.49 591.258 1289.13 563.434 1300.38 533.86L1501.31 985.58Z" fill="url(#paint8_linear_456_9636)"/>
<path d="M1501.31 1029.37L1501.85 1029.13L1300.34 576.098L1300.09 576.77C1288.84 606.539 1273.14 634.537 1253.41 659.986C1233.85 685.223 1210.78 707.4 1184.82 725.907C1158.46 744.698 1129.69 759.297 1099.3 769.295C1067.8 779.663 1035.01 784.921 1001.86 784.921C961.75 784.921 920.556 776.906 882.735 761.742L882.517 762.293C920.409 777.484 961.679 785.513 1001.86 785.513C1035.08 785.513 1067.92 780.246 1099.49 769.857C1129.93 759.839 1158.75 745.213 1185.16 726.39C1211.17 707.85 1234.28 685.631 1253.88 660.35C1273.49 635.046 1289.13 607.222 1300.38 577.649L1501.31 1029.37V1029.37Z" fill="url(#paint9_linear_456_9636)"/>
<path d="M1501.31 1071.97L1501.85 1071.73L1300.34 619.887L1300.09 620.557C1288.84 650.248 1273.14 678.173 1253.41 703.556C1233.85 728.727 1210.78 750.847 1184.82 769.305C1158.46 788.047 1129.69 802.608 1099.3 812.579C1067.8 822.92 1035.01 828.165 1001.86 828.165C961.75 828.165 920.556 820.171 882.735 805.047L882.517 805.596C920.409 820.747 961.679 828.755 1001.86 828.755C1035.08 828.755 1067.92 823.502 1099.49 813.14C1129.93 803.148 1158.75 788.561 1185.16 769.786C1211.17 751.295 1234.28 729.134 1253.88 703.92C1273.49 678.681 1289.13 650.93 1300.38 621.434L1501.31 1071.97V1071.97Z" fill="url(#paint10_linear_456_9636)"/>
<path d="M1501.31 1115.76L1501.85 1115.52L1300.34 662.492L1300.09 663.164C1288.84 692.933 1273.14 720.931 1253.41 746.381C1233.85 771.617 1210.78 793.795 1184.82 812.302C1158.46 831.093 1129.69 845.688 1099.3 855.689C1067.8 866.057 1035.01 871.315 1001.86 871.315C961.75 871.315 920.556 863.301 882.735 848.14L882.517 848.69C920.409 863.881 961.679 871.91 1001.86 871.91C1035.08 871.91 1067.92 866.644 1099.49 856.255C1129.93 846.236 1158.75 831.611 1185.16 812.787C1211.17 794.248 1234.28 772.029 1253.88 746.748C1273.49 721.444 1289.13 693.62 1300.38 664.047L1501.31 1115.76Z" fill="url(#paint11_linear_456_9636)"/>
<path d="M1501.31 1158.37L1501.85 1158.13L1300.34 705.098L1300.09 705.77C1288.84 735.539 1273.14 763.537 1253.41 788.986C1233.85 814.223 1210.78 836.4 1184.82 854.907C1158.46 873.698 1129.69 888.297 1099.3 898.295C1067.8 908.663 1035.01 913.921 1001.86 913.921C961.75 913.921 920.556 905.907 882.735 890.742L882.517 891.293C920.409 906.484 961.679 914.513 1001.86 914.513C1035.08 914.513 1067.92 909.246 1099.49 898.857C1129.93 888.839 1158.75 874.213 1185.16 855.39C1211.17 836.85 1234.28 814.631 1253.88 789.351C1273.49 764.046 1289.13 736.222 1300.38 706.649L1501.31 1158.37V1158.37Z" fill="url(#paint12_linear_456_9636)"/>
<path d="M1501.31 1200.97L1501.85 1200.73L1300.34 748.885L1300.09 749.555C1288.84 779.246 1273.14 807.172 1253.41 832.554C1233.85 857.725 1210.78 879.845 1184.82 898.303C1158.46 917.045 1129.69 931.603 1099.3 941.577C1067.8 951.918 1035.01 957.163 1001.86 957.163C961.75 957.163 920.556 949.169 882.735 934.045L882.517 934.594C920.409 949.745 961.679 957.753 1001.86 957.753C1035.08 957.753 1067.92 952.5 1099.49 942.139C1129.93 932.146 1158.75 917.559 1185.16 898.784C1211.17 880.294 1234.28 858.132 1253.88 832.918C1273.49 807.679 1289.13 779.928 1300.38 750.432L1501.31 1200.97V1200.97Z" fill="url(#paint13_linear_456_9636)"/>
<path d="M1501.31 1244.76L1501.85 1244.52L1300.34 792.672L1300.09 793.342C1288.84 823.033 1273.14 850.959 1253.41 876.341C1233.85 901.512 1210.78 923.632 1184.82 942.09C1158.46 960.832 1129.69 975.393 1099.3 985.365C1067.8 995.705 1035.01 1000.95 1001.86 1000.95C961.75 1000.95 920.556 992.956 882.735 977.832L882.517 978.381C920.409 993.532 961.679 1001.54 1001.86 1001.54C1035.08 1001.54 1067.92 996.287 1099.49 985.926C1129.93 975.933 1158.75 961.346 1185.16 942.572C1211.17 924.081 1234.28 901.919 1253.88 876.705C1273.49 851.466 1289.13 823.715 1300.38 794.219L1501.31 1244.76V1244.76Z" fill="url(#paint14_linear_456_9636)"/>
<path d="M1501.31 1288.55L1501.85 1288.31L1300.34 834.094L1300.09 834.768C1288.84 864.614 1273.14 892.686 1253.41 918.202C1233.85 943.504 1210.78 965.739 1184.82 984.294C1158.46 1003.13 1129.69 1017.77 1099.3 1027.8C1067.8 1038.19 1035.01 1043.46 1001.86 1043.46C961.75 1043.46 920.556 1035.43 882.735 1020.22L882.517 1020.78C920.409 1036.01 961.679 1044.06 1001.86 1044.06C1035.08 1044.06 1067.92 1038.78 1099.49 1028.36C1129.93 1018.31 1158.75 1003.65 1185.16 984.778C1211.17 966.191 1234.28 943.913 1253.88 918.567C1273.49 893.196 1289.13 865.3 1300.38 835.649L1501.31 1288.55V1288.55Z" fill="url(#paint15_linear_456_9636)"/>
<path d="M1501.31 1329.97L1501.85 1329.73L1300.34 877.883L1300.09 878.553C1288.84 908.244 1273.14 936.17 1253.41 961.553C1233.85 986.724 1210.78 1008.84 1184.82 1027.3C1158.46 1046.04 1129.69 1060.6 1099.3 1070.58C1067.8 1080.92 1035.01 1086.16 1001.86 1086.16C961.75 1086.16 920.556 1078.17 882.735 1063.04L882.517 1063.59C920.409 1078.74 961.679 1086.75 1001.86 1086.75C1035.08 1086.75 1067.92 1081.5 1099.49 1071.14C1129.93 1061.15 1158.75 1046.56 1185.16 1027.78C1211.17 1009.29 1234.28 987.131 1253.88 961.916C1273.49 936.678 1289.13 908.927 1300.38 879.43L1501.31 1329.97Z" fill="url(#paint16_linear_456_9636)"/>
<path d="M1501.31 1373.76L1501.85 1373.52L1300.34 921.672L1300.09 922.342C1288.84 952.034 1273.14 979.959 1253.41 1005.34C1233.85 1030.51 1210.78 1052.63 1184.82 1071.09C1158.46 1089.83 1129.69 1104.39 1099.3 1114.37C1067.8 1124.71 1035.01 1129.95 1001.86 1129.95C961.75 1129.95 920.556 1121.96 882.735 1106.83L882.517 1107.38C920.409 1122.53 961.679 1130.54 1001.86 1130.54C1035.08 1130.54 1067.92 1125.29 1099.49 1114.93C1129.93 1104.93 1158.75 1090.35 1185.16 1071.57C1211.17 1053.08 1234.28 1030.92 1253.88 1005.71C1273.49 980.467 1289.13 952.716 1300.38 923.219L1501.31 1373.76Z" fill="url(#paint17_linear_456_9636)"/>
<path d="M1501.31 1417.55L1501.85 1417.31L1300.34 964.277L1300.09 964.949C1288.84 994.718 1273.14 1022.72 1253.41 1048.17C1233.85 1073.4 1210.78 1095.58 1184.82 1114.09C1158.46 1132.88 1129.69 1147.48 1099.3 1157.48C1067.8 1167.84 1035.01 1173.1 1001.86 1173.1C961.75 1173.1 920.556 1165.09 882.735 1149.92L882.517 1150.47C920.409 1165.66 961.679 1173.69 1001.86 1173.69C1035.08 1173.69 1067.92 1168.43 1099.49 1158.04C1129.93 1148.02 1158.75 1133.39 1185.16 1114.57C1211.17 1096.03 1234.28 1073.81 1253.88 1048.53C1273.49 1023.23 1289.13 995.402 1300.38 965.829L1501.31 1417.55Z" fill="url(#paint18_linear_456_9636)"/>
</g>
<g opacity="0.4">
<path d="M-61.3116 640.006L-61.8516 639.767L139.661 187.918L139.915 188.588C151.162 218.28 166.864 246.205 186.588 271.588C206.146 296.759 229.224 318.879 255.182 337.337C281.54 356.079 310.31 370.64 340.696 380.612C372.201 390.953 404.985 396.197 438.136 396.197C478.25 396.197 519.444 388.204 557.265 373.079L557.483 373.628C519.591 388.78 478.321 396.788 438.136 396.788C404.924 396.788 372.077 391.535 340.513 381.173C310.071 371.18 281.245 356.596 254.839 337.819C228.834 319.328 205.715 297.166 186.121 271.951C166.51 246.713 150.867 218.962 139.617 189.465L-61.3116 640.006Z" fill="url(#paint19_linear_456_9636)"/>
<path d="M-61.3116 683.793L-61.8516 683.554L139.661 231.705L139.915 232.375C151.162 262.067 166.864 289.992 186.588 315.375C206.146 340.546 229.224 362.666 255.182 381.124C281.54 399.866 310.31 414.427 340.696 424.399C372.201 434.74 404.985 439.984 438.136 439.984C478.25 439.984 519.444 431.991 557.265 416.866L557.483 417.415C519.591 432.567 478.321 440.575 438.136 440.575C404.924 440.575 372.077 435.322 340.513 424.96C310.071 414.967 281.245 400.38 254.839 381.606C228.834 363.115 205.715 340.953 186.121 315.738C166.51 290.5 150.867 262.749 139.617 233.252L-61.3116 683.793Z" fill="url(#paint20_linear_456_9636)"/>
<path d="M-61.3116 727.582L-61.8516 727.338L139.661 273.127L139.915 273.801C151.162 303.647 166.864 331.719 186.588 357.235C206.146 382.537 229.224 404.773 255.182 423.328C281.54 442.168 310.31 456.804 340.696 466.829C372.201 477.224 404.985 482.495 438.136 482.495C478.25 482.495 519.444 474.46 557.265 459.256L557.483 459.808C519.591 475.039 478.321 483.089 438.136 483.089C404.924 483.089 372.077 477.808 340.513 467.393C310.071 457.348 281.245 442.684 254.839 423.811C228.834 405.224 205.715 382.946 186.121 357.6C166.51 332.229 150.867 304.333 139.617 274.682L-61.3116 727.579V727.582Z" fill="url(#paint21_linear_456_9636)"/>
<path d="M-61.3116 769.006L-61.8516 768.764L139.661 316.918L139.915 317.588C151.162 347.279 166.864 375.205 186.588 400.588C206.146 425.758 229.224 447.878 255.182 466.336C281.54 485.078 310.31 499.639 340.696 509.611C372.201 519.952 404.985 525.196 438.136 525.196C478.25 525.196 519.444 517.203 557.265 502.078L557.483 502.627C519.591 517.778 478.321 525.786 438.136 525.786C404.924 525.786 372.077 520.533 340.513 510.172C310.071 500.179 281.245 485.592 254.839 466.818C228.834 448.327 205.715 426.165 186.121 400.951C166.51 375.713 150.867 347.962 139.617 318.465L-61.3116 769.003V769.006Z" fill="url(#paint22_linear_456_9636)"/>
<path d="M-61.3116 812.795L-61.8516 812.553L139.661 360.707L139.915 361.377C151.162 391.068 166.864 418.994 186.588 444.377C206.146 469.547 229.224 491.667 255.182 510.125C281.54 528.867 310.31 543.428 340.696 553.4C372.201 563.741 404.985 568.985 438.136 568.985C478.25 568.985 519.444 560.992 557.265 545.867L557.483 546.416C519.591 561.567 478.321 569.576 438.136 569.576C404.924 569.576 372.077 564.322 340.513 553.961C310.071 543.968 281.245 529.381 254.839 510.607C228.834 492.116 205.715 469.954 186.121 444.74C166.51 419.502 150.867 391.751 139.617 362.254L-61.3116 812.792V812.795Z" fill="url(#paint23_linear_456_9636)"/>
<path d="M-61.3116 856.582L-61.8516 856.339L139.661 403.311L139.915 403.983C151.162 433.751 166.864 461.75 186.588 487.199C206.146 512.435 229.224 534.613 255.182 553.12C281.54 571.911 310.31 586.507 340.696 596.508C372.201 606.876 404.985 612.134 438.136 612.134C478.25 612.134 519.444 604.119 557.265 588.955L557.483 589.506C519.591 604.697 478.321 612.726 438.136 612.726C404.924 612.726 372.077 607.459 340.513 597.07C310.071 587.052 281.245 572.426 254.839 553.603C228.834 535.063 205.715 512.844 186.121 487.563C166.51 462.259 150.867 434.435 139.617 404.862L-61.3116 856.579V856.582Z" fill="url(#paint24_linear_456_9636)"/>
<path d="M-61.3116 899.185L-61.8516 898.943L139.661 445.914L139.915 446.586C151.162 476.355 166.864 504.353 186.588 529.803C206.146 555.039 229.224 577.217 255.182 595.724C281.54 614.515 310.31 629.11 340.696 639.111C372.201 649.479 404.985 654.737 438.136 654.737C478.25 654.737 519.444 646.723 557.265 631.559L557.483 632.109C519.591 647.3 478.321 655.329 438.136 655.329C404.924 655.329 372.077 650.063 340.513 639.674C310.071 629.655 281.245 615.03 254.839 596.206C228.834 577.667 205.715 555.447 186.121 530.167C166.51 504.863 150.867 477.039 139.617 447.465L-61.3116 899.182V899.185Z" fill="url(#paint25_linear_456_9636)"/>
<path d="M-61.3116 941.791L-61.8516 941.549L139.661 489.703L139.915 490.373C151.162 520.065 166.864 547.99 186.588 573.373C206.146 598.543 229.224 620.663 255.182 639.121C281.54 657.863 310.31 672.424 340.696 682.396C372.201 692.737 404.985 697.981 438.136 697.981C478.25 697.981 519.444 689.988 557.265 674.863L557.483 675.412C519.591 690.563 478.321 698.572 438.136 698.572C404.924 698.572 372.077 693.319 340.513 682.957C310.071 672.964 281.245 658.377 254.839 639.603C228.834 621.112 205.715 598.951 186.121 573.736C166.51 548.498 150.867 520.747 139.617 491.25L-61.3116 941.788V941.791Z" fill="url(#paint26_linear_456_9636)"/>
<path d="M-61.3116 985.58L-61.8516 985.34L139.661 532.309L139.915 532.981C151.162 562.75 166.864 590.748 186.588 616.198C206.146 641.434 229.224 663.612 255.182 682.119C281.54 700.91 310.31 715.506 340.696 725.507C372.201 735.875 404.985 741.133 438.136 741.133C478.25 741.133 519.444 733.119 557.265 717.954L557.483 718.505C519.591 733.696 478.321 741.725 438.136 741.725C404.924 741.725 372.077 736.458 340.513 726.069C310.071 716.051 281.245 701.425 254.839 682.602C228.834 664.062 205.715 641.843 186.121 616.562C166.51 591.258 150.867 563.434 139.617 533.86L-61.3116 985.58Z" fill="url(#paint27_linear_456_9636)"/>
<path d="M-61.3116 1029.37L-61.8516 1029.13L139.661 576.098L139.915 576.77C151.162 606.539 166.864 634.537 186.588 659.986C206.146 685.223 229.224 707.4 255.182 725.907C281.54 744.698 310.31 759.297 340.696 769.295C372.201 779.663 404.985 784.921 438.136 784.921C478.25 784.921 519.444 776.906 557.265 761.742L557.483 762.293C519.591 777.484 478.321 785.513 438.136 785.513C404.924 785.513 372.077 780.246 340.513 769.857C310.071 759.839 281.245 745.213 254.839 726.39C228.834 707.85 205.715 685.631 186.121 660.35C166.51 635.046 150.867 607.222 139.617 577.649L-61.3116 1029.37V1029.37Z" fill="url(#paint28_linear_456_9636)"/>
<path d="M-61.3116 1071.97L-61.8516 1071.73L139.661 619.887L139.915 620.557C151.162 650.248 166.864 678.173 186.588 703.556C206.146 728.727 229.224 750.847 255.182 769.305C281.54 788.047 310.31 802.608 340.696 812.579C372.201 822.92 404.985 828.165 438.136 828.165C478.25 828.165 519.444 820.171 557.265 805.047L557.483 805.596C519.591 820.747 478.321 828.755 438.136 828.755C404.924 828.755 372.077 823.502 340.513 813.14C310.071 803.148 281.245 788.561 254.839 769.786C228.834 751.295 205.715 729.134 186.121 703.92C166.51 678.681 150.867 650.93 139.617 621.434L-61.3116 1071.97V1071.97Z" fill="url(#paint29_linear_456_9636)"/>
<path d="M-61.3116 1115.76L-61.8516 1115.52L139.661 662.492L139.915 663.164C151.162 692.933 166.864 720.931 186.588 746.381C206.146 771.617 229.224 793.795 255.182 812.302C281.54 831.093 310.31 845.688 340.696 855.689C372.201 866.057 404.985 871.315 438.136 871.315C478.25 871.315 519.444 863.301 557.265 848.14L557.483 848.69C519.591 863.881 478.321 871.91 438.136 871.91C404.924 871.91 372.077 866.644 340.513 856.255C310.071 846.236 281.245 831.611 254.839 812.787C228.834 794.248 205.715 772.029 186.121 746.748C166.51 721.444 150.867 693.62 139.617 664.047L-61.3116 1115.76Z" fill="url(#paint30_linear_456_9636)"/>
<path d="M-61.3116 1158.37L-61.8516 1158.13L139.661 705.098L139.915 705.77C151.162 735.539 166.864 763.537 186.588 788.986C206.146 814.223 229.224 836.4 255.182 854.907C281.54 873.698 310.31 888.297 340.696 898.295C372.201 908.663 404.985 913.921 438.136 913.921C478.25 913.921 519.444 905.907 557.265 890.742L557.483 891.293C519.591 906.484 478.321 914.513 438.136 914.513C404.924 914.513 372.077 909.246 340.513 898.857C310.071 888.839 281.245 874.213 254.839 855.39C228.834 836.85 205.715 814.631 186.121 789.351C166.51 764.046 150.867 736.222 139.617 706.649L-61.3116 1158.37V1158.37Z" fill="url(#paint31_linear_456_9636)"/>
<path d="M-61.3116 1200.97L-61.8516 1200.73L139.661 748.885L139.915 749.555C151.162 779.246 166.864 807.172 186.588 832.554C206.146 857.725 229.224 879.845 255.182 898.303C281.54 917.045 310.31 931.603 340.696 941.577C372.201 951.918 404.985 957.163 438.136 957.163C478.25 957.163 519.444 949.169 557.265 934.045L557.483 934.594C519.591 949.745 478.321 957.753 438.136 957.753C404.924 957.753 372.077 952.5 340.513 942.139C310.071 932.146 281.245 917.559 254.839 898.784C228.834 880.294 205.715 858.132 186.121 832.918C166.51 807.679 150.867 779.928 139.617 750.432L-61.3116 1200.97V1200.97Z" fill="url(#paint32_linear_456_9636)"/>
<path d="M-61.3116 1244.76L-61.8516 1244.52L139.661 792.672L139.915 793.342C151.162 823.033 166.864 850.959 186.588 876.341C206.146 901.512 229.224 923.632 255.182 942.09C281.54 960.832 310.31 975.393 340.696 985.365C372.201 995.705 404.985 1000.95 438.136 1000.95C478.25 1000.95 519.444 992.956 557.265 977.832L557.483 978.381C519.591 993.532 478.321 1001.54 438.136 1001.54C404.924 1001.54 372.077 996.287 340.513 985.926C310.071 975.933 281.245 961.346 254.839 942.572C228.834 924.081 205.715 901.919 186.121 876.705C166.51 851.466 150.867 823.715 139.617 794.219L-61.3116 1244.76V1244.76Z" fill="url(#paint33_linear_456_9636)"/>
<path d="M-61.3116 1288.55L-61.8516 1288.31L139.661 834.094L139.915 834.768C151.162 864.614 166.864 892.686 186.588 918.202C206.146 943.504 229.224 965.739 255.182 984.294C281.54 1003.13 310.31 1017.77 340.696 1027.8C372.201 1038.19 404.985 1043.46 438.136 1043.46C478.25 1043.46 519.444 1035.43 557.265 1020.22L557.483 1020.78C519.591 1036.01 478.321 1044.06 438.136 1044.06C404.924 1044.06 372.077 1038.78 340.513 1028.36C310.071 1018.31 281.245 1003.65 254.839 984.778C228.834 966.191 205.715 943.913 186.121 918.567C166.51 893.196 150.867 865.3 139.617 835.649L-61.3116 1288.55V1288.55Z" fill="url(#paint34_linear_456_9636)"/>
<path d="M-61.3116 1329.97L-61.8516 1329.73L139.661 877.883L139.915 878.553C151.162 908.244 166.864 936.17 186.588 961.553C206.146 986.724 229.224 1008.84 255.182 1027.3C281.54 1046.04 310.31 1060.6 340.696 1070.58C372.201 1080.92 404.985 1086.16 438.136 1086.16C478.25 1086.16 519.444 1078.17 557.265 1063.04L557.483 1063.59C519.591 1078.74 478.321 1086.75 438.136 1086.75C404.924 1086.75 372.077 1081.5 340.513 1071.14C310.071 1061.15 281.245 1046.56 254.839 1027.78C228.834 1009.29 205.715 987.131 186.121 961.916C166.51 936.678 150.867 908.927 139.617 879.43L-61.3116 1329.97Z" fill="url(#paint35_linear_456_9636)"/>
<path d="M-61.3116 1373.76L-61.8516 1373.52L139.661 921.672L139.915 922.342C151.162 952.034 166.864 979.959 186.588 1005.34C206.146 1030.51 229.224 1052.63 255.182 1071.09C281.54 1089.83 310.31 1104.39 340.696 1114.37C372.201 1124.71 404.985 1129.95 438.136 1129.95C478.25 1129.95 519.444 1121.96 557.265 1106.83L557.483 1107.38C519.591 1122.53 478.321 1130.54 438.136 1130.54C404.924 1130.54 372.077 1125.29 340.513 1114.93C310.071 1104.93 281.245 1090.35 254.839 1071.57C228.834 1053.08 205.715 1030.92 186.121 1005.71C166.51 980.467 150.867 952.716 139.617 923.219L-61.3116 1373.76Z" fill="url(#paint36_linear_456_9636)"/>
<path d="M-61.3116 1417.55L-61.8516 1417.31L139.661 964.277L139.915 964.949C151.162 994.718 166.864 1022.72 186.588 1048.17C206.146 1073.4 229.224 1095.58 255.182 1114.09C281.54 1132.88 310.31 1147.48 340.696 1157.48C372.201 1167.84 404.985 1173.1 438.136 1173.1C478.25 1173.1 519.444 1165.09 557.265 1149.92L557.483 1150.47C519.591 1165.66 478.321 1173.69 438.136 1173.69C404.924 1173.69 372.077 1168.43 340.513 1158.04C310.071 1148.02 281.245 1133.39 254.839 1114.57C228.834 1096.03 205.715 1073.81 186.121 1048.53C166.51 1023.23 150.867 995.402 139.617 965.829L-61.3116 1417.55Z" fill="url(#paint37_linear_456_9636)"/>
</g>
<defs>
<linearGradient id="paint0_linear_456_9636" x1="1501.85" y1="413.962" x2="882.517" y2="413.962" gradientUnits="userSpaceOnUse">
<stop stop-color="#656565"/>
<stop offset="0.865" stop-color="#656565" stop-opacity="0"/>
</linearGradient>
<linearGradient id="paint1_linear_456_9636" x1="1501.85" y1="457.749" x2="882.517" y2="457.749" gradientUnits="userSpaceOnUse">
<stop stop-color="#656565"/>
<stop offset="0.865" stop-color="#656565" stop-opacity="0"/>
</linearGradient>
<linearGradient id="paint2_linear_456_9636" x1="1501.85" y1="500.354" x2="882.517" y2="500.354" gradientUnits="userSpaceOnUse">
<stop stop-color="#656565"/>
<stop offset="0.865" stop-color="#656565" stop-opacity="0"/>
</linearGradient>
<linearGradient id="paint3_linear_456_9636" x1="1501.85" y1="542.962" x2="882.517" y2="542.962" gradientUnits="userSpaceOnUse">
<stop stop-color="#656565"/>
<stop offset="0.865" stop-color="#656565" stop-opacity="0"/>
</linearGradient>
<linearGradient id="paint4_linear_456_9636" x1="1501.85" y1="586.751" x2="882.517" y2="586.751" gradientUnits="userSpaceOnUse">
<stop stop-color="#656565"/>
<stop offset="0.865" stop-color="#656565" stop-opacity="0"/>
</linearGradient>
<linearGradient id="paint5_linear_456_9636" x1="1501.85" y1="629.946" x2="882.517" y2="629.946" gradientUnits="userSpaceOnUse">
<stop stop-color="#656565"/>
<stop offset="0.865" stop-color="#656565" stop-opacity="0"/>
</linearGradient>
<linearGradient id="paint6_linear_456_9636" x1="1501.85" y1="672.55" x2="882.517" y2="672.55" gradientUnits="userSpaceOnUse">
<stop stop-color="#656565"/>
<stop offset="0.865" stop-color="#656565" stop-opacity="0"/>
</linearGradient>
<linearGradient id="paint7_linear_456_9636" x1="1501.85" y1="715.747" x2="882.517" y2="715.747" gradientUnits="userSpaceOnUse">
<stop stop-color="#656565"/>
<stop offset="0.865" stop-color="#656565" stop-opacity="0"/>
</linearGradient>
<linearGradient id="paint8_linear_456_9636" x1="1501.85" y1="758.944" x2="882.517" y2="758.944" gradientUnits="userSpaceOnUse">
<stop stop-color="#656565"/>
<stop offset="0.865" stop-color="#656565" stop-opacity="0"/>
</linearGradient>
<linearGradient id="paint9_linear_456_9636" x1="1501.85" y1="802.733" x2="882.517" y2="802.733" gradientUnits="userSpaceOnUse">
<stop stop-color="#656565"/>
<stop offset="0.865" stop-color="#656565" stop-opacity="0"/>
</linearGradient>
<linearGradient id="paint10_linear_456_9636" x1="1501.85" y1="845.931" x2="882.517" y2="845.931" gradientUnits="userSpaceOnUse">
<stop stop-color="#656565"/>
<stop offset="0.865" stop-color="#656565" stop-opacity="0"/>
</linearGradient>
<linearGradient id="paint11_linear_456_9636" x1="1501.85" y1="889.128" x2="882.517" y2="889.128" gradientUnits="userSpaceOnUse">
<stop stop-color="#656565"/>
<stop offset="0.865" stop-color="#656565" stop-opacity="0"/>
</linearGradient>
<linearGradient id="paint12_linear_456_9636" x1="1501.85" y1="931.733" x2="882.517" y2="931.733" gradientUnits="userSpaceOnUse">
<stop stop-color="#656565"/>
<stop offset="0.865" stop-color="#656565" stop-opacity="0"/>
</linearGradient>
<linearGradient id="paint13_linear_456_9636" x1="1501.85" y1="974.929" x2="882.517" y2="974.929" gradientUnits="userSpaceOnUse">
<stop stop-color="#656565"/>
<stop offset="0.865" stop-color="#656565" stop-opacity="0"/>
</linearGradient>
<linearGradient id="paint14_linear_456_9636" x1="1501.85" y1="1018.72" x2="882.517" y2="1018.72" gradientUnits="userSpaceOnUse">
<stop stop-color="#656565"/>
<stop offset="0.865" stop-color="#656565" stop-opacity="0"/>
</linearGradient>
<linearGradient id="paint15_linear_456_9636" x1="1501.85" y1="1061.32" x2="882.517" y2="1061.32" gradientUnits="userSpaceOnUse">
<stop stop-color="#656565"/>
<stop offset="0.865" stop-color="#656565" stop-opacity="0"/>
</linearGradient>
<linearGradient id="paint16_linear_456_9636" x1="1501.85" y1="1103.93" x2="882.517" y2="1103.93" gradientUnits="userSpaceOnUse">
<stop stop-color="#656565"/>
<stop offset="0.865" stop-color="#656565" stop-opacity="0"/>
</linearGradient>
<linearGradient id="paint17_linear_456_9636" x1="1501.85" y1="1147.72" x2="882.517" y2="1147.72" gradientUnits="userSpaceOnUse">
<stop stop-color="#656565"/>
<stop offset="0.865" stop-color="#656565" stop-opacity="0"/>
</linearGradient>
<linearGradient id="paint18_linear_456_9636" x1="1501.85" y1="1190.91" x2="882.517" y2="1190.91" gradientUnits="userSpaceOnUse">
<stop stop-color="#656565"/>
<stop offset="0.865" stop-color="#656565" stop-opacity="0"/>
</linearGradient>
<linearGradient id="paint19_linear_456_9636" x1="-61.8516" y1="413.962" x2="557.483" y2="413.962" gradientUnits="userSpaceOnUse">
<stop stop-color="#656565"/>
<stop offset="0.865" stop-color="#656565" stop-opacity="0"/>
</linearGradient>
<linearGradient id="paint20_linear_456_9636" x1="-61.8516" y1="457.749" x2="557.483" y2="457.749" gradientUnits="userSpaceOnUse">
<stop stop-color="#656565"/>
<stop offset="0.865" stop-color="#656565" stop-opacity="0"/>
</linearGradient>
<linearGradient id="paint21_linear_456_9636" x1="-61.8516" y1="500.354" x2="557.483" y2="500.354" gradientUnits="userSpaceOnUse">
<stop stop-color="#656565"/>
<stop offset="0.865" stop-color="#656565" stop-opacity="0"/>
</linearGradient>
<linearGradient id="paint22_linear_456_9636" x1="-61.8516" y1="542.962" x2="557.483" y2="542.962" gradientUnits="userSpaceOnUse">
<stop stop-color="#656565"/>
<stop offset="0.865" stop-color="#656565" stop-opacity="0"/>
</linearGradient>
<linearGradient id="paint23_linear_456_9636" x1="-61.8516" y1="586.751" x2="557.483" y2="586.751" gradientUnits="userSpaceOnUse">
<stop stop-color="#656565"/>
<stop offset="0.865" stop-color="#656565" stop-opacity="0"/>
</linearGradient>
<linearGradient id="paint24_linear_456_9636" x1="-61.8516" y1="629.946" x2="557.483" y2="629.946" gradientUnits="userSpaceOnUse">
<stop stop-color="#656565"/>
<stop offset="0.865" stop-color="#656565" stop-opacity="0"/>
</linearGradient>
<linearGradient id="paint25_linear_456_9636" x1="-61.8516" y1="672.55" x2="557.483" y2="672.55" gradientUnits="userSpaceOnUse">
<stop stop-color="#656565"/>
<stop offset="0.865" stop-color="#656565" stop-opacity="0"/>
</linearGradient>
<linearGradient id="paint26_linear_456_9636" x1="-61.8516" y1="715.747" x2="557.483" y2="715.747" gradientUnits="userSpaceOnUse">
<stop stop-color="#656565"/>
<stop offset="0.865" stop-color="#656565" stop-opacity="0"/>
</linearGradient>
<linearGradient id="paint27_linear_456_9636" x1="-61.8516" y1="758.944" x2="557.483" y2="758.944" gradientUnits="userSpaceOnUse">
<stop stop-color="#656565"/>
<stop offset="0.865" stop-color="#656565" stop-opacity="0"/>
</linearGradient>
<linearGradient id="paint28_linear_456_9636" x1="-61.8516" y1="802.733" x2="557.483" y2="802.733" gradientUnits="userSpaceOnUse">
<stop stop-color="#656565"/>
<stop offset="0.865" stop-color="#656565" stop-opacity="0"/>
</linearGradient>
<linearGradient id="paint29_linear_456_9636" x1="-61.8516" y1="845.931" x2="557.483" y2="845.931" gradientUnits="userSpaceOnUse">
<stop stop-color="#656565"/>
<stop offset="0.865" stop-color="#656565" stop-opacity="0"/>
</linearGradient>
<linearGradient id="paint30_linear_456_9636" x1="-61.8516" y1="889.128" x2="557.483" y2="889.128" gradientUnits="userSpaceOnUse">
<stop stop-color="#656565"/>
<stop offset="0.865" stop-color="#656565" stop-opacity="0"/>
</linearGradient>
<linearGradient id="paint31_linear_456_9636" x1="-61.8516" y1="931.733" x2="557.483" y2="931.733" gradientUnits="userSpaceOnUse">
<stop stop-color="#656565"/>
<stop offset="0.865" stop-color="#656565" stop-opacity="0"/>
</linearGradient>
<linearGradient id="paint32_linear_456_9636" x1="-61.8516" y1="974.929" x2="557.483" y2="974.929" gradientUnits="userSpaceOnUse">
<stop stop-color="#656565"/>
<stop offset="0.865" stop-color="#656565" stop-opacity="0"/>
</linearGradient>
<linearGradient id="paint33_linear_456_9636" x1="-61.8516" y1="1018.72" x2="557.483" y2="1018.72" gradientUnits="userSpaceOnUse">
<stop stop-color="#656565"/>
<stop offset="0.865" stop-color="#656565" stop-opacity="0"/>
</linearGradient>
<linearGradient id="paint34_linear_456_9636" x1="-61.8516" y1="1061.32" x2="557.483" y2="1061.32" gradientUnits="userSpaceOnUse">
<stop stop-color="#656565"/>
<stop offset="0.865" stop-color="#656565" stop-opacity="0"/>
</linearGradient>
<linearGradient id="paint35_linear_456_9636" x1="-61.8516" y1="1103.93" x2="557.483" y2="1103.93" gradientUnits="userSpaceOnUse">
<stop stop-color="#656565"/>
<stop offset="0.865" stop-color="#656565" stop-opacity="0"/>
</linearGradient>
<linearGradient id="paint36_linear_456_9636" x1="-61.8516" y1="1147.72" x2="557.483" y2="1147.72" gradientUnits="userSpaceOnUse">
<stop stop-color="#656565"/>
<stop offset="0.865" stop-color="#656565" stop-opacity="0"/>
</linearGradient>
<linearGradient id="paint37_linear_456_9636" x1="-61.8516" y1="1190.91" x2="557.483" y2="1190.91" gradientUnits="userSpaceOnUse">
<stop stop-color="#656565"/>
<stop offset="0.865" stop-color="#656565" stop-opacity="0"/>
</linearGradient>
</defs>
</svg>
