<svg width="1440" height="707" viewBox="0 0 1440 707" fill="none" xmlns="http://www.w3.org/2000/svg">
<g clip-path="url(#clip0_456_9890)">
<rect width="1440" height="707" fill="#F9FAFB"/>
<g opacity="0.2" clip-path="url(#clip1_456_9890)">
<path d="M2392.55 198.292L1784.97 261.306C1734.69 266.275 1694.58 274.985 1652.8 299.096C1517.35 377.24 1470.89 550.469 1549 685.864C1607.79 787.757 1720.42 839.346 1830.25 825.34C1830.41 825.354 1830.57 825.334 1830.7 825.298C1830.77 825.281 1830.82 825.261 1830.86 825.24L2453.34 761.94L2453.16 760.177L1830.33 823.513L1830.27 823.553L1830.16 823.57C1720.98 837.542 1608.98 786.275 1550.55 684.986C1511.74 617.709 1503.87 541.046 1522.54 471.479C1541.2 401.917 1586.39 339.467 1653.69 300.64C1695.19 276.697 1734.96 268.045 1785.15 263.076L2392.73 200.057L2392.55 198.289L2392.55 198.292Z" fill="#D9D9D9"/>
<path d="M2378.47 190.163L1754.37 254.891C1702.71 259.998 1661.53 268.944 1618.61 293.708C1479.48 373.971 1431.77 551.904 1512 690.971C1572.37 795.625 1688.08 848.619 1800.88 834.228C1801.04 834.242 1801.21 834.227 1801.33 834.186C1801.4 834.17 1801.45 834.146 1801.5 834.13L2440.92 769.104L2440.74 767.341L1800.96 832.401L1800.89 832.441L1800.78 832.456C1688.62 846.811 1573.56 794.147 1513.53 690.086C1473.66 620.974 1465.58 542.212 1484.75 470.749C1503.93 399.291 1550.35 335.139 1619.49 295.25C1662.13 270.651 1702.98 261.763 1754.54 256.664L2378.66 191.93L2378.47 190.163Z" fill="#D4D4D4"/>
<path d="M2364.4 182.036L1723.76 248.477C1670.73 253.719 1628.46 262.904 1584.41 288.314C1441.61 370.697 1392.64 553.328 1474.99 696.072C1536.96 803.492 1655.72 857.883 1771.5 843.113C1771.66 843.126 1771.83 843.108 1771.96 843.072C1772.03 843.053 1772.08 843.03 1772.13 843.014L2428.49 776.264L2428.31 774.501L1771.59 841.285L1771.53 841.325L1771.4 841.342C1656.26 856.076 1538.15 802.013 1476.52 695.192C1435.59 624.243 1427.3 543.39 1446.98 470.028C1466.67 396.666 1514.32 330.813 1585.3 289.866C1629.08 264.613 1671 255.489 1723.94 250.252L2364.58 183.804L2364.4 182.036Z" fill="#CECECE"/>
<path d="M2350.33 173.912L1693.15 242.069C1638.76 247.446 1595.4 256.863 1550.22 282.934C1403.75 367.438 1353.51 554.766 1437.98 701.186C1501.55 811.373 1623.36 867.161 1742.13 852.011C1742.29 852.027 1742.46 852.009 1742.59 851.968C1742.66 851.949 1742.72 851.927 1742.76 851.907L2416.08 783.433L2415.9 781.67L1742.23 850.178L1742.15 850.221L1742.03 850.236C1623.91 865.35 1502.73 809.884 1439.52 700.302C1397.53 627.517 1389.02 544.566 1409.21 469.308C1429.4 394.045 1478.29 326.482 1551.11 284.473C1596.02 258.567 1639.04 249.209 1693.33 243.832L2350.51 175.675L2350.33 173.907L2350.33 173.912Z" fill="#C7C7C7"/>
<path d="M2336.26 165.785L1662.55 235.66C1606.79 241.167 1562.34 250.828 1516.03 277.552C1365.88 364.177 1314.38 556.202 1400.97 706.297C1466.13 819.245 1591 876.432 1712.75 860.908C1712.92 860.924 1713.08 860.906 1713.22 860.867C1713.29 860.848 1713.35 860.823 1713.4 860.803L2403.65 790.608L2403.47 788.846L1712.86 859.077L1712.79 859.119L1712.65 859.14C1591.55 874.642 1467.32 817.774 1402.5 705.42C1359.45 630.795 1350.73 545.754 1371.43 468.595C1392.13 391.433 1442.26 322.17 1516.91 279.102C1562.95 252.542 1607.05 242.948 1662.72 237.441L2336.44 167.548L2336.26 165.781L2336.26 165.785Z" fill="#C2C2C2"/>
<path d="M2322.2 157.657L1631.94 229.244C1574.82 234.886 1529.28 244.785 1481.83 272.164C1328.01 360.909 1275.25 557.639 1363.96 711.403C1430.71 827.118 1558.65 885.707 1683.37 869.795C1683.54 869.811 1683.72 869.795 1683.85 869.751C1683.92 869.729 1683.98 869.708 1684.03 869.684L2391.23 797.766L2391.06 796.003L1683.5 867.955L1683.42 867.998L1683.28 868.014C1559.2 883.895 1431.91 825.628 1365.5 710.513C1321.39 634.051 1312.45 546.92 1333.66 467.857C1354.88 388.799 1406.23 317.83 1482.73 273.7C1529.9 246.486 1575.09 236.654 1632.12 231.012L2322.38 159.422L2322.2 157.654L2322.2 157.657Z" fill="#BDBDBD"/>
<path d="M2308.12 149.529L1601.33 222.833C1542.84 228.613 1496.22 238.748 1447.64 266.773C1290.14 357.638 1236.12 559.065 1326.95 716.502C1395.3 834.987 1526.28 894.98 1654 878.682C1654.16 878.698 1654.34 878.682 1654.48 878.641C1654.55 878.618 1654.62 878.594 1654.67 878.57L2378.81 804.932L2378.63 803.169L1654.13 876.844L1654.05 876.89L1653.9 876.912C1526.84 893.175 1396.49 833.511 1328.48 715.625C1283.31 637.327 1274.16 548.103 1295.88 467.144C1317.6 386.182 1370.19 313.511 1448.52 268.322C1496.83 240.455 1543.11 230.383 1601.51 224.606L2308.31 151.297L2308.12 149.529Z" fill="#B8B8B8"/>
<path d="M2294.06 141.402L1570.73 216.417C1510.87 222.333 1463.16 232.702 1413.45 261.385C1252.27 354.371 1197 560.501 1289.94 721.609C1359.89 842.861 1493.93 904.252 1624.63 887.57C1624.8 887.583 1624.97 887.567 1625.11 887.526C1625.19 887.504 1625.25 887.479 1625.3 887.456L2366.39 812.093L2366.21 810.33L1624.76 885.729L1624.68 885.775L1624.52 885.795C1494.48 902.438 1361.08 841.372 1291.48 720.724C1245.25 640.591 1235.88 549.27 1258.11 466.412C1280.34 383.554 1334.17 309.174 1414.33 262.927C1463.77 234.406 1511.14 224.103 1570.91 218.183L2294.24 143.17L2294.06 141.402Z" fill="#B3B3B3"/>
<path d="M2279.98 133.274L1540.12 210.007C1478.89 216.058 1430.1 226.663 1379.25 255.997C1214.4 351.101 1157.86 561.931 1252.93 726.716C1324.47 850.729 1461.57 913.523 1595.24 896.458C1595.42 896.476 1595.6 896.458 1595.74 896.416C1595.82 896.391 1595.88 896.366 1595.93 896.343L2353.97 819.257L2353.79 817.494L1595.39 894.617L1595.31 894.662L1595.14 894.688C1462.12 911.714 1325.66 849.25 1254.46 725.836C1207.17 643.867 1197.59 550.453 1220.33 465.694C1243.08 380.937 1298.13 304.851 1380.14 257.544C1430.71 228.37 1479.16 217.828 1540.3 211.778L2280.17 135.042L2279.98 133.274Z" fill="#ACACAC"/>
<path d="M2265.91 125.147L1509.51 203.597C1446.92 209.783 1397.03 220.627 1345.05 250.615C1176.53 347.839 1118.73 563.369 1215.91 731.826C1289.05 858.605 1429.21 922.793 1565.86 905.357C1566.03 905.374 1566.21 905.356 1566.36 905.311C1566.44 905.286 1566.51 905.259 1566.56 905.233L2341.54 826.426L2341.36 824.663L1566.02 903.507L1565.94 903.555L1565.77 903.576C1429.76 920.981 1290.24 857.119 1217.45 730.938C1169.1 647.133 1159.31 551.625 1182.55 464.97C1205.8 378.312 1262.1 300.525 1345.94 252.149C1397.64 222.321 1447.18 211.543 1509.68 205.358L2266.1 126.912L2265.92 125.149L2265.91 125.147Z" fill="#A7A7A7"/>
<path d="M2251.83 117.026L1478.9 197.185C1414.94 203.506 1363.97 214.581 1310.86 245.23C1138.65 344.575 1079.6 564.807 1178.9 736.936C1253.63 866.482 1396.85 932.072 1536.48 914.248C1536.66 914.266 1536.84 914.252 1536.98 914.208C1537.07 914.185 1537.14 914.152 1537.19 914.126L2329.12 833.591L2328.94 831.828L1536.65 912.4L1536.56 912.451L1536.56 912.446L1536.38 912.47C1397.4 930.258 1254.82 864.998 1180.44 736.048C1131.03 650.407 1121.02 552.803 1144.78 464.249C1168.54 375.693 1226.06 296.199 1311.74 246.769C1364.58 216.288 1415.21 205.271 1479.08 198.95L2252.02 118.786L2251.84 117.018L2251.83 117.026Z" fill="#A2A2A2"/>
<path d="M2237.77 108.897L1448.3 190.773C1382.97 197.232 1330.91 208.544 1276.67 239.844C1100.79 341.309 1040.47 566.238 1141.9 742.044C1218.23 874.351 1364.5 941.343 1507.11 923.14C1507.29 923.16 1507.47 923.141 1507.62 923.094C1507.71 923.071 1507.78 923.039 1507.84 923.009L2316.71 840.751L2316.53 838.988L1507.3 921.283L1507.2 921.338L1507.2 921.333L1507.02 921.356C1365.06 939.528 1219.42 872.862 1143.44 741.153C1092.98 653.676 1082.75 553.979 1107.01 463.524C1131.29 373.071 1190.05 291.868 1277.56 241.38C1331.53 210.245 1383.25 198.997 1448.49 192.538L2237.95 110.657L2237.77 108.89L2237.77 108.897Z" fill="#9C9C9C"/>
<path d="M2223.71 100.767L1417.7 184.36C1351 190.954 1297.86 202.505 1242.48 234.453C1062.93 338.039 1001.35 567.666 1104.9 747.148C1182.82 882.222 1332.15 950.608 1477.74 932.03C1477.93 932.05 1478.11 932.029 1478.26 931.989C1478.35 931.966 1478.42 931.936 1478.48 931.91L2304.29 847.93L2304.11 846.167L1477.93 930.186L1477.84 930.243L1477.82 930.239L1477.65 930.26C1332.7 948.815 1184.01 880.751 1106.43 746.271C1054.9 656.953 1044.46 555.17 1069.23 462.811C1094.01 370.457 1154.01 287.55 1243.36 236.003C1298.47 204.214 1351.27 192.728 1417.87 186.134L2223.89 102.535L2223.71 100.767Z" fill="#979797"/>
<path d="M2209.63 92.6399L1387.09 177.945C1319.03 184.674 1264.79 196.458 1208.28 229.065C1025.05 334.772 962.219 569.101 1067.87 752.253C1147.39 890.093 1299.79 959.879 1448.36 940.916C1448.54 940.936 1448.73 940.919 1448.88 940.872C1448.97 940.846 1449.04 940.816 1449.1 940.79L2291.86 855.086L2291.68 853.323L1448.56 939.066L1448.45 939.126L1448.43 939.117L1448.26 939.138C1300.33 958.072 1148.58 888.609 1069.41 751.368C1016.82 660.214 1006.17 556.332 1031.45 462.082C1056.74 367.83 1117.97 283.219 1209.16 230.61C1265.4 198.165 1319.29 186.442 1387.26 179.714L2209.81 94.4079L2209.63 92.6399Z" fill="#909090"/>
<path d="M1030.87 757.363C1004.53 711.697 987.913 662.224 981.498 610.323C975.299 560.191 978.823 509.918 991.98 460.9C1005.13 411.881 1027.25 366.591 1057.71 326.288C1089.25 284.557 1128.41 250.036 1174.1 223.681C1233.31 189.518 1289.84 178.127 1356.49 171.533L2195.56 84.5136L2195.74 86.2815L1356.67 173.304C1290.24 179.874 1233.92 191.219 1174.98 225.223C1129.5 251.458 1090.52 285.826 1059.12 327.361C1028.8 367.479 1006.78 412.563 993.684 461.362C980.591 510.158 977.086 560.203 983.254 610.109C989.644 661.773 1006.18 711.02 1032.41 756.483C1071.49 824.226 1129.22 878.004 1199.35 912.004C1267.81 945.197 1343.73 957.658 1418.89 948.037L1419.39 947.935L2279.27 860.493L2279.45 862.256L1419.74 949.683C1419.57 949.765 1419.31 949.847 1418.99 949.815C1343.53 959.447 1267.31 946.924 1198.58 913.603C1128.12 879.446 1070.13 825.422 1030.87 757.368" fill="#8C8C8C"/>
</g>
<g opacity="0.2" clip-path="url(#clip2_456_9890)">
<path d="M416.482 1477.92L366.902 1001.44C362.991 961.996 356.146 930.541 337.224 897.777C275.892 791.547 140.001 755.155 33.8142 816.462C-46.0882 862.594 -86.5298 950.965 -75.5187 1037.11C-75.5282 1037.23 -75.5181 1037.36 -75.4841 1037.47C-75.4687 1037.51 -75.4556 1037.56 -75.4407 1037.59L-25.6341 1525.75L-24.1719 1525.6L-74.0111 1037.15L-74.0419 1037.09L-74.0528 1037.02C-85.038 951.416 -44.8679 863.58 34.5379 817.735C87.2823 787.283 147.395 781.097 201.947 795.713C256.5 810.329 305.476 845.746 335.941 898.512C354.726 931.049 361.523 962.22 365.429 1001.59L415.016 1478.07L416.482 1477.92Z" fill="#E3E3E3"/>
<path d="M423.218 1466.24L372.213 976.047C368.19 935.474 361.146 903.116 341.682 869.412C278.59 760.134 138.798 722.701 29.5672 785.766C-52.6333 833.224 -94.2328 924.129 -82.9013 1012.75C-82.9084 1012.88 -82.8983 1013.01 -82.8667 1013.11C-82.853 1013.16 -82.8358 1013.2 -82.8186 1013.24L-31.5799 1515.45L-30.1177 1515.3L-81.3912 1012.8L-81.422 1012.74L-81.4312 1012.66C-92.7345 924.582 -51.4066 834.212 30.2973 787.04C84.56 755.711 146.413 749.347 202.539 764.384C258.664 779.422 309.058 815.863 340.402 870.151C359.732 903.632 366.72 935.704 370.743 976.201L421.754 1466.4L423.22 1466.25L423.218 1466.24Z" fill="#DEDEDE"/>
<path d="M429.956 1454.58L377.523 950.665C373.387 908.959 366.151 875.7 346.142 841.053C281.291 728.726 137.6 690.247 25.3242 755.069C-59.1702 803.852 -101.928 897.291 -90.2804 988.381C-90.2915 988.513 -90.2751 988.646 -90.2453 988.754C-90.2315 988.806 -90.2143 988.846 -90.1971 988.885L-37.5218 1505.16L-36.0596 1505.01L-88.765 988.447L-88.7982 988.389L-88.8121 988.299C-100.431 897.75 -57.9411 804.844 26.0526 756.35C81.8419 724.14 145.425 717.597 203.13 733.058C260.83 748.52 312.64 785.982 344.862 841.792C364.732 876.208 371.919 909.183 376.054 950.813L428.493 1454.73L429.959 1454.58L429.956 1454.58Z" fill="#D9D9D9"/>
<path d="M436.695 1442.9L382.835 925.28C378.585 882.437 371.153 848.279 350.602 812.692C283.992 697.322 136.399 657.797 21.0784 724.378C-65.7059 774.483 -109.627 870.464 -97.6601 964.022C-97.6713 964.154 -97.659 964.289 -97.625 964.396C-97.6113 964.448 -97.5917 964.491 -97.5786 964.533L-43.4672 1494.85L-42.005 1494.7L-96.1447 964.088L-96.1779 964.03L-96.19 963.934C-108.127 870.91 -64.4792 775.47 21.8126 725.649C79.1244 692.56 144.448 685.839 203.725 701.72C262.999 717.604 316.22 756.089 349.323 813.425C369.738 848.785 377.121 882.659 381.364 925.424L435.229 1443.05L436.695 1442.9Z" fill="#D4D4D4"/>
<path d="M443.432 1431.23L388.147 899.889C383.784 855.913 376.154 820.852 355.066 784.328C286.697 665.909 135.208 625.341 16.838 693.682C-72.2402 745.111 -117.319 843.626 -105.037 939.655C-105.048 939.787 -105.033 939.926 -105.003 940.035C-104.987 940.091 -104.968 940.135 -104.955 940.176L-49.4087 1484.55L-47.9465 1484.4L-103.521 939.731L-103.554 939.674L-103.568 939.573C-115.821 844.079 -71.0135 746.099 17.5681 694.956C76.4023 660.988 143.46 654.086 204.313 670.392C265.165 686.699 319.798 726.207 353.78 785.065C374.737 821.364 382.316 856.137 386.674 900.039L441.965 1431.38L443.432 1431.23Z" fill="#CECECE"/>
<path d="M450.164 1419.56L393.451 874.504C388.976 829.395 381.154 793.433 359.517 755.967C289.388 634.5 134.003 592.888 12.5835 662.99C-78.7886 715.744 -125.026 816.792 -112.427 915.292C-112.44 915.431 -112.426 915.57 -112.392 915.676C-112.375 915.732 -112.358 915.782 -112.34 915.822L-55.3603 1474.25L-53.8982 1474.1L-110.907 915.377L-110.942 915.315L-110.955 915.208C-123.523 817.243 -77.5537 716.726 13.3178 664.262C73.6745 629.415 142.473 622.333 204.898 639.061C267.328 655.787 323.378 696.319 358.241 756.704C379.741 793.942 387.514 829.62 391.989 874.653L448.702 1419.71L450.168 1419.55L450.164 1419.56Z" fill="#C7C7C7"/>
<path d="M456.901 1407.88L398.759 849.118C394.175 802.874 386.151 766.011 363.972 727.606C292.083 603.091 132.801 560.436 8.33479 632.291C-85.3272 686.367 -132.724 789.956 -119.814 890.929C-119.827 891.068 -119.812 891.207 -119.78 891.319C-119.764 891.376 -119.744 891.43 -119.726 891.469L-61.3145 1463.95L-59.8523 1463.8L-118.295 891.02L-118.331 890.958L-118.348 890.843C-131.239 790.406 -84.107 687.353 9.06256 633.561C70.9458 597.833 141.476 590.578 205.479 607.724C269.483 624.875 326.945 666.43 362.687 728.337C384.729 766.515 392.698 803.092 397.281 849.26L455.439 1408.03L456.905 1407.88L456.901 1407.88Z" fill="#C2C2C2"/>
<path d="M463.639 1396.21L404.072 823.73C399.376 776.353 391.153 738.588 368.432 699.243C294.783 571.68 131.599 527.98 4.08961 601.597C-91.8663 656.997 -140.425 763.122 -127.193 866.567C-127.206 866.706 -127.193 866.852 -127.157 866.962C-127.138 867.023 -127.12 867.072 -127.101 867.116L-67.2544 1453.65L-65.7922 1453.5L-125.667 866.671L-125.702 866.609L-125.716 866.491C-138.922 763.584 -90.6308 657.99 4.82858 602.877C68.2343 566.27 140.499 558.834 206.08 576.403C271.658 593.975 330.535 636.551 367.158 699.984C389.742 739.101 397.91 776.581 402.606 823.882L462.175 1396.37L463.641 1396.22L463.639 1396.21Z" fill="#BDBDBD"/>
<path d="M470.378 1384.54L409.382 798.344C404.571 749.829 396.152 711.165 372.895 670.882C297.487 540.271 130.406 495.527 -0.148264 570.903C-98.4022 627.63 -148.124 736.281 -134.571 842.205C-134.584 842.343 -134.571 842.489 -134.537 842.606C-134.518 842.666 -134.498 842.72 -134.478 842.764L-73.1999 1443.35L-71.7377 1443.2L-133.047 842.315L-133.085 842.249L-133.103 842.123C-146.627 736.74 -97.1779 628.613 0.57954 572.173C65.5077 534.687 139.509 527.074 206.663 545.065C273.82 563.059 334.108 606.659 371.61 671.613C394.737 711.67 403.103 750.053 407.911 798.487L468.911 1384.69L470.378 1384.54Z" fill="#B8B8B8"/>
<path d="M477.114 1372.87L414.694 772.958C409.771 723.31 401.157 683.741 377.353 642.522C300.185 508.862 129.204 463.077 -4.39496 540.211C-104.943 598.262 -155.824 709.453 -141.952 817.845C-141.962 817.988 -141.949 818.134 -141.915 818.251C-141.896 818.311 -141.876 818.365 -141.856 818.409L-79.1438 1433.05L-77.6816 1432.91L-140.425 817.96L-140.463 817.894L-140.479 817.761C-154.32 709.908 -103.708 599.245 -3.66073 541.482C62.7899 503.117 138.529 495.321 207.259 513.737C275.988 532.153 337.694 576.777 376.075 643.254C399.744 684.251 408.303 723.534 413.229 773.103L475.648 1373.02L477.114 1372.87Z" fill="#B3B3B3"/>
<path d="M483.851 1361.2L420.002 747.567C414.966 696.786 406.156 656.318 381.812 614.153C302.886 477.45 128.006 430.617 -8.64157 509.511C-111.479 568.884 -163.523 682.612 -149.332 793.479C-149.347 793.624 -149.331 793.774 -149.297 793.89C-149.276 793.955 -149.256 794.009 -149.236 794.052L-85.0892 1422.75L-83.6271 1422.6L-147.805 793.603L-147.843 793.538L-147.864 793.397C-162.022 683.069 -110.253 569.872 -7.9114 510.785C60.0617 471.541 137.538 463.568 207.844 482.403C278.148 501.244 341.27 546.889 380.529 614.888C404.741 656.824 413.498 697.01 418.533 747.715L482.384 1361.35L483.851 1361.2Z" fill="#ACACAC"/>
<path d="M490.589 1349.52L425.311 722.177C420.163 670.264 411.155 628.893 386.268 585.788C305.583 446.036 126.804 398.156 -12.8889 478.808C-118.021 539.506 -171.22 655.771 -156.72 769.107C-156.734 769.252 -156.719 769.402 -156.682 769.523C-156.661 769.588 -156.639 769.646 -156.617 769.693L-91.0377 1412.45L-89.5755 1412.3L-155.185 769.244L-155.225 769.174L-155.243 769.031C-169.717 656.233 -116.787 540.495 -12.1522 480.084C57.3433 439.961 136.556 431.812 208.435 451.068C280.316 470.328 344.849 516.996 384.996 586.522C409.75 629.398 418.703 670.483 423.851 722.32L489.125 1349.68L490.587 1349.53L490.589 1349.52Z" fill="#A7A7A7"/>
<path d="M497.321 1337.85L430.621 696.79C425.361 643.743 416.161 601.471 390.725 557.425C308.28 414.625 125.601 365.704 -17.1372 448.114C-124.563 510.136 -178.924 628.938 -164.102 744.746C-164.117 744.891 -164.105 745.044 -164.068 745.164C-164.049 745.235 -164.022 745.291 -164.001 745.339L-96.9831 1402.15L-95.521 1402L-162.569 744.89L-162.612 744.816L-162.608 744.813L-162.627 744.666C-177.419 629.393 -123.332 511.121 -16.4006 449.39C54.6174 408.388 135.568 400.056 209.022 419.737C282.479 439.422 348.427 487.111 389.449 558.162C414.745 601.977 423.897 643.965 429.157 696.935L495.861 1338L497.328 1337.85L497.321 1337.85Z" fill="#A2A2A2"/>
<path d="M504.058 1326.17L435.929 671.404C430.554 617.22 421.158 574.05 395.182 529.068C310.977 383.22 124.401 333.256 -21.3853 417.426C-131.101 480.771 -186.624 602.108 -171.486 720.387C-171.503 720.539 -171.487 720.689 -171.448 720.814C-171.429 720.885 -171.402 720.94 -171.378 720.992L-102.926 1391.85L-101.464 1391.71L-169.946 720.543L-169.991 720.465L-169.987 720.463L-170.007 720.315C-185.119 602.574 -129.865 481.764 -20.6463 418.706C51.8941 376.825 134.581 368.316 209.612 388.416C284.641 408.523 352.008 457.236 393.908 529.809C419.747 574.564 429.09 617.453 434.465 671.56L502.598 1326.33L504.064 1326.18L504.058 1326.17Z" fill="#9C9C9C"/>
<path d="M510.797 1314.51L441.239 646.025C435.751 590.708 426.157 546.635 399.643 500.712C313.678 351.815 123.206 300.808 -25.6296 386.738C-137.639 451.407 -194.318 575.282 -178.869 696.034C-178.885 696.186 -178.867 696.34 -178.834 696.463C-178.815 696.534 -178.79 696.596 -178.768 696.644L-108.885 1381.56L-107.422 1381.41L-177.339 696.191L-177.387 696.109L-177.383 696.096L-177.4 695.952C-192.83 575.736 -136.419 452.393 -24.9019 388.008C49.1651 345.246 133.582 336.559 210.192 357.082C286.799 377.607 355.579 427.347 398.358 501.443C424.739 547.136 434.281 590.928 439.768 646.169L509.33 1314.66L510.797 1314.51Z" fill="#979797"/>
<path d="M517.533 1302.83L446.551 620.632C440.951 564.182 431.162 519.204 404.101 472.343C316.376 320.399 122.004 268.35 -29.8745 356.032C-144.178 422.025 -202.017 548.441 -186.247 671.661C-186.264 671.813 -186.25 671.969 -186.211 672.094C-186.189 672.169 -186.164 672.231 -186.142 672.279L-114.824 1371.25L-113.362 1371.1L-184.713 671.826L-184.763 671.74L-184.755 671.724L-184.773 671.581C-200.518 548.894 -142.947 423.01 -29.1402 357.304C46.4493 313.662 132.607 304.796 210.786 325.743C288.967 346.693 359.16 397.45 402.82 473.072C429.746 519.709 439.484 564.4 445.084 620.773L516.067 1302.99L517.533 1302.83Z" fill="#909090"/>
<path d="M-34.1208 325.344C3.74779 303.48 44.7767 289.687 87.8217 284.352C129.4 279.197 171.098 282.106 211.758 293.005C252.419 303.897 289.989 322.23 323.424 347.484C358.045 373.635 386.689 406.104 408.56 443.986C436.912 493.093 446.376 539.972 451.863 595.25L524.272 1291.16L522.805 1291.31L450.395 595.398C444.927 540.305 435.501 493.596 407.282 444.719C385.51 407.009 356.994 374.686 322.535 348.654C289.253 323.514 251.853 305.268 211.375 294.418C170.9 283.572 129.391 280.679 88.0003 285.808C45.1515 291.123 4.30972 304.852 -33.3906 326.618C-89.5657 359.051 -134.154 406.947 -162.334 465.123C-189.846 521.917 -200.16 584.891 -192.159 647.224L-192.075 647.635L-119.31 1360.81L-120.772 1360.96L-193.524 647.93C-193.592 647.784 -193.66 647.571 -193.634 647.304C-201.644 584.719 -191.278 521.502 -163.661 464.483C-135.35 406.04 -90.5585 357.928 -34.1249 325.346" fill="#8C8C8C"/>
</g>
</g>
<defs>
<clipPath id="clip0_456_9890">
<rect width="1440" height="707" fill="white"/>
</clipPath>
<clipPath id="clip1_456_9890">
<rect width="603.89" height="904.712" fill="white" transform="translate(1520.12 11.123) rotate(60.0192)"/>
</clipPath>
<clipPath id="clip2_456_9890">
<rect width="500.872" height="750.377" fill="white" transform="translate(584.953 730.922) rotate(150)"/>
</clipPath>
</defs>
</svg>
