<svg width="382" height="418" viewBox="0 0 382 418" fill="none" xmlns="http://www.w3.org/2000/svg">
<g clip-path="url(#clip0_494_3661)">
<g filter="url(#filter0_d_494_3661)">
<mask id="mask0_494_3661" style="mask-type:luminance" maskUnits="userSpaceOnUse" x="-1" y="-1" width="384" height="420">
<path d="M383 -1H-1V419H383V-1Z" fill="white"/>
</mask>
<g mask="url(#mask0_494_3661)">
<path d="M383 -1H-1V419H383V-1Z" fill="url(#paint0_linear_494_3661)" fill-opacity="0.5"/>
<mask id="mask1_494_3661" style="mask-type:luminance" maskUnits="userSpaceOnUse" x="-176" y="-60" width="927" height="1095">
<path d="M265.575 -59.9993L750.518 779.945L308.947 1034.89L-175.995 194.942L265.575 -59.9993Z" fill="white"/>
</mask>
<g mask="url(#mask1_494_3661)">
<g opacity="0.07">
<path d="M403.389 990.592L219.939 670.407C204.634 643.99 194.725 621.231 191.66 592.173C181.724 497.967 249.08 413.565 342.019 403.687C411.955 396.255 476.55 433.121 508.46 491.941C508.524 492.017 508.575 492.106 508.602 492.183C508.613 492.22 508.624 492.249 508.631 492.279L697.184 819.864L696.188 820.451L507.52 492.666L507.515 492.621L507.487 492.571C475.812 434.108 411.634 397.463 342.146 404.848C295.994 409.753 256.195 433.163 229.166 467.041C202.138 500.922 187.879 545.264 192.814 592.05C195.856 620.899 205.669 643.452 220.939 669.82L404.385 990.006L403.385 990.593L403.389 990.592Z" fill="url(#paint1_linear_494_3661)"/>
<path d="M393.725 986.236L204.839 656.561C189.081 629.363 178.877 605.931 175.726 576.014C165.496 479.026 234.84 392.132 330.523 381.963C402.523 374.311 469.03 412.265 501.88 472.822C501.944 472.899 501.998 472.988 502.025 473.072C502.037 473.109 502.048 473.142 502.055 473.171L696.197 810.465L695.201 811.052L500.943 473.554L500.938 473.506L500.91 473.452C468.293 413.253 402.205 375.515 330.653 383.119C283.126 388.17 242.147 412.274 214.313 447.162C186.478 482.049 171.798 527.712 176.879 575.888C180.012 605.594 190.116 628.822 205.842 655.97L394.725 985.649L393.725 986.236Z" fill="url(#paint2_linear_494_3661)"/>
<path d="M384.055 981.876L189.73 642.712C173.52 614.732 163.024 590.626 159.782 559.852C149.259 460.081 220.595 370.695 319.022 360.234C393.092 352.362 461.505 391.406 495.298 453.707C495.362 453.787 495.416 453.876 495.444 453.957C495.459 453.997 495.466 454.03 495.474 454.063L695.206 801.065L694.21 801.652L494.362 454.443L494.357 454.394L494.325 454.337C460.765 392.397 392.771 353.57 319.148 361.395C270.253 366.591 228.088 391.393 199.451 427.286C170.813 463.18 155.708 510.164 160.936 559.729C164.16 590.297 174.558 614.194 190.734 642.124L385.055 981.293L384.055 981.88V981.876Z" fill="url(#paint3_linear_494_3661)"/>
<path d="M374.387 977.518L174.626 628.864C157.963 600.103 147.172 575.327 143.84 543.692C133.023 441.137 206.347 349.256 307.518 338.504C383.654 330.412 453.974 370.545 488.709 434.583C488.777 434.663 488.828 434.756 488.859 434.84C488.874 434.88 488.882 434.913 488.889 434.946L694.212 791.664L693.215 792.251L487.778 435.333L487.773 435.281L487.74 435.216C453.238 371.54 383.334 331.624 307.648 339.668C257.377 345.011 214.032 370.506 184.589 407.409C155.15 444.312 139.619 492.614 144.993 543.569C148.307 574.991 158.998 599.561 175.625 628.273L375.387 976.934L374.387 977.521V977.518Z" fill="url(#paint4_linear_494_3661)"/>
<path d="M364.712 973.153L159.516 615.013C142.401 585.467 131.319 560.022 127.895 527.528C116.786 422.194 192.101 327.818 296.015 316.774C374.216 308.463 446.449 349.688 482.122 415.463C482.19 415.543 482.245 415.636 482.273 415.72C482.288 415.76 482.296 415.797 482.307 415.83L693.215 782.256L692.219 782.843L481.192 416.214L481.186 416.161L481.149 416.093C445.704 350.676 373.894 309.672 296.138 317.935C244.495 323.424 199.964 349.617 169.719 387.526C139.477 425.434 123.524 475.054 129.045 527.402C132.45 559.686 143.432 584.926 160.516 614.418L365.712 972.566L364.712 973.153Z" fill="url(#paint5_linear_494_3661)"/>
<path d="M355.044 968.789L144.409 601.159C126.84 570.832 115.467 544.713 111.95 511.366C100.547 403.25 177.85 306.382 284.512 295.046C364.779 286.515 438.918 328.829 475.534 396.341C475.602 396.421 475.657 396.517 475.688 396.601C475.704 396.645 475.712 396.682 475.723 396.715L692.221 772.853L691.225 773.44L474.608 397.099L474.602 397.046L474.565 396.974C438.178 329.82 364.458 287.723 284.638 296.207C231.623 301.841 185.909 328.728 154.861 367.646C123.814 406.564 107.439 457.501 113.107 511.24C116.602 544.381 127.875 570.29 145.412 600.568L356.044 968.202L355.044 968.789Z" fill="url(#paint6_linear_494_3661)"/>
<path d="M345.378 964.428L129.307 587.309C111.286 556.2 99.6176 529.412 96.0136 495.203C84.3166 384.303 163.609 284.944 273.018 273.316C355.352 264.566 431.398 307.968 468.955 377.217C469.027 377.301 469.083 377.397 469.11 377.481C469.126 377.525 469.138 377.565 469.145 377.599L691.233 763.449L690.237 764.036L468.03 377.982L468.024 377.926L467.982 377.851C430.653 308.96 355.024 265.775 273.141 274.477C218.754 280.257 171.853 307.842 140.003 347.766C108.149 387.69 91.3486 439.949 97.1636 495.081C100.749 529.079 112.318 555.662 130.304 586.722L346.374 963.841L345.374 964.428H345.378Z" fill="url(#paint7_linear_494_3661)"/>
<path d="M335.712 960.074L114.206 573.465C95.729 541.576 83.7721 514.114 80.0774 479.047C68.0874 365.364 149.367 263.513 261.52 251.59C345.918 242.621 423.873 287.116 462.376 358.101C462.449 358.184 462.504 358.281 462.535 358.368C462.551 358.412 462.563 358.456 462.571 358.49L690.248 754.048L689.252 754.635L461.455 358.869L461.449 358.813L461.407 358.731C423.139 288.099 345.6 243.825 261.646 252.747C205.883 258.674 157.804 286.956 125.147 327.886C92.491 368.819 75.2691 422.396 81.2303 478.917C84.9066 513.773 96.766 541.026 115.208 572.866L336.708 959.487L335.708 960.074H335.712Z" fill="url(#paint8_linear_494_3661)"/>
<path d="M326.041 955.709L99.0946 559.611C80.1649 526.94 67.9167 498.804 64.1315 462.88C51.848 346.414 135.12 242.068 250.017 229.857C336.481 220.668 416.346 266.251 455.789 338.978C455.861 339.061 455.92 339.161 455.948 339.249C455.964 339.296 455.976 339.337 455.984 339.374L689.251 744.644L688.255 745.231L454.869 339.757L454.863 339.701L454.817 339.619C415.607 267.25 336.157 221.884 250.14 231.025C193.006 237.098 143.743 266.074 110.281 308.014C76.8215 349.953 59.1737 404.847 65.282 462.761C69.0487 498.476 81.2 526.402 100.095 559.024L327.041 955.125L326.041 955.713V955.709Z" fill="url(#paint9_linear_494_3661)"/>
<path d="M316.368 951.344L83.9869 545.756C64.6041 512.299 52.0647 483.494 48.1857 446.716C35.6086 327.467 120.868 220.63 238.509 208.127C327.044 198.718 408.814 245.383 449.2 319.854C449.272 319.937 449.331 320.037 449.363 320.128C449.38 320.175 449.392 320.22 449.399 320.257L688.256 735.235L687.26 735.822L448.284 320.637L448.278 320.577L448.231 320.487C408.078 246.378 326.723 199.922 238.635 209.284C180.129 215.502 129.683 245.176 95.418 288.121C61.1535 331.07 43.0839 387.282 49.3386 446.586C53.1958 483.158 65.6388 511.758 84.9861 545.161L317.368 950.756L316.368 951.344Z" fill="url(#paint10_linear_494_3661)"/>
<path d="M306.704 946.99L68.8834 531.912C49.0479 497.675 36.2132 468.197 32.2475 430.56C19.3769 308.529 106.629 199.199 227.013 186.405C317.616 176.776 401.296 224.533 442.62 300.741C442.692 300.828 442.751 300.928 442.784 301.019C442.8 301.067 442.812 301.111 442.82 301.148L687.266 725.838L686.27 726.425L441.704 301.528L441.698 301.468L441.647 301.375C400.552 225.529 317.287 177.985 227.136 187.566C167.258 193.93 115.625 224.298 80.5577 268.253C45.4906 312.207 26.9957 369.741 33.3971 430.434C37.3447 467.864 50.0826 497.133 69.8793 531.322L307.704 946.402L306.704 946.99Z" fill="url(#paint11_linear_494_3661)"/>
<path d="M297.032 942.627L53.776 518.06C33.4879 483.041 20.3619 452.893 16.3016 414.395C3.1379 289.584 92.3777 177.76 215.509 164.673C308.175 154.825 393.765 203.671 436.031 281.62C436.108 281.706 436.168 281.81 436.2 281.901C436.216 281.952 436.228 281.997 436.236 282.034L686.273 716.436L685.276 717.023L435.121 282.414L435.114 282.354L435.063 282.253C393.025 204.667 307.854 156.033 215.636 165.834C154.386 172.344 101.57 203.409 65.6968 248.37C29.8276 293.334 10.9071 352.186 17.455 414.269C21.4931 452.557 34.5226 482.499 54.7756 517.469L298.032 942.039L297.032 942.627Z" fill="url(#paint12_linear_494_3661)"/>
<path d="M287.363 938.264L38.6706 504.207C17.93 468.407 4.5123 437.585 0.361599 398.23C-13.0956 270.636 78.1316 156.316 204.007 142.938C298.74 132.87 386.236 182.809 429.449 262.491C429.525 262.577 429.585 262.681 429.617 262.776C429.634 262.827 429.646 262.875 429.654 262.916L685.28 707.026L684.284 707.613L428.539 263.296L428.532 263.232L428.477 263.132C385.497 183.808 298.416 134.083 204.13 144.103C141.509 150.759 87.5106 182.522 50.8342 228.489C14.1588 274.459 -5.18366 334.628 1.5079 398.108C5.6365 437.254 18.9573 467.866 39.6628 503.617L288.363 937.68L287.367 938.267L287.363 938.264Z" fill="url(#paint13_linear_494_3661)"/>
<path d="M277.694 933.899L23.5633 490.357C2.37005 453.775 -11.3425 422.285 -15.5804 382.068C-29.3311 251.691 63.8879 134.879 192.508 121.21C289.308 110.922 378.713 161.949 422.864 243.372C422.941 243.458 423.004 243.561 423.037 243.656C423.057 243.711 423.066 243.759 423.074 243.8L684.286 697.623L683.29 698.21L421.959 244.18L421.952 244.113H421.948L421.892 244.009C377.969 162.945 288.983 112.13 192.63 122.374C128.637 129.175 73.4516 161.633 35.9735 208.609C-1.50415 255.589 -21.2722 317.075 -14.4304 381.945C-10.2113 421.948 3.40105 453.234 24.5592 489.766L278.691 933.316L277.691 933.904L277.694 933.899Z" fill="url(#paint14_linear_494_3661)"/>
<path d="M268.02 929.529L8.45375 476.497C-13.1925 439.13 -27.1963 406.969 -31.5243 365.898C-45.5685 232.738 49.6389 113.435 181.005 99.4743C279.869 88.9672 371.184 141.083 416.277 224.242C416.358 224.332 416.417 224.436 416.45 224.534C416.471 224.589 416.48 224.637 416.488 224.682L683.291 688.217L682.294 688.803L415.373 225.062L415.365 224.991H415.362L415.306 224.887C370.445 142.086 279.544 90.1834 181.129 100.643C115.763 107.589 59.3956 140.745 21.1113 188.727C-17.169 236.712 -37.3622 299.52 -30.3738 365.78C-26.0643 406.641 -12.157 438.596 9.45415 475.913L269.016 928.946L268.016 929.533L268.02 929.529Z" fill="url(#paint15_linear_494_3661)"/>
<path d="M258.355 925.179L-6.64594 462.657C-28.7447 424.509 -43.0402 391.675 -47.4624 349.747C-61.8002 213.804 35.3955 92.0093 169.51 77.7561C270.44 67.0294 363.661 120.238 409.701 205.133C409.782 205.223 409.842 205.331 409.878 205.425C409.899 205.48 409.912 205.532 409.92 205.572L682.31 678.815L681.315 679.402L408.803 205.948L408.796 205.874L408.788 205.867L408.732 205.767C362.929 121.225 270.122 68.2335 169.636 78.913C102.895 86.0061 45.3471 119.855 6.2569 168.846C-32.8296 217.838 -53.4444 281.967 -46.3095 349.616C-41.9094 391.335 -27.7104 423.963 -5.64674 462.062L259.355 924.592L258.355 925.179Z" fill="url(#paint16_linear_494_3661)"/>
<path d="M248.686 920.818L-21.7552 448.807C-44.3067 409.877 -58.8975 376.37 -63.4064 333.583C-78.0377 194.858 21.1498 70.5708 158.004 56.0224C261.001 45.0761 356.133 99.3777 403.111 186.01C403.192 186.1 403.255 186.207 403.288 186.306C403.309 186.364 403.322 186.416 403.33 186.457L681.312 669.412L680.315 669.999L402.214 186.833L402.206 186.754L402.194 186.748L402.139 186.648C355.393 100.369 260.676 46.2848 158.126 57.1836C90.0136 64.4225 31.2794 98.9687 -8.6096 148.967C-48.4983 198.968 -69.5391 264.411 -62.2572 333.454C-57.7663 376.034 -43.2761 409.332 -20.7598 448.212L249.686 920.23L248.686 920.818Z" fill="url(#paint17_linear_494_3661)"/>
<path d="M146.507 34.2971C112.385 37.9236 79.9894 48.2183 50.2268 64.8955C21.4773 81.003 -3.61935 102.354 -24.3625 128.36C-45.1098 154.363 -60.4566 183.707 -69.9811 215.573C-79.8425 248.57 -82.9925 282.837 -79.3447 317.424C-74.616 362.259 -58.9401 396.836 -36.8588 434.96L239.017 916.457L240.017 915.87L-35.8592 434.369C-57.8671 396.374 -73.4885 361.923 -78.1951 317.298C-81.8263 282.869 -78.69 248.754 -68.8761 215.91C-59.3962 184.189 -44.1173 154.98 -23.4666 129.091C-2.81548 103.204 22.1682 81.9522 50.7868 65.9155C80.4156 49.3169 112.662 39.0683 146.634 35.4579C197.252 30.0783 247.674 40.0592 292.444 64.3178C336.152 88 371.812 123.692 395.561 167.528L395.698 167.832L679.329 660.598L680.325 660.011L396.753 167.344C396.729 167.218 396.674 167.05 396.533 166.891C372.673 122.888 336.868 87.0641 292.99 63.2865C248.013 38.9172 197.363 28.8923 146.511 34.2967" fill="url(#paint18_linear_494_3661)"/>
</g>
</g>
</g>
<path d="M382 0H0V418H382V0Z" stroke="url(#paint19_radial_494_3661)" stroke-width="2"/>
</g>
</g>
<defs>
<filter id="filter0_d_494_3661" x="-13" y="-9" width="408" height="444" filterUnits="userSpaceOnUse" color-interpolation-filters="sRGB">
<feFlood flood-opacity="0" result="BackgroundImageFix"/>
<feColorMatrix in="SourceAlpha" type="matrix" values="0 0 0 0 0 0 0 0 0 0 0 0 0 0 0 0 0 0 127 0" result="hardAlpha"/>
<feOffset dy="4"/>
<feGaussianBlur stdDeviation="6"/>
<feComposite in2="hardAlpha" operator="out"/>
<feColorMatrix type="matrix" values="0 0 0 0 0 0 0 0 0 0 0 0 0 0 0 0 0 0 0.03 0"/>
<feBlend mode="normal" in2="BackgroundImageFix" result="effect1_dropShadow_494_3661"/>
<feBlend mode="normal" in="SourceGraphic" in2="effect1_dropShadow_494_3661" result="shape"/>
</filter>
<linearGradient id="paint0_linear_494_3661" x1="8.0435" y1="30.8031" x2="427.584" y2="220.892" gradientUnits="userSpaceOnUse">
<stop stop-color="white" stop-opacity="0.7"/>
<stop offset="1" stop-color="white"/>
</linearGradient>
<linearGradient id="paint1_linear_494_3661" x1="701.147" y1="32.8711" x2="-304.288" y2="634.715" gradientUnits="userSpaceOnUse">
<stop stop-color="#BDACFF"/>
<stop offset="1" stop-color="#6B47F5"/>
</linearGradient>
<linearGradient id="paint2_linear_494_3661" x1="701.148" y1="32.8704" x2="-304.287" y2="634.714" gradientUnits="userSpaceOnUse">
<stop stop-color="#BDACFF"/>
<stop offset="1" stop-color="#6B47F5"/>
</linearGradient>
<linearGradient id="paint3_linear_494_3661" x1="701.148" y1="32.8707" x2="-304.287" y2="634.715" gradientUnits="userSpaceOnUse">
<stop stop-color="#BDACFF"/>
<stop offset="1" stop-color="#6B47F5"/>
</linearGradient>
<linearGradient id="paint4_linear_494_3661" x1="701.147" y1="32.871" x2="-304.288" y2="634.715" gradientUnits="userSpaceOnUse">
<stop stop-color="#BDACFF"/>
<stop offset="1" stop-color="#6B47F5"/>
</linearGradient>
<linearGradient id="paint5_linear_494_3661" x1="701.146" y1="32.872" x2="-304.289" y2="634.716" gradientUnits="userSpaceOnUse">
<stop stop-color="#BDACFF"/>
<stop offset="1" stop-color="#6B47F5"/>
</linearGradient>
<linearGradient id="paint6_linear_494_3661" x1="701.147" y1="32.8703" x2="-304.288" y2="634.714" gradientUnits="userSpaceOnUse">
<stop stop-color="#BDACFF"/>
<stop offset="1" stop-color="#6B47F5"/>
</linearGradient>
<linearGradient id="paint7_linear_494_3661" x1="701.147" y1="32.8704" x2="-304.288" y2="634.714" gradientUnits="userSpaceOnUse">
<stop stop-color="#BDACFF"/>
<stop offset="1" stop-color="#6B47F5"/>
</linearGradient>
<linearGradient id="paint8_linear_494_3661" x1="701.147" y1="32.8713" x2="-304.288" y2="634.715" gradientUnits="userSpaceOnUse">
<stop stop-color="#BDACFF"/>
<stop offset="1" stop-color="#6B47F5"/>
</linearGradient>
<linearGradient id="paint9_linear_494_3661" x1="701.148" y1="32.8717" x2="-304.287" y2="634.716" gradientUnits="userSpaceOnUse">
<stop stop-color="#BDACFF"/>
<stop offset="1" stop-color="#6B47F5"/>
</linearGradient>
<linearGradient id="paint10_linear_494_3661" x1="701.148" y1="32.8712" x2="-304.287" y2="634.715" gradientUnits="userSpaceOnUse">
<stop stop-color="#BDACFF"/>
<stop offset="1" stop-color="#6B47F5"/>
</linearGradient>
<linearGradient id="paint11_linear_494_3661" x1="701.148" y1="32.8713" x2="-304.287" y2="634.715" gradientUnits="userSpaceOnUse">
<stop stop-color="#BDACFF"/>
<stop offset="1" stop-color="#6B47F5"/>
</linearGradient>
<linearGradient id="paint12_linear_494_3661" x1="701.147" y1="32.8714" x2="-304.288" y2="634.715" gradientUnits="userSpaceOnUse">
<stop stop-color="#BDACFF"/>
<stop offset="1" stop-color="#6B47F5"/>
</linearGradient>
<linearGradient id="paint13_linear_494_3661" x1="701.147" y1="32.8708" x2="-304.288" y2="634.715" gradientUnits="userSpaceOnUse">
<stop stop-color="#BDACFF"/>
<stop offset="1" stop-color="#6B47F5"/>
</linearGradient>
<linearGradient id="paint14_linear_494_3661" x1="701.147" y1="32.8711" x2="-304.288" y2="634.715" gradientUnits="userSpaceOnUse">
<stop stop-color="#BDACFF"/>
<stop offset="1" stop-color="#6B47F5"/>
</linearGradient>
<linearGradient id="paint15_linear_494_3661" x1="701.146" y1="32.8704" x2="-304.289" y2="634.714" gradientUnits="userSpaceOnUse">
<stop stop-color="#BDACFF"/>
<stop offset="1" stop-color="#6B47F5"/>
</linearGradient>
<linearGradient id="paint16_linear_494_3661" x1="701.146" y1="32.8704" x2="-304.289" y2="634.714" gradientUnits="userSpaceOnUse">
<stop stop-color="#BDACFF"/>
<stop offset="1" stop-color="#6B47F5"/>
</linearGradient>
<linearGradient id="paint17_linear_494_3661" x1="701.147" y1="32.8717" x2="-304.288" y2="634.716" gradientUnits="userSpaceOnUse">
<stop stop-color="#BDACFF"/>
<stop offset="1" stop-color="#6B47F5"/>
</linearGradient>
<linearGradient id="paint18_linear_494_3661" x1="701.147" y1="32.8711" x2="-304.288" y2="634.715" gradientUnits="userSpaceOnUse">
<stop stop-color="#BDACFF"/>
<stop offset="1" stop-color="#6B47F5"/>
</linearGradient>
<radialGradient id="paint19_radial_494_3661" cx="0" cy="0" r="1" gradientUnits="userSpaceOnUse" gradientTransform="translate(133.344 428.793) rotate(-76.0004) scale(474.348 471.146)">
<stop stop-color="white" stop-opacity="0"/>
<stop offset="1" stop-color="white"/>
</radialGradient>
<clipPath id="clip0_494_3661">
<rect width="382" height="418" fill="white"/>
</clipPath>
</defs>
</svg>
