<svg width="304" height="408" viewBox="0 0 304 408" fill="none" xmlns="http://www.w3.org/2000/svg">
<g clip-path="url(#clip0_511_4885)">
<mask id="mask0_511_4885" style="mask-type:luminance" maskUnits="userSpaceOnUse" x="-948" y="0" width="1252" height="408">
<path d="M304 0H-948V408H304V0Z" fill="white"/>
</mask>
<g mask="url(#mask0_511_4885)">
<path d="M304 0H-948V408H304V0Z" fill="url(#paint0_linear_511_4885)"/>
<mask id="mask1_511_4885" style="mask-type:luminance" maskUnits="userSpaceOnUse" x="-488" y="18" width="1393" height="710">
<path d="M-487.766 18H904.26V728H-487.766V18Z" fill="white"/>
</mask>
<g mask="url(#mask1_511_4885)">
<g opacity="0.15">
<path d="M966.438 548.776L499.594 547.281C460.974 547.336 429.746 543.904 395.954 529.321C286.404 482.045 236.52 358.594 284.51 253.695C320.618 174.756 401.895 128.702 486.559 130.883C486.693 130.861 486.827 130.863 486.951 130.884C486.992 130.892 487.033 130.904 487.064 130.914L965.223 131.53L965.243 133.14L486.755 132.523L486.693 132.498L486.642 132.497C402.595 130.292 321.884 175.999 286.033 254.356C262.229 306.403 262.703 363.041 282.708 412.543C302.723 462.046 342.27 504.392 396.623 527.849C430.147 542.313 461.035 545.723 499.584 545.671L966.427 547.163L966.438 548.776Z" fill="white"/>
<path d="M954.072 557.401L471.537 555.854C431.62 555.911 399.342 552.361 364.417 537.29C251.202 488.431 199.639 360.845 249.235 252.435C286.559 170.855 370.554 123.253 458.06 125.51C458.194 125.488 458.338 125.487 458.451 125.508C458.503 125.518 458.544 125.526 458.575 125.536L952.816 126.171L952.826 127.781L458.266 127.145L458.204 127.122L458.152 127.119C371.264 124.839 287.835 172.086 250.769 253.093C226.162 306.896 226.646 365.45 247.341 416.621C268.026 467.791 308.911 511.571 365.097 535.818C399.743 550.77 431.681 554.297 471.527 554.244L954.072 555.789L954.083 557.404L954.072 557.401Z" fill="#F9F9F9"/>
<path d="M941.706 566.021L443.48 564.422C402.255 564.48 368.937 560.818 332.891 545.254C216 494.813 162.769 363.093 213.971 251.166C252.499 166.941 339.233 117.798 429.57 120.126C429.704 120.104 429.838 120.103 429.962 120.124C430.003 120.134 430.054 120.144 430.096 120.154L940.409 120.81L940.43 122.42L429.776 121.763L429.715 121.737L429.653 121.738C339.933 119.379 253.765 168.174 215.505 251.822C190.084 307.381 190.589 367.845 211.953 420.691C233.317 473.531 275.531 518.742 333.549 543.78C369.328 559.22 402.317 562.858 443.46 562.803L941.696 564.413L941.717 566.028L941.706 566.021Z" fill="#F5F5F5"/>
<path d="M929.341 574.643L415.413 572.996C372.891 573.054 338.533 569.277 301.354 553.227C180.797 501.202 125.899 365.345 178.707 249.907C218.44 163.04 307.902 112.353 401.071 114.753C401.215 114.729 401.349 114.728 401.473 114.751C401.524 114.763 401.565 114.771 401.607 114.783L928.013 115.458L928.023 117.068L401.287 116.39L401.236 116.364L401.164 116.363C308.592 113.934 219.716 164.269 180.241 250.565C154.028 307.879 154.542 370.256 176.586 424.769C198.62 479.283 242.172 525.921 302.033 551.75C338.934 567.678 372.973 571.433 415.403 571.376L929.331 573.033L929.341 574.647V574.643Z" fill="#EFEFEF"/>
<path d="M916.986 583.273L387.357 581.574C343.537 581.639 308.139 577.742 269.817 561.206C145.595 507.598 89.0184 367.609 143.443 248.654C184.391 159.142 276.571 106.914 372.582 109.385C372.716 109.361 372.87 109.362 372.983 109.383C373.035 109.395 373.076 109.403 373.117 109.415L915.606 110.112L915.616 111.722L372.808 111.024L372.747 110.998L372.664 110.997C277.261 108.491 185.657 160.371 144.977 249.31C117.95 308.38 118.486 372.674 141.199 428.855C163.912 485.039 208.803 533.106 270.497 559.729C308.53 576.146 343.609 580.016 387.346 579.96L916.965 581.663L916.975 583.278L916.986 583.273Z" fill="#E8E8E8"/>
<path d="M904.631 591.894L359.31 590.143C314.193 590.209 277.745 586.199 238.301 569.171C110.403 513.979 52.1626 369.857 108.19 247.391C150.342 155.238 245.251 101.46 344.093 104.009C344.237 103.985 344.381 103.981 344.505 104.007C344.556 104.018 344.608 104.028 344.649 104.04L903.22 104.757L903.23 106.367L344.33 105.647L344.268 105.62L344.175 105.616C245.951 103.037 151.619 156.46 109.714 248.04C81.8936 308.871 82.4393 375.069 105.832 432.926C129.225 490.782 175.443 540.277 238.97 567.692C278.147 584.596 314.265 588.584 359.29 588.521L904.62 590.279L904.631 591.894Z" fill="#E3E3E3"/>
<path d="M892.275 600.518L331.254 598.719C284.839 598.787 247.341 594.661 206.764 577.144C75.2043 520.369 15.2935 372.11 72.9247 246.132C116.293 151.328 213.92 96.0106 315.604 98.6363C315.758 98.6143 315.902 98.6109 316.026 98.6341C316.088 98.6434 316.129 98.6578 316.18 98.6723L890.824 99.4071L890.834 101.017L315.851 100.277L315.789 100.249L315.696 100.248C214.62 97.5939 117.569 152.557 74.4578 246.788C45.8286 309.37 46.398 377.485 70.4609 437.009C94.5269 496.534 142.084 547.462 207.444 575.667C247.753 593.062 284.921 597.16 331.243 597.1L892.265 598.905L892.275 600.52V600.518Z" fill="#DEDEDE"/>
<path d="M879.92 609.143L303.197 607.292C255.495 607.362 216.957 603.125 175.237 585.118C40.0079 526.759 -21.5778 374.365 37.6595 244.875C82.2434 147.427 182.589 90.569 287.114 93.2677C287.258 93.241 287.413 93.2443 287.536 93.2649C287.598 93.2742 287.639 93.2886 287.691 93.3031L878.417 94.0609L878.437 95.671L287.372 94.9121L287.31 94.8823L287.197 94.877C183.299 92.1496 83.5202 148.657 39.2008 245.529C9.76541 309.872 10.3503 379.892 35.0896 441.091C59.8321 502.286 108.725 554.645 175.917 583.641C217.348 601.522 255.567 605.737 303.186 605.675L879.91 607.53L879.92 609.145V609.143Z" fill="#D9D9D9"/>
<path d="M867.544 617.767L275.14 615.866C226.131 615.936 186.553 611.584 143.711 593.089C4.81004 533.148 -58.4489 376.616 2.39566 243.614C48.1843 143.524 151.258 85.1191 258.615 87.8955C258.769 87.8688 258.924 87.8674 259.047 87.8928C259.109 87.902 259.161 87.9186 259.202 87.9283L866.01 88.7096L866.031 90.3197L258.883 89.54L258.811 89.5101L258.697 89.5075C151.958 86.705 49.4559 144.753 3.92775 244.275C-26.3107 310.373 -25.7105 382.311 -0.295745 445.178C25.1201 508.04 75.3473 561.826 144.38 591.615C186.944 609.986 226.203 614.315 275.12 614.247L867.534 616.153L867.544 617.767Z" fill="#D4D4D4"/>
<path d="M855.189 626.392L247.083 624.444C196.777 624.515 156.149 620.045 112.174 601.069C-30.3901 539.545 -95.318 378.88 -32.8653 242.362C14.1331 139.627 119.927 79.6814 230.126 82.5308C230.27 82.5041 230.435 82.5048 230.558 82.5254C230.62 82.5368 230.671 82.5534 230.723 82.5631L853.614 83.3654L853.624 84.9755L230.404 84.1748L230.332 84.145L230.218 84.1402C120.638 81.2647 15.4047 140.855 -31.3322 243.018C-62.3727 310.872 -61.759 384.72 -35.6658 449.257C-9.57247 513.795 41.9891 569.006 112.854 599.586C156.55 618.445 196.849 622.89 247.063 622.822L855.179 624.777L855.189 626.392Z" fill="#CECECE"/>
<path d="M842.833 635.01L219.027 633.009C167.433 633.082 125.755 628.502 80.6517 609.031C-65.5862 545.923 -132.184 381.126 -68.1231 241.091C-19.9139 135.71 88.6064 74.2242 201.637 77.1466C201.791 77.1173 201.945 77.118 202.069 77.1433C202.141 77.1548 202.193 77.1688 202.244 77.1832L841.217 78.0063L841.227 79.6164L201.915 78.7948L201.843 78.7629L201.719 78.7607C89.3067 75.8122 -18.6465 136.948 -66.5911 241.752C-98.4368 311.362 -97.8067 387.127 -71.039 453.332C-44.2734 519.542 8.62573 576.186 81.3251 607.559C126.156 626.906 167.505 631.464 219.016 631.399L842.813 633.4L842.823 635.014L842.833 635.01Z" fill="#C7C7C7"/>
<path d="M830.478 643.638L190.98 641.584C138.089 641.663 95.371 636.962 49.1335 617.003C-100.775 552.311 -169.043 383.383 -103.379 239.834C-53.9619 131.812 57.286 68.7831 173.147 71.7737C173.302 71.7444 173.467 71.7452 173.59 71.768C173.662 71.7793 173.724 71.7954 173.775 71.8099L828.821 72.6517L828.841 74.2618L173.446 73.4193L173.374 73.3873L173.24 73.381C57.9809 70.3527 -52.6935 133.034 -101.851 240.488C-134.501 311.859 -133.85 389.531 -106.411 457.409C-78.9669 525.289 -24.7325 583.359 49.7986 615.523C95.7622 635.358 138.151 640.029 190.96 639.958L830.468 642.028L830.478 643.643V643.638Z" fill="#C2C2C2"/>
<path d="M818.113 652.26L162.913 650.159C108.725 650.24 64.9627 645.421 17.5937 624.974C-135.984 558.699 -205.925 385.63 -138.65 238.572C-88.0232 127.904 25.9489 63.3312 144.648 66.4017C144.802 66.3723 144.967 66.3706 145.101 66.3981C145.173 66.4116 145.235 66.4255 145.286 66.4421L816.414 67.3048L816.435 68.9149L144.957 68.0538L144.885 68.0218L144.751 68.0201C26.6593 64.9188 -86.7434 129.142 -137.109 239.237C-170.563 312.364 -169.898 391.946 -141.782 461.498C-113.664 531.047 -58.0977 590.548 18.2712 623.504C65.3664 643.828 108.797 648.617 162.903 648.544L818.102 650.647L818.123 652.262L818.113 652.26Z" fill="#BDBDBD"/>
<path d="M805.747 660.885L134.856 658.733C79.3597 658.813 34.5575 653.879 -13.94 632.951C-171.186 565.092 -242.798 387.891 -173.916 237.321C-122.076 124.003 -5.39322 57.8855 116.149 61.0333C116.303 61.004 116.478 61.0022 116.612 61.0271C116.684 61.0406 116.746 61.0567 116.797 61.0732L804.007 61.9547L804.028 63.5648L116.468 62.6828L116.385 62.6487L116.241 62.6426C-4.68488 59.4662 -120.81 125.23 -172.388 237.975C-206.645 312.858 -205.962 394.351 -177.173 465.572C-148.377 536.796 -91.4755 597.723 -13.2739 631.47C34.9518 652.281 79.4287 657.188 134.836 657.113L805.737 659.27L805.747 660.885Z" fill="#B8B8B8"/>
<path d="M793.402 669.508L106.81 667.308C50.019 667.39 4.16766 662.344 -45.4583 640.922C-206.375 571.48 -279.654 390.142 -209.166 236.06C-156.116 120.097 -36.7046 52.4358 87.6696 55.6611C87.8344 55.634 87.9991 55.6322 88.133 55.6571C88.205 55.6706 88.2771 55.6867 88.3286 55.7033L791.621 56.6056L791.631 58.2157L87.9991 57.3128L87.9167 57.2787L87.7623 57.2753C-36.0004 54.0259 -154.849 121.335 -207.634 236.721C-242.695 313.36 -242.002 396.768 -212.532 469.659C-183.063 542.55 -124.823 604.911 -44.7901 639.448C4.56713 660.748 50.088 665.765 106.789 665.695L793.392 667.893L793.402 669.508Z" fill="#B3B3B3"/>
<path d="M781.037 678.133L78.7501 675.881C20.6639 675.965 -26.2285 670.804 -76.9932 648.897C-241.576 577.873 -316.529 392.401 -244.432 234.802C-190.174 116.198 -68.0387 46.992 59.1803 50.2926C59.343 50.2607 59.514 50.2609 59.6509 50.2858C59.7261 50.3015 59.7899 50.3175 59.8414 50.3341L779.214 51.2574L779.235 52.8674L59.513 51.9437L59.4337 51.9096L59.272 51.902C-67.3324 48.5775 -188.902 117.427 -242.899 235.458C-278.762 313.853 -278.05 399.173 -247.909 473.737C-217.761 548.298 -158.189 612.09 -76.3229 647.418C-25.8352 669.206 20.7329 674.34 78.7326 674.264L781.026 676.519L781.037 678.133Z" fill="#ACACAC"/>
<path d="M768.671 686.756L50.6913 684.451C-8.69012 684.537 -56.6296 679.259 -108.525 656.863C-276.777 584.256 -353.405 394.649 -279.702 233.539C-224.233 112.289 -99.3715 41.5452 30.6789 44.9119C30.8416 44.88 31.0125 44.8802 31.1546 44.9072C31.2298 44.9229 31.2987 44.9411 31.3554 44.9598L766.808 45.9018L766.828 47.512L31.0269 46.5694L30.9425 46.5331L30.7788 46.5303C-98.6611 43.1328 -222.959 113.525 -278.166 234.202C-314.832 314.352 -314.102 401.585 -283.287 477.817C-252.467 554.051 -191.56 619.268 -107.853 655.396C-56.2352 677.672 -8.62522 682.922 50.6708 682.844L768.671 685.143L768.681 686.753L768.671 686.756Z" fill="#A7A7A7"/>
<path d="M756.316 695.375L22.6357 693.025C-38.0431 693.113 -87.0256 687.724 -140.054 664.834C-311.976 590.643 -390.272 396.899 -314.963 232.277C-258.284 108.382 -130.699 36.0932 2.18972 39.5398C2.3524 39.5078 2.52536 39.5033 2.66745 39.5303C2.74982 39.5434 2.81675 39.5665 2.87338 39.5852L754.411 40.5527L754.421 42.1628L2.54497 41.1946L2.45536 41.1563L2.45334 41.161L2.28449 41.156C-129.995 37.6834 -257.014 109.615 -313.426 232.94C-350.896 314.847 -350.155 403.994 -318.661 481.896C-287.161 559.8 -224.922 626.448 -139.381 663.362C-86.6312 686.126 -37.9762 691.493 22.616 691.413L756.306 693.768L756.316 695.382V695.375Z" fill="#A2A2A2"/>
<path d="M743.94 703.999L-5.43344 701.597C-67.4136 701.684 -117.437 696.18 -171.592 672.804C-347.184 597.029 -427.149 399.153 -350.232 231.015C-292.344 104.478 -162.036 30.6439 -26.3128 34.1634C-26.1429 34.1288 -25.972 34.1292 -25.8248 34.1584C-25.7424 34.1714 -25.6765 34.1944 -25.6147 34.2152L742.004 35.2036L742.015 36.8137L-25.9432 35.8247L-26.0369 35.7842L-26.0389 35.7889L-26.2078 35.784C-161.32 32.2336 -291.065 105.716 -348.69 231.68C-386.963 315.342 -386.204 406.401 -354.038 485.976C-321.864 565.548 -258.288 633.629 -170.915 671.334C-117.033 694.586 -67.3343 700.063 -5.44167 699.984L743.93 702.391L743.94 704.006V703.999Z" fill="#9C9C9C"/>
<path d="M731.595 712.629L-33.4717 710.174C-96.7471 710.263 -147.818 704.642 -203.106 680.783C-382.368 603.424 -464.003 401.416 -385.476 229.761C-326.379 100.579 -193.345 25.2066 -54.7835 28.7944C-54.6136 28.7599 -54.4375 28.7623 -54.2944 28.7846C-54.211 28.7976 -54.1379 28.818 -54.0813 28.8367L729.618 29.8438L729.629 31.454L-54.4149 30.4441L-54.5137 30.4015L-54.5271 30.4067L-54.6918 30.4037C-192.643 26.7783 -325.11 101.8 -383.948 230.415C-423.027 315.838 -422.251 408.802 -389.408 490.052C-356.563 571.297 -291.646 640.806 -202.441 679.302C-147.428 703.042 -96.6832 708.636 -33.4943 708.555L731.585 711.014L731.595 712.629Z" fill="#979797"/>
<path d="M719.23 721.248L-61.5335 718.746C-126.104 718.837 -178.224 713.103 -234.641 688.751C-417.572 609.809 -500.875 403.664 -420.749 228.5C-360.441 96.6714 -224.679 19.7567 -83.2849 23.4222C-83.1151 23.3877 -82.937 23.3854 -82.7907 23.4146C-82.7022 23.4298 -82.6291 23.4501 -82.5724 23.4688L717.212 24.4968L717.222 26.1069L-82.9061 25.0762L-83.009 25.0314L-83.0255 25.0414L-83.1902 25.0384C-223.977 21.34 -359.172 97.9048 -419.217 229.161C-459.099 316.339 -458.308 411.22 -424.789 494.133C-391.265 577.048 -325.021 647.986 -233.978 687.275C-177.829 711.505 -126.042 717.215 -61.5572 717.132L719.219 719.633L719.23 721.248Z" fill="#909090"/>
<path d="M-456.002 227.238C-475.982 270.913 -486.434 317.146 -487.063 364.649C-487.673 410.533 -479.145 455.663 -461.706 498.784C-444.275 541.908 -418.814 580.846 -386.04 614.518C-352.104 649.383 -311.771 677.04 -266.162 696.722C-207.042 722.235 -152.813 727.406 -89.581 727.321L706.874 729.873L706.864 728.258L-89.5986 725.704C-152.619 725.79 -206.649 720.642 -265.494 695.248C-310.895 675.656 -351.048 648.122 -384.829 613.42C-417.454 579.903 -442.794 541.141 -460.155 498.212C-477.511 455.286 -485.998 410.361 -485.393 364.684C-484.762 317.397 -474.36 271.375 -454.469 227.894C-424.831 163.107 -376.241 109.251 -313.96 72.1518C-253.159 35.9324 -183.204 17.7795 -111.674 19.6599L-111.199 19.7065L704.836 20.7535L704.815 19.1434L-111.047 18.0944C-111.221 18.0362 -111.47 17.9855 -111.769 18.0437C-183.585 16.1814 -253.807 34.4168 -314.85 70.7758C-377.417 108.047 -426.225 162.148 -456 227.233" fill="#8C8C8C"/>
</g>
</g>
</g>
</g>
<defs>
<linearGradient id="paint0_linear_511_4885" x1="304" y1="0" x2="-46.004" y2="801.761" gradientUnits="userSpaceOnUse">
<stop stop-color="#6B47F5"/>
<stop offset="1" stop-color="#3F3A60"/>
</linearGradient>
<clipPath id="clip0_511_4885">
<rect width="304" height="408" fill="white"/>
</clipPath>
</defs>
</svg>
