<svg width="1440" height="800" viewBox="0 0 1440 800" fill="none" xmlns="http://www.w3.org/2000/svg">
<g opacity="0.15" clip-path="url(#clip0_499_3752)">
<path d="M-711.39 579.774L-257.973 578.279C-220.457 578.334 -190.13 574.902 -157.309 560.319C-50.9086 513.043 -2.45754 389.592 -49.0656 284.693C-84.1395 205.754 -163.084 159.7 -245.313 161.881C-245.443 161.86 -245.574 161.861 -245.685 161.882C-245.728 161.89 -245.769 161.902 -245.804 161.912L-710.215 162.528L-710.229 164.139L-245.497 163.521L-245.44 163.496L-245.388 163.496C-163.756 161.29 -85.368 206.997 -50.5528 285.354C-27.4275 337.401 -27.887 394.039 -47.3247 443.541C-66.7625 493.044 -105.17 535.39 -157.963 558.847C-190.516 573.311 -220.524 576.721 -257.959 576.669L-711.382 578.161L-711.39 579.774Z" fill="white"/>
<path d="M-699.383 588.399L-230.722 586.852C-191.947 586.909 -160.604 583.359 -126.683 568.288C-16.7192 519.429 33.3586 391.843 -14.8099 283.433C-51.0571 201.853 -132.642 154.251 -217.629 156.508C-217.759 156.486 -217.897 156.485 -218.009 156.506C-218.056 156.516 -218.099 156.524 -218.134 156.534L-698.161 157.169L-698.175 158.779L-217.827 158.143L-217.774 158.12L-217.718 158.117C-133.327 155.837 -52.2966 203.084 -16.3039 284.091C7.60162 337.894 7.12638 396.448 -12.9661 447.619C-33.0585 498.789 -72.7655 542.569 -127.337 566.816C-160.989 581.768 -192.014 585.295 -230.707 585.242L-699.376 586.787L-699.388 588.402L-699.383 588.399Z" fill="#F9F9F9"/>
<path d="M-687.373 597.019L-203.467 595.42C-163.433 595.478 -131.072 591.816 -96.0555 576.252C17.4682 525.811 69.1728 394.091 19.4419 282.164C-17.9808 197.939 -102.22 148.796 -189.956 151.124C-190.086 151.102 -190.225 151.101 -190.336 151.122C-190.383 151.132 -190.431 151.142 -190.466 151.152L-686.113 151.808L-686.127 153.418L-190.159 152.761L-190.102 152.735L-190.038 152.736C-102.896 150.377 -19.2135 199.172 17.9527 282.82C42.6384 338.379 42.1501 398.843 21.4003 451.689C0.648345 504.529 -40.353 549.74 -96.7047 574.778C-131.455 590.218 -163.494 593.856 -203.446 593.801L-687.364 595.411L-687.376 597.026L-687.373 597.019Z" fill="#F5F5F5"/>
<path d="M-675.363 605.644L-176.21 603.997C-134.912 604.055 -101.54 600.278 -65.4293 584.228C51.6587 532.203 104.983 396.346 53.6919 280.908C15.0957 194.041 -71.7888 143.354 -162.278 145.754C-162.415 145.73 -162.554 145.729 -162.67 145.752C-162.722 145.764 -162.764 145.772 -162.805 145.784L-674.068 146.458L-674.082 148.069L-162.493 147.391L-162.435 147.365L-162.367 147.364C-72.4649 144.935 13.861 195.27 52.1979 281.566C77.6637 338.88 77.1577 401.257 55.7531 455.77C34.3486 510.284 -7.95395 556.922 -66.0854 582.751C-101.934 598.679 -134.989 602.434 -176.2 602.377L-675.349 604.034L-675.361 605.648L-675.363 605.644Z" fill="#EFEFEF"/>
<path d="M-663.355 614.27L-148.958 612.571C-106.399 612.636 -72.0173 608.739 -34.8013 592.203C85.8509 538.595 140.797 398.606 87.9436 279.651C48.172 190.139 -41.3557 137.911 -134.606 140.382C-134.743 140.358 -134.886 140.359 -134.997 140.38C-135.049 140.392 -135.092 140.399 -135.132 140.412L-662.02 141.109L-662.034 142.719L-134.825 142.021L-134.768 141.995L-134.688 141.994C-42.0339 139.488 46.9372 191.368 86.4544 280.307C112.7 339.377 112.179 403.671 90.1194 459.852C68.0554 516.036 24.4634 564.103 -35.4574 590.726C-72.4047 607.143 -106.471 611.013 -148.946 610.957L-663.341 612.66L-663.353 614.275L-663.355 614.27Z" fill="#E8E8E8"/>
<path d="M-651.361 622.894L-121.719 621.143C-77.9017 621.209 -42.5012 617.199 -4.18879 600.171C120.028 544.979 176.596 400.857 122.182 278.391C81.2369 186.238 -10.938 132.46 -106.939 135.009C-107.076 134.985 -107.222 134.981 -107.342 135.007C-107.395 135.018 -107.442 135.028 -107.482 135.04L-649.986 135.757L-650 137.367L-107.171 136.647L-107.108 136.62L-107.024 136.616C-11.6162 134.037 80.0048 187.46 120.695 279.04C147.724 339.871 147.187 406.069 124.47 463.926C101.754 521.782 56.8604 571.277 -4.84009 598.692C-42.886 615.596 -77.9689 619.584 -121.704 619.521L-651.349 621.279L-651.361 622.894Z" fill="#E3E3E3"/>
<path d="M-639.356 631.518L-94.4673 629.719C-49.3915 629.787 -12.9747 625.661 26.4363 608.144C154.217 551.369 212.405 403.11 156.431 277.132C114.308 182.328 19.49 127.011 -79.2743 129.636C-79.4162 129.614 -79.5613 129.611 -79.6773 129.634C-79.7364 129.643 -79.7817 129.658 -79.827 129.672L-637.947 130.407L-637.961 132.017L-79.5103 131.277L-79.4479 131.249L-79.3565 131.248C18.8092 128.594 113.073 183.557 154.942 277.788C182.748 340.37 182.195 408.485 158.824 468.009C135.453 527.534 89.2604 578.462 25.7802 606.667C-13.3691 624.062 -49.4656 628.16 -94.4574 628.1L-639.349 629.905L-639.361 631.52L-639.356 631.518Z" fill="#DEDEDE"/>
<path d="M-627.357 640.141L-67.2228 638.29C-20.8883 638.36 16.5421 634.123 57.0564 616.116C188.401 557.757 248.216 405.363 190.682 275.873C147.383 178.425 49.9223 121.567 -51.5955 124.265C-51.7395 124.239 -51.8874 124.242 -52.0103 124.263C-52.0694 124.272 -52.1147 124.286 -52.16 124.301L-625.905 125.059L-625.919 126.669L-51.8529 125.91L-51.7857 125.88L-51.6847 125.875C49.2344 123.147 146.144 179.655 189.185 276.527C217.774 340.87 217.206 410.89 193.178 472.089C169.147 533.284 121.66 585.643 56.4003 614.639C16.1574 632.52 -20.9555 636.735 -67.206 636.673L-627.35 638.528L-627.362 640.143L-627.357 640.141Z" fill="#D9D9D9"/>
<path d="M-615.344 648.766L-39.9703 646.865C7.6278 646.935 46.0698 642.583 87.6827 624.088C222.587 564.147 284.026 407.615 224.932 274.613C180.46 174.523 80.3468 116.118 -23.9224 118.894C-24.0664 118.867 -24.2164 118.866 -24.3372 118.891C-24.3963 118.901 -24.4464 118.917 -24.4937 118.927L-613.852 119.708L-613.866 121.318L-24.1798 120.539L-24.1126 120.509L-24.0046 120.506C79.6728 117.704 179.225 175.752 223.444 275.274C252.813 341.372 252.23 413.31 227.546 476.177C202.861 539.039 154.078 592.825 87.0335 622.614C45.6871 640.985 7.56276 645.314 -39.9486 645.246L-615.332 647.152L-615.344 648.766Z" fill="#D4D4D4"/>
<path d="M-603.339 657.388L-12.7178 655.44C36.139 655.511 75.5973 651.041 118.306 632.065C256.775 570.541 319.836 409.876 259.179 273.358C213.532 170.623 110.775 110.677 3.75263 113.526C3.60865 113.5 3.45389 113.5 3.33094 113.521C3.26706 113.532 3.21695 113.549 3.16957 113.559L-601.81 114.361L-601.824 115.971L3.4836 115.17L3.55077 115.141L3.66353 115.136C110.094 112.26 212.297 171.851 257.69 274.014C287.838 341.868 287.242 415.716 261.899 480.253C236.556 544.791 186.477 600.002 117.653 630.582C75.2077 649.441 36.0718 653.886 -12.7031 653.818L-603.327 655.773L-603.339 657.388Z" fill="#CECECE"/>
<path d="M-591.337 666.012L14.5287 664.011C64.6442 664.084 105.116 659.504 148.926 640.033C290.959 576.925 355.642 412.128 293.423 272.093C246.6 166.712 141.201 105.226 31.4244 108.149C31.2735 108.119 31.1187 108.12 30.9979 108.146C30.934 108.157 30.8771 108.171 30.8318 108.185L-589.768 109.008L-589.782 110.619L31.1458 109.797L31.2177 109.765L31.3374 109.763C140.522 106.814 245.369 167.95 291.935 272.754C322.865 342.364 322.253 418.129 296.255 484.334C270.259 550.544 218.881 607.188 148.272 638.561C104.729 657.908 64.5744 662.466 14.5428 662.401L-591.323 664.402L-591.335 666.016L-591.337 666.012Z" fill="#C7C7C7"/>
<path d="M-579.343 674.635L41.7674 672.582C93.1438 672.661 134.63 667.96 179.538 648.001C325.136 583.309 391.441 414.38 327.665 270.831C279.669 162.809 171.62 99.7806 59.0884 102.771C58.9375 102.742 58.7828 102.743 58.655 102.765C58.5911 102.777 58.5293 102.793 58.484 102.807L-577.731 103.649L-577.745 105.259L58.8028 104.417L58.8748 104.385L59.0041 104.378C170.945 101.35 278.437 164.031 326.181 271.485C357.892 342.856 357.26 420.528 330.61 488.406C303.955 556.286 251.28 614.356 178.892 646.52C134.25 666.355 93.0841 671.027 41.7917 670.956L-579.329 673.025L-579.341 674.64L-579.343 674.635Z" fill="#C2C2C2"/>
<path d="M-567.33 683.26L69.0267 681.159C121.662 681.24 164.164 676.421 210.171 655.974C359.333 589.699 427.263 416.63 361.922 269.572C312.751 158.904 202.056 94.3309 86.7681 97.4013C86.6173 97.372 86.4556 97.3703 86.33 97.3978C86.2613 97.4113 86.2043 97.4252 86.1543 97.4418L-565.682 98.3045L-565.696 99.9146L86.4682 99.0535L86.5402 99.0215L86.6715 99.0198C201.366 95.9185 311.508 160.142 360.425 270.237C392.917 343.364 392.272 422.946 364.964 492.498C337.655 562.047 283.686 621.548 209.513 654.504C163.772 674.828 121.59 679.617 69.0387 679.544L-567.323 681.647L-567.335 683.262L-567.33 683.26Z" fill="#BDBDBD"/>
<path d="M-555.32 691.884L96.2821 689.731C150.181 689.812 193.695 684.878 240.798 663.95C393.523 596.091 463.075 418.89 396.174 268.32C345.825 155.002 232.497 88.8842 114.446 92.0319C114.295 92.0026 114.134 92.0008 114.001 92.0257C113.932 92.0392 113.871 92.0553 113.821 92.0719L-553.631 92.9533L-553.645 94.5634L114.139 93.6814L114.216 93.6473L114.357 93.6413C231.809 90.4648 344.595 156.229 394.69 268.974C427.962 343.857 427.299 425.35 399.337 496.571C371.369 567.795 316.104 628.722 240.151 662.469C193.312 683.28 150.114 688.187 96.3037 688.112L-555.308 690.269L-555.32 691.884Z" fill="#B8B8B8"/>
<path d="M-543.328 700.507L123.521 698.307C178.678 698.389 223.211 693.343 271.41 671.921C427.7 602.479 498.872 421.141 430.41 267.059C378.886 151.096 262.908 83.4348 142.105 86.6603C141.95 86.6331 141.788 86.6313 141.655 86.6562C141.587 86.6697 141.525 86.6858 141.475 86.7024L-541.597 87.6047L-541.611 89.2148L141.794 88.3119L141.87 88.2778L142.018 88.2744C262.224 85.025 377.655 152.334 428.923 267.72C462.975 344.359 462.302 427.767 433.68 500.658C405.058 573.549 348.493 635.91 270.761 670.447C222.823 691.747 178.611 696.764 123.54 696.695L-543.316 698.892L-543.328 700.507Z" fill="#B3B3B3"/>
<path d="M-531.32 709.133L150.773 706.881C207.189 706.965 252.733 701.804 302.038 679.897C461.888 608.873 534.686 423.401 464.662 265.802C411.964 147.198 293.341 77.9921 169.78 81.2926C169.623 81.2607 169.456 81.261 169.323 81.2859C169.25 81.3015 169.188 81.3176 169.138 81.3342L-529.555 82.2573L-529.569 83.8675L169.457 82.9437L169.534 82.9096L169.691 82.902C292.655 79.5775 410.729 148.426 463.173 266.458C498.005 344.853 497.314 430.173 468.039 504.737C438.758 579.298 380.899 643.089 301.387 678.418C252.351 700.206 207.122 705.34 150.79 705.264L-531.308 707.519L-531.32 709.133Z" fill="#ACACAC"/>
<path d="M-519.314 717.755L178.024 715.45C235.699 715.536 282.26 710.258 332.663 687.862C496.077 615.255 570.502 425.648 498.918 264.538C445.044 143.288 323.773 72.5442 197.462 75.9109C197.304 75.879 197.138 75.8792 197 75.9062C196.927 75.9219 196.86 75.9401 196.805 75.9588L-517.503 76.9008L-517.517 78.5109L197.124 77.5684L197.206 77.5321L197.365 77.5293C323.083 74.1318 443.807 144.524 497.426 265.201C533.038 345.351 532.329 432.584 502.4 508.816C472.466 585.05 413.311 650.267 332.011 686.395C281.877 708.671 235.636 713.921 178.045 713.843L-519.306 716.142L-519.32 717.752L-519.314 717.755Z" fill="#A7A7A7"/>
<path d="M-507.306 726.374L205.274 724.023C264.208 724.111 311.782 718.722 363.286 695.832C530.264 621.641 606.309 427.897 533.165 263.276C478.116 139.38 354.2 67.091 225.132 70.5375C224.974 70.5056 224.806 70.5011 224.668 70.5281C224.588 70.5412 224.523 70.5642 224.469 70.5829L-505.459 71.5504L-505.473 73.1605L224.787 72.1924L224.874 72.154L224.876 72.1587L225.04 72.1538C353.516 68.6812 476.883 140.613 531.673 263.938C568.065 345.845 567.345 434.992 536.757 512.894C506.163 590.798 445.714 657.446 362.632 694.36C311.399 717.124 264.143 722.491 205.293 722.411L-507.297 724.766L-507.309 726.38L-507.306 726.374Z" fill="#A2A2A2"/>
<path d="M-495.288 734.997L232.536 732.595C292.734 732.682 341.319 727.178 393.917 703.802C564.46 628.027 642.126 430.151 567.42 262.013C511.197 135.476 384.636 61.6423 252.815 65.1618C252.65 65.1273 252.484 65.1277 252.341 65.1568C252.261 65.1699 252.197 65.1928 252.137 65.2137L-493.411 66.202L-493.425 67.8122L252.456 66.8231L252.547 66.7826L252.549 66.7874L252.713 66.7824C383.94 63.2321 509.955 136.714 565.923 262.678C603.095 346.34 602.358 437.399 571.116 516.974C539.868 596.546 478.12 664.627 393.259 702.332C340.927 725.584 292.657 731.061 232.544 730.982L-495.279 733.389L-495.291 735.004L-495.288 734.997Z" fill="#9C9C9C"/>
<path d="M-483.301 743.626L259.768 741.171C321.224 741.26 370.826 735.639 424.525 711.78C598.632 634.421 677.92 432.413 601.651 260.758C544.253 131.576 415.044 56.2038 280.467 59.7916C280.302 59.7571 280.131 59.7595 279.992 59.7818C279.911 59.7948 279.84 59.8152 279.785 59.8339L-481.378 60.841L-481.393 62.4511L280.109 61.4413L280.205 61.3987L280.218 61.4039L280.378 61.4009C414.363 57.7755 543.021 132.797 600.167 261.412C638.121 346.835 637.368 439.799 605.47 521.049C573.569 602.294 510.519 671.803 423.879 710.299C370.448 734.039 321.162 739.633 259.79 739.552L-483.289 742.011L-483.301 743.626Z" fill="#979797"/>
<path d="M-471.294 752.248L287.023 749.746C349.737 749.837 400.358 744.103 455.153 719.751C632.824 640.809 713.732 434.664 635.91 259.5C577.336 127.672 445.477 50.7571 308.149 54.4226C307.984 54.3881 307.811 54.3858 307.669 54.415C307.583 54.4302 307.512 54.4505 307.457 54.4692L-469.327 55.4972L-469.341 57.1073L307.781 56.0766L307.881 56.0318L307.897 56.0418L308.057 56.0388C444.796 52.3404 576.104 128.905 634.423 260.161C673.157 347.339 672.389 442.22 639.833 525.133C607.273 608.048 542.934 678.986 454.509 718.275C399.975 742.505 349.677 748.215 287.046 748.132L-471.282 750.633L-471.294 752.248Z" fill="#909090"/>
<path d="M670.149 258.237C689.554 301.912 699.706 348.145 700.317 395.648C700.909 441.532 692.626 486.662 675.689 529.783C658.759 572.907 634.03 611.845 602.199 645.517C569.238 680.382 530.065 708.039 485.768 727.721C428.347 753.234 375.678 758.405 314.264 758.32L-459.292 760.872L-459.28 759.257L314.281 756.703C375.489 756.789 427.966 751.641 485.119 726.247C529.214 706.655 568.213 679.121 601.022 644.419C632.709 610.901 657.321 572.14 674.182 529.211C691.039 486.285 699.282 441.36 698.695 395.683C698.082 348.396 687.979 302.374 668.66 258.893C639.874 194.106 592.681 140.25 532.191 103.151C473.138 66.9311 405.195 48.7782 335.722 50.6587L335.26 50.7053L-457.306 51.7523L-457.292 50.1422L335.113 49.0932C335.282 49.035 335.524 48.9843 335.814 49.0425C405.565 47.1802 473.768 65.4156 533.056 101.775C593.823 139.046 641.228 193.147 670.147 258.232" fill="#8C8C8C"/>
</g>
<defs>
<clipPath id="clip0_499_3752">
<rect width="701" height="710" fill="white" transform="translate(0 49)"/>
</clipPath>
</defs>
</svg>
