<svg width="591" height="374" viewBox="0 0 591 374" fill="none" xmlns="http://www.w3.org/2000/svg">
<g clip-path="url(#clip0_494_3623)">
<g filter="url(#filter0_d_494_3623)">
<mask id="mask0_494_3623" style="mask-type:luminance" maskUnits="userSpaceOnUse" x="0" y="-1" width="592" height="375">
<path d="M592 -1H0V374H592V-1Z" fill="white"/>
</mask>
<g mask="url(#mask0_494_3623)">
<path d="M592 -1H0V374H592V-1Z" fill="url(#paint0_linear_494_3623)" fill-opacity="0.5"/>
<mask id="mask1_494_3623" style="mask-type:luminance" maskUnits="userSpaceOnUse" x="0" y="-246" width="1420" height="1678">
<path d="M676.676 -245.997L1419.81 1041.15L743.138 1431.83L0.0026128 144.681L676.676 -245.997Z" fill="white"/>
</mask>
<g mask="url(#mask1_494_3623)">
<g opacity="0.1">
<path d="M843.419 1343.92L537.302 809.63C511.767 765.557 495.231 727.59 490.124 679.111C473.549 521.954 585.912 381.154 740.948 364.677C857.622 352.277 965.381 413.777 1018.61 511.911C1018.71 512.033 1018.79 512.176 1018.84 512.304C1018.86 512.365 1018.87 512.416 1018.89 512.467L1333.53 1059.11L1332 1060.01L1017.18 513.06L1017.17 512.98L1017.12 512.881C964.253 415.302 857.13 354.134 741.148 366.461C664.111 374.648 597.689 413.717 552.57 470.268C507.457 526.819 483.657 600.838 491.892 678.923C496.971 727.075 513.353 764.727 538.834 808.725L844.952 1343.02L843.419 1343.92Z" fill="url(#paint1_linear_494_3623)"/>
<path d="M828.595 1337.23L514.148 788.404C487.92 743.127 470.937 704.134 465.691 654.34C448.667 492.925 564.082 348.3 723.322 331.376C843.158 318.64 953.85 381.814 1008.52 482.61C1008.62 482.732 1008.71 482.874 1008.75 483.003C1008.77 483.064 1008.78 483.121 1008.8 483.171L1332 1044.69L1330.47 1045.59L1007.09 483.759L1007.08 483.679L1007.03 483.575C952.709 383.328 842.666 320.492 723.51 333.156C644.371 341.566 576.131 381.705 529.782 439.797C483.439 497.889 458.992 573.927 467.453 654.147C472.671 703.619 489.499 742.297 515.679 787.492L830.127 1336.33L828.595 1337.23Z" fill="url(#paint2_linear_494_3623)"/>
<path d="M813.778 1330.54L490.996 767.179C464.074 720.704 446.645 680.679 441.255 629.578C423.781 463.897 542.242 315.455 705.693 298.083C828.697 285.011 942.309 349.853 998.42 453.31C998.52 453.433 998.61 453.58 998.66 453.709C998.68 453.776 998.69 453.833 998.71 453.883L1330.48 1030.28L1328.95 1031.18L997 454.471L996.99 454.391L996.93 454.281C941.175 351.373 828.205 286.862 705.887 299.862C624.646 308.496 554.592 349.698 507.014 409.337C459.436 468.977 434.343 547.034 443.028 629.383C448.385 680.17 465.66 719.874 492.534 766.272L815.31 1329.64L813.778 1330.54Z" fill="url(#paint3_linear_494_3623)"/>
<path d="M798.965 1323.86L467.854 745.951C440.238 698.279 422.357 657.229 416.834 604.806C398.91 434.861 520.418 282.601 688.079 264.782C814.25 251.373 930.783 317.884 988.339 424.003C988.449 424.13 988.529 424.278 988.579 424.407C988.599 424.474 988.619 424.536 988.629 424.587L1328.96 1015.87L1327.44 1016.77L986.92 425.175L986.911 425.089L986.847 424.974C929.643 319.404 813.746 253.225 688.267 266.561C604.923 275.419 533.052 317.691 484.244 378.871C435.43 440.052 409.685 520.134 418.596 604.619C424.091 656.72 441.818 697.456 469.38 745.052L800.492 1322.96L798.96 1323.86H798.965Z" fill="url(#paint4_linear_494_3623)"/>
<path d="M784.153 1317.18L444.712 724.738C416.397 675.869 398.074 633.786 392.413 580.049C374.039 405.839 498.594 249.761 670.459 231.489C799.792 217.744 919.252 285.929 978.256 394.709C978.367 394.836 978.451 394.984 978.5 395.118C978.524 395.185 978.543 395.253 978.554 395.304L1327.45 1001.47L1325.93 1002.36L976.845 395.886L976.836 395.8L976.771 395.674C918.128 287.436 799.305 219.589 670.652 233.262C585.201 242.344 511.522 285.684 461.479 348.406C411.436 411.134 385.044 493.235 394.179 579.85C399.813 633.265 417.987 675.027 446.248 723.82L785.68 1316.29L784.147 1317.19L784.153 1317.18Z" fill="url(#paint5_linear_494_3623)"/>
<path d="M769.332 1310.49L421.555 703.505C392.547 653.439 373.777 610.323 367.977 555.272C349.153 376.797 476.76 216.895 652.831 198.182C785.331 184.1 907.718 253.954 968.16 365.401C968.271 365.529 968.362 365.682 968.405 365.816C968.429 365.889 968.448 365.951 968.459 366.008L1325.92 987.053L1324.4 987.953L966.751 366.596L966.742 366.51L966.671 366.384C906.584 255.485 784.834 185.964 653.02 199.973C565.466 209.278 489.974 253.682 438.696 317.951C387.423 382.22 360.379 466.342 369.74 555.091C375.512 609.821 394.133 652.614 423.088 702.605L770.865 1309.6L769.332 1310.5V1310.49Z" fill="url(#paint6_linear_494_3623)"/>
<path d="M754.508 1303.81L398.402 682.274C368.699 631.005 349.484 586.863 343.54 530.504C324.266 347.764 454.92 184.044 635.195 164.884C770.869 150.465 896.175 221.976 958.063 336.097C958.173 336.224 958.264 336.377 958.313 336.517C958.338 336.59 958.357 336.658 958.368 336.714L1324.4 972.636L1322.87 973.536L956.659 337.296L956.649 337.205L956.578 337.067C895.046 223.501 770.376 152.311 635.388 166.657C545.732 176.186 468.428 221.659 415.919 287.469C363.412 353.285 335.721 439.425 345.306 530.304C351.217 586.348 370.285 630.175 399.933 681.362L756.04 1302.91L754.508 1303.81Z" fill="url(#paint7_linear_494_3623)"/>
<path d="M739.7 1297.13L375.259 661.06C344.862 608.594 325.194 563.421 319.117 505.746C299.394 318.742 433.1 151.203 617.579 131.597C756.421 116.841 884.654 190.026 947.98 306.809C948.091 306.942 948.182 307.095 948.231 307.235C948.256 307.308 948.275 307.375 948.286 307.432L1322.88 958.237L1321.36 959.136L946.577 308.014L946.567 307.922L946.489 307.78C883.514 191.552 755.917 118.694 617.767 133.376C526.009 143.128 446.886 189.665 393.149 257.022C339.411 324.38 311.069 412.545 320.879 505.553C326.928 562.911 346.448 607.764 376.785 660.155L741.232 1296.23L739.7 1297.13Z" fill="url(#paint8_linear_494_3623)"/>
<path d="M724.88 1290.45L352.109 639.833C321.019 586.169 300.905 539.97 294.683 480.976C274.51 289.713 411.263 118.35 599.953 98.296C741.956 83.2042 873.115 158.057 937.886 277.507C938.003 277.64 938.094 277.799 938.143 277.939C938.169 278.017 938.187 278.085 938.199 278.142L1321.36 943.829L1319.83 944.729L936.49 278.724L936.48 278.632L936.401 278.478C871.981 159.582 741.463 85.0559 600.146 100.075C506.285 110.05 425.35 157.656 370.377 226.555C315.41 295.459 286.416 385.644 296.45 480.782C302.638 539.455 322.605 585.339 353.641 638.927L726.412 1289.55L724.88 1290.45Z" fill="url(#paint9_linear_494_3623)"/>
<path d="M710.062 1283.76L328.961 618.603C297.178 563.742 276.617 516.51 270.256 456.202C249.634 260.674 389.432 85.4878 582.327 64.9873C727.498 49.5589 861.578 126.086 927.798 248.192C927.915 248.324 928.006 248.483 928.056 248.628C928.081 248.707 928.101 248.78 928.113 248.843L1319.84 929.408L1318.31 930.307L926.404 249.425L926.393 249.327L926.308 249.174C860.445 127.617 727 51.4169 582.515 66.7725C486.552 76.9712 403.804 125.646 347.601 196.086C291.399 266.532 261.758 358.736 272.013 456.015C278.339 516.002 298.752 562.913 330.482 617.699L711.595 1282.87L710.068 1283.77L710.062 1283.76Z" fill="url(#paint10_linear_494_3623)"/>
<path d="M695.245 1277.07L305.81 597.38C273.333 541.321 252.319 493.064 245.825 431.435C224.753 231.642 367.604 52.6378 564.703 31.6905C713.042 15.9253 850.049 94.1213 917.707 218.894C917.824 219.027 917.921 219.185 917.971 219.33C918.002 219.414 918.016 219.488 918.028 219.551L1318.32 914.999L1316.79 915.898L916.319 220.133L916.308 220.029L916.303 220.03L916.217 219.871C848.909 95.6473 712.544 17.7775 564.891 33.4755C466.826 43.8976 382.259 93.6363 324.827 165.623C267.396 237.616 237.103 331.839 247.587 431.248C254.053 492.549 274.913 540.492 307.336 596.475L696.772 1276.18L695.24 1277.08L695.245 1277.07Z" fill="url(#paint11_linear_494_3623)"/>
<path d="M680.421 1270.38L282.656 576.142C249.485 518.88 228.025 469.596 221.393 406.658C199.871 202.601 345.769 19.7786 547.078 -1.61624C698.579 -17.7174 838.512 62.1465 907.614 189.581C907.738 189.719 907.829 189.877 907.879 190.029C907.911 190.113 907.925 190.187 907.937 190.255L1316.79 900.586L1315.27 901.485L906.228 190.837L906.217 190.728L906.211 190.729L906.126 190.569C837.379 63.6832 698.082 -15.8537 547.267 0.174655C447.1 10.8203 360.72 61.628 302.053 135.156C243.391 208.69 212.447 304.939 223.156 406.477C229.76 469.093 251.072 518.061 284.189 575.247L681.948 1269.48L680.416 1270.38H680.421Z" fill="url(#paint12_linear_494_3623)"/>
<path d="M665.612 1263.71L259.518 554.934C225.653 496.474 203.746 446.159 196.97 381.907C174.998 173.585 323.943 -13.0553 529.462 -34.8976C684.13 -51.3354 826.985 30.203 897.537 160.299C897.66 160.436 897.752 160.601 897.807 160.746C897.839 160.829 897.859 160.909 897.871 160.971L1315.29 886.179L1313.76 887.078L896.161 161.547L896.149 161.433L896.137 161.422L896.052 161.269C825.861 31.7154 683.643 -49.4902 529.655 -33.1246C427.38 -22.255 339.193 29.6156 279.29 104.691C219.393 179.767 187.803 278.04 198.736 381.707C205.479 445.638 227.238 495.638 261.049 554.022L667.144 1262.81L665.612 1263.71Z" fill="url(#paint13_linear_494_3623)"/>
<path d="M650.792 1257.03L236.363 533.706C201.804 474.05 179.445 422.703 172.535 357.136C150.114 144.549 302.111 -45.9101 511.829 -68.2043C669.665 -84.9788 815.446 -1.76631 887.436 130.992C887.56 131.13 887.657 131.293 887.708 131.445C887.74 131.534 887.76 131.613 887.772 131.676L1313.76 871.767L1312.23 872.666L886.062 132.252L886.05 132.132L886.031 132.122L885.946 131.969C814.312 -0.246964 669.167 -83.1265 512.017 -66.4249C407.639 -55.3318 317.634 -2.39175 256.507 74.225C195.381 150.848 163.138 251.135 174.296 356.937C181.178 422.188 203.384 473.215 237.888 532.796L652.324 1256.13L650.792 1257.03Z" fill="url(#paint14_linear_494_3623)"/>
<path d="M494.213 -101.496C441.922 -95.9389 392.279 -80.1632 346.67 -54.6066C302.614 -29.9232 264.155 2.79618 232.368 42.648C200.574 82.4946 177.056 127.463 162.461 176.295C147.349 226.859 142.522 279.372 148.112 332.374C155.358 401.08 179.38 454.067 213.218 512.488L635.976 1250.34L637.509 1249.44L214.75 511.583C181.024 453.358 157.086 400.565 149.873 332.181C144.309 279.42 149.115 227.142 164.154 176.812C178.681 128.202 202.095 83.4415 233.74 43.7674C265.387 4.09888 303.672 -28.4685 347.528 -53.0436C392.932 -78.4797 442.347 -94.1848 494.406 -99.7175C571.975 -107.961 649.242 -92.6663 717.849 -55.4919C784.828 -19.2008 839.474 35.4944 875.868 102.67L876.077 103.135L1310.72 858.261L1312.25 857.362L877.695 102.388C877.657 102.195 877.573 101.937 877.358 101.693C840.793 34.2629 785.926 -20.6349 718.685 -57.0724C649.762 -94.4163 572.144 -109.779 494.218 -101.497" fill="url(#paint15_linear_494_3623)"/>
</g>
</g>
</g>
<path d="M591 0H1V373H591V0Z" stroke="url(#paint16_radial_494_3623)" stroke-width="2"/>
</g>
</g>
<defs>
<filter id="filter0_d_494_3623" x="-12" y="-9" width="616" height="399" filterUnits="userSpaceOnUse" color-interpolation-filters="sRGB">
<feFlood flood-opacity="0" result="BackgroundImageFix"/>
<feColorMatrix in="SourceAlpha" type="matrix" values="0 0 0 0 0 0 0 0 0 0 0 0 0 0 0 0 0 0 127 0" result="hardAlpha"/>
<feOffset dy="4"/>
<feGaussianBlur stdDeviation="6"/>
<feComposite in2="hardAlpha" operator="out"/>
<feColorMatrix type="matrix" values="0 0 0 0 0 0 0 0 0 0 0 0 0 0 0 0 0 0 0.03 0"/>
<feBlend mode="normal" in2="BackgroundImageFix" result="effect1_dropShadow_494_3623"/>
<feBlend mode="normal" in="SourceGraphic" in2="effect1_dropShadow_494_3623" result="shape"/>
</filter>
<linearGradient id="paint0_linear_494_3623" x1="13.9421" y1="27.3956" x2="497.533" y2="405.725" gradientUnits="userSpaceOnUse">
<stop stop-color="white" stop-opacity="0.7"/>
<stop offset="1" stop-color="white"/>
</linearGradient>
<linearGradient id="paint1_linear_494_3623" x1="1344.16" y1="-103.682" x2="-196.597" y2="818.597" gradientUnits="userSpaceOnUse">
<stop stop-color="#BDACFF"/>
<stop offset="1" stop-color="#6B47F5"/>
</linearGradient>
<linearGradient id="paint2_linear_494_3623" x1="1344.16" y1="-103.682" x2="-196.598" y2="818.597" gradientUnits="userSpaceOnUse">
<stop stop-color="#BDACFF"/>
<stop offset="1" stop-color="#6B47F5"/>
</linearGradient>
<linearGradient id="paint3_linear_494_3623" x1="1344.16" y1="-103.681" x2="-196.597" y2="818.598" gradientUnits="userSpaceOnUse">
<stop stop-color="#BDACFF"/>
<stop offset="1" stop-color="#6B47F5"/>
</linearGradient>
<linearGradient id="paint4_linear_494_3623" x1="1344.16" y1="-103.683" x2="-196.598" y2="818.596" gradientUnits="userSpaceOnUse">
<stop stop-color="#BDACFF"/>
<stop offset="1" stop-color="#6B47F5"/>
</linearGradient>
<linearGradient id="paint5_linear_494_3623" x1="1344.16" y1="-103.681" x2="-196.598" y2="818.598" gradientUnits="userSpaceOnUse">
<stop stop-color="#BDACFF"/>
<stop offset="1" stop-color="#6B47F5"/>
</linearGradient>
<linearGradient id="paint6_linear_494_3623" x1="1344.16" y1="-103.681" x2="-196.597" y2="818.598" gradientUnits="userSpaceOnUse">
<stop stop-color="#BDACFF"/>
<stop offset="1" stop-color="#6B47F5"/>
</linearGradient>
<linearGradient id="paint7_linear_494_3623" x1="1344.16" y1="-103.682" x2="-196.598" y2="818.597" gradientUnits="userSpaceOnUse">
<stop stop-color="#BDACFF"/>
<stop offset="1" stop-color="#6B47F5"/>
</linearGradient>
<linearGradient id="paint8_linear_494_3623" x1="1344.16" y1="-103.682" x2="-196.597" y2="818.597" gradientUnits="userSpaceOnUse">
<stop stop-color="#BDACFF"/>
<stop offset="1" stop-color="#6B47F5"/>
</linearGradient>
<linearGradient id="paint9_linear_494_3623" x1="1344.16" y1="-103.681" x2="-196.597" y2="818.598" gradientUnits="userSpaceOnUse">
<stop stop-color="#BDACFF"/>
<stop offset="1" stop-color="#6B47F5"/>
</linearGradient>
<linearGradient id="paint10_linear_494_3623" x1="1344.16" y1="-103.682" x2="-196.597" y2="818.596" gradientUnits="userSpaceOnUse">
<stop stop-color="#BDACFF"/>
<stop offset="1" stop-color="#6B47F5"/>
</linearGradient>
<linearGradient id="paint11_linear_494_3623" x1="1344.16" y1="-103.681" x2="-196.598" y2="818.597" gradientUnits="userSpaceOnUse">
<stop stop-color="#BDACFF"/>
<stop offset="1" stop-color="#6B47F5"/>
</linearGradient>
<linearGradient id="paint12_linear_494_3623" x1="1344.16" y1="-103.681" x2="-196.598" y2="818.597" gradientUnits="userSpaceOnUse">
<stop stop-color="#BDACFF"/>
<stop offset="1" stop-color="#6B47F5"/>
</linearGradient>
<linearGradient id="paint13_linear_494_3623" x1="1344.16" y1="-103.681" x2="-196.597" y2="818.597" gradientUnits="userSpaceOnUse">
<stop stop-color="#BDACFF"/>
<stop offset="1" stop-color="#6B47F5"/>
</linearGradient>
<linearGradient id="paint14_linear_494_3623" x1="1344.16" y1="-103.681" x2="-196.598" y2="818.598" gradientUnits="userSpaceOnUse">
<stop stop-color="#BDACFF"/>
<stop offset="1" stop-color="#6B47F5"/>
</linearGradient>
<linearGradient id="paint15_linear_494_3623" x1="1344.16" y1="-103.682" x2="-196.597" y2="818.597" gradientUnits="userSpaceOnUse">
<stop stop-color="#BDACFF"/>
<stop offset="1" stop-color="#6B47F5"/>
</linearGradient>
<radialGradient id="paint16_radial_494_3623" cx="0" cy="0" r="1" gradientUnits="userSpaceOnUse" gradientTransform="translate(207.114 382.744) rotate(-66.7084) scale(447.407 687.579)">
<stop stop-color="white" stop-opacity="0"/>
<stop offset="1" stop-color="white"/>
</radialGradient>
<clipPath id="clip0_494_3623">
<rect width="591" height="374" fill="white"/>
</clipPath>
</defs>
</svg>
