<svg width="486" height="243" viewBox="0 0 486 243" fill="none" xmlns="http://www.w3.org/2000/svg">
<path d="M236.955 63.4086L197.84 83.5404C196.409 84.1647 195.188 85.2069 194.33 86.5374C193.471 87.868 193.013 89.4281 193.012 91.0237V109.799C192.966 126.887 197.817 143.611 206.963 157.892C214.013 168.877 223.351 182.959 238.905 191H245.918C263.225 185.584 276.144 171.147 284.047 158.806C293.193 144.525 298.044 127.801 297.998 110.713V91.0237C298 89.4324 297.548 87.8754 296.696 86.5453C295.845 85.2153 294.632 84.1705 293.207 83.5404L248.618 64.0338C246.63 63.197 238.942 62.5429 236.955 63.4086Z" fill="#6B47F5"/>
<path opacity="0.3" d="M236.955 63.4086L197.84 83.5404C196.409 84.1647 195.188 85.2069 194.33 86.5374C193.471 87.868 193.013 89.4281 193.012 91.0237V109.799C192.966 126.887 197.817 143.611 206.963 157.892C214.013 168.877 223.351 182.959 238.905 191H245.918C263.225 185.584 276.144 171.147 284.047 158.806C293.193 144.525 298.044 127.801 297.998 110.713V91.0237C298 89.4324 297.548 87.8754 296.696 86.5453C295.845 85.2153 294.632 84.1705 293.207 83.5404L248.618 64.0338C246.63 63.197 238.942 62.5429 236.955 63.4086Z" fill="black"/>
<path d="M235.38 64.0343L190.819 83.5409C189.389 84.1656 188.169 85.2082 187.312 86.5389C186.455 87.8695 185.999 89.4294 186 91.0242V109.8C186.002 127.185 191.03 144.18 200.447 158.633C209.864 173.087 223.248 184.351 238.906 191C256.213 185.585 269.132 171.147 277.026 158.807C286.176 144.527 291.027 127.802 290.977 110.714V91.0242C290.978 89.4294 290.521 87.8695 289.664 86.5389C288.808 85.2082 287.588 84.1656 286.158 83.5409L241.643 64.0343C240.654 63.5993 239.588 63.375 238.512 63.375C237.435 63.375 236.37 63.5993 235.38 64.0343Z" fill="url(#paint0_linear_494_3660)"/>
<g filter="url(#filter0_d_494_3660)">
<path fill-rule="evenodd" clip-rule="evenodd" d="M224.552 112.878V104.346C224.653 100.117 226.361 96.096 229.312 93.1415C232.263 90.187 236.222 88.5332 240.345 88.5332C244.469 88.5332 248.428 90.187 251.379 93.1415C254.33 96.096 256.038 100.117 256.138 104.346V112.878H256.184C259.192 112.878 261.631 115.38 261.631 118.466V141.512C261.631 144.599 259.192 147.101 256.184 147.101H224.514C221.505 147.101 219.066 144.599 219.066 141.512V118.466C219.066 115.38 221.505 112.878 224.514 112.878H224.552ZM251.385 112.878V104.346C251.301 101.399 250.101 98.6019 248.04 96.548C245.979 94.494 243.219 93.3451 240.345 93.3451C237.472 93.3451 234.712 94.494 232.651 96.548C230.589 98.6019 229.39 101.399 229.306 104.346V112.878H251.385Z" fill="white"/>
</g>
<path d="M243.615 130.874C244.044 130.435 244.384 129.914 244.616 129.339C244.848 128.765 244.966 128.149 244.965 127.527C244.971 126.631 244.732 125.751 244.276 124.987C243.82 124.222 243.165 123.604 242.385 123.201C241.605 122.798 240.73 122.627 239.86 122.707C238.99 122.786 238.159 123.114 237.461 123.652C236.763 124.191 236.225 124.919 235.909 125.754C235.592 126.589 235.509 127.498 235.669 128.379C235.83 129.26 236.227 130.078 236.816 130.739C237.404 131.401 238.162 131.881 239.002 132.125L237.999 136.684H242.453L241.515 132.125C242.293 131.897 243.001 131.466 243.568 130.874" fill="#3F3A60"/>
<g filter="url(#filter1_d_494_3660)">
<rect x="16" y="34" width="48" height="48" rx="8" fill="#F9FAFB" shape-rendering="crispEdges"/>
<rect x="16.5" y="34.5" width="47" height="47" rx="7.5" stroke="url(#paint1_radial_494_3660)" shape-rendering="crispEdges"/>
<path d="M47.1413 53.5311C46.9507 53.3378 46.6613 53.2791 46.4133 53.3818C46.1627 53.4844 45.9987 53.7285 45.9987 53.9991C45.9987 55.0151 45.784 55.9431 45.3627 56.7591C44.7053 58.0325 43.6347 58.8525 42.74 59.3525C46.5533 50.5951 39.116 45.4978 39.036 45.4444C38.8307 45.3071 38.5667 45.2951 38.352 45.4111C38.1347 45.5271 38 45.7538 38 45.9991C38 48.9285 36.0493 50.6578 34.1613 52.3311C33.7 52.7391 33.256 53.1337 32.8613 53.5284C30.856 55.5337 30 57.6684 30 60.6671C30 66.1804 34.4853 70.6671 40 70.6671C45.5147 70.6671 50 66.1804 50 60.6671C50 57.9778 48.9587 55.3764 47.1413 53.5311ZM40 69.3325C35.2213 69.3325 31.3333 65.4445 31.3333 60.6658C31.3333 58.0205 32.0493 56.2258 33.8053 54.4711C34.1813 54.0951 34.6067 53.7191 35.0467 53.3285C36.7093 51.8551 38.7253 50.0685 39.22 47.3032C41.0627 48.9978 44.6627 53.4991 40.7547 60.3351C40.6213 60.5671 40.6413 60.8551 40.8027 61.0685C40.964 61.2818 41.236 61.3764 41.496 61.3124C41.6373 61.2764 44.9773 60.4111 46.5493 57.3711C46.8267 56.8351 47.032 56.2618 47.1627 55.6564C48.1307 57.0991 48.668 58.8578 48.668 60.6645C48.6667 65.4445 44.7787 69.3325 40 69.3325Z" fill="url(#paint2_linear_494_3660)"/>
</g>
<g filter="url(#filter2_d_494_3660)">
<rect x="32" y="158" width="48" height="48" rx="8" fill="#F9FAFB" shape-rendering="crispEdges"/>
<rect x="32.5" y="158.5" width="47" height="47" rx="7.5" stroke="url(#paint3_radial_494_3660)" shape-rendering="crispEdges"/>
<path d="M52.012 180.001C54.9534 180.001 57.3454 177.609 57.3454 174.667C57.3454 171.726 54.9534 169.334 52.012 169.334C49.0707 169.334 46.6787 171.726 46.6787 174.667C46.6787 177.609 49.0707 180.001 52.012 180.001ZM52.012 170.667C54.2174 170.667 56.012 172.462 56.012 174.667C56.012 176.873 54.2174 178.667 52.012 178.667C49.8067 178.667 48.012 176.873 48.012 174.667C48.012 172.462 49.8054 170.667 52.012 170.667ZM54.6667 182.667H49.3333C43.92 182.667 42 186.631 42 190.026C42 193.062 43.6147 194.667 46.6707 194.667H57.3293C60.3853 194.667 62 193.062 62 190.026C62 186.631 60.08 182.667 54.6667 182.667ZM57.3293 193.334H46.6707C44.3627 193.334 43.3333 192.314 43.3333 190.026C43.3333 188.613 43.7653 184.001 49.3333 184.001H54.6667C60.3773 184.001 60.6667 189.019 60.6667 190.026C60.6667 192.314 59.6386 193.334 57.3293 193.334ZM59.1066 179.385C58.8439 179.127 58.8387 178.705 59.096 178.442C59.352 178.179 59.7774 178.174 60.0387 178.431C60.5801 178.962 61.3053 179.254 62.0786 179.254C63.7119 179.254 65.04 177.926 65.04 176.294C65.04 174.662 63.7119 173.334 62.0786 173.334C61.6146 173.334 61.1934 173.43 60.8241 173.621C60.4987 173.789 60.0946 173.661 59.9266 173.333C59.7573 173.005 59.8867 172.603 60.2147 172.435C60.7747 172.147 61.4026 172.002 62.0786 172.002C64.4466 172.002 66.3734 173.929 66.3734 176.295C66.3734 178.662 64.4479 180.589 62.0786 180.589C60.9546 180.587 59.8986 180.161 59.1066 179.385ZM70 188.241C70 190.665 68.6547 192.001 66.2134 192.001H65.3066C64.9386 192.001 64.64 191.702 64.64 191.334C64.64 190.966 64.9386 190.667 65.3066 190.667H66.2134C67.9094 190.667 68.6667 189.919 68.6667 188.241C68.6667 187.177 68.3413 183.707 64.1466 183.707H62.132C61.764 183.707 61.4653 183.409 61.4653 183.041C61.4653 182.673 61.764 182.374 62.132 182.374H64.1466C68.468 182.374 70 185.534 70 188.241Z" fill="url(#paint4_linear_494_3660)"/>
</g>
<g filter="url(#filter3_d_494_3660)">
<rect x="378" y="174" width="48" height="48" rx="8" fill="#F9FAFB" shape-rendering="crispEdges"/>
<rect x="378.5" y="174.5" width="47" height="47" rx="7.5" stroke="url(#paint5_radial_494_3660)" shape-rendering="crispEdges"/>
<path d="M409.141 193.531C408.951 193.338 408.661 193.279 408.413 193.382C408.163 193.484 407.999 193.728 407.999 193.999C407.999 195.015 407.784 195.943 407.363 196.759C406.705 198.032 405.635 198.852 404.74 199.352C408.553 190.595 401.116 185.498 401.036 185.444C400.831 185.307 400.567 185.295 400.352 185.411C400.135 185.527 400 185.754 400 185.999C400 188.928 398.049 190.658 396.161 192.331C395.7 192.739 395.256 193.134 394.861 193.528C392.856 195.534 392 197.668 392 200.667C392 206.18 396.485 210.667 402 210.667C407.515 210.667 412 206.18 412 200.667C412 197.978 410.959 195.376 409.141 193.531ZM402 209.332C397.221 209.332 393.333 205.444 393.333 200.666C393.333 198.02 394.049 196.226 395.805 194.471C396.181 194.095 396.607 193.719 397.047 193.328C398.709 191.855 400.725 190.068 401.22 187.303C403.063 188.998 406.663 193.499 402.755 200.335C402.621 200.567 402.641 200.855 402.803 201.068C402.964 201.282 403.236 201.376 403.496 201.312C403.637 201.276 406.977 200.411 408.549 197.371C408.827 196.835 409.032 196.262 409.163 195.656C410.131 197.099 410.668 198.858 410.668 200.664C410.667 205.444 406.779 209.332 402 209.332Z" fill="url(#paint6_linear_494_3660)"/>
</g>
<g filter="url(#filter4_d_494_3660)">
<rect x="422" y="99" width="48" height="48" rx="8" fill="#F9FAFB" shape-rendering="crispEdges"/>
<rect x="422.5" y="99.5" width="47" height="47" rx="7.5" stroke="url(#paint7_radial_494_3660)" shape-rendering="crispEdges"/>
<path d="M441.441 128.834C441.441 129.11 441.665 129.334 441.941 129.334C442.217 129.334 442.441 129.11 442.441 128.834H441.441ZM438.97 135.967L439.07 136.457L439.07 136.457L438.97 135.967ZM439.158 136.439C439.429 136.384 439.604 136.12 439.549 135.849C439.494 135.579 439.23 135.404 438.959 135.459L439.158 136.439ZM440.635 134.466L440.278 134.816L440.278 134.816L440.635 134.466ZM440.635 132.098L440.278 131.747L440.635 132.098ZM443.546 135.057L443.903 135.408L443.546 135.057ZM441.217 135.057L441.574 134.707L441.574 134.707L441.217 135.057ZM450.534 125.587L450.178 125.938L450.178 125.938L450.534 125.587ZM450.534 127.955L450.178 127.604L450.534 127.955ZM449.952 124.995L450.308 124.645L450.308 124.645L449.952 124.995ZM447.622 124.995L447.979 125.346L447.622 124.995ZM458 120.045V120.545H458.5V120.045H458ZM454.294 120.045V119.545H453.794V120.045H454.294ZM454.294 122.137L454.629 122.508L454.794 122.359V122.137H454.294ZM442.765 109.5H439.471V110.5H442.765V109.5ZM439.471 109.5H439.059V110.5H439.471V109.5ZM438.971 110V113.348H439.971V110H438.971ZM438.971 113.348V120.882H439.971V113.348H438.971ZM442.765 112.848H439.471V113.848H442.765V112.848ZM438.647 121.8H440.294V120.8H438.647V121.8ZM437.5 134.325V122.974H436.5V134.325H437.5ZM441.441 122.974V128.834H442.441V122.974H441.441ZM439.07 136.457L439.158 136.439L438.959 135.459L438.87 135.477L439.07 136.457ZM436.5 134.325C436.5 135.688 437.731 136.729 439.07 136.457L438.87 135.477C438.171 135.619 437.5 135.076 437.5 134.325H436.5ZM440.294 121.8C440.92 121.8 441.441 122.318 441.441 122.974H442.441C442.441 121.781 441.487 120.8 440.294 120.8V121.8ZM438.647 120.8C437.454 120.8 436.5 121.781 436.5 122.974H437.5C437.5 122.318 438.021 121.8 438.647 121.8V120.8ZM449.595 125.346L450.178 125.938L450.89 125.237L450.308 124.645L449.595 125.346ZM450.178 127.604L443.19 134.707L443.903 135.408L450.89 128.305L450.178 127.604ZM441.574 134.707L440.991 134.115L440.278 134.816L440.861 135.408L441.574 134.707ZM440.991 132.449L447.979 125.346L447.266 124.645L440.278 131.747L440.991 132.449ZM440.991 134.115C440.54 133.656 440.54 132.908 440.991 132.449L440.278 131.747C439.444 132.596 439.444 133.968 440.278 134.816L440.991 134.115ZM443.19 134.707C442.743 135.161 442.021 135.161 441.574 134.707L440.861 135.408C441.7 136.261 443.064 136.261 443.903 135.408L443.19 134.707ZM450.178 125.938C450.629 126.397 450.629 127.145 450.178 127.604L450.89 128.305C451.725 127.457 451.725 126.085 450.89 125.237L450.178 125.938ZM450.308 124.645C449.469 123.792 448.105 123.792 447.266 124.645L447.979 125.346C448.426 124.891 449.148 124.891 449.595 125.346L450.308 124.645ZM457.5 115.859V120.045H458.5V115.859H457.5ZM458 119.545H454.294V120.545H458V119.545ZM453.794 120.045V122.137H454.794V120.045H453.794ZM453.959 121.766L450.253 125.115L450.924 125.857L454.629 122.508L453.959 121.766Z" fill="url(#paint8_linear_494_3660)"/>
</g>
<g filter="url(#filter5_d_494_3660)">
<rect x="392" y="11" width="48" height="48" rx="8" fill="#F9FAFB" shape-rendering="crispEdges"/>
<rect x="392.5" y="11.5" width="47" height="47" rx="7.5" stroke="url(#paint9_radial_494_3660)" shape-rendering="crispEdges"/>
<path d="M405.5 35.5L401 29H407.5L406.5 23L412.5 26L416 21L419 26L426 23L424 29H430L426.5 35M404.499 47.5H402.141C401.536 47.5 401.07 46.9673 401.15 46.3678L401.883 40.8678C401.949 40.371 402.373 40 402.874 40H404.609C406.081 40 407.434 39.192 408.131 37.8964L410.499 33.5L413.499 34L411.499 38.5L414.499 43L413.066 46.3435C413.021 46.4467 412.999 46.5579 412.999 46.6703C412.999 47.1285 412.627 47.5 412.169 47.5H408.999M421 47.5H417.5L419 43L416.5 38.5L418.714 34.5144C418.891 34.1969 419.225 34 419.588 34H421.906C422.272 34 422.609 34.1999 422.784 34.5211L425.5 39.5H427C429.209 39.5 431 41.2909 431 43.5V46.5C431 47.0523 430.552 47.5 430 47.5H425M408.999 48C408.999 49.1046 408.103 50 406.999 50C405.894 50 404.999 49.1046 404.999 48C404.999 46.8954 405.894 46 406.999 46C408.103 46 408.999 46.8954 408.999 48ZM425 48C425 49.1046 424.105 50 423 50C421.895 50 421 49.1046 421 48C421 46.8954 421.895 46 423 46C424.105 46 425 46.8954 425 48Z" stroke="url(#paint10_linear_494_3660)" stroke-linecap="round" stroke-linejoin="round"/>
</g>
<path d="M92 187L134.5 187C141.68 187 147.5 181.18 147.5 174V174C147.5 166.82 153.32 161 160.5 161L186 161" stroke="#B2B4DF"/>
<path d="M80 58L122.5 58C129.68 58 135.5 63.8203 135.5 71V71C135.5 78.1797 141.32 84 148.5 84L174 84" stroke="#B2B4DF"/>
<path d="M305 110L356.947 110C364.127 110 369.947 115.82 369.947 123V123C369.947 130.18 375.767 136 382.947 136L415 136" stroke="#B2B4DF"/>
<path d="M276 180L319.681 180C326.861 180 332.681 185.82 332.681 193V193C332.681 200.18 338.501 206 345.681 206L372 206" stroke="#B2B4DF"/>
<path d="M305 85L329.734 85C342.16 85 352.234 74.9264 352.234 62.5V62.5C352.234 50.0736 362.308 40 374.734 40L385 40" stroke="#B2B4DF"/>
<defs>
<filter id="filter0_d_494_3660" x="214.066" y="85.5332" width="58.5645" height="74.5684" filterUnits="userSpaceOnUse" color-interpolation-filters="sRGB">
<feFlood flood-opacity="0" result="BackgroundImageFix"/>
<feColorMatrix in="SourceAlpha" type="matrix" values="0 0 0 0 0 0 0 0 0 0 0 0 0 0 0 0 0 0 127 0" result="hardAlpha"/>
<feOffset dx="3" dy="5"/>
<feGaussianBlur stdDeviation="4"/>
<feComposite in2="hardAlpha" operator="out"/>
<feColorMatrix type="matrix" values="0 0 0 0 0 0 0 0 0 0 0 0 0 0 0 0 0 0 0.21 0"/>
<feBlend mode="normal" in2="BackgroundImageFix" result="effect1_dropShadow_494_3660"/>
<feBlend mode="normal" in="SourceGraphic" in2="effect1_dropShadow_494_3660" result="shape"/>
</filter>
<filter id="filter1_d_494_3660" x="0" y="23" width="80" height="80" filterUnits="userSpaceOnUse" color-interpolation-filters="sRGB">
<feFlood flood-opacity="0" result="BackgroundImageFix"/>
<feColorMatrix in="SourceAlpha" type="matrix" values="0 0 0 0 0 0 0 0 0 0 0 0 0 0 0 0 0 0 127 0" result="hardAlpha"/>
<feOffset dy="5"/>
<feGaussianBlur stdDeviation="8"/>
<feComposite in2="hardAlpha" operator="out"/>
<feColorMatrix type="matrix" values="0 0 0 0 0 0 0 0 0 0 0 0 0 0 0 0 0 0 0.15 0"/>
<feBlend mode="normal" in2="BackgroundImageFix" result="effect1_dropShadow_494_3660"/>
<feBlend mode="normal" in="SourceGraphic" in2="effect1_dropShadow_494_3660" result="shape"/>
</filter>
<filter id="filter2_d_494_3660" x="16" y="147" width="80" height="80" filterUnits="userSpaceOnUse" color-interpolation-filters="sRGB">
<feFlood flood-opacity="0" result="BackgroundImageFix"/>
<feColorMatrix in="SourceAlpha" type="matrix" values="0 0 0 0 0 0 0 0 0 0 0 0 0 0 0 0 0 0 127 0" result="hardAlpha"/>
<feOffset dy="5"/>
<feGaussianBlur stdDeviation="8"/>
<feComposite in2="hardAlpha" operator="out"/>
<feColorMatrix type="matrix" values="0 0 0 0 0 0 0 0 0 0 0 0 0 0 0 0 0 0 0.15 0"/>
<feBlend mode="normal" in2="BackgroundImageFix" result="effect1_dropShadow_494_3660"/>
<feBlend mode="normal" in="SourceGraphic" in2="effect1_dropShadow_494_3660" result="shape"/>
</filter>
<filter id="filter3_d_494_3660" x="362" y="163" width="80" height="80" filterUnits="userSpaceOnUse" color-interpolation-filters="sRGB">
<feFlood flood-opacity="0" result="BackgroundImageFix"/>
<feColorMatrix in="SourceAlpha" type="matrix" values="0 0 0 0 0 0 0 0 0 0 0 0 0 0 0 0 0 0 127 0" result="hardAlpha"/>
<feOffset dy="5"/>
<feGaussianBlur stdDeviation="8"/>
<feComposite in2="hardAlpha" operator="out"/>
<feColorMatrix type="matrix" values="0 0 0 0 0 0 0 0 0 0 0 0 0 0 0 0 0 0 0.15 0"/>
<feBlend mode="normal" in2="BackgroundImageFix" result="effect1_dropShadow_494_3660"/>
<feBlend mode="normal" in="SourceGraphic" in2="effect1_dropShadow_494_3660" result="shape"/>
</filter>
<filter id="filter4_d_494_3660" x="406" y="88" width="80" height="80" filterUnits="userSpaceOnUse" color-interpolation-filters="sRGB">
<feFlood flood-opacity="0" result="BackgroundImageFix"/>
<feColorMatrix in="SourceAlpha" type="matrix" values="0 0 0 0 0 0 0 0 0 0 0 0 0 0 0 0 0 0 127 0" result="hardAlpha"/>
<feOffset dy="5"/>
<feGaussianBlur stdDeviation="8"/>
<feComposite in2="hardAlpha" operator="out"/>
<feColorMatrix type="matrix" values="0 0 0 0 0 0 0 0 0 0 0 0 0 0 0 0 0 0 0.15 0"/>
<feBlend mode="normal" in2="BackgroundImageFix" result="effect1_dropShadow_494_3660"/>
<feBlend mode="normal" in="SourceGraphic" in2="effect1_dropShadow_494_3660" result="shape"/>
</filter>
<filter id="filter5_d_494_3660" x="376" y="0" width="80" height="80" filterUnits="userSpaceOnUse" color-interpolation-filters="sRGB">
<feFlood flood-opacity="0" result="BackgroundImageFix"/>
<feColorMatrix in="SourceAlpha" type="matrix" values="0 0 0 0 0 0 0 0 0 0 0 0 0 0 0 0 0 0 127 0" result="hardAlpha"/>
<feOffset dy="5"/>
<feGaussianBlur stdDeviation="8"/>
<feComposite in2="hardAlpha" operator="out"/>
<feColorMatrix type="matrix" values="0 0 0 0 0 0 0 0 0 0 0 0 0 0 0 0 0 0 0.15 0"/>
<feBlend mode="normal" in2="BackgroundImageFix" result="effect1_dropShadow_494_3660"/>
<feBlend mode="normal" in="SourceGraphic" in2="effect1_dropShadow_494_3660" result="shape"/>
</filter>
<linearGradient id="paint0_linear_494_3660" x1="290.977" y1="63.375" x2="157.834" y2="145.128" gradientUnits="userSpaceOnUse">
<stop stop-color="#6B47F5"/>
<stop offset="1" stop-color="#3F3A60"/>
</linearGradient>
<radialGradient id="paint1_radial_494_3660" cx="0" cy="0" r="1" gradientUnits="userSpaceOnUse" gradientTransform="translate(32.793 83.1192) rotate(-74.7466) scale(54.5217 58.5579)">
<stop stop-color="white" stop-opacity="0"/>
<stop offset="1" stop-color="white"/>
</radialGradient>
<linearGradient id="paint2_linear_494_3660" x1="50" y1="45.332" x2="24.0736" y2="60.6104" gradientUnits="userSpaceOnUse">
<stop stop-color="#BDACFF"/>
<stop offset="1" stop-color="#6B47F5"/>
</linearGradient>
<radialGradient id="paint3_radial_494_3660" cx="0" cy="0" r="1" gradientUnits="userSpaceOnUse" gradientTransform="translate(48.793 207.119) rotate(-74.7466) scale(54.5217 58.5579)">
<stop stop-color="white" stop-opacity="0"/>
<stop offset="1" stop-color="white"/>
</radialGradient>
<linearGradient id="paint4_linear_494_3660" x1="70" y1="169.334" x2="40.9047" y2="193.34" gradientUnits="userSpaceOnUse">
<stop stop-color="#BDACFF"/>
<stop offset="1" stop-color="#6B47F5"/>
</linearGradient>
<radialGradient id="paint5_radial_494_3660" cx="0" cy="0" r="1" gradientUnits="userSpaceOnUse" gradientTransform="translate(394.793 223.119) rotate(-74.7466) scale(54.5217 58.5579)">
<stop stop-color="white" stop-opacity="0"/>
<stop offset="1" stop-color="white"/>
</radialGradient>
<linearGradient id="paint6_linear_494_3660" x1="412" y1="185.332" x2="386.074" y2="200.61" gradientUnits="userSpaceOnUse">
<stop stop-color="#BDACFF"/>
<stop offset="1" stop-color="#6B47F5"/>
</linearGradient>
<radialGradient id="paint7_radial_494_3660" cx="0" cy="0" r="1" gradientUnits="userSpaceOnUse" gradientTransform="translate(438.793 148.119) rotate(-74.7466) scale(54.5217 58.5579)">
<stop stop-color="white" stop-opacity="0"/>
<stop offset="1" stop-color="white"/>
</radialGradient>
<linearGradient id="paint8_linear_494_3660" x1="458" y1="110" x2="431.102" y2="126.218" gradientUnits="userSpaceOnUse">
<stop stop-color="#BDACFF"/>
<stop offset="1" stop-color="#6B47F5"/>
</linearGradient>
<radialGradient id="paint9_radial_494_3660" cx="0" cy="0" r="1" gradientUnits="userSpaceOnUse" gradientTransform="translate(408.793 60.1192) rotate(-74.7466) scale(54.5217 58.5579)">
<stop stop-color="white" stop-opacity="0"/>
<stop offset="1" stop-color="white"/>
</radialGradient>
<linearGradient id="paint10_linear_494_3660" x1="431" y1="21" x2="398.178" y2="46.3461" gradientUnits="userSpaceOnUse">
<stop stop-color="#BDACFF"/>
<stop offset="1" stop-color="#6B47F5"/>
</linearGradient>
</defs>
</svg>
