<svg width="358" height="112" viewBox="0 0 358 112" fill="none" xmlns="http://www.w3.org/2000/svg">
<g filter="url(#filter0_d_497_4425)">
<rect x="15" y="20.9062" width="48" height="48" rx="8" transform="rotate(-13.1325 15 20.9062)" fill="url(#paint0_linear_497_4425)" shape-rendering="crispEdges"/>
<path d="M49.6039 31.3153L32.7239 35.2535C31.0735 35.6385 30.3478 36.806 30.7328 38.4563L32.5505 46.2471C32.9355 47.8974 34.1029 48.6232 35.7533 48.2381L52.6333 44.2999C54.2836 43.9149 55.0094 42.7475 54.6243 41.0971L52.8067 33.3064C52.4217 31.656 51.2542 30.9303 49.6039 31.3153ZM53.3259 41.4001C53.544 42.335 53.2652 42.7834 52.3303 43.0015L35.4503 46.9397C34.5154 47.1578 34.067 46.879 33.8489 45.9441L32.0313 38.1534C31.8132 37.2185 32.0919 36.7701 33.0268 36.552L49.9068 32.6138C50.8417 32.3957 51.2901 32.6744 51.5082 33.6093L53.3259 41.4001ZM55.858 34.6482L56.7668 38.5436C56.8505 38.9019 56.6275 39.2607 56.2691 39.3443C55.9107 39.4279 55.552 39.2049 55.4684 38.8465L54.5596 34.9511C54.476 34.5927 54.699 34.234 55.0573 34.1504C55.4157 34.0668 55.7744 34.2898 55.858 34.6482Z" fill="#F9FAFB"/>
</g>
<g filter="url(#filter1_d_497_4425)">
<rect x="295.246" y="32" width="48" height="48" rx="8" transform="rotate(8.68421 295.246 32)" fill="url(#paint1_linear_497_4425)" shape-rendering="crispEdges"/>
<path d="M315.951 55.3926L314.945 61.9828" stroke="#F9FAFB" stroke-linecap="round" stroke-linejoin="round"/>
<path d="M313.454 71.751L305.467 70.531C300.893 69.8324 299.481 66.2717 302.305 62.6163L307.549 55.837L312.487 49.4695C315.479 45.597 319.328 46.1848 321.028 50.7741L323.838 58.3384L326.819 66.374C328.423 70.7059 326 73.6807 321.439 72.9841L313.452 71.7641L313.454 71.751Z" stroke="#F9FAFB" stroke-linecap="round" stroke-linejoin="round"/>
<path d="M314.334 65.9375L314.346 65.9393" stroke="#F9FAFB" stroke-linecap="round" stroke-linejoin="round"/>
</g>
<g filter="url(#filter2_d_497_4425)">
<rect x="158.168" y="40" width="48" height="48" rx="8" transform="rotate(3.78218 158.168 40)" fill="url(#paint2_linear_497_4425)" shape-rendering="crispEdges"/>
<path d="M181.514 60.8096C181.489 61.1768 181.172 61.4551 180.805 61.4308C178.847 61.3014 177.161 62.6638 176.88 64.5975C176.831 64.9443 176.522 65.19 176.179 65.1673C176.16 65.1661 176.144 65.1651 176.126 65.1625C175.762 65.1104 175.51 64.7716 175.562 64.4076C175.942 61.7762 178.234 59.9247 180.892 60.1004C181.26 60.1247 181.538 60.4424 181.514 60.8096ZM191.183 76.2545L191.051 78.2514C191.026 78.6186 190.709 78.8969 190.341 78.8726L169.055 77.4654C168.687 77.4411 168.409 77.1234 168.433 76.7562L168.565 74.7606C168.639 73.6404 169.4 72.7312 170.407 72.4037L170.842 65.8259C171.274 59.3001 175.434 55.171 181.193 55.5517C186.953 55.9325 190.533 60.572 190.102 67.0991L189.667 73.6768C190.623 74.1329 191.257 75.1356 191.183 76.2545ZM171.751 72.2987L188.35 73.396L188.772 67.0112C189.151 61.2811 186.07 57.2104 181.107 56.8822C176.143 56.5541 172.553 60.1838 172.174 65.9139L171.752 72.2988L171.751 72.2987ZM189.852 76.1665C189.901 75.4334 189.344 74.798 188.611 74.7495L171.314 73.6061C170.58 73.5575 169.944 74.1155 169.896 74.8485L169.808 76.179L189.764 77.4982L189.852 76.1665ZM181.325 53.5561C181.692 53.5804 182.01 53.302 182.034 52.9348L182.166 50.9392C182.19 50.572 181.912 50.2543 181.545 50.23C181.178 50.2057 180.86 50.484 180.836 50.8512L180.704 52.8469C180.68 53.2141 180.958 53.5318 181.325 53.5561ZM189.797 56.7886C189.967 56.7999 190.142 56.746 190.281 56.6255L192.408 54.7618C192.685 54.5195 192.713 54.0977 192.471 53.8212C192.228 53.5446 191.806 53.5167 191.53 53.759L189.402 55.6227C189.126 55.865 189.098 56.2868 189.34 56.5633C189.461 56.7009 189.627 56.7774 189.797 56.7886ZM172.043 55.4199C172.165 55.5589 172.331 55.634 172.501 55.6453C172.672 55.6565 172.846 55.6026 172.985 55.4822C173.262 55.2399 173.29 54.8181 173.047 54.5415L171.184 52.4139C170.941 52.1373 170.52 52.1095 170.243 52.3517C169.966 52.594 169.939 53.0158 170.181 53.2924L172.043 55.4199Z" fill="#F9FAFB"/>
</g>
<defs>
<filter id="filter0_d_497_4425" x="-1" y="-1" width="89.6504" height="89.6504" filterUnits="userSpaceOnUse" color-interpolation-filters="sRGB">
<feFlood flood-opacity="0" result="BackgroundImageFix"/>
<feColorMatrix in="SourceAlpha" type="matrix" values="0 0 0 0 0 0 0 0 0 0 0 0 0 0 0 0 0 0 127 0" result="hardAlpha"/>
<feOffset dy="5"/>
<feGaussianBlur stdDeviation="8"/>
<feComposite in2="hardAlpha" operator="out"/>
<feColorMatrix type="matrix" values="0 0 0 0 0 0 0 0 0 0 0 0 0 0 0 0 0 0 0.3 0"/>
<feBlend mode="normal" in2="BackgroundImageFix" result="effect1_dropShadow_497_4425"/>
<feBlend mode="normal" in="SourceGraphic" in2="effect1_dropShadow_497_4425" result="shape"/>
</filter>
<filter id="filter1_d_497_4425" x="271.998" y="21" width="86.6973" height="86.6973" filterUnits="userSpaceOnUse" color-interpolation-filters="sRGB">
<feFlood flood-opacity="0" result="BackgroundImageFix"/>
<feColorMatrix in="SourceAlpha" type="matrix" values="0 0 0 0 0 0 0 0 0 0 0 0 0 0 0 0 0 0 127 0" result="hardAlpha"/>
<feOffset dy="5"/>
<feGaussianBlur stdDeviation="8"/>
<feComposite in2="hardAlpha" operator="out"/>
<feColorMatrix type="matrix" values="0 0 0 0 0 0 0 0 0 0 0 0 0 0 0 0 0 0 0.3 0"/>
<feBlend mode="normal" in2="BackgroundImageFix" result="effect1_dropShadow_497_4425"/>
<feBlend mode="normal" in="SourceGraphic" in2="effect1_dropShadow_497_4425" result="shape"/>
</filter>
<filter id="filter2_d_497_4425" x="139.002" y="29" width="83.0605" height="83.0625" filterUnits="userSpaceOnUse" color-interpolation-filters="sRGB">
<feFlood flood-opacity="0" result="BackgroundImageFix"/>
<feColorMatrix in="SourceAlpha" type="matrix" values="0 0 0 0 0 0 0 0 0 0 0 0 0 0 0 0 0 0 127 0" result="hardAlpha"/>
<feOffset dy="5"/>
<feGaussianBlur stdDeviation="8"/>
<feComposite in2="hardAlpha" operator="out"/>
<feColorMatrix type="matrix" values="0 0 0 0 0 0 0 0 0 0 0 0 0 0 0 0 0 0 0.3 0"/>
<feBlend mode="normal" in2="BackgroundImageFix" result="effect1_dropShadow_497_4425"/>
<feBlend mode="normal" in="SourceGraphic" in2="effect1_dropShadow_497_4425" result="shape"/>
</filter>
<linearGradient id="paint0_linear_497_4425" x1="63" y1="20.9062" x2="9.16698" y2="61.0924" gradientUnits="userSpaceOnUse">
<stop stop-color="#6B47F5"/>
<stop offset="1" stop-color="#3F3A60"/>
</linearGradient>
<linearGradient id="paint1_linear_497_4425" x1="343.246" y1="32" x2="289.413" y2="72.1861" gradientUnits="userSpaceOnUse">
<stop stop-color="#6B47F5"/>
<stop offset="1" stop-color="#3F3A60"/>
</linearGradient>
<linearGradient id="paint2_linear_497_4425" x1="206.168" y1="40" x2="152.335" y2="80.1861" gradientUnits="userSpaceOnUse">
<stop stop-color="#6B47F5"/>
<stop offset="1" stop-color="#3F3A60"/>
</linearGradient>
</defs>
</svg>
