<svg width="383" height="418" viewBox="0 0 383 418" fill="none" xmlns="http://www.w3.org/2000/svg">
<g clip-path="url(#clip0_497_4383)">
<g filter="url(#filter0_d_497_4383)">
<mask id="mask0_497_4383" style="mask-type:luminance" maskUnits="userSpaceOnUse" x="-1" y="-1" width="384" height="420">
<path d="M383 -1H-1V419H383V-1Z" fill="white"/>
</mask>
<g mask="url(#mask0_497_4383)">
<path d="M383 -1H-1V419H383V-1Z" fill="url(#paint0_linear_497_4383)" fill-opacity="0.5"/>
<mask id="mask1_497_4383" style="mask-type:luminance" maskUnits="userSpaceOnUse" x="-152" y="30" width="686" height="1305">
<path d="M534 30L534 1335L-152 1335L-152 30L534 30Z" fill="white"/>
</mask>
<g mask="url(#mask1_497_4383)">
<g opacity="0.1">
<path d="M-53.8262 1289L-51.9436 718.906C-52.0122 671.748 -47.6942 633.662 -29.3594 592.438C30.0849 458.782 185.319 397.913 317.223 456.462C416.485 500.522 474.405 599.706 471.652 703.009C471.677 703.148 471.677 703.297 471.657 703.416C471.646 703.477 471.63 703.526 471.62 703.571L470.845 1287.52L469.29 1287.53L470.063 703.268L470.092 703.203L470.097 703.095C472.875 600.364 415.298 501.714 316.589 457.899C251.028 428.799 179.677 429.374 117.321 453.836C54.9651 478.298 1.62003 526.637 -27.926 593.068C-46.1475 634.037 -50.4422 671.813 -50.3768 718.892L-52.266 1288.98L-53.8262 1289Z" fill="url(#paint1_linear_497_4383)"/>
<path d="M-62.1536 1277.41L-60.2205 692.607C-60.2908 644.234 -55.8661 605.17 -37.0532 562.883C23.9213 425.787 183.148 363.352 318.449 423.409C420.268 468.603 479.676 570.34 476.852 676.299C476.88 676.444 476.88 676.595 476.855 676.711C476.844 676.773 476.831 676.827 476.817 676.871L476.022 1275.9L474.466 1275.91L475.26 676.568L475.291 676.498L475.293 676.383C478.141 570.994 419.072 469.791 317.811 424.844C250.554 394.99 177.351 395.581 113.383 420.675C49.4108 445.767 -5.31884 495.36 -35.631 563.514C-54.3241 605.544 -58.7274 644.301 -58.6649 692.594L-60.5979 1277.4L-62.1582 1277.41H-62.1536Z" fill="url(#paint2_linear_497_4383)"/>
<path d="M-70.4877 1265.83L-68.5042 666.315C-68.5807 616.725 -64.0382 576.681 -44.7536 533.334C17.7509 392.798 180.971 328.798 319.667 390.356C424.038 436.684 484.936 540.977 482.046 649.596C482.074 649.742 482.074 649.891 482.052 650.015C482.041 650.076 482.024 650.136 482.01 650.18L481.198 1264.28L479.642 1264.29L480.456 649.872L480.487 649.803L480.492 649.678C483.418 541.629 422.857 437.873 319.035 391.789C250.077 361.18 175.031 361.79 109.447 387.514C43.8609 413.242 -12.2466 464.086 -43.3228 533.958C-62.4874 577.048 -67.002 616.782 -66.9332 666.292L-68.932 1265.82L-70.4922 1265.83H-70.4877Z" fill="url(#paint3_linear_497_4383)"/>
<path d="M-78.8202 1254.24L-76.7908 640.005C-76.8691 589.199 -72.2133 548.174 -52.4571 503.767C11.5776 359.791 178.796 294.222 320.883 357.291C427.81 404.753 490.201 511.6 487.234 622.88C487.263 623.026 487.264 623.182 487.238 623.303C487.225 623.369 487.211 623.424 487.195 623.473L486.362 1252.65L484.806 1252.66L485.638 623.169L485.669 623.1L485.671 622.973C488.667 512.266 426.614 405.952 320.241 358.736C249.586 327.374 172.694 327.996 105.493 354.355C38.2952 380.715 -19.1947 432.808 -51.037 504.403C-70.6733 548.553 -75.3011 589.269 -75.2306 639.993L-77.262 1254.23L-78.8223 1254.24H-78.8202Z" fill="url(#paint4_linear_497_4383)"/>
<path d="M-87.1543 1242.65L-85.0744 613.696C-85.1523 561.671 -80.3854 519.669 -60.1642 474.204C5.4006 326.787 176.612 259.654 322.092 324.229C431.58 372.827 495.463 482.216 492.421 596.163C492.45 596.309 492.452 596.465 492.427 596.593C492.414 596.659 492.399 596.719 492.383 596.767L491.531 1241.02L489.976 1241.03L490.828 596.459L490.861 596.385L490.867 596.249C493.936 482.88 430.395 374.015 321.46 325.662C249.109 293.546 170.37 294.186 101.556 321.176C32.7408 348.171 -26.127 401.516 -58.7334 474.828C-78.8412 520.039 -83.5823 561.736 -83.51 613.675L-85.5942 1242.63L-87.1543 1242.65Z" fill="url(#paint5_linear_497_4383)"/>
<path d="M-95.4844 1231.07L-93.3586 587.404C-93.4382 534.164 -88.5626 491.18 -67.8653 444.656C-0.770374 293.799 174.438 225.102 323.311 291.183C435.355 340.916 500.729 452.863 497.612 569.466C497.639 569.616 497.64 569.772 497.616 569.9C497.603 569.966 497.588 570.026 497.572 570.074L496.7 1229.4L495.144 1229.41L496.017 569.766L496.049 569.692L496.053 569.55C499.192 453.523 434.159 342.104 322.673 292.618C248.625 259.75 168.036 260.4 97.609 288.027C27.1816 315.654 -33.0707 370.252 -66.4411 445.283C-87.0206 491.554 -91.8683 534.229 -91.8009 587.386L-93.9242 1231.06L-95.4844 1231.07Z" fill="url(#paint6_linear_497_4383)"/>
<path d="M-103.818 1219.48L-101.642 561.099C-101.723 506.644 -96.7365 462.683 -75.5701 415.093C-6.94707 260.8 172.256 190.532 324.527 258.122C439.122 308.988 505.988 423.487 502.799 542.753C502.83 542.905 502.83 543.066 502.806 543.193C502.791 543.264 502.775 543.324 502.759 543.372L501.867 1217.78L500.312 1217.79L501.204 543.065L501.237 542.99L501.244 542.839C504.457 424.149 437.935 310.18 323.893 259.559C248.148 225.938 165.712 226.605 93.6691 254.862C21.6278 283.125 -40.0069 338.973 -74.1413 415.721C-95.1924 463.053 -100.153 506.709 -100.08 561.083L-102.258 1219.47L-103.818 1219.48Z" fill="url(#paint7_linear_497_4383)"/>
<path d="M-112.15 1207.89L-109.924 534.796C-110.007 479.126 -104.907 434.184 -83.2686 385.533C-13.1154 227.8 170.082 155.962 325.746 225.058C442.898 277.059 511.25 394.114 507.997 516.035C508.028 516.187 508.028 516.347 508.002 516.48C507.987 516.551 507.969 516.615 507.951 516.668L507.041 1206.14L505.485 1206.16L506.396 516.36L506.431 516.282L506.434 516.128C509.716 394.78 441.704 278.253 325.106 226.498C247.665 192.124 163.381 192.808 89.7259 221.697C16.0688 250.59 -46.9439 307.689 -81.851 386.162C-103.374 434.554 -108.446 479.187 -108.37 534.776L-110.592 1207.88L-112.148 1207.9L-112.15 1207.89Z" fill="url(#paint8_linear_497_4383)"/>
<path d="M-120.48 1196.3L-118.209 508.494C-118.294 451.609 -113.087 405.689 -90.9711 355.975C-19.2879 194.801 167.907 121.4 326.964 192.002C446.672 245.137 516.517 364.746 513.187 489.326C513.218 489.479 513.223 489.641 513.196 489.774C513.184 489.851 513.161 489.914 513.143 489.967L512.209 1194.52L510.653 1194.53L511.588 489.659L511.625 489.576L511.621 489.574L511.626 489.415C514.981 365.405 445.48 246.327 326.324 193.441C247.186 158.314 161.053 159.009 85.7835 188.535C10.5127 218.064 -53.8824 276.413 -89.549 356.606C-111.543 406.058 -116.728 451.671 -116.651 508.475L-118.926 1196.29L-120.486 1196.3H-120.48Z" fill="url(#paint9_linear_497_4383)"/>
<path d="M-128.811 1184.7L-126.49 482.178C-126.575 424.074 -121.257 377.177 -98.6714 326.407C-25.458 161.794 165.73 86.827 328.184 158.937C450.444 213.204 521.782 335.366 518.381 462.605C518.415 462.764 518.414 462.924 518.386 463.062C518.374 463.139 518.351 463.202 518.331 463.259L517.376 1182.89L515.821 1182.9L516.776 462.951L516.815 462.863L516.811 462.861L516.816 462.703C520.246 336.037 449.248 214.404 327.542 160.381C246.708 124.501 158.727 125.213 81.8413 155.368C4.95894 185.53 -60.8207 245.132 -97.2513 327.043C-119.717 377.556 -125.009 424.148 -124.932 482.171L-127.258 1184.69L-128.818 1184.7H-128.811Z" fill="url(#paint10_linear_497_4383)"/>
<path d="M-137.146 1173.13L-134.774 455.894C-134.86 396.574 -129.429 348.697 -106.377 296.865C-31.6333 128.811 163.546 52.2781 329.398 125.896C454.215 181.299 527.039 306.016 523.573 435.915C523.606 436.074 523.604 436.239 523.582 436.373C523.57 436.451 523.55 436.52 523.532 436.573L522.559 1171.27L521.003 1171.29L521.979 436.261L522.02 436.168L522.015 436.155L522.018 436.001C525.521 306.673 453.035 182.488 328.768 127.329C246.233 90.6933 156.411 91.4197 77.9068 122.21C-0.591782 153.002 -67.7513 213.86 -104.946 297.489C-127.883 349.061 -133.288 396.635 -133.21 455.873L-135.585 1173.12L-137.146 1173.13Z" fill="url(#paint11_linear_497_4383)"/>
<path d="M-145.479 1161.54L-143.061 429.585C-143.149 369.05 -137.609 320.19 -114.08 267.299C-37.8062 95.8051 161.37 17.7095 330.613 92.8262C457.985 149.364 532.3 276.639 528.758 409.193C528.792 409.352 528.794 409.52 528.766 409.657C528.751 409.739 528.732 409.808 528.714 409.861L527.72 1159.64L526.164 1159.66L527.16 409.548L527.203 409.451L527.194 409.436L527.197 409.282C530.77 277.296 456.793 150.554 329.975 94.2622C245.743 56.8737 154.069 57.6156 73.9594 89.0393C-6.1529 120.467 -74.6928 182.57 -112.654 267.921C-136.065 320.559 -141.582 369.109 -141.502 429.562L-143.919 1161.53L-145.479 1161.54Z" fill="url(#paint12_linear_497_4383)"/>
<path d="M331.833 59.7784C289.635 41.0477 244.964 31.2494 199.068 30.6595C154.734 30.0873 111.129 38.0831 69.4666 54.4312C27.8009 70.7727 -9.82082 94.642 -42.3546 125.366C-76.0414 157.181 -102.764 194.993 -121.781 237.749C-146.432 293.175 -151.427 344.012 -151.345 403.291L-153.811 1149.96L-152.25 1149.94L-149.783 403.275C-149.866 344.195 -144.892 293.542 -120.357 238.376C-101.426 195.814 -74.8227 158.171 -41.2939 126.503C-8.9095 95.917 28.5417 72.1605 70.0193 55.8851C111.494 39.6145 154.901 31.6582 199.034 32.2248C244.722 32.8163 289.189 42.5684 331.199 61.2159C393.797 89.0014 445.832 134.553 481.678 192.941C516.673 249.941 534.212 315.522 532.395 382.58L532.35 383.025L531.339 1148.04L532.894 1148.03L533.908 383.168C533.964 383.004 534.013 382.771 533.957 382.491C535.756 315.165 518.137 249.332 483.007 192.106C446.996 133.451 394.724 87.6938 331.838 59.7804" fill="url(#paint13_linear_497_4383)"/>
</g>
</g>
</g>
<path d="M382 0H0V418H382V0Z" stroke="url(#paint14_radial_497_4383)" stroke-width="2"/>
</g>
</g>
<defs>
<filter id="filter0_d_497_4383" x="-13" y="-9" width="408" height="444" filterUnits="userSpaceOnUse" color-interpolation-filters="sRGB">
<feFlood flood-opacity="0" result="BackgroundImageFix"/>
<feColorMatrix in="SourceAlpha" type="matrix" values="0 0 0 0 0 0 0 0 0 0 0 0 0 0 0 0 0 0 127 0" result="hardAlpha"/>
<feOffset dy="4"/>
<feGaussianBlur stdDeviation="6"/>
<feComposite in2="hardAlpha" operator="out"/>
<feColorMatrix type="matrix" values="0 0 0 0 0 0 0 0 0 0 0 0 0 0 0 0 0 0 0.03 0"/>
<feBlend mode="normal" in2="BackgroundImageFix" result="effect1_dropShadow_497_4383"/>
<feBlend mode="normal" in="SourceGraphic" in2="effect1_dropShadow_497_4383" result="shape"/>
</filter>
<linearGradient id="paint0_linear_497_4383" x1="8.0435" y1="30.8031" x2="427.584" y2="220.892" gradientUnits="userSpaceOnUse">
<stop stop-color="white" stop-opacity="0.7"/>
<stop offset="1" stop-color="white"/>
</linearGradient>
<linearGradient id="paint1_linear_497_4383" x1="979.036" y1="431.256" x2="-597.318" y2="456.136" gradientUnits="userSpaceOnUse">
<stop stop-color="#BDACFF"/>
<stop offset="1" stop-color="#6B47F5"/>
</linearGradient>
<linearGradient id="paint2_linear_497_4383" x1="979.037" y1="431.256" x2="-597.317" y2="456.136" gradientUnits="userSpaceOnUse">
<stop stop-color="#BDACFF"/>
<stop offset="1" stop-color="#6B47F5"/>
</linearGradient>
<linearGradient id="paint3_linear_497_4383" x1="979.035" y1="431.256" x2="-597.318" y2="456.136" gradientUnits="userSpaceOnUse">
<stop stop-color="#BDACFF"/>
<stop offset="1" stop-color="#6B47F5"/>
</linearGradient>
<linearGradient id="paint4_linear_497_4383" x1="979.036" y1="431.257" x2="-597.318" y2="456.137" gradientUnits="userSpaceOnUse">
<stop stop-color="#BDACFF"/>
<stop offset="1" stop-color="#6B47F5"/>
</linearGradient>
<linearGradient id="paint5_linear_497_4383" x1="979.036" y1="431.256" x2="-597.318" y2="456.136" gradientUnits="userSpaceOnUse">
<stop stop-color="#BDACFF"/>
<stop offset="1" stop-color="#6B47F5"/>
</linearGradient>
<linearGradient id="paint6_linear_497_4383" x1="979.037" y1="431.256" x2="-597.317" y2="456.136" gradientUnits="userSpaceOnUse">
<stop stop-color="#BDACFF"/>
<stop offset="1" stop-color="#6B47F5"/>
</linearGradient>
<linearGradient id="paint7_linear_497_4383" x1="979.036" y1="431.256" x2="-597.318" y2="456.136" gradientUnits="userSpaceOnUse">
<stop stop-color="#BDACFF"/>
<stop offset="1" stop-color="#6B47F5"/>
</linearGradient>
<linearGradient id="paint8_linear_497_4383" x1="979.036" y1="431.256" x2="-597.318" y2="456.136" gradientUnits="userSpaceOnUse">
<stop stop-color="#BDACFF"/>
<stop offset="1" stop-color="#6B47F5"/>
</linearGradient>
<linearGradient id="paint9_linear_497_4383" x1="979.036" y1="431.257" x2="-597.318" y2="456.137" gradientUnits="userSpaceOnUse">
<stop stop-color="#BDACFF"/>
<stop offset="1" stop-color="#6B47F5"/>
</linearGradient>
<linearGradient id="paint10_linear_497_4383" x1="979.036" y1="431.256" x2="-597.318" y2="456.136" gradientUnits="userSpaceOnUse">
<stop stop-color="#BDACFF"/>
<stop offset="1" stop-color="#6B47F5"/>
</linearGradient>
<linearGradient id="paint11_linear_497_4383" x1="979.035" y1="431.257" x2="-597.318" y2="456.137" gradientUnits="userSpaceOnUse">
<stop stop-color="#BDACFF"/>
<stop offset="1" stop-color="#6B47F5"/>
</linearGradient>
<linearGradient id="paint12_linear_497_4383" x1="979.036" y1="431.255" x2="-597.319" y2="456.135" gradientUnits="userSpaceOnUse">
<stop stop-color="#BDACFF"/>
<stop offset="1" stop-color="#6B47F5"/>
</linearGradient>
<linearGradient id="paint13_linear_497_4383" x1="979.036" y1="431.256" x2="-597.317" y2="456.136" gradientUnits="userSpaceOnUse">
<stop stop-color="#BDACFF"/>
<stop offset="1" stop-color="#6B47F5"/>
</linearGradient>
<radialGradient id="paint14_radial_497_4383" cx="0" cy="0" r="1" gradientUnits="userSpaceOnUse" gradientTransform="translate(133.344 428.793) rotate(-76.0004) scale(474.348 471.146)">
<stop stop-color="white" stop-opacity="0"/>
<stop offset="1" stop-color="white"/>
</radialGradient>
<clipPath id="clip0_497_4383">
<rect width="383" height="418" fill="white"/>
</clipPath>
</defs>
</svg>
