<svg width="1440" height="800" viewBox="0 0 1440 800" fill="none" xmlns="http://www.w3.org/2000/svg">
<g clip-path="url(#clip0_456_9838)">
<rect width="1440" height="800" fill="#F9FAFB"/>
<g opacity="0.15" clip-path="url(#clip1_456_9838)">
<g clip-path="url(#clip2_456_9838)">
<path d="M509.902 597.389L940.652 595.704C976.293 595.765 1005.1 591.895 1036.28 575.449C1137.37 522.134 1183.39 382.913 1139.12 264.615C1105.8 175.593 1030.8 123.655 952.68 126.115C952.556 126.091 952.432 126.093 952.326 126.117C952.285 126.125 952.247 126.139 952.213 126.15L511.018 126.845L511.005 128.661L952.505 127.965L952.559 127.936L952.608 127.936C1030.16 125.449 1104.63 176.995 1137.7 265.36C1159.67 324.056 1159.24 387.928 1140.77 443.754C1122.3 499.58 1085.82 547.336 1035.66 573.789C1004.74 590.1 976.229 593.946 940.666 593.888L509.909 595.571L509.902 597.389Z" fill="white"/>
<path d="M521.308 607.112L966.541 605.367C1003.38 605.431 1033.15 601.428 1065.38 584.432C1169.85 529.331 1217.42 385.448 1171.66 263.189C1137.22 171.189 1059.72 117.506 978.979 120.051C978.855 120.027 978.724 120.026 978.618 120.049C978.573 120.06 978.533 120.069 978.499 120.08L522.469 120.796L522.455 122.612L978.79 121.895L978.841 121.869L978.894 121.866C1059.07 119.294 1136.05 172.577 1170.24 263.932C1192.95 324.607 1192.5 390.641 1173.41 448.348C1154.32 506.055 1116.6 555.427 1064.76 582.772C1032.79 599.634 1003.31 603.612 966.554 603.552L521.314 605.293L521.303 607.114L521.308 607.112Z" fill="#F9F9F9"/>
<path d="M532.716 616.833L992.432 615.03C1030.46 615.095 1061.21 610.966 1094.47 593.413C1202.32 536.529 1251.44 387.983 1204.2 261.759C1168.65 166.775 1088.62 111.355 1005.27 113.979C1005.14 113.955 1005.01 113.954 1004.91 113.978C1004.86 113.989 1004.82 114 1004.78 114.011L533.913 114.751L533.9 116.567L1005.07 115.826L1005.13 115.797L1005.19 115.797C1087.98 113.138 1167.48 168.166 1202.78 262.499C1226.23 325.155 1225.77 393.343 1206.06 452.939C1186.34 512.529 1147.39 563.514 1093.86 591.751C1060.84 609.163 1030.41 613.266 992.453 613.204L532.725 615.02L532.714 616.841L532.716 616.833Z" fill="#F5F5F5"/>
<path d="M544.126 626.561L1018.33 624.704C1057.56 624.769 1089.26 620.51 1123.57 602.409C1234.8 543.74 1285.46 390.528 1236.74 260.344C1200.07 162.381 1117.53 105.219 1031.56 107.926C1031.43 107.898 1031.3 107.897 1031.19 107.924C1031.14 107.937 1031.1 107.945 1031.06 107.959L545.357 108.72L545.343 110.536L1031.36 109.772L1031.41 109.743L1031.48 109.741C1116.89 107.002 1198.9 163.767 1235.32 261.086C1259.51 325.722 1259.03 396.066 1238.69 457.543C1218.36 519.02 1178.17 571.616 1122.95 600.744C1088.89 618.707 1057.49 622.941 1018.34 622.877L544.14 624.745L544.128 626.566L544.126 626.561Z" fill="#EFEFEF"/>
<path d="M555.541 636.289L1044.22 634.373C1084.65 634.445 1117.32 630.05 1152.67 611.403C1267.29 550.947 1319.49 393.075 1269.28 258.925C1231.5 157.979 1146.45 99.0797 1057.86 101.866C1057.73 101.839 1057.59 101.84 1057.49 101.864C1057.44 101.877 1057.4 101.886 1057.36 101.9L556.809 102.686L556.796 104.502L1057.65 103.714L1057.7 103.686L1057.78 103.684C1145.8 100.858 1230.33 159.365 1267.87 259.665C1292.8 326.281 1292.31 398.787 1271.35 462.145C1250.39 525.505 1208.98 579.713 1152.05 609.737C1116.95 628.251 1084.59 632.615 1044.24 632.551L555.554 634.473L555.543 636.294L555.541 636.289Z" fill="#E8E8E8"/>
<path d="M566.934 646.013L1070.1 644.039C1111.73 644.113 1145.36 639.592 1181.75 620.388C1299.76 558.146 1353.5 395.614 1301.81 257.504C1262.91 153.58 1175.34 92.9326 1084.14 95.8066C1084.01 95.7794 1083.87 95.7756 1083.76 95.8042C1083.71 95.8176 1083.66 95.8285 1083.62 95.8424L568.24 96.6499L568.227 98.4657L1083.92 97.6545L1083.98 97.6232L1084.06 97.6192C1174.7 94.7105 1261.74 154.958 1300.4 258.236C1326.07 326.838 1325.56 401.492 1303.98 466.739C1282.4 531.986 1239.75 587.804 1181.14 618.72C1144.99 637.784 1111.66 642.281 1070.11 642.21L566.946 644.192L566.934 646.013Z" fill="#E3E3E3"/>
<path d="M578.338 655.74L1095.99 653.712C1138.81 653.789 1173.41 649.135 1210.85 629.381C1332.24 565.353 1387.52 398.156 1334.34 256.085C1294.33 149.172 1204.25 86.7878 1110.42 89.7489C1110.29 89.7242 1110.15 89.7203 1110.04 89.7465C1109.98 89.7569 1109.94 89.7732 1109.9 89.7895L579.677 90.6182L579.664 92.434L1110.2 91.5993L1110.26 91.5681L1110.34 91.5669C1203.6 88.5734 1293.15 150.557 1332.93 256.825C1359.35 327.401 1358.82 404.218 1336.62 471.345C1314.41 538.473 1270.53 595.907 1210.22 627.715C1173.03 647.332 1138.74 651.953 1096 651.886L578.344 653.922L578.333 655.743L578.338 655.74Z" fill="#DEDEDE"/>
<path d="M589.737 665.464L1121.87 663.377C1165.89 663.455 1201.45 658.677 1239.94 638.37C1364.72 572.557 1421.54 400.696 1366.88 254.665C1325.75 144.769 1233.16 80.6479 1136.72 83.6913C1136.58 83.6612 1136.44 83.6649 1136.32 83.6882C1136.27 83.6986 1136.22 83.7149 1136.18 83.7312L591.116 84.5859L591.102 86.4016L1136.47 85.5458L1136.54 85.5121L1136.63 85.5061C1232.51 82.4304 1324.57 146.157 1365.46 255.402C1392.62 327.964 1392.08 406.929 1369.25 475.946C1346.42 544.957 1301.31 604.005 1239.31 636.705C1201.08 656.869 1165.82 661.623 1121.89 661.553L589.743 663.645L589.732 665.466L589.737 665.464Z" fill="#D9D9D9"/>
<path d="M601.149 675.191L1147.76 673.048C1192.98 673.126 1229.5 668.218 1269.03 647.36C1397.19 579.763 1455.56 403.235 1399.42 253.244C1357.17 140.369 1262.06 74.5028 1163.01 77.6339C1162.87 77.6038 1162.73 77.6022 1162.61 77.6308C1162.56 77.6412 1162.51 77.6599 1162.46 77.6708L602.566 78.5521L602.552 80.3679L1162.76 79.4884L1162.82 79.4548L1162.93 79.4518C1261.42 76.2913 1356 141.754 1398.01 253.989C1425.91 328.531 1425.35 409.658 1401.9 480.556C1378.45 551.448 1332.11 612.104 1268.41 645.698C1229.14 666.416 1192.92 671.298 1147.78 671.222L601.16 673.37L601.149 675.191Z" fill="#D4D4D4"/>
<path d="M612.553 684.916L1173.65 682.718C1220.06 682.798 1257.55 677.758 1298.12 656.358C1429.67 586.975 1489.58 405.787 1431.95 251.83C1388.59 135.971 1290.97 68.3681 1189.3 71.5815C1189.16 71.5514 1189.01 71.5522 1188.9 71.5754C1188.83 71.5883 1188.79 71.6069 1188.74 71.6179L614.006 72.5227L613.993 74.3385L1189.04 73.4355L1189.1 73.4018L1189.21 73.3965C1290.32 70.1537 1387.42 137.357 1430.54 252.57C1459.18 329.092 1458.61 412.372 1434.54 485.154C1410.46 557.935 1362.89 620.199 1297.5 654.685C1257.18 675.953 1220 680.966 1173.66 680.889L612.565 683.094L612.553 684.916Z" fill="#CECECE"/>
<path d="M623.954 694.637L1199.53 692.38C1247.14 692.462 1285.59 687.298 1327.21 665.339C1462.14 594.171 1523.59 408.322 1464.48 250.4C1420 131.557 1319.87 62.2173 1215.58 65.5129C1215.44 65.4799 1215.29 65.4807 1215.18 65.5093C1215.12 65.5221 1215.06 65.538 1215.02 65.5543L625.445 66.4824L625.431 68.2982L1215.32 67.3717L1215.39 67.3357L1215.5 67.3332C1319.23 64.0081 1418.83 132.953 1463.07 251.145C1492.45 329.647 1491.87 415.089 1467.18 489.752C1442.48 564.419 1393.67 628.299 1326.59 663.68C1285.22 685.498 1247.08 690.638 1199.55 690.565L623.968 692.821L623.956 694.642L623.954 694.637Z" fill="#C7C7C7"/>
<path d="M635.347 704.365L1225.41 702.05C1274.22 702.14 1313.63 696.838 1356.29 674.329C1494.61 601.374 1557.6 410.866 1497.01 248.98C1451.42 127.16 1348.77 56.0797 1241.86 59.4523C1241.72 59.4193 1241.57 59.4202 1241.45 59.4459C1241.39 59.4587 1241.33 59.4769 1241.29 59.4932L636.878 60.4424L636.865 62.2582L1241.59 61.3082L1241.66 61.2721L1241.78 61.2649C1348.13 57.8498 1450.25 128.537 1495.6 249.718C1525.73 330.205 1525.13 417.799 1499.81 494.347C1474.49 570.899 1424.45 636.387 1355.68 672.659C1313.27 695.028 1274.16 700.297 1225.43 700.217L635.361 702.55L635.349 704.371L635.347 704.365Z" fill="#C2C2C2"/>
<path d="M646.759 714.091L1251.3 711.722C1301.31 711.813 1341.69 706.379 1385.39 683.32C1527.1 608.579 1591.63 413.403 1529.56 247.559C1482.84 122.755 1377.68 49.9328 1268.16 53.3955C1268.02 53.3624 1267.86 53.3604 1267.74 53.3914C1267.68 53.4067 1267.62 53.4224 1267.58 53.4411L648.325 54.414L648.312 56.2298L1267.87 55.2587L1267.94 55.2226L1268.07 55.2206C1377.03 51.7232 1481.66 124.151 1528.14 248.309C1559 330.777 1558.39 420.524 1532.45 498.962C1506.5 577.394 1455.23 644.496 1384.77 681.662C1341.31 704.581 1301.24 709.983 1251.32 709.901L646.766 712.272L646.754 714.093L646.759 714.091Z" fill="#BDBDBD"/>
<path d="M658.169 723.817L1277.2 721.389C1328.4 721.48 1369.74 715.916 1414.49 692.314C1559.58 615.787 1625.65 415.951 1562.1 246.147C1514.27 118.354 1406.6 43.7898 1294.45 47.3396C1294.31 47.3066 1294.16 47.3045 1294.03 47.3326C1293.97 47.3479 1293.91 47.366 1293.86 47.3847L659.773 48.3788L659.759 50.1946L1294.16 49.1999L1294.23 49.1614L1294.37 49.1546C1405.95 45.5724 1513.1 119.737 1560.69 246.884C1592.3 331.332 1591.67 423.236 1565.1 503.555C1538.53 583.876 1486.03 652.586 1413.87 690.644C1369.38 714.113 1328.34 719.647 1277.22 719.563L658.18 721.995L658.169 723.817Z" fill="#B8B8B8"/>
<path d="M669.568 733.54L1303.08 731.059C1355.48 731.152 1397.79 725.461 1443.58 701.303C1592.05 622.99 1659.67 418.489 1594.63 244.724C1545.68 113.948 1435.5 37.6439 1320.74 41.2813C1320.59 41.2507 1320.43 41.2487 1320.31 41.2768C1320.24 41.292 1320.18 41.3102 1320.14 41.3289L671.212 42.3464L671.198 44.1622L1320.44 43.144L1320.51 43.1056L1320.65 43.1017C1434.85 39.4372 1544.51 115.344 1593.22 245.47C1625.57 331.898 1624.93 425.961 1597.73 508.163C1570.54 590.365 1516.81 660.691 1442.96 699.641C1397.42 723.661 1355.42 729.319 1303.1 729.241L669.579 731.719L669.568 733.54Z" fill="#B3B3B3"/>
<path d="M680.975 743.268L1328.97 740.727C1382.57 740.822 1425.83 735.002 1472.67 710.296C1624.53 630.2 1693.69 421.036 1627.17 243.306C1577.1 109.551 1464.41 31.5049 1347.03 35.2271C1346.88 35.1911 1346.72 35.1914 1346.59 35.2194C1346.52 35.2371 1346.46 35.2552 1346.42 35.2739L682.652 36.315L682.638 38.1308L1346.72 37.0891L1346.79 37.0506L1346.94 37.0421C1463.76 33.2929 1575.93 110.937 1625.75 244.046C1658.84 332.454 1658.19 428.673 1630.38 512.762C1602.56 596.848 1547.59 668.787 1472.05 708.629C1425.47 733.199 1382.5 738.99 1328.99 738.904L680.986 741.446L680.975 743.268Z" fill="#ACACAC"/>
<path d="M692.38 752.992L1354.86 750.393C1409.65 750.49 1453.88 744.537 1501.77 719.281C1657.01 637.399 1727.72 423.572 1659.71 241.882C1608.53 105.144 1493.32 25.3631 1373.32 29.1598C1373.17 29.1238 1373.02 29.124 1372.89 29.1545C1372.82 29.1722 1372.75 29.1927 1372.7 29.2138L694.1 30.2761L694.086 32.0919L1373 31.029L1373.08 30.9881L1373.23 30.9849C1492.67 27.1534 1607.35 106.537 1658.29 242.63C1692.13 333.018 1691.45 431.394 1663.02 517.363C1634.58 603.336 1578.38 676.883 1501.15 717.627C1453.52 742.748 1409.59 748.668 1354.88 748.58L692.387 751.173L692.374 752.989L692.38 752.992Z" fill="#A7A7A7"/>
<path d="M703.787 762.714L1380.75 760.063C1436.73 760.162 1481.93 754.085 1530.86 728.271C1689.49 644.603 1761.73 426.11 1692.24 240.46C1639.95 100.738 1522.23 19.2151 1399.61 23.1019C1399.46 23.0659 1399.3 23.0609 1399.17 23.0913C1399.09 23.106 1399.03 23.132 1398.98 23.1531L705.542 24.2443L705.529 26.0601L1399.28 24.9682L1399.37 24.9249L1399.37 24.9303L1399.52 24.9246C1521.58 21.0084 1638.78 102.129 1690.83 241.208C1725.4 333.576 1724.72 434.111 1695.66 521.964C1666.59 609.82 1609.17 684.981 1530.24 726.611C1481.57 752.283 1436.67 758.335 1380.76 758.245L703.796 760.9L703.784 762.721L703.787 762.714Z" fill="#A2A2A2"/>
<path d="M715.203 772.439L1406.64 769.729C1463.83 769.828 1509.99 763.621 1559.96 737.259C1721.98 651.805 1795.76 428.652 1724.79 239.036C1671.38 96.3356 1551.14 13.0704 1425.91 17.0395C1425.75 17.0006 1425.59 17.001 1425.46 17.0339C1425.38 17.0486 1425.32 17.0745 1425.27 17.098L716.987 18.2126L716.974 20.0284L1425.57 18.913L1425.65 18.8674L1425.66 18.8727L1425.81 18.8671C1550.48 14.8633 1670.2 97.7314 1723.37 239.786C1758.68 334.135 1757.98 436.826 1728.3 526.566C1698.61 616.302 1639.95 693.08 1559.33 735.601C1509.62 761.823 1463.76 768 1406.65 767.911L715.212 770.625L715.201 772.446L715.203 772.439Z" fill="#9C9C9C"/>
<path d="M726.59 782.169L1432.51 779.4C1490.9 779.501 1538.02 773.162 1589.03 746.255C1754.44 659.014 1829.76 431.202 1757.31 237.62C1702.78 91.9359 1580.03 6.93622 1452.18 10.9823C1452.02 10.9434 1451.86 10.9461 1451.73 10.9712C1451.65 10.9859 1451.58 11.0089 1451.53 11.03L728.417 12.1658L728.403 13.9816L1451.84 12.8428L1451.93 12.7947L1451.94 12.8006L1452.09 12.7972C1579.38 8.70867 1701.61 93.3138 1755.9 238.357C1791.95 334.692 1791.24 439.532 1760.93 531.16C1730.63 622.783 1670.73 701.171 1588.42 744.584C1537.66 771.357 1490.84 777.666 1432.53 777.574L726.601 780.347L726.59 782.169Z" fill="#979797"/>
<path d="M737.997 791.892L1458.41 789.07C1517.98 789.173 1566.07 782.707 1618.13 755.244C1786.92 666.218 1863.78 433.74 1789.85 236.2C1734.21 87.5328 1608.94 0.79318 1478.48 4.92687C1478.32 4.88796 1478.15 4.88542 1478.02 4.9183C1477.94 4.9354 1477.87 4.95832 1477.82 4.97943L739.865 6.13871L739.852 7.95451L1478.13 6.79216L1478.22 6.7417L1478.24 6.75291L1478.39 6.74958C1608.29 2.57872 1733.04 88.9238 1788.44 236.946C1825.24 335.26 1824.51 442.262 1793.58 535.766C1762.65 629.272 1701.52 709.272 1617.52 753.579C1565.71 780.905 1517.93 787.343 1458.43 787.25L738.008 790.071L737.997 791.892Z" fill="#909090"/>
<path d="M1822.38 234.777C1840.81 284.03 1850.46 336.169 1851.04 389.74C1851.6 441.485 1843.73 492.381 1827.64 541.01C1811.56 589.642 1788.06 633.554 1757.82 671.527C1726.51 710.846 1689.3 742.036 1647.21 764.232C1592.66 793.004 1542.63 798.835 1484.28 798.739L749.398 801.617L749.409 799.796L1484.3 796.915C1542.45 797.013 1592.3 791.207 1646.6 762.57C1688.49 740.475 1725.54 709.423 1756.71 670.289C1786.81 632.49 1810.19 588.777 1826.21 540.365C1842.22 491.955 1850.05 441.291 1849.5 389.779C1848.92 336.452 1839.32 284.551 1820.96 235.516C1793.62 162.453 1748.78 101.718 1691.32 59.8794C1635.22 19.0334 1570.67 -1.43838 1504.67 0.682252L1504.23 0.734794L751.284 1.91558L751.298 0.099779L1504.09 -1.08315C1504.25 -1.14886 1504.48 -1.20595 1504.76 -1.14039C1571.02 -3.24056 1635.81 17.3242 1692.14 58.3276C1749.87 100.36 1794.9 161.371 1822.38 234.771" fill="#8C8C8C"/>
</g>
<g clip-path="url(#clip3_456_9838)">
<path d="M996.098 597.389L565.348 595.704C529.707 595.765 500.896 591.895 469.715 575.449C368.634 522.134 322.605 382.913 366.883 264.615C400.204 175.593 475.202 123.655 553.32 126.115C553.444 126.091 553.568 126.093 553.674 126.117C553.715 126.125 553.753 126.139 553.787 126.15L994.982 126.845L994.995 128.661L553.495 127.965L553.441 127.936L553.392 127.936C475.84 125.449 401.371 176.995 368.296 265.36C346.327 324.056 346.763 387.928 365.229 443.754C383.696 499.58 420.183 547.336 470.337 573.789C501.262 590.1 529.771 593.946 565.334 593.888L996.091 595.571L996.098 597.389Z" fill="white"/>
<path d="M984.692 607.112L539.459 605.367C502.623 605.431 472.847 601.428 440.622 584.432C336.155 529.331 288.58 385.448 334.341 263.189C368.776 171.189 446.282 117.506 527.021 120.051C527.145 120.027 527.276 120.026 527.382 120.049C527.427 120.06 527.467 120.069 527.501 120.08L983.531 120.796L983.545 122.612L527.21 121.895L527.159 121.869L527.106 121.866C446.934 119.294 369.954 172.577 335.76 263.932C313.05 324.607 313.501 390.641 332.589 448.348C351.677 506.055 389.399 555.427 441.243 582.772C473.213 599.634 502.687 603.612 539.446 603.552L984.686 605.293L984.697 607.114L984.692 607.112Z" fill="#F9F9F9"/>
<path d="M973.284 616.833L513.568 615.03C475.535 615.095 444.792 610.966 411.526 593.413C303.677 536.529 254.557 387.983 301.802 261.759C337.354 166.775 417.382 111.355 500.732 113.979C500.856 113.955 500.987 113.954 501.093 113.978C501.138 113.989 501.183 114 501.217 114.011L972.087 114.751L972.1 116.567L500.925 115.826L500.871 115.797L500.81 115.797C418.024 113.138 338.525 168.166 303.217 262.499C279.765 325.155 280.229 393.343 299.941 452.939C319.656 512.529 358.608 563.514 412.142 591.751C445.156 609.163 475.593 613.266 513.547 613.204L973.275 615.02L973.286 616.841L973.284 616.833Z" fill="#F5F5F5"/>
<path d="M961.874 626.561L487.673 624.704C448.44 624.769 416.736 620.51 382.431 602.409C271.196 543.74 220.537 390.528 269.264 260.344C305.931 162.381 388.472 105.219 474.438 107.926C474.568 107.898 474.7 107.897 474.81 107.924C474.86 107.937 474.9 107.945 474.939 107.959L960.643 108.72L960.657 110.536L474.642 109.772L474.587 109.743L474.523 109.741C389.114 107.002 307.104 163.767 270.684 261.086C246.491 325.722 246.971 396.066 267.306 457.543C287.641 519.02 327.828 571.616 383.054 600.744C417.111 618.707 448.513 622.941 487.664 622.877L961.86 624.745L961.872 626.566L961.874 626.561Z" fill="#EFEFEF"/>
<path d="M950.459 636.289L461.776 634.373C421.345 634.445 388.682 630.05 353.326 611.403C238.706 550.947 186.506 393.075 236.717 258.925C274.501 157.979 359.553 99.0797 448.141 101.866C448.272 101.839 448.408 101.84 448.513 101.864C448.563 101.877 448.603 101.886 448.642 101.9L949.191 102.686L949.204 104.502L448.35 103.714L448.295 103.686L448.22 103.684C360.197 100.858 275.674 159.365 238.132 259.665C213.198 326.281 213.694 398.787 234.65 462.145C255.612 525.505 297.024 579.713 353.95 609.737C389.05 628.251 421.414 632.615 461.765 632.551L950.446 634.473L950.457 636.294L950.459 636.289Z" fill="#E8E8E8"/>
<path d="M939.066 646.013L435.9 644.039C394.274 644.113 360.643 639.592 324.246 620.388C206.239 558.146 152.498 395.614 204.192 257.504C243.09 153.58 330.657 92.9326 421.86 95.8066C421.99 95.7794 422.128 95.7756 422.243 95.8042C422.292 95.8176 422.337 95.8285 422.376 95.8424L937.76 96.6499L937.773 98.4657L422.079 97.6545L422.02 97.6232L421.94 97.6192C331.302 94.7105 244.261 154.958 205.604 258.236C179.927 326.838 180.437 401.492 202.018 466.739C223.599 531.986 266.248 587.804 324.864 618.72C361.008 637.784 394.337 642.281 435.886 642.21L939.054 644.192L939.066 646.013Z" fill="#E3E3E3"/>
<path d="M927.662 655.74L410.012 653.712C367.19 653.789 332.593 649.135 295.152 629.381C173.759 565.353 118.48 398.156 171.656 256.085C211.673 149.172 301.751 86.7878 395.579 89.7489C395.713 89.7242 395.851 89.7203 395.961 89.7465C396.018 89.7569 396.061 89.7732 396.104 89.7895L926.323 90.6182L926.336 92.434L395.803 91.5993L395.744 91.5681L395.657 91.5669C302.398 88.5734 212.846 150.557 173.071 256.825C146.655 327.401 147.18 404.218 169.383 471.345C191.586 538.473 235.469 595.907 295.776 627.715C332.968 647.332 367.26 651.953 410.003 651.886L927.656 653.922L927.667 655.743L927.662 655.74Z" fill="#DEDEDE"/>
<path d="M916.263 665.464L384.13 663.377C340.112 663.455 304.553 658.677 266.064 638.37C141.285 572.557 84.4601 400.696 139.119 254.665C180.252 144.769 272.841 80.6479 369.284 83.6913C369.421 83.6612 369.562 83.6649 369.678 83.6882C369.734 83.6986 369.778 83.7149 369.821 83.7312L914.884 84.5859L914.898 86.4016L369.529 85.5458L369.465 85.5121L369.369 85.5061C273.495 82.4304 181.43 146.157 140.54 255.402C113.38 327.964 113.92 406.929 136.747 475.946C159.577 544.957 204.69 604.005 266.687 636.705C304.918 656.869 340.176 661.623 384.114 661.553L916.257 663.645L916.268 665.466L916.263 665.464Z" fill="#D9D9D9"/>
<path d="M904.851 675.191L358.24 673.048C313.022 673.126 276.501 668.218 236.969 647.36C108.808 579.763 50.4401 403.235 106.581 253.244C148.829 140.369 243.938 74.5028 342.995 77.6339C343.131 77.6038 343.274 77.6022 343.389 77.6308C343.445 77.6412 343.492 77.6599 343.537 77.6708L903.434 78.5521L903.448 80.3679L343.239 79.4884L343.175 79.4548L343.073 79.4518C244.578 76.2913 150.002 141.754 107.994 253.989C80.0931 328.531 80.6472 409.658 104.097 480.556C127.548 551.448 173.893 612.104 237.586 645.698C276.865 666.416 313.083 671.298 358.22 671.222L904.84 673.37L904.851 675.191Z" fill="#D4D4D4"/>
<path d="M893.447 684.916L332.351 682.718C285.936 682.798 248.451 677.758 207.877 656.358C76.3302 586.975 16.4212 405.787 74.0464 251.83C117.412 135.971 215.031 68.3681 316.704 71.5815C316.841 71.5514 316.988 71.5522 317.104 71.5754C317.165 71.5883 317.213 71.6069 317.258 71.6179L891.994 72.5227L892.007 74.3385L316.959 73.4355L316.896 73.4018L316.788 73.3965C215.678 70.1537 118.585 137.357 75.4611 252.57C46.8193 329.092 47.3859 412.372 71.4619 485.154C95.538 557.935 143.114 620.199 208.498 654.685C248.821 675.953 286 680.966 332.337 680.889L893.435 683.094L893.447 684.916Z" fill="#CECECE"/>
<path d="M882.046 694.637L306.467 692.38C258.857 692.462 220.408 687.298 178.788 665.339C43.8556 594.171 -17.5942 408.322 41.5153 250.4C85.9972 131.557 186.128 62.2173 290.416 65.5129C290.56 65.4799 290.707 65.4807 290.821 65.5093C290.882 65.5221 290.936 65.538 290.979 65.5543L880.555 66.4824L880.569 68.2982L290.681 67.3717L290.613 67.3357L290.499 67.3332C186.773 64.0081 87.1663 132.953 42.928 251.145C13.5451 329.647 14.1265 415.089 38.8245 489.752C63.5206 564.419 112.331 628.299 179.41 663.68C220.776 685.498 258.923 690.638 306.454 690.565L882.032 692.821L882.044 694.642L882.046 694.637Z" fill="#C7C7C7"/>
<path d="M870.653 704.365L280.592 702.05C231.783 702.14 192.371 696.838 149.708 674.329C11.3889 601.374 -51.6017 410.866 8.98554 248.98C54.5822 127.16 157.23 56.0797 264.137 59.4523C264.28 59.4193 264.427 59.4202 264.548 59.4459C264.609 59.4587 264.668 59.4769 264.711 59.4932L869.122 60.4424L869.135 62.2582L264.408 61.3082L264.339 61.2721L264.217 61.2649C157.872 57.8498 55.7527 128.537 10.3957 249.718C-19.7304 330.205 -19.13 417.799 6.18794 494.347C31.5105 570.899 81.5521 636.387 150.322 672.659C192.732 695.028 231.84 700.297 280.569 700.217L870.639 702.55L870.651 704.371L870.653 704.365Z" fill="#C2C2C2"/>
<path d="M859.241 714.091L254.695 711.722C204.692 711.813 164.314 706.379 120.607 683.32C-21.0984 608.579 -85.6324 413.403 -23.5582 247.559C23.1552 122.755 128.316 49.9328 237.841 53.3955C237.984 53.3624 238.138 53.3604 238.257 53.3914C238.322 53.4067 238.377 53.4224 238.424 53.4411L857.675 54.414L857.688 56.2298L238.126 55.2587L238.057 55.2226L237.933 55.2206C128.972 51.7232 24.3353 124.151 -22.1364 248.309C-53.0037 330.777 -52.391 420.524 -26.4484 498.962C-0.503919 577.394 50.7673 644.496 121.232 681.662C164.686 704.581 204.76 709.983 254.684 709.901L859.234 712.272L859.246 714.093L859.241 714.091Z" fill="#BDBDBD"/>
<path d="M847.831 723.817L228.803 721.389C177.598 721.48 136.26 715.916 91.5114 692.314C-53.5795 615.787 -119.654 415.951 -56.098 246.147C-8.26581 118.354 99.3971 43.7898 211.547 47.3396C211.69 47.3066 211.844 47.3045 211.97 47.3326C212.035 47.3479 212.093 47.366 212.141 47.3847L846.227 48.3788L846.241 50.1946L211.838 49.1999L211.765 49.1614L211.631 49.1546C100.05 45.5724 -7.09729 119.737 -54.6877 246.884C-86.2962 331.332 -85.6666 423.236 -59.1021 503.555C-32.5331 583.876 19.9698 652.586 92.1256 690.644C136.623 714.113 177.662 719.647 228.782 719.563L847.82 721.995L847.831 723.817Z" fill="#B8B8B8"/>
<path d="M836.432 733.54L202.919 731.059C150.519 731.152 108.213 725.461 62.423 701.303C-86.0541 622.99 -153.668 418.489 -88.629 244.724C-39.6801 113.948 70.5002 37.6439 185.264 41.2813C185.412 41.2507 185.565 41.2487 185.691 41.2768C185.756 41.292 185.815 41.3102 185.863 41.3289L834.788 42.3464L834.802 44.1622L185.56 43.144L185.487 43.1056L185.346 43.1017C71.1497 39.4372 -38.5111 115.344 -87.2163 245.47C-119.566 331.898 -118.926 425.961 -91.7349 508.163C-64.5439 590.365 -10.8069 660.691 63.0397 699.641C108.581 723.661 150.583 729.319 202.901 729.241L836.421 731.719L836.432 733.54Z" fill="#B3B3B3"/>
<path d="M825.025 743.268L177.03 740.727C123.434 740.822 80.1665 735.002 33.3265 710.296C-118.532 630.2 -187.691 421.036 -121.168 243.306C-71.1045 109.551 41.5889 31.5049 158.973 35.2271C159.123 35.1911 159.281 35.1914 159.407 35.2194C159.477 35.2371 159.535 35.2552 159.583 35.2739L823.348 36.315L823.362 38.1308L159.28 37.0891L159.207 37.0506L159.057 37.0421C42.2402 33.2929 -69.9314 110.937 -119.753 244.046C-152.844 332.454 -152.187 428.673 -124.376 512.762C-96.5588 596.848 -41.5921 668.787 33.9453 708.629C80.5301 733.199 123.498 738.99 177.014 738.904L825.014 741.446L825.025 743.268Z" fill="#ACACAC"/>
<path d="M813.62 752.992L151.142 750.393C96.3498 750.49 52.117 744.537 4.23342 719.281C-151.011 637.399 -221.716 423.572 -153.71 241.882C-102.53 105.144 12.6789 25.3631 132.676 29.1598C132.826 29.1238 132.984 29.124 133.115 29.1545C133.184 29.1722 133.248 29.1927 133.3 29.2138L811.9 30.2761L811.914 32.0919L132.997 31.029L132.919 30.9881L132.768 30.9849C13.3348 27.1534 -101.354 106.537 -152.293 242.63C-186.125 333.018 -185.451 431.394 -157.018 517.363C-128.581 603.336 -72.3825 676.883 4.85272 717.627C52.4811 742.748 96.4097 748.668 151.122 748.58L813.613 751.173L813.626 752.989L813.62 752.992Z" fill="#A7A7A7"/>
<path d="M802.213 762.714L125.255 760.063C69.2671 760.162 24.0713 754.085 -24.8585 728.271C-183.489 644.603 -255.733 426.11 -186.245 240.46C-133.948 100.738 -16.226 19.2151 106.39 23.1019C106.539 23.0659 106.7 23.0609 106.83 23.0913C106.906 23.106 106.968 23.132 107.02 23.1531L800.458 24.2443L800.471 26.0601L106.717 24.9682L106.635 24.9249L106.633 24.9303L106.477 24.9246C-15.5766 21.0084 -132.777 102.129 -184.828 241.208C-219.401 333.576 -218.717 434.111 -189.657 521.964C-160.593 609.82 -103.165 684.981 -24.2372 726.611C24.4348 752.283 69.3289 758.335 125.237 758.245L802.204 760.9L802.216 762.721L802.213 762.714Z" fill="#A2A2A2"/>
<path d="M790.797 772.439L99.3554 769.729C42.1674 769.828 -3.98932 763.621 -53.9582 737.259C-215.975 651.805 -289.759 428.652 -218.787 239.036C-165.375 96.3356 -45.1405 13.0704 80.0909 17.0395C80.2473 17.0006 80.4055 17.001 80.5405 17.0339C80.6168 17.0486 80.6782 17.0745 80.7349 17.098L789.013 18.2126L789.026 20.0284L80.432 18.913L80.3454 18.8674L80.3434 18.8727L80.1873 18.8671C-44.48 14.8633 -164.195 97.7314 -217.365 239.786C-252.679 334.135 -251.979 436.826 -222.299 526.566C-192.613 616.302 -133.951 693.08 -53.3323 735.601C-3.61666 761.823 42.2403 768 99.3486 767.911L790.788 770.625L790.799 772.446L790.797 772.439Z" fill="#9C9C9C"/>
<path d="M779.41 782.169L73.4861 779.4C15.1023 779.501 -32.02 773.162 -83.0345 746.255C-248.437 659.014 -323.763 431.202 -251.306 237.62C-196.777 91.9359 -74.0271 6.93622 53.8221 10.9823C53.9785 10.9434 54.1411 10.9461 54.2736 10.9712C54.35 10.9859 54.4178 11.0089 54.47 11.03L777.583 12.1658L777.597 13.9816L54.1625 12.8428L54.0714 12.7947L54.0583 12.8006L53.9067 12.7972C-73.3809 8.70867 -195.607 93.3138 -249.896 238.357C-285.953 334.692 -285.238 439.532 -254.934 531.16C-224.628 622.783 -164.73 701.171 -82.4203 744.584C-31.6611 771.357 15.1615 777.666 73.4656 777.574L779.399 780.347L779.41 782.169Z" fill="#979797"/>
<path d="M768.003 791.892L47.5948 789.07C-11.9849 789.173 -60.0747 782.707 -112.131 755.244C-280.92 666.218 -357.784 433.74 -283.852 236.2C-228.206 87.5328 -102.938 0.79318 27.5248 4.92687C27.6812 4.88796 27.8459 4.88542 27.981 4.9183C28.0619 4.9354 28.1296 4.95832 28.1818 4.97943L766.135 6.13871L766.148 7.95451L27.8743 6.79216L27.7786 6.7417L27.7635 6.75291L27.6119 6.74958C-102.292 2.57872 -227.035 88.9238 -282.439 236.946C-319.237 335.26 -318.507 442.262 -287.579 535.766C-256.647 629.272 -195.523 709.272 -111.519 753.579C-59.7112 780.905 -11.9276 787.343 47.5723 787.25L767.992 790.071L768.003 791.892Z" fill="#909090"/>
<path d="M-316.378 234.777C-334.813 284.03 -344.457 336.169 -345.038 389.74C-345.601 441.485 -337.731 492.381 -321.641 541.01C-305.557 589.642 -282.064 633.554 -251.825 671.527C-220.512 710.846 -183.297 742.036 -141.215 764.232C-86.6638 793.004 -36.6282 798.835 21.7158 798.739L756.602 801.617L756.591 799.796L21.6998 796.915C-36.4482 797.013 -86.3023 791.207 -140.598 762.57C-182.489 740.475 -219.538 709.423 -250.707 670.289C-280.81 632.49 -304.191 588.777 -320.21 540.365C-336.224 491.955 -344.055 441.291 -343.497 389.779C-342.915 336.452 -333.317 284.551 -314.963 235.516C-287.616 162.453 -242.783 101.718 -185.317 59.8794C-129.215 19.0334 -64.6691 -1.43838 1.33086 0.682252L1.7695 0.734794L754.716 1.91558L754.702 0.099779L1.90971 -1.08315C1.74877 -1.14886 1.51911 -1.20595 1.24354 -1.14039C-65.0205 -3.24056 -129.814 17.3242 -186.138 58.3276C-243.868 100.36 -288.903 161.371 -316.376 234.771" fill="#8C8C8C"/>
</g>
</g>
<g filter="url(#filter0_bd_456_9838)">
<rect x="556.156" y="775" width="366" height="200" rx="32" transform="rotate(1.19166 556.156 775)" fill="url(#paint0_linear_456_9838)" fill-opacity="0.8" shape-rendering="crispEdges"/>
<rect x="556.646" y="775.51" width="365" height="199" rx="31.5" transform="rotate(1.19166 556.646 775.51)" stroke="url(#paint1_radial_456_9838)" shape-rendering="crispEdges"/>
</g>
</g>
<defs>
<filter id="filter0_bd_456_9838" x="543.996" y="767" width="386.08" height="227.568" filterUnits="userSpaceOnUse" color-interpolation-filters="sRGB">
<feFlood flood-opacity="0" result="BackgroundImageFix"/>
<feGaussianBlur in="BackgroundImageFix" stdDeviation="4"/>
<feComposite in2="SourceAlpha" operator="in" result="effect1_backgroundBlur_456_9838"/>
<feColorMatrix in="SourceAlpha" type="matrix" values="0 0 0 0 0 0 0 0 0 0 0 0 0 0 0 0 0 0 127 0" result="hardAlpha"/>
<feOffset dy="4"/>
<feGaussianBlur stdDeviation="4"/>
<feComposite in2="hardAlpha" operator="out"/>
<feColorMatrix type="matrix" values="0 0 0 0 0 0 0 0 0 0 0 0 0 0 0 0 0 0 0.03 0"/>
<feBlend mode="normal" in2="effect1_backgroundBlur_456_9838" result="effect2_dropShadow_456_9838"/>
<feBlend mode="normal" in="SourceGraphic" in2="effect2_dropShadow_456_9838" result="shape"/>
</filter>
<linearGradient id="paint0_linear_456_9838" x1="564.776" y1="790.144" x2="829.236" y2="1029.98" gradientUnits="userSpaceOnUse">
<stop stop-color="white" stop-opacity="0.7"/>
<stop offset="1" stop-color="white"/>
</linearGradient>
<radialGradient id="paint1_radial_456_9838" cx="0" cy="0" r="1" gradientUnits="userSpaceOnUse" gradientTransform="translate(684.203 979.663) rotate(-63.4794) scale(244.946 414.108)">
<stop stop-color="white" stop-opacity="0"/>
<stop offset="1" stop-color="white"/>
</radialGradient>
<clipPath id="clip0_456_9838">
<rect width="1440" height="800" fill="white"/>
</clipPath>
<clipPath id="clip1_456_9838">
<rect width="1440" height="800" fill="white"/>
</clipPath>
<clipPath id="clip2_456_9838">
<rect width="1100" height="800" fill="white" transform="translate(753)"/>
</clipPath>
<clipPath id="clip3_456_9838">
<rect width="1100" height="800" fill="white" transform="matrix(-1 0 0 1 753 0)"/>
</clipPath>
</defs>
</svg>
