<svg width="110" height="50" viewBox="0 0 110 50" fill="none" xmlns="http://www.w3.org/2000/svg">
<path d="M29.2621 39.2696H18.6244C16.7868 39.2696 14.975 38.7535 13.4738 37.6955C8.05146 33.8763 11.5068 27.1282 11.5068 27.1282L18.6244 11.0645H30.3103L22.5197 28.5217C22.442 28.6765 22.3773 28.8314 22.3126 28.9862C21.9632 29.8507 21.7691 30.8055 21.7691 31.799C21.7691 35.9278 25.1209 39.2696 29.2621 39.2696Z" fill="white"/>
<path d="M36.3054 21.4635C39.2786 21.4635 41.6889 19.0604 41.6889 16.096C41.6889 13.1316 39.2786 10.7285 36.3054 10.7285C33.3322 10.7285 30.9219 13.1316 30.9219 16.096C30.9219 19.0604 33.3322 21.4635 36.3054 21.4635Z" fill="white"/>
<path d="M39.1146 23.0123L34.2358 33.8634C33.4205 35.7988 31.5052 37.1664 29.2663 37.1664C26.3028 37.1664 23.8828 34.7666 23.8828 31.7989C23.8828 30.8829 24.1158 30.1474 24.5169 29.27L29.2663 18.6641C30.3405 21.4768 33.0969 23.5413 36.3063 23.5413C37.2769 23.5542 38.2605 23.3606 39.1146 23.0123Z" fill="white"/>
<path d="M52.5319 15.1779C52.8554 15.1779 53.1401 15.0618 53.3731 14.8425C53.606 14.6102 53.7225 14.3393 53.7225 14.0167C53.7225 13.6941 53.606 13.4232 53.3731 13.1909C53.1401 12.9587 52.8554 12.8555 52.5319 12.8555C52.2084 12.8555 51.9495 12.9716 51.7166 13.1909C51.4837 13.4103 51.3672 13.707 51.3672 14.0296C51.3672 14.3522 51.4837 14.6231 51.7166 14.8554C51.9495 15.0618 52.2213 15.1779 52.5319 15.1779Z" fill="white"/>
<path d="M55.4928 15.1779C55.8164 15.1779 56.1011 15.0618 56.334 14.8425C56.5669 14.6102 56.6834 14.3393 56.6834 14.0167C56.6834 13.6941 56.5669 13.4232 56.334 13.1909C56.1011 12.9587 55.8164 12.8555 55.4928 12.8555C55.1693 12.8555 54.8975 12.9716 54.6646 13.1909C54.4317 13.4103 54.3281 13.707 54.3281 14.0296C54.3281 14.3522 54.4446 14.6231 54.6646 14.8554C54.8846 15.0618 55.1564 15.1779 55.4928 15.1779Z" fill="white"/>
<path d="M51.6238 16.3274C51.0414 16.6629 50.5756 17.1274 50.2391 17.708C49.9026 18.2886 49.7344 18.9209 49.7344 19.6047C49.7344 20.2885 49.9026 20.9208 50.2391 21.5014C50.5756 22.082 51.0414 22.5465 51.6238 22.882C52.2061 23.2174 52.8403 23.3852 53.5261 23.3852C54.212 23.3852 54.8461 23.2174 55.4285 22.882C56.0108 22.5465 56.4638 22.082 56.8132 21.5014C57.1497 20.9208 57.3179 20.2885 57.3179 19.6047V15.8242H53.5261C52.8403 15.8242 52.2061 15.992 51.6238 16.3274ZM55.1179 19.6047C55.1179 19.9015 55.0532 20.1595 54.9108 20.4047C54.7685 20.6498 54.5873 20.8433 54.3285 20.9853C54.0826 21.1272 53.8108 21.2046 53.5132 21.2046C53.2285 21.2046 52.9697 21.1272 52.7108 20.9853C52.465 20.8433 52.2708 20.6498 52.1285 20.4047C51.9861 20.1595 51.9214 19.9015 51.9214 19.6047C51.9214 19.3079 51.9861 19.0499 52.1285 18.8047C52.2708 18.5596 52.465 18.366 52.7108 18.2241C52.9567 18.0822 53.2285 18.0048 53.5132 18.0048H55.105V19.6047H55.1179Z" fill="white"/>
<path d="M80.6281 15.1791C80.9516 15.1791 81.2234 15.063 81.4563 14.8437C81.6893 14.6114 81.7928 14.3534 81.7928 14.0179C81.7928 13.6824 81.6763 13.4115 81.4563 13.1792C81.2234 12.9599 80.9516 12.8438 80.6281 12.8438C80.3046 12.8438 80.0199 12.9599 79.7869 13.1792C79.554 13.3986 79.4375 13.6953 79.4375 14.0179C79.4375 14.3405 79.554 14.6114 79.7869 14.8437C80.0328 15.063 80.3046 15.1791 80.6281 15.1791Z" fill="white"/>
<path d="M77.7819 15.1779C78.1054 15.1779 78.3901 15.0618 78.6231 14.8425C78.856 14.6102 78.9725 14.3393 78.9725 14.0167C78.9725 13.6941 78.856 13.4232 78.6231 13.1909C78.3901 12.9587 78.1054 12.8555 77.7819 12.8555C77.4584 12.8555 77.1866 12.9716 76.9537 13.1909C76.7207 13.4103 76.6172 13.707 76.6172 14.0296C76.6172 14.3522 76.7337 14.6231 76.9537 14.8554C77.1737 15.0618 77.4584 15.1779 77.7819 15.1779Z" fill="white"/>
<path d="M92.7858 20.1333C92.7858 20.4688 92.7082 20.7269 92.5658 20.9204C92.4235 21.1139 92.2035 21.2043 91.9188 21.2043H91.7764H91.4917H91.3623C91.1423 21.2043 90.9611 21.1268 90.8188 20.972C90.6764 20.8172 90.6117 20.6236 90.6117 20.3785V19.6043C90.6117 18.9205 90.4435 18.2883 90.107 17.7076C89.7705 17.127 89.3046 16.6625 88.7223 16.3271C88.1399 15.9787 87.5058 15.811 86.82 15.811C86.1341 15.811 85.4999 15.9787 84.9176 16.3271C84.3352 16.6754 83.8823 17.127 83.5329 17.7076C83.1835 18.2883 83.0282 18.9205 83.0282 19.6043C83.0282 19.914 83.0929 20.2108 83.2223 20.4946C83.3517 20.7656 83.5199 21.0107 83.727 21.2043H82.42H82.1223H81.1776C80.8929 21.2043 80.6729 21.1139 80.5176 20.9204C80.3623 20.7269 80.2847 20.4688 80.2847 20.1333V15.8239H78.0976V20.1333C78.0976 20.4688 78.0199 20.7269 77.8647 20.9204C77.7094 21.1139 77.4894 21.2043 77.1917 21.2043H75.9623H75.1599V20.4817C75.1599 19.5785 74.9399 18.7786 74.5129 18.0689C74.0858 17.3593 73.5035 16.8045 72.7788 16.4174C72.0541 16.0303 71.2388 15.8239 70.3458 15.8239H66.9423V18.0044H70.2164C70.7729 18.0044 71.2517 18.1076 71.6658 18.3141C72.0799 18.5205 72.3905 18.8173 72.6235 19.2044C72.8564 19.5914 72.9599 20.0559 72.9599 20.5978V21.2172H66.127H65.8294H65.027V19.7721C65.027 19.0366 64.8588 18.3657 64.5223 17.7722C64.1858 17.1786 63.7329 16.7012 63.1505 16.3529C62.5682 16.0045 61.9341 15.8368 61.2352 15.8368C60.4847 15.8368 59.7988 16.0432 59.1776 16.4432L60.0447 18.3528C60.0576 18.3528 60.0576 18.3528 60.0576 18.3399C60.0576 18.327 60.0576 18.327 60.0705 18.327C60.2647 18.2238 60.4458 18.1463 60.627 18.0818C60.8082 18.0173 61.0152 17.9915 61.2352 17.9915C61.5329 17.9915 61.8047 18.0689 62.0505 18.2108C62.2964 18.3528 62.4776 18.5592 62.6199 18.8302C62.7494 19.1011 62.827 19.3979 62.827 19.7463V21.1914H58.4141V23.3848H65.8294H76.247H77.1788C78.0329 23.3848 78.6929 23.088 79.1717 22.4945C79.6635 23.088 80.3235 23.3848 81.1647 23.3848H82.1094H82.407H86.807C87.3247 23.3848 87.8035 23.2816 88.2564 23.0751C88.7094 22.8687 89.0976 22.5977 89.4341 22.2494C89.6023 22.6106 89.8482 22.8945 90.1847 23.088C90.5082 23.2816 90.8964 23.3848 91.3623 23.3848H91.7894H91.9317C92.527 23.3848 93.0576 23.2429 93.5235 22.9719C93.9894 22.701 94.3517 22.3139 94.6105 21.8107C94.8694 21.3204 94.9988 20.7527 94.9988 20.1333V11.5918H92.7988V20.1333H92.7858ZM88.1917 20.4043C88.0494 20.6494 87.8552 20.843 87.6094 20.9849C87.3635 21.1268 87.1047 21.2043 86.807 21.2043C86.5223 21.2043 86.2635 21.1268 86.0047 20.9849C85.7588 20.843 85.5646 20.6494 85.4223 20.4043C85.2799 20.1591 85.2152 19.8882 85.2152 19.6043C85.2152 19.3205 85.2799 19.0495 85.4223 18.8044C85.5646 18.5592 85.7588 18.3657 86.0047 18.2238C86.2505 18.0818 86.5094 18.0044 86.807 18.0044C87.1047 18.0044 87.3635 18.0818 87.6094 18.2238C87.8552 18.3657 88.0494 18.5592 88.1917 18.8044C88.3341 19.0495 88.3988 19.3076 88.3988 19.6043C88.3988 19.9011 88.3341 20.1591 88.1917 20.4043Z" fill="white"/>
<path d="M99.5855 11.5918H97.3984V23.3848H99.5855V11.5918Z" fill="white"/>
<path d="M50.2161 27.6699H52.8043V34.018C52.8043 35.2696 53.4255 36.005 54.6549 36.005C55.8843 36.005 56.5314 35.2825 56.5314 34.018V27.6699H59.1196V34.0051C59.1196 36.934 57.0619 38.392 54.6031 38.392C52.1443 38.392 50.2031 36.9469 50.2031 34.0051V27.6699H50.2161Z" fill="white"/>
<path d="M66.7845 33.708C66.7845 32.5596 66.1503 31.9274 65.1668 31.9274C64.1833 31.9274 63.5492 32.5596 63.5492 33.708V38.2884H60.9609V29.8501H63.5492V30.9726C64.0668 30.263 64.9727 29.7598 66.1115 29.7598C68.0656 29.7598 69.3727 31.0887 69.3727 33.3596V38.2884H66.7845V33.708Z" fill="white"/>
<path d="M70.9219 29.9396C70.9219 29.1525 71.5431 28.5332 72.4748 28.5332C73.4066 28.5332 74.0019 29.1525 74.0019 29.9396C74.0019 30.7267 73.3807 31.3331 72.4748 31.3331C71.5689 31.3331 70.9219 30.7008 70.9219 29.9396ZM71.1678 31.9782H73.756V38.2876H71.1678V31.9782Z" fill="white"/>
<path d="M76.0509 31.9922H75.0156V29.8503H76.0509V27.7988H78.6392V29.8503H80.3345V31.9922H78.6392V35.3856C78.6392 35.8888 78.8462 36.0952 79.4286 36.0952H80.3603V38.2887H79.0403C77.2803 38.2887 76.0509 37.5532 76.0509 35.3598V31.9922Z" fill="white"/>
<path d="M85.5597 38.4049C83.0749 38.4049 81.2891 36.7405 81.2891 34.0697C81.2891 31.3988 83.0491 29.7344 85.5597 29.7344C88.0702 29.7344 89.7785 31.373 89.7785 33.9406C89.7785 34.1858 89.7655 34.4438 89.7397 34.7019H83.8644C83.9549 35.7986 84.6408 36.3147 85.4691 36.3147C86.1938 36.3147 86.6079 35.9534 86.8149 35.5019H89.5714C89.1702 37.1405 87.6691 38.4049 85.5597 38.4049ZM83.8773 33.2568H87.1255C87.1255 32.3407 86.4008 31.8117 85.5338 31.8117C84.6667 31.8117 84.0326 32.3149 83.8773 33.2568Z" fill="white"/>
<path d="M94.3442 29.7337C95.4701 29.7337 96.4407 30.2498 96.9584 31.024V27.1016H99.5466V38.2881H96.9584V37.0753C96.4925 37.8495 95.5995 38.4043 94.3442 38.4043C92.2737 38.4043 90.6172 36.714 90.6172 34.0432C90.6172 31.3723 92.2737 29.7337 94.3442 29.7337ZM95.1078 31.9788C94.1372 31.9788 93.2572 32.7013 93.2572 34.0432C93.2572 35.3851 94.1372 36.1463 95.1078 36.1463C96.0784 36.1463 96.9584 35.4109 96.9584 34.0561C96.9584 32.7013 96.0913 31.9788 95.1078 31.9788Z" fill="white"/>
</svg>
